<?xml version="1.0" encoding="utf-8" standalone="no"?>
<!DOCTYPE svg PUBLIC "-//W3C//DTD SVG 1.1//EN"
  "http://www.w3.org/Graphics/SVG/1.1/DTD/svg11.dtd">
<svg xmlns:xlink="http://www.w3.org/1999/xlink" width="1152pt" height="648pt" viewBox="0 0 1152 648" xmlns="http://www.w3.org/2000/svg" version="1.1">
 <metadata>
  <rdf:RDF xmlns:dc="http://purl.org/dc/elements/1.1/" xmlns:cc="http://creativecommons.org/ns#" xmlns:rdf="http://www.w3.org/1999/02/22-rdf-syntax-ns#">
   <cc:Work>
    <dc:type rdf:resource="http://purl.org/dc/dcmitype/StillImage"/>
    <dc:date>2024-06-19T16:55:22.103997</dc:date>
    <dc:format>image/svg+xml</dc:format>
    <dc:creator>
     <cc:Agent>
      <dc:title>Matplotlib v3.9.0, https://matplotlib.org/</dc:title>
     </cc:Agent>
    </dc:creator>
   </cc:Work>
  </rdf:RDF>
 </metadata>
 <defs>
  <style type="text/css">*{stroke-linejoin: round; stroke-linecap: butt}</style>
 </defs>
 <g id="figure_1">
  <g id="patch_1">
   <path d="M 0 648 
L 1152 648 
L 1152 0 
L 0 0 
z
" style="fill: #ffffff"/>
  </g>
  <g id="axes_1">
   <g id="patch_2">
    <path d="M 144 304.56 
L 1036.8 304.56 
L 1036.8 77.76 
L 144 77.76 
z
" style="fill: #ffffff"/>
   </g>
   <g id="PolyCollection_1">
    <defs>
     <path id="m98afc9c81a" d="M 292.849617 -495.835265 
L 292.849617 -489.068306 
L 295.826609 -490.955521 
L 298.803601 -492.779659 
L 301.780594 -494.572796 
L 304.757586 -496.349812 
L 307.734578 -498.109106 
L 310.711571 -499.862523 
L 313.688563 -501.60138 
L 316.665555 -503.31851 
L 319.642548 -505.02021 
L 322.61954 -506.719416 
L 325.596532 -508.394556 
L 328.573525 -510.059221 
L 331.550517 -511.706624 
L 334.527509 -513.343294 
L 337.504502 -514.972227 
L 340.481494 -516.583698 
L 343.458486 -518.185747 
L 346.435478 -519.764906 
L 349.412471 -521.334846 
L 352.389463 -522.895594 
L 355.366455 -524.435093 
L 358.343448 -525.958745 
L 361.32044 -527.46089 
L 364.297432 -528.941182 
L 367.274425 -530.391907 
L 370.251417 -531.833193 
L 373.228409 -533.250926 
L 376.205402 -534.639178 
L 379.182394 -536.001625 
L 382.159386 -537.333722 
L 385.136379 -538.619921 
L 388.113371 -539.871139 
L 391.090363 -541.064673 
L 394.067356 -542.217055 
L 397.044348 -543.330162 
L 400.02134 -544.385384 
L 402.998333 -545.376311 
L 405.975325 -546.313125 
L 408.952317 -547.213075 
L 411.92931 -548.03599 
L 414.906302 -548.788828 
L 417.883294 -549.464666 
L 420.860287 -550.056355 
L 423.837279 -550.558496 
L 426.814271 -550.962049 
L 429.791264 -551.277169 
L 432.768256 -551.536487 
L 435.745248 -551.711329 
L 438.722241 -551.786868 
L 441.699233 -551.755381 
L 444.676225 -551.643827 
L 447.653218 -551.422911 
L 450.63021 -551.106492 
L 453.607202 -550.689947 
L 456.584195 -550.190647 
L 459.561187 -549.587091 
L 462.538179 -548.903055 
L 465.515172 -548.122687 
L 468.492164 -547.239693 
L 471.469156 -546.261089 
L 474.446149 -545.198375 
L 477.423141 -544.022941 
L 480.400133 -542.76376 
L 483.377126 -541.398475 
L 486.354118 -539.912279 
L 489.33111 -538.350023 
L 492.308103 -536.696808 
L 495.285095 -534.953629 
L 498.262087 -533.111037 
L 501.23908 -531.180556 
L 504.216072 -529.152432 
L 507.193064 -527.058242 
L 510.170057 -524.905724 
L 513.147049 -522.695617 
L 516.124041 -520.402439 
L 519.101034 -518.039475 
L 522.078026 -515.630204 
L 525.055018 -513.174425 
L 528.032011 -510.663807 
L 531.009003 -508.090096 
L 533.985995 -505.443548 
L 536.962988 -502.761632 
L 539.93998 -500.03936 
L 542.916972 -497.271483 
L 545.893965 -494.47237 
L 548.870957 -491.634369 
L 551.847949 -488.775701 
L 554.824942 -485.865899 
L 557.801934 -482.925556 
L 560.778926 -479.948897 
L 563.755919 -476.953739 
L 566.732911 -473.919355 
L 569.709903 -470.864952 
L 572.686896 -467.788905 
L 575.663888 -464.702106 
L 578.64088 -461.596072 
L 581.617873 -458.477685 
L 584.594865 -455.353313 
L 587.571857 -452.225094 
L 590.54885 -449.09004 
L 593.525842 -445.958229 
L 596.502834 -442.847033 
L 599.479827 -439.749494 
L 602.456819 -436.666668 
L 605.433811 -433.601872 
L 608.410804 -430.561369 
L 611.387796 -427.53395 
L 614.364788 -424.531688 
L 617.341781 -421.558862 
L 620.318773 -418.614483 
L 623.295765 -415.70985 
L 626.272758 -412.845698 
L 629.24975 -410.024013 
L 632.226742 -407.243057 
L 635.203735 -404.508785 
L 638.180727 -401.821282 
L 641.157719 -399.188922 
L 644.134712 -396.60803 
L 647.111704 -394.084405 
L 650.088696 -391.618541 
L 653.065689 -389.209272 
L 656.042681 -386.865964 
L 659.019673 -384.584267 
L 661.996666 -382.369823 
L 664.973658 -380.23066 
L 667.95065 -378.156687 
L 670.927643 -376.155055 
L 673.904635 -374.229904 
L 676.881627 -372.378336 
L 679.85862 -370.602802 
L 682.835612 -368.911255 
L 685.812604 -367.306818 
L 688.789597 -365.787367 
L 691.766589 -364.350285 
L 694.743581 -362.998391 
L 697.720574 -361.730595 
L 700.697566 -360.55452 
L 703.674558 -359.473449 
L 706.651551 -358.489488 
L 709.628543 -357.59239 
L 712.605535 -356.792301 
L 715.582528 -356.081022 
L 718.55952 -355.460845 
L 721.536512 -354.939084 
L 724.513505 -354.510103 
L 727.490497 -354.175555 
L 730.467489 -353.937636 
L 733.444481 -353.79519 
L 736.421474 -353.749091 
L 739.398466 -353.803182 
L 742.375458 -353.950119 
L 745.352451 -354.193943 
L 748.329443 -354.532316 
L 751.306435 -354.958945 
L 754.283428 -355.467842 
L 757.26042 -356.058056 
L 760.237412 -356.72433 
L 763.214405 -357.463564 
L 766.191397 -358.270463 
L 769.168389 -359.1457 
L 772.145382 -360.086536 
L 775.122374 -361.086119 
L 778.099366 -362.144399 
L 781.076359 -363.256266 
L 784.053351 -364.419261 
L 787.030343 -365.630295 
L 790.007336 -366.885538 
L 792.984328 -368.183977 
L 795.96132 -369.520598 
L 798.938313 -370.89562 
L 801.915305 -372.301669 
L 804.892297 -373.73596 
L 807.86929 -375.198861 
L 810.846282 -376.689777 
L 813.823274 -378.202303 
L 816.800267 -379.733389 
L 819.777259 -381.283578 
L 822.754251 -382.847385 
L 825.731244 -384.421937 
L 828.708236 -386.009651 
L 831.685228 -387.608612 
L 834.662221 -389.211346 
L 837.639213 -390.817419 
L 840.616205 -392.427206 
L 843.593198 -394.035765 
L 846.57019 -395.645674 
L 849.547182 -397.251242 
L 852.524175 -398.854568 
L 855.501167 -400.450703 
L 858.478159 -402.036536 
L 861.455152 -403.616142 
L 864.432144 -405.183988 
L 867.409136 -406.738844 
L 870.386129 -408.281176 
L 873.363121 -409.813466 
L 876.340113 -411.330163 
L 879.317106 -412.831934 
L 882.294098 -414.313203 
L 885.27109 -415.775731 
L 888.248083 -417.218365 
L 891.225075 -418.639365 
L 894.202067 -420.04397 
L 897.17906 -421.427652 
L 900.156052 -422.787963 
L 903.133044 -424.124726 
L 906.110037 -425.44159 
L 909.087029 -426.727805 
L 912.064021 -427.990987 
L 915.041014 -429.232883 
L 918.018006 -430.447527 
L 920.994998 -431.636438 
L 923.971991 -432.797218 
L 926.948983 -433.934352 
L 929.925975 -435.038833 
L 932.902968 -436.119242 
L 935.87996 -437.166895 
L 938.856952 -438.181325 
L 941.833945 -439.167111 
L 944.810937 -440.128043 
L 947.787929 -441.061744 
L 950.764922 -441.967253 
L 953.741914 -442.843122 
L 956.718906 -443.689849 
L 959.695899 -444.50368 
L 962.672891 -445.291202 
L 965.649883 -446.045175 
L 968.626876 -446.774141 
L 971.603868 -447.464685 
L 974.58086 -448.128206 
L 977.557853 -448.763391 
L 980.534845 -449.372396 
L 983.511837 -449.94721 
L 986.48883 -450.494394 
L 989.465822 -451.012224 
L 992.442814 -451.498064 
L 995.419807 -451.949366 
L 998.396799 -452.371405 
L 1001.373791 -452.763531 
L 1004.350784 -453.126785 
L 1007.327776 -453.461826 
L 1010.304768 -453.760683 
L 1013.281761 -454.037185 
L 1016.258753 -454.27868 
L 1019.235745 -454.487674 
L 1022.212738 -454.673904 
L 1025.18973 -454.826405 
L 1028.166722 -454.948061 
L 1031.143715 -455.043805 
L 1034.120707 -455.1045 
L 1034.120707 -458.881204 
L 1034.120707 -458.881204 
L 1031.143715 -458.92026 
L 1028.166722 -458.922944 
L 1025.18973 -458.897666 
L 1022.212738 -458.838535 
L 1019.235745 -458.743679 
L 1016.258753 -458.624781 
L 1013.281761 -458.469396 
L 1010.304768 -458.277215 
L 1007.327776 -458.06102 
L 1004.350784 -457.805772 
L 1001.373791 -457.521616 
L 998.396799 -457.206959 
L 995.419807 -456.861313 
L 992.442814 -456.484539 
L 989.465822 -456.071179 
L 986.48883 -455.624419 
L 983.511837 -455.14895 
L 980.534845 -454.644504 
L 977.557853 -454.105499 
L 974.58086 -453.541676 
L 971.603868 -452.949875 
L 968.626876 -452.329062 
L 965.649883 -451.668398 
L 962.672891 -450.982628 
L 959.695899 -450.262354 
L 956.718906 -449.51553 
L 953.741914 -448.734737 
L 950.764922 -447.923681 
L 947.787929 -447.082824 
L 944.810937 -446.213684 
L 941.833945 -445.318285 
L 938.856952 -444.398775 
L 935.87996 -443.447782 
L 932.902968 -442.461043 
L 929.925975 -441.440045 
L 926.948983 -440.393663 
L 923.971991 -439.312709 
L 920.994998 -438.208213 
L 918.018006 -437.073524 
L 915.041014 -435.912071 
L 912.064021 -434.723169 
L 909.087029 -433.513681 
L 906.110037 -432.27857 
L 903.133044 -431.010924 
L 900.156052 -429.722942 
L 897.17906 -428.409959 
L 894.202067 -427.07283 
L 891.225075 -425.714929 
L 888.248083 -424.340606 
L 885.27109 -422.942935 
L 882.294098 -421.5242 
L 879.317106 -420.083904 
L 876.340113 -418.621657 
L 873.363121 -417.144054 
L 870.386129 -415.650134 
L 867.409136 -414.147477 
L 864.432144 -412.63106 
L 861.455152 -411.099243 
L 858.478159 -409.55543 
L 855.501167 -408.004423 
L 852.524175 -406.440901 
L 849.547182 -404.869729 
L 846.57019 -403.295211 
L 843.593198 -401.714733 
L 840.616205 -400.135045 
L 837.639213 -398.553433 
L 834.662221 -396.973874 
L 831.685228 -395.395056 
L 828.708236 -393.819813 
L 825.731244 -392.256493 
L 822.754251 -390.705176 
L 819.777259 -389.162385 
L 816.800267 -387.632784 
L 813.823274 -386.12194 
L 810.846282 -384.627316 
L 807.86929 -383.154419 
L 804.892297 -381.710649 
L 801.915305 -380.294345 
L 798.938313 -378.903125 
L 795.96132 -377.54221 
L 792.984328 -376.220104 
L 790.007336 -374.935631 
L 787.030343 -373.694591 
L 784.053351 -372.496675 
L 781.076359 -371.345842 
L 778.099366 -370.246622 
L 775.122374 -369.201622 
L 772.145382 -368.216436 
L 769.168389 -367.291201 
L 766.191397 -366.434704 
L 763.214405 -365.647182 
L 760.237412 -364.927338 
L 757.26042 -364.280891 
L 754.283428 -363.710757 
L 751.306435 -363.220782 
L 748.329443 -362.808992 
L 745.352451 -362.481023 
L 742.375458 -362.239989 
L 739.398466 -362.089678 
L 736.421474 -362.035742 
L 733.444481 -362.086572 
L 730.467489 -362.235868 
L 727.490497 -362.484869 
L 724.513505 -362.833689 
L 721.536512 -363.27875 
L 718.55952 -363.820272 
L 715.582528 -364.463288 
L 712.605535 -365.197542 
L 709.628543 -366.023666 
L 706.651551 -366.948747 
L 703.674558 -367.961661 
L 700.697566 -369.075496 
L 697.720574 -370.287135 
L 694.743581 -371.591947 
L 691.766589 -372.981614 
L 688.789597 -374.45706 
L 685.812604 -376.015149 
L 682.835612 -377.65848 
L 679.85862 -379.389739 
L 676.881627 -381.205834 
L 673.904635 -383.097136 
L 670.927643 -385.061735 
L 667.95065 -387.103364 
L 664.973658 -389.216842 
L 661.996666 -391.394051 
L 659.019673 -393.645608 
L 656.042681 -395.963466 
L 653.065689 -398.34194 
L 650.088696 -400.785638 
L 647.111704 -403.284701 
L 644.134712 -405.840311 
L 641.157719 -408.452493 
L 638.180727 -411.114485 
L 635.203735 -413.829858 
L 632.226742 -416.59036 
L 629.24975 -419.396275 
L 626.272758 -422.242212 
L 623.295765 -425.127656 
L 620.318773 -428.050379 
L 617.341781 -431.01025 
L 614.364788 -433.99614 
L 611.387796 -437.009795 
L 608.410804 -440.048689 
L 605.433811 -443.100384 
L 602.456819 -446.173856 
L 599.479827 -449.263731 
L 596.502834 -452.365255 
L 593.525842 -455.475281 
L 590.54885 -458.599787 
L 587.571857 -461.72536 
L 584.594865 -464.843921 
L 581.617873 -467.955758 
L 578.64088 -471.058523 
L 575.663888 -474.150497 
L 572.686896 -477.219953 
L 569.709903 -480.275665 
L 566.732911 -483.307332 
L 563.755919 -486.320592 
L 560.778926 -489.294604 
L 557.801934 -492.249595 
L 554.824942 -495.166785 
L 551.847949 -498.057713 
L 548.870957 -500.898462 
L 545.893965 -503.715742 
L 542.916972 -506.49028 
L 539.93998 -509.231244 
L 536.962988 -511.926391 
L 533.985995 -514.572551 
L 531.009003 -517.184388 
L 528.032011 -519.73342 
L 525.055018 -522.221804 
L 522.078026 -524.650779 
L 519.101034 -527.025463 
L 516.124041 -529.349714 
L 513.147049 -531.610781 
L 510.170057 -533.791526 
L 507.193064 -535.903453 
L 504.216072 -537.946535 
L 501.23908 -539.924305 
L 498.262087 -541.804788 
L 495.285095 -543.602367 
L 492.308103 -545.304574 
L 489.33111 -546.915468 
L 486.354118 -548.434819 
L 483.377126 -549.878569 
L 480.400133 -551.211728 
L 477.423141 -552.44339 
L 474.446149 -553.592344 
L 471.469156 -554.63534 
L 468.492164 -555.594502 
L 465.515172 -556.460666 
L 462.538179 -557.228812 
L 459.561187 -557.898537 
L 456.584195 -558.487383 
L 453.607202 -558.970721 
L 450.63021 -559.367105 
L 447.653218 -559.660958 
L 444.676225 -559.853565 
L 441.699233 -559.930909 
L 438.722241 -559.928257 
L 435.745248 -559.823378 
L 432.768256 -559.622956 
L 429.791264 -559.337162 
L 426.814271 -558.992282 
L 423.837279 -558.563496 
L 420.860287 -558.040265 
L 417.883294 -557.429919 
L 414.906302 -556.736798 
L 411.92931 -555.966828 
L 408.952317 -555.127559 
L 405.975325 -554.212267 
L 402.998333 -553.259996 
L 400.02134 -552.253634 
L 397.044348 -551.183741 
L 394.067356 -550.057329 
L 391.090363 -548.891861 
L 388.113371 -547.685071 
L 385.136379 -546.419617 
L 382.159386 -545.11778 
L 379.182394 -543.768334 
L 376.205402 -542.388496 
L 373.228409 -540.982095 
L 370.251417 -539.545672 
L 367.274425 -538.087104 
L 364.297432 -536.618235 
L 361.32044 -535.118103 
L 358.343448 -533.595789 
L 355.366455 -532.051647 
L 352.389463 -530.491793 
L 349.412471 -528.912689 
L 346.435478 -527.328209 
L 343.458486 -525.737402 
L 340.481494 -524.128844 
L 337.504502 -522.515811 
L 334.527509 -520.891957 
L 331.550517 -519.269995 
L 328.573525 -517.644433 
L 325.596532 -516.006881 
L 322.61954 -514.36283 
L 319.642548 -512.697074 
L 316.665555 -511.028124 
L 313.688563 -509.331928 
L 310.711571 -507.593088 
L 307.734578 -505.80916 
L 304.757586 -503.971203 
L 301.780594 -502.047339 
L 298.803601 -500.026661 
L 295.826609 -497.910002 
L 292.849617 -495.835265 
z
" style="stroke: #00ffff; stroke-opacity: 0.5"/>
    </defs>
    <g clip-path="url(#pdf2b665644)">
     <use xlink:href="#m98afc9c81a" x="0" y="648" style="fill: #00ffff; fill-opacity: 0.5; stroke: #00ffff; stroke-opacity: 0.5"/>
    </g>
   </g>
   <g id="matplotlib.axis_1">
    <g id="xtick_1">
     <g id="line2d_1">
      <defs>
       <path id="mda09553d05" d="M 0 0 
L 0 3.5 
" style="stroke: #000000; stroke-width: 0.8"/>
      </defs>
      <g>
       <use xlink:href="#mda09553d05" x="144" y="304.56" style="stroke: #000000; stroke-width: 0.8"/>
      </g>
     </g>
     <g id="text_1">
      <!-- 0 -->
      <g transform="translate(140.81875 319.158437) scale(0.1 -0.1)">
       <defs>
        <path id="DejaVuSans-30" d="M 2034 4250 
Q 1547 4250 1301 3770 
Q 1056 3291 1056 2328 
Q 1056 1369 1301 889 
Q 1547 409 2034 409 
Q 2525 409 2770 889 
Q 3016 1369 3016 2328 
Q 3016 3291 2770 3770 
Q 2525 4250 2034 4250 
z
M 2034 4750 
Q 2819 4750 3233 4129 
Q 3647 3509 3647 2328 
Q 3647 1150 3233 529 
Q 2819 -91 2034 -91 
Q 1250 -91 836 529 
Q 422 1150 422 2328 
Q 422 3509 836 4129 
Q 1250 4750 2034 4750 
z
" transform="scale(0.015625)"/>
       </defs>
       <use xlink:href="#DejaVuSans-30"/>
      </g>
     </g>
    </g>
    <g id="xtick_2">
     <g id="line2d_2">
      <g>
       <use xlink:href="#mda09553d05" x="292.849617" y="304.56" style="stroke: #000000; stroke-width: 0.8"/>
      </g>
     </g>
     <g id="text_2">
      <!-- 5 -->
      <g transform="translate(289.668367 319.158437) scale(0.1 -0.1)">
       <defs>
        <path id="DejaVuSans-35" d="M 691 4666 
L 3169 4666 
L 3169 4134 
L 1269 4134 
L 1269 2991 
Q 1406 3038 1543 3061 
Q 1681 3084 1819 3084 
Q 2600 3084 3056 2656 
Q 3513 2228 3513 1497 
Q 3513 744 3044 326 
Q 2575 -91 1722 -91 
Q 1428 -91 1123 -41 
Q 819 9 494 109 
L 494 744 
Q 775 591 1075 516 
Q 1375 441 1709 441 
Q 2250 441 2565 725 
Q 2881 1009 2881 1497 
Q 2881 1984 2565 2268 
Q 2250 2553 1709 2553 
Q 1456 2553 1204 2497 
Q 953 2441 691 2322 
L 691 4666 
z
" transform="scale(0.015625)"/>
       </defs>
       <use xlink:href="#DejaVuSans-35"/>
      </g>
     </g>
    </g>
    <g id="xtick_3">
     <g id="line2d_3">
      <g>
       <use xlink:href="#mda09553d05" x="441.699233" y="304.56" style="stroke: #000000; stroke-width: 0.8"/>
      </g>
     </g>
     <g id="text_3">
      <!-- 10 -->
      <g transform="translate(435.336733 319.158437) scale(0.1 -0.1)">
       <defs>
        <path id="DejaVuSans-31" d="M 794 531 
L 1825 531 
L 1825 4091 
L 703 3866 
L 703 4441 
L 1819 4666 
L 2450 4666 
L 2450 531 
L 3481 531 
L 3481 0 
L 794 0 
L 794 531 
z
" transform="scale(0.015625)"/>
       </defs>
       <use xlink:href="#DejaVuSans-31"/>
       <use xlink:href="#DejaVuSans-30" x="63.623047"/>
      </g>
     </g>
    </g>
    <g id="xtick_4">
     <g id="line2d_4">
      <g>
       <use xlink:href="#mda09553d05" x="590.54885" y="304.56" style="stroke: #000000; stroke-width: 0.8"/>
      </g>
     </g>
     <g id="text_4">
      <!-- 15 -->
      <g transform="translate(584.18635 319.158437) scale(0.1 -0.1)">
       <use xlink:href="#DejaVuSans-31"/>
       <use xlink:href="#DejaVuSans-35" x="63.623047"/>
      </g>
     </g>
    </g>
    <g id="xtick_5">
     <g id="line2d_5">
      <g>
       <use xlink:href="#mda09553d05" x="739.398466" y="304.56" style="stroke: #000000; stroke-width: 0.8"/>
      </g>
     </g>
     <g id="text_5">
      <!-- 20 -->
      <g transform="translate(733.035966 319.158437) scale(0.1 -0.1)">
       <defs>
        <path id="DejaVuSans-32" d="M 1228 531 
L 3431 531 
L 3431 0 
L 469 0 
L 469 531 
Q 828 903 1448 1529 
Q 2069 2156 2228 2338 
Q 2531 2678 2651 2914 
Q 2772 3150 2772 3378 
Q 2772 3750 2511 3984 
Q 2250 4219 1831 4219 
Q 1534 4219 1204 4116 
Q 875 4013 500 3803 
L 500 4441 
Q 881 4594 1212 4672 
Q 1544 4750 1819 4750 
Q 2544 4750 2975 4387 
Q 3406 4025 3406 3419 
Q 3406 3131 3298 2873 
Q 3191 2616 2906 2266 
Q 2828 2175 2409 1742 
Q 1991 1309 1228 531 
z
" transform="scale(0.015625)"/>
       </defs>
       <use xlink:href="#DejaVuSans-32"/>
       <use xlink:href="#DejaVuSans-30" x="63.623047"/>
      </g>
     </g>
    </g>
    <g id="xtick_6">
     <g id="line2d_6">
      <g>
       <use xlink:href="#mda09553d05" x="888.248083" y="304.56" style="stroke: #000000; stroke-width: 0.8"/>
      </g>
     </g>
     <g id="text_6">
      <!-- 25 -->
      <g transform="translate(881.885583 319.158437) scale(0.1 -0.1)">
       <use xlink:href="#DejaVuSans-32"/>
       <use xlink:href="#DejaVuSans-35" x="63.623047"/>
      </g>
     </g>
    </g>
   </g>
   <g id="matplotlib.axis_2">
    <g id="ytick_1">
     <g id="line2d_7">
      <defs>
       <path id="meb9fee71b7" d="M 0 0 
L -3.5 0 
" style="stroke: #000000; stroke-width: 0.8"/>
      </defs>
      <g>
       <use xlink:href="#meb9fee71b7" x="144" y="289.688055" style="stroke: #000000; stroke-width: 0.8"/>
      </g>
     </g>
     <g id="text_7">
      <!-- 0.5 -->
      <g transform="translate(121.096875 293.487273) scale(0.1 -0.1)">
       <defs>
        <path id="DejaVuSans-2e" d="M 684 794 
L 1344 794 
L 1344 0 
L 684 0 
L 684 794 
z
" transform="scale(0.015625)"/>
       </defs>
       <use xlink:href="#DejaVuSans-30"/>
       <use xlink:href="#DejaVuSans-2e" x="63.623047"/>
       <use xlink:href="#DejaVuSans-35" x="95.410156"/>
      </g>
     </g>
    </g>
    <g id="ytick_2">
     <g id="line2d_8">
      <g>
       <use xlink:href="#meb9fee71b7" x="144" y="256.934828" style="stroke: #000000; stroke-width: 0.8"/>
      </g>
     </g>
     <g id="text_8">
      <!-- 1.0 -->
      <g transform="translate(121.096875 260.734047) scale(0.1 -0.1)">
       <use xlink:href="#DejaVuSans-31"/>
       <use xlink:href="#DejaVuSans-2e" x="63.623047"/>
       <use xlink:href="#DejaVuSans-30" x="95.410156"/>
      </g>
     </g>
    </g>
    <g id="ytick_3">
     <g id="line2d_9">
      <g>
       <use xlink:href="#meb9fee71b7" x="144" y="224.181602" style="stroke: #000000; stroke-width: 0.8"/>
      </g>
     </g>
     <g id="text_9">
      <!-- 1.5 -->
      <g transform="translate(121.096875 227.980821) scale(0.1 -0.1)">
       <use xlink:href="#DejaVuSans-31"/>
       <use xlink:href="#DejaVuSans-2e" x="63.623047"/>
       <use xlink:href="#DejaVuSans-35" x="95.410156"/>
      </g>
     </g>
    </g>
    <g id="ytick_4">
     <g id="line2d_10">
      <g>
       <use xlink:href="#meb9fee71b7" x="144" y="191.428375" style="stroke: #000000; stroke-width: 0.8"/>
      </g>
     </g>
     <g id="text_10">
      <!-- 2.0 -->
      <g transform="translate(121.096875 195.227594) scale(0.1 -0.1)">
       <use xlink:href="#DejaVuSans-32"/>
       <use xlink:href="#DejaVuSans-2e" x="63.623047"/>
       <use xlink:href="#DejaVuSans-30" x="95.410156"/>
      </g>
     </g>
    </g>
    <g id="ytick_5">
     <g id="line2d_11">
      <g>
       <use xlink:href="#meb9fee71b7" x="144" y="158.675149" style="stroke: #000000; stroke-width: 0.8"/>
      </g>
     </g>
     <g id="text_11">
      <!-- 2.5 -->
      <g transform="translate(121.096875 162.474368) scale(0.1 -0.1)">
       <use xlink:href="#DejaVuSans-32"/>
       <use xlink:href="#DejaVuSans-2e" x="63.623047"/>
       <use xlink:href="#DejaVuSans-35" x="95.410156"/>
      </g>
     </g>
    </g>
    <g id="ytick_6">
     <g id="line2d_12">
      <g>
       <use xlink:href="#meb9fee71b7" x="144" y="125.921923" style="stroke: #000000; stroke-width: 0.8"/>
      </g>
     </g>
     <g id="text_12">
      <!-- 3.0 -->
      <g transform="translate(121.096875 129.721141) scale(0.1 -0.1)">
       <defs>
        <path id="DejaVuSans-33" d="M 2597 2516 
Q 3050 2419 3304 2112 
Q 3559 1806 3559 1356 
Q 3559 666 3084 287 
Q 2609 -91 1734 -91 
Q 1441 -91 1130 -33 
Q 819 25 488 141 
L 488 750 
Q 750 597 1062 519 
Q 1375 441 1716 441 
Q 2309 441 2620 675 
Q 2931 909 2931 1356 
Q 2931 1769 2642 2001 
Q 2353 2234 1838 2234 
L 1294 2234 
L 1294 2753 
L 1863 2753 
Q 2328 2753 2575 2939 
Q 2822 3125 2822 3475 
Q 2822 3834 2567 4026 
Q 2313 4219 1838 4219 
Q 1578 4219 1281 4162 
Q 984 4106 628 3988 
L 628 4550 
Q 988 4650 1302 4700 
Q 1616 4750 1894 4750 
Q 2613 4750 3031 4423 
Q 3450 4097 3450 3541 
Q 3450 3153 3228 2886 
Q 3006 2619 2597 2516 
z
" transform="scale(0.015625)"/>
       </defs>
       <use xlink:href="#DejaVuSans-33"/>
       <use xlink:href="#DejaVuSans-2e" x="63.623047"/>
       <use xlink:href="#DejaVuSans-30" x="95.410156"/>
      </g>
     </g>
    </g>
    <g id="ytick_7">
     <g id="line2d_13">
      <g>
       <use xlink:href="#meb9fee71b7" x="144" y="93.168696" style="stroke: #000000; stroke-width: 0.8"/>
      </g>
     </g>
     <g id="text_13">
      <!-- 3.5 -->
      <g transform="translate(121.096875 96.967915) scale(0.1 -0.1)">
       <use xlink:href="#DejaVuSans-33"/>
       <use xlink:href="#DejaVuSans-2e" x="63.623047"/>
       <use xlink:href="#DejaVuSans-35" x="95.410156"/>
      </g>
     </g>
    </g>
   </g>
   <g id="line2d_14">
    <path d="M 144 191.428375 
L 146.381594 191.554641 
L 156.503368 192.594261 
L 161.564255 192.746766 
L 166.922841 192.677784 
L 172.876826 192.363563 
L 179.426209 191.788868 
L 186.273291 190.966958 
L 194.013471 189.806135 
L 201.158253 188.530137 
L 209.196132 186.877825 
L 217.234011 184.998999 
L 224.974191 182.981424 
L 233.607469 180.500462 
L 242.836145 177.583264 
L 251.171724 174.730169 
L 259.805002 171.537379 
L 269.033678 167.890492 
L 278.262354 164.023377 
L 288.681827 159.412377 
L 294.338113 156.74445 
L 296.422007 155.447804 
L 306.543781 148.890069 
L 313.986262 144.429694 
L 323.214938 139.159872 
L 335.122908 132.583088 
L 349.412471 124.897597 
L 362.213538 118.260311 
L 372.037613 113.425193 
L 381.563988 108.962082 
L 388.70877 105.831338 
L 395.258153 103.193211 
L 402.105235 100.669102 
L 408.05922 98.714758 
L 413.715505 97.045404 
L 419.074091 95.694816 
L 423.837279 94.709225 
L 428.302768 94.000489 
L 433.959053 93.350543 
L 438.722241 93.017613 
L 443.187729 92.929413 
L 447.950917 93.058103 
L 452.416405 93.417845 
L 457.179593 94.040532 
L 461.645082 94.843353 
L 466.408269 95.914898 
L 471.171457 97.233167 
L 475.934645 98.783688 
L 480.995532 100.699526 
L 485.46102 102.623578 
L 490.521907 105.072808 
L 495.582794 107.777379 
L 500.345982 110.572305 
L 505.406869 113.799399 
L 511.658553 118.091935 
L 517.314838 122.231949 
L 523.864221 127.341727 
L 531.009003 133.205643 
L 537.260687 138.634689 
L 544.703168 145.359912 
L 553.634145 153.745426 
L 562.267422 162.170275 
L 571.793798 171.765746 
L 585.190263 185.620017 
L 613.173991 214.676806 
L 623.593464 225.108491 
L 631.929043 233.145162 
L 639.669223 240.317949 
L 646.814005 246.639872 
L 653.661087 252.404782 
L 660.21047 257.623962 
L 666.164455 262.095981 
L 672.118439 266.291989 
L 677.774725 270.008264 
L 683.133311 273.278795 
L 688.194198 276.117556 
L 693.255085 278.711803 
L 698.315972 281.065213 
L 703.07916 283.048006 
L 707.842347 284.782975 
L 712.605535 286.280651 
L 717.368723 287.539297 
L 722.131911 288.561996 
L 726.597399 289.296379 
L 731.062888 289.815248 
L 735.528376 290.114352 
L 739.993865 290.19183 
L 744.459353 290.047234 
L 748.924842 289.689474 
L 753.688029 289.088268 
L 758.748916 288.217964 
L 763.809803 287.122267 
L 769.168389 285.737761 
L 774.824675 284.036278 
L 780.77866 282.004515 
L 787.030343 279.635114 
L 793.877426 276.801396 
L 801.319907 273.473256 
L 809.953184 269.362411 
L 819.777259 264.4215 
L 832.876025 257.560381 
L 871.279226 237.229805 
L 883.782594 230.945702 
L 894.202067 225.96479 
L 904.323841 221.364871 
L 913.254818 217.536411 
L 922.483494 213.813101 
L 931.414471 210.456725 
L 939.452351 207.662595 
L 948.383328 204.818601 
L 957.016606 202.304691 
L 965.352184 200.117343 
L 973.687763 198.17137 
L 982.32104 196.404429 
L 990.35892 194.981361 
L 998.0991 193.82788 
L 1006.136979 192.853756 
L 1013.877159 192.126018 
L 1021.617339 191.611631 
L 1029.357519 191.303227 
L 1036.8 191.202433 
L 1036.8 191.202433 
" clip-path="url(#pdf2b665644)" style="fill: none; stroke-dasharray: 5.55,2.4; stroke-dashoffset: 0; stroke: #ffa500; stroke-width: 1.5"/>
   </g>
   <g id="line2d_15">
    <path d="M 292.849617 155.548214 
L 301.780594 149.689933 
L 307.734578 146.040867 
L 316.665555 140.826683 
L 331.550517 132.511691 
L 346.435478 124.453442 
L 358.343448 118.222733 
L 367.274425 113.760494 
L 376.205402 109.486163 
L 385.136379 105.480231 
L 391.090363 103.021733 
L 397.044348 100.743049 
L 402.998333 98.681847 
L 408.952317 96.829683 
L 414.906302 95.237187 
L 420.860287 93.95169 
L 426.814271 93.022834 
L 432.768256 92.420279 
L 438.722241 92.142438 
L 444.676225 92.251304 
L 450.63021 92.763202 
L 456.584195 93.660985 
L 462.538179 94.934066 
L 468.492164 96.582903 
L 474.446149 98.60464 
L 480.400133 101.012256 
L 486.354118 103.826451 
L 492.308103 106.999309 
L 498.262087 110.542088 
L 504.216072 114.450516 
L 510.170057 118.651375 
L 516.124041 123.123924 
L 522.078026 127.859508 
L 528.032011 132.801386 
L 533.985995 137.99195 
L 542.916972 146.119119 
L 551.847949 154.583293 
L 560.778926 163.378249 
L 569.709903 172.429691 
L 584.594865 187.901383 
L 605.433811 209.648872 
L 617.341781 221.715444 
L 626.272758 230.456045 
L 635.203735 238.830679 
L 641.157719 244.179293 
L 647.111704 249.315447 
L 653.065689 254.224394 
L 659.019673 258.885063 
L 664.973658 263.276249 
L 670.927643 267.391605 
L 676.881627 271.207915 
L 682.835612 274.715132 
L 688.789597 277.877787 
L 694.743581 280.704831 
L 700.697566 283.184992 
L 706.651551 285.280882 
L 712.605535 287.005078 
L 718.55952 288.359442 
L 724.513505 289.328104 
L 730.467489 289.913248 
L 736.421474 290.107583 
L 742.375458 289.904946 
L 748.329443 289.329346 
L 754.283428 288.4107 
L 760.237412 287.174166 
L 766.191397 285.647417 
L 772.145382 283.848514 
L 778.099366 281.80449 
L 784.053351 279.542032 
L 790.007336 277.089415 
L 798.938313 273.100628 
L 807.86929 268.82336 
L 819.777259 262.777019 
L 834.662221 254.90739 
L 864.432144 239.092476 
L 876.340113 233.02409 
L 885.27109 228.640667 
L 897.17906 223.081195 
L 906.110037 219.13992 
L 915.041014 215.427523 
L 923.971991 211.945036 
L 932.902968 208.709857 
L 941.833945 205.757302 
L 950.764922 203.054533 
L 959.695899 200.616983 
L 968.626876 198.448399 
L 977.557853 196.565555 
L 986.48883 194.940593 
L 995.419807 193.594661 
L 1004.350784 192.533721 
L 1013.281761 191.746709 
L 1022.212738 191.24378 
L 1031.143715 191.017967 
L 1034.120707 191.007148 
L 1034.120707 191.007148 
" clip-path="url(#pdf2b665644)" style="fill: none; stroke: #0000ff; stroke-opacity: 0.5; stroke-width: 1.5; stroke-linecap: square"/>
   </g>
   <g id="patch_3">
    <path d="M 144 304.56 
L 144 77.76 
" style="fill: none; stroke: #000000; stroke-width: 0.8; stroke-linejoin: miter; stroke-linecap: square"/>
   </g>
   <g id="patch_4">
    <path d="M 1036.8 304.56 
L 1036.8 77.76 
" style="fill: none; stroke: #000000; stroke-width: 0.8; stroke-linejoin: miter; stroke-linecap: square"/>
   </g>
   <g id="patch_5">
    <path d="M 144 304.56 
L 1036.8 304.56 
" style="fill: none; stroke: #000000; stroke-width: 0.8; stroke-linejoin: miter; stroke-linecap: square"/>
   </g>
   <g id="patch_6">
    <path d="M 144 77.76 
L 1036.8 77.76 
" style="fill: none; stroke: #000000; stroke-width: 0.8; stroke-linejoin: miter; stroke-linecap: square"/>
   </g>
   <g id="legend_1">
    <g id="patch_7">
     <path d="M 924.2 129.838125 
L 1029.8 129.838125 
Q 1031.8 129.838125 1031.8 127.838125 
L 1031.8 84.76 
Q 1031.8 82.76 1029.8 82.76 
L 924.2 82.76 
Q 922.2 82.76 922.2 84.76 
L 922.2 127.838125 
Q 922.2 129.838125 924.2 129.838125 
z
" style="fill: #ffffff; opacity: 0.8; stroke: #cccccc; stroke-linejoin: miter"/>
    </g>
    <g id="line2d_16">
     <path d="M 926.2 90.86 
L 936.2 90.86 
L 946.2 90.86 
" style="fill: none; stroke-dasharray: 5.55,2.4; stroke-dashoffset: 0; stroke: #ffa500; stroke-width: 1.5"/>
    </g>
    <g id="text_14">
     <!-- Real $y$ Position -->
     <g transform="translate(954.2 94.36) scale(0.1 -0.1)">
      <defs>
       <path id="DejaVuSans-52" d="M 2841 2188 
Q 3044 2119 3236 1894 
Q 3428 1669 3622 1275 
L 4263 0 
L 3584 0 
L 2988 1197 
Q 2756 1666 2539 1819 
Q 2322 1972 1947 1972 
L 1259 1972 
L 1259 0 
L 628 0 
L 628 4666 
L 2053 4666 
Q 2853 4666 3247 4331 
Q 3641 3997 3641 3322 
Q 3641 2881 3436 2590 
Q 3231 2300 2841 2188 
z
M 1259 4147 
L 1259 2491 
L 2053 2491 
Q 2509 2491 2742 2702 
Q 2975 2913 2975 3322 
Q 2975 3731 2742 3939 
Q 2509 4147 2053 4147 
L 1259 4147 
z
" transform="scale(0.015625)"/>
       <path id="DejaVuSans-65" d="M 3597 1894 
L 3597 1613 
L 953 1613 
Q 991 1019 1311 708 
Q 1631 397 2203 397 
Q 2534 397 2845 478 
Q 3156 559 3463 722 
L 3463 178 
Q 3153 47 2828 -22 
Q 2503 -91 2169 -91 
Q 1331 -91 842 396 
Q 353 884 353 1716 
Q 353 2575 817 3079 
Q 1281 3584 2069 3584 
Q 2775 3584 3186 3129 
Q 3597 2675 3597 1894 
z
M 3022 2063 
Q 3016 2534 2758 2815 
Q 2500 3097 2075 3097 
Q 1594 3097 1305 2825 
Q 1016 2553 972 2059 
L 3022 2063 
z
" transform="scale(0.015625)"/>
       <path id="DejaVuSans-61" d="M 2194 1759 
Q 1497 1759 1228 1600 
Q 959 1441 959 1056 
Q 959 750 1161 570 
Q 1363 391 1709 391 
Q 2188 391 2477 730 
Q 2766 1069 2766 1631 
L 2766 1759 
L 2194 1759 
z
M 3341 1997 
L 3341 0 
L 2766 0 
L 2766 531 
Q 2569 213 2275 61 
Q 1981 -91 1556 -91 
Q 1019 -91 701 211 
Q 384 513 384 1019 
Q 384 1609 779 1909 
Q 1175 2209 1959 2209 
L 2766 2209 
L 2766 2266 
Q 2766 2663 2505 2880 
Q 2244 3097 1772 3097 
Q 1472 3097 1187 3025 
Q 903 2953 641 2809 
L 641 3341 
Q 956 3463 1253 3523 
Q 1550 3584 1831 3584 
Q 2591 3584 2966 3190 
Q 3341 2797 3341 1997 
z
" transform="scale(0.015625)"/>
       <path id="DejaVuSans-6c" d="M 603 4863 
L 1178 4863 
L 1178 0 
L 603 0 
L 603 4863 
z
" transform="scale(0.015625)"/>
       <path id="DejaVuSans-20" transform="scale(0.015625)"/>
       <path id="DejaVuSans-Oblique-79" d="M 1588 -325 
Q 1188 -997 936 -1164 
Q 684 -1331 294 -1331 
L -159 -1331 
L -63 -850 
L 269 -850 
Q 509 -850 678 -719 
Q 847 -588 1056 -206 
L 1234 128 
L 459 3500 
L 1069 3500 
L 1650 819 
L 3256 3500 
L 3859 3500 
L 1588 -325 
z
" transform="scale(0.015625)"/>
       <path id="DejaVuSans-50" d="M 1259 4147 
L 1259 2394 
L 2053 2394 
Q 2494 2394 2734 2622 
Q 2975 2850 2975 3272 
Q 2975 3691 2734 3919 
Q 2494 4147 2053 4147 
L 1259 4147 
z
M 628 4666 
L 2053 4666 
Q 2838 4666 3239 4311 
Q 3641 3956 3641 3272 
Q 3641 2581 3239 2228 
Q 2838 1875 2053 1875 
L 1259 1875 
L 1259 0 
L 628 0 
L 628 4666 
z
" transform="scale(0.015625)"/>
       <path id="DejaVuSans-6f" d="M 1959 3097 
Q 1497 3097 1228 2736 
Q 959 2375 959 1747 
Q 959 1119 1226 758 
Q 1494 397 1959 397 
Q 2419 397 2687 759 
Q 2956 1122 2956 1747 
Q 2956 2369 2687 2733 
Q 2419 3097 1959 3097 
z
M 1959 3584 
Q 2709 3584 3137 3096 
Q 3566 2609 3566 1747 
Q 3566 888 3137 398 
Q 2709 -91 1959 -91 
Q 1206 -91 779 398 
Q 353 888 353 1747 
Q 353 2609 779 3096 
Q 1206 3584 1959 3584 
z
" transform="scale(0.015625)"/>
       <path id="DejaVuSans-73" d="M 2834 3397 
L 2834 2853 
Q 2591 2978 2328 3040 
Q 2066 3103 1784 3103 
Q 1356 3103 1142 2972 
Q 928 2841 928 2578 
Q 928 2378 1081 2264 
Q 1234 2150 1697 2047 
L 1894 2003 
Q 2506 1872 2764 1633 
Q 3022 1394 3022 966 
Q 3022 478 2636 193 
Q 2250 -91 1575 -91 
Q 1294 -91 989 -36 
Q 684 19 347 128 
L 347 722 
Q 666 556 975 473 
Q 1284 391 1588 391 
Q 1994 391 2212 530 
Q 2431 669 2431 922 
Q 2431 1156 2273 1281 
Q 2116 1406 1581 1522 
L 1381 1569 
Q 847 1681 609 1914 
Q 372 2147 372 2553 
Q 372 3047 722 3315 
Q 1072 3584 1716 3584 
Q 2034 3584 2315 3537 
Q 2597 3491 2834 3397 
z
" transform="scale(0.015625)"/>
       <path id="DejaVuSans-69" d="M 603 3500 
L 1178 3500 
L 1178 0 
L 603 0 
L 603 3500 
z
M 603 4863 
L 1178 4863 
L 1178 4134 
L 603 4134 
L 603 4863 
z
" transform="scale(0.015625)"/>
       <path id="DejaVuSans-74" d="M 1172 4494 
L 1172 3500 
L 2356 3500 
L 2356 3053 
L 1172 3053 
L 1172 1153 
Q 1172 725 1289 603 
Q 1406 481 1766 481 
L 2356 481 
L 2356 0 
L 1766 0 
Q 1100 0 847 248 
Q 594 497 594 1153 
L 594 3053 
L 172 3053 
L 172 3500 
L 594 3500 
L 594 4494 
L 1172 4494 
z
" transform="scale(0.015625)"/>
       <path id="DejaVuSans-6e" d="M 3513 2113 
L 3513 0 
L 2938 0 
L 2938 2094 
Q 2938 2591 2744 2837 
Q 2550 3084 2163 3084 
Q 1697 3084 1428 2787 
Q 1159 2491 1159 1978 
L 1159 0 
L 581 0 
L 581 3500 
L 1159 3500 
L 1159 2956 
Q 1366 3272 1645 3428 
Q 1925 3584 2291 3584 
Q 2894 3584 3203 3211 
Q 3513 2838 3513 2113 
z
" transform="scale(0.015625)"/>
      </defs>
      <use xlink:href="#DejaVuSans-52" transform="translate(0 0.015625)"/>
      <use xlink:href="#DejaVuSans-65" transform="translate(69.482422 0.015625)"/>
      <use xlink:href="#DejaVuSans-61" transform="translate(131.005859 0.015625)"/>
      <use xlink:href="#DejaVuSans-6c" transform="translate(192.285156 0.015625)"/>
      <use xlink:href="#DejaVuSans-20" transform="translate(220.068359 0.015625)"/>
      <use xlink:href="#DejaVuSans-Oblique-79" transform="translate(251.855469 0.015625)"/>
      <use xlink:href="#DejaVuSans-20" transform="translate(311.035156 0.015625)"/>
      <use xlink:href="#DejaVuSans-50" transform="translate(342.822266 0.015625)"/>
      <use xlink:href="#DejaVuSans-6f" transform="translate(403.125 0.015625)"/>
      <use xlink:href="#DejaVuSans-73" transform="translate(464.306641 0.015625)"/>
      <use xlink:href="#DejaVuSans-69" transform="translate(516.40625 0.015625)"/>
      <use xlink:href="#DejaVuSans-74" transform="translate(544.189453 0.015625)"/>
      <use xlink:href="#DejaVuSans-69" transform="translate(583.398438 0.015625)"/>
      <use xlink:href="#DejaVuSans-6f" transform="translate(611.181641 0.015625)"/>
      <use xlink:href="#DejaVuSans-6e" transform="translate(672.363281 0.015625)"/>
     </g>
    </g>
    <g id="line2d_17">
     <path d="M 926.2 105.56 
L 936.2 105.56 
L 946.2 105.56 
" style="fill: none; stroke: #0000ff; stroke-opacity: 0.5; stroke-width: 1.5; stroke-linecap: square"/>
    </g>
    <g id="text_15">
     <!-- Prediction $y$ -->
     <g transform="translate(954.2 109.06) scale(0.1 -0.1)">
      <defs>
       <path id="DejaVuSans-72" d="M 2631 2963 
Q 2534 3019 2420 3045 
Q 2306 3072 2169 3072 
Q 1681 3072 1420 2755 
Q 1159 2438 1159 1844 
L 1159 0 
L 581 0 
L 581 3500 
L 1159 3500 
L 1159 2956 
Q 1341 3275 1631 3429 
Q 1922 3584 2338 3584 
Q 2397 3584 2469 3576 
Q 2541 3569 2628 3553 
L 2631 2963 
z
" transform="scale(0.015625)"/>
       <path id="DejaVuSans-64" d="M 2906 2969 
L 2906 4863 
L 3481 4863 
L 3481 0 
L 2906 0 
L 2906 525 
Q 2725 213 2448 61 
Q 2172 -91 1784 -91 
Q 1150 -91 751 415 
Q 353 922 353 1747 
Q 353 2572 751 3078 
Q 1150 3584 1784 3584 
Q 2172 3584 2448 3432 
Q 2725 3281 2906 2969 
z
M 947 1747 
Q 947 1113 1208 752 
Q 1469 391 1925 391 
Q 2381 391 2643 752 
Q 2906 1113 2906 1747 
Q 2906 2381 2643 2742 
Q 2381 3103 1925 3103 
Q 1469 3103 1208 2742 
Q 947 2381 947 1747 
z
" transform="scale(0.015625)"/>
       <path id="DejaVuSans-63" d="M 3122 3366 
L 3122 2828 
Q 2878 2963 2633 3030 
Q 2388 3097 2138 3097 
Q 1578 3097 1268 2742 
Q 959 2388 959 1747 
Q 959 1106 1268 751 
Q 1578 397 2138 397 
Q 2388 397 2633 464 
Q 2878 531 3122 666 
L 3122 134 
Q 2881 22 2623 -34 
Q 2366 -91 2075 -91 
Q 1284 -91 818 406 
Q 353 903 353 1747 
Q 353 2603 823 3093 
Q 1294 3584 2113 3584 
Q 2378 3584 2631 3529 
Q 2884 3475 3122 3366 
z
" transform="scale(0.015625)"/>
      </defs>
      <use xlink:href="#DejaVuSans-50" transform="translate(0 0.015625)"/>
      <use xlink:href="#DejaVuSans-72" transform="translate(60.302734 0.015625)"/>
      <use xlink:href="#DejaVuSans-65" transform="translate(101.416016 0.015625)"/>
      <use xlink:href="#DejaVuSans-64" transform="translate(162.939453 0.015625)"/>
      <use xlink:href="#DejaVuSans-69" transform="translate(226.416016 0.015625)"/>
      <use xlink:href="#DejaVuSans-63" transform="translate(254.199219 0.015625)"/>
      <use xlink:href="#DejaVuSans-74" transform="translate(309.179688 0.015625)"/>
      <use xlink:href="#DejaVuSans-69" transform="translate(348.388672 0.015625)"/>
      <use xlink:href="#DejaVuSans-6f" transform="translate(376.171875 0.015625)"/>
      <use xlink:href="#DejaVuSans-6e" transform="translate(437.353516 0.015625)"/>
      <use xlink:href="#DejaVuSans-20" transform="translate(500.732422 0.015625)"/>
      <use xlink:href="#DejaVuSans-Oblique-79" transform="translate(532.519531 0.015625)"/>
     </g>
    </g>
    <g id="patch_8">
     <path d="M 926.2 123.758438 
L 946.2 123.758438 
L 946.2 116.758438 
L 926.2 116.758438 
z
" style="fill: #00ffff; fill-opacity: 0.5; stroke: #00ffff; stroke-opacity: 0.5; stroke-linejoin: miter"/>
    </g>
    <g id="text_16">
     <!-- Confidence -->
     <g transform="translate(954.2 123.758438) scale(0.1 -0.1)">
      <defs>
       <path id="DejaVuSans-43" d="M 4122 4306 
L 4122 3641 
Q 3803 3938 3442 4084 
Q 3081 4231 2675 4231 
Q 1875 4231 1450 3742 
Q 1025 3253 1025 2328 
Q 1025 1406 1450 917 
Q 1875 428 2675 428 
Q 3081 428 3442 575 
Q 3803 722 4122 1019 
L 4122 359 
Q 3791 134 3420 21 
Q 3050 -91 2638 -91 
Q 1578 -91 968 557 
Q 359 1206 359 2328 
Q 359 3453 968 4101 
Q 1578 4750 2638 4750 
Q 3056 4750 3426 4639 
Q 3797 4528 4122 4306 
z
" transform="scale(0.015625)"/>
       <path id="DejaVuSans-66" d="M 2375 4863 
L 2375 4384 
L 1825 4384 
Q 1516 4384 1395 4259 
Q 1275 4134 1275 3809 
L 1275 3500 
L 2222 3500 
L 2222 3053 
L 1275 3053 
L 1275 0 
L 697 0 
L 697 3053 
L 147 3053 
L 147 3500 
L 697 3500 
L 697 3744 
Q 697 4328 969 4595 
Q 1241 4863 1831 4863 
L 2375 4863 
z
" transform="scale(0.015625)"/>
      </defs>
      <use xlink:href="#DejaVuSans-43"/>
      <use xlink:href="#DejaVuSans-6f" x="69.824219"/>
      <use xlink:href="#DejaVuSans-6e" x="131.005859"/>
      <use xlink:href="#DejaVuSans-66" x="194.384766"/>
      <use xlink:href="#DejaVuSans-69" x="229.589844"/>
      <use xlink:href="#DejaVuSans-64" x="257.373047"/>
      <use xlink:href="#DejaVuSans-65" x="320.849609"/>
      <use xlink:href="#DejaVuSans-6e" x="382.373047"/>
      <use xlink:href="#DejaVuSans-63" x="445.751953"/>
      <use xlink:href="#DejaVuSans-65" x="500.732422"/>
     </g>
    </g>
   </g>
  </g>
  <g id="axes_2">
   <g id="patch_9">
    <path d="M 144 576.72 
L 1036.8 576.72 
L 1036.8 349.92 
L 144 349.92 
z
" style="fill: #ffffff"/>
   </g>
   <g id="matplotlib.axis_3">
    <g id="xtick_7">
     <g id="line2d_18">
      <g>
       <use xlink:href="#mda09553d05" x="144" y="576.72" style="stroke: #000000; stroke-width: 0.8"/>
      </g>
     </g>
     <g id="text_17">
      <!-- 0 -->
      <g transform="translate(140.81875 591.318438) scale(0.1 -0.1)">
       <use xlink:href="#DejaVuSans-30"/>
      </g>
     </g>
    </g>
    <g id="xtick_8">
     <g id="line2d_19">
      <g>
       <use xlink:href="#mda09553d05" x="292.849617" y="576.72" style="stroke: #000000; stroke-width: 0.8"/>
      </g>
     </g>
     <g id="text_18">
      <!-- 5 -->
      <g transform="translate(289.668367 591.318438) scale(0.1 -0.1)">
       <use xlink:href="#DejaVuSans-35"/>
      </g>
     </g>
    </g>
    <g id="xtick_9">
     <g id="line2d_20">
      <g>
       <use xlink:href="#mda09553d05" x="441.699233" y="576.72" style="stroke: #000000; stroke-width: 0.8"/>
      </g>
     </g>
     <g id="text_19">
      <!-- 10 -->
      <g transform="translate(435.336733 591.318438) scale(0.1 -0.1)">
       <use xlink:href="#DejaVuSans-31"/>
       <use xlink:href="#DejaVuSans-30" x="63.623047"/>
      </g>
     </g>
    </g>
    <g id="xtick_10">
     <g id="line2d_21">
      <g>
       <use xlink:href="#mda09553d05" x="590.54885" y="576.72" style="stroke: #000000; stroke-width: 0.8"/>
      </g>
     </g>
     <g id="text_20">
      <!-- 15 -->
      <g transform="translate(584.18635 591.318438) scale(0.1 -0.1)">
       <use xlink:href="#DejaVuSans-31"/>
       <use xlink:href="#DejaVuSans-35" x="63.623047"/>
      </g>
     </g>
    </g>
    <g id="xtick_11">
     <g id="line2d_22">
      <g>
       <use xlink:href="#mda09553d05" x="739.398466" y="576.72" style="stroke: #000000; stroke-width: 0.8"/>
      </g>
     </g>
     <g id="text_21">
      <!-- 20 -->
      <g transform="translate(733.035966 591.318438) scale(0.1 -0.1)">
       <use xlink:href="#DejaVuSans-32"/>
       <use xlink:href="#DejaVuSans-30" x="63.623047"/>
      </g>
     </g>
    </g>
    <g id="xtick_12">
     <g id="line2d_23">
      <g>
       <use xlink:href="#mda09553d05" x="888.248083" y="576.72" style="stroke: #000000; stroke-width: 0.8"/>
      </g>
     </g>
     <g id="text_22">
      <!-- 25 -->
      <g transform="translate(881.885583 591.318438) scale(0.1 -0.1)">
       <use xlink:href="#DejaVuSans-32"/>
       <use xlink:href="#DejaVuSans-35" x="63.623047"/>
      </g>
     </g>
    </g>
   </g>
   <g id="matplotlib.axis_4">
    <g id="ytick_8">
     <g id="line2d_24">
      <g>
       <use xlink:href="#meb9fee71b7" x="144" y="554.22834" style="stroke: #000000; stroke-width: 0.8"/>
      </g>
     </g>
     <g id="text_23">
      <!-- −0.03 -->
      <g transform="translate(106.354687 558.027559) scale(0.1 -0.1)">
       <defs>
        <path id="DejaVuSans-2212" d="M 678 2272 
L 4684 2272 
L 4684 1741 
L 678 1741 
L 678 2272 
z
" transform="scale(0.015625)"/>
       </defs>
       <use xlink:href="#DejaVuSans-2212"/>
       <use xlink:href="#DejaVuSans-30" x="83.789062"/>
       <use xlink:href="#DejaVuSans-2e" x="147.412109"/>
       <use xlink:href="#DejaVuSans-30" x="179.199219"/>
       <use xlink:href="#DejaVuSans-33" x="242.822266"/>
      </g>
     </g>
    </g>
    <g id="ytick_9">
     <g id="line2d_25">
      <g>
       <use xlink:href="#meb9fee71b7" x="144" y="528.253514" style="stroke: #000000; stroke-width: 0.8"/>
      </g>
     </g>
     <g id="text_24">
      <!-- −0.02 -->
      <g transform="translate(106.354687 532.052733) scale(0.1 -0.1)">
       <use xlink:href="#DejaVuSans-2212"/>
       <use xlink:href="#DejaVuSans-30" x="83.789062"/>
       <use xlink:href="#DejaVuSans-2e" x="147.412109"/>
       <use xlink:href="#DejaVuSans-30" x="179.199219"/>
       <use xlink:href="#DejaVuSans-32" x="242.822266"/>
      </g>
     </g>
    </g>
    <g id="ytick_10">
     <g id="line2d_26">
      <g>
       <use xlink:href="#meb9fee71b7" x="144" y="502.278688" style="stroke: #000000; stroke-width: 0.8"/>
      </g>
     </g>
     <g id="text_25">
      <!-- −0.01 -->
      <g transform="translate(106.354687 506.077907) scale(0.1 -0.1)">
       <use xlink:href="#DejaVuSans-2212"/>
       <use xlink:href="#DejaVuSans-30" x="83.789062"/>
       <use xlink:href="#DejaVuSans-2e" x="147.412109"/>
       <use xlink:href="#DejaVuSans-30" x="179.199219"/>
       <use xlink:href="#DejaVuSans-31" x="242.822266"/>
      </g>
     </g>
    </g>
    <g id="ytick_11">
     <g id="line2d_27">
      <g>
       <use xlink:href="#meb9fee71b7" x="144" y="476.303861" style="stroke: #000000; stroke-width: 0.8"/>
      </g>
     </g>
     <g id="text_26">
      <!-- 0.00 -->
      <g transform="translate(114.734375 480.10308) scale(0.1 -0.1)">
       <use xlink:href="#DejaVuSans-30"/>
       <use xlink:href="#DejaVuSans-2e" x="63.623047"/>
       <use xlink:href="#DejaVuSans-30" x="95.410156"/>
       <use xlink:href="#DejaVuSans-30" x="159.033203"/>
      </g>
     </g>
    </g>
    <g id="ytick_12">
     <g id="line2d_28">
      <g>
       <use xlink:href="#meb9fee71b7" x="144" y="450.329035" style="stroke: #000000; stroke-width: 0.8"/>
      </g>
     </g>
     <g id="text_27">
      <!-- 0.01 -->
      <g transform="translate(114.734375 454.128254) scale(0.1 -0.1)">
       <use xlink:href="#DejaVuSans-30"/>
       <use xlink:href="#DejaVuSans-2e" x="63.623047"/>
       <use xlink:href="#DejaVuSans-30" x="95.410156"/>
       <use xlink:href="#DejaVuSans-31" x="159.033203"/>
      </g>
     </g>
    </g>
    <g id="ytick_13">
     <g id="line2d_29">
      <g>
       <use xlink:href="#meb9fee71b7" x="144" y="424.354209" style="stroke: #000000; stroke-width: 0.8"/>
      </g>
     </g>
     <g id="text_28">
      <!-- 0.02 -->
      <g transform="translate(114.734375 428.153427) scale(0.1 -0.1)">
       <use xlink:href="#DejaVuSans-30"/>
       <use xlink:href="#DejaVuSans-2e" x="63.623047"/>
       <use xlink:href="#DejaVuSans-30" x="95.410156"/>
       <use xlink:href="#DejaVuSans-32" x="159.033203"/>
      </g>
     </g>
    </g>
    <g id="ytick_14">
     <g id="line2d_30">
      <g>
       <use xlink:href="#meb9fee71b7" x="144" y="398.379382" style="stroke: #000000; stroke-width: 0.8"/>
      </g>
     </g>
     <g id="text_29">
      <!-- 0.03 -->
      <g transform="translate(114.734375 402.178601) scale(0.1 -0.1)">
       <use xlink:href="#DejaVuSans-30"/>
       <use xlink:href="#DejaVuSans-2e" x="63.623047"/>
       <use xlink:href="#DejaVuSans-30" x="95.410156"/>
       <use xlink:href="#DejaVuSans-33" x="159.033203"/>
      </g>
     </g>
    </g>
    <g id="ytick_15">
     <g id="line2d_31">
      <g>
       <use xlink:href="#meb9fee71b7" x="144" y="372.404556" style="stroke: #000000; stroke-width: 0.8"/>
      </g>
     </g>
     <g id="text_30">
      <!-- 0.04 -->
      <g transform="translate(114.734375 376.203775) scale(0.1 -0.1)">
       <defs>
        <path id="DejaVuSans-34" d="M 2419 4116 
L 825 1625 
L 2419 1625 
L 2419 4116 
z
M 2253 4666 
L 3047 4666 
L 3047 1625 
L 3713 1625 
L 3713 1100 
L 3047 1100 
L 3047 0 
L 2419 0 
L 2419 1100 
L 313 1100 
L 313 1709 
L 2253 4666 
z
" transform="scale(0.015625)"/>
       </defs>
       <use xlink:href="#DejaVuSans-30"/>
       <use xlink:href="#DejaVuSans-2e" x="63.623047"/>
       <use xlink:href="#DejaVuSans-30" x="95.410156"/>
       <use xlink:href="#DejaVuSans-34" x="159.033203"/>
      </g>
     </g>
    </g>
   </g>
   <g id="line2d_32">
    <path d="M 144 553.878386 
L 173.769923 566.410909 
L 203.539847 566.257538 
L 233.30977 564.029044 
L 263.079693 562.020303 
L 292.849617 560.344395 
L 322.61954 559.309894 
L 382.159386 557.576155 
L 411.92931 557.105692 
L 441.699233 557.058166 
L 471.469156 556.687945 
L 531.009003 556.524564 
L 590.54885 556.700898 
L 620.318773 556.591941 
L 650.088696 556.723452 
L 679.85862 556.452992 
L 739.398466 556.460435 
L 858.478159 555.299011 
L 888.248083 554.780712 
L 918.018006 554.799268 
L 947.787929 554.388952 
L 1007.327776 553.262003 
L 1037.097699 552.36245 
L 1066.867623 551.156449 
L 1096.637546 550.094274 
L 1126.407469 548.644567 
L 1153 547.507163 
L 1153 547.507163 
" clip-path="url(#p8e90854640)" style="fill: none; stroke: #1f77b4; stroke-width: 1.5; stroke-linecap: square"/>
   </g>
   <g id="patch_10">
    <path d="M 144 576.72 
L 144 349.92 
" style="fill: none; stroke: #000000; stroke-width: 0.8; stroke-linejoin: miter; stroke-linecap: square"/>
   </g>
   <g id="patch_11">
    <path d="M 1036.8 576.72 
L 1036.8 349.92 
" style="fill: none; stroke: #000000; stroke-width: 0.8; stroke-linejoin: miter; stroke-linecap: square"/>
   </g>
   <g id="patch_12">
    <path d="M 144 576.72 
L 1036.8 576.72 
" style="fill: none; stroke: #000000; stroke-width: 0.8; stroke-linejoin: miter; stroke-linecap: square"/>
   </g>
   <g id="patch_13">
    <path d="M 144 349.92 
L 1036.8 349.92 
" style="fill: none; stroke: #000000; stroke-width: 0.8; stroke-linejoin: miter; stroke-linecap: square"/>
   </g>
   <g id="legend_2">
    <g id="patch_14">
     <path d="M 920.578125 372.598125 
L 1029.8 372.598125 
Q 1031.8 372.598125 1031.8 370.598125 
L 1031.8 356.92 
Q 1031.8 354.92 1029.8 354.92 
L 920.578125 354.92 
Q 918.578125 354.92 918.578125 356.92 
L 918.578125 370.598125 
Q 918.578125 372.598125 920.578125 372.598125 
z
" style="fill: #ffffff; opacity: 0.8; stroke: #cccccc; stroke-linejoin: miter"/>
    </g>
    <g id="line2d_33">
     <path d="M 922.578125 363.018437 
L 932.578125 363.018437 
L 942.578125 363.018437 
" style="fill: none; stroke: #1f77b4; stroke-width: 1.5; stroke-linecap: square"/>
    </g>
    <g id="text_31">
     <!-- Prediction Error -->
     <g transform="translate(950.578125 366.518437) scale(0.1 -0.1)">
      <defs>
       <path id="DejaVuSans-45" d="M 628 4666 
L 3578 4666 
L 3578 4134 
L 1259 4134 
L 1259 2753 
L 3481 2753 
L 3481 2222 
L 1259 2222 
L 1259 531 
L 3634 531 
L 3634 0 
L 628 0 
L 628 4666 
z
" transform="scale(0.015625)"/>
      </defs>
      <use xlink:href="#DejaVuSans-50"/>
      <use xlink:href="#DejaVuSans-72" x="58.552734"/>
      <use xlink:href="#DejaVuSans-65" x="97.416016"/>
      <use xlink:href="#DejaVuSans-64" x="158.939453"/>
      <use xlink:href="#DejaVuSans-69" x="222.416016"/>
      <use xlink:href="#DejaVuSans-63" x="250.199219"/>
      <use xlink:href="#DejaVuSans-74" x="305.179688"/>
      <use xlink:href="#DejaVuSans-69" x="344.388672"/>
      <use xlink:href="#DejaVuSans-6f" x="372.171875"/>
      <use xlink:href="#DejaVuSans-6e" x="433.353516"/>
      <use xlink:href="#DejaVuSans-20" x="496.732422"/>
      <use xlink:href="#DejaVuSans-45" x="528.519531"/>
      <use xlink:href="#DejaVuSans-72" x="591.703125"/>
      <use xlink:href="#DejaVuSans-72" x="631.066406"/>
      <use xlink:href="#DejaVuSans-6f" x="669.929688"/>
      <use xlink:href="#DejaVuSans-72" x="731.111328"/>
     </g>
    </g>
   </g>
  </g>
  <g id="text_32">
   <!-- $y$-Position Prediction -->
   <g transform="translate(514.74 22.08) scale(0.12 -0.12)">
    <defs>
     <path id="DejaVuSans-2d" d="M 313 2009 
L 1997 2009 
L 1997 1497 
L 313 1497 
L 313 2009 
z
" transform="scale(0.015625)"/>
    </defs>
    <use xlink:href="#DejaVuSans-Oblique-79" transform="translate(0 0.015625)"/>
    <use xlink:href="#DejaVuSans-2d" transform="translate(59.179688 0.015625)"/>
    <use xlink:href="#DejaVuSans-50" transform="translate(95.263672 0.015625)"/>
    <use xlink:href="#DejaVuSans-6f" transform="translate(155.566406 0.015625)"/>
    <use xlink:href="#DejaVuSans-73" transform="translate(216.748047 0.015625)"/>
    <use xlink:href="#DejaVuSans-69" transform="translate(268.847656 0.015625)"/>
    <use xlink:href="#DejaVuSans-74" transform="translate(296.630859 0.015625)"/>
    <use xlink:href="#DejaVuSans-69" transform="translate(335.839844 0.015625)"/>
    <use xlink:href="#DejaVuSans-6f" transform="translate(363.623047 0.015625)"/>
    <use xlink:href="#DejaVuSans-6e" transform="translate(424.804688 0.015625)"/>
    <use xlink:href="#DejaVuSans-20" transform="translate(488.183594 0.015625)"/>
    <use xlink:href="#DejaVuSans-50" transform="translate(519.970703 0.015625)"/>
    <use xlink:href="#DejaVuSans-72" transform="translate(580.273438 0.015625)"/>
    <use xlink:href="#DejaVuSans-65" transform="translate(621.386719 0.015625)"/>
    <use xlink:href="#DejaVuSans-64" transform="translate(682.910156 0.015625)"/>
    <use xlink:href="#DejaVuSans-69" transform="translate(746.386719 0.015625)"/>
    <use xlink:href="#DejaVuSans-63" transform="translate(774.169922 0.015625)"/>
    <use xlink:href="#DejaVuSans-74" transform="translate(829.150391 0.015625)"/>
    <use xlink:href="#DejaVuSans-69" transform="translate(868.359375 0.015625)"/>
    <use xlink:href="#DejaVuSans-6f" transform="translate(896.142578 0.015625)"/>
    <use xlink:href="#DejaVuSans-6e" transform="translate(957.324219 0.015625)"/>
   </g>
  </g>
 </g>
 <defs>
  <clipPath id="pdf2b665644">
   <rect x="144" y="77.76" width="892.8" height="226.8"/>
  </clipPath>
  <clipPath id="p8e90854640">
   <rect x="144" y="349.92" width="892.8" height="226.8"/>
  </clipPath>
 </defs>
</svg>
