<?xml version="1.0" encoding="utf-8" standalone="no"?>
<!DOCTYPE svg PUBLIC "-//W3C//DTD SVG 1.1//EN"
  "http://www.w3.org/Graphics/SVG/1.1/DTD/svg11.dtd">
<svg xmlns:xlink="http://www.w3.org/1999/xlink" width="1152pt" height="648pt" viewBox="0 0 1152 648" xmlns="http://www.w3.org/2000/svg" version="1.1">
 <metadata>
  <rdf:RDF xmlns:dc="http://purl.org/dc/elements/1.1/" xmlns:cc="http://creativecommons.org/ns#" xmlns:rdf="http://www.w3.org/1999/02/22-rdf-syntax-ns#">
   <cc:Work>
    <dc:type rdf:resource="http://purl.org/dc/dcmitype/StillImage"/>
    <dc:date>2024-06-20T12:45:56.675335</dc:date>
    <dc:format>image/svg+xml</dc:format>
    <dc:creator>
     <cc:Agent>
      <dc:title>Matplotlib v3.9.0, https://matplotlib.org/</dc:title>
     </cc:Agent>
    </dc:creator>
   </cc:Work>
  </rdf:RDF>
 </metadata>
 <defs>
  <style type="text/css">*{stroke-linejoin: round; stroke-linecap: butt}</style>
 </defs>
 <g id="figure_1">
  <g id="patch_1">
   <path d="M 0 648 
L 1152 648 
L 1152 0 
L 0 0 
z
" style="fill: #ffffff"/>
  </g>
  <g id="axes_1">
   <g id="patch_2">
    <path d="M 144 304.56 
L 1036.8 304.56 
L 1036.8 77.76 
L 144 77.76 
z
" style="fill: #ffffff"/>
   </g>
   <g id="PolyCollection_1">
    <defs>
     <path id="me5c89cadbd" d="M 292.849617 -553.247391 
L 292.849617 -545.606169 
L 295.826609 -544.72806 
L 298.803601 -543.845003 
L 301.780594 -542.957804 
L 304.757586 -542.080147 
L 307.734578 -541.193757 
L 310.711571 -540.289417 
L 313.688563 -539.361307 
L 316.665555 -538.398285 
L 319.642548 -537.406628 
L 322.61954 -536.371484 
L 325.596532 -535.29849 
L 328.573525 -534.180874 
L 331.550517 -533.007157 
L 334.527509 -531.793806 
L 337.504502 -530.525469 
L 340.481494 -529.200519 
L 343.458486 -527.823115 
L 346.435478 -526.389138 
L 349.412471 -524.898052 
L 352.389463 -523.354349 
L 355.366455 -521.757225 
L 358.343448 -520.090565 
L 361.32044 -518.372731 
L 364.297432 -516.592256 
L 367.274425 -514.754155 
L 370.251417 -512.859481 
L 373.228409 -510.899435 
L 376.205402 -508.883338 
L 379.182394 -506.804568 
L 382.159386 -504.670428 
L 385.136379 -502.476377 
L 388.113371 -500.217395 
L 391.090363 -497.903539 
L 394.067356 -495.528593 
L 397.044348 -493.097263 
L 400.02134 -490.60957 
L 402.998333 -488.063044 
L 405.975325 -485.458075 
L 408.952317 -482.806446 
L 411.92931 -480.101548 
L 414.906302 -477.341207 
L 417.883294 -474.535898 
L 420.860287 -471.674624 
L 423.837279 -468.772745 
L 426.814271 -465.822609 
L 429.791264 -462.831246 
L 432.768256 -459.800666 
L 435.745248 -456.723818 
L 438.722241 -453.618261 
L 441.699233 -450.487018 
L 444.676225 -447.333365 
L 447.653218 -444.214355 
L 450.63021 -441.09919 
L 453.607202 -438.001746 
L 456.584195 -434.925053 
L 459.561187 -431.872366 
L 462.538179 -428.841163 
L 465.515172 -425.834332 
L 468.492164 -422.864613 
L 471.469156 -419.907546 
L 474.446149 -416.98378 
L 477.423141 -414.100667 
L 480.400133 -411.243796 
L 483.377126 -408.428179 
L 486.354118 -405.652045 
L 489.33111 -402.930179 
L 492.308103 -400.260158 
L 495.285095 -397.635242 
L 498.262087 -395.070872 
L 501.23908 -392.558961 
L 504.216072 -390.110471 
L 507.193064 -387.739679 
L 510.170057 -385.42592 
L 513.147049 -383.179518 
L 516.124041 -380.985262 
L 519.101034 -378.873222 
L 522.078026 -376.819044 
L 525.055018 -374.856355 
L 528.032011 -372.963846 
L 531.009003 -371.16131 
L 533.985995 -369.428419 
L 536.962988 -367.780825 
L 539.93998 -366.212724 
L 542.916972 -364.724242 
L 545.893965 -363.335345 
L 548.870957 -362.032486 
L 551.847949 -360.818607 
L 554.824942 -359.710308 
L 557.801934 -358.689497 
L 560.778926 -357.759442 
L 563.755919 -356.927223 
L 566.732911 -356.190168 
L 569.709903 -355.552758 
L 572.686896 -354.998152 
L 575.663888 -354.558015 
L 578.64088 -354.213764 
L 581.617873 -353.967345 
L 584.594865 -353.823064 
L 587.571857 -353.749091 
L 590.54885 -353.805922 
L 593.525842 -353.956627 
L 596.502834 -354.201611 
L 599.479827 -354.55026 
L 602.456819 -354.99643 
L 605.433811 -355.540865 
L 608.410804 -356.181187 
L 611.387796 -356.910888 
L 614.364788 -357.730356 
L 617.341781 -358.648072 
L 620.318773 -359.673636 
L 623.295765 -360.780505 
L 626.272758 -361.977435 
L 629.24975 -363.273825 
L 632.226742 -364.643084 
L 635.203735 -366.094335 
L 638.180727 -367.637381 
L 641.157719 -369.268508 
L 644.134712 -370.98491 
L 647.111704 -372.791594 
L 650.088696 -374.671581 
L 653.065689 -376.636776 
L 656.042681 -378.683748 
L 659.019673 -380.805695 
L 661.996666 -383.005053 
L 664.973658 -385.261565 
L 667.95065 -387.590808 
L 670.927643 -389.979538 
L 673.904635 -392.418877 
L 676.881627 -394.931694 
L 679.85862 -397.507792 
L 682.835612 -400.13267 
L 685.812604 -402.810678 
L 688.789597 -405.534351 
L 691.766589 -408.319655 
L 694.743581 -411.135343 
L 697.720574 -413.990177 
L 700.697566 -416.894386 
L 703.674558 -419.828211 
L 706.651551 -422.793187 
L 709.628543 -425.792192 
L 712.605535 -428.821562 
L 715.582528 -431.867428 
L 718.55952 -434.942866 
L 721.536512 -438.025868 
L 724.513505 -441.125955 
L 727.490497 -444.23715 
L 730.467489 -447.352648 
L 733.444481 -450.471808 
L 736.421474 -453.590354 
L 739.398466 -456.707865 
L 742.375458 -459.798207 
L 745.352451 -462.845545 
L 748.329443 -465.847146 
L 751.306435 -468.80693 
L 754.283428 -471.718531 
L 757.26042 -474.584444 
L 760.237412 -477.398213 
L 763.214405 -480.161071 
L 766.191397 -482.874549 
L 769.168389 -485.527943 
L 772.145382 -488.131606 
L 775.122374 -490.6804 
L 778.099366 -493.166786 
L 781.076359 -495.599619 
L 784.053351 -497.970647 
L 787.030343 -500.282527 
L 790.007336 -502.53583 
L 792.984328 -504.727911 
L 795.96132 -506.859343 
L 798.938313 -508.93442 
L 801.915305 -510.948185 
L 804.892297 -512.898643 
L 807.86929 -514.792897 
L 810.846282 -516.622685 
L 813.823274 -518.399957 
L 816.800267 -520.11518 
L 819.777259 -521.780512 
L 822.754251 -523.380782 
L 825.731244 -524.923536 
L 828.708236 -526.413912 
L 831.685228 -527.848038 
L 834.662221 -529.231066 
L 837.639213 -530.558705 
L 840.616205 -531.835143 
L 843.593198 -533.061536 
L 846.57019 -534.235207 
L 849.547182 -535.359319 
L 852.524175 -536.438266 
L 855.501167 -537.464227 
L 858.478159 -538.45029 
L 861.455152 -539.392045 
L 864.432144 -540.289898 
L 867.409136 -541.139102 
L 870.386129 -541.957109 
L 873.363121 -542.730505 
L 876.340113 -543.463863 
L 879.317106 -544.159565 
L 882.294098 -544.821096 
L 885.27109 -545.451692 
L 888.248083 -546.038785 
L 891.225075 -546.6009 
L 894.202067 -547.129227 
L 897.17906 -547.624351 
L 900.156052 -548.090604 
L 903.133044 -548.533661 
L 906.110037 -548.943674 
L 909.087029 -549.329855 
L 912.064021 -549.69557 
L 915.041014 -550.033243 
L 918.018006 -550.350913 
L 920.994998 -550.648644 
L 923.971991 -550.923213 
L 926.948983 -551.180951 
L 929.925975 -551.420631 
L 932.902968 -551.642562 
L 935.87996 -551.848298 
L 938.856952 -552.039973 
L 941.833945 -552.214691 
L 944.810937 -552.379289 
L 947.787929 -552.534736 
L 950.764922 -552.671864 
L 953.741914 -552.804378 
L 956.718906 -552.924216 
L 959.695899 -553.03461 
L 962.672891 -553.133309 
L 965.649883 -553.227362 
L 968.626876 -553.315191 
L 971.603868 -553.398279 
L 974.58086 -553.471347 
L 977.557853 -553.541529 
L 980.534845 -553.604397 
L 983.511837 -553.669941 
L 986.48883 -553.726388 
L 989.465822 -553.777712 
L 992.442814 -553.832489 
L 995.419807 -553.87811 
L 998.396799 -553.92565 
L 1001.373791 -553.971963 
L 1004.350784 -554.013576 
L 1007.327776 -554.055782 
L 1010.304768 -554.099937 
L 1013.281761 -554.137421 
L 1016.258753 -554.181467 
L 1019.235745 -554.221941 
L 1022.212738 -554.264499 
L 1025.18973 -554.306648 
L 1028.166722 -554.343512 
L 1031.143715 -554.386007 
L 1034.120707 -554.427966 
L 1034.120707 -559.28378 
L 1034.120707 -559.28378 
L 1031.143715 -559.327623 
L 1028.166722 -559.37048 
L 1025.18973 -559.417766 
L 1022.212738 -559.458474 
L 1019.235745 -559.498734 
L 1016.258753 -559.540866 
L 1013.281761 -559.579637 
L 1010.304768 -559.624849 
L 1007.327776 -559.662547 
L 1004.350784 -559.702297 
L 1001.373791 -559.741747 
L 998.396799 -559.775535 
L 995.419807 -559.808176 
L 992.442814 -559.841192 
L 989.465822 -559.864169 
L 986.48883 -559.889968 
L 983.511837 -559.908424 
L 980.534845 -559.917214 
L 977.557853 -559.928173 
L 974.58086 -559.930909 
L 971.603868 -559.928677 
L 968.626876 -559.915277 
L 965.649883 -559.896352 
L 962.672891 -559.870441 
L 959.695899 -559.838197 
L 956.718906 -559.792316 
L 953.741914 -559.735465 
L 950.764922 -559.665527 
L 947.787929 -559.588841 
L 944.810937 -559.492538 
L 941.833945 -559.387667 
L 938.856952 -559.271522 
L 935.87996 -559.137307 
L 932.902968 -558.987837 
L 929.925975 -558.820769 
L 926.948983 -558.635164 
L 923.971991 -558.431592 
L 920.994998 -558.210303 
L 918.018006 -557.964366 
L 915.041014 -557.698202 
L 912.064021 -557.410769 
L 909.087029 -557.094329 
L 906.110037 -556.757627 
L 903.133044 -556.395358 
L 900.156052 -555.999232 
L 897.17906 -555.579539 
L 894.202067 -555.129106 
L 891.225075 -554.643345 
L 888.248083 -554.12341 
L 885.27109 -553.577128 
L 882.294098 -552.984759 
L 879.317106 -552.361467 
L 876.340113 -551.703574 
L 873.363121 -551.005461 
L 870.386129 -550.265736 
L 867.409136 -549.481231 
L 864.432144 -548.665166 
L 861.455152 -547.79781 
L 858.478159 -546.885966 
L 855.501167 -545.930034 
L 852.524175 -544.933198 
L 849.547182 -543.881543 
L 846.57019 -542.783706 
L 843.593198 -541.634278 
L 840.616205 -540.430806 
L 837.639213 -539.176307 
L 834.662221 -537.869408 
L 831.685228 -536.506489 
L 828.708236 -535.092106 
L 825.731244 -533.620527 
L 822.754251 -532.096408 
L 819.777259 -530.511338 
L 816.800267 -528.860718 
L 813.823274 -527.160988 
L 810.846282 -525.398748 
L 807.86929 -523.583358 
L 804.892297 -521.702491 
L 801.915305 -519.764537 
L 798.938313 -517.76132 
L 795.96132 -515.696637 
L 792.984328 -513.575657 
L 790.007336 -511.393546 
L 787.030343 -509.149685 
L 784.053351 -506.846709 
L 781.076359 -504.484159 
L 778.099366 -502.060257 
L 775.122374 -499.583008 
L 772.145382 -497.043119 
L 769.168389 -494.450265 
L 766.191397 -491.808733 
L 763.214405 -489.106991 
L 760.237412 -486.357549 
L 757.26042 -483.557096 
L 754.283428 -480.704922 
L 751.306435 -477.806877 
L 748.329443 -474.859664 
L 745.352451 -471.868545 
L 742.375458 -468.827845 
L 739.398466 -465.743092 
L 736.421474 -462.634633 
L 733.444481 -459.528533 
L 730.467489 -456.425084 
L 727.490497 -453.327488 
L 724.513505 -450.236899 
L 721.536512 -447.16117 
L 718.55952 -444.104207 
L 715.582528 -441.057087 
L 712.605535 -438.042057 
L 709.628543 -435.044949 
L 706.651551 -432.080294 
L 703.674558 -429.151597 
L 700.697566 -426.254355 
L 697.720574 -423.387871 
L 694.743581 -420.572543 
L 691.766589 -417.795874 
L 688.789597 -415.049708 
L 685.812604 -412.365935 
L 682.835612 -409.727756 
L 679.85862 -407.142356 
L 676.881627 -404.60486 
L 673.904635 -402.130464 
L 670.927643 -399.729534 
L 667.95065 -397.378533 
L 664.973658 -395.086864 
L 661.996666 -392.867711 
L 659.019673 -390.705079 
L 656.042681 -388.618911 
L 653.065689 -386.606031 
L 650.088696 -384.673444 
L 647.111704 -382.825068 
L 644.134712 -381.047832 
L 641.157719 -379.358306 
L 638.180727 -377.751441 
L 635.203735 -376.229921 
L 632.226742 -374.798586 
L 629.24975 -373.448692 
L 626.272758 -372.170361 
L 623.295765 -370.989565 
L 620.318773 -369.898436 
L 617.341781 -368.88554 
L 614.364788 -367.976619 
L 611.387796 -367.164802 
L 608.410804 -366.442583 
L 605.433811 -365.808317 
L 602.456819 -365.267337 
L 599.479827 -364.822966 
L 596.502834 -364.474233 
L 593.525842 -364.226575 
L 590.54885 -364.071829 
L 587.571857 -364.005455 
L 584.594865 -364.067733 
L 581.617873 -364.202067 
L 578.64088 -364.43695 
L 575.663888 -364.768043 
L 572.686896 -365.192135 
L 569.709903 -365.729003 
L 566.732911 -366.348443 
L 563.755919 -367.0661 
L 560.778926 -367.878037 
L 557.801934 -368.787122 
L 554.824942 -369.786759 
L 551.847949 -370.870537 
L 548.870957 -372.057507 
L 545.893965 -373.331934 
L 542.916972 -374.690065 
L 539.93998 -376.142779 
L 536.962988 -377.676367 
L 533.985995 -379.290482 
L 531.009003 -380.991383 
L 528.032011 -382.7609 
L 525.055018 -384.616956 
L 522.078026 -386.540253 
L 519.101034 -388.553642 
L 516.124041 -390.626647 
L 513.147049 -392.783258 
L 510.170057 -394.995826 
L 507.193064 -397.276878 
L 504.216072 -399.612527 
L 501.23908 -402.019459 
L 498.262087 -404.490055 
L 495.285095 -407.012903 
L 492.308103 -409.597207 
L 489.33111 -412.227263 
L 486.354118 -414.907044 
L 483.377126 -417.642396 
L 480.400133 -420.419878 
L 477.423141 -423.241944 
L 474.446149 -426.096161 
L 471.469156 -428.9916 
L 468.492164 -431.927893 
L 465.515172 -434.880183 
L 462.538179 -437.86867 
L 459.561187 -440.882925 
L 456.584195 -443.920047 
L 453.607202 -446.979223 
L 450.63021 -450.058087 
L 447.653218 -453.154486 
L 444.676225 -456.248291 
L 441.699233 -459.374767 
L 438.722241 -462.483332 
L 435.745248 -465.566567 
L 432.768256 -468.623417 
L 429.791264 -471.636568 
L 426.814271 -474.612119 
L 423.837279 -477.54805 
L 420.860287 -480.437035 
L 417.883294 -483.286366 
L 414.906302 -486.080457 
L 411.92931 -488.829967 
L 408.952317 -491.525022 
L 405.975325 -494.167815 
L 402.998333 -496.764621 
L 400.02134 -499.303681 
L 397.044348 -501.783332 
L 394.067356 -504.206156 
L 391.090363 -506.572242 
L 388.113371 -508.87605 
L 385.136379 -511.123762 
L 382.159386 -513.30526 
L 379.182394 -515.426204 
L 376.205402 -517.490891 
L 373.228409 -519.491891 
L 370.251417 -521.436202 
L 367.274425 -523.314064 
L 364.297432 -525.135003 
L 361.32044 -526.89949 
L 358.343448 -528.602651 
L 355.366455 -530.253553 
L 352.389463 -531.835479 
L 349.412471 -533.366673 
L 346.435478 -534.848694 
L 343.458486 -536.274483 
L 340.481494 -537.645739 
L 337.504502 -538.965357 
L 334.527509 -540.229861 
L 331.550517 -541.441549 
L 328.573525 -542.61328 
L 325.596532 -543.72769 
L 322.61954 -544.797145 
L 319.642548 -545.824833 
L 316.665555 -546.80204 
L 313.688563 -547.740555 
L 310.711571 -548.628776 
L 307.734578 -549.473162 
L 304.757586 -550.273253 
L 301.780594 -551.033004 
L 298.803601 -551.767087 
L 295.826609 -552.471028 
L 292.849617 -553.247391 
z
" style="stroke: #00ffff; stroke-opacity: 0.5"/>
    </defs>
    <g clip-path="url(#p5ef6b41ba1)">
     <use xlink:href="#me5c89cadbd" x="0" y="648" style="fill: #00ffff; fill-opacity: 0.5; stroke: #00ffff; stroke-opacity: 0.5"/>
    </g>
   </g>
   <g id="matplotlib.axis_1">
    <g id="xtick_1">
     <g id="line2d_1">
      <defs>
       <path id="m0fbe4f356c" d="M 0 0 
L 0 3.5 
" style="stroke: #000000; stroke-width: 0.8"/>
      </defs>
      <g>
       <use xlink:href="#m0fbe4f356c" x="144" y="304.56" style="stroke: #000000; stroke-width: 0.8"/>
      </g>
     </g>
     <g id="text_1">
      <!-- 0 -->
      <g transform="translate(140.81875 319.158437) scale(0.1 -0.1)">
       <defs>
        <path id="DejaVuSans-30" d="M 2034 4250 
Q 1547 4250 1301 3770 
Q 1056 3291 1056 2328 
Q 1056 1369 1301 889 
Q 1547 409 2034 409 
Q 2525 409 2770 889 
Q 3016 1369 3016 2328 
Q 3016 3291 2770 3770 
Q 2525 4250 2034 4250 
z
M 2034 4750 
Q 2819 4750 3233 4129 
Q 3647 3509 3647 2328 
Q 3647 1150 3233 529 
Q 2819 -91 2034 -91 
Q 1250 -91 836 529 
Q 422 1150 422 2328 
Q 422 3509 836 4129 
Q 1250 4750 2034 4750 
z
" transform="scale(0.015625)"/>
       </defs>
       <use xlink:href="#DejaVuSans-30"/>
      </g>
     </g>
    </g>
    <g id="xtick_2">
     <g id="line2d_2">
      <g>
       <use xlink:href="#m0fbe4f356c" x="292.849617" y="304.56" style="stroke: #000000; stroke-width: 0.8"/>
      </g>
     </g>
     <g id="text_2">
      <!-- 5 -->
      <g transform="translate(289.668367 319.158437) scale(0.1 -0.1)">
       <defs>
        <path id="DejaVuSans-35" d="M 691 4666 
L 3169 4666 
L 3169 4134 
L 1269 4134 
L 1269 2991 
Q 1406 3038 1543 3061 
Q 1681 3084 1819 3084 
Q 2600 3084 3056 2656 
Q 3513 2228 3513 1497 
Q 3513 744 3044 326 
Q 2575 -91 1722 -91 
Q 1428 -91 1123 -41 
Q 819 9 494 109 
L 494 744 
Q 775 591 1075 516 
Q 1375 441 1709 441 
Q 2250 441 2565 725 
Q 2881 1009 2881 1497 
Q 2881 1984 2565 2268 
Q 2250 2553 1709 2553 
Q 1456 2553 1204 2497 
Q 953 2441 691 2322 
L 691 4666 
z
" transform="scale(0.015625)"/>
       </defs>
       <use xlink:href="#DejaVuSans-35"/>
      </g>
     </g>
    </g>
    <g id="xtick_3">
     <g id="line2d_3">
      <g>
       <use xlink:href="#m0fbe4f356c" x="441.699233" y="304.56" style="stroke: #000000; stroke-width: 0.8"/>
      </g>
     </g>
     <g id="text_3">
      <!-- 10 -->
      <g transform="translate(435.336733 319.158437) scale(0.1 -0.1)">
       <defs>
        <path id="DejaVuSans-31" d="M 794 531 
L 1825 531 
L 1825 4091 
L 703 3866 
L 703 4441 
L 1819 4666 
L 2450 4666 
L 2450 531 
L 3481 531 
L 3481 0 
L 794 0 
L 794 531 
z
" transform="scale(0.015625)"/>
       </defs>
       <use xlink:href="#DejaVuSans-31"/>
       <use xlink:href="#DejaVuSans-30" x="63.623047"/>
      </g>
     </g>
    </g>
    <g id="xtick_4">
     <g id="line2d_4">
      <g>
       <use xlink:href="#m0fbe4f356c" x="590.54885" y="304.56" style="stroke: #000000; stroke-width: 0.8"/>
      </g>
     </g>
     <g id="text_4">
      <!-- 15 -->
      <g transform="translate(584.18635 319.158437) scale(0.1 -0.1)">
       <use xlink:href="#DejaVuSans-31"/>
       <use xlink:href="#DejaVuSans-35" x="63.623047"/>
      </g>
     </g>
    </g>
    <g id="xtick_5">
     <g id="line2d_5">
      <g>
       <use xlink:href="#m0fbe4f356c" x="739.398466" y="304.56" style="stroke: #000000; stroke-width: 0.8"/>
      </g>
     </g>
     <g id="text_5">
      <!-- 20 -->
      <g transform="translate(733.035966 319.158437) scale(0.1 -0.1)">
       <defs>
        <path id="DejaVuSans-32" d="M 1228 531 
L 3431 531 
L 3431 0 
L 469 0 
L 469 531 
Q 828 903 1448 1529 
Q 2069 2156 2228 2338 
Q 2531 2678 2651 2914 
Q 2772 3150 2772 3378 
Q 2772 3750 2511 3984 
Q 2250 4219 1831 4219 
Q 1534 4219 1204 4116 
Q 875 4013 500 3803 
L 500 4441 
Q 881 4594 1212 4672 
Q 1544 4750 1819 4750 
Q 2544 4750 2975 4387 
Q 3406 4025 3406 3419 
Q 3406 3131 3298 2873 
Q 3191 2616 2906 2266 
Q 2828 2175 2409 1742 
Q 1991 1309 1228 531 
z
" transform="scale(0.015625)"/>
       </defs>
       <use xlink:href="#DejaVuSans-32"/>
       <use xlink:href="#DejaVuSans-30" x="63.623047"/>
      </g>
     </g>
    </g>
    <g id="xtick_6">
     <g id="line2d_6">
      <g>
       <use xlink:href="#m0fbe4f356c" x="888.248083" y="304.56" style="stroke: #000000; stroke-width: 0.8"/>
      </g>
     </g>
     <g id="text_6">
      <!-- 25 -->
      <g transform="translate(881.885583 319.158437) scale(0.1 -0.1)">
       <use xlink:href="#DejaVuSans-32"/>
       <use xlink:href="#DejaVuSans-35" x="63.623047"/>
      </g>
     </g>
    </g>
   </g>
   <g id="matplotlib.axis_2">
    <g id="ytick_1">
     <g id="line2d_7">
      <defs>
       <path id="m43f7cb80ce" d="M 0 0 
L -3.5 0 
" style="stroke: #000000; stroke-width: 0.8"/>
      </defs>
      <g>
       <use xlink:href="#m43f7cb80ce" x="144" y="288.638337" style="stroke: #000000; stroke-width: 0.8"/>
      </g>
     </g>
     <g id="text_7">
      <!-- 1.0 -->
      <g transform="translate(121.096875 292.437556) scale(0.1 -0.1)">
       <defs>
        <path id="DejaVuSans-2e" d="M 684 794 
L 1344 794 
L 1344 0 
L 684 0 
L 684 794 
z
" transform="scale(0.015625)"/>
       </defs>
       <use xlink:href="#DejaVuSans-31"/>
       <use xlink:href="#DejaVuSans-2e" x="63.623047"/>
       <use xlink:href="#DejaVuSans-30" x="95.410156"/>
      </g>
     </g>
    </g>
    <g id="ytick_2">
     <g id="line2d_8">
      <g>
       <use xlink:href="#m43f7cb80ce" x="144" y="239.237209" style="stroke: #000000; stroke-width: 0.8"/>
      </g>
     </g>
     <g id="text_8">
      <!-- 1.5 -->
      <g transform="translate(121.096875 243.036428) scale(0.1 -0.1)">
       <use xlink:href="#DejaVuSans-31"/>
       <use xlink:href="#DejaVuSans-2e" x="63.623047"/>
       <use xlink:href="#DejaVuSans-35" x="95.410156"/>
      </g>
     </g>
    </g>
    <g id="ytick_3">
     <g id="line2d_9">
      <g>
       <use xlink:href="#m43f7cb80ce" x="144" y="189.836081" style="stroke: #000000; stroke-width: 0.8"/>
      </g>
     </g>
     <g id="text_9">
      <!-- 2.0 -->
      <g transform="translate(121.096875 193.6353) scale(0.1 -0.1)">
       <use xlink:href="#DejaVuSans-32"/>
       <use xlink:href="#DejaVuSans-2e" x="63.623047"/>
       <use xlink:href="#DejaVuSans-30" x="95.410156"/>
      </g>
     </g>
    </g>
    <g id="ytick_4">
     <g id="line2d_10">
      <g>
       <use xlink:href="#m43f7cb80ce" x="144" y="140.434953" style="stroke: #000000; stroke-width: 0.8"/>
      </g>
     </g>
     <g id="text_10">
      <!-- 2.5 -->
      <g transform="translate(121.096875 144.234172) scale(0.1 -0.1)">
       <use xlink:href="#DejaVuSans-32"/>
       <use xlink:href="#DejaVuSans-2e" x="63.623047"/>
       <use xlink:href="#DejaVuSans-35" x="95.410156"/>
      </g>
     </g>
    </g>
    <g id="ytick_5">
     <g id="line2d_11">
      <g>
       <use xlink:href="#m43f7cb80ce" x="144" y="91.033825" style="stroke: #000000; stroke-width: 0.8"/>
      </g>
     </g>
     <g id="text_11">
      <!-- 3.0 -->
      <g transform="translate(121.096875 94.833044) scale(0.1 -0.1)">
       <defs>
        <path id="DejaVuSans-33" d="M 2597 2516 
Q 3050 2419 3304 2112 
Q 3559 1806 3559 1356 
Q 3559 666 3084 287 
Q 2609 -91 1734 -91 
Q 1441 -91 1130 -33 
Q 819 25 488 141 
L 488 750 
Q 750 597 1062 519 
Q 1375 441 1716 441 
Q 2309 441 2620 675 
Q 2931 909 2931 1356 
Q 2931 1769 2642 2001 
Q 2353 2234 1838 2234 
L 1294 2234 
L 1294 2753 
L 1863 2753 
Q 2328 2753 2575 2939 
Q 2822 3125 2822 3475 
Q 2822 3834 2567 4026 
Q 2313 4219 1838 4219 
Q 1578 4219 1281 4162 
Q 984 4106 628 3988 
L 628 4550 
Q 988 4650 1302 4700 
Q 1616 4750 1894 4750 
Q 2613 4750 3031 4423 
Q 3450 4097 3450 3541 
Q 3450 3153 3228 2886 
Q 3006 2619 2597 2516 
z
" transform="scale(0.015625)"/>
       </defs>
       <use xlink:href="#DejaVuSans-33"/>
       <use xlink:href="#DejaVuSans-2e" x="63.623047"/>
       <use xlink:href="#DejaVuSans-30" x="95.410156"/>
      </g>
     </g>
    </g>
   </g>
   <g id="line2d_12">
    <path d="M 144 91.033825 
L 146.976992 90.916595 
L 151.442481 90.680372 
L 160.671157 90.449151 
L 175.258419 90.349408 
L 198.18126 90.433414 
L 215.150117 90.688402 
L 229.43968 91.109368 
L 241.04995 91.648173 
L 251.767122 92.343636 
L 261.888896 93.232736 
L 271.117573 94.261703 
L 280.04855 95.490784 
L 288.086429 96.826399 
L 294.338113 98.055848 
L 298.803601 99.278004 
L 310.413871 102.457747 
L 318.154051 104.797837 
L 325.298833 107.185574 
L 331.848216 109.593399 
L 338.992998 112.484517 
L 345.244682 115.263889 
L 351.496365 118.283456 
L 357.748049 121.534464 
L 363.999733 125.053058 
L 370.549116 129.007946 
L 376.8008 133.056108 
L 383.052484 137.366998 
L 389.304168 141.943493 
L 395.555852 146.784437 
L 402.105235 152.131994 
L 408.952317 158.020723 
L 415.7994 164.182922 
L 423.241881 171.18701 
L 430.982061 178.779386 
L 439.317639 187.270668 
L 454.797999 203.438069 
L 465.812871 214.704747 
L 475.934645 224.747914 
L 485.163321 233.575496 
L 492.605802 240.393944 
L 500.048283 246.899834 
L 506.597666 252.331642 
L 513.147049 257.444485 
L 519.696432 262.257305 
L 525.650417 266.341791 
L 531.306702 269.931609 
L 537.260687 273.405328 
L 542.619273 276.268364 
L 547.382461 278.573113 
L 552.443348 280.779728 
L 556.908836 282.496273 
L 561.672024 284.107371 
L 566.435212 285.477575 
L 570.9007 286.540209 
L 575.663888 287.446411 
L 580.427076 288.089016 
L 584.892564 288.463441 
L 589.953451 288.656412 
L 594.41894 288.560038 
L 598.884428 288.254362 
L 603.349917 287.726463 
L 607.815405 286.980605 
L 612.578593 285.955687 
L 617.341781 284.704587 
L 621.807269 283.28714 
L 626.868156 281.446537 
L 631.929043 279.336207 
L 636.98993 277.007059 
L 642.050817 274.421193 
L 647.111704 271.584831 
L 652.767989 268.13494 
L 658.126576 264.590118 
L 663.782861 260.57673 
L 669.736846 256.09308 
L 676.583928 250.640737 
L 682.835612 245.35575 
L 689.980393 239.036184 
L 697.720574 231.864316 
L 705.460754 224.411977 
L 714.391731 215.523492 
L 725.406602 204.250156 
L 754.283428 174.504226 
L 762.023608 167.059054 
L 769.466089 160.221298 
L 776.61087 153.965639 
L 783.160253 148.518867 
L 789.709637 143.355252 
L 795.96132 138.697041 
L 802.510704 134.094803 
L 808.762387 129.980651 
L 815.014071 126.132037 
L 821.563454 122.368024 
L 827.517439 119.199593 
L 833.769123 116.110755 
L 840.020807 113.259461 
L 846.57019 110.521328 
L 853.119573 108.032798 
L 859.668956 105.782332 
L 866.516039 103.659429 
L 873.95852 101.610835 
L 881.103301 99.884824 
L 888.545782 98.309234 
L 896.88136 96.800255 
L 905.216939 95.538868 
L 914.445615 94.39432 
L 923.971991 93.453492 
L 934.689163 92.643024 
L 946.001734 92.026804 
L 958.505102 91.558885 
L 973.390063 91.237109 
L 992.145115 91.062201 
L 1015.663354 91.024676 
L 1036.8 91.02671 
L 1036.8 91.02671 
" clip-path="url(#p5ef6b41ba1)" style="fill: none; stroke-dasharray: 5.55,2.4; stroke-dashoffset: 0; stroke: #ffa500; stroke-width: 1.5"/>
   </g>
   <g id="line2d_13">
    <path d="M 292.849617 98.57322 
L 313.688563 104.449069 
L 322.61954 107.415686 
L 328.573525 109.602923 
L 334.527509 111.988166 
L 340.481494 114.576871 
L 346.435478 117.381084 
L 352.389463 120.405086 
L 358.343448 123.653392 
L 364.297432 127.13637 
L 370.251417 130.852159 
L 376.205402 134.812886 
L 382.159386 139.012156 
L 388.113371 143.453278 
L 394.067356 148.132625 
L 400.02134 153.043375 
L 405.975325 158.187055 
L 411.92931 163.534242 
L 420.860287 171.944171 
L 429.791264 180.766093 
L 438.722241 189.949204 
L 456.584195 208.57745 
L 468.492164 220.603747 
L 477.423141 229.328694 
L 486.354118 237.720456 
L 495.285095 245.675927 
L 501.23908 250.71079 
L 507.193064 255.491721 
L 513.147049 260.018612 
L 519.101034 264.286568 
L 525.055018 268.263344 
L 531.009003 271.923654 
L 536.962988 275.271404 
L 542.916972 278.292847 
L 548.870957 280.955003 
L 554.824942 283.251466 
L 560.778926 285.181261 
L 566.732911 286.730695 
L 572.686896 287.904856 
L 578.64088 288.674643 
L 584.594865 289.054601 
L 587.571857 289.122727 
L 593.525842 288.908399 
L 599.479827 288.313387 
L 605.433811 287.325409 
L 611.387796 285.962155 
L 617.341781 284.233194 
L 623.295765 282.114965 
L 629.24975 279.638742 
L 635.203735 276.837872 
L 641.157719 273.686593 
L 647.111704 270.191669 
L 653.065689 266.378597 
L 659.019673 262.244613 
L 664.973658 257.825786 
L 670.927643 253.145464 
L 676.881627 248.231723 
L 682.835612 243.069787 
L 688.789597 237.707971 
L 697.720574 229.310976 
L 706.651551 220.56326 
L 715.582528 211.537742 
L 730.467489 196.111134 
L 745.352451 180.642955 
L 754.283428 171.788274 
L 760.237412 166.122119 
L 766.191397 160.658359 
L 772.145382 155.412637 
L 778.099366 150.386478 
L 784.053351 145.591322 
L 790.007336 141.035312 
L 795.96132 136.72201 
L 801.915305 132.643639 
L 807.86929 128.811872 
L 813.823274 125.219527 
L 819.777259 121.854075 
L 825.731244 118.727969 
L 831.685228 115.822737 
L 837.639213 113.132494 
L 843.593198 110.652093 
L 849.547182 108.379569 
L 855.501167 106.30287 
L 861.455152 104.405072 
L 867.409136 102.689834 
L 873.363121 101.132017 
L 882.294098 99.097073 
L 888.248083 97.918903 
L 897.17906 96.398055 
L 906.110037 95.149349 
L 915.041014 94.134277 
L 923.971991 93.322597 
L 935.87996 92.507197 
L 947.787929 91.938212 
L 962.672891 91.498125 
L 980.534845 91.239194 
L 1001.373791 91.143145 
L 1034.120707 91.144127 
L 1034.120707 91.144127 
" clip-path="url(#p5ef6b41ba1)" style="fill: none; stroke: #0000ff; stroke-opacity: 0.5; stroke-width: 1.5; stroke-linecap: square"/>
   </g>
   <g id="patch_3">
    <path d="M 144 304.56 
L 144 77.76 
" style="fill: none; stroke: #000000; stroke-width: 0.8; stroke-linejoin: miter; stroke-linecap: square"/>
   </g>
   <g id="patch_4">
    <path d="M 1036.8 304.56 
L 1036.8 77.76 
" style="fill: none; stroke: #000000; stroke-width: 0.8; stroke-linejoin: miter; stroke-linecap: square"/>
   </g>
   <g id="patch_5">
    <path d="M 144 304.56 
L 1036.8 304.56 
" style="fill: none; stroke: #000000; stroke-width: 0.8; stroke-linejoin: miter; stroke-linecap: square"/>
   </g>
   <g id="patch_6">
    <path d="M 144 77.76 
L 1036.8 77.76 
" style="fill: none; stroke: #000000; stroke-width: 0.8; stroke-linejoin: miter; stroke-linecap: square"/>
   </g>
   <g id="legend_1">
    <g id="patch_7">
     <path d="M 151 299.56 
L 256.6 299.56 
Q 258.6 299.56 258.6 297.56 
L 258.6 254.525625 
Q 258.6 252.525625 256.6 252.525625 
L 151 252.525625 
Q 149 252.525625 149 254.525625 
L 149 297.56 
Q 149 299.56 151 299.56 
z
" style="fill: #ffffff; opacity: 0.8; stroke: #cccccc; stroke-linejoin: miter"/>
    </g>
    <g id="line2d_14">
     <path d="M 153 260.624062 
L 163 260.624062 
L 173 260.624062 
" style="fill: none; stroke-dasharray: 5.55,2.4; stroke-dashoffset: 0; stroke: #ffa500; stroke-width: 1.5"/>
    </g>
    <g id="text_12">
     <!-- Real $x$ Position -->
     <g transform="translate(181 264.124062) scale(0.1 -0.1)">
      <defs>
       <path id="DejaVuSans-52" d="M 2841 2188 
Q 3044 2119 3236 1894 
Q 3428 1669 3622 1275 
L 4263 0 
L 3584 0 
L 2988 1197 
Q 2756 1666 2539 1819 
Q 2322 1972 1947 1972 
L 1259 1972 
L 1259 0 
L 628 0 
L 628 4666 
L 2053 4666 
Q 2853 4666 3247 4331 
Q 3641 3997 3641 3322 
Q 3641 2881 3436 2590 
Q 3231 2300 2841 2188 
z
M 1259 4147 
L 1259 2491 
L 2053 2491 
Q 2509 2491 2742 2702 
Q 2975 2913 2975 3322 
Q 2975 3731 2742 3939 
Q 2509 4147 2053 4147 
L 1259 4147 
z
" transform="scale(0.015625)"/>
       <path id="DejaVuSans-65" d="M 3597 1894 
L 3597 1613 
L 953 1613 
Q 991 1019 1311 708 
Q 1631 397 2203 397 
Q 2534 397 2845 478 
Q 3156 559 3463 722 
L 3463 178 
Q 3153 47 2828 -22 
Q 2503 -91 2169 -91 
Q 1331 -91 842 396 
Q 353 884 353 1716 
Q 353 2575 817 3079 
Q 1281 3584 2069 3584 
Q 2775 3584 3186 3129 
Q 3597 2675 3597 1894 
z
M 3022 2063 
Q 3016 2534 2758 2815 
Q 2500 3097 2075 3097 
Q 1594 3097 1305 2825 
Q 1016 2553 972 2059 
L 3022 2063 
z
" transform="scale(0.015625)"/>
       <path id="DejaVuSans-61" d="M 2194 1759 
Q 1497 1759 1228 1600 
Q 959 1441 959 1056 
Q 959 750 1161 570 
Q 1363 391 1709 391 
Q 2188 391 2477 730 
Q 2766 1069 2766 1631 
L 2766 1759 
L 2194 1759 
z
M 3341 1997 
L 3341 0 
L 2766 0 
L 2766 531 
Q 2569 213 2275 61 
Q 1981 -91 1556 -91 
Q 1019 -91 701 211 
Q 384 513 384 1019 
Q 384 1609 779 1909 
Q 1175 2209 1959 2209 
L 2766 2209 
L 2766 2266 
Q 2766 2663 2505 2880 
Q 2244 3097 1772 3097 
Q 1472 3097 1187 3025 
Q 903 2953 641 2809 
L 641 3341 
Q 956 3463 1253 3523 
Q 1550 3584 1831 3584 
Q 2591 3584 2966 3190 
Q 3341 2797 3341 1997 
z
" transform="scale(0.015625)"/>
       <path id="DejaVuSans-6c" d="M 603 4863 
L 1178 4863 
L 1178 0 
L 603 0 
L 603 4863 
z
" transform="scale(0.015625)"/>
       <path id="DejaVuSans-20" transform="scale(0.015625)"/>
       <path id="DejaVuSans-Oblique-78" d="M 3841 3500 
L 2234 1784 
L 3219 0 
L 2559 0 
L 1819 1388 
L 531 0 
L -166 0 
L 1556 1844 
L 641 3500 
L 1300 3500 
L 1972 2234 
L 3144 3500 
L 3841 3500 
z
" transform="scale(0.015625)"/>
       <path id="DejaVuSans-50" d="M 1259 4147 
L 1259 2394 
L 2053 2394 
Q 2494 2394 2734 2622 
Q 2975 2850 2975 3272 
Q 2975 3691 2734 3919 
Q 2494 4147 2053 4147 
L 1259 4147 
z
M 628 4666 
L 2053 4666 
Q 2838 4666 3239 4311 
Q 3641 3956 3641 3272 
Q 3641 2581 3239 2228 
Q 2838 1875 2053 1875 
L 1259 1875 
L 1259 0 
L 628 0 
L 628 4666 
z
" transform="scale(0.015625)"/>
       <path id="DejaVuSans-6f" d="M 1959 3097 
Q 1497 3097 1228 2736 
Q 959 2375 959 1747 
Q 959 1119 1226 758 
Q 1494 397 1959 397 
Q 2419 397 2687 759 
Q 2956 1122 2956 1747 
Q 2956 2369 2687 2733 
Q 2419 3097 1959 3097 
z
M 1959 3584 
Q 2709 3584 3137 3096 
Q 3566 2609 3566 1747 
Q 3566 888 3137 398 
Q 2709 -91 1959 -91 
Q 1206 -91 779 398 
Q 353 888 353 1747 
Q 353 2609 779 3096 
Q 1206 3584 1959 3584 
z
" transform="scale(0.015625)"/>
       <path id="DejaVuSans-73" d="M 2834 3397 
L 2834 2853 
Q 2591 2978 2328 3040 
Q 2066 3103 1784 3103 
Q 1356 3103 1142 2972 
Q 928 2841 928 2578 
Q 928 2378 1081 2264 
Q 1234 2150 1697 2047 
L 1894 2003 
Q 2506 1872 2764 1633 
Q 3022 1394 3022 966 
Q 3022 478 2636 193 
Q 2250 -91 1575 -91 
Q 1294 -91 989 -36 
Q 684 19 347 128 
L 347 722 
Q 666 556 975 473 
Q 1284 391 1588 391 
Q 1994 391 2212 530 
Q 2431 669 2431 922 
Q 2431 1156 2273 1281 
Q 2116 1406 1581 1522 
L 1381 1569 
Q 847 1681 609 1914 
Q 372 2147 372 2553 
Q 372 3047 722 3315 
Q 1072 3584 1716 3584 
Q 2034 3584 2315 3537 
Q 2597 3491 2834 3397 
z
" transform="scale(0.015625)"/>
       <path id="DejaVuSans-69" d="M 603 3500 
L 1178 3500 
L 1178 0 
L 603 0 
L 603 3500 
z
M 603 4863 
L 1178 4863 
L 1178 4134 
L 603 4134 
L 603 4863 
z
" transform="scale(0.015625)"/>
       <path id="DejaVuSans-74" d="M 1172 4494 
L 1172 3500 
L 2356 3500 
L 2356 3053 
L 1172 3053 
L 1172 1153 
Q 1172 725 1289 603 
Q 1406 481 1766 481 
L 2356 481 
L 2356 0 
L 1766 0 
Q 1100 0 847 248 
Q 594 497 594 1153 
L 594 3053 
L 172 3053 
L 172 3500 
L 594 3500 
L 594 4494 
L 1172 4494 
z
" transform="scale(0.015625)"/>
       <path id="DejaVuSans-6e" d="M 3513 2113 
L 3513 0 
L 2938 0 
L 2938 2094 
Q 2938 2591 2744 2837 
Q 2550 3084 2163 3084 
Q 1697 3084 1428 2787 
Q 1159 2491 1159 1978 
L 1159 0 
L 581 0 
L 581 3500 
L 1159 3500 
L 1159 2956 
Q 1366 3272 1645 3428 
Q 1925 3584 2291 3584 
Q 2894 3584 3203 3211 
Q 3513 2838 3513 2113 
z
" transform="scale(0.015625)"/>
      </defs>
      <use xlink:href="#DejaVuSans-52" transform="translate(0 0.015625)"/>
      <use xlink:href="#DejaVuSans-65" transform="translate(69.482422 0.015625)"/>
      <use xlink:href="#DejaVuSans-61" transform="translate(131.005859 0.015625)"/>
      <use xlink:href="#DejaVuSans-6c" transform="translate(192.285156 0.015625)"/>
      <use xlink:href="#DejaVuSans-20" transform="translate(220.068359 0.015625)"/>
      <use xlink:href="#DejaVuSans-Oblique-78" transform="translate(251.855469 0.015625)"/>
      <use xlink:href="#DejaVuSans-20" transform="translate(311.035156 0.015625)"/>
      <use xlink:href="#DejaVuSans-50" transform="translate(342.822266 0.015625)"/>
      <use xlink:href="#DejaVuSans-6f" transform="translate(403.125 0.015625)"/>
      <use xlink:href="#DejaVuSans-73" transform="translate(464.306641 0.015625)"/>
      <use xlink:href="#DejaVuSans-69" transform="translate(516.40625 0.015625)"/>
      <use xlink:href="#DejaVuSans-74" transform="translate(544.189453 0.015625)"/>
      <use xlink:href="#DejaVuSans-69" transform="translate(583.398438 0.015625)"/>
      <use xlink:href="#DejaVuSans-6f" transform="translate(611.181641 0.015625)"/>
      <use xlink:href="#DejaVuSans-6e" transform="translate(672.363281 0.015625)"/>
     </g>
    </g>
    <g id="line2d_15">
     <path d="M 153 275.302188 
L 163 275.302188 
L 173 275.302188 
" style="fill: none; stroke: #0000ff; stroke-opacity: 0.5; stroke-width: 1.5; stroke-linecap: square"/>
    </g>
    <g id="text_13">
     <!-- Prediction $x$ -->
     <g transform="translate(181 278.802188) scale(0.1 -0.1)">
      <defs>
       <path id="DejaVuSans-72" d="M 2631 2963 
Q 2534 3019 2420 3045 
Q 2306 3072 2169 3072 
Q 1681 3072 1420 2755 
Q 1159 2438 1159 1844 
L 1159 0 
L 581 0 
L 581 3500 
L 1159 3500 
L 1159 2956 
Q 1341 3275 1631 3429 
Q 1922 3584 2338 3584 
Q 2397 3584 2469 3576 
Q 2541 3569 2628 3553 
L 2631 2963 
z
" transform="scale(0.015625)"/>
       <path id="DejaVuSans-64" d="M 2906 2969 
L 2906 4863 
L 3481 4863 
L 3481 0 
L 2906 0 
L 2906 525 
Q 2725 213 2448 61 
Q 2172 -91 1784 -91 
Q 1150 -91 751 415 
Q 353 922 353 1747 
Q 353 2572 751 3078 
Q 1150 3584 1784 3584 
Q 2172 3584 2448 3432 
Q 2725 3281 2906 2969 
z
M 947 1747 
Q 947 1113 1208 752 
Q 1469 391 1925 391 
Q 2381 391 2643 752 
Q 2906 1113 2906 1747 
Q 2906 2381 2643 2742 
Q 2381 3103 1925 3103 
Q 1469 3103 1208 2742 
Q 947 2381 947 1747 
z
" transform="scale(0.015625)"/>
       <path id="DejaVuSans-63" d="M 3122 3366 
L 3122 2828 
Q 2878 2963 2633 3030 
Q 2388 3097 2138 3097 
Q 1578 3097 1268 2742 
Q 959 2388 959 1747 
Q 959 1106 1268 751 
Q 1578 397 2138 397 
Q 2388 397 2633 464 
Q 2878 531 3122 666 
L 3122 134 
Q 2881 22 2623 -34 
Q 2366 -91 2075 -91 
Q 1284 -91 818 406 
Q 353 903 353 1747 
Q 353 2603 823 3093 
Q 1294 3584 2113 3584 
Q 2378 3584 2631 3529 
Q 2884 3475 3122 3366 
z
" transform="scale(0.015625)"/>
      </defs>
      <use xlink:href="#DejaVuSans-50" transform="translate(0 0.015625)"/>
      <use xlink:href="#DejaVuSans-72" transform="translate(60.302734 0.015625)"/>
      <use xlink:href="#DejaVuSans-65" transform="translate(101.416016 0.015625)"/>
      <use xlink:href="#DejaVuSans-64" transform="translate(162.939453 0.015625)"/>
      <use xlink:href="#DejaVuSans-69" transform="translate(226.416016 0.015625)"/>
      <use xlink:href="#DejaVuSans-63" transform="translate(254.199219 0.015625)"/>
      <use xlink:href="#DejaVuSans-74" transform="translate(309.179688 0.015625)"/>
      <use xlink:href="#DejaVuSans-69" transform="translate(348.388672 0.015625)"/>
      <use xlink:href="#DejaVuSans-6f" transform="translate(376.171875 0.015625)"/>
      <use xlink:href="#DejaVuSans-6e" transform="translate(437.353516 0.015625)"/>
      <use xlink:href="#DejaVuSans-20" transform="translate(500.732422 0.015625)"/>
      <use xlink:href="#DejaVuSans-Oblique-78" transform="translate(532.519531 0.015625)"/>
     </g>
    </g>
    <g id="patch_8">
     <path d="M 153 293.480312 
L 173 293.480312 
L 173 286.480312 
L 153 286.480312 
z
" style="fill: #00ffff; fill-opacity: 0.5; stroke: #00ffff; stroke-opacity: 0.5; stroke-linejoin: miter"/>
    </g>
    <g id="text_14">
     <!-- Confidence -->
     <g transform="translate(181 293.480312) scale(0.1 -0.1)">
      <defs>
       <path id="DejaVuSans-43" d="M 4122 4306 
L 4122 3641 
Q 3803 3938 3442 4084 
Q 3081 4231 2675 4231 
Q 1875 4231 1450 3742 
Q 1025 3253 1025 2328 
Q 1025 1406 1450 917 
Q 1875 428 2675 428 
Q 3081 428 3442 575 
Q 3803 722 4122 1019 
L 4122 359 
Q 3791 134 3420 21 
Q 3050 -91 2638 -91 
Q 1578 -91 968 557 
Q 359 1206 359 2328 
Q 359 3453 968 4101 
Q 1578 4750 2638 4750 
Q 3056 4750 3426 4639 
Q 3797 4528 4122 4306 
z
" transform="scale(0.015625)"/>
       <path id="DejaVuSans-66" d="M 2375 4863 
L 2375 4384 
L 1825 4384 
Q 1516 4384 1395 4259 
Q 1275 4134 1275 3809 
L 1275 3500 
L 2222 3500 
L 2222 3053 
L 1275 3053 
L 1275 0 
L 697 0 
L 697 3053 
L 147 3053 
L 147 3500 
L 697 3500 
L 697 3744 
Q 697 4328 969 4595 
Q 1241 4863 1831 4863 
L 2375 4863 
z
" transform="scale(0.015625)"/>
      </defs>
      <use xlink:href="#DejaVuSans-43"/>
      <use xlink:href="#DejaVuSans-6f" x="69.824219"/>
      <use xlink:href="#DejaVuSans-6e" x="131.005859"/>
      <use xlink:href="#DejaVuSans-66" x="194.384766"/>
      <use xlink:href="#DejaVuSans-69" x="229.589844"/>
      <use xlink:href="#DejaVuSans-64" x="257.373047"/>
      <use xlink:href="#DejaVuSans-65" x="320.849609"/>
      <use xlink:href="#DejaVuSans-6e" x="382.373047"/>
      <use xlink:href="#DejaVuSans-63" x="445.751953"/>
      <use xlink:href="#DejaVuSans-65" x="500.732422"/>
     </g>
    </g>
   </g>
  </g>
  <g id="axes_2">
   <g id="patch_9">
    <path d="M 144 576.72 
L 1036.8 576.72 
L 1036.8 349.92 
L 144 349.92 
z
" style="fill: #ffffff"/>
   </g>
   <g id="matplotlib.axis_3">
    <g id="xtick_7">
     <g id="line2d_16">
      <g>
       <use xlink:href="#m0fbe4f356c" x="144" y="576.72" style="stroke: #000000; stroke-width: 0.8"/>
      </g>
     </g>
     <g id="text_15">
      <!-- 0 -->
      <g transform="translate(140.81875 591.318438) scale(0.1 -0.1)">
       <use xlink:href="#DejaVuSans-30"/>
      </g>
     </g>
    </g>
    <g id="xtick_8">
     <g id="line2d_17">
      <g>
       <use xlink:href="#m0fbe4f356c" x="292.849617" y="576.72" style="stroke: #000000; stroke-width: 0.8"/>
      </g>
     </g>
     <g id="text_16">
      <!-- 5 -->
      <g transform="translate(289.668367 591.318438) scale(0.1 -0.1)">
       <use xlink:href="#DejaVuSans-35"/>
      </g>
     </g>
    </g>
    <g id="xtick_9">
     <g id="line2d_18">
      <g>
       <use xlink:href="#m0fbe4f356c" x="441.699233" y="576.72" style="stroke: #000000; stroke-width: 0.8"/>
      </g>
     </g>
     <g id="text_17">
      <!-- 10 -->
      <g transform="translate(435.336733 591.318438) scale(0.1 -0.1)">
       <use xlink:href="#DejaVuSans-31"/>
       <use xlink:href="#DejaVuSans-30" x="63.623047"/>
      </g>
     </g>
    </g>
    <g id="xtick_10">
     <g id="line2d_19">
      <g>
       <use xlink:href="#m0fbe4f356c" x="590.54885" y="576.72" style="stroke: #000000; stroke-width: 0.8"/>
      </g>
     </g>
     <g id="text_18">
      <!-- 15 -->
      <g transform="translate(584.18635 591.318438) scale(0.1 -0.1)">
       <use xlink:href="#DejaVuSans-31"/>
       <use xlink:href="#DejaVuSans-35" x="63.623047"/>
      </g>
     </g>
    </g>
    <g id="xtick_11">
     <g id="line2d_20">
      <g>
       <use xlink:href="#m0fbe4f356c" x="739.398466" y="576.72" style="stroke: #000000; stroke-width: 0.8"/>
      </g>
     </g>
     <g id="text_19">
      <!-- 20 -->
      <g transform="translate(733.035966 591.318438) scale(0.1 -0.1)">
       <use xlink:href="#DejaVuSans-32"/>
       <use xlink:href="#DejaVuSans-30" x="63.623047"/>
      </g>
     </g>
    </g>
    <g id="xtick_12">
     <g id="line2d_21">
      <g>
       <use xlink:href="#m0fbe4f356c" x="888.248083" y="576.72" style="stroke: #000000; stroke-width: 0.8"/>
      </g>
     </g>
     <g id="text_20">
      <!-- 25 -->
      <g transform="translate(881.885583 591.318438) scale(0.1 -0.1)">
       <use xlink:href="#DejaVuSans-32"/>
       <use xlink:href="#DejaVuSans-35" x="63.623047"/>
      </g>
     </g>
    </g>
   </g>
   <g id="matplotlib.axis_4">
    <g id="ytick_6">
     <g id="line2d_22">
      <g>
       <use xlink:href="#m43f7cb80ce" x="144" y="568.408151" style="stroke: #000000; stroke-width: 0.8"/>
      </g>
     </g>
     <g id="text_21">
      <!-- −0.03 -->
      <g transform="translate(106.354687 572.20737) scale(0.1 -0.1)">
       <defs>
        <path id="DejaVuSans-2212" d="M 678 2272 
L 4684 2272 
L 4684 1741 
L 678 1741 
L 678 2272 
z
" transform="scale(0.015625)"/>
       </defs>
       <use xlink:href="#DejaVuSans-2212"/>
       <use xlink:href="#DejaVuSans-30" x="83.789062"/>
       <use xlink:href="#DejaVuSans-2e" x="147.412109"/>
       <use xlink:href="#DejaVuSans-30" x="179.199219"/>
       <use xlink:href="#DejaVuSans-33" x="242.822266"/>
      </g>
     </g>
    </g>
    <g id="ytick_7">
     <g id="line2d_23">
      <g>
       <use xlink:href="#m43f7cb80ce" x="144" y="535.796911" style="stroke: #000000; stroke-width: 0.8"/>
      </g>
     </g>
     <g id="text_22">
      <!-- −0.02 -->
      <g transform="translate(106.354687 539.59613) scale(0.1 -0.1)">
       <use xlink:href="#DejaVuSans-2212"/>
       <use xlink:href="#DejaVuSans-30" x="83.789062"/>
       <use xlink:href="#DejaVuSans-2e" x="147.412109"/>
       <use xlink:href="#DejaVuSans-30" x="179.199219"/>
       <use xlink:href="#DejaVuSans-32" x="242.822266"/>
      </g>
     </g>
    </g>
    <g id="ytick_8">
     <g id="line2d_24">
      <g>
       <use xlink:href="#m43f7cb80ce" x="144" y="503.185671" style="stroke: #000000; stroke-width: 0.8"/>
      </g>
     </g>
     <g id="text_23">
      <!-- −0.01 -->
      <g transform="translate(106.354687 506.98489) scale(0.1 -0.1)">
       <use xlink:href="#DejaVuSans-2212"/>
       <use xlink:href="#DejaVuSans-30" x="83.789062"/>
       <use xlink:href="#DejaVuSans-2e" x="147.412109"/>
       <use xlink:href="#DejaVuSans-30" x="179.199219"/>
       <use xlink:href="#DejaVuSans-31" x="242.822266"/>
      </g>
     </g>
    </g>
    <g id="ytick_9">
     <g id="line2d_25">
      <g>
       <use xlink:href="#m43f7cb80ce" x="144" y="470.574431" style="stroke: #000000; stroke-width: 0.8"/>
      </g>
     </g>
     <g id="text_24">
      <!-- 0.00 -->
      <g transform="translate(114.734375 474.37365) scale(0.1 -0.1)">
       <use xlink:href="#DejaVuSans-30"/>
       <use xlink:href="#DejaVuSans-2e" x="63.623047"/>
       <use xlink:href="#DejaVuSans-30" x="95.410156"/>
       <use xlink:href="#DejaVuSans-30" x="159.033203"/>
      </g>
     </g>
    </g>
    <g id="ytick_10">
     <g id="line2d_26">
      <g>
       <use xlink:href="#m43f7cb80ce" x="144" y="437.963191" style="stroke: #000000; stroke-width: 0.8"/>
      </g>
     </g>
     <g id="text_25">
      <!-- 0.01 -->
      <g transform="translate(114.734375 441.76241) scale(0.1 -0.1)">
       <use xlink:href="#DejaVuSans-30"/>
       <use xlink:href="#DejaVuSans-2e" x="63.623047"/>
       <use xlink:href="#DejaVuSans-30" x="95.410156"/>
       <use xlink:href="#DejaVuSans-31" x="159.033203"/>
      </g>
     </g>
    </g>
    <g id="ytick_11">
     <g id="line2d_27">
      <g>
       <use xlink:href="#m43f7cb80ce" x="144" y="405.351951" style="stroke: #000000; stroke-width: 0.8"/>
      </g>
     </g>
     <g id="text_26">
      <!-- 0.02 -->
      <g transform="translate(114.734375 409.15117) scale(0.1 -0.1)">
       <use xlink:href="#DejaVuSans-30"/>
       <use xlink:href="#DejaVuSans-2e" x="63.623047"/>
       <use xlink:href="#DejaVuSans-30" x="95.410156"/>
       <use xlink:href="#DejaVuSans-32" x="159.033203"/>
      </g>
     </g>
    </g>
    <g id="ytick_12">
     <g id="line2d_28">
      <g>
       <use xlink:href="#m43f7cb80ce" x="144" y="372.740711" style="stroke: #000000; stroke-width: 0.8"/>
      </g>
     </g>
     <g id="text_27">
      <!-- 0.03 -->
      <g transform="translate(114.734375 376.53993) scale(0.1 -0.1)">
       <use xlink:href="#DejaVuSans-30"/>
       <use xlink:href="#DejaVuSans-2e" x="63.623047"/>
       <use xlink:href="#DejaVuSans-30" x="95.410156"/>
       <use xlink:href="#DejaVuSans-33" x="159.033203"/>
      </g>
     </g>
    </g>
   </g>
   <g id="line2d_29">
    <path d="M 144 442.680657 
L 173.769923 439.300425 
L 203.539847 440.342024 
L 263.079693 439.498565 
L 292.849617 438.660661 
L 322.61954 437.650113 
L 352.389463 436.521797 
L 411.92931 433.956445 
L 501.23908 429.51326 
L 531.009003 427.749292 
L 560.778926 426.248037 
L 650.088696 420.919297 
L 769.168389 413.50471 
L 798.938313 411.354325 
L 828.708236 409.574917 
L 1153 387.478238 
L 1153 387.478238 
" clip-path="url(#p14b2e556ce)" style="fill: none; stroke: #1f77b4; stroke-width: 1.5; stroke-linecap: square"/>
   </g>
   <g id="patch_10">
    <path d="M 144 576.72 
L 144 349.92 
" style="fill: none; stroke: #000000; stroke-width: 0.8; stroke-linejoin: miter; stroke-linecap: square"/>
   </g>
   <g id="patch_11">
    <path d="M 1036.8 576.72 
L 1036.8 349.92 
" style="fill: none; stroke: #000000; stroke-width: 0.8; stroke-linejoin: miter; stroke-linecap: square"/>
   </g>
   <g id="patch_12">
    <path d="M 144 576.72 
L 1036.8 576.72 
" style="fill: none; stroke: #000000; stroke-width: 0.8; stroke-linejoin: miter; stroke-linecap: square"/>
   </g>
   <g id="patch_13">
    <path d="M 144 349.92 
L 1036.8 349.92 
" style="fill: none; stroke: #000000; stroke-width: 0.8; stroke-linejoin: miter; stroke-linecap: square"/>
   </g>
   <g id="legend_2">
    <g id="patch_14">
     <path d="M 920.578125 372.598125 
L 1029.8 372.598125 
Q 1031.8 372.598125 1031.8 370.598125 
L 1031.8 356.92 
Q 1031.8 354.92 1029.8 354.92 
L 920.578125 354.92 
Q 918.578125 354.92 918.578125 356.92 
L 918.578125 370.598125 
Q 918.578125 372.598125 920.578125 372.598125 
z
" style="fill: #ffffff; opacity: 0.8; stroke: #cccccc; stroke-linejoin: miter"/>
    </g>
    <g id="line2d_30">
     <path d="M 922.578125 363.018437 
L 932.578125 363.018437 
L 942.578125 363.018437 
" style="fill: none; stroke: #1f77b4; stroke-width: 1.5; stroke-linecap: square"/>
    </g>
    <g id="text_28">
     <!-- Prediction Error -->
     <g transform="translate(950.578125 366.518437) scale(0.1 -0.1)">
      <defs>
       <path id="DejaVuSans-45" d="M 628 4666 
L 3578 4666 
L 3578 4134 
L 1259 4134 
L 1259 2753 
L 3481 2753 
L 3481 2222 
L 1259 2222 
L 1259 531 
L 3634 531 
L 3634 0 
L 628 0 
L 628 4666 
z
" transform="scale(0.015625)"/>
      </defs>
      <use xlink:href="#DejaVuSans-50"/>
      <use xlink:href="#DejaVuSans-72" x="58.552734"/>
      <use xlink:href="#DejaVuSans-65" x="97.416016"/>
      <use xlink:href="#DejaVuSans-64" x="158.939453"/>
      <use xlink:href="#DejaVuSans-69" x="222.416016"/>
      <use xlink:href="#DejaVuSans-63" x="250.199219"/>
      <use xlink:href="#DejaVuSans-74" x="305.179688"/>
      <use xlink:href="#DejaVuSans-69" x="344.388672"/>
      <use xlink:href="#DejaVuSans-6f" x="372.171875"/>
      <use xlink:href="#DejaVuSans-6e" x="433.353516"/>
      <use xlink:href="#DejaVuSans-20" x="496.732422"/>
      <use xlink:href="#DejaVuSans-45" x="528.519531"/>
      <use xlink:href="#DejaVuSans-72" x="591.703125"/>
      <use xlink:href="#DejaVuSans-72" x="631.066406"/>
      <use xlink:href="#DejaVuSans-6f" x="669.929688"/>
      <use xlink:href="#DejaVuSans-72" x="731.111328"/>
     </g>
    </g>
   </g>
  </g>
  <g id="text_29">
   <!-- $x$-Position Prediction -->
   <g transform="translate(514.74 22.078125) scale(0.12 -0.12)">
    <defs>
     <path id="DejaVuSans-2d" d="M 313 2009 
L 1997 2009 
L 1997 1497 
L 313 1497 
L 313 2009 
z
" transform="scale(0.015625)"/>
    </defs>
    <use xlink:href="#DejaVuSans-Oblique-78" transform="translate(0 0.015625)"/>
    <use xlink:href="#DejaVuSans-2d" transform="translate(59.179688 0.015625)"/>
    <use xlink:href="#DejaVuSans-50" transform="translate(95.263672 0.015625)"/>
    <use xlink:href="#DejaVuSans-6f" transform="translate(155.566406 0.015625)"/>
    <use xlink:href="#DejaVuSans-73" transform="translate(216.748047 0.015625)"/>
    <use xlink:href="#DejaVuSans-69" transform="translate(268.847656 0.015625)"/>
    <use xlink:href="#DejaVuSans-74" transform="translate(296.630859 0.015625)"/>
    <use xlink:href="#DejaVuSans-69" transform="translate(335.839844 0.015625)"/>
    <use xlink:href="#DejaVuSans-6f" transform="translate(363.623047 0.015625)"/>
    <use xlink:href="#DejaVuSans-6e" transform="translate(424.804688 0.015625)"/>
    <use xlink:href="#DejaVuSans-20" transform="translate(488.183594 0.015625)"/>
    <use xlink:href="#DejaVuSans-50" transform="translate(519.970703 0.015625)"/>
    <use xlink:href="#DejaVuSans-72" transform="translate(580.273438 0.015625)"/>
    <use xlink:href="#DejaVuSans-65" transform="translate(621.386719 0.015625)"/>
    <use xlink:href="#DejaVuSans-64" transform="translate(682.910156 0.015625)"/>
    <use xlink:href="#DejaVuSans-69" transform="translate(746.386719 0.015625)"/>
    <use xlink:href="#DejaVuSans-63" transform="translate(774.169922 0.015625)"/>
    <use xlink:href="#DejaVuSans-74" transform="translate(829.150391 0.015625)"/>
    <use xlink:href="#DejaVuSans-69" transform="translate(868.359375 0.015625)"/>
    <use xlink:href="#DejaVuSans-6f" transform="translate(896.142578 0.015625)"/>
    <use xlink:href="#DejaVuSans-6e" transform="translate(957.324219 0.015625)"/>
   </g>
  </g>
 </g>
 <defs>
  <clipPath id="p5ef6b41ba1">
   <rect x="144" y="77.76" width="892.8" height="226.8"/>
  </clipPath>
  <clipPath id="p14b2e556ce">
   <rect x="144" y="349.92" width="892.8" height="226.8"/>
  </clipPath>
 </defs>
</svg>
