<?xml version="1.0" encoding="utf-8" standalone="no"?>
<!DOCTYPE svg PUBLIC "-//W3C//DTD SVG 1.1//EN"
  "http://www.w3.org/Graphics/SVG/1.1/DTD/svg11.dtd">
<svg xmlns:xlink="http://www.w3.org/1999/xlink" width="1152pt" height="648pt" viewBox="0 0 1152 648" xmlns="http://www.w3.org/2000/svg" version="1.1">
 <metadata>
  <rdf:RDF xmlns:dc="http://purl.org/dc/elements/1.1/" xmlns:cc="http://creativecommons.org/ns#" xmlns:rdf="http://www.w3.org/1999/02/22-rdf-syntax-ns#">
   <cc:Work>
    <dc:type rdf:resource="http://purl.org/dc/dcmitype/StillImage"/>
    <dc:date>2024-06-19T20:46:52.019519</dc:date>
    <dc:format>image/svg+xml</dc:format>
    <dc:creator>
     <cc:Agent>
      <dc:title>Matplotlib v3.9.0, https://matplotlib.org/</dc:title>
     </cc:Agent>
    </dc:creator>
   </cc:Work>
  </rdf:RDF>
 </metadata>
 <defs>
  <style type="text/css">*{stroke-linejoin: round; stroke-linecap: butt}</style>
 </defs>
 <g id="figure_1">
  <g id="patch_1">
   <path d="M 0 648 
L 1152 648 
L 1152 0 
L 0 0 
z
" style="fill: #ffffff"/>
  </g>
  <g id="axes_1">
   <g id="patch_2">
    <path d="M 144 304.56 
L 1036.8 304.56 
L 1036.8 77.76 
L 144 77.76 
z
" style="fill: #ffffff"/>
   </g>
   <g id="PolyCollection_1">
    <defs>
     <path id="m76618ae2bc" d="M 292.849617 -543.762424 
L 292.849617 -537.787468 
L 295.826609 -538.568505 
L 298.803601 -539.400454 
L 301.780594 -540.227924 
L 304.757586 -541.04828 
L 307.734578 -541.855444 
L 310.711571 -542.649771 
L 313.688563 -543.427098 
L 316.665555 -544.191008 
L 319.642548 -544.93334 
L 322.61954 -545.657431 
L 325.596532 -546.357843 
L 328.573525 -547.035089 
L 331.550517 -547.686826 
L 334.527509 -548.313436 
L 337.504502 -548.908222 
L 340.481494 -549.476783 
L 343.458486 -550.010114 
L 346.435478 -550.509471 
L 349.412471 -550.973655 
L 352.389463 -551.40089 
L 355.366455 -551.785275 
L 358.343448 -552.131468 
L 361.32044 -552.429354 
L 364.297432 -552.679506 
L 367.274425 -552.880522 
L 370.251417 -553.028562 
L 373.228409 -553.119695 
L 376.205402 -553.15397 
L 379.182394 -553.128592 
L 382.159386 -553.037986 
L 385.136379 -552.883184 
L 388.113371 -552.659902 
L 391.090363 -552.368569 
L 394.067356 -552.00706 
L 397.044348 -551.567459 
L 400.02134 -551.053743 
L 402.998333 -550.457535 
L 405.975325 -549.783977 
L 408.952317 -549.025416 
L 411.92931 -548.182168 
L 414.906302 -547.250449 
L 417.883294 -546.228999 
L 420.860287 -545.117837 
L 423.837279 -543.912651 
L 426.814271 -542.61687 
L 429.791264 -541.224878 
L 432.768256 -539.732841 
L 435.745248 -538.141624 
L 438.722241 -536.45591 
L 441.699233 -534.667131 
L 444.676225 -532.792191 
L 447.653218 -530.844081 
L 450.63021 -528.81989 
L 453.607202 -526.725039 
L 456.584195 -524.556554 
L 459.561187 -522.319114 
L 462.538179 -520.01531 
L 465.515172 -517.645594 
L 468.492164 -515.211559 
L 471.469156 -512.716905 
L 474.446149 -510.161399 
L 477.423141 -507.552248 
L 480.400133 -504.883298 
L 483.377126 -502.170902 
L 486.354118 -499.405815 
L 489.33111 -496.59738 
L 492.308103 -493.747298 
L 495.285095 -490.855182 
L 498.262087 -487.923083 
L 501.23908 -484.954166 
L 504.216072 -481.955174 
L 507.193064 -478.927141 
L 510.170057 -475.876676 
L 513.147049 -472.805315 
L 516.124041 -469.712275 
L 519.101034 -466.602916 
L 522.078026 -463.485005 
L 525.055018 -460.355906 
L 528.032011 -457.219966 
L 531.009003 -454.076097 
L 533.985995 -450.932571 
L 536.962988 -447.791305 
L 539.93998 -444.663389 
L 542.916972 -441.538904 
L 545.893965 -438.427653 
L 548.870957 -435.330277 
L 551.847949 -432.252467 
L 554.824942 -429.198467 
L 557.801934 -426.168776 
L 560.778926 -423.159241 
L 563.755919 -420.184221 
L 566.732911 -417.243037 
L 569.709903 -414.337289 
L 572.686896 -411.471926 
L 575.663888 -408.650164 
L 578.64088 -405.871462 
L 581.617873 -403.141355 
L 584.594865 -400.462459 
L 587.571857 -397.834813 
L 590.54885 -395.253691 
L 593.525842 -392.741507 
L 596.502834 -390.285383 
L 599.479827 -387.889718 
L 602.456819 -385.558629 
L 605.433811 -383.298233 
L 608.410804 -381.107809 
L 611.387796 -378.98581 
L 614.364788 -376.940189 
L 617.341781 -374.970255 
L 620.318773 -373.077729 
L 623.295765 -371.259497 
L 626.272758 -369.523215 
L 629.24975 -367.872895 
L 632.226742 -366.316818 
L 635.203735 -364.844731 
L 638.180727 -363.449792 
L 641.157719 -362.150883 
L 644.134712 -360.930374 
L 647.111704 -359.808082 
L 650.088696 -358.773531 
L 653.065689 -357.828029 
L 656.042681 -356.986663 
L 659.019673 -356.244837 
L 661.996666 -355.59587 
L 664.973658 -355.052426 
L 667.95065 -354.596744 
L 670.927643 -354.236285 
L 673.904635 -353.975169 
L 676.881627 -353.809572 
L 679.85862 -353.749091 
L 682.835612 -353.791363 
L 685.812604 -353.923741 
L 688.789597 -354.151803 
L 691.766589 -354.482231 
L 694.743581 -354.911386 
L 697.720574 -355.426177 
L 700.697566 -356.043829 
L 703.674558 -356.756402 
L 706.651551 -357.56627 
L 709.628543 -358.469015 
L 712.605535 -359.472944 
L 715.582528 -360.561193 
L 718.55952 -361.732308 
L 721.536512 -362.999195 
L 724.513505 -364.351059 
L 727.490497 -365.79338 
L 730.467489 -367.326842 
L 733.444481 -368.947761 
L 736.421474 -370.64651 
L 739.398466 -372.421372 
L 742.375458 -374.268574 
L 745.352451 -376.163573 
L 748.329443 -378.113375 
L 751.306435 -380.12896 
L 754.283428 -382.164223 
L 757.26042 -384.2509 
L 760.237412 -386.370085 
L 763.214405 -388.52448 
L 766.191397 -390.711476 
L 769.168389 -392.919622 
L 772.145382 -395.1544 
L 775.122374 -397.406145 
L 778.099366 -399.673027 
L 781.076359 -401.958796 
L 784.053351 -404.25303 
L 787.030343 -406.551913 
L 790.007336 -408.860448 
L 792.984328 -411.166594 
L 795.96132 -413.469919 
L 798.938313 -415.770156 
L 801.915305 -418.056698 
L 804.892297 -420.337335 
L 807.86929 -422.607972 
L 810.846282 -424.870929 
L 813.823274 -427.121471 
L 816.800267 -429.345811 
L 819.777259 -431.557852 
L 822.754251 -433.744581 
L 825.731244 -435.922755 
L 828.708236 -438.066946 
L 831.685228 -440.193438 
L 834.662221 -442.293892 
L 837.639213 -444.365706 
L 840.616205 -446.418796 
L 843.593198 -448.443019 
L 846.57019 -450.433258 
L 849.547182 -452.399824 
L 852.524175 -454.335907 
L 855.501167 -456.233769 
L 858.478159 -458.100173 
L 861.455152 -459.940792 
L 864.432144 -461.736795 
L 867.409136 -463.505747 
L 870.386129 -465.240489 
L 873.363121 -466.939605 
L 876.340113 -468.605176 
L 879.317106 -470.236543 
L 882.294098 -471.831713 
L 885.27109 -473.398315 
L 888.248083 -474.92503 
L 891.225075 -476.417445 
L 894.202067 -477.870503 
L 897.17906 -479.297089 
L 900.156052 -480.679338 
L 903.133044 -482.033553 
L 906.110037 -483.343656 
L 909.087029 -484.622679 
L 912.064021 -485.865956 
L 915.041014 -487.0807 
L 918.018006 -488.258849 
L 920.994998 -489.401116 
L 923.971991 -490.510675 
L 926.948983 -491.586367 
L 929.925975 -492.629106 
L 932.902968 -493.640911 
L 935.87996 -494.615626 
L 938.856952 -495.556156 
L 941.833945 -496.467729 
L 944.810937 -497.350098 
L 947.787929 -498.203339 
L 950.764922 -499.018844 
L 953.741914 -499.805087 
L 956.718906 -500.560793 
L 959.695899 -501.290126 
L 962.672891 -501.985867 
L 965.649883 -502.651466 
L 968.626876 -503.286369 
L 971.603868 -503.892867 
L 974.58086 -504.471424 
L 977.557853 -505.020764 
L 980.534845 -505.546813 
L 983.511837 -506.042281 
L 986.48883 -506.505172 
L 989.465822 -506.943386 
L 992.442814 -507.353709 
L 995.419807 -507.739014 
L 998.396799 -508.098906 
L 1001.373791 -508.425565 
L 1004.350784 -508.727075 
L 1007.327776 -509.001062 
L 1010.304768 -509.252642 
L 1013.281761 -509.479231 
L 1016.258753 -509.681638 
L 1019.235745 -509.854715 
L 1022.212738 -510.005853 
L 1025.18973 -510.123768 
L 1028.166722 -510.217964 
L 1031.143715 -510.289468 
L 1034.120707 -510.33739 
L 1034.120707 -514.168145 
L 1034.120707 -514.168145 
L 1031.143715 -514.188299 
L 1028.166722 -514.183409 
L 1025.18973 -514.155263 
L 1022.212738 -514.103653 
L 1019.235745 -514.018786 
L 1016.258753 -513.911592 
L 1013.281761 -513.775012 
L 1010.304768 -513.613175 
L 1007.327776 -513.424877 
L 1004.350784 -513.213595 
L 1001.373791 -512.974322 
L 998.396799 -512.710101 
L 995.419807 -512.412699 
L 992.442814 -512.08875 
L 989.465822 -511.738774 
L 986.48883 -511.35996 
L 983.511837 -510.956596 
L 980.534845 -510.520579 
L 977.557853 -510.052666 
L 974.58086 -509.560033 
L 971.603868 -509.037178 
L 968.626876 -508.485554 
L 965.649883 -507.904504 
L 962.672891 -507.292135 
L 959.695899 -506.649384 
L 956.718906 -505.971882 
L 953.741914 -505.266787 
L 950.764922 -504.530684 
L 947.787929 -503.765043 
L 944.810937 -502.961335 
L 941.833945 -502.126514 
L 938.856952 -501.261005 
L 935.87996 -500.365475 
L 932.902968 -499.43581 
L 929.925975 -498.468224 
L 926.948983 -497.468523 
L 923.971991 -496.434567 
L 920.994998 -495.366303 
L 918.018006 -494.264794 
L 915.041014 -493.126908 
L 912.064021 -491.95093 
L 909.087029 -490.744958 
L 906.110037 -489.502447 
L 903.133044 -488.228568 
L 900.156052 -486.909872 
L 897.17906 -485.562344 
L 894.202067 -484.169511 
L 891.225075 -482.749375 
L 888.248083 -481.289631 
L 885.27109 -479.795005 
L 882.294098 -478.259029 
L 879.317106 -476.692894 
L 876.340113 -475.090045 
L 873.363121 -473.452366 
L 870.386129 -471.780563 
L 867.409136 -470.071925 
L 864.432144 -468.328213 
L 861.455152 -466.557238 
L 858.478159 -464.740917 
L 855.501167 -462.897958 
L 852.524175 -461.023073 
L 849.547182 -459.10911 
L 846.57019 -457.163777 
L 843.593198 -455.194147 
L 840.616205 -453.188982 
L 837.639213 -451.153372 
L 834.662221 -449.098269 
L 831.685228 -447.013353 
L 828.708236 -444.901975 
L 825.731244 -442.771872 
L 822.754251 -440.606667 
L 819.777259 -438.432656 
L 816.800267 -436.232932 
L 813.823274 -434.020306 
L 810.846282 -431.779735 
L 807.86929 -429.526863 
L 804.892297 -427.266456 
L 801.915305 -424.996372 
L 798.938313 -422.720407 
L 795.96132 -420.429009 
L 792.984328 -418.134514 
L 790.007336 -415.8355 
L 787.030343 -413.533876 
L 784.053351 -411.24206 
L 781.076359 -408.954316 
L 778.099366 -406.676388 
L 775.122374 -404.418974 
L 772.145382 -402.176158 
L 769.168389 -399.950742 
L 766.191397 -397.751845 
L 763.214405 -395.574661 
L 760.237412 -393.432089 
L 757.26042 -391.324177 
L 754.283428 -389.248789 
L 751.306435 -387.21952 
L 748.329443 -385.207278 
L 745.352451 -383.265798 
L 742.375458 -381.37405 
L 739.398466 -379.529937 
L 736.421474 -377.76063 
L 733.444481 -376.067964 
L 730.467489 -374.456014 
L 727.490497 -372.935822 
L 724.513505 -371.512026 
L 721.536512 -370.181664 
L 718.55952 -368.940259 
L 715.582528 -367.793921 
L 712.605535 -366.727929 
L 709.628543 -365.747381 
L 706.651551 -364.873327 
L 703.674558 -364.093478 
L 700.697566 -363.41291 
L 697.720574 -362.826921 
L 694.743581 -362.343879 
L 691.766589 -361.9453 
L 688.789597 -361.646578 
L 685.812604 -361.450573 
L 682.835612 -361.348359 
L 679.85862 -361.336987 
L 676.881627 -361.429396 
L 673.904635 -361.626189 
L 670.927643 -361.91734 
L 667.95065 -362.306303 
L 664.973658 -362.7876 
L 661.996666 -363.35643 
L 659.019673 -364.031703 
L 656.042681 -364.800223 
L 653.065689 -365.669133 
L 650.088696 -366.641304 
L 647.111704 -367.700903 
L 644.134712 -368.846586 
L 641.157719 -370.088605 
L 638.180727 -371.407132 
L 635.203735 -372.819195 
L 632.226742 -374.306888 
L 629.24975 -375.878779 
L 626.272758 -377.544464 
L 623.295765 -379.294414 
L 620.318773 -381.124044 
L 617.341781 -383.026209 
L 614.364788 -385.004578 
L 611.387796 -387.057296 
L 608.410804 -389.184788 
L 605.433811 -391.379478 
L 602.456819 -393.642958 
L 599.479827 -395.975526 
L 596.502834 -398.370957 
L 593.525842 -400.825659 
L 590.54885 -403.334862 
L 587.571857 -405.910899 
L 584.594865 -408.531873 
L 581.617873 -411.202615 
L 578.64088 -413.922927 
L 575.663888 -416.690497 
L 572.686896 -419.499978 
L 569.709903 -422.351783 
L 566.732911 -425.242661 
L 563.755919 -428.167967 
L 560.778926 -431.125567 
L 557.801934 -434.116273 
L 554.824942 -437.126226 
L 551.847949 -440.159335 
L 548.870957 -443.214879 
L 545.893965 -446.288848 
L 542.916972 -449.375531 
L 539.93998 -452.474892 
L 536.962988 -455.577212 
L 533.985995 -458.691708 
L 531.009003 -461.807749 
L 528.032011 -464.923617 
L 525.055018 -468.031425 
L 522.078026 -471.13228 
L 519.101034 -474.221607 
L 516.124041 -477.301828 
L 513.147049 -480.365709 
L 510.170057 -483.408189 
L 507.193064 -486.429365 
L 504.216072 -489.427904 
L 501.23908 -492.397304 
L 498.262087 -495.336914 
L 495.285095 -498.240679 
L 492.308103 -501.105748 
L 489.33111 -503.929979 
L 486.354118 -506.712605 
L 483.377126 -509.453344 
L 480.400133 -512.142266 
L 477.423141 -514.788415 
L 474.446149 -517.376641 
L 471.469156 -519.912309 
L 468.492164 -522.388544 
L 465.515172 -524.805473 
L 462.538179 -527.159383 
L 459.561187 -529.447555 
L 456.584195 -531.669444 
L 453.607202 -533.822136 
L 450.63021 -535.900372 
L 447.653218 -537.905909 
L 444.676225 -539.83304 
L 441.699233 -541.685615 
L 438.722241 -543.454776 
L 435.745248 -545.122703 
L 432.768256 -546.696748 
L 429.791264 -548.174597 
L 426.814271 -549.554867 
L 423.837279 -550.839506 
L 420.860287 -552.033824 
L 417.883294 -553.1353 
L 414.906302 -554.147602 
L 411.92931 -555.071213 
L 408.952317 -555.907198 
L 405.975325 -556.65861 
L 402.998333 -557.324734 
L 400.02134 -557.913258 
L 397.044348 -558.419288 
L 394.067356 -558.85118 
L 391.090363 -559.204716 
L 388.113371 -559.486227 
L 385.136379 -559.698642 
L 382.159386 -559.841618 
L 379.182394 -559.91937 
L 376.205402 -559.930909 
L 373.228409 -559.880492 
L 370.251417 -559.771109 
L 367.274425 -559.603244 
L 364.297432 -559.378479 
L 361.32044 -559.101369 
L 358.343448 -558.773795 
L 355.366455 -558.393667 
L 352.389463 -557.970642 
L 349.412471 -557.501133 
L 346.435478 -556.990177 
L 343.458486 -556.440366 
L 340.481494 -555.854337 
L 337.504502 -555.23012 
L 334.527509 -554.577045 
L 331.550517 -553.891112 
L 328.573525 -553.179443 
L 325.596532 -552.443514 
L 322.61954 -551.686755 
L 319.642548 -550.910353 
L 316.665555 -550.121272 
L 313.688563 -549.31771 
L 310.711571 -548.510056 
L 307.734578 -547.698083 
L 304.757586 -546.888845 
L 301.780594 -546.085907 
L 298.803601 -545.298861 
L 295.826609 -544.526179 
L 292.849617 -543.762424 
z
" style="stroke: #00ffff; stroke-opacity: 0.5"/>
    </defs>
    <g clip-path="url(#p7e7b504c70)">
     <use xlink:href="#m76618ae2bc" x="0" y="648" style="fill: #00ffff; fill-opacity: 0.5; stroke: #00ffff; stroke-opacity: 0.5"/>
    </g>
   </g>
   <g id="matplotlib.axis_1">
    <g id="xtick_1">
     <g id="line2d_1">
      <defs>
       <path id="m9197d5835b" d="M 0 0 
L 0 3.5 
" style="stroke: #000000; stroke-width: 0.8"/>
      </defs>
      <g>
       <use xlink:href="#m9197d5835b" x="144" y="304.56" style="stroke: #000000; stroke-width: 0.8"/>
      </g>
     </g>
     <g id="text_1">
      <!-- 0 -->
      <g transform="translate(140.81875 319.158437) scale(0.1 -0.1)">
       <defs>
        <path id="DejaVuSans-30" d="M 2034 4250 
Q 1547 4250 1301 3770 
Q 1056 3291 1056 2328 
Q 1056 1369 1301 889 
Q 1547 409 2034 409 
Q 2525 409 2770 889 
Q 3016 1369 3016 2328 
Q 3016 3291 2770 3770 
Q 2525 4250 2034 4250 
z
M 2034 4750 
Q 2819 4750 3233 4129 
Q 3647 3509 3647 2328 
Q 3647 1150 3233 529 
Q 2819 -91 2034 -91 
Q 1250 -91 836 529 
Q 422 1150 422 2328 
Q 422 3509 836 4129 
Q 1250 4750 2034 4750 
z
" transform="scale(0.015625)"/>
       </defs>
       <use xlink:href="#DejaVuSans-30"/>
      </g>
     </g>
    </g>
    <g id="xtick_2">
     <g id="line2d_2">
      <g>
       <use xlink:href="#m9197d5835b" x="292.849617" y="304.56" style="stroke: #000000; stroke-width: 0.8"/>
      </g>
     </g>
     <g id="text_2">
      <!-- 5 -->
      <g transform="translate(289.668367 319.158437) scale(0.1 -0.1)">
       <defs>
        <path id="DejaVuSans-35" d="M 691 4666 
L 3169 4666 
L 3169 4134 
L 1269 4134 
L 1269 2991 
Q 1406 3038 1543 3061 
Q 1681 3084 1819 3084 
Q 2600 3084 3056 2656 
Q 3513 2228 3513 1497 
Q 3513 744 3044 326 
Q 2575 -91 1722 -91 
Q 1428 -91 1123 -41 
Q 819 9 494 109 
L 494 744 
Q 775 591 1075 516 
Q 1375 441 1709 441 
Q 2250 441 2565 725 
Q 2881 1009 2881 1497 
Q 2881 1984 2565 2268 
Q 2250 2553 1709 2553 
Q 1456 2553 1204 2497 
Q 953 2441 691 2322 
L 691 4666 
z
" transform="scale(0.015625)"/>
       </defs>
       <use xlink:href="#DejaVuSans-35"/>
      </g>
     </g>
    </g>
    <g id="xtick_3">
     <g id="line2d_3">
      <g>
       <use xlink:href="#m9197d5835b" x="441.699233" y="304.56" style="stroke: #000000; stroke-width: 0.8"/>
      </g>
     </g>
     <g id="text_3">
      <!-- 10 -->
      <g transform="translate(435.336733 319.158437) scale(0.1 -0.1)">
       <defs>
        <path id="DejaVuSans-31" d="M 794 531 
L 1825 531 
L 1825 4091 
L 703 3866 
L 703 4441 
L 1819 4666 
L 2450 4666 
L 2450 531 
L 3481 531 
L 3481 0 
L 794 0 
L 794 531 
z
" transform="scale(0.015625)"/>
       </defs>
       <use xlink:href="#DejaVuSans-31"/>
       <use xlink:href="#DejaVuSans-30" x="63.623047"/>
      </g>
     </g>
    </g>
    <g id="xtick_4">
     <g id="line2d_4">
      <g>
       <use xlink:href="#m9197d5835b" x="590.54885" y="304.56" style="stroke: #000000; stroke-width: 0.8"/>
      </g>
     </g>
     <g id="text_4">
      <!-- 15 -->
      <g transform="translate(584.18635 319.158437) scale(0.1 -0.1)">
       <use xlink:href="#DejaVuSans-31"/>
       <use xlink:href="#DejaVuSans-35" x="63.623047"/>
      </g>
     </g>
    </g>
    <g id="xtick_5">
     <g id="line2d_5">
      <g>
       <use xlink:href="#m9197d5835b" x="739.398466" y="304.56" style="stroke: #000000; stroke-width: 0.8"/>
      </g>
     </g>
     <g id="text_5">
      <!-- 20 -->
      <g transform="translate(733.035966 319.158437) scale(0.1 -0.1)">
       <defs>
        <path id="DejaVuSans-32" d="M 1228 531 
L 3431 531 
L 3431 0 
L 469 0 
L 469 531 
Q 828 903 1448 1529 
Q 2069 2156 2228 2338 
Q 2531 2678 2651 2914 
Q 2772 3150 2772 3378 
Q 2772 3750 2511 3984 
Q 2250 4219 1831 4219 
Q 1534 4219 1204 4116 
Q 875 4013 500 3803 
L 500 4441 
Q 881 4594 1212 4672 
Q 1544 4750 1819 4750 
Q 2544 4750 2975 4387 
Q 3406 4025 3406 3419 
Q 3406 3131 3298 2873 
Q 3191 2616 2906 2266 
Q 2828 2175 2409 1742 
Q 1991 1309 1228 531 
z
" transform="scale(0.015625)"/>
       </defs>
       <use xlink:href="#DejaVuSans-32"/>
       <use xlink:href="#DejaVuSans-30" x="63.623047"/>
      </g>
     </g>
    </g>
    <g id="xtick_6">
     <g id="line2d_6">
      <g>
       <use xlink:href="#m9197d5835b" x="888.248083" y="304.56" style="stroke: #000000; stroke-width: 0.8"/>
      </g>
     </g>
     <g id="text_6">
      <!-- 25 -->
      <g transform="translate(881.885583 319.158437) scale(0.1 -0.1)">
       <use xlink:href="#DejaVuSans-32"/>
       <use xlink:href="#DejaVuSans-35" x="63.623047"/>
      </g>
     </g>
    </g>
   </g>
   <g id="matplotlib.axis_2">
    <g id="ytick_1">
     <g id="line2d_7">
      <defs>
       <path id="m484ce55dac" d="M 0 0 
L -3.5 0 
" style="stroke: #000000; stroke-width: 0.8"/>
      </defs>
      <g>
       <use xlink:href="#m484ce55dac" x="144" y="268.638569" style="stroke: #000000; stroke-width: 0.8"/>
      </g>
     </g>
     <g id="text_7">
      <!-- 1.0 -->
      <g transform="translate(121.096875 272.437788) scale(0.1 -0.1)">
       <defs>
        <path id="DejaVuSans-2e" d="M 684 794 
L 1344 794 
L 1344 0 
L 684 0 
L 684 794 
z
" transform="scale(0.015625)"/>
       </defs>
       <use xlink:href="#DejaVuSans-31"/>
       <use xlink:href="#DejaVuSans-2e" x="63.623047"/>
       <use xlink:href="#DejaVuSans-30" x="95.410156"/>
      </g>
     </g>
    </g>
    <g id="ytick_2">
     <g id="line2d_8">
      <g>
       <use xlink:href="#m484ce55dac" x="144" y="229.717482" style="stroke: #000000; stroke-width: 0.8"/>
      </g>
     </g>
     <g id="text_8">
      <!-- 1.5 -->
      <g transform="translate(121.096875 233.516701) scale(0.1 -0.1)">
       <use xlink:href="#DejaVuSans-31"/>
       <use xlink:href="#DejaVuSans-2e" x="63.623047"/>
       <use xlink:href="#DejaVuSans-35" x="95.410156"/>
      </g>
     </g>
    </g>
    <g id="ytick_3">
     <g id="line2d_9">
      <g>
       <use xlink:href="#m484ce55dac" x="144" y="190.796395" style="stroke: #000000; stroke-width: 0.8"/>
      </g>
     </g>
     <g id="text_9">
      <!-- 2.0 -->
      <g transform="translate(121.096875 194.595614) scale(0.1 -0.1)">
       <use xlink:href="#DejaVuSans-32"/>
       <use xlink:href="#DejaVuSans-2e" x="63.623047"/>
       <use xlink:href="#DejaVuSans-30" x="95.410156"/>
      </g>
     </g>
    </g>
    <g id="ytick_4">
     <g id="line2d_10">
      <g>
       <use xlink:href="#m484ce55dac" x="144" y="151.875308" style="stroke: #000000; stroke-width: 0.8"/>
      </g>
     </g>
     <g id="text_10">
      <!-- 2.5 -->
      <g transform="translate(121.096875 155.674527) scale(0.1 -0.1)">
       <use xlink:href="#DejaVuSans-32"/>
       <use xlink:href="#DejaVuSans-2e" x="63.623047"/>
       <use xlink:href="#DejaVuSans-35" x="95.410156"/>
      </g>
     </g>
    </g>
    <g id="ytick_5">
     <g id="line2d_11">
      <g>
       <use xlink:href="#m484ce55dac" x="144" y="112.954221" style="stroke: #000000; stroke-width: 0.8"/>
      </g>
     </g>
     <g id="text_11">
      <!-- 3.0 -->
      <g transform="translate(121.096875 116.75344) scale(0.1 -0.1)">
       <defs>
        <path id="DejaVuSans-33" d="M 2597 2516 
Q 3050 2419 3304 2112 
Q 3559 1806 3559 1356 
Q 3559 666 3084 287 
Q 2609 -91 1734 -91 
Q 1441 -91 1130 -33 
Q 819 25 488 141 
L 488 750 
Q 750 597 1062 519 
Q 1375 441 1716 441 
Q 2309 441 2620 675 
Q 2931 909 2931 1356 
Q 2931 1769 2642 2001 
Q 2353 2234 1838 2234 
L 1294 2234 
L 1294 2753 
L 1863 2753 
Q 2328 2753 2575 2939 
Q 2822 3125 2822 3475 
Q 2822 3834 2567 4026 
Q 2313 4219 1838 4219 
Q 1578 4219 1281 4162 
Q 984 4106 628 3988 
L 628 4550 
Q 988 4650 1302 4700 
Q 1616 4750 1894 4750 
Q 2613 4750 3031 4423 
Q 3450 4097 3450 3541 
Q 3450 3153 3228 2886 
Q 3006 2619 2597 2516 
z
" transform="scale(0.015625)"/>
       </defs>
       <use xlink:href="#DejaVuSans-33"/>
       <use xlink:href="#DejaVuSans-2e" x="63.623047"/>
       <use xlink:href="#DejaVuSans-30" x="95.410156"/>
      </g>
     </g>
    </g>
   </g>
   <g id="line2d_12">
    <path d="M 144 135.753666 
L 147.87009 135.642757 
L 165.732044 134.759528 
L 175.258419 134.001721 
L 184.189396 133.072871 
L 193.120373 131.925591 
L 202.646749 130.481995 
L 212.173124 128.803528 
L 221.6995 126.902392 
L 232.118973 124.598695 
L 242.836145 122.002548 
L 255.041814 118.807662 
L 269.033678 114.911215 
L 290.170323 108.759218 
L 297.017406 106.865527 
L 307.734578 103.97603 
L 323.810337 99.720456 
L 333.336712 97.426682 
L 341.672291 95.634801 
L 349.114772 94.249603 
L 356.259553 93.13783 
L 362.808936 92.333521 
L 369.06062 91.784925 
L 375.014605 91.482383 
L 380.67089 91.407679 
L 386.327176 91.56075 
L 391.685762 91.927226 
L 397.044348 92.519834 
L 402.105235 93.303398 
L 407.166122 94.313998 
L 412.227009 95.560795 
L 416.990197 96.96092 
L 421.753384 98.586762 
L 426.516572 100.445581 
L 431.27976 102.540032 
L 436.042948 104.88549 
L 440.806135 107.474764 
L 445.569323 110.317853 
L 451.225609 113.963707 
L 456.881894 117.879843 
L 462.835879 122.281155 
L 468.789863 126.950164 
L 475.339246 132.377984 
L 482.186329 138.351396 
L 489.33111 144.869533 
L 497.07129 152.218113 
L 505.704568 160.733139 
L 516.421741 171.634652 
L 531.306702 187.142481 
L 554.229543 211.058734 
L 565.542114 222.504389 
L 574.77079 231.512287 
L 582.51097 238.763245 
L 589.953451 245.433536 
L 596.502834 251.029902 
L 603.052217 256.342517 
L 609.006202 260.895576 
L 614.960187 265.174378 
L 620.616472 268.962617 
L 626.272758 272.482548 
L 631.333645 275.383833 
L 636.394532 278.022633 
L 641.455418 280.430209 
L 646.814005 282.709576 
L 651.874892 284.599695 
L 656.638079 286.138006 
L 661.103568 287.348507 
L 665.569056 288.334718 
L 670.332244 289.155665 
L 674.797733 289.705078 
L 679.56092 290.05213 
L 684.026409 290.13882 
L 688.789597 290.00005 
L 693.255085 289.640551 
L 698.018273 289.019513 
L 702.483761 288.215275 
L 706.94925 287.195449 
L 711.414738 285.956852 
L 716.177926 284.394161 
L 721.238813 282.502427 
L 726.002001 280.477697 
L 730.765188 278.216966 
L 735.826075 275.559641 
L 741.184662 272.49328 
L 747.436345 268.624677 
L 753.39033 264.702769 
L 760.832811 259.581546 
L 769.168389 253.570538 
L 779.587863 245.780359 
L 794.770524 234.110017 
L 814.418673 219.083775 
L 825.433545 210.913457 
L 834.662221 204.277562 
L 844.486295 197.475714 
L 853.714972 191.363234 
L 862.348249 185.923136 
L 870.386129 181.114843 
L 878.424008 176.550217 
L 886.461887 172.237232 
L 894.202067 168.329628 
L 902.537646 164.388839 
L 909.980127 161.113213 
L 918.018006 157.814976 
L 925.758186 154.880238 
L 933.796065 152.071528 
L 941.536245 149.606932 
L 949.871824 147.186544 
L 958.207402 145.021283 
L 966.245282 143.158774 
L 974.58086 141.464159 
L 982.916439 139.990648 
L 990.954318 138.789902 
L 999.587596 137.718126 
L 1007.923174 136.912974 
L 1017.151851 136.25006 
L 1025.785128 135.860299 
L 1035.013805 135.683907 
L 1036.8 135.67887 
L 1036.8 135.67887 
" clip-path="url(#p7e7b504c70)" style="fill: none; stroke-dasharray: 5.55,2.4; stroke-dashoffset: 0; stroke: #ffa500; stroke-width: 1.5"/>
   </g>
   <g id="line2d_13">
    <path d="M 292.849617 107.225054 
L 304.757586 104.031437 
L 319.642548 100.078153 
L 328.573525 97.892734 
L 337.504502 95.930829 
L 346.435478 94.250176 
L 352.389463 93.314234 
L 358.343448 92.547368 
L 364.297432 91.971007 
L 370.251417 91.600164 
L 376.205402 91.457561 
L 382.159386 91.560198 
L 388.113371 91.926936 
L 394.067356 92.57088 
L 400.02134 93.5165 
L 405.975325 94.778706 
L 411.92931 96.37331 
L 417.883294 98.31785 
L 423.837279 100.623922 
L 429.791264 103.300263 
L 435.745248 106.367837 
L 441.699233 109.823627 
L 447.653218 113.625005 
L 453.607202 117.726412 
L 459.561187 122.116665 
L 465.515172 126.774466 
L 471.469156 131.685393 
L 477.423141 136.829668 
L 486.354118 144.94079 
L 495.285095 153.45207 
L 504.216072 162.308461 
L 516.124041 174.492949 
L 536.962988 196.315741 
L 551.847949 211.794099 
L 563.755919 223.823906 
L 572.686896 232.514048 
L 581.617873 240.828015 
L 590.54885 248.705723 
L 596.502834 253.67183 
L 602.456819 258.399206 
L 608.410804 262.853702 
L 614.364788 267.027617 
L 620.318773 270.899113 
L 626.272758 274.466161 
L 632.226742 277.688147 
L 638.180727 280.571538 
L 644.134712 283.11152 
L 650.088696 285.292582 
L 656.042681 287.106557 
L 661.996666 288.52385 
L 667.95065 289.548477 
L 673.904635 290.199321 
L 679.85862 290.456961 
L 685.812604 290.312843 
L 691.766589 289.786235 
L 697.720574 288.873451 
L 703.674558 287.57506 
L 709.628543 285.891802 
L 715.582528 283.822443 
L 721.536512 281.409571 
L 727.490497 278.635399 
L 733.444481 275.492138 
L 739.398466 272.024346 
L 745.352451 268.285315 
L 751.306435 264.32576 
L 760.237412 258.098913 
L 769.168389 251.564818 
L 781.076359 242.543444 
L 813.823274 217.429111 
L 825.731244 208.652687 
L 837.639213 200.240461 
L 846.57019 194.201483 
L 855.501167 188.434136 
L 864.432144 182.967496 
L 873.363121 177.804015 
L 882.294098 172.954629 
L 891.225075 168.41659 
L 900.156052 164.205395 
L 909.087029 160.316182 
L 918.018006 156.738178 
L 926.948983 153.472555 
L 935.87996 150.50945 
L 944.810937 147.844284 
L 953.741914 145.464063 
L 962.672891 143.360999 
L 971.603868 141.534977 
L 980.534845 139.966304 
L 989.465822 138.65892 
L 998.396799 137.595497 
L 1007.327776 136.78703 
L 1016.258753 136.203385 
L 1025.18973 135.860484 
L 1034.120707 135.747233 
L 1034.120707 135.747233 
" clip-path="url(#p7e7b504c70)" style="fill: none; stroke: #0000ff; stroke-opacity: 0.5; stroke-width: 1.5; stroke-linecap: square"/>
   </g>
   <g id="patch_3">
    <path d="M 144 304.56 
L 144 77.76 
" style="fill: none; stroke: #000000; stroke-width: 0.8; stroke-linejoin: miter; stroke-linecap: square"/>
   </g>
   <g id="patch_4">
    <path d="M 1036.8 304.56 
L 1036.8 77.76 
" style="fill: none; stroke: #000000; stroke-width: 0.8; stroke-linejoin: miter; stroke-linecap: square"/>
   </g>
   <g id="patch_5">
    <path d="M 144 304.56 
L 1036.8 304.56 
" style="fill: none; stroke: #000000; stroke-width: 0.8; stroke-linejoin: miter; stroke-linecap: square"/>
   </g>
   <g id="patch_6">
    <path d="M 144 77.76 
L 1036.8 77.76 
" style="fill: none; stroke: #000000; stroke-width: 0.8; stroke-linejoin: miter; stroke-linecap: square"/>
   </g>
   <g id="legend_1">
    <g id="patch_7">
     <path d="M 924.2 129.794375 
L 1029.8 129.794375 
Q 1031.8 129.794375 1031.8 127.794375 
L 1031.8 84.76 
Q 1031.8 82.76 1029.8 82.76 
L 924.2 82.76 
Q 922.2 82.76 922.2 84.76 
L 922.2 127.794375 
Q 922.2 129.794375 924.2 129.794375 
z
" style="fill: #ffffff; opacity: 0.8; stroke: #cccccc; stroke-linejoin: miter"/>
    </g>
    <g id="line2d_14">
     <path d="M 926.2 90.858437 
L 936.2 90.858437 
L 946.2 90.858437 
" style="fill: none; stroke-dasharray: 5.55,2.4; stroke-dashoffset: 0; stroke: #ffa500; stroke-width: 1.5"/>
    </g>
    <g id="text_12">
     <!-- Real $x$ Position -->
     <g transform="translate(954.2 94.358437) scale(0.1 -0.1)">
      <defs>
       <path id="DejaVuSans-52" d="M 2841 2188 
Q 3044 2119 3236 1894 
Q 3428 1669 3622 1275 
L 4263 0 
L 3584 0 
L 2988 1197 
Q 2756 1666 2539 1819 
Q 2322 1972 1947 1972 
L 1259 1972 
L 1259 0 
L 628 0 
L 628 4666 
L 2053 4666 
Q 2853 4666 3247 4331 
Q 3641 3997 3641 3322 
Q 3641 2881 3436 2590 
Q 3231 2300 2841 2188 
z
M 1259 4147 
L 1259 2491 
L 2053 2491 
Q 2509 2491 2742 2702 
Q 2975 2913 2975 3322 
Q 2975 3731 2742 3939 
Q 2509 4147 2053 4147 
L 1259 4147 
z
" transform="scale(0.015625)"/>
       <path id="DejaVuSans-65" d="M 3597 1894 
L 3597 1613 
L 953 1613 
Q 991 1019 1311 708 
Q 1631 397 2203 397 
Q 2534 397 2845 478 
Q 3156 559 3463 722 
L 3463 178 
Q 3153 47 2828 -22 
Q 2503 -91 2169 -91 
Q 1331 -91 842 396 
Q 353 884 353 1716 
Q 353 2575 817 3079 
Q 1281 3584 2069 3584 
Q 2775 3584 3186 3129 
Q 3597 2675 3597 1894 
z
M 3022 2063 
Q 3016 2534 2758 2815 
Q 2500 3097 2075 3097 
Q 1594 3097 1305 2825 
Q 1016 2553 972 2059 
L 3022 2063 
z
" transform="scale(0.015625)"/>
       <path id="DejaVuSans-61" d="M 2194 1759 
Q 1497 1759 1228 1600 
Q 959 1441 959 1056 
Q 959 750 1161 570 
Q 1363 391 1709 391 
Q 2188 391 2477 730 
Q 2766 1069 2766 1631 
L 2766 1759 
L 2194 1759 
z
M 3341 1997 
L 3341 0 
L 2766 0 
L 2766 531 
Q 2569 213 2275 61 
Q 1981 -91 1556 -91 
Q 1019 -91 701 211 
Q 384 513 384 1019 
Q 384 1609 779 1909 
Q 1175 2209 1959 2209 
L 2766 2209 
L 2766 2266 
Q 2766 2663 2505 2880 
Q 2244 3097 1772 3097 
Q 1472 3097 1187 3025 
Q 903 2953 641 2809 
L 641 3341 
Q 956 3463 1253 3523 
Q 1550 3584 1831 3584 
Q 2591 3584 2966 3190 
Q 3341 2797 3341 1997 
z
" transform="scale(0.015625)"/>
       <path id="DejaVuSans-6c" d="M 603 4863 
L 1178 4863 
L 1178 0 
L 603 0 
L 603 4863 
z
" transform="scale(0.015625)"/>
       <path id="DejaVuSans-20" transform="scale(0.015625)"/>
       <path id="DejaVuSans-Oblique-78" d="M 3841 3500 
L 2234 1784 
L 3219 0 
L 2559 0 
L 1819 1388 
L 531 0 
L -166 0 
L 1556 1844 
L 641 3500 
L 1300 3500 
L 1972 2234 
L 3144 3500 
L 3841 3500 
z
" transform="scale(0.015625)"/>
       <path id="DejaVuSans-50" d="M 1259 4147 
L 1259 2394 
L 2053 2394 
Q 2494 2394 2734 2622 
Q 2975 2850 2975 3272 
Q 2975 3691 2734 3919 
Q 2494 4147 2053 4147 
L 1259 4147 
z
M 628 4666 
L 2053 4666 
Q 2838 4666 3239 4311 
Q 3641 3956 3641 3272 
Q 3641 2581 3239 2228 
Q 2838 1875 2053 1875 
L 1259 1875 
L 1259 0 
L 628 0 
L 628 4666 
z
" transform="scale(0.015625)"/>
       <path id="DejaVuSans-6f" d="M 1959 3097 
Q 1497 3097 1228 2736 
Q 959 2375 959 1747 
Q 959 1119 1226 758 
Q 1494 397 1959 397 
Q 2419 397 2687 759 
Q 2956 1122 2956 1747 
Q 2956 2369 2687 2733 
Q 2419 3097 1959 3097 
z
M 1959 3584 
Q 2709 3584 3137 3096 
Q 3566 2609 3566 1747 
Q 3566 888 3137 398 
Q 2709 -91 1959 -91 
Q 1206 -91 779 398 
Q 353 888 353 1747 
Q 353 2609 779 3096 
Q 1206 3584 1959 3584 
z
" transform="scale(0.015625)"/>
       <path id="DejaVuSans-73" d="M 2834 3397 
L 2834 2853 
Q 2591 2978 2328 3040 
Q 2066 3103 1784 3103 
Q 1356 3103 1142 2972 
Q 928 2841 928 2578 
Q 928 2378 1081 2264 
Q 1234 2150 1697 2047 
L 1894 2003 
Q 2506 1872 2764 1633 
Q 3022 1394 3022 966 
Q 3022 478 2636 193 
Q 2250 -91 1575 -91 
Q 1294 -91 989 -36 
Q 684 19 347 128 
L 347 722 
Q 666 556 975 473 
Q 1284 391 1588 391 
Q 1994 391 2212 530 
Q 2431 669 2431 922 
Q 2431 1156 2273 1281 
Q 2116 1406 1581 1522 
L 1381 1569 
Q 847 1681 609 1914 
Q 372 2147 372 2553 
Q 372 3047 722 3315 
Q 1072 3584 1716 3584 
Q 2034 3584 2315 3537 
Q 2597 3491 2834 3397 
z
" transform="scale(0.015625)"/>
       <path id="DejaVuSans-69" d="M 603 3500 
L 1178 3500 
L 1178 0 
L 603 0 
L 603 3500 
z
M 603 4863 
L 1178 4863 
L 1178 4134 
L 603 4134 
L 603 4863 
z
" transform="scale(0.015625)"/>
       <path id="DejaVuSans-74" d="M 1172 4494 
L 1172 3500 
L 2356 3500 
L 2356 3053 
L 1172 3053 
L 1172 1153 
Q 1172 725 1289 603 
Q 1406 481 1766 481 
L 2356 481 
L 2356 0 
L 1766 0 
Q 1100 0 847 248 
Q 594 497 594 1153 
L 594 3053 
L 172 3053 
L 172 3500 
L 594 3500 
L 594 4494 
L 1172 4494 
z
" transform="scale(0.015625)"/>
       <path id="DejaVuSans-6e" d="M 3513 2113 
L 3513 0 
L 2938 0 
L 2938 2094 
Q 2938 2591 2744 2837 
Q 2550 3084 2163 3084 
Q 1697 3084 1428 2787 
Q 1159 2491 1159 1978 
L 1159 0 
L 581 0 
L 581 3500 
L 1159 3500 
L 1159 2956 
Q 1366 3272 1645 3428 
Q 1925 3584 2291 3584 
Q 2894 3584 3203 3211 
Q 3513 2838 3513 2113 
z
" transform="scale(0.015625)"/>
      </defs>
      <use xlink:href="#DejaVuSans-52" transform="translate(0 0.015625)"/>
      <use xlink:href="#DejaVuSans-65" transform="translate(69.482422 0.015625)"/>
      <use xlink:href="#DejaVuSans-61" transform="translate(131.005859 0.015625)"/>
      <use xlink:href="#DejaVuSans-6c" transform="translate(192.285156 0.015625)"/>
      <use xlink:href="#DejaVuSans-20" transform="translate(220.068359 0.015625)"/>
      <use xlink:href="#DejaVuSans-Oblique-78" transform="translate(251.855469 0.015625)"/>
      <use xlink:href="#DejaVuSans-20" transform="translate(311.035156 0.015625)"/>
      <use xlink:href="#DejaVuSans-50" transform="translate(342.822266 0.015625)"/>
      <use xlink:href="#DejaVuSans-6f" transform="translate(403.125 0.015625)"/>
      <use xlink:href="#DejaVuSans-73" transform="translate(464.306641 0.015625)"/>
      <use xlink:href="#DejaVuSans-69" transform="translate(516.40625 0.015625)"/>
      <use xlink:href="#DejaVuSans-74" transform="translate(544.189453 0.015625)"/>
      <use xlink:href="#DejaVuSans-69" transform="translate(583.398438 0.015625)"/>
      <use xlink:href="#DejaVuSans-6f" transform="translate(611.181641 0.015625)"/>
      <use xlink:href="#DejaVuSans-6e" transform="translate(672.363281 0.015625)"/>
     </g>
    </g>
    <g id="line2d_15">
     <path d="M 926.2 105.536562 
L 936.2 105.536562 
L 946.2 105.536562 
" style="fill: none; stroke: #0000ff; stroke-opacity: 0.5; stroke-width: 1.5; stroke-linecap: square"/>
    </g>
    <g id="text_13">
     <!-- Prediction $x$ -->
     <g transform="translate(954.2 109.036562) scale(0.1 -0.1)">
      <defs>
       <path id="DejaVuSans-72" d="M 2631 2963 
Q 2534 3019 2420 3045 
Q 2306 3072 2169 3072 
Q 1681 3072 1420 2755 
Q 1159 2438 1159 1844 
L 1159 0 
L 581 0 
L 581 3500 
L 1159 3500 
L 1159 2956 
Q 1341 3275 1631 3429 
Q 1922 3584 2338 3584 
Q 2397 3584 2469 3576 
Q 2541 3569 2628 3553 
L 2631 2963 
z
" transform="scale(0.015625)"/>
       <path id="DejaVuSans-64" d="M 2906 2969 
L 2906 4863 
L 3481 4863 
L 3481 0 
L 2906 0 
L 2906 525 
Q 2725 213 2448 61 
Q 2172 -91 1784 -91 
Q 1150 -91 751 415 
Q 353 922 353 1747 
Q 353 2572 751 3078 
Q 1150 3584 1784 3584 
Q 2172 3584 2448 3432 
Q 2725 3281 2906 2969 
z
M 947 1747 
Q 947 1113 1208 752 
Q 1469 391 1925 391 
Q 2381 391 2643 752 
Q 2906 1113 2906 1747 
Q 2906 2381 2643 2742 
Q 2381 3103 1925 3103 
Q 1469 3103 1208 2742 
Q 947 2381 947 1747 
z
" transform="scale(0.015625)"/>
       <path id="DejaVuSans-63" d="M 3122 3366 
L 3122 2828 
Q 2878 2963 2633 3030 
Q 2388 3097 2138 3097 
Q 1578 3097 1268 2742 
Q 959 2388 959 1747 
Q 959 1106 1268 751 
Q 1578 397 2138 397 
Q 2388 397 2633 464 
Q 2878 531 3122 666 
L 3122 134 
Q 2881 22 2623 -34 
Q 2366 -91 2075 -91 
Q 1284 -91 818 406 
Q 353 903 353 1747 
Q 353 2603 823 3093 
Q 1294 3584 2113 3584 
Q 2378 3584 2631 3529 
Q 2884 3475 3122 3366 
z
" transform="scale(0.015625)"/>
      </defs>
      <use xlink:href="#DejaVuSans-50" transform="translate(0 0.015625)"/>
      <use xlink:href="#DejaVuSans-72" transform="translate(60.302734 0.015625)"/>
      <use xlink:href="#DejaVuSans-65" transform="translate(101.416016 0.015625)"/>
      <use xlink:href="#DejaVuSans-64" transform="translate(162.939453 0.015625)"/>
      <use xlink:href="#DejaVuSans-69" transform="translate(226.416016 0.015625)"/>
      <use xlink:href="#DejaVuSans-63" transform="translate(254.199219 0.015625)"/>
      <use xlink:href="#DejaVuSans-74" transform="translate(309.179688 0.015625)"/>
      <use xlink:href="#DejaVuSans-69" transform="translate(348.388672 0.015625)"/>
      <use xlink:href="#DejaVuSans-6f" transform="translate(376.171875 0.015625)"/>
      <use xlink:href="#DejaVuSans-6e" transform="translate(437.353516 0.015625)"/>
      <use xlink:href="#DejaVuSans-20" transform="translate(500.732422 0.015625)"/>
      <use xlink:href="#DejaVuSans-Oblique-78" transform="translate(532.519531 0.015625)"/>
     </g>
    </g>
    <g id="patch_8">
     <path d="M 926.2 123.714687 
L 946.2 123.714687 
L 946.2 116.714687 
L 926.2 116.714687 
z
" style="fill: #00ffff; fill-opacity: 0.5; stroke: #00ffff; stroke-opacity: 0.5; stroke-linejoin: miter"/>
    </g>
    <g id="text_14">
     <!-- Confidence -->
     <g transform="translate(954.2 123.714687) scale(0.1 -0.1)">
      <defs>
       <path id="DejaVuSans-43" d="M 4122 4306 
L 4122 3641 
Q 3803 3938 3442 4084 
Q 3081 4231 2675 4231 
Q 1875 4231 1450 3742 
Q 1025 3253 1025 2328 
Q 1025 1406 1450 917 
Q 1875 428 2675 428 
Q 3081 428 3442 575 
Q 3803 722 4122 1019 
L 4122 359 
Q 3791 134 3420 21 
Q 3050 -91 2638 -91 
Q 1578 -91 968 557 
Q 359 1206 359 2328 
Q 359 3453 968 4101 
Q 1578 4750 2638 4750 
Q 3056 4750 3426 4639 
Q 3797 4528 4122 4306 
z
" transform="scale(0.015625)"/>
       <path id="DejaVuSans-66" d="M 2375 4863 
L 2375 4384 
L 1825 4384 
Q 1516 4384 1395 4259 
Q 1275 4134 1275 3809 
L 1275 3500 
L 2222 3500 
L 2222 3053 
L 1275 3053 
L 1275 0 
L 697 0 
L 697 3053 
L 147 3053 
L 147 3500 
L 697 3500 
L 697 3744 
Q 697 4328 969 4595 
Q 1241 4863 1831 4863 
L 2375 4863 
z
" transform="scale(0.015625)"/>
      </defs>
      <use xlink:href="#DejaVuSans-43"/>
      <use xlink:href="#DejaVuSans-6f" x="69.824219"/>
      <use xlink:href="#DejaVuSans-6e" x="131.005859"/>
      <use xlink:href="#DejaVuSans-66" x="194.384766"/>
      <use xlink:href="#DejaVuSans-69" x="229.589844"/>
      <use xlink:href="#DejaVuSans-64" x="257.373047"/>
      <use xlink:href="#DejaVuSans-65" x="320.849609"/>
      <use xlink:href="#DejaVuSans-6e" x="382.373047"/>
      <use xlink:href="#DejaVuSans-63" x="445.751953"/>
      <use xlink:href="#DejaVuSans-65" x="500.732422"/>
     </g>
    </g>
   </g>
  </g>
  <g id="axes_2">
   <g id="patch_9">
    <path d="M 144 576.72 
L 1036.8 576.72 
L 1036.8 349.92 
L 144 349.92 
z
" style="fill: #ffffff"/>
   </g>
   <g id="matplotlib.axis_3">
    <g id="xtick_7">
     <g id="line2d_16">
      <g>
       <use xlink:href="#m9197d5835b" x="144" y="576.72" style="stroke: #000000; stroke-width: 0.8"/>
      </g>
     </g>
     <g id="text_15">
      <!-- 0 -->
      <g transform="translate(140.81875 591.318438) scale(0.1 -0.1)">
       <use xlink:href="#DejaVuSans-30"/>
      </g>
     </g>
    </g>
    <g id="xtick_8">
     <g id="line2d_17">
      <g>
       <use xlink:href="#m9197d5835b" x="292.849617" y="576.72" style="stroke: #000000; stroke-width: 0.8"/>
      </g>
     </g>
     <g id="text_16">
      <!-- 5 -->
      <g transform="translate(289.668367 591.318438) scale(0.1 -0.1)">
       <use xlink:href="#DejaVuSans-35"/>
      </g>
     </g>
    </g>
    <g id="xtick_9">
     <g id="line2d_18">
      <g>
       <use xlink:href="#m9197d5835b" x="441.699233" y="576.72" style="stroke: #000000; stroke-width: 0.8"/>
      </g>
     </g>
     <g id="text_17">
      <!-- 10 -->
      <g transform="translate(435.336733 591.318438) scale(0.1 -0.1)">
       <use xlink:href="#DejaVuSans-31"/>
       <use xlink:href="#DejaVuSans-30" x="63.623047"/>
      </g>
     </g>
    </g>
    <g id="xtick_10">
     <g id="line2d_19">
      <g>
       <use xlink:href="#m9197d5835b" x="590.54885" y="576.72" style="stroke: #000000; stroke-width: 0.8"/>
      </g>
     </g>
     <g id="text_18">
      <!-- 15 -->
      <g transform="translate(584.18635 591.318438) scale(0.1 -0.1)">
       <use xlink:href="#DejaVuSans-31"/>
       <use xlink:href="#DejaVuSans-35" x="63.623047"/>
      </g>
     </g>
    </g>
    <g id="xtick_11">
     <g id="line2d_20">
      <g>
       <use xlink:href="#m9197d5835b" x="739.398466" y="576.72" style="stroke: #000000; stroke-width: 0.8"/>
      </g>
     </g>
     <g id="text_19">
      <!-- 20 -->
      <g transform="translate(733.035966 591.318438) scale(0.1 -0.1)">
       <use xlink:href="#DejaVuSans-32"/>
       <use xlink:href="#DejaVuSans-30" x="63.623047"/>
      </g>
     </g>
    </g>
    <g id="xtick_12">
     <g id="line2d_21">
      <g>
       <use xlink:href="#m9197d5835b" x="888.248083" y="576.72" style="stroke: #000000; stroke-width: 0.8"/>
      </g>
     </g>
     <g id="text_20">
      <!-- 25 -->
      <g transform="translate(881.885583 591.318438) scale(0.1 -0.1)">
       <use xlink:href="#DejaVuSans-32"/>
       <use xlink:href="#DejaVuSans-35" x="63.623047"/>
      </g>
     </g>
    </g>
   </g>
   <g id="matplotlib.axis_4">
    <g id="ytick_6">
     <g id="line2d_22">
      <g>
       <use xlink:href="#m484ce55dac" x="144" y="573.89157" style="stroke: #000000; stroke-width: 0.8"/>
      </g>
     </g>
     <g id="text_21">
      <!-- −0.03 -->
      <g transform="translate(106.354687 577.690789) scale(0.1 -0.1)">
       <defs>
        <path id="DejaVuSans-2212" d="M 678 2272 
L 4684 2272 
L 4684 1741 
L 678 1741 
L 678 2272 
z
" transform="scale(0.015625)"/>
       </defs>
       <use xlink:href="#DejaVuSans-2212"/>
       <use xlink:href="#DejaVuSans-30" x="83.789062"/>
       <use xlink:href="#DejaVuSans-2e" x="147.412109"/>
       <use xlink:href="#DejaVuSans-30" x="179.199219"/>
       <use xlink:href="#DejaVuSans-33" x="242.822266"/>
      </g>
     </g>
    </g>
    <g id="ytick_7">
     <g id="line2d_23">
      <g>
       <use xlink:href="#m484ce55dac" x="144" y="544.011481" style="stroke: #000000; stroke-width: 0.8"/>
      </g>
     </g>
     <g id="text_22">
      <!-- −0.02 -->
      <g transform="translate(106.354687 547.8107) scale(0.1 -0.1)">
       <use xlink:href="#DejaVuSans-2212"/>
       <use xlink:href="#DejaVuSans-30" x="83.789062"/>
       <use xlink:href="#DejaVuSans-2e" x="147.412109"/>
       <use xlink:href="#DejaVuSans-30" x="179.199219"/>
       <use xlink:href="#DejaVuSans-32" x="242.822266"/>
      </g>
     </g>
    </g>
    <g id="ytick_8">
     <g id="line2d_24">
      <g>
       <use xlink:href="#m484ce55dac" x="144" y="514.131392" style="stroke: #000000; stroke-width: 0.8"/>
      </g>
     </g>
     <g id="text_23">
      <!-- −0.01 -->
      <g transform="translate(106.354687 517.930611) scale(0.1 -0.1)">
       <use xlink:href="#DejaVuSans-2212"/>
       <use xlink:href="#DejaVuSans-30" x="83.789062"/>
       <use xlink:href="#DejaVuSans-2e" x="147.412109"/>
       <use xlink:href="#DejaVuSans-30" x="179.199219"/>
       <use xlink:href="#DejaVuSans-31" x="242.822266"/>
      </g>
     </g>
    </g>
    <g id="ytick_9">
     <g id="line2d_25">
      <g>
       <use xlink:href="#m484ce55dac" x="144" y="484.251303" style="stroke: #000000; stroke-width: 0.8"/>
      </g>
     </g>
     <g id="text_24">
      <!-- 0.00 -->
      <g transform="translate(114.734375 488.050522) scale(0.1 -0.1)">
       <use xlink:href="#DejaVuSans-30"/>
       <use xlink:href="#DejaVuSans-2e" x="63.623047"/>
       <use xlink:href="#DejaVuSans-30" x="95.410156"/>
       <use xlink:href="#DejaVuSans-30" x="159.033203"/>
      </g>
     </g>
    </g>
    <g id="ytick_10">
     <g id="line2d_26">
      <g>
       <use xlink:href="#m484ce55dac" x="144" y="454.371215" style="stroke: #000000; stroke-width: 0.8"/>
      </g>
     </g>
     <g id="text_25">
      <!-- 0.01 -->
      <g transform="translate(114.734375 458.170433) scale(0.1 -0.1)">
       <use xlink:href="#DejaVuSans-30"/>
       <use xlink:href="#DejaVuSans-2e" x="63.623047"/>
       <use xlink:href="#DejaVuSans-30" x="95.410156"/>
       <use xlink:href="#DejaVuSans-31" x="159.033203"/>
      </g>
     </g>
    </g>
    <g id="ytick_11">
     <g id="line2d_27">
      <g>
       <use xlink:href="#m484ce55dac" x="144" y="424.491126" style="stroke: #000000; stroke-width: 0.8"/>
      </g>
     </g>
     <g id="text_26">
      <!-- 0.02 -->
      <g transform="translate(114.734375 428.290345) scale(0.1 -0.1)">
       <use xlink:href="#DejaVuSans-30"/>
       <use xlink:href="#DejaVuSans-2e" x="63.623047"/>
       <use xlink:href="#DejaVuSans-30" x="95.410156"/>
       <use xlink:href="#DejaVuSans-32" x="159.033203"/>
      </g>
     </g>
    </g>
    <g id="ytick_12">
     <g id="line2d_28">
      <g>
       <use xlink:href="#m484ce55dac" x="144" y="394.611037" style="stroke: #000000; stroke-width: 0.8"/>
      </g>
     </g>
     <g id="text_27">
      <!-- 0.03 -->
      <g transform="translate(114.734375 398.410256) scale(0.1 -0.1)">
       <use xlink:href="#DejaVuSans-30"/>
       <use xlink:href="#DejaVuSans-2e" x="63.623047"/>
       <use xlink:href="#DejaVuSans-30" x="95.410156"/>
       <use xlink:href="#DejaVuSans-33" x="159.033203"/>
      </g>
     </g>
    </g>
    <g id="ytick_13">
     <g id="line2d_29">
      <g>
       <use xlink:href="#m484ce55dac" x="144" y="364.730948" style="stroke: #000000; stroke-width: 0.8"/>
      </g>
     </g>
     <g id="text_28">
      <!-- 0.04 -->
      <g transform="translate(114.734375 368.530167) scale(0.1 -0.1)">
       <defs>
        <path id="DejaVuSans-34" d="M 2419 4116 
L 825 1625 
L 2419 1625 
L 2419 4116 
z
M 2253 4666 
L 3047 4666 
L 3047 1625 
L 3713 1625 
L 3713 1100 
L 3047 1100 
L 3047 0 
L 2419 0 
L 2419 1100 
L 313 1100 
L 313 1709 
L 2253 4666 
z
" transform="scale(0.015625)"/>
       </defs>
       <use xlink:href="#DejaVuSans-30"/>
       <use xlink:href="#DejaVuSans-2e" x="63.623047"/>
       <use xlink:href="#DejaVuSans-30" x="95.410156"/>
       <use xlink:href="#DejaVuSans-34" x="159.033203"/>
      </g>
     </g>
    </g>
   </g>
   <g id="line2d_30">
    <path d="M 144 513.084943 
L 173.769923 511.736934 
L 203.539847 512.84909 
L 263.079693 513.241784 
L 322.61954 512.946736 
L 382.159386 512.193542 
L 441.699233 510.91708 
L 501.23908 509.279758 
L 560.778926 507.353626 
L 620.318773 505.093274 
L 709.628543 500.990893 
L 739.398466 499.455817 
L 798.938313 496.152286 
L 888.248083 490.451462 
L 947.787929 486.160454 
L 977.557853 483.9202 
L 1037.097699 479.090417 
L 1066.867623 476.582358 
L 1126.407469 471.291805 
L 1153 468.804571 
L 1153 468.804571 
" clip-path="url(#p521660da88)" style="fill: none; stroke: #1f77b4; stroke-width: 1.5; stroke-linecap: square"/>
   </g>
   <g id="patch_10">
    <path d="M 144 576.72 
L 144 349.92 
" style="fill: none; stroke: #000000; stroke-width: 0.8; stroke-linejoin: miter; stroke-linecap: square"/>
   </g>
   <g id="patch_11">
    <path d="M 1036.8 576.72 
L 1036.8 349.92 
" style="fill: none; stroke: #000000; stroke-width: 0.8; stroke-linejoin: miter; stroke-linecap: square"/>
   </g>
   <g id="patch_12">
    <path d="M 144 576.72 
L 1036.8 576.72 
" style="fill: none; stroke: #000000; stroke-width: 0.8; stroke-linejoin: miter; stroke-linecap: square"/>
   </g>
   <g id="patch_13">
    <path d="M 144 349.92 
L 1036.8 349.92 
" style="fill: none; stroke: #000000; stroke-width: 0.8; stroke-linejoin: miter; stroke-linecap: square"/>
   </g>
   <g id="legend_2">
    <g id="patch_14">
     <path d="M 920.578125 372.598125 
L 1029.8 372.598125 
Q 1031.8 372.598125 1031.8 370.598125 
L 1031.8 356.92 
Q 1031.8 354.92 1029.8 354.92 
L 920.578125 354.92 
Q 918.578125 354.92 918.578125 356.92 
L 918.578125 370.598125 
Q 918.578125 372.598125 920.578125 372.598125 
z
" style="fill: #ffffff; opacity: 0.8; stroke: #cccccc; stroke-linejoin: miter"/>
    </g>
    <g id="line2d_31">
     <path d="M 922.578125 363.018437 
L 932.578125 363.018437 
L 942.578125 363.018437 
" style="fill: none; stroke: #1f77b4; stroke-width: 1.5; stroke-linecap: square"/>
    </g>
    <g id="text_29">
     <!-- Prediction Error -->
     <g transform="translate(950.578125 366.518437) scale(0.1 -0.1)">
      <defs>
       <path id="DejaVuSans-45" d="M 628 4666 
L 3578 4666 
L 3578 4134 
L 1259 4134 
L 1259 2753 
L 3481 2753 
L 3481 2222 
L 1259 2222 
L 1259 531 
L 3634 531 
L 3634 0 
L 628 0 
L 628 4666 
z
" transform="scale(0.015625)"/>
      </defs>
      <use xlink:href="#DejaVuSans-50"/>
      <use xlink:href="#DejaVuSans-72" x="58.552734"/>
      <use xlink:href="#DejaVuSans-65" x="97.416016"/>
      <use xlink:href="#DejaVuSans-64" x="158.939453"/>
      <use xlink:href="#DejaVuSans-69" x="222.416016"/>
      <use xlink:href="#DejaVuSans-63" x="250.199219"/>
      <use xlink:href="#DejaVuSans-74" x="305.179688"/>
      <use xlink:href="#DejaVuSans-69" x="344.388672"/>
      <use xlink:href="#DejaVuSans-6f" x="372.171875"/>
      <use xlink:href="#DejaVuSans-6e" x="433.353516"/>
      <use xlink:href="#DejaVuSans-20" x="496.732422"/>
      <use xlink:href="#DejaVuSans-45" x="528.519531"/>
      <use xlink:href="#DejaVuSans-72" x="591.703125"/>
      <use xlink:href="#DejaVuSans-72" x="631.066406"/>
      <use xlink:href="#DejaVuSans-6f" x="669.929688"/>
      <use xlink:href="#DejaVuSans-72" x="731.111328"/>
     </g>
    </g>
   </g>
  </g>
  <g id="text_30">
   <!-- $x$-Position Prediction -->
   <g transform="translate(514.74 22.078125) scale(0.12 -0.12)">
    <defs>
     <path id="DejaVuSans-2d" d="M 313 2009 
L 1997 2009 
L 1997 1497 
L 313 1497 
L 313 2009 
z
" transform="scale(0.015625)"/>
    </defs>
    <use xlink:href="#DejaVuSans-Oblique-78" transform="translate(0 0.015625)"/>
    <use xlink:href="#DejaVuSans-2d" transform="translate(59.179688 0.015625)"/>
    <use xlink:href="#DejaVuSans-50" transform="translate(95.263672 0.015625)"/>
    <use xlink:href="#DejaVuSans-6f" transform="translate(155.566406 0.015625)"/>
    <use xlink:href="#DejaVuSans-73" transform="translate(216.748047 0.015625)"/>
    <use xlink:href="#DejaVuSans-69" transform="translate(268.847656 0.015625)"/>
    <use xlink:href="#DejaVuSans-74" transform="translate(296.630859 0.015625)"/>
    <use xlink:href="#DejaVuSans-69" transform="translate(335.839844 0.015625)"/>
    <use xlink:href="#DejaVuSans-6f" transform="translate(363.623047 0.015625)"/>
    <use xlink:href="#DejaVuSans-6e" transform="translate(424.804688 0.015625)"/>
    <use xlink:href="#DejaVuSans-20" transform="translate(488.183594 0.015625)"/>
    <use xlink:href="#DejaVuSans-50" transform="translate(519.970703 0.015625)"/>
    <use xlink:href="#DejaVuSans-72" transform="translate(580.273438 0.015625)"/>
    <use xlink:href="#DejaVuSans-65" transform="translate(621.386719 0.015625)"/>
    <use xlink:href="#DejaVuSans-64" transform="translate(682.910156 0.015625)"/>
    <use xlink:href="#DejaVuSans-69" transform="translate(746.386719 0.015625)"/>
    <use xlink:href="#DejaVuSans-63" transform="translate(774.169922 0.015625)"/>
    <use xlink:href="#DejaVuSans-74" transform="translate(829.150391 0.015625)"/>
    <use xlink:href="#DejaVuSans-69" transform="translate(868.359375 0.015625)"/>
    <use xlink:href="#DejaVuSans-6f" transform="translate(896.142578 0.015625)"/>
    <use xlink:href="#DejaVuSans-6e" transform="translate(957.324219 0.015625)"/>
   </g>
  </g>
 </g>
 <defs>
  <clipPath id="p7e7b504c70">
   <rect x="144" y="77.76" width="892.8" height="226.8"/>
  </clipPath>
  <clipPath id="p521660da88">
   <rect x="144" y="349.92" width="892.8" height="226.8"/>
  </clipPath>
 </defs>
</svg>
