<?xml version="1.0" encoding="utf-8" standalone="no"?>
<!DOCTYPE svg PUBLIC "-//W3C//DTD SVG 1.1//EN"
  "http://www.w3.org/Graphics/SVG/1.1/DTD/svg11.dtd">
<svg xmlns:xlink="http://www.w3.org/1999/xlink" width="1152pt" height="648pt" viewBox="0 0 1152 648" xmlns="http://www.w3.org/2000/svg" version="1.1">
 <metadata>
  <rdf:RDF xmlns:dc="http://purl.org/dc/elements/1.1/" xmlns:cc="http://creativecommons.org/ns#" xmlns:rdf="http://www.w3.org/1999/02/22-rdf-syntax-ns#">
   <cc:Work>
    <dc:type rdf:resource="http://purl.org/dc/dcmitype/StillImage"/>
    <dc:date>2024-06-19T20:44:32.674671</dc:date>
    <dc:format>image/svg+xml</dc:format>
    <dc:creator>
     <cc:Agent>
      <dc:title>Matplotlib v3.9.0, https://matplotlib.org/</dc:title>
     </cc:Agent>
    </dc:creator>
   </cc:Work>
  </rdf:RDF>
 </metadata>
 <defs>
  <style type="text/css">*{stroke-linejoin: round; stroke-linecap: butt}</style>
 </defs>
 <g id="figure_1">
  <g id="patch_1">
   <path d="M 0 648 
L 1152 648 
L 1152 0 
L 0 0 
z
" style="fill: #ffffff"/>
  </g>
  <g id="axes_1">
   <g id="patch_2">
    <path d="M 144 304.56 
L 1036.8 304.56 
L 1036.8 77.76 
L 144 77.76 
z
" style="fill: #ffffff"/>
   </g>
   <g id="PolyCollection_1">
    <defs>
     <path id="m738cdf2cb0" d="M 292.849617 -553.048372 
L 292.849617 -545.405355 
L 295.826609 -544.590503 
L 298.803601 -543.742475 
L 301.780594 -542.887457 
L 304.757586 -542.027367 
L 307.734578 -541.156821 
L 310.711571 -540.262299 
L 313.688563 -539.341804 
L 316.665555 -538.388656 
L 319.642548 -537.396912 
L 322.61954 -536.365915 
L 325.596532 -535.29193 
L 328.573525 -534.169035 
L 331.550517 -533.003109 
L 334.527509 -531.783207 
L 337.504502 -530.511457 
L 340.481494 -529.186103 
L 343.458486 -527.805424 
L 346.435478 -526.376295 
L 349.412471 -524.883698 
L 352.389463 -523.334054 
L 355.366455 -521.730189 
L 358.343448 -520.073365 
L 361.32044 -518.348416 
L 364.297432 -516.567167 
L 367.274425 -514.727939 
L 370.251417 -512.830867 
L 373.228409 -510.871881 
L 376.205402 -508.854286 
L 379.182394 -506.778546 
L 382.159386 -504.638313 
L 385.136379 -502.439328 
L 388.113371 -500.185968 
L 391.090363 -497.868851 
L 394.067356 -495.500109 
L 397.044348 -493.064934 
L 400.02134 -490.57631 
L 402.998333 -488.038467 
L 405.975325 -485.437089 
L 408.952317 -482.785001 
L 411.92931 -480.07875 
L 414.906302 -477.316021 
L 417.883294 -474.503337 
L 420.860287 -471.640932 
L 423.837279 -468.736314 
L 426.814271 -465.789411 
L 429.791264 -462.79338 
L 432.768256 -459.771138 
L 435.745248 -456.701484 
L 438.722241 -453.588098 
L 441.699233 -450.443913 
L 444.676225 -447.295355 
L 447.653218 -444.16923 
L 450.63021 -441.054693 
L 453.607202 -437.956501 
L 456.584195 -434.879912 
L 459.561187 -431.828314 
L 462.538179 -428.793663 
L 465.515172 -425.787301 
L 468.492164 -422.801127 
L 471.469156 -419.852794 
L 474.446149 -416.923018 
L 477.423141 -414.036924 
L 480.400133 -411.178491 
L 483.377126 -408.365853 
L 486.354118 -405.609119 
L 489.33111 -402.899269 
L 492.308103 -400.218576 
L 495.285095 -397.600955 
L 498.262087 -395.033668 
L 501.23908 -392.523297 
L 504.216072 -390.069684 
L 507.193064 -387.671661 
L 510.170057 -385.337318 
L 513.147049 -383.084357 
L 516.124041 -380.901568 
L 519.101034 -378.794053 
L 522.078026 -376.751985 
L 525.055018 -374.788842 
L 528.032011 -372.896501 
L 531.009003 -371.082396 
L 533.985995 -369.355649 
L 536.962988 -367.704199 
L 539.93998 -366.147526 
L 542.916972 -364.685022 
L 545.893965 -363.300139 
L 548.870957 -361.99356 
L 551.847949 -360.791618 
L 554.824942 -359.679759 
L 557.801934 -358.668367 
L 560.778926 -357.746144 
L 563.755919 -356.919328 
L 566.732911 -356.180888 
L 569.709903 -355.551245 
L 572.686896 -355.000076 
L 575.663888 -354.550073 
L 578.64088 -354.203639 
L 581.617873 -353.95708 
L 584.594865 -353.813238 
L 587.571857 -353.749091 
L 590.54885 -353.797843 
L 593.525842 -353.94002 
L 596.502834 -354.195754 
L 599.479827 -354.530437 
L 602.456819 -354.957924 
L 605.433811 -355.4915 
L 608.410804 -356.13617 
L 611.387796 -356.860245 
L 614.364788 -357.685427 
L 617.341781 -358.61964 
L 620.318773 -359.637565 
L 623.295765 -360.754442 
L 626.272758 -361.955778 
L 629.24975 -363.245046 
L 632.226742 -364.626833 
L 635.203735 -366.106641 
L 638.180727 -367.676962 
L 641.157719 -369.321554 
L 644.134712 -371.054775 
L 647.111704 -372.858552 
L 650.088696 -374.740921 
L 653.065689 -376.70149 
L 656.042681 -378.75046 
L 659.019673 -380.857008 
L 661.996666 -383.041184 
L 664.973658 -385.296518 
L 667.95065 -387.617232 
L 670.927643 -390.007858 
L 673.904635 -392.460529 
L 676.881627 -394.971522 
L 679.85862 -397.543261 
L 682.835612 -400.171359 
L 685.812604 -402.850699 
L 688.789597 -405.584431 
L 691.766589 -408.358804 
L 694.743581 -411.173804 
L 697.720574 -414.035748 
L 700.697566 -416.932781 
L 703.674558 -419.872943 
L 706.651551 -422.838193 
L 709.628543 -425.834971 
L 712.605535 -428.856643 
L 715.582528 -431.905684 
L 718.55952 -434.97264 
L 721.536512 -438.057727 
L 724.513505 -441.151124 
L 727.490497 -444.259049 
L 730.467489 -447.373452 
L 733.444481 -450.493823 
L 736.421474 -453.613827 
L 739.398466 -456.732162 
L 742.375458 -459.82362 
L 745.352451 -462.871996 
L 748.329443 -465.878397 
L 751.306435 -468.835368 
L 754.283428 -471.748869 
L 757.26042 -474.618222 
L 760.237412 -477.433339 
L 763.214405 -480.196481 
L 766.191397 -482.906472 
L 769.168389 -485.56188 
L 772.145382 -488.160911 
L 775.122374 -490.70349 
L 778.099366 -493.190376 
L 781.076359 -495.617809 
L 784.053351 -497.987273 
L 787.030343 -500.299838 
L 790.007336 -502.549038 
L 792.984328 -504.741938 
L 795.96132 -506.874494 
L 798.938313 -508.945362 
L 801.915305 -510.961421 
L 804.892297 -512.914757 
L 807.86929 -514.808137 
L 810.846282 -516.640509 
L 813.823274 -518.416924 
L 816.800267 -520.133078 
L 819.777259 -521.792819 
L 822.754251 -523.395472 
L 825.731244 -524.941132 
L 828.708236 -526.429776 
L 831.685228 -527.862225 
L 834.662221 -529.241533 
L 837.639213 -530.568892 
L 840.616205 -531.844985 
L 843.593198 -533.067607 
L 846.57019 -534.242146 
L 849.547182 -535.364233 
L 852.524175 -536.440953 
L 855.501167 -537.471704 
L 858.478159 -538.455514 
L 861.455152 -539.394457 
L 864.432144 -540.290739 
L 867.409136 -541.14694 
L 870.386129 -541.959818 
L 873.363121 -542.733537 
L 876.340113 -543.468232 
L 879.317106 -544.167157 
L 882.294098 -544.827322 
L 885.27109 -545.450988 
L 888.248083 -546.042579 
L 891.225075 -546.603058 
L 894.202067 -547.130176 
L 897.17906 -547.62798 
L 900.156052 -548.096708 
L 903.133044 -548.537997 
L 906.110037 -548.950907 
L 909.087029 -549.338764 
L 912.064021 -549.701423 
L 915.041014 -550.042286 
L 918.018006 -550.360972 
L 920.994998 -550.65657 
L 923.971991 -550.933562 
L 926.948983 -551.190193 
L 929.925975 -551.432137 
L 932.902968 -551.652393 
L 935.87996 -551.859911 
L 938.856952 -552.049665 
L 941.833945 -552.225233 
L 944.810937 -552.38889 
L 947.787929 -552.5432 
L 950.764922 -552.682648 
L 953.741914 -552.811286 
L 956.718906 -552.929488 
L 959.695899 -553.040329 
L 962.672891 -553.137764 
L 965.649883 -553.232115 
L 968.626876 -553.318512 
L 971.603868 -553.401732 
L 974.58086 -553.475651 
L 977.557853 -553.545808 
L 980.534845 -553.609308 
L 983.511837 -553.671792 
L 986.48883 -553.72935 
L 989.465822 -553.784663 
L 992.442814 -553.83467 
L 995.419807 -553.882672 
L 998.396799 -553.930873 
L 1001.373791 -553.975043 
L 1004.350784 -554.020957 
L 1007.327776 -554.065216 
L 1010.304768 -554.106729 
L 1013.281761 -554.146469 
L 1016.258753 -554.19066 
L 1019.235745 -554.233109 
L 1022.212738 -554.272161 
L 1025.18973 -554.313343 
L 1028.166722 -554.353008 
L 1031.143715 -554.397814 
L 1034.120707 -554.440331 
L 1034.120707 -559.299326 
L 1034.120707 -559.299326 
L 1031.143715 -559.341836 
L 1028.166722 -559.381506 
L 1025.18973 -559.426319 
L 1022.212738 -559.468859 
L 1019.235745 -559.51264 
L 1016.258753 -559.552029 
L 1013.281761 -559.590761 
L 1010.304768 -559.633405 
L 1007.327776 -559.67326 
L 1004.350784 -559.709503 
L 1001.373791 -559.744156 
L 998.396799 -559.779669 
L 995.419807 -559.810725 
L 992.442814 -559.841888 
L 989.465822 -559.869186 
L 986.48883 -559.889735 
L 983.511837 -559.906989 
L 980.534845 -559.918923 
L 977.557853 -559.929144 
L 974.58086 -559.930909 
L 971.603868 -559.927316 
L 968.626876 -559.913602 
L 965.649883 -559.896201 
L 962.672891 -559.870599 
L 959.695899 -559.840874 
L 956.718906 -559.795081 
L 953.741914 -559.74111 
L 950.764922 -559.674823 
L 947.787929 -559.596162 
L 944.810937 -559.502205 
L 941.833945 -559.39875 
L 938.856952 -559.282863 
L 935.87996 -559.150772 
L 932.902968 -559.000289 
L 929.925975 -558.836382 
L 926.948983 -558.649148 
L 923.971991 -558.44679 
L 920.994998 -558.223349 
L 918.018006 -557.980067 
L 915.041014 -557.712084 
L 912.064021 -557.421794 
L 909.087029 -557.108711 
L 906.110037 -556.76873 
L 903.133044 -556.403046 
L 900.156052 -556.007874 
L 897.17906 -555.584228 
L 894.202067 -555.130692 
L 891.225075 -554.646512 
L 888.248083 -554.127966 
L 885.27109 -553.578122 
L 882.294098 -552.994821 
L 879.317106 -552.372802 
L 876.340113 -551.710622 
L 873.363121 -551.011722 
L 870.386129 -550.272176 
L 867.409136 -549.491614 
L 864.432144 -548.666493 
L 861.455152 -547.800868 
L 858.478159 -546.891665 
L 855.501167 -545.936233 
L 852.524175 -544.933338 
L 849.547182 -543.884492 
L 846.57019 -542.788393 
L 843.593198 -541.638538 
L 840.616205 -540.439666 
L 837.639213 -539.186409 
L 834.662221 -537.881749 
L 831.685228 -536.524505 
L 828.708236 -535.11292 
L 825.731244 -533.642786 
L 822.754251 -532.114242 
L 819.777259 -530.527834 
L 816.800267 -528.884141 
L 813.823274 -527.182739 
L 810.846282 -525.420331 
L 807.86929 -523.601133 
L 804.892297 -521.719405 
L 801.915305 -519.776075 
L 798.938313 -517.770102 
L 795.96132 -515.709684 
L 792.984328 -513.58691 
L 790.007336 -511.403412 
L 787.030343 -509.163512 
L 784.053351 -506.860373 
L 781.076359 -504.500943 
L 778.099366 -502.083867 
L 775.122374 -499.607578 
L 772.145382 -497.076815 
L 769.168389 -494.489657 
L 766.191397 -491.846593 
L 763.214405 -489.149067 
L 760.237412 -486.398651 
L 757.26042 -483.596075 
L 754.283428 -480.739294 
L 751.306435 -477.839497 
L 748.329443 -474.894693 
L 745.352451 -471.897664 
L 742.375458 -468.85505 
L 739.398466 -465.76899 
L 736.421474 -462.659288 
L 733.444481 -459.551744 
L 730.467489 -456.446847 
L 727.490497 -453.351113 
L 724.513505 -450.264886 
L 721.536512 -447.195574 
L 718.55952 -444.13671 
L 715.582528 -441.098151 
L 712.605535 -438.07966 
L 709.628543 -435.090463 
L 706.651551 -432.128032 
L 703.674558 -429.198337 
L 700.697566 -426.294724 
L 697.720574 -423.435532 
L 694.743581 -420.612277 
L 691.766589 -417.836959 
L 688.789597 -415.102603 
L 685.812604 -412.409209 
L 682.835612 -409.770707 
L 679.85862 -407.183313 
L 676.881627 -404.651888 
L 673.904635 -402.180588 
L 670.927643 -399.766648 
L 667.95065 -397.413659 
L 664.973658 -395.129548 
L 661.996666 -392.909356 
L 659.019673 -390.758972 
L 656.042681 -388.685215 
L 653.065689 -386.66737 
L 650.088696 -384.73574 
L 647.111704 -382.881649 
L 644.134712 -381.106087 
L 641.157719 -379.400629 
L 638.180727 -377.783035 
L 635.203735 -376.238406 
L 632.226742 -374.781291 
L 629.24975 -373.419484 
L 626.272758 -372.14904 
L 623.295765 -370.966479 
L 620.318773 -369.867114 
L 617.341781 -368.864831 
L 614.364788 -367.94359 
L 611.387796 -367.127328 
L 608.410804 -366.411569 
L 605.433811 -365.772376 
L 602.456819 -365.238895 
L 599.479827 -364.810007 
L 596.502834 -364.474703 
L 593.525842 -364.216484 
L 590.54885 -364.067645 
L 587.571857 -364.009169 
L 584.594865 -364.063702 
L 581.617873 -364.197856 
L 578.64088 -364.430192 
L 575.663888 -364.75898 
L 572.686896 -365.188565 
L 569.709903 -365.720546 
L 566.732911 -366.331767 
L 563.755919 -367.048026 
L 560.778926 -367.854126 
L 557.801934 -368.755821 
L 554.824942 -369.745176 
L 551.847949 -370.832714 
L 548.870957 -372.006235 
L 545.893965 -373.283299 
L 542.916972 -374.643302 
L 539.93998 -376.079075 
L 536.962988 -377.603866 
L 533.985995 -379.222712 
L 531.009003 -380.914981 
L 528.032011 -382.693927 
L 525.055018 -384.552015 
L 522.078026 -386.481399 
L 519.101034 -388.49036 
L 516.124041 -390.565564 
L 513.147049 -392.711768 
L 510.170057 -394.923168 
L 507.193064 -397.211447 
L 504.216072 -399.563391 
L 501.23908 -401.973619 
L 498.262087 -404.441405 
L 495.285095 -406.967639 
L 492.308103 -409.543364 
L 489.33111 -412.185254 
L 486.354118 -414.863906 
L 483.377126 -417.587921 
L 480.400133 -420.363901 
L 477.423141 -423.188362 
L 474.446149 -426.044036 
L 471.469156 -428.947498 
L 468.492164 -431.872247 
L 465.515172 -434.837778 
L 462.538179 -437.825347 
L 459.561187 -440.844915 
L 456.584195 -443.881223 
L 453.607202 -446.940862 
L 450.63021 -450.020339 
L 447.653218 -453.114331 
L 444.676225 -456.215446 
L 441.699233 -459.336174 
L 438.722241 -462.454855 
L 435.745248 -465.545822 
L 432.768256 -468.596844 
L 429.791264 -471.601793 
L 426.814271 -474.581399 
L 423.837279 -477.514194 
L 420.860287 -480.406144 
L 417.883294 -483.257446 
L 414.906302 -486.060264 
L 411.92931 -488.813459 
L 408.952317 -491.510329 
L 405.975325 -494.152794 
L 402.998333 -496.744293 
L 400.02134 -499.2724 
L 397.044348 -501.752329 
L 394.067356 -504.178436 
L 391.090363 -506.53757 
L 388.113371 -508.844724 
L 385.136379 -511.088634 
L 382.159386 -513.277967 
L 379.182394 -515.405592 
L 376.205402 -517.466258 
L 373.228409 -519.467514 
L 370.251417 -521.407843 
L 367.274425 -523.285966 
L 364.297432 -525.10694 
L 361.32044 -526.870951 
L 358.343448 -528.578831 
L 355.366455 -530.219585 
L 352.389463 -531.812007 
L 349.412471 -533.351229 
L 346.435478 -534.832809 
L 343.458486 -536.253019 
L 340.481494 -537.627493 
L 337.504502 -538.948757 
L 334.527509 -540.218062 
L 331.550517 -541.435216 
L 328.573525 -542.599732 
L 325.596532 -543.720965 
L 322.61954 -544.790528 
L 319.642548 -545.812301 
L 316.665555 -546.788257 
L 313.688563 -547.71424 
L 310.711571 -548.592752 
L 307.734578 -549.425614 
L 304.757586 -550.21107 
L 301.780594 -550.954952 
L 298.803601 -551.659162 
L 295.826609 -552.332678 
L 292.849617 -553.048372 
z
" style="stroke: #00ffff; stroke-opacity: 0.5"/>
    </defs>
    <g clip-path="url(#pd811908c41)">
     <use xlink:href="#m738cdf2cb0" x="0" y="648" style="fill: #00ffff; fill-opacity: 0.5; stroke: #00ffff; stroke-opacity: 0.5"/>
    </g>
   </g>
   <g id="matplotlib.axis_1">
    <g id="xtick_1">
     <g id="line2d_1">
      <defs>
       <path id="m55d6e552d9" d="M 0 0 
L 0 3.5 
" style="stroke: #000000; stroke-width: 0.8"/>
      </defs>
      <g>
       <use xlink:href="#m55d6e552d9" x="144" y="304.56" style="stroke: #000000; stroke-width: 0.8"/>
      </g>
     </g>
     <g id="text_1">
      <!-- 0 -->
      <g transform="translate(140.81875 319.158437) scale(0.1 -0.1)">
       <defs>
        <path id="DejaVuSans-30" d="M 2034 4250 
Q 1547 4250 1301 3770 
Q 1056 3291 1056 2328 
Q 1056 1369 1301 889 
Q 1547 409 2034 409 
Q 2525 409 2770 889 
Q 3016 1369 3016 2328 
Q 3016 3291 2770 3770 
Q 2525 4250 2034 4250 
z
M 2034 4750 
Q 2819 4750 3233 4129 
Q 3647 3509 3647 2328 
Q 3647 1150 3233 529 
Q 2819 -91 2034 -91 
Q 1250 -91 836 529 
Q 422 1150 422 2328 
Q 422 3509 836 4129 
Q 1250 4750 2034 4750 
z
" transform="scale(0.015625)"/>
       </defs>
       <use xlink:href="#DejaVuSans-30"/>
      </g>
     </g>
    </g>
    <g id="xtick_2">
     <g id="line2d_2">
      <g>
       <use xlink:href="#m55d6e552d9" x="292.849617" y="304.56" style="stroke: #000000; stroke-width: 0.8"/>
      </g>
     </g>
     <g id="text_2">
      <!-- 5 -->
      <g transform="translate(289.668367 319.158437) scale(0.1 -0.1)">
       <defs>
        <path id="DejaVuSans-35" d="M 691 4666 
L 3169 4666 
L 3169 4134 
L 1269 4134 
L 1269 2991 
Q 1406 3038 1543 3061 
Q 1681 3084 1819 3084 
Q 2600 3084 3056 2656 
Q 3513 2228 3513 1497 
Q 3513 744 3044 326 
Q 2575 -91 1722 -91 
Q 1428 -91 1123 -41 
Q 819 9 494 109 
L 494 744 
Q 775 591 1075 516 
Q 1375 441 1709 441 
Q 2250 441 2565 725 
Q 2881 1009 2881 1497 
Q 2881 1984 2565 2268 
Q 2250 2553 1709 2553 
Q 1456 2553 1204 2497 
Q 953 2441 691 2322 
L 691 4666 
z
" transform="scale(0.015625)"/>
       </defs>
       <use xlink:href="#DejaVuSans-35"/>
      </g>
     </g>
    </g>
    <g id="xtick_3">
     <g id="line2d_3">
      <g>
       <use xlink:href="#m55d6e552d9" x="441.699233" y="304.56" style="stroke: #000000; stroke-width: 0.8"/>
      </g>
     </g>
     <g id="text_3">
      <!-- 10 -->
      <g transform="translate(435.336733 319.158437) scale(0.1 -0.1)">
       <defs>
        <path id="DejaVuSans-31" d="M 794 531 
L 1825 531 
L 1825 4091 
L 703 3866 
L 703 4441 
L 1819 4666 
L 2450 4666 
L 2450 531 
L 3481 531 
L 3481 0 
L 794 0 
L 794 531 
z
" transform="scale(0.015625)"/>
       </defs>
       <use xlink:href="#DejaVuSans-31"/>
       <use xlink:href="#DejaVuSans-30" x="63.623047"/>
      </g>
     </g>
    </g>
    <g id="xtick_4">
     <g id="line2d_4">
      <g>
       <use xlink:href="#m55d6e552d9" x="590.54885" y="304.56" style="stroke: #000000; stroke-width: 0.8"/>
      </g>
     </g>
     <g id="text_4">
      <!-- 15 -->
      <g transform="translate(584.18635 319.158437) scale(0.1 -0.1)">
       <use xlink:href="#DejaVuSans-31"/>
       <use xlink:href="#DejaVuSans-35" x="63.623047"/>
      </g>
     </g>
    </g>
    <g id="xtick_5">
     <g id="line2d_5">
      <g>
       <use xlink:href="#m55d6e552d9" x="739.398466" y="304.56" style="stroke: #000000; stroke-width: 0.8"/>
      </g>
     </g>
     <g id="text_5">
      <!-- 20 -->
      <g transform="translate(733.035966 319.158437) scale(0.1 -0.1)">
       <defs>
        <path id="DejaVuSans-32" d="M 1228 531 
L 3431 531 
L 3431 0 
L 469 0 
L 469 531 
Q 828 903 1448 1529 
Q 2069 2156 2228 2338 
Q 2531 2678 2651 2914 
Q 2772 3150 2772 3378 
Q 2772 3750 2511 3984 
Q 2250 4219 1831 4219 
Q 1534 4219 1204 4116 
Q 875 4013 500 3803 
L 500 4441 
Q 881 4594 1212 4672 
Q 1544 4750 1819 4750 
Q 2544 4750 2975 4387 
Q 3406 4025 3406 3419 
Q 3406 3131 3298 2873 
Q 3191 2616 2906 2266 
Q 2828 2175 2409 1742 
Q 1991 1309 1228 531 
z
" transform="scale(0.015625)"/>
       </defs>
       <use xlink:href="#DejaVuSans-32"/>
       <use xlink:href="#DejaVuSans-30" x="63.623047"/>
      </g>
     </g>
    </g>
    <g id="xtick_6">
     <g id="line2d_6">
      <g>
       <use xlink:href="#m55d6e552d9" x="888.248083" y="304.56" style="stroke: #000000; stroke-width: 0.8"/>
      </g>
     </g>
     <g id="text_6">
      <!-- 25 -->
      <g transform="translate(881.885583 319.158437) scale(0.1 -0.1)">
       <use xlink:href="#DejaVuSans-32"/>
       <use xlink:href="#DejaVuSans-35" x="63.623047"/>
      </g>
     </g>
    </g>
   </g>
   <g id="matplotlib.axis_2">
    <g id="ytick_1">
     <g id="line2d_7">
      <defs>
       <path id="m049f7da8a4" d="M 0 0 
L -3.5 0 
" style="stroke: #000000; stroke-width: 0.8"/>
      </defs>
      <g>
       <use xlink:href="#m049f7da8a4" x="144" y="288.692462" style="stroke: #000000; stroke-width: 0.8"/>
      </g>
     </g>
     <g id="text_7">
      <!-- 1.0 -->
      <g transform="translate(121.096875 292.491681) scale(0.1 -0.1)">
       <defs>
        <path id="DejaVuSans-2e" d="M 684 794 
L 1344 794 
L 1344 0 
L 684 0 
L 684 794 
z
" transform="scale(0.015625)"/>
       </defs>
       <use xlink:href="#DejaVuSans-31"/>
       <use xlink:href="#DejaVuSans-2e" x="63.623047"/>
       <use xlink:href="#DejaVuSans-30" x="95.410156"/>
      </g>
     </g>
    </g>
    <g id="ytick_2">
     <g id="line2d_8">
      <g>
       <use xlink:href="#m049f7da8a4" x="144" y="239.280898" style="stroke: #000000; stroke-width: 0.8"/>
      </g>
     </g>
     <g id="text_8">
      <!-- 1.5 -->
      <g transform="translate(121.096875 243.080117) scale(0.1 -0.1)">
       <use xlink:href="#DejaVuSans-31"/>
       <use xlink:href="#DejaVuSans-2e" x="63.623047"/>
       <use xlink:href="#DejaVuSans-35" x="95.410156"/>
      </g>
     </g>
    </g>
    <g id="ytick_3">
     <g id="line2d_9">
      <g>
       <use xlink:href="#m049f7da8a4" x="144" y="189.869334" style="stroke: #000000; stroke-width: 0.8"/>
      </g>
     </g>
     <g id="text_9">
      <!-- 2.0 -->
      <g transform="translate(121.096875 193.668553) scale(0.1 -0.1)">
       <use xlink:href="#DejaVuSans-32"/>
       <use xlink:href="#DejaVuSans-2e" x="63.623047"/>
       <use xlink:href="#DejaVuSans-30" x="95.410156"/>
      </g>
     </g>
    </g>
    <g id="ytick_4">
     <g id="line2d_10">
      <g>
       <use xlink:href="#m049f7da8a4" x="144" y="140.457771" style="stroke: #000000; stroke-width: 0.8"/>
      </g>
     </g>
     <g id="text_10">
      <!-- 2.5 -->
      <g transform="translate(121.096875 144.25699) scale(0.1 -0.1)">
       <use xlink:href="#DejaVuSans-32"/>
       <use xlink:href="#DejaVuSans-2e" x="63.623047"/>
       <use xlink:href="#DejaVuSans-35" x="95.410156"/>
      </g>
     </g>
    </g>
    <g id="ytick_5">
     <g id="line2d_11">
      <g>
       <use xlink:href="#m049f7da8a4" x="144" y="91.046207" style="stroke: #000000; stroke-width: 0.8"/>
      </g>
     </g>
     <g id="text_11">
      <!-- 3.0 -->
      <g transform="translate(121.096875 94.845426) scale(0.1 -0.1)">
       <defs>
        <path id="DejaVuSans-33" d="M 2597 2516 
Q 3050 2419 3304 2112 
Q 3559 1806 3559 1356 
Q 3559 666 3084 287 
Q 2609 -91 1734 -91 
Q 1441 -91 1130 -33 
Q 819 25 488 141 
L 488 750 
Q 750 597 1062 519 
Q 1375 441 1716 441 
Q 2309 441 2620 675 
Q 2931 909 2931 1356 
Q 2931 1769 2642 2001 
Q 2353 2234 1838 2234 
L 1294 2234 
L 1294 2753 
L 1863 2753 
Q 2328 2753 2575 2939 
Q 2822 3125 2822 3475 
Q 2822 3834 2567 4026 
Q 2313 4219 1838 4219 
Q 1578 4219 1281 4162 
Q 984 4106 628 3988 
L 628 4550 
Q 988 4650 1302 4700 
Q 1616 4750 1894 4750 
Q 2613 4750 3031 4423 
Q 3450 4097 3450 3541 
Q 3450 3153 3228 2886 
Q 3006 2619 2597 2516 
z
" transform="scale(0.015625)"/>
       </defs>
       <use xlink:href="#DejaVuSans-33"/>
       <use xlink:href="#DejaVuSans-2e" x="63.623047"/>
       <use xlink:href="#DejaVuSans-30" x="95.410156"/>
      </g>
     </g>
    </g>
   </g>
   <g id="line2d_12">
    <path d="M 144 91.046207 
L 147.87009 90.92774 
L 154.419473 90.755721 
L 167.518239 90.628839 
L 191.334178 90.65078 
L 211.577726 90.886429 
L 225.867289 91.254879 
L 238.966055 91.803401 
L 249.980927 92.49118 
L 260.102701 93.332435 
L 269.629076 94.352576 
L 277.964655 95.461465 
L 286.300233 96.789091 
L 293.742714 98.193831 
L 297.612804 99.158703 
L 310.413871 102.545369 
L 317.856352 104.763274 
L 325.001134 107.132107 
L 331.550517 109.532722 
L 337.802201 112.042693 
L 344.053885 114.782142 
L 350.305569 117.750312 
L 356.557252 120.972064 
L 362.511237 124.267554 
L 368.762921 127.981013 
L 375.014605 131.950602 
L 381.266289 136.185253 
L 387.517973 140.696648 
L 394.067356 145.695573 
L 400.31904 150.737564 
L 407.166122 156.535365 
L 414.013204 162.626749 
L 421.157986 169.291615 
L 429.195865 177.105283 
L 438.126842 186.135111 
L 450.927909 199.532394 
L 463.431277 212.420247 
L 473.553051 222.555638 
L 482.484028 231.208958 
L 489.62881 237.84287 
L 497.36899 244.742401 
L 504.216072 250.542966 
L 510.765455 255.813566 
L 516.71944 260.313489 
L 522.673424 264.534053 
L 528.32971 268.278109 
L 533.688296 271.574433 
L 539.344582 274.767921 
L 544.107769 277.206759 
L 549.466355 279.709101 
L 553.931844 281.56546 
L 558.695032 283.313382 
L 563.458219 284.824366 
L 568.221407 286.101238 
L 572.984595 287.130783 
L 577.450083 287.886352 
L 581.915572 288.414921 
L 586.38106 288.717384 
L 590.846549 288.81955 
L 595.312037 288.691316 
L 600.075225 288.308268 
L 604.540714 287.747751 
L 608.708503 287.007423 
L 613.76939 285.870944 
L 618.234878 284.624417 
L 622.998066 283.067221 
L 628.058953 281.158808 
L 632.822141 279.131638 
L 637.287629 277.006852 
L 642.646215 274.204225 
L 648.004802 271.136644 
L 653.363388 267.82456 
L 658.721974 264.247188 
L 664.08056 260.449606 
L 670.034545 255.958764 
L 676.286229 250.958703 
L 682.537913 245.691496 
L 689.384995 239.634748 
L 697.422874 232.207491 
L 705.758453 224.171861 
L 714.987129 214.973297 
L 726.895098 202.761493 
L 753.985729 174.834818 
L 761.725909 167.365212 
L 768.87069 160.779543 
L 775.717773 154.762956 
L 782.564855 149.041596 
L 789.114238 143.854727 
L 795.663621 138.954383 
L 801.915305 134.5456 
L 808.166989 130.398061 
L 814.418673 126.519149 
L 820.670357 122.900376 
L 826.922041 119.534346 
L 833.173725 116.425049 
L 839.723108 113.426335 
L 845.974792 110.800803 
L 852.226475 108.402823 
L 858.775859 106.116557 
L 865.622941 103.965386 
L 872.470023 102.039173 
L 879.614805 100.26069 
L 886.759587 98.706322 
L 894.797466 97.194655 
L 902.835345 95.914157 
L 911.170924 94.806819 
L 920.3996 93.810591 
L 930.223675 92.980213 
L 940.643148 92.32198 
L 953.444215 91.755868 
L 967.138379 91.389974 
L 984.404935 91.15184 
L 1008.220874 91.058086 
L 1036.8 91.056741 
L 1036.8 91.056741 
" clip-path="url(#pd811908c41)" style="fill: none; stroke-dasharray: 5.55,2.4; stroke-dashoffset: 0; stroke: #ffa500; stroke-width: 1.5"/>
   </g>
   <g id="line2d_13">
    <path d="M 292.849617 98.773136 
L 307.734578 102.708782 
L 316.665555 105.411544 
L 322.61954 107.421778 
L 328.573525 109.615616 
L 334.527509 111.999365 
L 340.481494 114.593202 
L 346.435478 117.395448 
L 352.389463 120.426969 
L 358.343448 123.673902 
L 364.297432 127.162947 
L 370.251417 130.880645 
L 376.205402 134.839728 
L 382.159386 139.04186 
L 388.113371 143.484654 
L 394.067356 148.160727 
L 400.02134 153.075645 
L 405.975325 158.205058 
L 411.92931 163.553896 
L 420.860287 171.976462 
L 429.791264 180.802414 
L 438.722241 189.978524 
L 456.584195 208.619432 
L 468.492164 220.663313 
L 477.423141 229.387357 
L 486.354118 237.763488 
L 495.285095 245.715703 
L 501.23908 250.751542 
L 507.193064 255.558446 
L 513.147049 260.101937 
L 519.101034 264.357793 
L 525.055018 268.329572 
L 531.009003 272.001312 
L 536.962988 275.345967 
L 542.916972 278.335838 
L 548.870957 281.000102 
L 554.824942 283.287533 
L 560.778926 285.199865 
L 566.732911 286.743673 
L 572.686896 287.905679 
L 578.64088 288.683084 
L 584.594865 289.06153 
L 587.571857 289.12087 
L 593.525842 288.921748 
L 599.479827 288.329778 
L 605.433811 287.368062 
L 611.387796 286.006213 
L 617.341781 284.257765 
L 623.295765 282.13954 
L 629.24975 279.667735 
L 635.203735 276.827477 
L 641.157719 273.638908 
L 647.111704 270.129899 
L 653.065689 266.31557 
L 659.019673 262.19201 
L 664.973658 257.786967 
L 670.927643 253.112747 
L 676.881627 248.188295 
L 682.835612 243.028967 
L 688.789597 237.656483 
L 697.720574 229.26436 
L 706.651551 220.516888 
L 718.55952 208.445325 
L 736.421474 189.863442 
L 745.352451 180.61517 
L 754.283428 171.755919 
L 760.237412 166.084005 
L 766.191397 160.623468 
L 772.145382 155.381137 
L 778.099366 150.362878 
L 784.053351 145.576177 
L 790.007336 141.023775 
L 795.96132 136.707911 
L 801.915305 132.631252 
L 807.86929 128.795365 
L 813.823274 125.200169 
L 819.777259 121.839674 
L 825.731244 118.708041 
L 831.685228 115.806635 
L 837.639213 113.122349 
L 843.593198 110.646927 
L 849.547182 108.375637 
L 855.501167 106.296031 
L 861.455152 104.402337 
L 867.409136 102.680723 
L 873.363121 101.127371 
L 882.294098 99.088929 
L 891.225075 97.375215 
L 900.156052 95.947709 
L 909.087029 94.776262 
L 918.018006 93.829481 
L 926.948983 93.08033 
L 935.87996 92.494658 
L 947.787929 91.930319 
L 962.672891 91.495818 
L 980.534845 91.235885 
L 1004.350784 91.13477 
L 1034.120707 91.130171 
L 1034.120707 91.130171 
" clip-path="url(#pd811908c41)" style="fill: none; stroke: #0000ff; stroke-opacity: 0.5; stroke-width: 1.5; stroke-linecap: square"/>
   </g>
   <g id="patch_3">
    <path d="M 144 304.56 
L 144 77.76 
" style="fill: none; stroke: #000000; stroke-width: 0.8; stroke-linejoin: miter; stroke-linecap: square"/>
   </g>
   <g id="patch_4">
    <path d="M 1036.8 304.56 
L 1036.8 77.76 
" style="fill: none; stroke: #000000; stroke-width: 0.8; stroke-linejoin: miter; stroke-linecap: square"/>
   </g>
   <g id="patch_5">
    <path d="M 144 304.56 
L 1036.8 304.56 
" style="fill: none; stroke: #000000; stroke-width: 0.8; stroke-linejoin: miter; stroke-linecap: square"/>
   </g>
   <g id="patch_6">
    <path d="M 144 77.76 
L 1036.8 77.76 
" style="fill: none; stroke: #000000; stroke-width: 0.8; stroke-linejoin: miter; stroke-linecap: square"/>
   </g>
   <g id="legend_1">
    <g id="patch_7">
     <path d="M 151 299.56 
L 256.6 299.56 
Q 258.6 299.56 258.6 297.56 
L 258.6 254.525625 
Q 258.6 252.525625 256.6 252.525625 
L 151 252.525625 
Q 149 252.525625 149 254.525625 
L 149 297.56 
Q 149 299.56 151 299.56 
z
" style="fill: #ffffff; opacity: 0.8; stroke: #cccccc; stroke-linejoin: miter"/>
    </g>
    <g id="line2d_14">
     <path d="M 153 260.624062 
L 163 260.624062 
L 173 260.624062 
" style="fill: none; stroke-dasharray: 5.55,2.4; stroke-dashoffset: 0; stroke: #ffa500; stroke-width: 1.5"/>
    </g>
    <g id="text_12">
     <!-- Real $x$ Position -->
     <g transform="translate(181 264.124062) scale(0.1 -0.1)">
      <defs>
       <path id="DejaVuSans-52" d="M 2841 2188 
Q 3044 2119 3236 1894 
Q 3428 1669 3622 1275 
L 4263 0 
L 3584 0 
L 2988 1197 
Q 2756 1666 2539 1819 
Q 2322 1972 1947 1972 
L 1259 1972 
L 1259 0 
L 628 0 
L 628 4666 
L 2053 4666 
Q 2853 4666 3247 4331 
Q 3641 3997 3641 3322 
Q 3641 2881 3436 2590 
Q 3231 2300 2841 2188 
z
M 1259 4147 
L 1259 2491 
L 2053 2491 
Q 2509 2491 2742 2702 
Q 2975 2913 2975 3322 
Q 2975 3731 2742 3939 
Q 2509 4147 2053 4147 
L 1259 4147 
z
" transform="scale(0.015625)"/>
       <path id="DejaVuSans-65" d="M 3597 1894 
L 3597 1613 
L 953 1613 
Q 991 1019 1311 708 
Q 1631 397 2203 397 
Q 2534 397 2845 478 
Q 3156 559 3463 722 
L 3463 178 
Q 3153 47 2828 -22 
Q 2503 -91 2169 -91 
Q 1331 -91 842 396 
Q 353 884 353 1716 
Q 353 2575 817 3079 
Q 1281 3584 2069 3584 
Q 2775 3584 3186 3129 
Q 3597 2675 3597 1894 
z
M 3022 2063 
Q 3016 2534 2758 2815 
Q 2500 3097 2075 3097 
Q 1594 3097 1305 2825 
Q 1016 2553 972 2059 
L 3022 2063 
z
" transform="scale(0.015625)"/>
       <path id="DejaVuSans-61" d="M 2194 1759 
Q 1497 1759 1228 1600 
Q 959 1441 959 1056 
Q 959 750 1161 570 
Q 1363 391 1709 391 
Q 2188 391 2477 730 
Q 2766 1069 2766 1631 
L 2766 1759 
L 2194 1759 
z
M 3341 1997 
L 3341 0 
L 2766 0 
L 2766 531 
Q 2569 213 2275 61 
Q 1981 -91 1556 -91 
Q 1019 -91 701 211 
Q 384 513 384 1019 
Q 384 1609 779 1909 
Q 1175 2209 1959 2209 
L 2766 2209 
L 2766 2266 
Q 2766 2663 2505 2880 
Q 2244 3097 1772 3097 
Q 1472 3097 1187 3025 
Q 903 2953 641 2809 
L 641 3341 
Q 956 3463 1253 3523 
Q 1550 3584 1831 3584 
Q 2591 3584 2966 3190 
Q 3341 2797 3341 1997 
z
" transform="scale(0.015625)"/>
       <path id="DejaVuSans-6c" d="M 603 4863 
L 1178 4863 
L 1178 0 
L 603 0 
L 603 4863 
z
" transform="scale(0.015625)"/>
       <path id="DejaVuSans-20" transform="scale(0.015625)"/>
       <path id="DejaVuSans-Oblique-78" d="M 3841 3500 
L 2234 1784 
L 3219 0 
L 2559 0 
L 1819 1388 
L 531 0 
L -166 0 
L 1556 1844 
L 641 3500 
L 1300 3500 
L 1972 2234 
L 3144 3500 
L 3841 3500 
z
" transform="scale(0.015625)"/>
       <path id="DejaVuSans-50" d="M 1259 4147 
L 1259 2394 
L 2053 2394 
Q 2494 2394 2734 2622 
Q 2975 2850 2975 3272 
Q 2975 3691 2734 3919 
Q 2494 4147 2053 4147 
L 1259 4147 
z
M 628 4666 
L 2053 4666 
Q 2838 4666 3239 4311 
Q 3641 3956 3641 3272 
Q 3641 2581 3239 2228 
Q 2838 1875 2053 1875 
L 1259 1875 
L 1259 0 
L 628 0 
L 628 4666 
z
" transform="scale(0.015625)"/>
       <path id="DejaVuSans-6f" d="M 1959 3097 
Q 1497 3097 1228 2736 
Q 959 2375 959 1747 
Q 959 1119 1226 758 
Q 1494 397 1959 397 
Q 2419 397 2687 759 
Q 2956 1122 2956 1747 
Q 2956 2369 2687 2733 
Q 2419 3097 1959 3097 
z
M 1959 3584 
Q 2709 3584 3137 3096 
Q 3566 2609 3566 1747 
Q 3566 888 3137 398 
Q 2709 -91 1959 -91 
Q 1206 -91 779 398 
Q 353 888 353 1747 
Q 353 2609 779 3096 
Q 1206 3584 1959 3584 
z
" transform="scale(0.015625)"/>
       <path id="DejaVuSans-73" d="M 2834 3397 
L 2834 2853 
Q 2591 2978 2328 3040 
Q 2066 3103 1784 3103 
Q 1356 3103 1142 2972 
Q 928 2841 928 2578 
Q 928 2378 1081 2264 
Q 1234 2150 1697 2047 
L 1894 2003 
Q 2506 1872 2764 1633 
Q 3022 1394 3022 966 
Q 3022 478 2636 193 
Q 2250 -91 1575 -91 
Q 1294 -91 989 -36 
Q 684 19 347 128 
L 347 722 
Q 666 556 975 473 
Q 1284 391 1588 391 
Q 1994 391 2212 530 
Q 2431 669 2431 922 
Q 2431 1156 2273 1281 
Q 2116 1406 1581 1522 
L 1381 1569 
Q 847 1681 609 1914 
Q 372 2147 372 2553 
Q 372 3047 722 3315 
Q 1072 3584 1716 3584 
Q 2034 3584 2315 3537 
Q 2597 3491 2834 3397 
z
" transform="scale(0.015625)"/>
       <path id="DejaVuSans-69" d="M 603 3500 
L 1178 3500 
L 1178 0 
L 603 0 
L 603 3500 
z
M 603 4863 
L 1178 4863 
L 1178 4134 
L 603 4134 
L 603 4863 
z
" transform="scale(0.015625)"/>
       <path id="DejaVuSans-74" d="M 1172 4494 
L 1172 3500 
L 2356 3500 
L 2356 3053 
L 1172 3053 
L 1172 1153 
Q 1172 725 1289 603 
Q 1406 481 1766 481 
L 2356 481 
L 2356 0 
L 1766 0 
Q 1100 0 847 248 
Q 594 497 594 1153 
L 594 3053 
L 172 3053 
L 172 3500 
L 594 3500 
L 594 4494 
L 1172 4494 
z
" transform="scale(0.015625)"/>
       <path id="DejaVuSans-6e" d="M 3513 2113 
L 3513 0 
L 2938 0 
L 2938 2094 
Q 2938 2591 2744 2837 
Q 2550 3084 2163 3084 
Q 1697 3084 1428 2787 
Q 1159 2491 1159 1978 
L 1159 0 
L 581 0 
L 581 3500 
L 1159 3500 
L 1159 2956 
Q 1366 3272 1645 3428 
Q 1925 3584 2291 3584 
Q 2894 3584 3203 3211 
Q 3513 2838 3513 2113 
z
" transform="scale(0.015625)"/>
      </defs>
      <use xlink:href="#DejaVuSans-52" transform="translate(0 0.015625)"/>
      <use xlink:href="#DejaVuSans-65" transform="translate(69.482422 0.015625)"/>
      <use xlink:href="#DejaVuSans-61" transform="translate(131.005859 0.015625)"/>
      <use xlink:href="#DejaVuSans-6c" transform="translate(192.285156 0.015625)"/>
      <use xlink:href="#DejaVuSans-20" transform="translate(220.068359 0.015625)"/>
      <use xlink:href="#DejaVuSans-Oblique-78" transform="translate(251.855469 0.015625)"/>
      <use xlink:href="#DejaVuSans-20" transform="translate(311.035156 0.015625)"/>
      <use xlink:href="#DejaVuSans-50" transform="translate(342.822266 0.015625)"/>
      <use xlink:href="#DejaVuSans-6f" transform="translate(403.125 0.015625)"/>
      <use xlink:href="#DejaVuSans-73" transform="translate(464.306641 0.015625)"/>
      <use xlink:href="#DejaVuSans-69" transform="translate(516.40625 0.015625)"/>
      <use xlink:href="#DejaVuSans-74" transform="translate(544.189453 0.015625)"/>
      <use xlink:href="#DejaVuSans-69" transform="translate(583.398438 0.015625)"/>
      <use xlink:href="#DejaVuSans-6f" transform="translate(611.181641 0.015625)"/>
      <use xlink:href="#DejaVuSans-6e" transform="translate(672.363281 0.015625)"/>
     </g>
    </g>
    <g id="line2d_15">
     <path d="M 153 275.302188 
L 163 275.302188 
L 173 275.302188 
" style="fill: none; stroke: #0000ff; stroke-opacity: 0.5; stroke-width: 1.5; stroke-linecap: square"/>
    </g>
    <g id="text_13">
     <!-- Prediction $x$ -->
     <g transform="translate(181 278.802188) scale(0.1 -0.1)">
      <defs>
       <path id="DejaVuSans-72" d="M 2631 2963 
Q 2534 3019 2420 3045 
Q 2306 3072 2169 3072 
Q 1681 3072 1420 2755 
Q 1159 2438 1159 1844 
L 1159 0 
L 581 0 
L 581 3500 
L 1159 3500 
L 1159 2956 
Q 1341 3275 1631 3429 
Q 1922 3584 2338 3584 
Q 2397 3584 2469 3576 
Q 2541 3569 2628 3553 
L 2631 2963 
z
" transform="scale(0.015625)"/>
       <path id="DejaVuSans-64" d="M 2906 2969 
L 2906 4863 
L 3481 4863 
L 3481 0 
L 2906 0 
L 2906 525 
Q 2725 213 2448 61 
Q 2172 -91 1784 -91 
Q 1150 -91 751 415 
Q 353 922 353 1747 
Q 353 2572 751 3078 
Q 1150 3584 1784 3584 
Q 2172 3584 2448 3432 
Q 2725 3281 2906 2969 
z
M 947 1747 
Q 947 1113 1208 752 
Q 1469 391 1925 391 
Q 2381 391 2643 752 
Q 2906 1113 2906 1747 
Q 2906 2381 2643 2742 
Q 2381 3103 1925 3103 
Q 1469 3103 1208 2742 
Q 947 2381 947 1747 
z
" transform="scale(0.015625)"/>
       <path id="DejaVuSans-63" d="M 3122 3366 
L 3122 2828 
Q 2878 2963 2633 3030 
Q 2388 3097 2138 3097 
Q 1578 3097 1268 2742 
Q 959 2388 959 1747 
Q 959 1106 1268 751 
Q 1578 397 2138 397 
Q 2388 397 2633 464 
Q 2878 531 3122 666 
L 3122 134 
Q 2881 22 2623 -34 
Q 2366 -91 2075 -91 
Q 1284 -91 818 406 
Q 353 903 353 1747 
Q 353 2603 823 3093 
Q 1294 3584 2113 3584 
Q 2378 3584 2631 3529 
Q 2884 3475 3122 3366 
z
" transform="scale(0.015625)"/>
      </defs>
      <use xlink:href="#DejaVuSans-50" transform="translate(0 0.015625)"/>
      <use xlink:href="#DejaVuSans-72" transform="translate(60.302734 0.015625)"/>
      <use xlink:href="#DejaVuSans-65" transform="translate(101.416016 0.015625)"/>
      <use xlink:href="#DejaVuSans-64" transform="translate(162.939453 0.015625)"/>
      <use xlink:href="#DejaVuSans-69" transform="translate(226.416016 0.015625)"/>
      <use xlink:href="#DejaVuSans-63" transform="translate(254.199219 0.015625)"/>
      <use xlink:href="#DejaVuSans-74" transform="translate(309.179688 0.015625)"/>
      <use xlink:href="#DejaVuSans-69" transform="translate(348.388672 0.015625)"/>
      <use xlink:href="#DejaVuSans-6f" transform="translate(376.171875 0.015625)"/>
      <use xlink:href="#DejaVuSans-6e" transform="translate(437.353516 0.015625)"/>
      <use xlink:href="#DejaVuSans-20" transform="translate(500.732422 0.015625)"/>
      <use xlink:href="#DejaVuSans-Oblique-78" transform="translate(532.519531 0.015625)"/>
     </g>
    </g>
    <g id="patch_8">
     <path d="M 153 293.480312 
L 173 293.480312 
L 173 286.480312 
L 153 286.480312 
z
" style="fill: #00ffff; fill-opacity: 0.5; stroke: #00ffff; stroke-opacity: 0.5; stroke-linejoin: miter"/>
    </g>
    <g id="text_14">
     <!-- Confidence -->
     <g transform="translate(181 293.480312) scale(0.1 -0.1)">
      <defs>
       <path id="DejaVuSans-43" d="M 4122 4306 
L 4122 3641 
Q 3803 3938 3442 4084 
Q 3081 4231 2675 4231 
Q 1875 4231 1450 3742 
Q 1025 3253 1025 2328 
Q 1025 1406 1450 917 
Q 1875 428 2675 428 
Q 3081 428 3442 575 
Q 3803 722 4122 1019 
L 4122 359 
Q 3791 134 3420 21 
Q 3050 -91 2638 -91 
Q 1578 -91 968 557 
Q 359 1206 359 2328 
Q 359 3453 968 4101 
Q 1578 4750 2638 4750 
Q 3056 4750 3426 4639 
Q 3797 4528 4122 4306 
z
" transform="scale(0.015625)"/>
       <path id="DejaVuSans-66" d="M 2375 4863 
L 2375 4384 
L 1825 4384 
Q 1516 4384 1395 4259 
Q 1275 4134 1275 3809 
L 1275 3500 
L 2222 3500 
L 2222 3053 
L 1275 3053 
L 1275 0 
L 697 0 
L 697 3053 
L 147 3053 
L 147 3500 
L 697 3500 
L 697 3744 
Q 697 4328 969 4595 
Q 1241 4863 1831 4863 
L 2375 4863 
z
" transform="scale(0.015625)"/>
      </defs>
      <use xlink:href="#DejaVuSans-43"/>
      <use xlink:href="#DejaVuSans-6f" x="69.824219"/>
      <use xlink:href="#DejaVuSans-6e" x="131.005859"/>
      <use xlink:href="#DejaVuSans-66" x="194.384766"/>
      <use xlink:href="#DejaVuSans-69" x="229.589844"/>
      <use xlink:href="#DejaVuSans-64" x="257.373047"/>
      <use xlink:href="#DejaVuSans-65" x="320.849609"/>
      <use xlink:href="#DejaVuSans-6e" x="382.373047"/>
      <use xlink:href="#DejaVuSans-63" x="445.751953"/>
      <use xlink:href="#DejaVuSans-65" x="500.732422"/>
     </g>
    </g>
   </g>
  </g>
  <g id="axes_2">
   <g id="patch_9">
    <path d="M 144 576.72 
L 1036.8 576.72 
L 1036.8 349.92 
L 144 349.92 
z
" style="fill: #ffffff"/>
   </g>
   <g id="matplotlib.axis_3">
    <g id="xtick_7">
     <g id="line2d_16">
      <g>
       <use xlink:href="#m55d6e552d9" x="144" y="576.72" style="stroke: #000000; stroke-width: 0.8"/>
      </g>
     </g>
     <g id="text_15">
      <!-- 0 -->
      <g transform="translate(140.81875 591.318438) scale(0.1 -0.1)">
       <use xlink:href="#DejaVuSans-30"/>
      </g>
     </g>
    </g>
    <g id="xtick_8">
     <g id="line2d_17">
      <g>
       <use xlink:href="#m55d6e552d9" x="292.849617" y="576.72" style="stroke: #000000; stroke-width: 0.8"/>
      </g>
     </g>
     <g id="text_16">
      <!-- 5 -->
      <g transform="translate(289.668367 591.318438) scale(0.1 -0.1)">
       <use xlink:href="#DejaVuSans-35"/>
      </g>
     </g>
    </g>
    <g id="xtick_9">
     <g id="line2d_18">
      <g>
       <use xlink:href="#m55d6e552d9" x="441.699233" y="576.72" style="stroke: #000000; stroke-width: 0.8"/>
      </g>
     </g>
     <g id="text_17">
      <!-- 10 -->
      <g transform="translate(435.336733 591.318438) scale(0.1 -0.1)">
       <use xlink:href="#DejaVuSans-31"/>
       <use xlink:href="#DejaVuSans-30" x="63.623047"/>
      </g>
     </g>
    </g>
    <g id="xtick_10">
     <g id="line2d_19">
      <g>
       <use xlink:href="#m55d6e552d9" x="590.54885" y="576.72" style="stroke: #000000; stroke-width: 0.8"/>
      </g>
     </g>
     <g id="text_18">
      <!-- 15 -->
      <g transform="translate(584.18635 591.318438) scale(0.1 -0.1)">
       <use xlink:href="#DejaVuSans-31"/>
       <use xlink:href="#DejaVuSans-35" x="63.623047"/>
      </g>
     </g>
    </g>
    <g id="xtick_11">
     <g id="line2d_20">
      <g>
       <use xlink:href="#m55d6e552d9" x="739.398466" y="576.72" style="stroke: #000000; stroke-width: 0.8"/>
      </g>
     </g>
     <g id="text_19">
      <!-- 20 -->
      <g transform="translate(733.035966 591.318438) scale(0.1 -0.1)">
       <use xlink:href="#DejaVuSans-32"/>
       <use xlink:href="#DejaVuSans-30" x="63.623047"/>
      </g>
     </g>
    </g>
    <g id="xtick_12">
     <g id="line2d_21">
      <g>
       <use xlink:href="#m55d6e552d9" x="888.248083" y="576.72" style="stroke: #000000; stroke-width: 0.8"/>
      </g>
     </g>
     <g id="text_20">
      <!-- 25 -->
      <g transform="translate(881.885583 591.318438) scale(0.1 -0.1)">
       <use xlink:href="#DejaVuSans-32"/>
       <use xlink:href="#DejaVuSans-35" x="63.623047"/>
      </g>
     </g>
    </g>
   </g>
   <g id="matplotlib.axis_4">
    <g id="ytick_6">
     <g id="line2d_22">
      <g>
       <use xlink:href="#m049f7da8a4" x="144" y="565.893983" style="stroke: #000000; stroke-width: 0.8"/>
      </g>
     </g>
     <g id="text_21">
      <!-- −0.03 -->
      <g transform="translate(106.354687 569.693202) scale(0.1 -0.1)">
       <defs>
        <path id="DejaVuSans-2212" d="M 678 2272 
L 4684 2272 
L 4684 1741 
L 678 1741 
L 678 2272 
z
" transform="scale(0.015625)"/>
       </defs>
       <use xlink:href="#DejaVuSans-2212"/>
       <use xlink:href="#DejaVuSans-30" x="83.789062"/>
       <use xlink:href="#DejaVuSans-2e" x="147.412109"/>
       <use xlink:href="#DejaVuSans-30" x="179.199219"/>
       <use xlink:href="#DejaVuSans-33" x="242.822266"/>
      </g>
     </g>
    </g>
    <g id="ytick_7">
     <g id="line2d_23">
      <g>
       <use xlink:href="#m049f7da8a4" x="144" y="533.265002" style="stroke: #000000; stroke-width: 0.8"/>
      </g>
     </g>
     <g id="text_22">
      <!-- −0.02 -->
      <g transform="translate(106.354687 537.064221) scale(0.1 -0.1)">
       <use xlink:href="#DejaVuSans-2212"/>
       <use xlink:href="#DejaVuSans-30" x="83.789062"/>
       <use xlink:href="#DejaVuSans-2e" x="147.412109"/>
       <use xlink:href="#DejaVuSans-30" x="179.199219"/>
       <use xlink:href="#DejaVuSans-32" x="242.822266"/>
      </g>
     </g>
    </g>
    <g id="ytick_8">
     <g id="line2d_24">
      <g>
       <use xlink:href="#m049f7da8a4" x="144" y="500.636021" style="stroke: #000000; stroke-width: 0.8"/>
      </g>
     </g>
     <g id="text_23">
      <!-- −0.01 -->
      <g transform="translate(106.354687 504.43524) scale(0.1 -0.1)">
       <use xlink:href="#DejaVuSans-2212"/>
       <use xlink:href="#DejaVuSans-30" x="83.789062"/>
       <use xlink:href="#DejaVuSans-2e" x="147.412109"/>
       <use xlink:href="#DejaVuSans-30" x="179.199219"/>
       <use xlink:href="#DejaVuSans-31" x="242.822266"/>
      </g>
     </g>
    </g>
    <g id="ytick_9">
     <g id="line2d_25">
      <g>
       <use xlink:href="#m049f7da8a4" x="144" y="468.007041" style="stroke: #000000; stroke-width: 0.8"/>
      </g>
     </g>
     <g id="text_24">
      <!-- 0.00 -->
      <g transform="translate(114.734375 471.806259) scale(0.1 -0.1)">
       <use xlink:href="#DejaVuSans-30"/>
       <use xlink:href="#DejaVuSans-2e" x="63.623047"/>
       <use xlink:href="#DejaVuSans-30" x="95.410156"/>
       <use xlink:href="#DejaVuSans-30" x="159.033203"/>
      </g>
     </g>
    </g>
    <g id="ytick_10">
     <g id="line2d_26">
      <g>
       <use xlink:href="#m049f7da8a4" x="144" y="435.37806" style="stroke: #000000; stroke-width: 0.8"/>
      </g>
     </g>
     <g id="text_25">
      <!-- 0.01 -->
      <g transform="translate(114.734375 439.177279) scale(0.1 -0.1)">
       <use xlink:href="#DejaVuSans-30"/>
       <use xlink:href="#DejaVuSans-2e" x="63.623047"/>
       <use xlink:href="#DejaVuSans-30" x="95.410156"/>
       <use xlink:href="#DejaVuSans-31" x="159.033203"/>
      </g>
     </g>
    </g>
    <g id="ytick_11">
     <g id="line2d_27">
      <g>
       <use xlink:href="#m049f7da8a4" x="144" y="402.749079" style="stroke: #000000; stroke-width: 0.8"/>
      </g>
     </g>
     <g id="text_26">
      <!-- 0.02 -->
      <g transform="translate(114.734375 406.548298) scale(0.1 -0.1)">
       <use xlink:href="#DejaVuSans-30"/>
       <use xlink:href="#DejaVuSans-2e" x="63.623047"/>
       <use xlink:href="#DejaVuSans-30" x="95.410156"/>
       <use xlink:href="#DejaVuSans-32" x="159.033203"/>
      </g>
     </g>
    </g>
    <g id="ytick_12">
     <g id="line2d_28">
      <g>
       <use xlink:href="#m049f7da8a4" x="144" y="370.120098" style="stroke: #000000; stroke-width: 0.8"/>
      </g>
     </g>
     <g id="text_27">
      <!-- 0.03 -->
      <g transform="translate(114.734375 373.919317) scale(0.1 -0.1)">
       <use xlink:href="#DejaVuSans-30"/>
       <use xlink:href="#DejaVuSans-2e" x="63.623047"/>
       <use xlink:href="#DejaVuSans-30" x="95.410156"/>
       <use xlink:href="#DejaVuSans-33" x="159.033203"/>
      </g>
     </g>
    </g>
   </g>
   <g id="line2d_29">
    <path d="M 144 442.734068 
L 173.769923 440.149117 
L 203.539847 440.35937 
L 233.30977 439.724115 
L 263.079693 438.952016 
L 292.849617 438.058468 
L 352.389463 435.674527 
L 411.92931 432.936656 
L 471.469156 429.944951 
L 560.778926 425.049362 
L 620.318773 421.630866 
L 709.628543 416.081996 
L 798.938313 410.539545 
L 828.708236 408.483942 
L 888.248083 404.651867 
L 918.018006 402.682833 
L 977.557853 398.591359 
L 1066.867623 392.469168 
L 1096.637546 390.559243 
L 1126.407469 388.475336 
L 1153 386.812365 
L 1153 386.812365 
" clip-path="url(#peadcab8d54)" style="fill: none; stroke: #1f77b4; stroke-width: 1.5; stroke-linecap: square"/>
   </g>
   <g id="patch_10">
    <path d="M 144 576.72 
L 144 349.92 
" style="fill: none; stroke: #000000; stroke-width: 0.8; stroke-linejoin: miter; stroke-linecap: square"/>
   </g>
   <g id="patch_11">
    <path d="M 1036.8 576.72 
L 1036.8 349.92 
" style="fill: none; stroke: #000000; stroke-width: 0.8; stroke-linejoin: miter; stroke-linecap: square"/>
   </g>
   <g id="patch_12">
    <path d="M 144 576.72 
L 1036.8 576.72 
" style="fill: none; stroke: #000000; stroke-width: 0.8; stroke-linejoin: miter; stroke-linecap: square"/>
   </g>
   <g id="patch_13">
    <path d="M 144 349.92 
L 1036.8 349.92 
" style="fill: none; stroke: #000000; stroke-width: 0.8; stroke-linejoin: miter; stroke-linecap: square"/>
   </g>
   <g id="legend_2">
    <g id="patch_14">
     <path d="M 920.578125 372.598125 
L 1029.8 372.598125 
Q 1031.8 372.598125 1031.8 370.598125 
L 1031.8 356.92 
Q 1031.8 354.92 1029.8 354.92 
L 920.578125 354.92 
Q 918.578125 354.92 918.578125 356.92 
L 918.578125 370.598125 
Q 918.578125 372.598125 920.578125 372.598125 
z
" style="fill: #ffffff; opacity: 0.8; stroke: #cccccc; stroke-linejoin: miter"/>
    </g>
    <g id="line2d_30">
     <path d="M 922.578125 363.018437 
L 932.578125 363.018437 
L 942.578125 363.018437 
" style="fill: none; stroke: #1f77b4; stroke-width: 1.5; stroke-linecap: square"/>
    </g>
    <g id="text_28">
     <!-- Prediction Error -->
     <g transform="translate(950.578125 366.518437) scale(0.1 -0.1)">
      <defs>
       <path id="DejaVuSans-45" d="M 628 4666 
L 3578 4666 
L 3578 4134 
L 1259 4134 
L 1259 2753 
L 3481 2753 
L 3481 2222 
L 1259 2222 
L 1259 531 
L 3634 531 
L 3634 0 
L 628 0 
L 628 4666 
z
" transform="scale(0.015625)"/>
      </defs>
      <use xlink:href="#DejaVuSans-50"/>
      <use xlink:href="#DejaVuSans-72" x="58.552734"/>
      <use xlink:href="#DejaVuSans-65" x="97.416016"/>
      <use xlink:href="#DejaVuSans-64" x="158.939453"/>
      <use xlink:href="#DejaVuSans-69" x="222.416016"/>
      <use xlink:href="#DejaVuSans-63" x="250.199219"/>
      <use xlink:href="#DejaVuSans-74" x="305.179688"/>
      <use xlink:href="#DejaVuSans-69" x="344.388672"/>
      <use xlink:href="#DejaVuSans-6f" x="372.171875"/>
      <use xlink:href="#DejaVuSans-6e" x="433.353516"/>
      <use xlink:href="#DejaVuSans-20" x="496.732422"/>
      <use xlink:href="#DejaVuSans-45" x="528.519531"/>
      <use xlink:href="#DejaVuSans-72" x="591.703125"/>
      <use xlink:href="#DejaVuSans-72" x="631.066406"/>
      <use xlink:href="#DejaVuSans-6f" x="669.929688"/>
      <use xlink:href="#DejaVuSans-72" x="731.111328"/>
     </g>
    </g>
   </g>
  </g>
  <g id="text_29">
   <!-- $x$-Position Prediction -->
   <g transform="translate(514.74 22.078125) scale(0.12 -0.12)">
    <defs>
     <path id="DejaVuSans-2d" d="M 313 2009 
L 1997 2009 
L 1997 1497 
L 313 1497 
L 313 2009 
z
" transform="scale(0.015625)"/>
    </defs>
    <use xlink:href="#DejaVuSans-Oblique-78" transform="translate(0 0.015625)"/>
    <use xlink:href="#DejaVuSans-2d" transform="translate(59.179688 0.015625)"/>
    <use xlink:href="#DejaVuSans-50" transform="translate(95.263672 0.015625)"/>
    <use xlink:href="#DejaVuSans-6f" transform="translate(155.566406 0.015625)"/>
    <use xlink:href="#DejaVuSans-73" transform="translate(216.748047 0.015625)"/>
    <use xlink:href="#DejaVuSans-69" transform="translate(268.847656 0.015625)"/>
    <use xlink:href="#DejaVuSans-74" transform="translate(296.630859 0.015625)"/>
    <use xlink:href="#DejaVuSans-69" transform="translate(335.839844 0.015625)"/>
    <use xlink:href="#DejaVuSans-6f" transform="translate(363.623047 0.015625)"/>
    <use xlink:href="#DejaVuSans-6e" transform="translate(424.804688 0.015625)"/>
    <use xlink:href="#DejaVuSans-20" transform="translate(488.183594 0.015625)"/>
    <use xlink:href="#DejaVuSans-50" transform="translate(519.970703 0.015625)"/>
    <use xlink:href="#DejaVuSans-72" transform="translate(580.273438 0.015625)"/>
    <use xlink:href="#DejaVuSans-65" transform="translate(621.386719 0.015625)"/>
    <use xlink:href="#DejaVuSans-64" transform="translate(682.910156 0.015625)"/>
    <use xlink:href="#DejaVuSans-69" transform="translate(746.386719 0.015625)"/>
    <use xlink:href="#DejaVuSans-63" transform="translate(774.169922 0.015625)"/>
    <use xlink:href="#DejaVuSans-74" transform="translate(829.150391 0.015625)"/>
    <use xlink:href="#DejaVuSans-69" transform="translate(868.359375 0.015625)"/>
    <use xlink:href="#DejaVuSans-6f" transform="translate(896.142578 0.015625)"/>
    <use xlink:href="#DejaVuSans-6e" transform="translate(957.324219 0.015625)"/>
   </g>
  </g>
 </g>
 <defs>
  <clipPath id="pd811908c41">
   <rect x="144" y="77.76" width="892.8" height="226.8"/>
  </clipPath>
  <clipPath id="peadcab8d54">
   <rect x="144" y="349.92" width="892.8" height="226.8"/>
  </clipPath>
 </defs>
</svg>
