<?xml version="1.0" encoding="utf-8" standalone="no"?>
<!DOCTYPE svg PUBLIC "-//W3C//DTD SVG 1.1//EN"
  "http://www.w3.org/Graphics/SVG/1.1/DTD/svg11.dtd">
<svg xmlns:xlink="http://www.w3.org/1999/xlink" width="1152pt" height="648pt" viewBox="0 0 1152 648" xmlns="http://www.w3.org/2000/svg" version="1.1">
 <metadata>
  <rdf:RDF xmlns:dc="http://purl.org/dc/elements/1.1/" xmlns:cc="http://creativecommons.org/ns#" xmlns:rdf="http://www.w3.org/1999/02/22-rdf-syntax-ns#">
   <cc:Work>
    <dc:type rdf:resource="http://purl.org/dc/dcmitype/StillImage"/>
    <dc:date>2024-06-20T12:49:02.549093</dc:date>
    <dc:format>image/svg+xml</dc:format>
    <dc:creator>
     <cc:Agent>
      <dc:title>Matplotlib v3.9.0, https://matplotlib.org/</dc:title>
     </cc:Agent>
    </dc:creator>
   </cc:Work>
  </rdf:RDF>
 </metadata>
 <defs>
  <style type="text/css">*{stroke-linejoin: round; stroke-linecap: butt}</style>
 </defs>
 <g id="figure_1">
  <g id="patch_1">
   <path d="M 0 648 
L 1152 648 
L 1152 0 
L 0 0 
z
" style="fill: #ffffff"/>
  </g>
  <g id="axes_1">
   <g id="patch_2">
    <path d="M 144 304.56 
L 1036.8 304.56 
L 1036.8 77.76 
L 144 77.76 
z
" style="fill: #ffffff"/>
   </g>
   <g id="PolyCollection_1">
    <defs>
     <path id="maf79cf27ca" d="M 292.849617 -543.913367 
L 292.849617 -537.939432 
L 295.826609 -538.674394 
L 298.803601 -539.475791 
L 301.780594 -540.281338 
L 304.757586 -541.088237 
L 307.734578 -541.882714 
L 310.711571 -542.669197 
L 313.688563 -543.444337 
L 316.665555 -544.201284 
L 319.642548 -544.937063 
L 322.61954 -545.660982 
L 325.596532 -546.36205 
L 328.573525 -547.039141 
L 331.550517 -547.689794 
L 334.527509 -548.312919 
L 337.504502 -548.909171 
L 340.481494 -549.474314 
L 343.458486 -550.008339 
L 346.435478 -550.508287 
L 349.412471 -550.97488 
L 352.389463 -551.402326 
L 355.366455 -551.789287 
L 358.343448 -552.135959 
L 361.32044 -552.431711 
L 364.297432 -552.681969 
L 367.274425 -552.882825 
L 370.251417 -553.029503 
L 373.228409 -553.121948 
L 376.205402 -553.155033 
L 379.182394 -553.13168 
L 382.159386 -553.040775 
L 385.136379 -552.888825 
L 388.113371 -552.667879 
L 391.090363 -552.379821 
L 394.067356 -552.015943 
L 397.044348 -551.579163 
L 400.02134 -551.06491 
L 402.998333 -550.470192 
L 405.975325 -549.792321 
L 408.952317 -549.034102 
L 411.92931 -548.188475 
L 414.906302 -547.256732 
L 417.883294 -546.236734 
L 420.860287 -545.12563 
L 423.837279 -543.923242 
L 426.814271 -542.625042 
L 429.791264 -541.2333 
L 432.768256 -539.744143 
L 435.745248 -538.154536 
L 438.722241 -536.467216 
L 441.699233 -534.679536 
L 444.676225 -532.801172 
L 447.653218 -530.852072 
L 450.63021 -528.827177 
L 453.607202 -526.73011 
L 456.584195 -524.563026 
L 459.561187 -522.325339 
L 462.538179 -520.022659 
L 465.515172 -517.655079 
L 468.492164 -515.222078 
L 471.469156 -512.727798 
L 474.446149 -510.177049 
L 477.423141 -507.569189 
L 480.400133 -504.902615 
L 483.377126 -502.188672 
L 486.354118 -499.423272 
L 489.33111 -496.611568 
L 492.308103 -493.758831 
L 495.285095 -490.864932 
L 498.262087 -487.935164 
L 501.23908 -484.970941 
L 504.216072 -481.976815 
L 507.193064 -478.952855 
L 510.170057 -475.90118 
L 513.147049 -472.828189 
L 516.124041 -469.734148 
L 519.101034 -466.629567 
L 522.078026 -463.511422 
L 525.055018 -460.380994 
L 528.032011 -457.245812 
L 531.009003 -454.107407 
L 533.985995 -450.968318 
L 536.962988 -447.830573 
L 539.93998 -444.696629 
L 542.916972 -441.573415 
L 545.893965 -438.46078 
L 548.870957 -435.364193 
L 551.847949 -432.287363 
L 554.824942 -429.233331 
L 557.801934 -426.201035 
L 560.778926 -423.195858 
L 563.755919 -420.217855 
L 566.732911 -417.281887 
L 569.709903 -414.381615 
L 572.686896 -411.513081 
L 575.663888 -408.688993 
L 578.64088 -405.906224 
L 581.617873 -403.178819 
L 584.594865 -400.496552 
L 587.571857 -397.872486 
L 590.54885 -395.302319 
L 593.525842 -392.782116 
L 596.502834 -390.320585 
L 599.479827 -387.92758 
L 602.456819 -385.603863 
L 605.433811 -383.338231 
L 608.410804 -381.149064 
L 611.387796 -379.02607 
L 614.364788 -376.97917 
L 617.341781 -375.008573 
L 620.318773 -373.112859 
L 623.295765 -371.29863 
L 626.272758 -369.569385 
L 629.24975 -367.9138 
L 632.226742 -366.349545 
L 635.203735 -364.862197 
L 638.180727 -363.465132 
L 641.157719 -362.162901 
L 644.134712 -360.952433 
L 647.111704 -359.832965 
L 650.088696 -358.802682 
L 653.065689 -357.864799 
L 656.042681 -357.02145 
L 659.019673 -356.282373 
L 661.996666 -355.621753 
L 664.973658 -355.060963 
L 667.95065 -354.612166 
L 670.927643 -354.250036 
L 673.904635 -353.984879 
L 676.881627 -353.817535 
L 679.85862 -353.749091 
L 682.835612 -353.790583 
L 685.812604 -353.915898 
L 688.789597 -354.146049 
L 691.766589 -354.463802 
L 694.743581 -354.879852 
L 697.720574 -355.389939 
L 700.697566 -356.019148 
L 703.674558 -356.72256 
L 706.651551 -357.515316 
L 709.628543 -358.421635 
L 712.605535 -359.407806 
L 715.582528 -360.480461 
L 718.55952 -361.655115 
L 721.536512 -362.911563 
L 724.513505 -364.265567 
L 727.490497 -365.705241 
L 730.467489 -367.243689 
L 733.444481 -368.853913 
L 736.421474 -370.538359 
L 739.398466 -372.316378 
L 742.375458 -374.163836 
L 745.352451 -376.064352 
L 748.329443 -378.01024 
L 751.306435 -380.026908 
L 754.283428 -382.072243 
L 757.26042 -384.159863 
L 760.237412 -386.279574 
L 763.214405 -388.44211 
L 766.191397 -390.623269 
L 769.168389 -392.835261 
L 772.145382 -395.069101 
L 775.122374 -397.321281 
L 778.099366 -399.594171 
L 781.076359 -401.879242 
L 784.053351 -404.180381 
L 787.030343 -406.473712 
L 790.007336 -408.776263 
L 792.984328 -411.082564 
L 795.96132 -413.394839 
L 798.938313 -415.691157 
L 801.915305 -417.994651 
L 804.892297 -420.282006 
L 807.86929 -422.554226 
L 810.846282 -424.819683 
L 813.823274 -427.068265 
L 816.800267 -429.299209 
L 819.777259 -431.515642 
L 822.754251 -433.713299 
L 825.731244 -435.887988 
L 828.708236 -438.038649 
L 831.685228 -440.169508 
L 834.662221 -442.267377 
L 837.639213 -444.346578 
L 840.616205 -446.401825 
L 843.593198 -448.420573 
L 846.57019 -450.410564 
L 849.547182 -452.376064 
L 852.524175 -454.31529 
L 855.501167 -456.219165 
L 858.478159 -458.090713 
L 861.455152 -459.927286 
L 864.432144 -461.732385 
L 867.409136 -463.498263 
L 870.386129 -465.236322 
L 873.363121 -466.936606 
L 876.340113 -468.604174 
L 879.317106 -470.236876 
L 882.294098 -471.838447 
L 885.27109 -473.400818 
L 888.248083 -474.92686 
L 891.225075 -476.420187 
L 894.202067 -477.881211 
L 897.17906 -479.304344 
L 900.156052 -480.690594 
L 903.133044 -482.039446 
L 906.110037 -483.352571 
L 909.087029 -484.635725 
L 912.064021 -485.879716 
L 915.041014 -487.092083 
L 918.018006 -488.266083 
L 920.994998 -489.408314 
L 923.971991 -490.515358 
L 926.948983 -491.592364 
L 929.925975 -492.635712 
L 932.902968 -493.648658 
L 935.87996 -494.624366 
L 938.856952 -495.567045 
L 941.833945 -496.481022 
L 944.810937 -497.3597 
L 947.787929 -498.208845 
L 950.764922 -499.028466 
L 953.741914 -499.811752 
L 956.718906 -500.563815 
L 959.695899 -501.289043 
L 962.672891 -501.98844 
L 965.649883 -502.657891 
L 968.626876 -503.291845 
L 971.603868 -503.902224 
L 974.58086 -504.482723 
L 977.557853 -505.031377 
L 980.534845 -505.548349 
L 983.511837 -506.044377 
L 986.48883 -506.51387 
L 989.465822 -506.951359 
L 992.442814 -507.363593 
L 995.419807 -507.74826 
L 998.396799 -508.107028 
L 1001.373791 -508.433038 
L 1004.350784 -508.734114 
L 1007.327776 -509.017533 
L 1010.304768 -509.267866 
L 1013.281761 -509.490878 
L 1016.258753 -509.688984 
L 1019.235745 -509.857455 
L 1022.212738 -510.001778 
L 1025.18973 -510.122968 
L 1028.166722 -510.217592 
L 1031.143715 -510.287588 
L 1034.120707 -510.33171 
L 1034.120707 -514.162267 
L 1034.120707 -514.162267 
L 1031.143715 -514.185715 
L 1028.166722 -514.182483 
L 1025.18973 -514.153954 
L 1022.212738 -514.09832 
L 1019.235745 -514.018808 
L 1016.258753 -513.915214 
L 1013.281761 -513.781773 
L 1010.304768 -513.623438 
L 1007.327776 -513.437988 
L 1004.350784 -513.218351 
L 1001.373791 -512.979704 
L 998.396799 -512.716314 
L 995.419807 -512.420018 
L 992.442814 -512.097368 
L 989.465822 -511.746348 
L 986.48883 -511.369552 
L 983.511837 -510.959942 
L 980.534845 -510.522031 
L 977.557853 -510.062234 
L 974.58086 -509.570949 
L 971.603868 -509.047143 
L 968.626876 -508.49212 
L 965.649883 -507.913138 
L 962.672891 -507.298004 
L 959.695899 -506.651311 
L 956.718906 -505.977139 
L 953.741914 -505.275 
L 950.764922 -504.541407 
L 947.787929 -503.770918 
L 944.810937 -502.96977 
L 941.833945 -502.138312 
L 938.856952 -501.270725 
L 935.87996 -500.373398 
L 932.902968 -499.442947 
L 929.925975 -498.474669 
L 926.948983 -497.474737 
L 923.971991 -496.439918 
L 920.994998 -495.373616 
L 918.018006 -494.271463 
L 915.041014 -493.136825 
L 912.064021 -491.963204 
L 909.087029 -490.756875 
L 906.110037 -489.510059 
L 903.133044 -488.232503 
L 900.156052 -486.918818 
L 897.17906 -485.567425 
L 894.202067 -484.178635 
L 891.225075 -482.751144 
L 888.248083 -481.290257 
L 885.27109 -479.795796 
L 882.294098 -478.264251 
L 879.317106 -476.692511 
L 876.340113 -475.088851 
L 873.363121 -473.449368 
L 870.386129 -471.775908 
L 867.409136 -470.063695 
L 864.432144 -468.32307 
L 861.455152 -466.542643 
L 858.478159 -464.730179 
L 855.501167 -462.882272 
L 852.524175 -461.001316 
L 849.547182 -459.083776 
L 846.57019 -457.138794 
L 843.593198 -455.168659 
L 840.616205 -453.168803 
L 837.639213 -451.130896 
L 834.662221 -449.068685 
L 831.685228 -446.987202 
L 828.708236 -444.87165 
L 825.731244 -442.735639 
L 822.754251 -440.57485 
L 819.777259 -438.389868 
L 816.800267 -436.185848 
L 813.823274 -433.967031 
L 810.846282 -431.729498 
L 807.86929 -429.474885 
L 804.892297 -427.213543 
L 801.915305 -424.934727 
L 798.938313 -422.639906 
L 795.96132 -420.351965 
L 792.984328 -418.046275 
L 790.007336 -415.747826 
L 787.030343 -413.455101 
L 784.053351 -411.169581 
L 781.076359 -408.874809 
L 778.099366 -406.596728 
L 775.122374 -404.331599 
L 772.145382 -402.089285 
L 769.168389 -399.864639 
L 766.191397 -397.664806 
L 763.214405 -395.494439 
L 760.237412 -393.343453 
L 757.26042 -391.235042 
L 754.283428 -389.155989 
L 751.306435 -387.11562 
L 748.329443 -385.103553 
L 745.352451 -383.16279 
L 742.375458 -381.262329 
L 739.398466 -379.416343 
L 736.421474 -377.646731 
L 733.444481 -375.971325 
L 730.467489 -374.368128 
L 727.490497 -372.841197 
L 724.513505 -371.418421 
L 721.536512 -370.083439 
L 718.55952 -368.8496 
L 715.582528 -367.701997 
L 712.605535 -366.657784 
L 709.628543 -365.696392 
L 706.651551 -364.81868 
L 703.674558 -364.056573 
L 700.697566 -363.381095 
L 697.720574 -362.782487 
L 694.743581 -362.307574 
L 691.766589 -361.926357 
L 688.789597 -361.640174 
L 685.812604 -361.44106 
L 682.835612 -361.346332 
L 679.85862 -361.335797 
L 676.881627 -361.437062 
L 673.904635 -361.636069 
L 670.927643 -361.931173 
L 667.95065 -362.321145 
L 664.973658 -362.798396 
L 661.996666 -363.388102 
L 659.019673 -364.07558 
L 656.042681 -364.840797 
L 653.065689 -365.70993 
L 650.088696 -366.67194 
L 647.111704 -367.724349 
L 644.134712 -368.86464 
L 641.157719 -370.095254 
L 638.180727 -371.417178 
L 635.203735 -372.833072 
L 632.226742 -374.337865 
L 629.24975 -375.918238 
L 626.272758 -377.588594 
L 623.295765 -379.331178 
L 620.318773 -381.157362 
L 617.341781 -383.063513 
L 614.364788 -385.042907 
L 611.387796 -387.096733 
L 608.410804 -389.224868 
L 605.433811 -391.417678 
L 602.456819 -393.685622 
L 599.479827 -396.010748 
L 596.502834 -398.403755 
L 593.525842 -400.863275 
L 590.54885 -403.37962 
L 587.571857 -405.94477 
L 584.594865 -408.562341 
L 581.617873 -411.236982 
L 578.64088 -413.955389 
L 575.663888 -416.72752 
L 572.686896 -419.539268 
L 569.709903 -422.393905 
L 566.732911 -425.279539 
L 563.755919 -428.199479 
L 560.778926 -431.159734 
L 557.801934 -434.146051 
L 554.824942 -437.158411 
L 551.847949 -440.191482 
L 548.870957 -443.246248 
L 545.893965 -446.319498 
L 542.916972 -449.407901 
L 539.93998 -452.505976 
L 536.962988 -455.613845 
L 533.985995 -458.724917 
L 531.009003 -461.836887 
L 528.032011 -464.947748 
L 525.055018 -468.054653 
L 522.078026 -471.156601 
L 519.101034 -474.246389 
L 516.124041 -477.322099 
L 513.147049 -480.386715 
L 510.170057 -483.430144 
L 507.193064 -486.452272 
L 504.216072 -489.447472 
L 501.23908 -492.413021 
L 498.262087 -495.348798 
L 495.285095 -498.250423 
L 492.308103 -501.116798 
L 489.33111 -503.942564 
L 486.354118 -506.72783 
L 483.377126 -509.46838 
L 480.400133 -512.158461 
L 477.423141 -514.802634 
L 474.446149 -517.390325 
L 471.469156 -519.921937 
L 468.492164 -522.3982 
L 465.515172 -524.814739 
L 462.538179 -527.16724 
L 459.561187 -529.454841 
L 456.584195 -531.677392 
L 453.607202 -533.828961 
L 450.63021 -535.908889 
L 447.653218 -537.9148 
L 444.676225 -539.841867 
L 441.699233 -541.697265 
L 438.722241 -543.465081 
L 435.745248 -545.134255 
L 432.768256 -546.70808 
L 429.791264 -548.183316 
L 426.814271 -549.562561 
L 423.837279 -550.849235 
L 420.860287 -552.041307 
L 417.883294 -553.142785 
L 414.906302 -554.153583 
L 411.92931 -555.076386 
L 408.952317 -555.913579 
L 405.975325 -556.663354 
L 402.998333 -557.332701 
L 400.02134 -557.9193 
L 397.044348 -558.425927 
L 394.067356 -558.854669 
L 391.090363 -559.210284 
L 388.113371 -559.489749 
L 385.136379 -559.701208 
L 382.159386 -559.842312 
L 379.182394 -559.920826 
L 376.205402 -559.930909 
L 373.228409 -559.881555 
L 370.251417 -559.770617 
L 367.274425 -559.603331 
L 364.297432 -559.378939 
L 361.32044 -559.101641 
L 358.343448 -558.775856 
L 355.366455 -558.396215 
L 352.389463 -557.971254 
L 349.412471 -557.501766 
L 346.435478 -556.988816 
L 343.458486 -556.438228 
L 340.481494 -555.850058 
L 337.504502 -555.227617 
L 334.527509 -554.571623 
L 331.550517 -553.887749 
L 328.573525 -553.176527 
L 325.596532 -552.440506 
L 322.61954 -551.682808 
L 319.642548 -550.905042 
L 316.665555 -550.121031 
L 313.688563 -549.324577 
L 310.711571 -548.519866 
L 307.734578 -547.715993 
L 304.757586 -546.9203 
L 301.780594 -546.13211 
L 298.803601 -545.368 
L 295.826609 -544.628879 
L 292.849617 -543.913367 
z
" style="stroke: #00ffff; stroke-opacity: 0.5"/>
    </defs>
    <g clip-path="url(#p030ba6ca5f)">
     <use xlink:href="#maf79cf27ca" x="0" y="648" style="fill: #00ffff; fill-opacity: 0.5; stroke: #00ffff; stroke-opacity: 0.5"/>
    </g>
   </g>
   <g id="matplotlib.axis_1">
    <g id="xtick_1">
     <g id="line2d_1">
      <defs>
       <path id="m49c3bd9040" d="M 0 0 
L 0 3.5 
" style="stroke: #000000; stroke-width: 0.8"/>
      </defs>
      <g>
       <use xlink:href="#m49c3bd9040" x="144" y="304.56" style="stroke: #000000; stroke-width: 0.8"/>
      </g>
     </g>
     <g id="text_1">
      <!-- 0 -->
      <g transform="translate(140.81875 319.158437) scale(0.1 -0.1)">
       <defs>
        <path id="DejaVuSans-30" d="M 2034 4250 
Q 1547 4250 1301 3770 
Q 1056 3291 1056 2328 
Q 1056 1369 1301 889 
Q 1547 409 2034 409 
Q 2525 409 2770 889 
Q 3016 1369 3016 2328 
Q 3016 3291 2770 3770 
Q 2525 4250 2034 4250 
z
M 2034 4750 
Q 2819 4750 3233 4129 
Q 3647 3509 3647 2328 
Q 3647 1150 3233 529 
Q 2819 -91 2034 -91 
Q 1250 -91 836 529 
Q 422 1150 422 2328 
Q 422 3509 836 4129 
Q 1250 4750 2034 4750 
z
" transform="scale(0.015625)"/>
       </defs>
       <use xlink:href="#DejaVuSans-30"/>
      </g>
     </g>
    </g>
    <g id="xtick_2">
     <g id="line2d_2">
      <g>
       <use xlink:href="#m49c3bd9040" x="292.849617" y="304.56" style="stroke: #000000; stroke-width: 0.8"/>
      </g>
     </g>
     <g id="text_2">
      <!-- 5 -->
      <g transform="translate(289.668367 319.158437) scale(0.1 -0.1)">
       <defs>
        <path id="DejaVuSans-35" d="M 691 4666 
L 3169 4666 
L 3169 4134 
L 1269 4134 
L 1269 2991 
Q 1406 3038 1543 3061 
Q 1681 3084 1819 3084 
Q 2600 3084 3056 2656 
Q 3513 2228 3513 1497 
Q 3513 744 3044 326 
Q 2575 -91 1722 -91 
Q 1428 -91 1123 -41 
Q 819 9 494 109 
L 494 744 
Q 775 591 1075 516 
Q 1375 441 1709 441 
Q 2250 441 2565 725 
Q 2881 1009 2881 1497 
Q 2881 1984 2565 2268 
Q 2250 2553 1709 2553 
Q 1456 2553 1204 2497 
Q 953 2441 691 2322 
L 691 4666 
z
" transform="scale(0.015625)"/>
       </defs>
       <use xlink:href="#DejaVuSans-35"/>
      </g>
     </g>
    </g>
    <g id="xtick_3">
     <g id="line2d_3">
      <g>
       <use xlink:href="#m49c3bd9040" x="441.699233" y="304.56" style="stroke: #000000; stroke-width: 0.8"/>
      </g>
     </g>
     <g id="text_3">
      <!-- 10 -->
      <g transform="translate(435.336733 319.158437) scale(0.1 -0.1)">
       <defs>
        <path id="DejaVuSans-31" d="M 794 531 
L 1825 531 
L 1825 4091 
L 703 3866 
L 703 4441 
L 1819 4666 
L 2450 4666 
L 2450 531 
L 3481 531 
L 3481 0 
L 794 0 
L 794 531 
z
" transform="scale(0.015625)"/>
       </defs>
       <use xlink:href="#DejaVuSans-31"/>
       <use xlink:href="#DejaVuSans-30" x="63.623047"/>
      </g>
     </g>
    </g>
    <g id="xtick_4">
     <g id="line2d_4">
      <g>
       <use xlink:href="#m49c3bd9040" x="590.54885" y="304.56" style="stroke: #000000; stroke-width: 0.8"/>
      </g>
     </g>
     <g id="text_4">
      <!-- 15 -->
      <g transform="translate(584.18635 319.158437) scale(0.1 -0.1)">
       <use xlink:href="#DejaVuSans-31"/>
       <use xlink:href="#DejaVuSans-35" x="63.623047"/>
      </g>
     </g>
    </g>
    <g id="xtick_5">
     <g id="line2d_5">
      <g>
       <use xlink:href="#m49c3bd9040" x="739.398466" y="304.56" style="stroke: #000000; stroke-width: 0.8"/>
      </g>
     </g>
     <g id="text_5">
      <!-- 20 -->
      <g transform="translate(733.035966 319.158437) scale(0.1 -0.1)">
       <defs>
        <path id="DejaVuSans-32" d="M 1228 531 
L 3431 531 
L 3431 0 
L 469 0 
L 469 531 
Q 828 903 1448 1529 
Q 2069 2156 2228 2338 
Q 2531 2678 2651 2914 
Q 2772 3150 2772 3378 
Q 2772 3750 2511 3984 
Q 2250 4219 1831 4219 
Q 1534 4219 1204 4116 
Q 875 4013 500 3803 
L 500 4441 
Q 881 4594 1212 4672 
Q 1544 4750 1819 4750 
Q 2544 4750 2975 4387 
Q 3406 4025 3406 3419 
Q 3406 3131 3298 2873 
Q 3191 2616 2906 2266 
Q 2828 2175 2409 1742 
Q 1991 1309 1228 531 
z
" transform="scale(0.015625)"/>
       </defs>
       <use xlink:href="#DejaVuSans-32"/>
       <use xlink:href="#DejaVuSans-30" x="63.623047"/>
      </g>
     </g>
    </g>
    <g id="xtick_6">
     <g id="line2d_6">
      <g>
       <use xlink:href="#m49c3bd9040" x="888.248083" y="304.56" style="stroke: #000000; stroke-width: 0.8"/>
      </g>
     </g>
     <g id="text_6">
      <!-- 25 -->
      <g transform="translate(881.885583 319.158437) scale(0.1 -0.1)">
       <use xlink:href="#DejaVuSans-32"/>
       <use xlink:href="#DejaVuSans-35" x="63.623047"/>
      </g>
     </g>
    </g>
   </g>
   <g id="matplotlib.axis_2">
    <g id="ytick_1">
     <g id="line2d_7">
      <defs>
       <path id="m0499d9e67b" d="M 0 0 
L -3.5 0 
" style="stroke: #000000; stroke-width: 0.8"/>
      </defs>
      <g>
       <use xlink:href="#m0499d9e67b" x="144" y="268.611027" style="stroke: #000000; stroke-width: 0.8"/>
      </g>
     </g>
     <g id="text_7">
      <!-- 1.0 -->
      <g transform="translate(121.096875 272.410245) scale(0.1 -0.1)">
       <defs>
        <path id="DejaVuSans-2e" d="M 684 794 
L 1344 794 
L 1344 0 
L 684 0 
L 684 794 
z
" transform="scale(0.015625)"/>
       </defs>
       <use xlink:href="#DejaVuSans-31"/>
       <use xlink:href="#DejaVuSans-2e" x="63.623047"/>
       <use xlink:href="#DejaVuSans-30" x="95.410156"/>
      </g>
     </g>
    </g>
    <g id="ytick_2">
     <g id="line2d_8">
      <g>
       <use xlink:href="#m0499d9e67b" x="144" y="229.69309" style="stroke: #000000; stroke-width: 0.8"/>
      </g>
     </g>
     <g id="text_8">
      <!-- 1.5 -->
      <g transform="translate(121.096875 233.492308) scale(0.1 -0.1)">
       <use xlink:href="#DejaVuSans-31"/>
       <use xlink:href="#DejaVuSans-2e" x="63.623047"/>
       <use xlink:href="#DejaVuSans-35" x="95.410156"/>
      </g>
     </g>
    </g>
    <g id="ytick_3">
     <g id="line2d_9">
      <g>
       <use xlink:href="#m0499d9e67b" x="144" y="190.775152" style="stroke: #000000; stroke-width: 0.8"/>
      </g>
     </g>
     <g id="text_9">
      <!-- 2.0 -->
      <g transform="translate(121.096875 194.574371) scale(0.1 -0.1)">
       <use xlink:href="#DejaVuSans-32"/>
       <use xlink:href="#DejaVuSans-2e" x="63.623047"/>
       <use xlink:href="#DejaVuSans-30" x="95.410156"/>
      </g>
     </g>
    </g>
    <g id="ytick_4">
     <g id="line2d_10">
      <g>
       <use xlink:href="#m0499d9e67b" x="144" y="151.857215" style="stroke: #000000; stroke-width: 0.8"/>
      </g>
     </g>
     <g id="text_10">
      <!-- 2.5 -->
      <g transform="translate(121.096875 155.656434) scale(0.1 -0.1)">
       <use xlink:href="#DejaVuSans-32"/>
       <use xlink:href="#DejaVuSans-2e" x="63.623047"/>
       <use xlink:href="#DejaVuSans-35" x="95.410156"/>
      </g>
     </g>
    </g>
    <g id="ytick_5">
     <g id="line2d_11">
      <g>
       <use xlink:href="#m0499d9e67b" x="144" y="112.939278" style="stroke: #000000; stroke-width: 0.8"/>
      </g>
     </g>
     <g id="text_11">
      <!-- 3.0 -->
      <g transform="translate(121.096875 116.738497) scale(0.1 -0.1)">
       <defs>
        <path id="DejaVuSans-33" d="M 2597 2516 
Q 3050 2419 3304 2112 
Q 3559 1806 3559 1356 
Q 3559 666 3084 287 
Q 2609 -91 1734 -91 
Q 1441 -91 1130 -33 
Q 819 25 488 141 
L 488 750 
Q 750 597 1062 519 
Q 1375 441 1716 441 
Q 2309 441 2620 675 
Q 2931 909 2931 1356 
Q 2931 1769 2642 2001 
Q 2353 2234 1838 2234 
L 1294 2234 
L 1294 2753 
L 1863 2753 
Q 2328 2753 2575 2939 
Q 2822 3125 2822 3475 
Q 2822 3834 2567 4026 
Q 2313 4219 1838 4219 
Q 1578 4219 1281 4162 
Q 984 4106 628 3988 
L 628 4550 
Q 988 4650 1302 4700 
Q 1616 4750 1894 4750 
Q 2613 4750 3031 4423 
Q 3450 4097 3450 3541 
Q 3450 3153 3228 2886 
Q 3006 2619 2597 2516 
z
" transform="scale(0.015625)"/>
       </defs>
       <use xlink:href="#DejaVuSans-33"/>
       <use xlink:href="#DejaVuSans-2e" x="63.623047"/>
       <use xlink:href="#DejaVuSans-30" x="95.410156"/>
      </g>
     </g>
    </g>
   </g>
   <g id="line2d_12">
    <path d="M 144 135.736878 
L 146.976992 135.629217 
L 154.121774 135.233867 
L 167.518239 134.407853 
L 177.044615 133.58799 
L 186.57099 132.53967 
L 196.097366 131.252327 
L 205.326042 129.782099 
L 215.447816 127.924319 
L 225.867289 125.765587 
L 236.882161 123.230395 
L 247.599333 120.550682 
L 260.4004 117.107537 
L 275.88076 112.708724 
L 296.422007 106.845724 
L 302.673691 105.256424 
L 330.35972 98.087175 
L 339.290697 96.095954 
L 347.030877 94.58717 
L 354.473358 93.362324 
L 361.32044 92.464678 
L 367.869823 91.841625 
L 373.823808 91.494755 
L 379.777793 91.37445 
L 385.434078 91.489756 
L 390.792664 91.814712 
L 395.853551 92.330993 
L 400.914438 93.060435 
L 405.975325 94.018297 
L 411.036212 95.209414 
L 415.7994 96.554445 
L 420.562588 98.121252 
L 425.325775 99.91905 
L 430.088963 101.954399 
L 434.852151 104.232234 
L 439.615338 106.760288 
L 444.378526 109.540982 
L 450.034812 113.131304 
L 455.691097 116.993118 
L 461.347382 121.114706 
L 467.599066 125.951611 
L 473.85075 131.071388 
L 480.400133 136.709418 
L 487.842614 143.431788 
L 495.582794 150.73212 
L 504.513771 159.47908 
L 514.040147 169.116166 
L 527.436612 183.008515 
L 557.504235 214.302048 
L 567.626009 224.45322 
L 576.854685 233.366761 
L 584.594865 240.534465 
L 591.441947 246.586695 
L 598.586729 252.610962 
L 604.838413 257.585286 
L 610.494698 261.833454 
L 616.150984 265.828964 
L 621.807269 269.557929 
L 627.165855 272.826547 
L 632.524441 275.842591 
L 637.883028 278.597024 
L 642.646215 280.799227 
L 647.409403 282.766402 
L 652.47029 284.606772 
L 657.233478 286.104832 
L 661.996666 287.35629 
L 666.462154 288.324279 
L 670.927643 289.051242 
L 675.69083 289.603417 
L 680.454018 289.911656 
L 684.919507 289.956215 
L 689.384995 289.789451 
L 694.445882 289.349756 
L 698.91137 288.740216 
L 703.376859 287.883137 
L 708.140047 286.764705 
L 712.605535 285.471396 
L 717.368723 283.89304 
L 721.834211 282.187641 
L 726.597399 280.137904 
L 731.360587 277.84904 
L 737.016872 274.858972 
L 741.78006 272.103371 
L 748.329443 268.018858 
L 754.283428 264.072696 
L 762.023608 258.706884 
L 771.252284 252.009891 
L 782.267156 243.713372 
L 822.456552 213.062028 
L 832.876025 205.502438 
L 842.997799 198.445179 
L 852.524175 192.10169 
L 860.859753 186.800228 
L 869.195332 181.764951 
L 877.233211 177.161234 
L 884.973391 172.964928 
L 893.01127 168.862916 
L 900.453751 165.290484 
L 908.193931 161.82352 
L 915.934111 158.589153 
L 923.376592 155.708993 
L 931.414471 152.830148 
L 938.856952 150.383667 
L 946.894832 147.971862 
L 954.932711 145.795624 
L 963.565989 143.71064 
L 971.306169 142.055919 
L 979.344048 140.549463 
L 988.572724 139.077601 
L 996.908303 137.980867 
L 1005.243881 137.104138 
L 1013.57946 136.427565 
L 1022.212738 135.957745 
L 1030.846015 135.698939 
L 1036.8 135.647613 
L 1036.8 135.647613 
" clip-path="url(#p030ba6ca5f)" style="fill: none; stroke-dasharray: 5.55,2.4; stroke-dashoffset: 0; stroke: #ffa500; stroke-width: 1.5"/>
   </g>
   <g id="line2d_13">
    <path d="M 292.849617 107.073601 
L 301.780594 104.793276 
L 319.642548 100.078948 
L 328.573525 97.892166 
L 337.504502 95.931606 
L 346.435478 94.251449 
L 352.389463 93.31321 
L 358.343448 92.544093 
L 364.297432 91.969546 
L 370.251417 91.59994 
L 376.205402 91.457029 
L 382.159386 91.558457 
L 388.113371 91.921186 
L 394.067356 92.564694 
L 400.02134 93.507895 
L 405.975325 94.772162 
L 411.92931 96.367569 
L 417.883294 98.310241 
L 423.837279 100.613761 
L 429.791264 103.291692 
L 435.745248 106.355604 
L 441.699233 109.8116 
L 447.653218 113.616564 
L 453.607202 117.720465 
L 459.561187 122.10991 
L 465.515172 126.765091 
L 471.469156 131.675133 
L 477.423141 136.814089 
L 486.354118 144.924449 
L 495.285095 153.442322 
L 504.216072 162.287857 
L 516.124041 174.471877 
L 533.985995 193.153383 
L 551.847949 211.760578 
L 563.755919 223.791333 
L 572.686896 232.473826 
L 581.617873 240.792099 
L 587.571857 246.091372 
L 593.525842 251.177305 
L 599.479827 256.030836 
L 605.433811 260.622046 
L 611.387796 264.938599 
L 617.341781 268.963957 
L 623.295765 272.685096 
L 629.24975 276.083981 
L 635.203735 279.152365 
L 641.157719 281.870923 
L 647.111704 284.221343 
L 653.065689 286.212635 
L 659.019673 287.821023 
L 664.973658 289.070321 
L 670.927643 289.909395 
L 676.881627 290.372701 
L 682.835612 290.431542 
L 688.789597 290.106889 
L 694.743581 289.406287 
L 697.720574 288.913787 
L 703.674558 287.610434 
L 709.628543 285.940987 
L 715.582528 283.908771 
L 721.536512 281.502499 
L 727.490497 278.726781 
L 733.444481 275.587381 
L 739.398466 272.133639 
L 745.352451 268.386429 
L 751.306435 264.428736 
L 760.237412 258.188486 
L 769.168389 251.65005 
L 781.076359 242.622975 
L 813.823274 217.482352 
L 825.731244 208.688186 
L 834.662221 202.331969 
L 843.593198 196.205384 
L 852.524175 190.341697 
L 861.455152 184.765035 
L 870.386129 179.493885 
L 879.317106 174.535306 
L 888.248083 169.891441 
L 897.17906 165.564115 
L 906.110037 161.568685 
L 915.041014 157.885546 
L 923.971991 154.522362 
L 932.902968 151.454198 
L 941.833945 148.690333 
L 950.764922 146.215063 
L 959.695899 144.029823 
L 968.626876 142.108017 
L 977.557853 140.453195 
L 986.48883 139.058289 
L 995.419807 137.915861 
L 1004.350784 137.023767 
L 1013.281761 136.363675 
L 1022.212738 135.949951 
L 1031.143715 135.763348 
L 1034.120707 135.753011 
L 1034.120707 135.753011 
" clip-path="url(#p030ba6ca5f)" style="fill: none; stroke: #0000ff; stroke-opacity: 0.5; stroke-width: 1.5; stroke-linecap: square"/>
   </g>
   <g id="patch_3">
    <path d="M 144 304.56 
L 144 77.76 
" style="fill: none; stroke: #000000; stroke-width: 0.8; stroke-linejoin: miter; stroke-linecap: square"/>
   </g>
   <g id="patch_4">
    <path d="M 1036.8 304.56 
L 1036.8 77.76 
" style="fill: none; stroke: #000000; stroke-width: 0.8; stroke-linejoin: miter; stroke-linecap: square"/>
   </g>
   <g id="patch_5">
    <path d="M 144 304.56 
L 1036.8 304.56 
" style="fill: none; stroke: #000000; stroke-width: 0.8; stroke-linejoin: miter; stroke-linecap: square"/>
   </g>
   <g id="patch_6">
    <path d="M 144 77.76 
L 1036.8 77.76 
" style="fill: none; stroke: #000000; stroke-width: 0.8; stroke-linejoin: miter; stroke-linecap: square"/>
   </g>
   <g id="legend_1">
    <g id="patch_7">
     <path d="M 924.2 129.794375 
L 1029.8 129.794375 
Q 1031.8 129.794375 1031.8 127.794375 
L 1031.8 84.76 
Q 1031.8 82.76 1029.8 82.76 
L 924.2 82.76 
Q 922.2 82.76 922.2 84.76 
L 922.2 127.794375 
Q 922.2 129.794375 924.2 129.794375 
z
" style="fill: #ffffff; opacity: 0.8; stroke: #cccccc; stroke-linejoin: miter"/>
    </g>
    <g id="line2d_14">
     <path d="M 926.2 90.858437 
L 936.2 90.858437 
L 946.2 90.858437 
" style="fill: none; stroke-dasharray: 5.55,2.4; stroke-dashoffset: 0; stroke: #ffa500; stroke-width: 1.5"/>
    </g>
    <g id="text_12">
     <!-- Real $x$ Position -->
     <g transform="translate(954.2 94.358437) scale(0.1 -0.1)">
      <defs>
       <path id="DejaVuSans-52" d="M 2841 2188 
Q 3044 2119 3236 1894 
Q 3428 1669 3622 1275 
L 4263 0 
L 3584 0 
L 2988 1197 
Q 2756 1666 2539 1819 
Q 2322 1972 1947 1972 
L 1259 1972 
L 1259 0 
L 628 0 
L 628 4666 
L 2053 4666 
Q 2853 4666 3247 4331 
Q 3641 3997 3641 3322 
Q 3641 2881 3436 2590 
Q 3231 2300 2841 2188 
z
M 1259 4147 
L 1259 2491 
L 2053 2491 
Q 2509 2491 2742 2702 
Q 2975 2913 2975 3322 
Q 2975 3731 2742 3939 
Q 2509 4147 2053 4147 
L 1259 4147 
z
" transform="scale(0.015625)"/>
       <path id="DejaVuSans-65" d="M 3597 1894 
L 3597 1613 
L 953 1613 
Q 991 1019 1311 708 
Q 1631 397 2203 397 
Q 2534 397 2845 478 
Q 3156 559 3463 722 
L 3463 178 
Q 3153 47 2828 -22 
Q 2503 -91 2169 -91 
Q 1331 -91 842 396 
Q 353 884 353 1716 
Q 353 2575 817 3079 
Q 1281 3584 2069 3584 
Q 2775 3584 3186 3129 
Q 3597 2675 3597 1894 
z
M 3022 2063 
Q 3016 2534 2758 2815 
Q 2500 3097 2075 3097 
Q 1594 3097 1305 2825 
Q 1016 2553 972 2059 
L 3022 2063 
z
" transform="scale(0.015625)"/>
       <path id="DejaVuSans-61" d="M 2194 1759 
Q 1497 1759 1228 1600 
Q 959 1441 959 1056 
Q 959 750 1161 570 
Q 1363 391 1709 391 
Q 2188 391 2477 730 
Q 2766 1069 2766 1631 
L 2766 1759 
L 2194 1759 
z
M 3341 1997 
L 3341 0 
L 2766 0 
L 2766 531 
Q 2569 213 2275 61 
Q 1981 -91 1556 -91 
Q 1019 -91 701 211 
Q 384 513 384 1019 
Q 384 1609 779 1909 
Q 1175 2209 1959 2209 
L 2766 2209 
L 2766 2266 
Q 2766 2663 2505 2880 
Q 2244 3097 1772 3097 
Q 1472 3097 1187 3025 
Q 903 2953 641 2809 
L 641 3341 
Q 956 3463 1253 3523 
Q 1550 3584 1831 3584 
Q 2591 3584 2966 3190 
Q 3341 2797 3341 1997 
z
" transform="scale(0.015625)"/>
       <path id="DejaVuSans-6c" d="M 603 4863 
L 1178 4863 
L 1178 0 
L 603 0 
L 603 4863 
z
" transform="scale(0.015625)"/>
       <path id="DejaVuSans-20" transform="scale(0.015625)"/>
       <path id="DejaVuSans-Oblique-78" d="M 3841 3500 
L 2234 1784 
L 3219 0 
L 2559 0 
L 1819 1388 
L 531 0 
L -166 0 
L 1556 1844 
L 641 3500 
L 1300 3500 
L 1972 2234 
L 3144 3500 
L 3841 3500 
z
" transform="scale(0.015625)"/>
       <path id="DejaVuSans-50" d="M 1259 4147 
L 1259 2394 
L 2053 2394 
Q 2494 2394 2734 2622 
Q 2975 2850 2975 3272 
Q 2975 3691 2734 3919 
Q 2494 4147 2053 4147 
L 1259 4147 
z
M 628 4666 
L 2053 4666 
Q 2838 4666 3239 4311 
Q 3641 3956 3641 3272 
Q 3641 2581 3239 2228 
Q 2838 1875 2053 1875 
L 1259 1875 
L 1259 0 
L 628 0 
L 628 4666 
z
" transform="scale(0.015625)"/>
       <path id="DejaVuSans-6f" d="M 1959 3097 
Q 1497 3097 1228 2736 
Q 959 2375 959 1747 
Q 959 1119 1226 758 
Q 1494 397 1959 397 
Q 2419 397 2687 759 
Q 2956 1122 2956 1747 
Q 2956 2369 2687 2733 
Q 2419 3097 1959 3097 
z
M 1959 3584 
Q 2709 3584 3137 3096 
Q 3566 2609 3566 1747 
Q 3566 888 3137 398 
Q 2709 -91 1959 -91 
Q 1206 -91 779 398 
Q 353 888 353 1747 
Q 353 2609 779 3096 
Q 1206 3584 1959 3584 
z
" transform="scale(0.015625)"/>
       <path id="DejaVuSans-73" d="M 2834 3397 
L 2834 2853 
Q 2591 2978 2328 3040 
Q 2066 3103 1784 3103 
Q 1356 3103 1142 2972 
Q 928 2841 928 2578 
Q 928 2378 1081 2264 
Q 1234 2150 1697 2047 
L 1894 2003 
Q 2506 1872 2764 1633 
Q 3022 1394 3022 966 
Q 3022 478 2636 193 
Q 2250 -91 1575 -91 
Q 1294 -91 989 -36 
Q 684 19 347 128 
L 347 722 
Q 666 556 975 473 
Q 1284 391 1588 391 
Q 1994 391 2212 530 
Q 2431 669 2431 922 
Q 2431 1156 2273 1281 
Q 2116 1406 1581 1522 
L 1381 1569 
Q 847 1681 609 1914 
Q 372 2147 372 2553 
Q 372 3047 722 3315 
Q 1072 3584 1716 3584 
Q 2034 3584 2315 3537 
Q 2597 3491 2834 3397 
z
" transform="scale(0.015625)"/>
       <path id="DejaVuSans-69" d="M 603 3500 
L 1178 3500 
L 1178 0 
L 603 0 
L 603 3500 
z
M 603 4863 
L 1178 4863 
L 1178 4134 
L 603 4134 
L 603 4863 
z
" transform="scale(0.015625)"/>
       <path id="DejaVuSans-74" d="M 1172 4494 
L 1172 3500 
L 2356 3500 
L 2356 3053 
L 1172 3053 
L 1172 1153 
Q 1172 725 1289 603 
Q 1406 481 1766 481 
L 2356 481 
L 2356 0 
L 1766 0 
Q 1100 0 847 248 
Q 594 497 594 1153 
L 594 3053 
L 172 3053 
L 172 3500 
L 594 3500 
L 594 4494 
L 1172 4494 
z
" transform="scale(0.015625)"/>
       <path id="DejaVuSans-6e" d="M 3513 2113 
L 3513 0 
L 2938 0 
L 2938 2094 
Q 2938 2591 2744 2837 
Q 2550 3084 2163 3084 
Q 1697 3084 1428 2787 
Q 1159 2491 1159 1978 
L 1159 0 
L 581 0 
L 581 3500 
L 1159 3500 
L 1159 2956 
Q 1366 3272 1645 3428 
Q 1925 3584 2291 3584 
Q 2894 3584 3203 3211 
Q 3513 2838 3513 2113 
z
" transform="scale(0.015625)"/>
      </defs>
      <use xlink:href="#DejaVuSans-52" transform="translate(0 0.015625)"/>
      <use xlink:href="#DejaVuSans-65" transform="translate(69.482422 0.015625)"/>
      <use xlink:href="#DejaVuSans-61" transform="translate(131.005859 0.015625)"/>
      <use xlink:href="#DejaVuSans-6c" transform="translate(192.285156 0.015625)"/>
      <use xlink:href="#DejaVuSans-20" transform="translate(220.068359 0.015625)"/>
      <use xlink:href="#DejaVuSans-Oblique-78" transform="translate(251.855469 0.015625)"/>
      <use xlink:href="#DejaVuSans-20" transform="translate(311.035156 0.015625)"/>
      <use xlink:href="#DejaVuSans-50" transform="translate(342.822266 0.015625)"/>
      <use xlink:href="#DejaVuSans-6f" transform="translate(403.125 0.015625)"/>
      <use xlink:href="#DejaVuSans-73" transform="translate(464.306641 0.015625)"/>
      <use xlink:href="#DejaVuSans-69" transform="translate(516.40625 0.015625)"/>
      <use xlink:href="#DejaVuSans-74" transform="translate(544.189453 0.015625)"/>
      <use xlink:href="#DejaVuSans-69" transform="translate(583.398438 0.015625)"/>
      <use xlink:href="#DejaVuSans-6f" transform="translate(611.181641 0.015625)"/>
      <use xlink:href="#DejaVuSans-6e" transform="translate(672.363281 0.015625)"/>
     </g>
    </g>
    <g id="line2d_15">
     <path d="M 926.2 105.536562 
L 936.2 105.536562 
L 946.2 105.536562 
" style="fill: none; stroke: #0000ff; stroke-opacity: 0.5; stroke-width: 1.5; stroke-linecap: square"/>
    </g>
    <g id="text_13">
     <!-- Prediction $x$ -->
     <g transform="translate(954.2 109.036562) scale(0.1 -0.1)">
      <defs>
       <path id="DejaVuSans-72" d="M 2631 2963 
Q 2534 3019 2420 3045 
Q 2306 3072 2169 3072 
Q 1681 3072 1420 2755 
Q 1159 2438 1159 1844 
L 1159 0 
L 581 0 
L 581 3500 
L 1159 3500 
L 1159 2956 
Q 1341 3275 1631 3429 
Q 1922 3584 2338 3584 
Q 2397 3584 2469 3576 
Q 2541 3569 2628 3553 
L 2631 2963 
z
" transform="scale(0.015625)"/>
       <path id="DejaVuSans-64" d="M 2906 2969 
L 2906 4863 
L 3481 4863 
L 3481 0 
L 2906 0 
L 2906 525 
Q 2725 213 2448 61 
Q 2172 -91 1784 -91 
Q 1150 -91 751 415 
Q 353 922 353 1747 
Q 353 2572 751 3078 
Q 1150 3584 1784 3584 
Q 2172 3584 2448 3432 
Q 2725 3281 2906 2969 
z
M 947 1747 
Q 947 1113 1208 752 
Q 1469 391 1925 391 
Q 2381 391 2643 752 
Q 2906 1113 2906 1747 
Q 2906 2381 2643 2742 
Q 2381 3103 1925 3103 
Q 1469 3103 1208 2742 
Q 947 2381 947 1747 
z
" transform="scale(0.015625)"/>
       <path id="DejaVuSans-63" d="M 3122 3366 
L 3122 2828 
Q 2878 2963 2633 3030 
Q 2388 3097 2138 3097 
Q 1578 3097 1268 2742 
Q 959 2388 959 1747 
Q 959 1106 1268 751 
Q 1578 397 2138 397 
Q 2388 397 2633 464 
Q 2878 531 3122 666 
L 3122 134 
Q 2881 22 2623 -34 
Q 2366 -91 2075 -91 
Q 1284 -91 818 406 
Q 353 903 353 1747 
Q 353 2603 823 3093 
Q 1294 3584 2113 3584 
Q 2378 3584 2631 3529 
Q 2884 3475 3122 3366 
z
" transform="scale(0.015625)"/>
      </defs>
      <use xlink:href="#DejaVuSans-50" transform="translate(0 0.015625)"/>
      <use xlink:href="#DejaVuSans-72" transform="translate(60.302734 0.015625)"/>
      <use xlink:href="#DejaVuSans-65" transform="translate(101.416016 0.015625)"/>
      <use xlink:href="#DejaVuSans-64" transform="translate(162.939453 0.015625)"/>
      <use xlink:href="#DejaVuSans-69" transform="translate(226.416016 0.015625)"/>
      <use xlink:href="#DejaVuSans-63" transform="translate(254.199219 0.015625)"/>
      <use xlink:href="#DejaVuSans-74" transform="translate(309.179688 0.015625)"/>
      <use xlink:href="#DejaVuSans-69" transform="translate(348.388672 0.015625)"/>
      <use xlink:href="#DejaVuSans-6f" transform="translate(376.171875 0.015625)"/>
      <use xlink:href="#DejaVuSans-6e" transform="translate(437.353516 0.015625)"/>
      <use xlink:href="#DejaVuSans-20" transform="translate(500.732422 0.015625)"/>
      <use xlink:href="#DejaVuSans-Oblique-78" transform="translate(532.519531 0.015625)"/>
     </g>
    </g>
    <g id="patch_8">
     <path d="M 926.2 123.714687 
L 946.2 123.714687 
L 946.2 116.714687 
L 926.2 116.714687 
z
" style="fill: #00ffff; fill-opacity: 0.5; stroke: #00ffff; stroke-opacity: 0.5; stroke-linejoin: miter"/>
    </g>
    <g id="text_14">
     <!-- Confidence -->
     <g transform="translate(954.2 123.714687) scale(0.1 -0.1)">
      <defs>
       <path id="DejaVuSans-43" d="M 4122 4306 
L 4122 3641 
Q 3803 3938 3442 4084 
Q 3081 4231 2675 4231 
Q 1875 4231 1450 3742 
Q 1025 3253 1025 2328 
Q 1025 1406 1450 917 
Q 1875 428 2675 428 
Q 3081 428 3442 575 
Q 3803 722 4122 1019 
L 4122 359 
Q 3791 134 3420 21 
Q 3050 -91 2638 -91 
Q 1578 -91 968 557 
Q 359 1206 359 2328 
Q 359 3453 968 4101 
Q 1578 4750 2638 4750 
Q 3056 4750 3426 4639 
Q 3797 4528 4122 4306 
z
" transform="scale(0.015625)"/>
       <path id="DejaVuSans-66" d="M 2375 4863 
L 2375 4384 
L 1825 4384 
Q 1516 4384 1395 4259 
Q 1275 4134 1275 3809 
L 1275 3500 
L 2222 3500 
L 2222 3053 
L 1275 3053 
L 1275 0 
L 697 0 
L 697 3053 
L 147 3053 
L 147 3500 
L 697 3500 
L 697 3744 
Q 697 4328 969 4595 
Q 1241 4863 1831 4863 
L 2375 4863 
z
" transform="scale(0.015625)"/>
      </defs>
      <use xlink:href="#DejaVuSans-43"/>
      <use xlink:href="#DejaVuSans-6f" x="69.824219"/>
      <use xlink:href="#DejaVuSans-6e" x="131.005859"/>
      <use xlink:href="#DejaVuSans-66" x="194.384766"/>
      <use xlink:href="#DejaVuSans-69" x="229.589844"/>
      <use xlink:href="#DejaVuSans-64" x="257.373047"/>
      <use xlink:href="#DejaVuSans-65" x="320.849609"/>
      <use xlink:href="#DejaVuSans-6e" x="382.373047"/>
      <use xlink:href="#DejaVuSans-63" x="445.751953"/>
      <use xlink:href="#DejaVuSans-65" x="500.732422"/>
     </g>
    </g>
   </g>
  </g>
  <g id="axes_2">
   <g id="patch_9">
    <path d="M 144 576.72 
L 1036.8 576.72 
L 1036.8 349.92 
L 144 349.92 
z
" style="fill: #ffffff"/>
   </g>
   <g id="matplotlib.axis_3">
    <g id="xtick_7">
     <g id="line2d_16">
      <g>
       <use xlink:href="#m49c3bd9040" x="144" y="576.72" style="stroke: #000000; stroke-width: 0.8"/>
      </g>
     </g>
     <g id="text_15">
      <!-- 0 -->
      <g transform="translate(140.81875 591.318438) scale(0.1 -0.1)">
       <use xlink:href="#DejaVuSans-30"/>
      </g>
     </g>
    </g>
    <g id="xtick_8">
     <g id="line2d_17">
      <g>
       <use xlink:href="#m49c3bd9040" x="292.849617" y="576.72" style="stroke: #000000; stroke-width: 0.8"/>
      </g>
     </g>
     <g id="text_16">
      <!-- 5 -->
      <g transform="translate(289.668367 591.318438) scale(0.1 -0.1)">
       <use xlink:href="#DejaVuSans-35"/>
      </g>
     </g>
    </g>
    <g id="xtick_9">
     <g id="line2d_18">
      <g>
       <use xlink:href="#m49c3bd9040" x="441.699233" y="576.72" style="stroke: #000000; stroke-width: 0.8"/>
      </g>
     </g>
     <g id="text_17">
      <!-- 10 -->
      <g transform="translate(435.336733 591.318438) scale(0.1 -0.1)">
       <use xlink:href="#DejaVuSans-31"/>
       <use xlink:href="#DejaVuSans-30" x="63.623047"/>
      </g>
     </g>
    </g>
    <g id="xtick_10">
     <g id="line2d_19">
      <g>
       <use xlink:href="#m49c3bd9040" x="590.54885" y="576.72" style="stroke: #000000; stroke-width: 0.8"/>
      </g>
     </g>
     <g id="text_18">
      <!-- 15 -->
      <g transform="translate(584.18635 591.318438) scale(0.1 -0.1)">
       <use xlink:href="#DejaVuSans-31"/>
       <use xlink:href="#DejaVuSans-35" x="63.623047"/>
      </g>
     </g>
    </g>
    <g id="xtick_11">
     <g id="line2d_20">
      <g>
       <use xlink:href="#m49c3bd9040" x="739.398466" y="576.72" style="stroke: #000000; stroke-width: 0.8"/>
      </g>
     </g>
     <g id="text_19">
      <!-- 20 -->
      <g transform="translate(733.035966 591.318438) scale(0.1 -0.1)">
       <use xlink:href="#DejaVuSans-32"/>
       <use xlink:href="#DejaVuSans-30" x="63.623047"/>
      </g>
     </g>
    </g>
    <g id="xtick_12">
     <g id="line2d_21">
      <g>
       <use xlink:href="#m49c3bd9040" x="888.248083" y="576.72" style="stroke: #000000; stroke-width: 0.8"/>
      </g>
     </g>
     <g id="text_20">
      <!-- 25 -->
      <g transform="translate(881.885583 591.318438) scale(0.1 -0.1)">
       <use xlink:href="#DejaVuSans-32"/>
       <use xlink:href="#DejaVuSans-35" x="63.623047"/>
      </g>
     </g>
    </g>
   </g>
   <g id="matplotlib.axis_4">
    <g id="ytick_6">
     <g id="line2d_22">
      <g>
       <use xlink:href="#m0499d9e67b" x="144" y="547.089152" style="stroke: #000000; stroke-width: 0.8"/>
      </g>
     </g>
     <g id="text_21">
      <!-- −0.02 -->
      <g transform="translate(106.354687 550.888371) scale(0.1 -0.1)">
       <defs>
        <path id="DejaVuSans-2212" d="M 678 2272 
L 4684 2272 
L 4684 1741 
L 678 1741 
L 678 2272 
z
" transform="scale(0.015625)"/>
       </defs>
       <use xlink:href="#DejaVuSans-2212"/>
       <use xlink:href="#DejaVuSans-30" x="83.789062"/>
       <use xlink:href="#DejaVuSans-2e" x="147.412109"/>
       <use xlink:href="#DejaVuSans-30" x="179.199219"/>
       <use xlink:href="#DejaVuSans-32" x="242.822266"/>
      </g>
     </g>
    </g>
    <g id="ytick_7">
     <g id="line2d_23">
      <g>
       <use xlink:href="#m0499d9e67b" x="144" y="517.070533" style="stroke: #000000; stroke-width: 0.8"/>
      </g>
     </g>
     <g id="text_22">
      <!-- −0.01 -->
      <g transform="translate(106.354687 520.869751) scale(0.1 -0.1)">
       <use xlink:href="#DejaVuSans-2212"/>
       <use xlink:href="#DejaVuSans-30" x="83.789062"/>
       <use xlink:href="#DejaVuSans-2e" x="147.412109"/>
       <use xlink:href="#DejaVuSans-30" x="179.199219"/>
       <use xlink:href="#DejaVuSans-31" x="242.822266"/>
      </g>
     </g>
    </g>
    <g id="ytick_8">
     <g id="line2d_24">
      <g>
       <use xlink:href="#m0499d9e67b" x="144" y="487.051913" style="stroke: #000000; stroke-width: 0.8"/>
      </g>
     </g>
     <g id="text_23">
      <!-- 0.00 -->
      <g transform="translate(114.734375 490.851131) scale(0.1 -0.1)">
       <use xlink:href="#DejaVuSans-30"/>
       <use xlink:href="#DejaVuSans-2e" x="63.623047"/>
       <use xlink:href="#DejaVuSans-30" x="95.410156"/>
       <use xlink:href="#DejaVuSans-30" x="159.033203"/>
      </g>
     </g>
    </g>
    <g id="ytick_9">
     <g id="line2d_25">
      <g>
       <use xlink:href="#m0499d9e67b" x="144" y="457.033293" style="stroke: #000000; stroke-width: 0.8"/>
      </g>
     </g>
     <g id="text_24">
      <!-- 0.01 -->
      <g transform="translate(114.734375 460.832512) scale(0.1 -0.1)">
       <use xlink:href="#DejaVuSans-30"/>
       <use xlink:href="#DejaVuSans-2e" x="63.623047"/>
       <use xlink:href="#DejaVuSans-30" x="95.410156"/>
       <use xlink:href="#DejaVuSans-31" x="159.033203"/>
      </g>
     </g>
    </g>
    <g id="ytick_10">
     <g id="line2d_26">
      <g>
       <use xlink:href="#m0499d9e67b" x="144" y="427.014673" style="stroke: #000000; stroke-width: 0.8"/>
      </g>
     </g>
     <g id="text_25">
      <!-- 0.02 -->
      <g transform="translate(114.734375 430.813892) scale(0.1 -0.1)">
       <use xlink:href="#DejaVuSans-30"/>
       <use xlink:href="#DejaVuSans-2e" x="63.623047"/>
       <use xlink:href="#DejaVuSans-30" x="95.410156"/>
       <use xlink:href="#DejaVuSans-32" x="159.033203"/>
      </g>
     </g>
    </g>
    <g id="ytick_11">
     <g id="line2d_27">
      <g>
       <use xlink:href="#m0499d9e67b" x="144" y="396.996053" style="stroke: #000000; stroke-width: 0.8"/>
      </g>
     </g>
     <g id="text_26">
      <!-- 0.03 -->
      <g transform="translate(114.734375 400.795272) scale(0.1 -0.1)">
       <use xlink:href="#DejaVuSans-30"/>
       <use xlink:href="#DejaVuSans-2e" x="63.623047"/>
       <use xlink:href="#DejaVuSans-30" x="95.410156"/>
       <use xlink:href="#DejaVuSans-33" x="159.033203"/>
      </g>
     </g>
    </g>
    <g id="ytick_12">
     <g id="line2d_28">
      <g>
       <use xlink:href="#m0499d9e67b" x="144" y="366.977433" style="stroke: #000000; stroke-width: 0.8"/>
      </g>
     </g>
     <g id="text_27">
      <!-- 0.04 -->
      <g transform="translate(114.734375 370.776652) scale(0.1 -0.1)">
       <defs>
        <path id="DejaVuSans-34" d="M 2419 4116 
L 825 1625 
L 2419 1625 
L 2419 4116 
z
M 2253 4666 
L 3047 4666 
L 3047 1625 
L 3713 1625 
L 3713 1100 
L 3047 1100 
L 3047 0 
L 2419 0 
L 2419 1100 
L 313 1100 
L 313 1709 
L 2253 4666 
z
" transform="scale(0.015625)"/>
       </defs>
       <use xlink:href="#DejaVuSans-30"/>
       <use xlink:href="#DejaVuSans-2e" x="63.623047"/>
       <use xlink:href="#DejaVuSans-30" x="95.410156"/>
       <use xlink:href="#DejaVuSans-34" x="159.033203"/>
      </g>
     </g>
    </g>
   </g>
   <g id="line2d_29">
    <path d="M 144 513.516744 
L 173.769923 511.588916 
L 203.539847 513.330599 
L 233.30977 513.927995 
L 263.079693 514.36861 
L 322.61954 514.383519 
L 352.389463 514.142496 
L 411.92931 513.153313 
L 441.699233 512.67657 
L 501.23908 511.007026 
L 560.778926 509.048016 
L 590.54885 507.991801 
L 650.088696 505.518976 
L 709.628543 502.748261 
L 769.168389 499.579695 
L 798.938313 497.856476 
L 888.248083 492.126437 
L 947.787929 487.871686 
L 1007.327776 483.275945 
L 1066.867623 478.3072 
L 1126.407469 472.942228 
L 1153 470.376643 
L 1153 470.376643 
" clip-path="url(#p4a6c653acd)" style="fill: none; stroke: #1f77b4; stroke-width: 1.5; stroke-linecap: square"/>
   </g>
   <g id="patch_10">
    <path d="M 144 576.72 
L 144 349.92 
" style="fill: none; stroke: #000000; stroke-width: 0.8; stroke-linejoin: miter; stroke-linecap: square"/>
   </g>
   <g id="patch_11">
    <path d="M 1036.8 576.72 
L 1036.8 349.92 
" style="fill: none; stroke: #000000; stroke-width: 0.8; stroke-linejoin: miter; stroke-linecap: square"/>
   </g>
   <g id="patch_12">
    <path d="M 144 576.72 
L 1036.8 576.72 
" style="fill: none; stroke: #000000; stroke-width: 0.8; stroke-linejoin: miter; stroke-linecap: square"/>
   </g>
   <g id="patch_13">
    <path d="M 144 349.92 
L 1036.8 349.92 
" style="fill: none; stroke: #000000; stroke-width: 0.8; stroke-linejoin: miter; stroke-linecap: square"/>
   </g>
   <g id="legend_2">
    <g id="patch_14">
     <path d="M 920.578125 372.598125 
L 1029.8 372.598125 
Q 1031.8 372.598125 1031.8 370.598125 
L 1031.8 356.92 
Q 1031.8 354.92 1029.8 354.92 
L 920.578125 354.92 
Q 918.578125 354.92 918.578125 356.92 
L 918.578125 370.598125 
Q 918.578125 372.598125 920.578125 372.598125 
z
" style="fill: #ffffff; opacity: 0.8; stroke: #cccccc; stroke-linejoin: miter"/>
    </g>
    <g id="line2d_30">
     <path d="M 922.578125 363.018437 
L 932.578125 363.018437 
L 942.578125 363.018437 
" style="fill: none; stroke: #1f77b4; stroke-width: 1.5; stroke-linecap: square"/>
    </g>
    <g id="text_28">
     <!-- Prediction Error -->
     <g transform="translate(950.578125 366.518437) scale(0.1 -0.1)">
      <defs>
       <path id="DejaVuSans-45" d="M 628 4666 
L 3578 4666 
L 3578 4134 
L 1259 4134 
L 1259 2753 
L 3481 2753 
L 3481 2222 
L 1259 2222 
L 1259 531 
L 3634 531 
L 3634 0 
L 628 0 
L 628 4666 
z
" transform="scale(0.015625)"/>
      </defs>
      <use xlink:href="#DejaVuSans-50"/>
      <use xlink:href="#DejaVuSans-72" x="58.552734"/>
      <use xlink:href="#DejaVuSans-65" x="97.416016"/>
      <use xlink:href="#DejaVuSans-64" x="158.939453"/>
      <use xlink:href="#DejaVuSans-69" x="222.416016"/>
      <use xlink:href="#DejaVuSans-63" x="250.199219"/>
      <use xlink:href="#DejaVuSans-74" x="305.179688"/>
      <use xlink:href="#DejaVuSans-69" x="344.388672"/>
      <use xlink:href="#DejaVuSans-6f" x="372.171875"/>
      <use xlink:href="#DejaVuSans-6e" x="433.353516"/>
      <use xlink:href="#DejaVuSans-20" x="496.732422"/>
      <use xlink:href="#DejaVuSans-45" x="528.519531"/>
      <use xlink:href="#DejaVuSans-72" x="591.703125"/>
      <use xlink:href="#DejaVuSans-72" x="631.066406"/>
      <use xlink:href="#DejaVuSans-6f" x="669.929688"/>
      <use xlink:href="#DejaVuSans-72" x="731.111328"/>
     </g>
    </g>
   </g>
  </g>
  <g id="text_29">
   <!-- $x$-Position Prediction -->
   <g transform="translate(514.74 22.078125) scale(0.12 -0.12)">
    <defs>
     <path id="DejaVuSans-2d" d="M 313 2009 
L 1997 2009 
L 1997 1497 
L 313 1497 
L 313 2009 
z
" transform="scale(0.015625)"/>
    </defs>
    <use xlink:href="#DejaVuSans-Oblique-78" transform="translate(0 0.015625)"/>
    <use xlink:href="#DejaVuSans-2d" transform="translate(59.179688 0.015625)"/>
    <use xlink:href="#DejaVuSans-50" transform="translate(95.263672 0.015625)"/>
    <use xlink:href="#DejaVuSans-6f" transform="translate(155.566406 0.015625)"/>
    <use xlink:href="#DejaVuSans-73" transform="translate(216.748047 0.015625)"/>
    <use xlink:href="#DejaVuSans-69" transform="translate(268.847656 0.015625)"/>
    <use xlink:href="#DejaVuSans-74" transform="translate(296.630859 0.015625)"/>
    <use xlink:href="#DejaVuSans-69" transform="translate(335.839844 0.015625)"/>
    <use xlink:href="#DejaVuSans-6f" transform="translate(363.623047 0.015625)"/>
    <use xlink:href="#DejaVuSans-6e" transform="translate(424.804688 0.015625)"/>
    <use xlink:href="#DejaVuSans-20" transform="translate(488.183594 0.015625)"/>
    <use xlink:href="#DejaVuSans-50" transform="translate(519.970703 0.015625)"/>
    <use xlink:href="#DejaVuSans-72" transform="translate(580.273438 0.015625)"/>
    <use xlink:href="#DejaVuSans-65" transform="translate(621.386719 0.015625)"/>
    <use xlink:href="#DejaVuSans-64" transform="translate(682.910156 0.015625)"/>
    <use xlink:href="#DejaVuSans-69" transform="translate(746.386719 0.015625)"/>
    <use xlink:href="#DejaVuSans-63" transform="translate(774.169922 0.015625)"/>
    <use xlink:href="#DejaVuSans-74" transform="translate(829.150391 0.015625)"/>
    <use xlink:href="#DejaVuSans-69" transform="translate(868.359375 0.015625)"/>
    <use xlink:href="#DejaVuSans-6f" transform="translate(896.142578 0.015625)"/>
    <use xlink:href="#DejaVuSans-6e" transform="translate(957.324219 0.015625)"/>
   </g>
  </g>
 </g>
 <defs>
  <clipPath id="p030ba6ca5f">
   <rect x="144" y="77.76" width="892.8" height="226.8"/>
  </clipPath>
  <clipPath id="p4a6c653acd">
   <rect x="144" y="349.92" width="892.8" height="226.8"/>
  </clipPath>
 </defs>
</svg>
