<?xml version="1.0" encoding="utf-8" standalone="no"?>
<!DOCTYPE svg PUBLIC "-//W3C//DTD SVG 1.1//EN"
  "http://www.w3.org/Graphics/SVG/1.1/DTD/svg11.dtd">
<svg xmlns:xlink="http://www.w3.org/1999/xlink" width="1152pt" height="648pt" viewBox="0 0 1152 648" xmlns="http://www.w3.org/2000/svg" version="1.1">
 <metadata>
  <rdf:RDF xmlns:dc="http://purl.org/dc/elements/1.1/" xmlns:cc="http://creativecommons.org/ns#" xmlns:rdf="http://www.w3.org/1999/02/22-rdf-syntax-ns#">
   <cc:Work>
    <dc:type rdf:resource="http://purl.org/dc/dcmitype/StillImage"/>
    <dc:date>2024-06-20T12:46:32.842447</dc:date>
    <dc:format>image/svg+xml</dc:format>
    <dc:creator>
     <cc:Agent>
      <dc:title>Matplotlib v3.9.0, https://matplotlib.org/</dc:title>
     </cc:Agent>
    </dc:creator>
   </cc:Work>
  </rdf:RDF>
 </metadata>
 <defs>
  <style type="text/css">*{stroke-linejoin: round; stroke-linecap: butt}</style>
 </defs>
 <g id="figure_1">
  <g id="patch_1">
   <path d="M 0 648 
L 1152 648 
L 1152 0 
L 0 0 
z
" style="fill: #ffffff"/>
  </g>
  <g id="axes_1">
   <g id="patch_2">
    <path d="M 144 304.56 
L 1036.8 304.56 
L 1036.8 77.76 
L 144 77.76 
z
" style="fill: #ffffff"/>
   </g>
   <g id="PolyCollection_1">
    <defs>
     <path id="m81764d00a7" d="M 292.849617 -547.784514 
L 292.849617 -534.414262 
L 295.826609 -535.688855 
L 298.803601 -537.114055 
L 301.780594 -538.434903 
L 304.757586 -539.629506 
L 307.734578 -540.676405 
L 310.711571 -541.561056 
L 313.688563 -542.285903 
L 316.665555 -542.854786 
L 319.642548 -543.256157 
L 322.61954 -543.480778 
L 325.596532 -543.523623 
L 328.573525 -543.4056 
L 331.550517 -543.133164 
L 334.527509 -542.687047 
L 337.504502 -542.094262 
L 340.481494 -541.347843 
L 343.458486 -540.44667 
L 346.435478 -539.39621 
L 349.412471 -538.212341 
L 352.389463 -536.863218 
L 355.366455 -535.375885 
L 358.343448 -533.745156 
L 361.32044 -531.976093 
L 364.297432 -530.093892 
L 367.274425 -528.069495 
L 370.251417 -525.907878 
L 373.228409 -523.617762 
L 376.205402 -521.216965 
L 379.182394 -518.69272 
L 382.159386 -516.051881 
L 385.136379 -513.293314 
L 388.113371 -510.433392 
L 391.090363 -507.459344 
L 394.067356 -504.381596 
L 397.044348 -501.212474 
L 400.02134 -497.941987 
L 402.998333 -494.579233 
L 405.975325 -491.133221 
L 408.952317 -487.59928 
L 411.92931 -483.981287 
L 414.906302 -480.28071 
L 417.883294 -476.528375 
L 420.860287 -472.722457 
L 423.837279 -468.852509 
L 426.814271 -464.907449 
L 429.791264 -460.903881 
L 432.768256 -456.86157 
L 435.745248 -452.746801 
L 438.722241 -448.588557 
L 441.699233 -444.39195 
L 444.676225 -440.188247 
L 447.653218 -436.011764 
L 450.63021 -431.865303 
L 453.607202 -427.734493 
L 456.584195 -423.647954 
L 459.561187 -419.575499 
L 462.538179 -415.549097 
L 465.515172 -411.538192 
L 468.492164 -407.583226 
L 471.469156 -403.675144 
L 474.446149 -399.824799 
L 477.423141 -396.027008 
L 480.400133 -392.308758 
L 483.377126 -388.679246 
L 486.354118 -385.137246 
L 489.33111 -381.678362 
L 492.308103 -378.359584 
L 495.285095 -375.154735 
L 498.262087 -372.11699 
L 501.23908 -369.218286 
L 504.216072 -366.498432 
L 507.193064 -363.981055 
L 510.170057 -361.689199 
L 513.147049 -359.633327 
L 516.124041 -357.84156 
L 519.101034 -356.335851 
L 522.078026 -355.135249 
L 525.055018 -354.29405 
L 528.032011 -353.81891 
L 531.009003 -353.749091 
L 533.985995 -354.090003 
L 536.962988 -354.881775 
L 539.93998 -356.172613 
L 542.916972 -357.969808 
L 545.893965 -360.273453 
L 548.870957 -363.141345 
L 551.847949 -366.565767 
L 554.824942 -370.561259 
L 557.801934 -375.130178 
L 560.778926 -380.266354 
L 563.755919 -385.96482 
L 566.732911 -392.177148 
L 569.709903 -398.878968 
L 572.686896 -406.044652 
L 575.663888 -413.613924 
L 578.64088 -421.509808 
L 581.617873 -429.678663 
L 584.594865 -438.026461 
L 587.571857 -446.480747 
L 590.54885 -454.948523 
L 593.525842 -463.35848 
L 596.502834 -471.615348 
L 599.479827 -479.626095 
L 602.456819 -487.335792 
L 605.433811 -494.662395 
L 608.410804 -501.564346 
L 611.387796 -507.978408 
L 614.364788 -513.873094 
L 617.341781 -519.214026 
L 620.318773 -523.983302 
L 623.295765 -528.170897 
L 626.272758 -531.77921 
L 629.24975 -534.817786 
L 632.226742 -537.29091 
L 635.203735 -539.225948 
L 638.180727 -540.643433 
L 641.157719 -541.557944 
L 644.134712 -542.007233 
L 647.111704 -542.011467 
L 650.088696 -541.61206 
L 653.065689 -540.833274 
L 656.042681 -539.695933 
L 659.019673 -538.232117 
L 661.996666 -536.481992 
L 664.973658 -534.458551 
L 667.95065 -532.184743 
L 670.927643 -529.699159 
L 673.904635 -527.007847 
L 676.881627 -524.13025 
L 679.85862 -521.095161 
L 682.835612 -517.915902 
L 685.812604 -514.608102 
L 688.789597 -511.186737 
L 691.766589 -507.649357 
L 694.743581 -504.030407 
L 697.720574 -500.333866 
L 700.697566 -496.549706 
L 703.674558 -492.716333 
L 706.651551 -488.827258 
L 709.628543 -484.89343 
L 712.605535 -480.912119 
L 715.582528 -476.897068 
L 718.55952 -472.856744 
L 721.536512 -468.782639 
L 724.513505 -464.685049 
L 727.490497 -460.57363 
L 730.467489 -456.452018 
L 733.444481 -452.317715 
L 736.421474 -448.183527 
L 739.398466 -444.04642 
L 742.375458 -439.951722 
L 745.352451 -435.909923 
L 748.329443 -431.928543 
L 751.306435 -428.008743 
L 754.283428 -424.164969 
L 757.26042 -420.371582 
L 760.237412 -416.656973 
L 763.214405 -413.006609 
L 766.191397 -409.455915 
L 769.168389 -405.96044 
L 772.145382 -402.542631 
L 775.122374 -399.219414 
L 778.099366 -395.985543 
L 781.076359 -392.843555 
L 784.053351 -389.798436 
L 787.030343 -386.857543 
L 790.007336 -384.020569 
L 792.984328 -381.283041 
L 795.96132 -378.661681 
L 798.938313 -376.163205 
L 801.915305 -373.77561 
L 804.892297 -371.516621 
L 807.86929 -369.398825 
L 810.846282 -367.403535 
L 813.823274 -365.552961 
L 816.800267 -363.823367 
L 819.777259 -362.271245 
L 822.754251 -360.846162 
L 825.731244 -359.590529 
L 828.708236 -358.472442 
L 831.685228 -357.507065 
L 834.662221 -356.717052 
L 837.639213 -356.091942 
L 840.616205 -355.623742 
L 843.593198 -355.317844 
L 846.57019 -355.191738 
L 849.547182 -355.198156 
L 852.524175 -355.390885 
L 855.501167 -355.739218 
L 858.478159 -356.238121 
L 861.455152 -356.910974 
L 864.432144 -357.739419 
L 867.409136 -358.704419 
L 870.386129 -359.829244 
L 873.363121 -361.064349 
L 876.340113 -362.465554 
L 879.317106 -363.98784 
L 882.294098 -365.625286 
L 885.27109 -367.371347 
L 888.248083 -369.241653 
L 891.225075 -371.196237 
L 894.202067 -373.25404 
L 897.17906 -375.374935 
L 900.156052 -377.601197 
L 903.133044 -379.877595 
L 906.110037 -382.198657 
L 909.087029 -384.570864 
L 912.064021 -386.984497 
L 915.041014 -389.444553 
L 918.018006 -391.902997 
L 920.994998 -394.390702 
L 923.971991 -396.870883 
L 926.948983 -399.356932 
L 929.925975 -401.827832 
L 932.902968 -404.29552 
L 935.87996 -406.732971 
L 938.856952 -409.128909 
L 941.833945 -411.499503 
L 944.810937 -413.831608 
L 947.787929 -416.129407 
L 950.764922 -418.352036 
L 953.741914 -420.538137 
L 956.718906 -422.677219 
L 959.695899 -424.746471 
L 962.672891 -426.765123 
L 965.649883 -428.712685 
L 968.626876 -430.587181 
L 971.603868 -432.384481 
L 974.58086 -434.116126 
L 977.557853 -435.776115 
L 980.534845 -437.342322 
L 983.511837 -438.842378 
L 986.48883 -440.272526 
L 989.465822 -441.623851 
L 992.442814 -442.908636 
L 995.419807 -444.106301 
L 998.396799 -445.22038 
L 1001.373791 -446.245839 
L 1004.350784 -447.173689 
L 1007.327776 -448.03782 
L 1010.304768 -448.824524 
L 1013.281761 -449.512203 
L 1016.258753 -450.1201 
L 1019.235745 -450.664374 
L 1022.212738 -451.108381 
L 1025.18973 -451.481613 
L 1028.166722 -451.774974 
L 1031.143715 -451.955493 
L 1034.120707 -452.085502 
L 1034.120707 -460.835035 
L 1034.120707 -460.835035 
L 1031.143715 -460.876941 
L 1028.166722 -460.867654 
L 1025.18973 -460.742123 
L 1022.212738 -460.536182 
L 1019.235745 -460.257647 
L 1016.258753 -459.877325 
L 1013.281761 -459.433624 
L 1010.304768 -458.907226 
L 1007.327776 -458.277817 
L 1004.350784 -457.571563 
L 1001.373791 -456.800723 
L 998.396799 -455.926059 
L 995.419807 -454.959437 
L 992.442814 -453.904139 
L 989.465822 -452.759631 
L 986.48883 -451.546858 
L 983.511837 -450.254269 
L 980.534845 -448.89255 
L 977.557853 -447.460114 
L 974.58086 -445.929496 
L 971.603868 -444.325087 
L 968.626876 -442.651279 
L 965.649883 -440.896458 
L 962.672891 -439.06119 
L 959.695899 -437.155683 
L 956.718906 -435.199041 
L 953.741914 -433.168995 
L 950.764922 -431.096456 
L 947.787929 -428.983659 
L 944.810937 -426.787057 
L 941.833945 -424.560753 
L 938.856952 -422.295169 
L 935.87996 -420.000389 
L 932.902968 -417.657025 
L 929.925975 -415.280924 
L 926.948983 -412.899932 
L 923.971991 -410.50344 
L 920.994998 -408.105776 
L 918.018006 -405.697455 
L 915.041014 -403.314531 
L 912.064021 -400.925747 
L 909.087029 -398.586 
L 906.110037 -396.284553 
L 903.133044 -394.030182 
L 900.156052 -391.808574 
L 897.17906 -389.639832 
L 894.202067 -387.576653 
L 891.225075 -385.569844 
L 888.248083 -383.66341 
L 885.27109 -381.837572 
L 882.294098 -380.139736 
L 879.317106 -378.543351 
L 876.340113 -377.061955 
L 873.363121 -375.705428 
L 870.386129 -374.509274 
L 867.409136 -373.417559 
L 864.432144 -372.482922 
L 861.455152 -371.68291 
L 858.478159 -371.043389 
L 855.501167 -370.580885 
L 852.524175 -370.264493 
L 849.547182 -370.10628 
L 846.57019 -370.130917 
L 843.593198 -370.283343 
L 840.616205 -370.615131 
L 837.639213 -371.106286 
L 834.662221 -371.755702 
L 831.685228 -372.572361 
L 828.708236 -373.564747 
L 825.731244 -374.703851 
L 822.754251 -375.981505 
L 819.777259 -377.429042 
L 816.800267 -379.005224 
L 813.823274 -380.759896 
L 810.846282 -382.633032 
L 807.86929 -384.650732 
L 804.892297 -386.793229 
L 801.915305 -389.078002 
L 798.938313 -391.49182 
L 795.96132 -394.018318 
L 792.984328 -396.670077 
L 790.007336 -399.439573 
L 787.030343 -402.310218 
L 784.053351 -405.287607 
L 781.076359 -408.371656 
L 778.099366 -411.555325 
L 775.122374 -414.833786 
L 772.145382 -418.204476 
L 769.168389 -421.670216 
L 766.191397 -425.214658 
L 763.214405 -428.816123 
L 760.237412 -432.517867 
L 757.26042 -436.282894 
L 754.283428 -440.124453 
L 751.306435 -444.01339 
L 748.329443 -447.973564 
L 745.352451 -451.988524 
L 742.375458 -456.055248 
L 739.398466 -460.17123 
L 736.421474 -464.332757 
L 733.444481 -468.494692 
L 730.467489 -472.660133 
L 727.490497 -476.816417 
L 724.513505 -480.965631 
L 721.536512 -485.103665 
L 718.55952 -489.220853 
L 715.582528 -493.307022 
L 712.605535 -497.369886 
L 709.628543 -501.400159 
L 706.651551 -505.383956 
L 703.674558 -509.32457 
L 700.697566 -513.210528 
L 697.720574 -517.046939 
L 694.743581 -520.79572 
L 691.766589 -524.467311 
L 688.789597 -528.056575 
L 685.812604 -531.528898 
L 682.835612 -534.889083 
L 679.85862 -538.121693 
L 676.881627 -541.212747 
L 673.904635 -544.148265 
L 670.927643 -546.899179 
L 667.95065 -549.449262 
L 664.973658 -551.792229 
L 661.996666 -553.888217 
L 659.019673 -555.715507 
L 656.042681 -557.261229 
L 653.065689 -558.48355 
L 650.088696 -559.350025 
L 647.111704 -559.84129 
L 644.134712 -559.930909 
L 641.157719 -559.573213 
L 638.180727 -558.748658 
L 635.203735 -557.418373 
L 632.226742 -555.568245 
L 629.24975 -553.174911 
L 626.272758 -550.210309 
L 623.295765 -546.67104 
L 620.318773 -542.544209 
L 617.341781 -537.828242 
L 614.364788 -532.533221 
L 611.387796 -526.677404 
L 608.410804 -520.296187 
L 605.433811 -513.421803 
L 602.456819 -506.117119 
L 599.479827 -498.421199 
L 596.502834 -490.415258 
L 593.525842 -482.153162 
L 590.54885 -473.730996 
L 587.571857 -465.243537 
L 584.594865 -456.759751 
L 581.617873 -448.372491 
L 578.64088 -440.154809 
L 575.663888 -432.201918 
L 572.686896 -424.566482 
L 569.709903 -417.327332 
L 566.732911 -410.545229 
L 563.755919 -404.245583 
L 560.778926 -398.454344 
L 557.801934 -393.220818 
L 554.824942 -388.550267 
L 551.847949 -384.450011 
L 548.870957 -380.918847 
L 545.893965 -377.944111 
L 542.916972 -375.534566 
L 539.93998 -373.634591 
L 536.962988 -372.241047 
L 533.985995 -371.347256 
L 531.009003 -370.909736 
L 528.032011 -370.887411 
L 525.055018 -371.272824 
L 522.078026 -372.027126 
L 519.101034 -373.143453 
L 516.124041 -374.571529 
L 513.147049 -376.290592 
L 510.170057 -378.277594 
L 507.193064 -380.503911 
L 504.216072 -382.95804 
L 501.23908 -385.617708 
L 498.262087 -388.464353 
L 495.285095 -391.455966 
L 492.308103 -394.616357 
L 489.33111 -397.893809 
L 486.354118 -401.314635 
L 483.377126 -404.828739 
L 480.400133 -408.432178 
L 477.423141 -412.125674 
L 474.446149 -415.901959 
L 471.469156 -419.735165 
L 468.492164 -423.630465 
L 465.515172 -427.572837 
L 462.538179 -431.57326 
L 459.561187 -435.592045 
L 456.584195 -439.656952 
L 453.607202 -443.733924 
L 450.63021 -447.847273 
L 447.653218 -451.970374 
L 444.676225 -456.112077 
L 441.699233 -460.276532 
L 438.722241 -464.43442 
L 435.745248 -468.554165 
L 432.768256 -472.635324 
L 429.791264 -476.649286 
L 426.814271 -480.622262 
L 423.837279 -484.540522 
L 420.860287 -488.387844 
L 417.883294 -492.170223 
L 414.906302 -495.892042 
L 411.92931 -499.560422 
L 408.952317 -503.150459 
L 405.975325 -506.661898 
L 402.998333 -510.08725 
L 400.02134 -513.432337 
L 397.044348 -516.690009 
L 394.067356 -519.850525 
L 391.090363 -522.921015 
L 388.113371 -525.892936 
L 385.136379 -528.753646 
L 382.159386 -531.513515 
L 379.182394 -534.155888 
L 376.205402 -536.680208 
L 373.228409 -539.074813 
L 370.251417 -541.348663 
L 367.274425 -543.487057 
L 364.297432 -545.480259 
L 361.32044 -547.312646 
L 358.343448 -549.008246 
L 355.366455 -550.545201 
L 352.389463 -551.916043 
L 349.412471 -553.128193 
L 346.435478 -554.15347 
L 343.458486 -555.014727 
L 340.481494 -555.702951 
L 337.504502 -556.217058 
L 334.527509 -556.557144 
L 331.550517 -556.741997 
L 328.573525 -556.752382 
L 325.596532 -556.612124 
L 322.61954 -556.332329 
L 319.642548 -555.906104 
L 316.665555 -555.34454 
L 313.688563 -554.661453 
L 310.711571 -553.877004 
L 307.734578 -552.998609 
L 304.757586 -552.03675 
L 301.780594 -551.017557 
L 298.803601 -549.974243 
L 295.826609 -548.914441 
L 292.849617 -547.784514 
z
" style="stroke: #00ffff; stroke-opacity: 0.5"/>
    </defs>
    <g clip-path="url(#pc6245160e6)">
     <use xlink:href="#m81764d00a7" x="0" y="648" style="fill: #00ffff; fill-opacity: 0.5; stroke: #00ffff; stroke-opacity: 0.5"/>
    </g>
   </g>
   <g id="matplotlib.axis_1">
    <g id="xtick_1">
     <g id="line2d_1">
      <defs>
       <path id="ma3089d24ce" d="M 0 0 
L 0 3.5 
" style="stroke: #000000; stroke-width: 0.8"/>
      </defs>
      <g>
       <use xlink:href="#ma3089d24ce" x="144" y="304.56" style="stroke: #000000; stroke-width: 0.8"/>
      </g>
     </g>
     <g id="text_1">
      <!-- 0 -->
      <g transform="translate(140.81875 319.158437) scale(0.1 -0.1)">
       <defs>
        <path id="DejaVuSans-30" d="M 2034 4250 
Q 1547 4250 1301 3770 
Q 1056 3291 1056 2328 
Q 1056 1369 1301 889 
Q 1547 409 2034 409 
Q 2525 409 2770 889 
Q 3016 1369 3016 2328 
Q 3016 3291 2770 3770 
Q 2525 4250 2034 4250 
z
M 2034 4750 
Q 2819 4750 3233 4129 
Q 3647 3509 3647 2328 
Q 3647 1150 3233 529 
Q 2819 -91 2034 -91 
Q 1250 -91 836 529 
Q 422 1150 422 2328 
Q 422 3509 836 4129 
Q 1250 4750 2034 4750 
z
" transform="scale(0.015625)"/>
       </defs>
       <use xlink:href="#DejaVuSans-30"/>
      </g>
     </g>
    </g>
    <g id="xtick_2">
     <g id="line2d_2">
      <g>
       <use xlink:href="#ma3089d24ce" x="292.849617" y="304.56" style="stroke: #000000; stroke-width: 0.8"/>
      </g>
     </g>
     <g id="text_2">
      <!-- 5 -->
      <g transform="translate(289.668367 319.158437) scale(0.1 -0.1)">
       <defs>
        <path id="DejaVuSans-35" d="M 691 4666 
L 3169 4666 
L 3169 4134 
L 1269 4134 
L 1269 2991 
Q 1406 3038 1543 3061 
Q 1681 3084 1819 3084 
Q 2600 3084 3056 2656 
Q 3513 2228 3513 1497 
Q 3513 744 3044 326 
Q 2575 -91 1722 -91 
Q 1428 -91 1123 -41 
Q 819 9 494 109 
L 494 744 
Q 775 591 1075 516 
Q 1375 441 1709 441 
Q 2250 441 2565 725 
Q 2881 1009 2881 1497 
Q 2881 1984 2565 2268 
Q 2250 2553 1709 2553 
Q 1456 2553 1204 2497 
Q 953 2441 691 2322 
L 691 4666 
z
" transform="scale(0.015625)"/>
       </defs>
       <use xlink:href="#DejaVuSans-35"/>
      </g>
     </g>
    </g>
    <g id="xtick_3">
     <g id="line2d_3">
      <g>
       <use xlink:href="#ma3089d24ce" x="441.699233" y="304.56" style="stroke: #000000; stroke-width: 0.8"/>
      </g>
     </g>
     <g id="text_3">
      <!-- 10 -->
      <g transform="translate(435.336733 319.158437) scale(0.1 -0.1)">
       <defs>
        <path id="DejaVuSans-31" d="M 794 531 
L 1825 531 
L 1825 4091 
L 703 3866 
L 703 4441 
L 1819 4666 
L 2450 4666 
L 2450 531 
L 3481 531 
L 3481 0 
L 794 0 
L 794 531 
z
" transform="scale(0.015625)"/>
       </defs>
       <use xlink:href="#DejaVuSans-31"/>
       <use xlink:href="#DejaVuSans-30" x="63.623047"/>
      </g>
     </g>
    </g>
    <g id="xtick_4">
     <g id="line2d_4">
      <g>
       <use xlink:href="#ma3089d24ce" x="590.54885" y="304.56" style="stroke: #000000; stroke-width: 0.8"/>
      </g>
     </g>
     <g id="text_4">
      <!-- 15 -->
      <g transform="translate(584.18635 319.158437) scale(0.1 -0.1)">
       <use xlink:href="#DejaVuSans-31"/>
       <use xlink:href="#DejaVuSans-35" x="63.623047"/>
      </g>
     </g>
    </g>
    <g id="xtick_5">
     <g id="line2d_5">
      <g>
       <use xlink:href="#ma3089d24ce" x="739.398466" y="304.56" style="stroke: #000000; stroke-width: 0.8"/>
      </g>
     </g>
     <g id="text_5">
      <!-- 20 -->
      <g transform="translate(733.035966 319.158437) scale(0.1 -0.1)">
       <defs>
        <path id="DejaVuSans-32" d="M 1228 531 
L 3431 531 
L 3431 0 
L 469 0 
L 469 531 
Q 828 903 1448 1529 
Q 2069 2156 2228 2338 
Q 2531 2678 2651 2914 
Q 2772 3150 2772 3378 
Q 2772 3750 2511 3984 
Q 2250 4219 1831 4219 
Q 1534 4219 1204 4116 
Q 875 4013 500 3803 
L 500 4441 
Q 881 4594 1212 4672 
Q 1544 4750 1819 4750 
Q 2544 4750 2975 4387 
Q 3406 4025 3406 3419 
Q 3406 3131 3298 2873 
Q 3191 2616 2906 2266 
Q 2828 2175 2409 1742 
Q 1991 1309 1228 531 
z
" transform="scale(0.015625)"/>
       </defs>
       <use xlink:href="#DejaVuSans-32"/>
       <use xlink:href="#DejaVuSans-30" x="63.623047"/>
      </g>
     </g>
    </g>
    <g id="xtick_6">
     <g id="line2d_6">
      <g>
       <use xlink:href="#ma3089d24ce" x="888.248083" y="304.56" style="stroke: #000000; stroke-width: 0.8"/>
      </g>
     </g>
     <g id="text_6">
      <!-- 25 -->
      <g transform="translate(881.885583 319.158437) scale(0.1 -0.1)">
       <use xlink:href="#DejaVuSans-32"/>
       <use xlink:href="#DejaVuSans-35" x="63.623047"/>
      </g>
     </g>
    </g>
   </g>
   <g id="matplotlib.axis_2">
    <g id="ytick_1">
     <g id="line2d_7">
      <defs>
       <path id="m9fc1ec3b87" d="M 0 0 
L -3.5 0 
" style="stroke: #000000; stroke-width: 0.8"/>
      </defs>
      <g>
       <use xlink:href="#m9fc1ec3b87" x="144" y="296.750171" style="stroke: #000000; stroke-width: 0.8"/>
      </g>
     </g>
     <g id="text_7">
      <!-- 1.4 -->
      <g transform="translate(121.096875 300.549389) scale(0.1 -0.1)">
       <defs>
        <path id="DejaVuSans-2e" d="M 684 794 
L 1344 794 
L 1344 0 
L 684 0 
L 684 794 
z
" transform="scale(0.015625)"/>
        <path id="DejaVuSans-34" d="M 2419 4116 
L 825 1625 
L 2419 1625 
L 2419 4116 
z
M 2253 4666 
L 3047 4666 
L 3047 1625 
L 3713 1625 
L 3713 1100 
L 3047 1100 
L 3047 0 
L 2419 0 
L 2419 1100 
L 313 1100 
L 313 1709 
L 2253 4666 
z
" transform="scale(0.015625)"/>
       </defs>
       <use xlink:href="#DejaVuSans-31"/>
       <use xlink:href="#DejaVuSans-2e" x="63.623047"/>
       <use xlink:href="#DejaVuSans-34" x="95.410156"/>
      </g>
     </g>
    </g>
    <g id="ytick_2">
     <g id="line2d_8">
      <g>
       <use xlink:href="#m9fc1ec3b87" x="144" y="261.6197" style="stroke: #000000; stroke-width: 0.8"/>
      </g>
     </g>
     <g id="text_8">
      <!-- 1.6 -->
      <g transform="translate(121.096875 265.418918) scale(0.1 -0.1)">
       <defs>
        <path id="DejaVuSans-36" d="M 2113 2584 
Q 1688 2584 1439 2293 
Q 1191 2003 1191 1497 
Q 1191 994 1439 701 
Q 1688 409 2113 409 
Q 2538 409 2786 701 
Q 3034 994 3034 1497 
Q 3034 2003 2786 2293 
Q 2538 2584 2113 2584 
z
M 3366 4563 
L 3366 3988 
Q 3128 4100 2886 4159 
Q 2644 4219 2406 4219 
Q 1781 4219 1451 3797 
Q 1122 3375 1075 2522 
Q 1259 2794 1537 2939 
Q 1816 3084 2150 3084 
Q 2853 3084 3261 2657 
Q 3669 2231 3669 1497 
Q 3669 778 3244 343 
Q 2819 -91 2113 -91 
Q 1303 -91 875 529 
Q 447 1150 447 2328 
Q 447 3434 972 4092 
Q 1497 4750 2381 4750 
Q 2619 4750 2861 4703 
Q 3103 4656 3366 4563 
z
" transform="scale(0.015625)"/>
       </defs>
       <use xlink:href="#DejaVuSans-31"/>
       <use xlink:href="#DejaVuSans-2e" x="63.623047"/>
       <use xlink:href="#DejaVuSans-36" x="95.410156"/>
      </g>
     </g>
    </g>
    <g id="ytick_3">
     <g id="line2d_9">
      <g>
       <use xlink:href="#m9fc1ec3b87" x="144" y="226.489229" style="stroke: #000000; stroke-width: 0.8"/>
      </g>
     </g>
     <g id="text_9">
      <!-- 1.8 -->
      <g transform="translate(121.096875 230.288447) scale(0.1 -0.1)">
       <defs>
        <path id="DejaVuSans-38" d="M 2034 2216 
Q 1584 2216 1326 1975 
Q 1069 1734 1069 1313 
Q 1069 891 1326 650 
Q 1584 409 2034 409 
Q 2484 409 2743 651 
Q 3003 894 3003 1313 
Q 3003 1734 2745 1975 
Q 2488 2216 2034 2216 
z
M 1403 2484 
Q 997 2584 770 2862 
Q 544 3141 544 3541 
Q 544 4100 942 4425 
Q 1341 4750 2034 4750 
Q 2731 4750 3128 4425 
Q 3525 4100 3525 3541 
Q 3525 3141 3298 2862 
Q 3072 2584 2669 2484 
Q 3125 2378 3379 2068 
Q 3634 1759 3634 1313 
Q 3634 634 3220 271 
Q 2806 -91 2034 -91 
Q 1263 -91 848 271 
Q 434 634 434 1313 
Q 434 1759 690 2068 
Q 947 2378 1403 2484 
z
M 1172 3481 
Q 1172 3119 1398 2916 
Q 1625 2713 2034 2713 
Q 2441 2713 2670 2916 
Q 2900 3119 2900 3481 
Q 2900 3844 2670 4047 
Q 2441 4250 2034 4250 
Q 1625 4250 1398 4047 
Q 1172 3844 1172 3481 
z
" transform="scale(0.015625)"/>
       </defs>
       <use xlink:href="#DejaVuSans-31"/>
       <use xlink:href="#DejaVuSans-2e" x="63.623047"/>
       <use xlink:href="#DejaVuSans-38" x="95.410156"/>
      </g>
     </g>
    </g>
    <g id="ytick_4">
     <g id="line2d_10">
      <g>
       <use xlink:href="#m9fc1ec3b87" x="144" y="191.358757" style="stroke: #000000; stroke-width: 0.8"/>
      </g>
     </g>
     <g id="text_10">
      <!-- 2.0 -->
      <g transform="translate(121.096875 195.157976) scale(0.1 -0.1)">
       <use xlink:href="#DejaVuSans-32"/>
       <use xlink:href="#DejaVuSans-2e" x="63.623047"/>
       <use xlink:href="#DejaVuSans-30" x="95.410156"/>
      </g>
     </g>
    </g>
    <g id="ytick_5">
     <g id="line2d_11">
      <g>
       <use xlink:href="#m9fc1ec3b87" x="144" y="156.228286" style="stroke: #000000; stroke-width: 0.8"/>
      </g>
     </g>
     <g id="text_11">
      <!-- 2.2 -->
      <g transform="translate(121.096875 160.027505) scale(0.1 -0.1)">
       <use xlink:href="#DejaVuSans-32"/>
       <use xlink:href="#DejaVuSans-2e" x="63.623047"/>
       <use xlink:href="#DejaVuSans-32" x="95.410156"/>
      </g>
     </g>
    </g>
    <g id="ytick_6">
     <g id="line2d_12">
      <g>
       <use xlink:href="#m9fc1ec3b87" x="144" y="121.097815" style="stroke: #000000; stroke-width: 0.8"/>
      </g>
     </g>
     <g id="text_12">
      <!-- 2.4 -->
      <g transform="translate(121.096875 124.897034) scale(0.1 -0.1)">
       <use xlink:href="#DejaVuSans-32"/>
       <use xlink:href="#DejaVuSans-2e" x="63.623047"/>
       <use xlink:href="#DejaVuSans-34" x="95.410156"/>
      </g>
     </g>
    </g>
    <g id="ytick_7">
     <g id="line2d_13">
      <g>
       <use xlink:href="#m9fc1ec3b87" x="144" y="85.967344" style="stroke: #000000; stroke-width: 0.8"/>
      </g>
     </g>
     <g id="text_13">
      <!-- 2.6 -->
      <g transform="translate(121.096875 89.766563) scale(0.1 -0.1)">
       <use xlink:href="#DejaVuSans-32"/>
       <use xlink:href="#DejaVuSans-2e" x="63.623047"/>
       <use xlink:href="#DejaVuSans-36" x="95.410156"/>
      </g>
     </g>
    </g>
   </g>
   <g id="line2d_14">
    <path d="M 144 191.358757 
L 145.488496 191.266089 
L 147.274692 190.909573 
L 150.251684 190.313408 
L 160.671157 188.418759 
L 167.518239 186.939465 
L 172.579126 185.637557 
L 178.235412 183.947096 
L 182.9986 182.310699 
L 188.357186 180.221869 
L 193.418073 178.011119 
L 198.47896 175.582438 
L 204.135245 172.617891 
L 209.791531 169.39226 
L 215.745515 165.706161 
L 222.592598 161.167389 
L 228.546582 156.94161 
L 235.691364 151.598318 
L 243.729243 145.320011 
L 259.209603 132.80624 
L 272.308369 122.374475 
L 278.857753 117.450894 
L 284.514038 113.45137 
L 290.170323 109.735394 
L 294.040413 107.42544 
L 295.826609 106.6297 
L 299.994398 104.920266 
L 305.948383 102.541008 
L 310.413871 100.988787 
L 314.581661 99.773881 
L 318.451751 98.861775 
L 322.024141 98.233381 
L 325.596532 97.833461 
L 329.168923 97.656305 
L 332.741314 97.694101 
L 336.016005 97.941851 
L 339.588396 98.421372 
L 343.160787 99.139818 
L 346.733178 100.092933 
L 350.305569 101.26511 
L 353.877959 102.684475 
L 357.748049 104.472847 
L 361.618139 106.52301 
L 365.785929 108.987917 
L 369.656019 111.535621 
L 373.823808 114.546108 
L 378.289296 118.038635 
L 382.754785 121.811912 
L 387.517973 126.126305 
L 392.28116 130.72059 
L 397.639747 136.204777 
L 402.998333 142.005546 
L 408.952317 148.787236 
L 414.906302 155.9184 
L 422.646482 165.582473 
L 429.195865 174.105151 
L 437.233745 184.942544 
L 447.355519 199.06135 
L 459.858886 216.355882 
L 469.385262 229.207791 
L 478.01854 240.460666 
L 484.270223 248.262585 
L 490.521907 255.698521 
L 495.582794 261.356814 
L 500.048283 266.019637 
L 504.216072 270.079411 
L 507.788463 273.275108 
L 511.063154 275.940377 
L 514.337846 278.33355 
L 517.314838 280.243329 
L 520.291831 281.883274 
L 522.971124 283.111054 
L 525.352718 283.969953 
L 527.734311 284.608567 
L 530.115905 285.009645 
L 532.497499 285.159397 
L 534.581394 285.083892 
L 536.665288 284.802079 
L 538.749183 284.292225 
L 540.833078 283.540841 
L 542.916972 282.54805 
L 545.000867 281.316854 
L 547.084762 279.837238 
L 549.168656 278.08556 
L 551.252551 276.067598 
L 553.634145 273.427454 
L 556.015739 270.426765 
L 558.397332 267.05906 
L 560.778926 263.324487 
L 563.458219 258.685867 
L 566.137513 253.600284 
L 569.114505 247.466467 
L 572.091497 240.8322 
L 575.366189 232.989714 
L 579.236279 223.106753 
L 583.701767 211.044322 
L 589.953451 193.459113 
L 599.777526 165.830458 
L 604.243014 153.986678 
L 608.113104 144.356377 
L 611.387796 136.764508 
L 614.364788 130.371221 
L 617.341781 124.504056 
L 620.021074 119.698123 
L 622.700367 115.35543 
L 625.081961 111.894276 
L 627.463555 108.804914 
L 629.845148 106.084161 
L 631.929043 104.006637 
L 634.012938 102.207376 
L 636.096832 100.676979 
L 638.180727 99.407079 
L 640.264622 98.394412 
L 642.348516 97.631544 
L 644.432411 97.10514 
L 646.516305 96.81104 
L 648.6002 96.736865 
L 650.684095 96.865985 
L 653.065689 97.251737 
L 655.447282 97.883608 
L 657.828876 98.745869 
L 660.508169 99.970867 
L 663.187462 101.436181 
L 666.164455 103.337582 
L 669.141447 105.50075 
L 672.416139 108.137945 
L 675.98853 111.309581 
L 679.85862 115.049918 
L 684.026409 119.373242 
L 688.789597 124.637525 
L 693.850483 130.570853 
L 699.804468 137.88551 
L 707.246949 147.448574 
L 715.582528 158.535142 
L 726.2997 173.186541 
L 753.092631 210.029585 
L 760.535112 219.64565 
L 767.084495 227.739979 
L 774.229276 236.174188 
L 779.885562 242.491963 
L 785.244148 248.171102 
L 790.305035 253.232419 
L 795.365922 258.005285 
L 800.12911 262.189766 
L 804.892297 266.078305 
L 809.060087 269.204322 
L 813.525575 272.27154 
L 817.991064 275.04859 
L 821.861154 277.171471 
L 825.731244 279.054918 
L 829.899033 280.795683 
L 833.471424 282.063342 
L 837.043815 283.080293 
L 840.616205 283.860452 
L 844.188596 284.414139 
L 847.463288 284.703471 
L 851.333378 284.824402 
L 854.608069 284.696098 
L 858.478159 284.309454 
L 861.752851 283.760891 
L 865.325242 282.930819 
L 869.195332 281.798769 
L 873.065422 280.418208 
L 876.637813 278.948855 
L 880.805602 276.974977 
L 885.27109 274.608425 
L 889.43888 272.150173 
L 894.202067 269.10395 
L 899.858353 265.196887 
L 906.705435 260.105492 
L 914.147916 254.278463 
L 930.521374 240.929744 
L 940.940847 232.549967 
L 949.574125 225.904803 
L 957.016606 220.513014 
L 963.565989 216.040505 
L 968.924575 212.609076 
L 974.58086 209.248195 
L 979.939446 206.308307 
L 985.595732 203.494465 
L 990.954318 201.055895 
L 996.312904 198.859141 
L 1001.373791 197.044469 
L 1006.136979 195.590224 
L 1011.495565 194.169836 
L 1015.961054 193.217174 
L 1021.617339 192.254466 
L 1026.678226 191.647058 
L 1031.143715 191.319942 
L 1036.8 191.180423 
L 1036.8 191.180423 
" clip-path="url(#pc6245160e6)" style="fill: none; stroke-dasharray: 5.55,2.4; stroke-dashoffset: 0; stroke: #ffa500; stroke-width: 1.5"/>
   </g>
   <g id="line2d_15">
    <path d="M 292.849617 106.900612 
L 304.757586 102.166872 
L 307.734578 101.162493 
L 310.711571 100.28097 
L 313.688563 99.526322 
L 316.665555 98.900337 
L 319.642548 98.418869 
L 322.61954 98.093447 
L 325.596532 97.932127 
L 328.573525 97.921009 
L 331.550517 98.062419 
L 334.527509 98.377905 
L 337.504502 98.84434 
L 340.481494 99.474603 
L 343.458486 100.269301 
L 346.435478 101.22516 
L 349.412471 102.329733 
L 352.389463 103.610369 
L 355.366455 105.039457 
L 358.343448 106.623299 
L 364.297432 110.212924 
L 367.274425 112.221724 
L 373.228409 116.653712 
L 379.182394 121.575696 
L 385.136379 126.97652 
L 391.090363 132.809821 
L 397.044348 139.048759 
L 402.998333 145.666758 
L 408.952317 152.625131 
L 414.906302 159.913624 
L 420.860287 167.44485 
L 426.814271 175.235144 
L 435.745248 187.349517 
L 462.538179 224.438822 
L 471.469156 236.294846 
L 477.423141 243.923659 
L 483.377126 251.246007 
L 489.33111 258.213915 
L 495.285095 264.694649 
L 501.23908 270.582003 
L 504.216072 273.271764 
L 507.193064 275.757517 
L 510.170057 278.016603 
L 513.147049 280.038041 
L 516.124041 281.793455 
L 519.101034 283.260348 
L 522.078026 284.418813 
L 525.055018 285.216563 
L 528.032011 285.64684 
L 531.009003 285.670587 
L 533.985995 285.281371 
L 536.962988 284.438589 
L 539.93998 283.096398 
L 542.916972 281.247813 
L 545.893965 278.891218 
L 548.870957 275.969904 
L 551.847949 272.492111 
L 554.824942 268.444237 
L 557.801934 263.824502 
L 560.778926 258.639651 
L 563.755919 252.894799 
L 566.732911 246.638811 
L 569.709903 239.89685 
L 572.686896 232.694433 
L 575.663888 225.092079 
L 581.617873 208.974423 
L 599.479827 158.976353 
L 602.456819 151.273545 
L 605.433811 143.957901 
L 608.410804 137.069733 
L 611.387796 130.672094 
L 614.364788 124.796843 
L 617.341781 119.478866 
L 620.318773 114.736245 
L 623.295765 110.579032 
L 626.272758 107.005241 
L 629.24975 104.003651 
L 632.226742 101.570423 
L 635.203735 99.677839 
L 638.180727 98.303955 
L 641.157719 97.434421 
L 644.134712 97.030929 
L 647.111704 97.073621 
L 650.088696 97.518957 
L 653.065689 98.341588 
L 656.042681 99.521419 
L 659.019673 101.026188 
L 661.996666 102.814896 
L 664.973658 104.87461 
L 667.95065 107.182998 
L 670.927643 109.700831 
L 673.904635 112.421944 
L 676.881627 115.328502 
L 682.835612 121.597508 
L 688.789597 128.378344 
L 694.743581 135.586937 
L 700.697566 143.119883 
L 709.628543 154.853205 
L 721.536512 171.056848 
L 748.329443 208.048946 
L 754.283428 215.855289 
L 760.237412 223.41258 
L 766.191397 230.664714 
L 772.145382 237.626446 
L 778.099366 244.229566 
L 784.053351 250.456978 
L 790.007336 256.269929 
L 795.96132 261.660001 
L 801.915305 266.573194 
L 804.892297 268.845075 
L 810.846282 272.981716 
L 816.800267 276.585705 
L 819.777259 278.149856 
L 822.754251 279.586166 
L 825.731244 280.85281 
L 828.708236 281.981405 
L 831.685228 282.960287 
L 834.662221 283.763623 
L 837.639213 284.400886 
L 840.616205 284.880563 
L 843.593198 285.199407 
L 846.57019 285.338672 
L 849.547182 285.347782 
L 852.524175 285.172311 
L 855.501167 284.839948 
L 858.478159 284.359245 
L 861.455152 283.703058 
L 864.432144 282.888829 
L 867.409136 281.939011 
L 873.363121 279.615111 
L 876.340113 278.236245 
L 882.294098 275.117489 
L 888.248083 271.547469 
L 894.202067 267.584653 
L 900.156052 263.295114 
L 909.087029 256.421568 
L 918.018006 249.199774 
L 935.87996 234.63332 
L 944.810937 227.690668 
L 950.764922 223.275754 
L 956.718906 219.06187 
L 962.672891 215.086843 
L 968.626876 211.38077 
L 974.58086 207.977189 
L 980.534845 204.882564 
L 986.48883 202.090308 
L 992.442814 199.593613 
L 998.396799 197.42678 
L 1004.350784 195.627374 
L 1010.304768 194.134125 
L 1016.258753 193.001287 
L 1022.212738 192.177719 
L 1028.166722 191.678686 
L 1034.120707 191.539732 
L 1034.120707 191.539732 
" clip-path="url(#pc6245160e6)" style="fill: none; stroke: #0000ff; stroke-opacity: 0.5; stroke-width: 1.5; stroke-linecap: square"/>
   </g>
   <g id="patch_3">
    <path d="M 144 304.56 
L 144 77.76 
" style="fill: none; stroke: #000000; stroke-width: 0.8; stroke-linejoin: miter; stroke-linecap: square"/>
   </g>
   <g id="patch_4">
    <path d="M 1036.8 304.56 
L 1036.8 77.76 
" style="fill: none; stroke: #000000; stroke-width: 0.8; stroke-linejoin: miter; stroke-linecap: square"/>
   </g>
   <g id="patch_5">
    <path d="M 144 304.56 
L 1036.8 304.56 
" style="fill: none; stroke: #000000; stroke-width: 0.8; stroke-linejoin: miter; stroke-linecap: square"/>
   </g>
   <g id="patch_6">
    <path d="M 144 77.76 
L 1036.8 77.76 
" style="fill: none; stroke: #000000; stroke-width: 0.8; stroke-linejoin: miter; stroke-linecap: square"/>
   </g>
   <g id="legend_1">
    <g id="patch_7">
     <path d="M 924.2 129.794375 
L 1029.8 129.794375 
Q 1031.8 129.794375 1031.8 127.794375 
L 1031.8 84.76 
Q 1031.8 82.76 1029.8 82.76 
L 924.2 82.76 
Q 922.2 82.76 922.2 84.76 
L 922.2 127.794375 
Q 922.2 129.794375 924.2 129.794375 
z
" style="fill: #ffffff; opacity: 0.8; stroke: #cccccc; stroke-linejoin: miter"/>
    </g>
    <g id="line2d_16">
     <path d="M 926.2 90.858437 
L 936.2 90.858437 
L 946.2 90.858437 
" style="fill: none; stroke-dasharray: 5.55,2.4; stroke-dashoffset: 0; stroke: #ffa500; stroke-width: 1.5"/>
    </g>
    <g id="text_14">
     <!-- Real $x$ Position -->
     <g transform="translate(954.2 94.358437) scale(0.1 -0.1)">
      <defs>
       <path id="DejaVuSans-52" d="M 2841 2188 
Q 3044 2119 3236 1894 
Q 3428 1669 3622 1275 
L 4263 0 
L 3584 0 
L 2988 1197 
Q 2756 1666 2539 1819 
Q 2322 1972 1947 1972 
L 1259 1972 
L 1259 0 
L 628 0 
L 628 4666 
L 2053 4666 
Q 2853 4666 3247 4331 
Q 3641 3997 3641 3322 
Q 3641 2881 3436 2590 
Q 3231 2300 2841 2188 
z
M 1259 4147 
L 1259 2491 
L 2053 2491 
Q 2509 2491 2742 2702 
Q 2975 2913 2975 3322 
Q 2975 3731 2742 3939 
Q 2509 4147 2053 4147 
L 1259 4147 
z
" transform="scale(0.015625)"/>
       <path id="DejaVuSans-65" d="M 3597 1894 
L 3597 1613 
L 953 1613 
Q 991 1019 1311 708 
Q 1631 397 2203 397 
Q 2534 397 2845 478 
Q 3156 559 3463 722 
L 3463 178 
Q 3153 47 2828 -22 
Q 2503 -91 2169 -91 
Q 1331 -91 842 396 
Q 353 884 353 1716 
Q 353 2575 817 3079 
Q 1281 3584 2069 3584 
Q 2775 3584 3186 3129 
Q 3597 2675 3597 1894 
z
M 3022 2063 
Q 3016 2534 2758 2815 
Q 2500 3097 2075 3097 
Q 1594 3097 1305 2825 
Q 1016 2553 972 2059 
L 3022 2063 
z
" transform="scale(0.015625)"/>
       <path id="DejaVuSans-61" d="M 2194 1759 
Q 1497 1759 1228 1600 
Q 959 1441 959 1056 
Q 959 750 1161 570 
Q 1363 391 1709 391 
Q 2188 391 2477 730 
Q 2766 1069 2766 1631 
L 2766 1759 
L 2194 1759 
z
M 3341 1997 
L 3341 0 
L 2766 0 
L 2766 531 
Q 2569 213 2275 61 
Q 1981 -91 1556 -91 
Q 1019 -91 701 211 
Q 384 513 384 1019 
Q 384 1609 779 1909 
Q 1175 2209 1959 2209 
L 2766 2209 
L 2766 2266 
Q 2766 2663 2505 2880 
Q 2244 3097 1772 3097 
Q 1472 3097 1187 3025 
Q 903 2953 641 2809 
L 641 3341 
Q 956 3463 1253 3523 
Q 1550 3584 1831 3584 
Q 2591 3584 2966 3190 
Q 3341 2797 3341 1997 
z
" transform="scale(0.015625)"/>
       <path id="DejaVuSans-6c" d="M 603 4863 
L 1178 4863 
L 1178 0 
L 603 0 
L 603 4863 
z
" transform="scale(0.015625)"/>
       <path id="DejaVuSans-20" transform="scale(0.015625)"/>
       <path id="DejaVuSans-Oblique-78" d="M 3841 3500 
L 2234 1784 
L 3219 0 
L 2559 0 
L 1819 1388 
L 531 0 
L -166 0 
L 1556 1844 
L 641 3500 
L 1300 3500 
L 1972 2234 
L 3144 3500 
L 3841 3500 
z
" transform="scale(0.015625)"/>
       <path id="DejaVuSans-50" d="M 1259 4147 
L 1259 2394 
L 2053 2394 
Q 2494 2394 2734 2622 
Q 2975 2850 2975 3272 
Q 2975 3691 2734 3919 
Q 2494 4147 2053 4147 
L 1259 4147 
z
M 628 4666 
L 2053 4666 
Q 2838 4666 3239 4311 
Q 3641 3956 3641 3272 
Q 3641 2581 3239 2228 
Q 2838 1875 2053 1875 
L 1259 1875 
L 1259 0 
L 628 0 
L 628 4666 
z
" transform="scale(0.015625)"/>
       <path id="DejaVuSans-6f" d="M 1959 3097 
Q 1497 3097 1228 2736 
Q 959 2375 959 1747 
Q 959 1119 1226 758 
Q 1494 397 1959 397 
Q 2419 397 2687 759 
Q 2956 1122 2956 1747 
Q 2956 2369 2687 2733 
Q 2419 3097 1959 3097 
z
M 1959 3584 
Q 2709 3584 3137 3096 
Q 3566 2609 3566 1747 
Q 3566 888 3137 398 
Q 2709 -91 1959 -91 
Q 1206 -91 779 398 
Q 353 888 353 1747 
Q 353 2609 779 3096 
Q 1206 3584 1959 3584 
z
" transform="scale(0.015625)"/>
       <path id="DejaVuSans-73" d="M 2834 3397 
L 2834 2853 
Q 2591 2978 2328 3040 
Q 2066 3103 1784 3103 
Q 1356 3103 1142 2972 
Q 928 2841 928 2578 
Q 928 2378 1081 2264 
Q 1234 2150 1697 2047 
L 1894 2003 
Q 2506 1872 2764 1633 
Q 3022 1394 3022 966 
Q 3022 478 2636 193 
Q 2250 -91 1575 -91 
Q 1294 -91 989 -36 
Q 684 19 347 128 
L 347 722 
Q 666 556 975 473 
Q 1284 391 1588 391 
Q 1994 391 2212 530 
Q 2431 669 2431 922 
Q 2431 1156 2273 1281 
Q 2116 1406 1581 1522 
L 1381 1569 
Q 847 1681 609 1914 
Q 372 2147 372 2553 
Q 372 3047 722 3315 
Q 1072 3584 1716 3584 
Q 2034 3584 2315 3537 
Q 2597 3491 2834 3397 
z
" transform="scale(0.015625)"/>
       <path id="DejaVuSans-69" d="M 603 3500 
L 1178 3500 
L 1178 0 
L 603 0 
L 603 3500 
z
M 603 4863 
L 1178 4863 
L 1178 4134 
L 603 4134 
L 603 4863 
z
" transform="scale(0.015625)"/>
       <path id="DejaVuSans-74" d="M 1172 4494 
L 1172 3500 
L 2356 3500 
L 2356 3053 
L 1172 3053 
L 1172 1153 
Q 1172 725 1289 603 
Q 1406 481 1766 481 
L 2356 481 
L 2356 0 
L 1766 0 
Q 1100 0 847 248 
Q 594 497 594 1153 
L 594 3053 
L 172 3053 
L 172 3500 
L 594 3500 
L 594 4494 
L 1172 4494 
z
" transform="scale(0.015625)"/>
       <path id="DejaVuSans-6e" d="M 3513 2113 
L 3513 0 
L 2938 0 
L 2938 2094 
Q 2938 2591 2744 2837 
Q 2550 3084 2163 3084 
Q 1697 3084 1428 2787 
Q 1159 2491 1159 1978 
L 1159 0 
L 581 0 
L 581 3500 
L 1159 3500 
L 1159 2956 
Q 1366 3272 1645 3428 
Q 1925 3584 2291 3584 
Q 2894 3584 3203 3211 
Q 3513 2838 3513 2113 
z
" transform="scale(0.015625)"/>
      </defs>
      <use xlink:href="#DejaVuSans-52" transform="translate(0 0.015625)"/>
      <use xlink:href="#DejaVuSans-65" transform="translate(69.482422 0.015625)"/>
      <use xlink:href="#DejaVuSans-61" transform="translate(131.005859 0.015625)"/>
      <use xlink:href="#DejaVuSans-6c" transform="translate(192.285156 0.015625)"/>
      <use xlink:href="#DejaVuSans-20" transform="translate(220.068359 0.015625)"/>
      <use xlink:href="#DejaVuSans-Oblique-78" transform="translate(251.855469 0.015625)"/>
      <use xlink:href="#DejaVuSans-20" transform="translate(311.035156 0.015625)"/>
      <use xlink:href="#DejaVuSans-50" transform="translate(342.822266 0.015625)"/>
      <use xlink:href="#DejaVuSans-6f" transform="translate(403.125 0.015625)"/>
      <use xlink:href="#DejaVuSans-73" transform="translate(464.306641 0.015625)"/>
      <use xlink:href="#DejaVuSans-69" transform="translate(516.40625 0.015625)"/>
      <use xlink:href="#DejaVuSans-74" transform="translate(544.189453 0.015625)"/>
      <use xlink:href="#DejaVuSans-69" transform="translate(583.398438 0.015625)"/>
      <use xlink:href="#DejaVuSans-6f" transform="translate(611.181641 0.015625)"/>
      <use xlink:href="#DejaVuSans-6e" transform="translate(672.363281 0.015625)"/>
     </g>
    </g>
    <g id="line2d_17">
     <path d="M 926.2 105.536562 
L 936.2 105.536562 
L 946.2 105.536562 
" style="fill: none; stroke: #0000ff; stroke-opacity: 0.5; stroke-width: 1.5; stroke-linecap: square"/>
    </g>
    <g id="text_15">
     <!-- Prediction $x$ -->
     <g transform="translate(954.2 109.036562) scale(0.1 -0.1)">
      <defs>
       <path id="DejaVuSans-72" d="M 2631 2963 
Q 2534 3019 2420 3045 
Q 2306 3072 2169 3072 
Q 1681 3072 1420 2755 
Q 1159 2438 1159 1844 
L 1159 0 
L 581 0 
L 581 3500 
L 1159 3500 
L 1159 2956 
Q 1341 3275 1631 3429 
Q 1922 3584 2338 3584 
Q 2397 3584 2469 3576 
Q 2541 3569 2628 3553 
L 2631 2963 
z
" transform="scale(0.015625)"/>
       <path id="DejaVuSans-64" d="M 2906 2969 
L 2906 4863 
L 3481 4863 
L 3481 0 
L 2906 0 
L 2906 525 
Q 2725 213 2448 61 
Q 2172 -91 1784 -91 
Q 1150 -91 751 415 
Q 353 922 353 1747 
Q 353 2572 751 3078 
Q 1150 3584 1784 3584 
Q 2172 3584 2448 3432 
Q 2725 3281 2906 2969 
z
M 947 1747 
Q 947 1113 1208 752 
Q 1469 391 1925 391 
Q 2381 391 2643 752 
Q 2906 1113 2906 1747 
Q 2906 2381 2643 2742 
Q 2381 3103 1925 3103 
Q 1469 3103 1208 2742 
Q 947 2381 947 1747 
z
" transform="scale(0.015625)"/>
       <path id="DejaVuSans-63" d="M 3122 3366 
L 3122 2828 
Q 2878 2963 2633 3030 
Q 2388 3097 2138 3097 
Q 1578 3097 1268 2742 
Q 959 2388 959 1747 
Q 959 1106 1268 751 
Q 1578 397 2138 397 
Q 2388 397 2633 464 
Q 2878 531 3122 666 
L 3122 134 
Q 2881 22 2623 -34 
Q 2366 -91 2075 -91 
Q 1284 -91 818 406 
Q 353 903 353 1747 
Q 353 2603 823 3093 
Q 1294 3584 2113 3584 
Q 2378 3584 2631 3529 
Q 2884 3475 3122 3366 
z
" transform="scale(0.015625)"/>
      </defs>
      <use xlink:href="#DejaVuSans-50" transform="translate(0 0.015625)"/>
      <use xlink:href="#DejaVuSans-72" transform="translate(60.302734 0.015625)"/>
      <use xlink:href="#DejaVuSans-65" transform="translate(101.416016 0.015625)"/>
      <use xlink:href="#DejaVuSans-64" transform="translate(162.939453 0.015625)"/>
      <use xlink:href="#DejaVuSans-69" transform="translate(226.416016 0.015625)"/>
      <use xlink:href="#DejaVuSans-63" transform="translate(254.199219 0.015625)"/>
      <use xlink:href="#DejaVuSans-74" transform="translate(309.179688 0.015625)"/>
      <use xlink:href="#DejaVuSans-69" transform="translate(348.388672 0.015625)"/>
      <use xlink:href="#DejaVuSans-6f" transform="translate(376.171875 0.015625)"/>
      <use xlink:href="#DejaVuSans-6e" transform="translate(437.353516 0.015625)"/>
      <use xlink:href="#DejaVuSans-20" transform="translate(500.732422 0.015625)"/>
      <use xlink:href="#DejaVuSans-Oblique-78" transform="translate(532.519531 0.015625)"/>
     </g>
    </g>
    <g id="patch_8">
     <path d="M 926.2 123.714687 
L 946.2 123.714687 
L 946.2 116.714687 
L 926.2 116.714687 
z
" style="fill: #00ffff; fill-opacity: 0.5; stroke: #00ffff; stroke-opacity: 0.5; stroke-linejoin: miter"/>
    </g>
    <g id="text_16">
     <!-- Confidence -->
     <g transform="translate(954.2 123.714687) scale(0.1 -0.1)">
      <defs>
       <path id="DejaVuSans-43" d="M 4122 4306 
L 4122 3641 
Q 3803 3938 3442 4084 
Q 3081 4231 2675 4231 
Q 1875 4231 1450 3742 
Q 1025 3253 1025 2328 
Q 1025 1406 1450 917 
Q 1875 428 2675 428 
Q 3081 428 3442 575 
Q 3803 722 4122 1019 
L 4122 359 
Q 3791 134 3420 21 
Q 3050 -91 2638 -91 
Q 1578 -91 968 557 
Q 359 1206 359 2328 
Q 359 3453 968 4101 
Q 1578 4750 2638 4750 
Q 3056 4750 3426 4639 
Q 3797 4528 4122 4306 
z
" transform="scale(0.015625)"/>
       <path id="DejaVuSans-66" d="M 2375 4863 
L 2375 4384 
L 1825 4384 
Q 1516 4384 1395 4259 
Q 1275 4134 1275 3809 
L 1275 3500 
L 2222 3500 
L 2222 3053 
L 1275 3053 
L 1275 0 
L 697 0 
L 697 3053 
L 147 3053 
L 147 3500 
L 697 3500 
L 697 3744 
Q 697 4328 969 4595 
Q 1241 4863 1831 4863 
L 2375 4863 
z
" transform="scale(0.015625)"/>
      </defs>
      <use xlink:href="#DejaVuSans-43"/>
      <use xlink:href="#DejaVuSans-6f" x="69.824219"/>
      <use xlink:href="#DejaVuSans-6e" x="131.005859"/>
      <use xlink:href="#DejaVuSans-66" x="194.384766"/>
      <use xlink:href="#DejaVuSans-69" x="229.589844"/>
      <use xlink:href="#DejaVuSans-64" x="257.373047"/>
      <use xlink:href="#DejaVuSans-65" x="320.849609"/>
      <use xlink:href="#DejaVuSans-6e" x="382.373047"/>
      <use xlink:href="#DejaVuSans-63" x="445.751953"/>
      <use xlink:href="#DejaVuSans-65" x="500.732422"/>
     </g>
    </g>
   </g>
  </g>
  <g id="axes_2">
   <g id="patch_9">
    <path d="M 144 576.72 
L 1036.8 576.72 
L 1036.8 349.92 
L 144 349.92 
z
" style="fill: #ffffff"/>
   </g>
   <g id="matplotlib.axis_3">
    <g id="xtick_7">
     <g id="line2d_18">
      <g>
       <use xlink:href="#ma3089d24ce" x="144" y="576.72" style="stroke: #000000; stroke-width: 0.8"/>
      </g>
     </g>
     <g id="text_17">
      <!-- 0 -->
      <g transform="translate(140.81875 591.318438) scale(0.1 -0.1)">
       <use xlink:href="#DejaVuSans-30"/>
      </g>
     </g>
    </g>
    <g id="xtick_8">
     <g id="line2d_19">
      <g>
       <use xlink:href="#ma3089d24ce" x="292.849617" y="576.72" style="stroke: #000000; stroke-width: 0.8"/>
      </g>
     </g>
     <g id="text_18">
      <!-- 5 -->
      <g transform="translate(289.668367 591.318438) scale(0.1 -0.1)">
       <use xlink:href="#DejaVuSans-35"/>
      </g>
     </g>
    </g>
    <g id="xtick_9">
     <g id="line2d_20">
      <g>
       <use xlink:href="#ma3089d24ce" x="441.699233" y="576.72" style="stroke: #000000; stroke-width: 0.8"/>
      </g>
     </g>
     <g id="text_19">
      <!-- 10 -->
      <g transform="translate(435.336733 591.318438) scale(0.1 -0.1)">
       <use xlink:href="#DejaVuSans-31"/>
       <use xlink:href="#DejaVuSans-30" x="63.623047"/>
      </g>
     </g>
    </g>
    <g id="xtick_10">
     <g id="line2d_21">
      <g>
       <use xlink:href="#ma3089d24ce" x="590.54885" y="576.72" style="stroke: #000000; stroke-width: 0.8"/>
      </g>
     </g>
     <g id="text_20">
      <!-- 15 -->
      <g transform="translate(584.18635 591.318438) scale(0.1 -0.1)">
       <use xlink:href="#DejaVuSans-31"/>
       <use xlink:href="#DejaVuSans-35" x="63.623047"/>
      </g>
     </g>
    </g>
    <g id="xtick_11">
     <g id="line2d_22">
      <g>
       <use xlink:href="#ma3089d24ce" x="739.398466" y="576.72" style="stroke: #000000; stroke-width: 0.8"/>
      </g>
     </g>
     <g id="text_21">
      <!-- 20 -->
      <g transform="translate(733.035966 591.318438) scale(0.1 -0.1)">
       <use xlink:href="#DejaVuSans-32"/>
       <use xlink:href="#DejaVuSans-30" x="63.623047"/>
      </g>
     </g>
    </g>
    <g id="xtick_12">
     <g id="line2d_23">
      <g>
       <use xlink:href="#ma3089d24ce" x="888.248083" y="576.72" style="stroke: #000000; stroke-width: 0.8"/>
      </g>
     </g>
     <g id="text_22">
      <!-- 25 -->
      <g transform="translate(881.885583 591.318438) scale(0.1 -0.1)">
       <use xlink:href="#DejaVuSans-32"/>
       <use xlink:href="#DejaVuSans-35" x="63.623047"/>
      </g>
     </g>
    </g>
   </g>
   <g id="matplotlib.axis_4">
    <g id="ytick_8">
     <g id="line2d_24">
      <g>
       <use xlink:href="#m9fc1ec3b87" x="144" y="548.843108" style="stroke: #000000; stroke-width: 0.8"/>
      </g>
     </g>
     <g id="text_23">
      <!-- −0.04 -->
      <g transform="translate(106.354687 552.642327) scale(0.1 -0.1)">
       <defs>
        <path id="DejaVuSans-2212" d="M 678 2272 
L 4684 2272 
L 4684 1741 
L 678 1741 
L 678 2272 
z
" transform="scale(0.015625)"/>
       </defs>
       <use xlink:href="#DejaVuSans-2212"/>
       <use xlink:href="#DejaVuSans-30" x="83.789062"/>
       <use xlink:href="#DejaVuSans-2e" x="147.412109"/>
       <use xlink:href="#DejaVuSans-30" x="179.199219"/>
       <use xlink:href="#DejaVuSans-34" x="242.822266"/>
      </g>
     </g>
    </g>
    <g id="ytick_9">
     <g id="line2d_25">
      <g>
       <use xlink:href="#m9fc1ec3b87" x="144" y="520.222841" style="stroke: #000000; stroke-width: 0.8"/>
      </g>
     </g>
     <g id="text_24">
      <!-- −0.03 -->
      <g transform="translate(106.354687 524.02206) scale(0.1 -0.1)">
       <defs>
        <path id="DejaVuSans-33" d="M 2597 2516 
Q 3050 2419 3304 2112 
Q 3559 1806 3559 1356 
Q 3559 666 3084 287 
Q 2609 -91 1734 -91 
Q 1441 -91 1130 -33 
Q 819 25 488 141 
L 488 750 
Q 750 597 1062 519 
Q 1375 441 1716 441 
Q 2309 441 2620 675 
Q 2931 909 2931 1356 
Q 2931 1769 2642 2001 
Q 2353 2234 1838 2234 
L 1294 2234 
L 1294 2753 
L 1863 2753 
Q 2328 2753 2575 2939 
Q 2822 3125 2822 3475 
Q 2822 3834 2567 4026 
Q 2313 4219 1838 4219 
Q 1578 4219 1281 4162 
Q 984 4106 628 3988 
L 628 4550 
Q 988 4650 1302 4700 
Q 1616 4750 1894 4750 
Q 2613 4750 3031 4423 
Q 3450 4097 3450 3541 
Q 3450 3153 3228 2886 
Q 3006 2619 2597 2516 
z
" transform="scale(0.015625)"/>
       </defs>
       <use xlink:href="#DejaVuSans-2212"/>
       <use xlink:href="#DejaVuSans-30" x="83.789062"/>
       <use xlink:href="#DejaVuSans-2e" x="147.412109"/>
       <use xlink:href="#DejaVuSans-30" x="179.199219"/>
       <use xlink:href="#DejaVuSans-33" x="242.822266"/>
      </g>
     </g>
    </g>
    <g id="ytick_10">
     <g id="line2d_26">
      <g>
       <use xlink:href="#m9fc1ec3b87" x="144" y="491.602575" style="stroke: #000000; stroke-width: 0.8"/>
      </g>
     </g>
     <g id="text_25">
      <!-- −0.02 -->
      <g transform="translate(106.354687 495.401793) scale(0.1 -0.1)">
       <use xlink:href="#DejaVuSans-2212"/>
       <use xlink:href="#DejaVuSans-30" x="83.789062"/>
       <use xlink:href="#DejaVuSans-2e" x="147.412109"/>
       <use xlink:href="#DejaVuSans-30" x="179.199219"/>
       <use xlink:href="#DejaVuSans-32" x="242.822266"/>
      </g>
     </g>
    </g>
    <g id="ytick_11">
     <g id="line2d_27">
      <g>
       <use xlink:href="#m9fc1ec3b87" x="144" y="462.982308" style="stroke: #000000; stroke-width: 0.8"/>
      </g>
     </g>
     <g id="text_26">
      <!-- −0.01 -->
      <g transform="translate(106.354687 466.781527) scale(0.1 -0.1)">
       <use xlink:href="#DejaVuSans-2212"/>
       <use xlink:href="#DejaVuSans-30" x="83.789062"/>
       <use xlink:href="#DejaVuSans-2e" x="147.412109"/>
       <use xlink:href="#DejaVuSans-30" x="179.199219"/>
       <use xlink:href="#DejaVuSans-31" x="242.822266"/>
      </g>
     </g>
    </g>
    <g id="ytick_12">
     <g id="line2d_28">
      <g>
       <use xlink:href="#m9fc1ec3b87" x="144" y="434.362041" style="stroke: #000000; stroke-width: 0.8"/>
      </g>
     </g>
     <g id="text_27">
      <!-- 0.00 -->
      <g transform="translate(114.734375 438.16126) scale(0.1 -0.1)">
       <use xlink:href="#DejaVuSans-30"/>
       <use xlink:href="#DejaVuSans-2e" x="63.623047"/>
       <use xlink:href="#DejaVuSans-30" x="95.410156"/>
       <use xlink:href="#DejaVuSans-30" x="159.033203"/>
      </g>
     </g>
    </g>
    <g id="ytick_13">
     <g id="line2d_29">
      <g>
       <use xlink:href="#m9fc1ec3b87" x="144" y="405.741775" style="stroke: #000000; stroke-width: 0.8"/>
      </g>
     </g>
     <g id="text_28">
      <!-- 0.01 -->
      <g transform="translate(114.734375 409.540993) scale(0.1 -0.1)">
       <use xlink:href="#DejaVuSans-30"/>
       <use xlink:href="#DejaVuSans-2e" x="63.623047"/>
       <use xlink:href="#DejaVuSans-30" x="95.410156"/>
       <use xlink:href="#DejaVuSans-31" x="159.033203"/>
      </g>
     </g>
    </g>
    <g id="ytick_14">
     <g id="line2d_30">
      <g>
       <use xlink:href="#m9fc1ec3b87" x="144" y="377.121508" style="stroke: #000000; stroke-width: 0.8"/>
      </g>
     </g>
     <g id="text_29">
      <!-- 0.02 -->
      <g transform="translate(114.734375 380.920727) scale(0.1 -0.1)">
       <use xlink:href="#DejaVuSans-30"/>
       <use xlink:href="#DejaVuSans-2e" x="63.623047"/>
       <use xlink:href="#DejaVuSans-30" x="95.410156"/>
       <use xlink:href="#DejaVuSans-32" x="159.033203"/>
      </g>
     </g>
    </g>
   </g>
   <g id="line2d_31">
    <path d="M 144 453.688571 
L 173.769923 449.53715 
L 203.539847 450.14709 
L 233.30977 449.143768 
L 263.079693 447.85858 
L 292.849617 446.205688 
L 322.61954 444.354348 
L 352.389463 442.321172 
L 382.159386 440.148591 
L 441.699233 435.286665 
L 531.009003 427.741205 
L 560.778926 425.018618 
L 590.54885 422.472322 
L 650.088696 417.107537 
L 769.168389 406.696713 
L 828.708236 401.784845 
L 858.478159 399.55098 
L 888.248083 397.133988 
L 947.787929 392.75714 
L 1037.097699 386.726438 
L 1066.867623 384.791187 
L 1153 379.652463 
L 1153 379.652463 
" clip-path="url(#pfee4099cba)" style="fill: none; stroke: #1f77b4; stroke-width: 1.5; stroke-linecap: square"/>
   </g>
   <g id="patch_10">
    <path d="M 144 576.72 
L 144 349.92 
" style="fill: none; stroke: #000000; stroke-width: 0.8; stroke-linejoin: miter; stroke-linecap: square"/>
   </g>
   <g id="patch_11">
    <path d="M 1036.8 576.72 
L 1036.8 349.92 
" style="fill: none; stroke: #000000; stroke-width: 0.8; stroke-linejoin: miter; stroke-linecap: square"/>
   </g>
   <g id="patch_12">
    <path d="M 144 576.72 
L 1036.8 576.72 
" style="fill: none; stroke: #000000; stroke-width: 0.8; stroke-linejoin: miter; stroke-linecap: square"/>
   </g>
   <g id="patch_13">
    <path d="M 144 349.92 
L 1036.8 349.92 
" style="fill: none; stroke: #000000; stroke-width: 0.8; stroke-linejoin: miter; stroke-linecap: square"/>
   </g>
   <g id="legend_2">
    <g id="patch_14">
     <path d="M 920.578125 372.598125 
L 1029.8 372.598125 
Q 1031.8 372.598125 1031.8 370.598125 
L 1031.8 356.92 
Q 1031.8 354.92 1029.8 354.92 
L 920.578125 354.92 
Q 918.578125 354.92 918.578125 356.92 
L 918.578125 370.598125 
Q 918.578125 372.598125 920.578125 372.598125 
z
" style="fill: #ffffff; opacity: 0.8; stroke: #cccccc; stroke-linejoin: miter"/>
    </g>
    <g id="line2d_32">
     <path d="M 922.578125 363.018437 
L 932.578125 363.018437 
L 942.578125 363.018437 
" style="fill: none; stroke: #1f77b4; stroke-width: 1.5; stroke-linecap: square"/>
    </g>
    <g id="text_30">
     <!-- Prediction Error -->
     <g transform="translate(950.578125 366.518437) scale(0.1 -0.1)">
      <defs>
       <path id="DejaVuSans-45" d="M 628 4666 
L 3578 4666 
L 3578 4134 
L 1259 4134 
L 1259 2753 
L 3481 2753 
L 3481 2222 
L 1259 2222 
L 1259 531 
L 3634 531 
L 3634 0 
L 628 0 
L 628 4666 
z
" transform="scale(0.015625)"/>
      </defs>
      <use xlink:href="#DejaVuSans-50"/>
      <use xlink:href="#DejaVuSans-72" x="58.552734"/>
      <use xlink:href="#DejaVuSans-65" x="97.416016"/>
      <use xlink:href="#DejaVuSans-64" x="158.939453"/>
      <use xlink:href="#DejaVuSans-69" x="222.416016"/>
      <use xlink:href="#DejaVuSans-63" x="250.199219"/>
      <use xlink:href="#DejaVuSans-74" x="305.179688"/>
      <use xlink:href="#DejaVuSans-69" x="344.388672"/>
      <use xlink:href="#DejaVuSans-6f" x="372.171875"/>
      <use xlink:href="#DejaVuSans-6e" x="433.353516"/>
      <use xlink:href="#DejaVuSans-20" x="496.732422"/>
      <use xlink:href="#DejaVuSans-45" x="528.519531"/>
      <use xlink:href="#DejaVuSans-72" x="591.703125"/>
      <use xlink:href="#DejaVuSans-72" x="631.066406"/>
      <use xlink:href="#DejaVuSans-6f" x="669.929688"/>
      <use xlink:href="#DejaVuSans-72" x="731.111328"/>
     </g>
    </g>
   </g>
  </g>
  <g id="text_31">
   <!-- $x$-Position Prediction -->
   <g transform="translate(514.74 22.078125) scale(0.12 -0.12)">
    <defs>
     <path id="DejaVuSans-2d" d="M 313 2009 
L 1997 2009 
L 1997 1497 
L 313 1497 
L 313 2009 
z
" transform="scale(0.015625)"/>
    </defs>
    <use xlink:href="#DejaVuSans-Oblique-78" transform="translate(0 0.015625)"/>
    <use xlink:href="#DejaVuSans-2d" transform="translate(59.179688 0.015625)"/>
    <use xlink:href="#DejaVuSans-50" transform="translate(95.263672 0.015625)"/>
    <use xlink:href="#DejaVuSans-6f" transform="translate(155.566406 0.015625)"/>
    <use xlink:href="#DejaVuSans-73" transform="translate(216.748047 0.015625)"/>
    <use xlink:href="#DejaVuSans-69" transform="translate(268.847656 0.015625)"/>
    <use xlink:href="#DejaVuSans-74" transform="translate(296.630859 0.015625)"/>
    <use xlink:href="#DejaVuSans-69" transform="translate(335.839844 0.015625)"/>
    <use xlink:href="#DejaVuSans-6f" transform="translate(363.623047 0.015625)"/>
    <use xlink:href="#DejaVuSans-6e" transform="translate(424.804688 0.015625)"/>
    <use xlink:href="#DejaVuSans-20" transform="translate(488.183594 0.015625)"/>
    <use xlink:href="#DejaVuSans-50" transform="translate(519.970703 0.015625)"/>
    <use xlink:href="#DejaVuSans-72" transform="translate(580.273438 0.015625)"/>
    <use xlink:href="#DejaVuSans-65" transform="translate(621.386719 0.015625)"/>
    <use xlink:href="#DejaVuSans-64" transform="translate(682.910156 0.015625)"/>
    <use xlink:href="#DejaVuSans-69" transform="translate(746.386719 0.015625)"/>
    <use xlink:href="#DejaVuSans-63" transform="translate(774.169922 0.015625)"/>
    <use xlink:href="#DejaVuSans-74" transform="translate(829.150391 0.015625)"/>
    <use xlink:href="#DejaVuSans-69" transform="translate(868.359375 0.015625)"/>
    <use xlink:href="#DejaVuSans-6f" transform="translate(896.142578 0.015625)"/>
    <use xlink:href="#DejaVuSans-6e" transform="translate(957.324219 0.015625)"/>
   </g>
  </g>
 </g>
 <defs>
  <clipPath id="pc6245160e6">
   <rect x="144" y="77.76" width="892.8" height="226.8"/>
  </clipPath>
  <clipPath id="pfee4099cba">
   <rect x="144" y="349.92" width="892.8" height="226.8"/>
  </clipPath>
 </defs>
</svg>
