<?xml version="1.0" encoding="utf-8" standalone="no"?>
<!DOCTYPE svg PUBLIC "-//W3C//DTD SVG 1.1//EN"
  "http://www.w3.org/Graphics/SVG/1.1/DTD/svg11.dtd">
<svg xmlns:xlink="http://www.w3.org/1999/xlink" width="1152pt" height="648pt" viewBox="0 0 1152 648" xmlns="http://www.w3.org/2000/svg" version="1.1">
 <metadata>
  <rdf:RDF xmlns:dc="http://purl.org/dc/elements/1.1/" xmlns:cc="http://creativecommons.org/ns#" xmlns:rdf="http://www.w3.org/1999/02/22-rdf-syntax-ns#">
   <cc:Work>
    <dc:type rdf:resource="http://purl.org/dc/dcmitype/StillImage"/>
    <dc:date>2024-06-20T12:46:21.944962</dc:date>
    <dc:format>image/svg+xml</dc:format>
    <dc:creator>
     <cc:Agent>
      <dc:title>Matplotlib v3.9.0, https://matplotlib.org/</dc:title>
     </cc:Agent>
    </dc:creator>
   </cc:Work>
  </rdf:RDF>
 </metadata>
 <defs>
  <style type="text/css">*{stroke-linejoin: round; stroke-linecap: butt}</style>
 </defs>
 <g id="figure_1">
  <g id="patch_1">
   <path d="M 0 648 
L 1152 648 
L 1152 0 
L 0 0 
z
" style="fill: #ffffff"/>
  </g>
  <g id="axes_1">
   <g id="patch_2">
    <path d="M 144 304.56 
L 1036.8 304.56 
L 1036.8 77.76 
L 144 77.76 
z
" style="fill: #ffffff"/>
   </g>
   <g id="PolyCollection_1">
    <defs>
     <path id="m38077853c5" d="M 292.849617 -502.967136 
L 292.849617 -496.555315 
L 295.826609 -494.645688 
L 298.803601 -492.816546 
L 301.780594 -491.020088 
L 304.757586 -489.253639 
L 307.734578 -487.525749 
L 310.711571 -485.815143 
L 313.688563 -484.138194 
L 316.665555 -482.491459 
L 319.642548 -480.876333 
L 322.61954 -479.293307 
L 325.596532 -477.739909 
L 328.573525 -476.233822 
L 331.550517 -474.756352 
L 334.527509 -473.328111 
L 337.504502 -471.941388 
L 340.481494 -470.598996 
L 343.458486 -469.310539 
L 346.435478 -468.073893 
L 349.412471 -466.887881 
L 352.389463 -465.7549 
L 355.366455 -464.686844 
L 358.343448 -463.674621 
L 361.32044 -462.718012 
L 364.297432 -461.818322 
L 367.274425 -460.980348 
L 370.251417 -460.205726 
L 373.228409 -459.479095 
L 376.205402 -458.813309 
L 379.182394 -458.19534 
L 382.159386 -457.630889 
L 385.136379 -457.116941 
L 388.113371 -456.646193 
L 391.090363 -456.228232 
L 394.067356 -455.852663 
L 397.044348 -455.520466 
L 400.02134 -455.229486 
L 402.998333 -454.971317 
L 405.975325 -454.759894 
L 408.952317 -454.579446 
L 411.92931 -454.429176 
L 414.906302 -454.309038 
L 417.883294 -454.208989 
L 420.860287 -454.133339 
L 423.837279 -454.079497 
L 426.814271 -454.041357 
L 429.791264 -454.017446 
L 432.768256 -454.010666 
L 435.745248 -454.009425 
L 438.722241 -454.01484 
L 441.699233 -454.014332 
L 444.676225 -454.013569 
L 447.653218 -454.003415 
L 450.63021 -453.985523 
L 453.607202 -453.957197 
L 456.584195 -453.911402 
L 459.561187 -453.834137 
L 462.538179 -453.732146 
L 465.515172 -453.592618 
L 468.492164 -453.417003 
L 471.469156 -453.196363 
L 474.446149 -452.927492 
L 477.423141 -452.594582 
L 480.400133 -452.209985 
L 483.377126 -451.761505 
L 486.354118 -451.234996 
L 489.33111 -450.630704 
L 492.308103 -449.947767 
L 495.285095 -449.170648 
L 498.262087 -448.295127 
L 501.23908 -447.316595 
L 504.216072 -446.2221 
L 507.193064 -445.017724 
L 510.170057 -443.684301 
L 513.147049 -442.22029 
L 516.124041 -440.616249 
L 519.101034 -438.865808 
L 522.078026 -436.961977 
L 525.055018 -434.912072 
L 528.032011 -432.694157 
L 531.009003 -430.313904 
L 533.985995 -427.770661 
L 536.962988 -425.057648 
L 539.93998 -422.17905 
L 542.916972 -419.14122 
L 545.893965 -415.948569 
L 548.870957 -412.615513 
L 551.847949 -409.150001 
L 554.824942 -405.571465 
L 557.801934 -401.89468 
L 560.778926 -398.140281 
L 563.755919 -394.34155 
L 566.732911 -390.529628 
L 569.709903 -386.743165 
L 572.686896 -383.010757 
L 575.663888 -379.357123 
L 578.64088 -375.828933 
L 581.617873 -372.464343 
L 584.594865 -369.293712 
L 587.571857 -366.364403 
L 590.54885 -363.678414 
L 593.525842 -361.286928 
L 596.502834 -359.191806 
L 599.479827 -357.427907 
L 602.456819 -355.999372 
L 605.433811 -354.919608 
L 608.410804 -354.19475 
L 611.387796 -353.811252 
L 614.364788 -353.749091 
L 617.341781 -354.010087 
L 620.318773 -354.595327 
L 623.295765 -355.46285 
L 626.272758 -356.596334 
L 629.24975 -357.976629 
L 632.226742 -359.587001 
L 635.203735 -361.402806 
L 638.180727 -363.398199 
L 641.157719 -365.563228 
L 644.134712 -367.860214 
L 647.111704 -370.286074 
L 650.088696 -372.820963 
L 653.065689 -375.434751 
L 656.042681 -378.118335 
L 659.019673 -380.868819 
L 661.996666 -383.653497 
L 664.973658 -386.476986 
L 667.95065 -389.330851 
L 670.927643 -392.192366 
L 673.904635 -395.076667 
L 676.881627 -397.967749 
L 679.85862 -400.857803 
L 682.835612 -403.749212 
L 685.812604 -406.635722 
L 688.789597 -409.517426 
L 691.766589 -412.39018 
L 694.743581 -415.253405 
L 697.720574 -418.104642 
L 700.697566 -420.939659 
L 703.674558 -423.760948 
L 706.651551 -426.570089 
L 709.628543 -429.368067 
L 712.605535 -432.152488 
L 715.582528 -434.929067 
L 718.55952 -437.695656 
L 721.536512 -440.456283 
L 724.513505 -443.200395 
L 727.490497 -445.942666 
L 730.467489 -448.677144 
L 733.444481 -451.406344 
L 736.421474 -454.137865 
L 739.398466 -456.866785 
L 742.375458 -459.571107 
L 745.352451 -462.244117 
L 748.329443 -464.891978 
L 751.306435 -467.517682 
L 754.283428 -470.12065 
L 757.26042 -472.704839 
L 760.237412 -475.264886 
L 763.214405 -477.80453 
L 766.191397 -480.324408 
L 769.168389 -482.822838 
L 772.145382 -485.302653 
L 775.122374 -487.763487 
L 778.099366 -490.197443 
L 781.076359 -492.616439 
L 784.053351 -495.011264 
L 787.030343 -497.393121 
L 790.007336 -499.741781 
L 792.984328 -502.068282 
L 795.96132 -504.36906 
L 798.938313 -506.642249 
L 801.915305 -508.886038 
L 804.892297 -511.09932 
L 807.86929 -513.277234 
L 810.846282 -515.424251 
L 813.823274 -517.535083 
L 816.800267 -519.602897 
L 819.777259 -521.631927 
L 822.754251 -523.619162 
L 825.731244 -525.559847 
L 828.708236 -527.452544 
L 831.685228 -529.293107 
L 834.662221 -531.078923 
L 837.639213 -532.806332 
L 840.616205 -534.475847 
L 843.593198 -536.081017 
L 846.57019 -537.628103 
L 849.547182 -539.107442 
L 852.524175 -540.513296 
L 855.501167 -541.855209 
L 858.478159 -543.12238 
L 861.455152 -544.315762 
L 864.432144 -545.435653 
L 867.409136 -546.482446 
L 870.386129 -547.456914 
L 873.363121 -548.349336 
L 876.340113 -549.1686 
L 879.317106 -549.91226 
L 882.294098 -550.578805 
L 885.27109 -551.171188 
L 888.248083 -551.689537 
L 891.225075 -552.138064 
L 894.202067 -552.515185 
L 897.17906 -552.821643 
L 900.156052 -553.062605 
L 903.133044 -553.242038 
L 906.110037 -553.355928 
L 909.087029 -553.413196 
L 912.064021 -553.413946 
L 915.041014 -553.362561 
L 918.018006 -553.261887 
L 920.994998 -553.123083 
L 923.971991 -552.933701 
L 926.948983 -552.705991 
L 929.925975 -552.443716 
L 932.902968 -552.149454 
L 935.87996 -551.826763 
L 938.856952 -551.480192 
L 941.833945 -551.112098 
L 944.810937 -550.72689 
L 947.787929 -550.319839 
L 950.764922 -549.906817 
L 953.741914 -549.481305 
L 956.718906 -549.053163 
L 959.695899 -548.617469 
L 962.672891 -548.183812 
L 965.649883 -547.749486 
L 968.626876 -547.3233 
L 971.603868 -546.902966 
L 974.58086 -546.487566 
L 977.557853 -546.079369 
L 980.534845 -545.6901 
L 983.511837 -545.314916 
L 986.48883 -544.957901 
L 989.465822 -544.616995 
L 992.442814 -544.289857 
L 995.419807 -543.984242 
L 998.396799 -543.707744 
L 1001.373791 -543.448997 
L 1004.350784 -543.211086 
L 1007.327776 -542.996653 
L 1010.304768 -542.810147 
L 1013.281761 -542.644071 
L 1016.258753 -542.508589 
L 1019.235745 -542.397624 
L 1022.212738 -542.31906 
L 1025.18973 -542.261705 
L 1028.166722 -542.234609 
L 1031.143715 -542.23399 
L 1034.120707 -542.262508 
L 1034.120707 -546.333054 
L 1034.120707 -546.333054 
L 1031.143715 -546.383775 
L 1028.166722 -546.463088 
L 1025.18973 -546.568084 
L 1022.212738 -546.702572 
L 1019.235745 -546.858096 
L 1016.258753 -547.045929 
L 1013.281761 -547.257814 
L 1010.304768 -547.499146 
L 1007.327776 -547.759608 
L 1004.350784 -548.046576 
L 1001.373791 -548.355148 
L 998.396799 -548.682662 
L 995.419807 -549.028097 
L 992.442814 -549.402452 
L 989.465822 -549.796012 
L 986.48883 -550.200952 
L 983.511837 -550.62168 
L 980.534845 -551.060538 
L 977.557853 -551.513434 
L 974.58086 -551.983842 
L 971.603868 -552.458214 
L 968.626876 -552.935641 
L 965.649883 -553.418671 
L 962.672891 -553.908913 
L 959.695899 -554.396791 
L 956.718906 -554.884883 
L 953.741914 -555.365226 
L 950.764922 -555.842294 
L 947.787929 -556.305473 
L 944.810937 -556.761197 
L 941.833945 -557.191734 
L 938.856952 -557.604828 
L 935.87996 -557.995612 
L 932.902968 -558.361739 
L 929.925975 -558.698178 
L 926.948983 -559.001643 
L 923.971991 -559.268642 
L 920.994998 -559.49418 
L 918.018006 -559.668723 
L 915.041014 -559.806741 
L 912.064021 -559.895649 
L 909.087029 -559.930909 
L 906.110037 -559.907252 
L 903.133044 -559.824165 
L 900.156052 -559.674112 
L 897.17906 -559.461606 
L 894.202067 -559.181377 
L 891.225075 -558.828406 
L 888.248083 -558.404571 
L 885.27109 -557.909702 
L 882.294098 -557.339383 
L 879.317106 -556.693281 
L 876.340113 -555.969021 
L 873.363121 -555.168497 
L 870.386129 -554.292977 
L 867.409136 -553.333557 
L 864.432144 -552.303112 
L 861.455152 -551.200326 
L 858.478159 -550.023374 
L 855.501167 -548.771116 
L 852.524175 -547.443373 
L 849.547182 -546.050466 
L 846.57019 -544.58217 
L 843.593198 -543.046864 
L 840.616205 -541.453471 
L 837.639213 -539.794655 
L 834.662221 -538.077772 
L 831.685228 -536.30137 
L 828.708236 -534.469468 
L 825.731244 -532.58595 
L 822.754251 -530.655203 
L 819.777259 -528.678625 
L 816.800267 -526.661692 
L 813.823274 -524.605105 
L 810.846282 -522.505763 
L 807.86929 -520.371516 
L 804.892297 -518.206954 
L 801.915305 -516.006692 
L 798.938313 -513.776506 
L 795.96132 -511.517505 
L 792.984328 -509.231429 
L 790.007336 -506.92085 
L 787.030343 -504.587685 
L 784.053351 -502.221982 
L 781.076359 -499.845664 
L 778.099366 -497.447111 
L 775.122374 -495.033767 
L 772.145382 -492.593918 
L 769.168389 -490.136138 
L 766.191397 -487.660265 
L 763.214405 -485.163423 
L 760.237412 -482.647116 
L 757.26042 -480.109588 
L 754.283428 -477.54708 
L 751.306435 -474.965245 
L 748.329443 -472.359149 
L 745.352451 -469.728306 
L 742.375458 -467.068097 
L 739.398466 -464.374009 
L 736.421474 -461.655681 
L 733.444481 -458.937168 
L 730.467489 -456.223374 
L 727.490497 -453.505123 
L 724.513505 -450.780777 
L 721.536512 -448.055307 
L 718.55952 -445.313456 
L 715.582528 -442.567364 
L 712.605535 -439.812464 
L 709.628543 -437.05052 
L 706.651551 -434.275148 
L 703.674558 -431.489125 
L 700.697566 -428.690531 
L 697.720574 -425.876787 
L 694.743581 -423.045731 
L 691.766589 -420.202966 
L 688.789597 -417.3498 
L 685.812604 -414.488354 
L 682.835612 -411.62291 
L 679.85862 -408.753476 
L 676.881627 -405.886382 
L 673.904635 -403.019316 
L 670.927643 -400.162475 
L 667.95065 -397.331713 
L 664.973658 -394.508731 
L 661.996666 -391.719496 
L 659.019673 -388.970588 
L 656.042681 -386.257288 
L 653.065689 -383.615838 
L 650.088696 -381.043704 
L 647.111704 -378.553183 
L 644.134712 -376.175749 
L 641.157719 -373.927962 
L 638.180727 -371.812077 
L 635.203735 -369.866794 
L 632.226742 -368.098402 
L 629.24975 -366.533642 
L 626.272758 -365.195982 
L 623.295765 -364.09981 
L 620.318773 -363.26402 
L 617.341781 -362.705743 
L 614.364788 -362.466927 
L 611.387796 -362.544044 
L 608.410804 -362.936188 
L 605.433811 -363.6657 
L 602.456819 -364.745743 
L 599.479827 -366.170114 
L 596.502834 -367.925263 
L 593.525842 -370.007965 
L 590.54885 -372.383777 
L 587.571857 -375.052052 
L 584.594865 -377.961835 
L 581.617873 -381.110732 
L 578.64088 -384.451288 
L 575.663888 -387.952466 
L 572.686896 -391.578139 
L 569.709903 -395.281288 
L 566.732911 -399.035161 
L 563.755919 -402.810408 
L 560.778926 -406.568985 
L 557.801934 -410.281972 
L 554.824942 -413.916815 
L 551.847949 -417.452102 
L 548.870957 -420.87337 
L 545.893965 -424.161047 
L 542.916972 -427.307751 
L 539.93998 -430.299909 
L 536.962988 -433.133268 
L 533.985995 -435.803537 
L 531.009003 -438.304926 
L 528.032011 -440.643848 
L 525.055018 -442.822828 
L 522.078026 -444.834488 
L 519.101034 -446.700218 
L 516.124041 -448.414702 
L 513.147049 -449.984884 
L 510.170057 -451.416843 
L 507.193064 -452.719877 
L 504.216072 -453.894659 
L 501.23908 -454.961077 
L 498.262087 -455.913809 
L 495.285095 -456.765378 
L 492.308103 -457.520951 
L 489.33111 -458.184002 
L 486.354118 -458.769843 
L 483.377126 -459.280543 
L 480.400133 -459.715518 
L 477.423141 -460.087455 
L 474.446149 -460.409453 
L 471.469156 -460.670372 
L 468.492164 -460.884329 
L 465.515172 -461.054001 
L 462.538179 -461.187565 
L 459.561187 -461.283778 
L 456.584195 -461.355839 
L 453.607202 -461.396039 
L 450.63021 -461.415665 
L 447.653218 -461.420155 
L 444.676225 -461.4134 
L 441.699233 -461.396267 
L 438.722241 -461.380652 
L 435.745248 -461.360672 
L 432.768256 -461.347701 
L 429.791264 -461.340934 
L 426.814271 -461.350614 
L 423.837279 -461.376409 
L 420.860287 -461.418846 
L 417.883294 -461.484271 
L 414.906302 -461.576144 
L 411.92931 -461.691269 
L 408.952317 -461.838301 
L 405.975325 -462.016803 
L 402.998333 -462.225081 
L 400.02134 -462.480054 
L 397.044348 -462.770033 
L 394.067356 -463.101875 
L 391.090363 -463.476974 
L 388.113371 -463.89335 
L 385.136379 -464.361397 
L 382.159386 -464.873002 
L 379.182394 -465.432699 
L 376.205402 -466.044427 
L 373.228409 -466.70051 
L 370.251417 -467.413293 
L 367.274425 -468.169916 
L 364.297432 -468.98099 
L 361.32044 -469.846331 
L 358.343448 -470.762908 
L 355.366455 -471.730173 
L 352.389463 -472.746947 
L 349.412471 -473.821092 
L 346.435478 -474.94616 
L 343.458486 -476.11947 
L 340.481494 -477.344266 
L 337.504502 -478.624765 
L 334.527509 -479.953982 
L 331.550517 -481.328853 
L 328.573525 -482.759627 
L 325.596532 -484.226688 
L 322.61954 -485.747598 
L 319.642548 -487.309389 
L 316.665555 -488.911351 
L 313.688563 -490.552295 
L 310.711571 -492.228268 
L 307.734578 -493.941525 
L 304.757586 -495.673124 
L 301.780594 -497.441179 
L 298.803601 -499.2422 
L 295.826609 -501.07412 
L 292.849617 -502.967136 
z
" style="stroke: #00ffff; stroke-opacity: 0.5"/>
    </defs>
    <g clip-path="url(#pe458da9005)">
     <use xlink:href="#m38077853c5" x="0" y="648" style="fill: #00ffff; fill-opacity: 0.5; stroke: #00ffff; stroke-opacity: 0.5"/>
    </g>
   </g>
   <g id="matplotlib.axis_1">
    <g id="xtick_1">
     <g id="line2d_1">
      <defs>
       <path id="ma96eb21e0c" d="M 0 0 
L 0 3.5 
" style="stroke: #000000; stroke-width: 0.8"/>
      </defs>
      <g>
       <use xlink:href="#ma96eb21e0c" x="144" y="304.56" style="stroke: #000000; stroke-width: 0.8"/>
      </g>
     </g>
     <g id="text_1">
      <!-- 0 -->
      <g transform="translate(140.81875 319.158437) scale(0.1 -0.1)">
       <defs>
        <path id="DejaVuSans-30" d="M 2034 4250 
Q 1547 4250 1301 3770 
Q 1056 3291 1056 2328 
Q 1056 1369 1301 889 
Q 1547 409 2034 409 
Q 2525 409 2770 889 
Q 3016 1369 3016 2328 
Q 3016 3291 2770 3770 
Q 2525 4250 2034 4250 
z
M 2034 4750 
Q 2819 4750 3233 4129 
Q 3647 3509 3647 2328 
Q 3647 1150 3233 529 
Q 2819 -91 2034 -91 
Q 1250 -91 836 529 
Q 422 1150 422 2328 
Q 422 3509 836 4129 
Q 1250 4750 2034 4750 
z
" transform="scale(0.015625)"/>
       </defs>
       <use xlink:href="#DejaVuSans-30"/>
      </g>
     </g>
    </g>
    <g id="xtick_2">
     <g id="line2d_2">
      <g>
       <use xlink:href="#ma96eb21e0c" x="292.849617" y="304.56" style="stroke: #000000; stroke-width: 0.8"/>
      </g>
     </g>
     <g id="text_2">
      <!-- 5 -->
      <g transform="translate(289.668367 319.158437) scale(0.1 -0.1)">
       <defs>
        <path id="DejaVuSans-35" d="M 691 4666 
L 3169 4666 
L 3169 4134 
L 1269 4134 
L 1269 2991 
Q 1406 3038 1543 3061 
Q 1681 3084 1819 3084 
Q 2600 3084 3056 2656 
Q 3513 2228 3513 1497 
Q 3513 744 3044 326 
Q 2575 -91 1722 -91 
Q 1428 -91 1123 -41 
Q 819 9 494 109 
L 494 744 
Q 775 591 1075 516 
Q 1375 441 1709 441 
Q 2250 441 2565 725 
Q 2881 1009 2881 1497 
Q 2881 1984 2565 2268 
Q 2250 2553 1709 2553 
Q 1456 2553 1204 2497 
Q 953 2441 691 2322 
L 691 4666 
z
" transform="scale(0.015625)"/>
       </defs>
       <use xlink:href="#DejaVuSans-35"/>
      </g>
     </g>
    </g>
    <g id="xtick_3">
     <g id="line2d_3">
      <g>
       <use xlink:href="#ma96eb21e0c" x="441.699233" y="304.56" style="stroke: #000000; stroke-width: 0.8"/>
      </g>
     </g>
     <g id="text_3">
      <!-- 10 -->
      <g transform="translate(435.336733 319.158437) scale(0.1 -0.1)">
       <defs>
        <path id="DejaVuSans-31" d="M 794 531 
L 1825 531 
L 1825 4091 
L 703 3866 
L 703 4441 
L 1819 4666 
L 2450 4666 
L 2450 531 
L 3481 531 
L 3481 0 
L 794 0 
L 794 531 
z
" transform="scale(0.015625)"/>
       </defs>
       <use xlink:href="#DejaVuSans-31"/>
       <use xlink:href="#DejaVuSans-30" x="63.623047"/>
      </g>
     </g>
    </g>
    <g id="xtick_4">
     <g id="line2d_4">
      <g>
       <use xlink:href="#ma96eb21e0c" x="590.54885" y="304.56" style="stroke: #000000; stroke-width: 0.8"/>
      </g>
     </g>
     <g id="text_4">
      <!-- 15 -->
      <g transform="translate(584.18635 319.158437) scale(0.1 -0.1)">
       <use xlink:href="#DejaVuSans-31"/>
       <use xlink:href="#DejaVuSans-35" x="63.623047"/>
      </g>
     </g>
    </g>
    <g id="xtick_5">
     <g id="line2d_5">
      <g>
       <use xlink:href="#ma96eb21e0c" x="739.398466" y="304.56" style="stroke: #000000; stroke-width: 0.8"/>
      </g>
     </g>
     <g id="text_5">
      <!-- 20 -->
      <g transform="translate(733.035966 319.158437) scale(0.1 -0.1)">
       <defs>
        <path id="DejaVuSans-32" d="M 1228 531 
L 3431 531 
L 3431 0 
L 469 0 
L 469 531 
Q 828 903 1448 1529 
Q 2069 2156 2228 2338 
Q 2531 2678 2651 2914 
Q 2772 3150 2772 3378 
Q 2772 3750 2511 3984 
Q 2250 4219 1831 4219 
Q 1534 4219 1204 4116 
Q 875 4013 500 3803 
L 500 4441 
Q 881 4594 1212 4672 
Q 1544 4750 1819 4750 
Q 2544 4750 2975 4387 
Q 3406 4025 3406 3419 
Q 3406 3131 3298 2873 
Q 3191 2616 2906 2266 
Q 2828 2175 2409 1742 
Q 1991 1309 1228 531 
z
" transform="scale(0.015625)"/>
       </defs>
       <use xlink:href="#DejaVuSans-32"/>
       <use xlink:href="#DejaVuSans-30" x="63.623047"/>
      </g>
     </g>
    </g>
    <g id="xtick_6">
     <g id="line2d_6">
      <g>
       <use xlink:href="#ma96eb21e0c" x="888.248083" y="304.56" style="stroke: #000000; stroke-width: 0.8"/>
      </g>
     </g>
     <g id="text_6">
      <!-- 25 -->
      <g transform="translate(881.885583 319.158437) scale(0.1 -0.1)">
       <use xlink:href="#DejaVuSans-32"/>
       <use xlink:href="#DejaVuSans-35" x="63.623047"/>
      </g>
     </g>
    </g>
   </g>
   <g id="matplotlib.axis_2">
    <g id="ytick_1">
     <g id="line2d_7">
      <defs>
       <path id="m461f22c92e" d="M 0 0 
L -3.5 0 
" style="stroke: #000000; stroke-width: 0.8"/>
      </defs>
      <g>
       <use xlink:href="#m461f22c92e" x="144" y="271.81058" style="stroke: #000000; stroke-width: 0.8"/>
      </g>
     </g>
     <g id="text_7">
      <!-- 1.0 -->
      <g transform="translate(121.096875 275.609799) scale(0.1 -0.1)">
       <defs>
        <path id="DejaVuSans-2e" d="M 684 794 
L 1344 794 
L 1344 0 
L 684 0 
L 684 794 
z
" transform="scale(0.015625)"/>
       </defs>
       <use xlink:href="#DejaVuSans-31"/>
       <use xlink:href="#DejaVuSans-2e" x="63.623047"/>
       <use xlink:href="#DejaVuSans-30" x="95.410156"/>
      </g>
     </g>
    </g>
    <g id="ytick_2">
     <g id="line2d_8">
      <g>
       <use xlink:href="#m461f22c92e" x="144" y="230.978246" style="stroke: #000000; stroke-width: 0.8"/>
      </g>
     </g>
     <g id="text_8">
      <!-- 1.5 -->
      <g transform="translate(121.096875 234.777465) scale(0.1 -0.1)">
       <use xlink:href="#DejaVuSans-31"/>
       <use xlink:href="#DejaVuSans-2e" x="63.623047"/>
       <use xlink:href="#DejaVuSans-35" x="95.410156"/>
      </g>
     </g>
    </g>
    <g id="ytick_3">
     <g id="line2d_9">
      <g>
       <use xlink:href="#m461f22c92e" x="144" y="190.145912" style="stroke: #000000; stroke-width: 0.8"/>
      </g>
     </g>
     <g id="text_9">
      <!-- 2.0 -->
      <g transform="translate(121.096875 193.945131) scale(0.1 -0.1)">
       <use xlink:href="#DejaVuSans-32"/>
       <use xlink:href="#DejaVuSans-2e" x="63.623047"/>
       <use xlink:href="#DejaVuSans-30" x="95.410156"/>
      </g>
     </g>
    </g>
    <g id="ytick_4">
     <g id="line2d_10">
      <g>
       <use xlink:href="#m461f22c92e" x="144" y="149.313579" style="stroke: #000000; stroke-width: 0.8"/>
      </g>
     </g>
     <g id="text_10">
      <!-- 2.5 -->
      <g transform="translate(121.096875 153.112797) scale(0.1 -0.1)">
       <use xlink:href="#DejaVuSans-32"/>
       <use xlink:href="#DejaVuSans-2e" x="63.623047"/>
       <use xlink:href="#DejaVuSans-35" x="95.410156"/>
      </g>
     </g>
    </g>
    <g id="ytick_5">
     <g id="line2d_11">
      <g>
       <use xlink:href="#m461f22c92e" x="144" y="108.481245" style="stroke: #000000; stroke-width: 0.8"/>
      </g>
     </g>
     <g id="text_11">
      <!-- 3.0 -->
      <g transform="translate(121.096875 112.280463) scale(0.1 -0.1)">
       <defs>
        <path id="DejaVuSans-33" d="M 2597 2516 
Q 3050 2419 3304 2112 
Q 3559 1806 3559 1356 
Q 3559 666 3084 287 
Q 2609 -91 1734 -91 
Q 1441 -91 1130 -33 
Q 819 25 488 141 
L 488 750 
Q 750 597 1062 519 
Q 1375 441 1716 441 
Q 2309 441 2620 675 
Q 2931 909 2931 1356 
Q 2931 1769 2642 2001 
Q 2353 2234 1838 2234 
L 1294 2234 
L 1294 2753 
L 1863 2753 
Q 2328 2753 2575 2939 
Q 2822 3125 2822 3475 
Q 2822 3834 2567 4026 
Q 2313 4219 1838 4219 
Q 1578 4219 1281 4162 
Q 984 4106 628 3988 
L 628 4550 
Q 988 4650 1302 4700 
Q 1616 4750 1894 4750 
Q 2613 4750 3031 4423 
Q 3450 4097 3450 3541 
Q 3450 3153 3228 2886 
Q 3006 2619 2597 2516 
z
" transform="scale(0.015625)"/>
       </defs>
       <use xlink:href="#DejaVuSans-33"/>
       <use xlink:href="#DejaVuSans-2e" x="63.623047"/>
       <use xlink:href="#DejaVuSans-30" x="95.410156"/>
      </g>
     </g>
    </g>
   </g>
   <g id="line2d_12">
    <path d="M 144 103.527452 
L 147.274692 103.41738 
L 151.442481 103.28504 
L 157.396465 103.318605 
L 164.243548 103.582816 
L 171.686029 104.098802 
L 179.723908 104.887389 
L 187.464088 105.888065 
L 194.906569 107.0768 
L 202.646749 108.553201 
L 209.493831 110.080674 
L 216.340914 111.828764 
L 223.187996 113.806166 
L 230.035078 116.011681 
L 236.584461 118.354285 
L 243.133845 120.916502 
L 250.278626 123.950685 
L 257.423408 127.239064 
L 265.163588 131.05455 
L 274.094565 135.745514 
L 283.91864 141.186078 
L 294.635812 147.354832 
L 306.543781 154.702193 
L 316.070157 160.186908 
L 324.108036 164.560226 
L 331.252818 168.215834 
L 337.802201 171.351304 
L 344.649283 174.386129 
L 351.198666 177.038405 
L 357.152651 179.22322 
L 363.702034 181.378084 
L 369.656019 183.101221 
L 376.205402 184.744631 
L 382.754785 186.136278 
L 389.304168 187.289313 
L 395.853551 188.209875 
L 402.998333 188.979321 
L 409.547716 189.480406 
L 417.585595 189.875913 
L 426.218873 190.091818 
L 437.531444 190.146486 
L 459.263488 190.190165 
L 467.896766 190.476342 
L 474.743848 190.918052 
L 480.697833 191.520465 
L 486.056419 192.258557 
L 491.415005 193.230188 
L 496.178193 194.308619 
L 500.94138 195.625911 
L 505.10917 196.995432 
L 509.574658 198.701174 
L 513.742447 200.54264 
L 517.612538 202.485808 
L 521.482628 204.670558 
L 525.352718 207.101572 
L 529.222808 209.796061 
L 533.092898 212.762397 
L 536.962988 216.002439 
L 540.833078 219.527392 
L 545.000867 223.628921 
L 549.466355 228.359345 
L 554.229543 233.750543 
L 559.588129 240.173673 
L 566.732911 249.138124 
L 577.152384 262.207385 
L 581.915572 267.84782 
L 586.083361 272.441512 
L 589.655752 276.043665 
L 592.930443 279.04213 
L 595.907436 281.47208 
L 598.884428 283.610502 
L 601.563721 285.258804 
L 604.243014 286.641603 
L 606.624608 287.636526 
L 609.006202 288.404083 
L 611.387796 288.949272 
L 614.067089 289.317809 
L 616.448683 289.425375 
L 618.830277 289.325197 
L 621.211871 289.011891 
L 623.891164 288.438504 
L 626.570457 287.64243 
L 629.547449 286.512569 
L 632.524441 285.135144 
L 635.799133 283.361453 
L 639.371524 281.159487 
L 643.241614 278.484821 
L 647.409403 275.336511 
L 651.874892 271.685869 
L 657.828876 266.514421 
L 665.271357 259.692366 
L 675.69083 249.793612 
L 706.651551 220.150628 
L 723.025008 204.918804 
L 744.161654 185.589342 
L 753.985729 176.864627 
L 765.0006 167.379912 
L 776.61087 157.688094 
L 787.923441 148.538631 
L 797.747516 140.85096 
L 806.976192 133.89196 
L 815.907169 127.448077 
L 823.647349 122.140426 
L 830.792131 117.496552 
L 837.341514 113.497641 
L 843.593198 109.938521 
L 849.844882 106.646356 
L 855.501167 103.925271 
L 860.859753 101.58207 
L 866.218339 99.476468 
L 871.576926 97.603301 
L 876.637813 96.066519 
L 881.6987 94.748207 
L 886.759587 93.652433 
L 892.118173 92.726244 
L 897.476759 92.032115 
L 902.835345 91.562972 
L 908.193931 91.304355 
L 913.850217 91.2475 
L 920.101901 91.406698 
L 926.353585 91.768141 
L 933.796065 92.434088 
L 942.429343 93.445218 
L 952.253418 94.816098 
L 993.93131 100.886431 
L 1002.862287 101.859767 
L 1012.388663 102.688174 
L 1021.021941 103.224003 
L 1029.655218 103.528759 
L 1036.8 103.606221 
L 1036.8 103.606221 
" clip-path="url(#pe458da9005)" style="fill: none; stroke-dasharray: 5.55,2.4; stroke-dashoffset: 0; stroke: #ffa500; stroke-width: 1.5"/>
   </g>
   <g id="line2d_13">
    <path d="M 292.849617 148.238774 
L 298.803601 151.970627 
L 307.734578 157.266363 
L 316.665555 162.298595 
L 325.596532 167.016701 
L 334.527509 171.358954 
L 340.481494 174.028369 
L 346.435478 176.489973 
L 352.389463 178.749077 
L 358.343448 180.781235 
L 364.297432 182.600344 
L 370.251417 184.19049 
L 376.205402 185.571132 
L 382.159386 186.748054 
L 388.113371 187.730228 
L 394.067356 188.522731 
L 400.02134 189.14523 
L 405.975325 189.611652 
L 414.906302 190.057409 
L 423.837279 190.272047 
L 435.745248 190.314952 
L 453.607202 190.323382 
L 462.538179 190.540144 
L 468.492164 190.849334 
L 474.446149 191.331528 
L 480.400133 192.037248 
L 486.354118 192.99758 
L 492.308103 194.265641 
L 498.262087 195.895532 
L 504.216072 197.94162 
L 507.193064 199.131199 
L 510.170057 200.449428 
L 513.147049 201.897413 
L 516.124041 203.484525 
L 519.101034 205.216987 
L 522.078026 207.101767 
L 525.055018 209.13255 
L 528.032011 211.330997 
L 531.009003 213.690585 
L 533.985995 216.212901 
L 536.962988 218.904542 
L 539.93998 221.760521 
L 545.893965 227.945192 
L 551.847949 234.698949 
L 557.801934 241.911674 
L 575.663888 264.345205 
L 581.617873 271.212462 
L 584.594865 274.372226 
L 587.571857 277.291773 
L 590.54885 279.968905 
L 593.525842 282.352554 
L 596.502834 284.441466 
L 599.479827 286.20099 
L 602.456819 287.627443 
L 605.433811 288.707346 
L 608.410804 289.434531 
L 611.387796 289.822352 
L 614.364788 289.891991 
L 617.341781 289.642085 
L 620.318773 289.070326 
L 623.295765 288.21867 
L 626.272758 287.103842 
L 629.24975 285.744865 
L 632.226742 284.157298 
L 635.203735 282.3652 
L 638.180727 280.394862 
L 644.134712 275.982018 
L 650.088696 271.067666 
L 656.042681 265.812188 
L 664.973658 257.507142 
L 679.85862 243.19436 
L 700.697566 223.184905 
L 715.582528 209.251785 
L 736.421474 190.103227 
L 745.352451 182.013788 
L 757.26042 171.592786 
L 769.168389 161.520512 
L 781.076359 151.768948 
L 792.984328 142.350145 
L 801.915305 135.553635 
L 810.846282 129.034993 
L 819.777259 122.844724 
L 825.731244 118.927102 
L 831.685228 115.202761 
L 837.639213 111.699507 
L 843.593198 108.43606 
L 849.547182 105.421046 
L 855.501167 102.686837 
L 861.455152 100.241956 
L 867.409136 98.091998 
L 873.363121 96.241084 
L 879.317106 94.69723 
L 885.27109 93.459555 
L 891.225075 92.516765 
L 897.17906 91.858376 
L 903.133044 91.466898 
L 909.087029 91.327947 
L 915.041014 91.415349 
L 920.994998 91.691368 
L 926.948983 92.146183 
L 935.87996 93.088813 
L 944.810937 94.255956 
L 962.672891 96.953637 
L 980.534845 99.624681 
L 992.442814 101.153846 
L 1001.373791 102.097927 
L 1010.304768 102.845354 
L 1019.235745 103.37214 
L 1028.166722 103.651151 
L 1034.120707 103.702219 
L 1034.120707 103.702219 
" clip-path="url(#pe458da9005)" style="fill: none; stroke: #0000ff; stroke-opacity: 0.5; stroke-width: 1.5; stroke-linecap: square"/>
   </g>
   <g id="patch_3">
    <path d="M 144 304.56 
L 144 77.76 
" style="fill: none; stroke: #000000; stroke-width: 0.8; stroke-linejoin: miter; stroke-linecap: square"/>
   </g>
   <g id="patch_4">
    <path d="M 1036.8 304.56 
L 1036.8 77.76 
" style="fill: none; stroke: #000000; stroke-width: 0.8; stroke-linejoin: miter; stroke-linecap: square"/>
   </g>
   <g id="patch_5">
    <path d="M 144 304.56 
L 1036.8 304.56 
" style="fill: none; stroke: #000000; stroke-width: 0.8; stroke-linejoin: miter; stroke-linecap: square"/>
   </g>
   <g id="patch_6">
    <path d="M 144 77.76 
L 1036.8 77.76 
" style="fill: none; stroke: #000000; stroke-width: 0.8; stroke-linejoin: miter; stroke-linecap: square"/>
   </g>
   <g id="legend_1">
    <g id="patch_7">
     <path d="M 151 299.56 
L 256.6 299.56 
Q 258.6 299.56 258.6 297.56 
L 258.6 254.525625 
Q 258.6 252.525625 256.6 252.525625 
L 151 252.525625 
Q 149 252.525625 149 254.525625 
L 149 297.56 
Q 149 299.56 151 299.56 
z
" style="fill: #ffffff; opacity: 0.8; stroke: #cccccc; stroke-linejoin: miter"/>
    </g>
    <g id="line2d_14">
     <path d="M 153 260.624062 
L 163 260.624062 
L 173 260.624062 
" style="fill: none; stroke-dasharray: 5.55,2.4; stroke-dashoffset: 0; stroke: #ffa500; stroke-width: 1.5"/>
    </g>
    <g id="text_12">
     <!-- Real $x$ Position -->
     <g transform="translate(181 264.124062) scale(0.1 -0.1)">
      <defs>
       <path id="DejaVuSans-52" d="M 2841 2188 
Q 3044 2119 3236 1894 
Q 3428 1669 3622 1275 
L 4263 0 
L 3584 0 
L 2988 1197 
Q 2756 1666 2539 1819 
Q 2322 1972 1947 1972 
L 1259 1972 
L 1259 0 
L 628 0 
L 628 4666 
L 2053 4666 
Q 2853 4666 3247 4331 
Q 3641 3997 3641 3322 
Q 3641 2881 3436 2590 
Q 3231 2300 2841 2188 
z
M 1259 4147 
L 1259 2491 
L 2053 2491 
Q 2509 2491 2742 2702 
Q 2975 2913 2975 3322 
Q 2975 3731 2742 3939 
Q 2509 4147 2053 4147 
L 1259 4147 
z
" transform="scale(0.015625)"/>
       <path id="DejaVuSans-65" d="M 3597 1894 
L 3597 1613 
L 953 1613 
Q 991 1019 1311 708 
Q 1631 397 2203 397 
Q 2534 397 2845 478 
Q 3156 559 3463 722 
L 3463 178 
Q 3153 47 2828 -22 
Q 2503 -91 2169 -91 
Q 1331 -91 842 396 
Q 353 884 353 1716 
Q 353 2575 817 3079 
Q 1281 3584 2069 3584 
Q 2775 3584 3186 3129 
Q 3597 2675 3597 1894 
z
M 3022 2063 
Q 3016 2534 2758 2815 
Q 2500 3097 2075 3097 
Q 1594 3097 1305 2825 
Q 1016 2553 972 2059 
L 3022 2063 
z
" transform="scale(0.015625)"/>
       <path id="DejaVuSans-61" d="M 2194 1759 
Q 1497 1759 1228 1600 
Q 959 1441 959 1056 
Q 959 750 1161 570 
Q 1363 391 1709 391 
Q 2188 391 2477 730 
Q 2766 1069 2766 1631 
L 2766 1759 
L 2194 1759 
z
M 3341 1997 
L 3341 0 
L 2766 0 
L 2766 531 
Q 2569 213 2275 61 
Q 1981 -91 1556 -91 
Q 1019 -91 701 211 
Q 384 513 384 1019 
Q 384 1609 779 1909 
Q 1175 2209 1959 2209 
L 2766 2209 
L 2766 2266 
Q 2766 2663 2505 2880 
Q 2244 3097 1772 3097 
Q 1472 3097 1187 3025 
Q 903 2953 641 2809 
L 641 3341 
Q 956 3463 1253 3523 
Q 1550 3584 1831 3584 
Q 2591 3584 2966 3190 
Q 3341 2797 3341 1997 
z
" transform="scale(0.015625)"/>
       <path id="DejaVuSans-6c" d="M 603 4863 
L 1178 4863 
L 1178 0 
L 603 0 
L 603 4863 
z
" transform="scale(0.015625)"/>
       <path id="DejaVuSans-20" transform="scale(0.015625)"/>
       <path id="DejaVuSans-Oblique-78" d="M 3841 3500 
L 2234 1784 
L 3219 0 
L 2559 0 
L 1819 1388 
L 531 0 
L -166 0 
L 1556 1844 
L 641 3500 
L 1300 3500 
L 1972 2234 
L 3144 3500 
L 3841 3500 
z
" transform="scale(0.015625)"/>
       <path id="DejaVuSans-50" d="M 1259 4147 
L 1259 2394 
L 2053 2394 
Q 2494 2394 2734 2622 
Q 2975 2850 2975 3272 
Q 2975 3691 2734 3919 
Q 2494 4147 2053 4147 
L 1259 4147 
z
M 628 4666 
L 2053 4666 
Q 2838 4666 3239 4311 
Q 3641 3956 3641 3272 
Q 3641 2581 3239 2228 
Q 2838 1875 2053 1875 
L 1259 1875 
L 1259 0 
L 628 0 
L 628 4666 
z
" transform="scale(0.015625)"/>
       <path id="DejaVuSans-6f" d="M 1959 3097 
Q 1497 3097 1228 2736 
Q 959 2375 959 1747 
Q 959 1119 1226 758 
Q 1494 397 1959 397 
Q 2419 397 2687 759 
Q 2956 1122 2956 1747 
Q 2956 2369 2687 2733 
Q 2419 3097 1959 3097 
z
M 1959 3584 
Q 2709 3584 3137 3096 
Q 3566 2609 3566 1747 
Q 3566 888 3137 398 
Q 2709 -91 1959 -91 
Q 1206 -91 779 398 
Q 353 888 353 1747 
Q 353 2609 779 3096 
Q 1206 3584 1959 3584 
z
" transform="scale(0.015625)"/>
       <path id="DejaVuSans-73" d="M 2834 3397 
L 2834 2853 
Q 2591 2978 2328 3040 
Q 2066 3103 1784 3103 
Q 1356 3103 1142 2972 
Q 928 2841 928 2578 
Q 928 2378 1081 2264 
Q 1234 2150 1697 2047 
L 1894 2003 
Q 2506 1872 2764 1633 
Q 3022 1394 3022 966 
Q 3022 478 2636 193 
Q 2250 -91 1575 -91 
Q 1294 -91 989 -36 
Q 684 19 347 128 
L 347 722 
Q 666 556 975 473 
Q 1284 391 1588 391 
Q 1994 391 2212 530 
Q 2431 669 2431 922 
Q 2431 1156 2273 1281 
Q 2116 1406 1581 1522 
L 1381 1569 
Q 847 1681 609 1914 
Q 372 2147 372 2553 
Q 372 3047 722 3315 
Q 1072 3584 1716 3584 
Q 2034 3584 2315 3537 
Q 2597 3491 2834 3397 
z
" transform="scale(0.015625)"/>
       <path id="DejaVuSans-69" d="M 603 3500 
L 1178 3500 
L 1178 0 
L 603 0 
L 603 3500 
z
M 603 4863 
L 1178 4863 
L 1178 4134 
L 603 4134 
L 603 4863 
z
" transform="scale(0.015625)"/>
       <path id="DejaVuSans-74" d="M 1172 4494 
L 1172 3500 
L 2356 3500 
L 2356 3053 
L 1172 3053 
L 1172 1153 
Q 1172 725 1289 603 
Q 1406 481 1766 481 
L 2356 481 
L 2356 0 
L 1766 0 
Q 1100 0 847 248 
Q 594 497 594 1153 
L 594 3053 
L 172 3053 
L 172 3500 
L 594 3500 
L 594 4494 
L 1172 4494 
z
" transform="scale(0.015625)"/>
       <path id="DejaVuSans-6e" d="M 3513 2113 
L 3513 0 
L 2938 0 
L 2938 2094 
Q 2938 2591 2744 2837 
Q 2550 3084 2163 3084 
Q 1697 3084 1428 2787 
Q 1159 2491 1159 1978 
L 1159 0 
L 581 0 
L 581 3500 
L 1159 3500 
L 1159 2956 
Q 1366 3272 1645 3428 
Q 1925 3584 2291 3584 
Q 2894 3584 3203 3211 
Q 3513 2838 3513 2113 
z
" transform="scale(0.015625)"/>
      </defs>
      <use xlink:href="#DejaVuSans-52" transform="translate(0 0.015625)"/>
      <use xlink:href="#DejaVuSans-65" transform="translate(69.482422 0.015625)"/>
      <use xlink:href="#DejaVuSans-61" transform="translate(131.005859 0.015625)"/>
      <use xlink:href="#DejaVuSans-6c" transform="translate(192.285156 0.015625)"/>
      <use xlink:href="#DejaVuSans-20" transform="translate(220.068359 0.015625)"/>
      <use xlink:href="#DejaVuSans-Oblique-78" transform="translate(251.855469 0.015625)"/>
      <use xlink:href="#DejaVuSans-20" transform="translate(311.035156 0.015625)"/>
      <use xlink:href="#DejaVuSans-50" transform="translate(342.822266 0.015625)"/>
      <use xlink:href="#DejaVuSans-6f" transform="translate(403.125 0.015625)"/>
      <use xlink:href="#DejaVuSans-73" transform="translate(464.306641 0.015625)"/>
      <use xlink:href="#DejaVuSans-69" transform="translate(516.40625 0.015625)"/>
      <use xlink:href="#DejaVuSans-74" transform="translate(544.189453 0.015625)"/>
      <use xlink:href="#DejaVuSans-69" transform="translate(583.398438 0.015625)"/>
      <use xlink:href="#DejaVuSans-6f" transform="translate(611.181641 0.015625)"/>
      <use xlink:href="#DejaVuSans-6e" transform="translate(672.363281 0.015625)"/>
     </g>
    </g>
    <g id="line2d_15">
     <path d="M 153 275.302188 
L 163 275.302188 
L 173 275.302188 
" style="fill: none; stroke: #0000ff; stroke-opacity: 0.5; stroke-width: 1.5; stroke-linecap: square"/>
    </g>
    <g id="text_13">
     <!-- Prediction $x$ -->
     <g transform="translate(181 278.802188) scale(0.1 -0.1)">
      <defs>
       <path id="DejaVuSans-72" d="M 2631 2963 
Q 2534 3019 2420 3045 
Q 2306 3072 2169 3072 
Q 1681 3072 1420 2755 
Q 1159 2438 1159 1844 
L 1159 0 
L 581 0 
L 581 3500 
L 1159 3500 
L 1159 2956 
Q 1341 3275 1631 3429 
Q 1922 3584 2338 3584 
Q 2397 3584 2469 3576 
Q 2541 3569 2628 3553 
L 2631 2963 
z
" transform="scale(0.015625)"/>
       <path id="DejaVuSans-64" d="M 2906 2969 
L 2906 4863 
L 3481 4863 
L 3481 0 
L 2906 0 
L 2906 525 
Q 2725 213 2448 61 
Q 2172 -91 1784 -91 
Q 1150 -91 751 415 
Q 353 922 353 1747 
Q 353 2572 751 3078 
Q 1150 3584 1784 3584 
Q 2172 3584 2448 3432 
Q 2725 3281 2906 2969 
z
M 947 1747 
Q 947 1113 1208 752 
Q 1469 391 1925 391 
Q 2381 391 2643 752 
Q 2906 1113 2906 1747 
Q 2906 2381 2643 2742 
Q 2381 3103 1925 3103 
Q 1469 3103 1208 2742 
Q 947 2381 947 1747 
z
" transform="scale(0.015625)"/>
       <path id="DejaVuSans-63" d="M 3122 3366 
L 3122 2828 
Q 2878 2963 2633 3030 
Q 2388 3097 2138 3097 
Q 1578 3097 1268 2742 
Q 959 2388 959 1747 
Q 959 1106 1268 751 
Q 1578 397 2138 397 
Q 2388 397 2633 464 
Q 2878 531 3122 666 
L 3122 134 
Q 2881 22 2623 -34 
Q 2366 -91 2075 -91 
Q 1284 -91 818 406 
Q 353 903 353 1747 
Q 353 2603 823 3093 
Q 1294 3584 2113 3584 
Q 2378 3584 2631 3529 
Q 2884 3475 3122 3366 
z
" transform="scale(0.015625)"/>
      </defs>
      <use xlink:href="#DejaVuSans-50" transform="translate(0 0.015625)"/>
      <use xlink:href="#DejaVuSans-72" transform="translate(60.302734 0.015625)"/>
      <use xlink:href="#DejaVuSans-65" transform="translate(101.416016 0.015625)"/>
      <use xlink:href="#DejaVuSans-64" transform="translate(162.939453 0.015625)"/>
      <use xlink:href="#DejaVuSans-69" transform="translate(226.416016 0.015625)"/>
      <use xlink:href="#DejaVuSans-63" transform="translate(254.199219 0.015625)"/>
      <use xlink:href="#DejaVuSans-74" transform="translate(309.179688 0.015625)"/>
      <use xlink:href="#DejaVuSans-69" transform="translate(348.388672 0.015625)"/>
      <use xlink:href="#DejaVuSans-6f" transform="translate(376.171875 0.015625)"/>
      <use xlink:href="#DejaVuSans-6e" transform="translate(437.353516 0.015625)"/>
      <use xlink:href="#DejaVuSans-20" transform="translate(500.732422 0.015625)"/>
      <use xlink:href="#DejaVuSans-Oblique-78" transform="translate(532.519531 0.015625)"/>
     </g>
    </g>
    <g id="patch_8">
     <path d="M 153 293.480312 
L 173 293.480312 
L 173 286.480312 
L 153 286.480312 
z
" style="fill: #00ffff; fill-opacity: 0.5; stroke: #00ffff; stroke-opacity: 0.5; stroke-linejoin: miter"/>
    </g>
    <g id="text_14">
     <!-- Confidence -->
     <g transform="translate(181 293.480312) scale(0.1 -0.1)">
      <defs>
       <path id="DejaVuSans-43" d="M 4122 4306 
L 4122 3641 
Q 3803 3938 3442 4084 
Q 3081 4231 2675 4231 
Q 1875 4231 1450 3742 
Q 1025 3253 1025 2328 
Q 1025 1406 1450 917 
Q 1875 428 2675 428 
Q 3081 428 3442 575 
Q 3803 722 4122 1019 
L 4122 359 
Q 3791 134 3420 21 
Q 3050 -91 2638 -91 
Q 1578 -91 968 557 
Q 359 1206 359 2328 
Q 359 3453 968 4101 
Q 1578 4750 2638 4750 
Q 3056 4750 3426 4639 
Q 3797 4528 4122 4306 
z
" transform="scale(0.015625)"/>
       <path id="DejaVuSans-66" d="M 2375 4863 
L 2375 4384 
L 1825 4384 
Q 1516 4384 1395 4259 
Q 1275 4134 1275 3809 
L 1275 3500 
L 2222 3500 
L 2222 3053 
L 1275 3053 
L 1275 0 
L 697 0 
L 697 3053 
L 147 3053 
L 147 3500 
L 697 3500 
L 697 3744 
Q 697 4328 969 4595 
Q 1241 4863 1831 4863 
L 2375 4863 
z
" transform="scale(0.015625)"/>
      </defs>
      <use xlink:href="#DejaVuSans-43"/>
      <use xlink:href="#DejaVuSans-6f" x="69.824219"/>
      <use xlink:href="#DejaVuSans-6e" x="131.005859"/>
      <use xlink:href="#DejaVuSans-66" x="194.384766"/>
      <use xlink:href="#DejaVuSans-69" x="229.589844"/>
      <use xlink:href="#DejaVuSans-64" x="257.373047"/>
      <use xlink:href="#DejaVuSans-65" x="320.849609"/>
      <use xlink:href="#DejaVuSans-6e" x="382.373047"/>
      <use xlink:href="#DejaVuSans-63" x="445.751953"/>
      <use xlink:href="#DejaVuSans-65" x="500.732422"/>
     </g>
    </g>
   </g>
  </g>
  <g id="axes_2">
   <g id="patch_9">
    <path d="M 144 576.72 
L 1036.8 576.72 
L 1036.8 349.92 
L 144 349.92 
z
" style="fill: #ffffff"/>
   </g>
   <g id="matplotlib.axis_3">
    <g id="xtick_7">
     <g id="line2d_16">
      <g>
       <use xlink:href="#ma96eb21e0c" x="144" y="576.72" style="stroke: #000000; stroke-width: 0.8"/>
      </g>
     </g>
     <g id="text_15">
      <!-- 0 -->
      <g transform="translate(140.81875 591.318438) scale(0.1 -0.1)">
       <use xlink:href="#DejaVuSans-30"/>
      </g>
     </g>
    </g>
    <g id="xtick_8">
     <g id="line2d_17">
      <g>
       <use xlink:href="#ma96eb21e0c" x="292.849617" y="576.72" style="stroke: #000000; stroke-width: 0.8"/>
      </g>
     </g>
     <g id="text_16">
      <!-- 5 -->
      <g transform="translate(289.668367 591.318438) scale(0.1 -0.1)">
       <use xlink:href="#DejaVuSans-35"/>
      </g>
     </g>
    </g>
    <g id="xtick_9">
     <g id="line2d_18">
      <g>
       <use xlink:href="#ma96eb21e0c" x="441.699233" y="576.72" style="stroke: #000000; stroke-width: 0.8"/>
      </g>
     </g>
     <g id="text_17">
      <!-- 10 -->
      <g transform="translate(435.336733 591.318438) scale(0.1 -0.1)">
       <use xlink:href="#DejaVuSans-31"/>
       <use xlink:href="#DejaVuSans-30" x="63.623047"/>
      </g>
     </g>
    </g>
    <g id="xtick_10">
     <g id="line2d_19">
      <g>
       <use xlink:href="#ma96eb21e0c" x="590.54885" y="576.72" style="stroke: #000000; stroke-width: 0.8"/>
      </g>
     </g>
     <g id="text_18">
      <!-- 15 -->
      <g transform="translate(584.18635 591.318438) scale(0.1 -0.1)">
       <use xlink:href="#DejaVuSans-31"/>
       <use xlink:href="#DejaVuSans-35" x="63.623047"/>
      </g>
     </g>
    </g>
    <g id="xtick_11">
     <g id="line2d_20">
      <g>
       <use xlink:href="#ma96eb21e0c" x="739.398466" y="576.72" style="stroke: #000000; stroke-width: 0.8"/>
      </g>
     </g>
     <g id="text_19">
      <!-- 20 -->
      <g transform="translate(733.035966 591.318438) scale(0.1 -0.1)">
       <use xlink:href="#DejaVuSans-32"/>
       <use xlink:href="#DejaVuSans-30" x="63.623047"/>
      </g>
     </g>
    </g>
    <g id="xtick_12">
     <g id="line2d_21">
      <g>
       <use xlink:href="#ma96eb21e0c" x="888.248083" y="576.72" style="stroke: #000000; stroke-width: 0.8"/>
      </g>
     </g>
     <g id="text_20">
      <!-- 25 -->
      <g transform="translate(881.885583 591.318438) scale(0.1 -0.1)">
       <use xlink:href="#DejaVuSans-32"/>
       <use xlink:href="#DejaVuSans-35" x="63.623047"/>
      </g>
     </g>
    </g>
   </g>
   <g id="matplotlib.axis_4">
    <g id="ytick_6">
     <g id="line2d_22">
      <g>
       <use xlink:href="#m461f22c92e" x="144" y="536.458482" style="stroke: #000000; stroke-width: 0.8"/>
      </g>
     </g>
     <g id="text_21">
      <!-- −0.02 -->
      <g transform="translate(106.354687 540.257701) scale(0.1 -0.1)">
       <defs>
        <path id="DejaVuSans-2212" d="M 678 2272 
L 4684 2272 
L 4684 1741 
L 678 1741 
L 678 2272 
z
" transform="scale(0.015625)"/>
       </defs>
       <use xlink:href="#DejaVuSans-2212"/>
       <use xlink:href="#DejaVuSans-30" x="83.789062"/>
       <use xlink:href="#DejaVuSans-2e" x="147.412109"/>
       <use xlink:href="#DejaVuSans-30" x="179.199219"/>
       <use xlink:href="#DejaVuSans-32" x="242.822266"/>
      </g>
     </g>
    </g>
    <g id="ytick_7">
     <g id="line2d_23">
      <g>
       <use xlink:href="#m461f22c92e" x="144" y="486.074158" style="stroke: #000000; stroke-width: 0.8"/>
      </g>
     </g>
     <g id="text_22">
      <!-- 0.00 -->
      <g transform="translate(114.734375 489.873376) scale(0.1 -0.1)">
       <use xlink:href="#DejaVuSans-30"/>
       <use xlink:href="#DejaVuSans-2e" x="63.623047"/>
       <use xlink:href="#DejaVuSans-30" x="95.410156"/>
       <use xlink:href="#DejaVuSans-30" x="159.033203"/>
      </g>
     </g>
    </g>
    <g id="ytick_8">
     <g id="line2d_24">
      <g>
       <use xlink:href="#m461f22c92e" x="144" y="435.689833" style="stroke: #000000; stroke-width: 0.8"/>
      </g>
     </g>
     <g id="text_23">
      <!-- 0.02 -->
      <g transform="translate(114.734375 439.489052) scale(0.1 -0.1)">
       <use xlink:href="#DejaVuSans-30"/>
       <use xlink:href="#DejaVuSans-2e" x="63.623047"/>
       <use xlink:href="#DejaVuSans-30" x="95.410156"/>
       <use xlink:href="#DejaVuSans-32" x="159.033203"/>
      </g>
     </g>
    </g>
    <g id="ytick_9">
     <g id="line2d_25">
      <g>
       <use xlink:href="#m461f22c92e" x="144" y="385.305509" style="stroke: #000000; stroke-width: 0.8"/>
      </g>
     </g>
     <g id="text_24">
      <!-- 0.04 -->
      <g transform="translate(114.734375 389.104728) scale(0.1 -0.1)">
       <defs>
        <path id="DejaVuSans-34" d="M 2419 4116 
L 825 1625 
L 2419 1625 
L 2419 4116 
z
M 2253 4666 
L 3047 4666 
L 3047 1625 
L 3713 1625 
L 3713 1100 
L 3047 1100 
L 3047 0 
L 2419 0 
L 2419 1100 
L 313 1100 
L 313 1709 
L 2253 4666 
z
" transform="scale(0.015625)"/>
       </defs>
       <use xlink:href="#DejaVuSans-30"/>
       <use xlink:href="#DejaVuSans-2e" x="63.623047"/>
       <use xlink:href="#DejaVuSans-30" x="95.410156"/>
       <use xlink:href="#DejaVuSans-34" x="159.033203"/>
      </g>
     </g>
    </g>
   </g>
   <g id="line2d_26">
    <path d="M 144 425.821266 
L 173.769923 423.648099 
L 203.539847 425.712189 
L 292.849617 428.544616 
L 322.61954 429.250654 
L 441.699233 433.269314 
L 471.469156 434.439315 
L 501.23908 435.788143 
L 531.009003 436.912461 
L 590.54885 439.700514 
L 620.318773 441.100426 
L 739.398466 447.37817 
L 798.938313 450.667696 
L 977.557853 460.578006 
L 1007.327776 462.039824 
L 1037.097699 463.619582 
L 1153 469.199537 
L 1153 469.199537 
" clip-path="url(#p39cb93baca)" style="fill: none; stroke: #1f77b4; stroke-width: 1.5; stroke-linecap: square"/>
   </g>
   <g id="patch_10">
    <path d="M 144 576.72 
L 144 349.92 
" style="fill: none; stroke: #000000; stroke-width: 0.8; stroke-linejoin: miter; stroke-linecap: square"/>
   </g>
   <g id="patch_11">
    <path d="M 1036.8 576.72 
L 1036.8 349.92 
" style="fill: none; stroke: #000000; stroke-width: 0.8; stroke-linejoin: miter; stroke-linecap: square"/>
   </g>
   <g id="patch_12">
    <path d="M 144 576.72 
L 1036.8 576.72 
" style="fill: none; stroke: #000000; stroke-width: 0.8; stroke-linejoin: miter; stroke-linecap: square"/>
   </g>
   <g id="patch_13">
    <path d="M 144 349.92 
L 1036.8 349.92 
" style="fill: none; stroke: #000000; stroke-width: 0.8; stroke-linejoin: miter; stroke-linecap: square"/>
   </g>
   <g id="legend_2">
    <g id="patch_14">
     <path d="M 920.578125 372.598125 
L 1029.8 372.598125 
Q 1031.8 372.598125 1031.8 370.598125 
L 1031.8 356.92 
Q 1031.8 354.92 1029.8 354.92 
L 920.578125 354.92 
Q 918.578125 354.92 918.578125 356.92 
L 918.578125 370.598125 
Q 918.578125 372.598125 920.578125 372.598125 
z
" style="fill: #ffffff; opacity: 0.8; stroke: #cccccc; stroke-linejoin: miter"/>
    </g>
    <g id="line2d_27">
     <path d="M 922.578125 363.018437 
L 932.578125 363.018437 
L 942.578125 363.018437 
" style="fill: none; stroke: #1f77b4; stroke-width: 1.5; stroke-linecap: square"/>
    </g>
    <g id="text_25">
     <!-- Prediction Error -->
     <g transform="translate(950.578125 366.518437) scale(0.1 -0.1)">
      <defs>
       <path id="DejaVuSans-45" d="M 628 4666 
L 3578 4666 
L 3578 4134 
L 1259 4134 
L 1259 2753 
L 3481 2753 
L 3481 2222 
L 1259 2222 
L 1259 531 
L 3634 531 
L 3634 0 
L 628 0 
L 628 4666 
z
" transform="scale(0.015625)"/>
      </defs>
      <use xlink:href="#DejaVuSans-50"/>
      <use xlink:href="#DejaVuSans-72" x="58.552734"/>
      <use xlink:href="#DejaVuSans-65" x="97.416016"/>
      <use xlink:href="#DejaVuSans-64" x="158.939453"/>
      <use xlink:href="#DejaVuSans-69" x="222.416016"/>
      <use xlink:href="#DejaVuSans-63" x="250.199219"/>
      <use xlink:href="#DejaVuSans-74" x="305.179688"/>
      <use xlink:href="#DejaVuSans-69" x="344.388672"/>
      <use xlink:href="#DejaVuSans-6f" x="372.171875"/>
      <use xlink:href="#DejaVuSans-6e" x="433.353516"/>
      <use xlink:href="#DejaVuSans-20" x="496.732422"/>
      <use xlink:href="#DejaVuSans-45" x="528.519531"/>
      <use xlink:href="#DejaVuSans-72" x="591.703125"/>
      <use xlink:href="#DejaVuSans-72" x="631.066406"/>
      <use xlink:href="#DejaVuSans-6f" x="669.929688"/>
      <use xlink:href="#DejaVuSans-72" x="731.111328"/>
     </g>
    </g>
   </g>
  </g>
  <g id="text_26">
   <!-- $x$-Position Prediction -->
   <g transform="translate(514.74 22.078125) scale(0.12 -0.12)">
    <defs>
     <path id="DejaVuSans-2d" d="M 313 2009 
L 1997 2009 
L 1997 1497 
L 313 1497 
L 313 2009 
z
" transform="scale(0.015625)"/>
    </defs>
    <use xlink:href="#DejaVuSans-Oblique-78" transform="translate(0 0.015625)"/>
    <use xlink:href="#DejaVuSans-2d" transform="translate(59.179688 0.015625)"/>
    <use xlink:href="#DejaVuSans-50" transform="translate(95.263672 0.015625)"/>
    <use xlink:href="#DejaVuSans-6f" transform="translate(155.566406 0.015625)"/>
    <use xlink:href="#DejaVuSans-73" transform="translate(216.748047 0.015625)"/>
    <use xlink:href="#DejaVuSans-69" transform="translate(268.847656 0.015625)"/>
    <use xlink:href="#DejaVuSans-74" transform="translate(296.630859 0.015625)"/>
    <use xlink:href="#DejaVuSans-69" transform="translate(335.839844 0.015625)"/>
    <use xlink:href="#DejaVuSans-6f" transform="translate(363.623047 0.015625)"/>
    <use xlink:href="#DejaVuSans-6e" transform="translate(424.804688 0.015625)"/>
    <use xlink:href="#DejaVuSans-20" transform="translate(488.183594 0.015625)"/>
    <use xlink:href="#DejaVuSans-50" transform="translate(519.970703 0.015625)"/>
    <use xlink:href="#DejaVuSans-72" transform="translate(580.273438 0.015625)"/>
    <use xlink:href="#DejaVuSans-65" transform="translate(621.386719 0.015625)"/>
    <use xlink:href="#DejaVuSans-64" transform="translate(682.910156 0.015625)"/>
    <use xlink:href="#DejaVuSans-69" transform="translate(746.386719 0.015625)"/>
    <use xlink:href="#DejaVuSans-63" transform="translate(774.169922 0.015625)"/>
    <use xlink:href="#DejaVuSans-74" transform="translate(829.150391 0.015625)"/>
    <use xlink:href="#DejaVuSans-69" transform="translate(868.359375 0.015625)"/>
    <use xlink:href="#DejaVuSans-6f" transform="translate(896.142578 0.015625)"/>
    <use xlink:href="#DejaVuSans-6e" transform="translate(957.324219 0.015625)"/>
   </g>
  </g>
 </g>
 <defs>
  <clipPath id="pe458da9005">
   <rect x="144" y="77.76" width="892.8" height="226.8"/>
  </clipPath>
  <clipPath id="p39cb93baca">
   <rect x="144" y="349.92" width="892.8" height="226.8"/>
  </clipPath>
 </defs>
</svg>
