<?xml version="1.0" encoding="utf-8" standalone="no"?>
<!DOCTYPE svg PUBLIC "-//W3C//DTD SVG 1.1//EN"
  "http://www.w3.org/Graphics/SVG/1.1/DTD/svg11.dtd">
<svg xmlns:xlink="http://www.w3.org/1999/xlink" width="1152pt" height="648pt" viewBox="0 0 1152 648" xmlns="http://www.w3.org/2000/svg" version="1.1">
 <metadata>
  <rdf:RDF xmlns:dc="http://purl.org/dc/elements/1.1/" xmlns:cc="http://creativecommons.org/ns#" xmlns:rdf="http://www.w3.org/1999/02/22-rdf-syntax-ns#">
   <cc:Work>
    <dc:type rdf:resource="http://purl.org/dc/dcmitype/StillImage"/>
    <dc:date>2024-06-19T20:45:32.186918</dc:date>
    <dc:format>image/svg+xml</dc:format>
    <dc:creator>
     <cc:Agent>
      <dc:title>Matplotlib v3.9.0, https://matplotlib.org/</dc:title>
     </cc:Agent>
    </dc:creator>
   </cc:Work>
  </rdf:RDF>
 </metadata>
 <defs>
  <style type="text/css">*{stroke-linejoin: round; stroke-linecap: butt}</style>
 </defs>
 <g id="figure_1">
  <g id="patch_1">
   <path d="M 0 648 
L 1152 648 
L 1152 0 
L 0 0 
z
" style="fill: #ffffff"/>
  </g>
  <g id="axes_1">
   <g id="patch_2">
    <path d="M 144 304.56 
L 1036.8 304.56 
L 1036.8 77.76 
L 144 77.76 
z
" style="fill: #ffffff"/>
   </g>
   <g id="PolyCollection_1">
    <defs>
     <path id="md1c0daf2e0" d="M 292.849617 -502.758794 
L 292.849617 -496.347393 
L 295.826609 -494.503342 
L 298.803601 -492.717446 
L 301.780594 -490.948716 
L 304.757586 -489.204495 
L 307.734578 -487.485832 
L 310.711571 -485.791482 
L 313.688563 -484.121625 
L 316.665555 -482.483244 
L 319.642548 -480.873731 
L 322.61954 -479.294213 
L 325.596532 -477.747607 
L 328.573525 -476.236494 
L 331.550517 -474.754304 
L 334.527509 -473.314605 
L 337.504502 -471.923332 
L 340.481494 -470.580874 
L 343.458486 -469.286929 
L 346.435478 -468.051556 
L 349.412471 -466.872307 
L 352.389463 -465.746504 
L 355.366455 -464.679072 
L 358.343448 -463.669438 
L 361.32044 -462.714366 
L 364.297432 -461.821229 
L 367.274425 -460.987436 
L 370.251417 -460.202182 
L 373.228409 -459.478657 
L 376.205402 -458.814135 
L 379.182394 -458.195813 
L 382.159386 -457.630229 
L 385.136379 -457.115413 
L 388.113371 -456.649402 
L 391.090363 -456.230587 
L 394.067356 -455.857594 
L 397.044348 -455.523526 
L 400.02134 -455.234688 
L 402.998333 -454.983009 
L 405.975325 -454.769449 
L 408.952317 -454.582958 
L 411.92931 -454.429051 
L 414.906302 -454.305047 
L 417.883294 -454.208438 
L 420.860287 -454.13631 
L 423.837279 -454.081937 
L 426.814271 -454.051451 
L 429.791264 -454.028896 
L 432.768256 -454.017869 
L 435.745248 -454.007875 
L 438.722241 -454.010127 
L 441.699233 -454.012407 
L 444.676225 -454.010899 
L 447.653218 -454.002577 
L 450.63021 -453.985889 
L 453.607202 -453.952349 
L 456.584195 -453.901464 
L 459.561187 -453.822625 
L 462.538179 -453.714879 
L 465.515172 -453.576589 
L 468.492164 -453.403113 
L 471.469156 -453.183974 
L 474.446149 -452.917289 
L 477.423141 -452.590927 
L 480.400133 -452.208084 
L 483.377126 -451.757699 
L 486.354118 -451.237922 
L 489.33111 -450.634349 
L 492.308103 -449.947986 
L 495.285095 -449.170108 
L 498.262087 -448.292506 
L 501.23908 -447.316077 
L 504.216072 -446.228412 
L 507.193064 -445.021026 
L 510.170057 -443.688465 
L 513.147049 -442.223216 
L 516.124041 -440.617929 
L 519.101034 -438.870384 
L 522.078026 -436.968609 
L 525.055018 -434.909583 
L 528.032011 -432.689801 
L 531.009003 -430.306506 
L 533.985995 -427.761264 
L 536.962988 -425.044412 
L 539.93998 -422.165006 
L 542.916972 -419.127303 
L 545.893965 -415.936073 
L 548.870957 -412.60236 
L 551.847949 -409.135834 
L 554.824942 -405.554333 
L 557.801934 -401.876764 
L 560.778926 -398.124911 
L 563.755919 -394.3321 
L 566.732911 -390.519854 
L 569.709903 -386.723643 
L 572.686896 -382.969066 
L 575.663888 -379.306867 
L 578.64088 -375.783632 
L 581.617873 -372.416777 
L 584.594865 -369.238658 
L 587.571857 -366.296751 
L 590.54885 -363.616289 
L 593.525842 -361.225458 
L 596.502834 -359.145497 
L 599.479827 -357.384171 
L 602.456819 -355.968662 
L 605.433811 -354.898744 
L 608.410804 -354.176759 
L 611.387796 -353.796152 
L 614.364788 -353.749091 
L 617.341781 -354.028568 
L 620.318773 -354.610366 
L 623.295765 -355.48769 
L 626.272758 -356.636098 
L 629.24975 -358.034368 
L 632.226742 -359.654775 
L 635.203735 -361.480984 
L 638.180727 -363.472949 
L 641.157719 -365.634249 
L 644.134712 -367.943059 
L 647.111704 -370.373661 
L 650.088696 -372.897079 
L 653.065689 -375.514551 
L 656.042681 -378.201078 
L 659.019673 -380.943779 
L 661.996666 -383.730619 
L 664.973658 -386.552775 
L 667.95065 -389.400743 
L 670.927643 -392.274429 
L 673.904635 -395.159198 
L 676.881627 -398.049614 
L 679.85862 -400.937609 
L 682.835612 -403.820234 
L 685.812604 -406.708009 
L 688.789597 -409.587062 
L 691.766589 -412.454262 
L 694.743581 -415.317103 
L 697.720574 -418.166966 
L 700.697566 -420.995351 
L 703.674558 -423.81674 
L 706.651551 -426.624292 
L 709.628543 -429.417468 
L 712.605535 -432.199509 
L 715.582528 -434.974284 
L 718.55952 -437.735165 
L 721.536512 -440.488767 
L 724.513505 -443.23386 
L 727.490497 -445.973378 
L 730.467489 -448.711007 
L 733.444481 -451.443201 
L 736.421474 -454.168441 
L 739.398466 -456.89197 
L 742.375458 -459.595029 
L 745.352451 -462.262863 
L 748.329443 -464.911815 
L 751.306435 -467.536039 
L 754.283428 -470.139811 
L 757.26042 -472.720756 
L 760.237412 -475.278401 
L 763.214405 -477.817781 
L 766.191397 -480.336362 
L 769.168389 -482.830813 
L 772.145382 -485.313086 
L 775.122374 -487.770617 
L 778.099366 -490.203966 
L 781.076359 -492.621909 
L 784.053351 -495.014428 
L 787.030343 -497.389169 
L 790.007336 -499.738522 
L 792.984328 -502.064582 
L 795.96132 -504.364165 
L 798.938313 -506.636818 
L 801.915305 -508.883608 
L 804.892297 -511.097666 
L 807.86929 -513.279237 
L 810.846282 -515.425976 
L 813.823274 -517.538195 
L 816.800267 -519.607861 
L 819.777259 -521.636281 
L 822.754251 -523.622604 
L 825.731244 -525.562359 
L 828.708236 -527.45479 
L 831.685228 -529.293841 
L 834.662221 -531.077367 
L 837.639213 -532.805998 
L 840.616205 -534.474414 
L 843.593198 -536.082406 
L 846.57019 -537.625742 
L 849.547182 -539.104292 
L 852.524175 -540.514644 
L 855.501167 -541.854472 
L 858.478159 -543.123795 
L 861.455152 -544.317003 
L 864.432144 -545.44036 
L 867.409136 -546.486789 
L 870.386129 -547.456456 
L 873.363121 -548.35188 
L 876.340113 -549.170202 
L 879.317106 -549.912465 
L 882.294098 -550.579003 
L 885.27109 -551.171986 
L 888.248083 -551.689922 
L 891.225075 -552.136601 
L 894.202067 -552.514486 
L 897.17906 -552.819646 
L 900.156052 -553.061882 
L 903.133044 -553.239658 
L 906.110037 -553.355921 
L 909.087029 -553.412127 
L 912.064021 -553.415851 
L 915.041014 -553.364132 
L 918.018006 -553.264676 
L 920.994998 -553.120327 
L 923.971991 -552.933919 
L 926.948983 -552.708217 
L 929.925975 -552.447642 
L 932.902968 -552.154006 
L 935.87996 -551.830611 
L 938.856952 -551.482334 
L 941.833945 -551.112872 
L 944.810937 -550.725487 
L 947.787929 -550.320743 
L 950.764922 -549.9086 
L 953.741914 -549.483995 
L 956.718906 -549.052798 
L 959.695899 -548.618335 
L 962.672891 -548.179537 
L 965.649883 -547.748623 
L 968.626876 -547.321061 
L 971.603868 -546.897328 
L 974.58086 -546.484266 
L 977.557853 -546.081019 
L 980.534845 -545.68894 
L 983.511837 -545.311949 
L 986.48883 -544.953782 
L 989.465822 -544.610505 
L 992.442814 -544.286261 
L 995.419807 -543.982152 
L 998.396799 -543.699642 
L 1001.373791 -543.437799 
L 1004.350784 -543.20283 
L 1007.327776 -542.98561 
L 1010.304768 -542.802453 
L 1013.281761 -542.639888 
L 1016.258753 -542.506822 
L 1019.235745 -542.395257 
L 1022.212738 -542.313853 
L 1025.18973 -542.259466 
L 1028.166722 -542.229839 
L 1031.143715 -542.232596 
L 1034.120707 -542.259408 
L 1034.120707 -546.327928 
L 1034.120707 -546.327928 
L 1031.143715 -546.380047 
L 1028.166722 -546.456083 
L 1025.18973 -546.563906 
L 1022.212738 -546.695556 
L 1019.235745 -546.853825 
L 1016.258753 -547.040921 
L 1013.281761 -547.248333 
L 1010.304768 -547.484712 
L 1007.327776 -547.741331 
L 1004.350784 -548.03153 
L 1001.373791 -548.337813 
L 998.396799 -548.670232 
L 995.419807 -549.021771 
L 992.442814 -549.394196 
L 989.465822 -549.784993 
L 986.48883 -550.193794 
L 983.511837 -550.616229 
L 980.534845 -551.057293 
L 977.557853 -551.511781 
L 974.58086 -551.975488 
L 971.603868 -552.448258 
L 968.626876 -552.92943 
L 965.649883 -553.413209 
L 962.672891 -553.901498 
L 959.695899 -554.39638 
L 956.718906 -554.884389 
L 953.741914 -555.366475 
L 950.764922 -555.840462 
L 947.787929 -556.302145 
L 944.810937 -556.7561 
L 941.833945 -557.191244 
L 938.856952 -557.607443 
L 935.87996 -558.001555 
L 932.902968 -558.369183 
L 929.925975 -558.704788 
L 926.948983 -559.005959 
L 923.971991 -559.271534 
L 920.994998 -559.496256 
L 918.018006 -559.678011 
L 915.041014 -559.814632 
L 912.064021 -559.901381 
L 909.087029 -559.930909 
L 906.110037 -559.907733 
L 903.133044 -559.821888 
L 900.156052 -559.672675 
L 897.17906 -559.460216 
L 894.202067 -559.182605 
L 891.225075 -558.829246 
L 888.248083 -558.407177 
L 885.27109 -557.911927 
L 882.294098 -557.339679 
L 879.317106 -556.693332 
L 876.340113 -555.971066 
L 873.363121 -555.171824 
L 870.386129 -554.294458 
L 867.409136 -553.34167 
L 864.432144 -552.310084 
L 861.455152 -551.202469 
L 858.478159 -550.024428 
L 855.501167 -548.76867 
L 852.524175 -547.442397 
L 849.547182 -546.044155 
L 846.57019 -544.577345 
L 843.593198 -543.046034 
L 840.616205 -541.450417 
L 837.639213 -539.794045 
L 834.662221 -538.077176 
L 831.685228 -536.304974 
L 828.708236 -534.475956 
L 825.731244 -532.593466 
L 822.754251 -530.664062 
L 819.777259 -528.688664 
L 816.800267 -526.671938 
L 813.823274 -524.612542 
L 810.846282 -522.510665 
L 807.86929 -520.375198 
L 804.892297 -518.205326 
L 801.915305 -516.003082 
L 798.938313 -513.768681 
L 795.96132 -511.509914 
L 792.984328 -509.224927 
L 790.007336 -506.914597 
L 787.030343 -504.58147 
L 784.053351 -502.224494 
L 781.076359 -499.850774 
L 778.099366 -497.452886 
L 775.122374 -495.040667 
L 772.145382 -492.603712 
L 769.168389 -490.143233 
L 766.191397 -487.671926 
L 763.214405 -485.176196 
L 760.237412 -482.659882 
L 757.26042 -480.12529 
L 754.283428 -477.566149 
L 751.306435 -474.983198 
L 748.329443 -472.378269 
L 745.352451 -469.746449 
L 742.375458 -467.091688 
L 739.398466 -464.398802 
L 736.421474 -461.687061 
L 733.444481 -458.97492 
L 730.467489 -456.256582 
L 727.490497 -453.534322 
L 724.513505 -450.812285 
L 721.536512 -448.085781 
L 718.55952 -445.352097 
L 715.582528 -442.612122 
L 712.605535 -439.858835 
L 709.628543 -437.099301 
L 706.651551 -434.32918 
L 703.674558 -431.544594 
L 700.697566 -428.746534 
L 697.720574 -425.940824 
L 694.743581 -423.111129 
L 691.766589 -420.268438 
L 688.789597 -417.421907 
L 685.812604 -414.563272 
L 682.835612 -411.69796 
L 679.85862 -408.839466 
L 676.881627 -405.97425 
L 673.904635 -403.107038 
L 670.927643 -400.246038 
L 667.95065 -397.400298 
L 664.973658 -394.584182 
L 661.996666 -391.796322 
L 659.019673 -389.045301 
L 656.042681 -386.340786 
L 653.065689 -383.693988 
L 650.088696 -381.119795 
L 647.111704 -378.641092 
L 644.134712 -376.256176 
L 641.157719 -373.997641 
L 638.180727 -371.889946 
L 635.203735 -369.948963 
L 632.226742 -368.16901 
L 629.24975 -366.593013 
L 626.272758 -365.235647 
L 623.295765 -364.124527 
L 620.318773 -363.280506 
L 617.341781 -362.727442 
L 614.364788 -362.469775 
L 611.387796 -362.532417 
L 608.410804 -362.922824 
L 605.433811 -363.649147 
L 602.456819 -364.71867 
L 599.479827 -366.129087 
L 596.502834 -367.881252 
L 593.525842 -369.949067 
L 590.54885 -372.325044 
L 587.571857 -374.98843 
L 584.594865 -377.91062 
L 581.617873 -381.066404 
L 578.64088 -384.410961 
L 575.663888 -387.909321 
L 572.686896 -391.541457 
L 569.709903 -395.263532 
L 566.732911 -399.025741 
L 563.755919 -402.802076 
L 560.778926 -406.556428 
L 557.801934 -410.266831 
L 554.824942 -413.90169 
L 551.847949 -417.439645 
L 548.870957 -420.861684 
L 545.893965 -424.151166 
L 542.916972 -427.297309 
L 539.93998 -430.289901 
L 536.962988 -433.123978 
L 533.985995 -435.796907 
L 531.009003 -438.299892 
L 528.032011 -440.640656 
L 525.055018 -442.819206 
L 522.078026 -444.838776 
L 519.101034 -446.703076 
L 516.124041 -448.414882 
L 513.147049 -449.985239 
L 510.170057 -451.418135 
L 507.193064 -452.719795 
L 504.216072 -453.898078 
L 501.23908 -454.958892 
L 498.262087 -455.908849 
L 495.285095 -456.761283 
L 492.308103 -457.51647 
L 489.33111 -458.181961 
L 486.354118 -458.767671 
L 483.377126 -459.2725 
L 480.400133 -459.709785 
L 477.423141 -460.081113 
L 474.446149 -460.398209 
L 471.469156 -460.65847 
L 468.492164 -460.872375 
L 465.515172 -461.041137 
L 462.538179 -461.173331 
L 459.561187 -461.274587 
L 456.584195 -461.347451 
L 453.607202 -461.391448 
L 450.63021 -461.415819 
L 447.653218 -461.420269 
L 444.676225 -461.412367 
L 441.699233 -461.3963 
L 438.722241 -461.377655 
L 435.745248 -461.358222 
L 432.768256 -461.351966 
L 429.791264 -461.349983 
L 426.814271 -461.361282 
L 423.837279 -461.381528 
L 420.860287 -461.426094 
L 417.883294 -461.489745 
L 414.906302 -461.578419 
L 411.92931 -461.695332 
L 408.952317 -461.842693 
L 405.975325 -462.024072 
L 402.998333 -462.235433 
L 400.02134 -462.485283 
L 397.044348 -462.772613 
L 394.067356 -463.105326 
L 391.090363 -463.477829 
L 388.113371 -463.895259 
L 385.136379 -464.358963 
L 382.159386 -464.869223 
L 379.182394 -465.427827 
L 376.205402 -466.039772 
L 373.228409 -466.69526 
L 370.251417 -467.401907 
L 367.274425 -468.166326 
L 364.297432 -468.975839 
L 361.32044 -469.837476 
L 358.343448 -470.754356 
L 355.366455 -471.721005 
L 352.389463 -472.739484 
L 349.412471 -473.812676 
L 346.435478 -474.93441 
L 343.458486 -476.106801 
L 340.481494 -477.333742 
L 337.504502 -478.610584 
L 334.527509 -479.93682 
L 331.550517 -481.315156 
L 328.573525 -482.74397 
L 325.596532 -484.213927 
L 322.61954 -485.728192 
L 319.642548 -487.28468 
L 316.665555 -488.880228 
L 313.688563 -490.511651 
L 310.711571 -492.18027 
L 307.734578 -493.877064 
L 304.757586 -495.599602 
L 301.780594 -497.347528 
L 298.803601 -499.125094 
L 295.826609 -500.92424 
L 292.849617 -502.758794 
z
" style="stroke: #00ffff; stroke-opacity: 0.5"/>
    </defs>
    <g clip-path="url(#pb661d25c1b)">
     <use xlink:href="#md1c0daf2e0" x="0" y="648" style="fill: #00ffff; fill-opacity: 0.5; stroke: #00ffff; stroke-opacity: 0.5"/>
    </g>
   </g>
   <g id="matplotlib.axis_1">
    <g id="xtick_1">
     <g id="line2d_1">
      <defs>
       <path id="m512f5703f0" d="M 0 0 
L 0 3.5 
" style="stroke: #000000; stroke-width: 0.8"/>
      </defs>
      <g>
       <use xlink:href="#m512f5703f0" x="144" y="304.56" style="stroke: #000000; stroke-width: 0.8"/>
      </g>
     </g>
     <g id="text_1">
      <!-- 0 -->
      <g transform="translate(140.81875 319.158437) scale(0.1 -0.1)">
       <defs>
        <path id="DejaVuSans-30" d="M 2034 4250 
Q 1547 4250 1301 3770 
Q 1056 3291 1056 2328 
Q 1056 1369 1301 889 
Q 1547 409 2034 409 
Q 2525 409 2770 889 
Q 3016 1369 3016 2328 
Q 3016 3291 2770 3770 
Q 2525 4250 2034 4250 
z
M 2034 4750 
Q 2819 4750 3233 4129 
Q 3647 3509 3647 2328 
Q 3647 1150 3233 529 
Q 2819 -91 2034 -91 
Q 1250 -91 836 529 
Q 422 1150 422 2328 
Q 422 3509 836 4129 
Q 1250 4750 2034 4750 
z
" transform="scale(0.015625)"/>
       </defs>
       <use xlink:href="#DejaVuSans-30"/>
      </g>
     </g>
    </g>
    <g id="xtick_2">
     <g id="line2d_2">
      <g>
       <use xlink:href="#m512f5703f0" x="292.849617" y="304.56" style="stroke: #000000; stroke-width: 0.8"/>
      </g>
     </g>
     <g id="text_2">
      <!-- 5 -->
      <g transform="translate(289.668367 319.158437) scale(0.1 -0.1)">
       <defs>
        <path id="DejaVuSans-35" d="M 691 4666 
L 3169 4666 
L 3169 4134 
L 1269 4134 
L 1269 2991 
Q 1406 3038 1543 3061 
Q 1681 3084 1819 3084 
Q 2600 3084 3056 2656 
Q 3513 2228 3513 1497 
Q 3513 744 3044 326 
Q 2575 -91 1722 -91 
Q 1428 -91 1123 -41 
Q 819 9 494 109 
L 494 744 
Q 775 591 1075 516 
Q 1375 441 1709 441 
Q 2250 441 2565 725 
Q 2881 1009 2881 1497 
Q 2881 1984 2565 2268 
Q 2250 2553 1709 2553 
Q 1456 2553 1204 2497 
Q 953 2441 691 2322 
L 691 4666 
z
" transform="scale(0.015625)"/>
       </defs>
       <use xlink:href="#DejaVuSans-35"/>
      </g>
     </g>
    </g>
    <g id="xtick_3">
     <g id="line2d_3">
      <g>
       <use xlink:href="#m512f5703f0" x="441.699233" y="304.56" style="stroke: #000000; stroke-width: 0.8"/>
      </g>
     </g>
     <g id="text_3">
      <!-- 10 -->
      <g transform="translate(435.336733 319.158437) scale(0.1 -0.1)">
       <defs>
        <path id="DejaVuSans-31" d="M 794 531 
L 1825 531 
L 1825 4091 
L 703 3866 
L 703 4441 
L 1819 4666 
L 2450 4666 
L 2450 531 
L 3481 531 
L 3481 0 
L 794 0 
L 794 531 
z
" transform="scale(0.015625)"/>
       </defs>
       <use xlink:href="#DejaVuSans-31"/>
       <use xlink:href="#DejaVuSans-30" x="63.623047"/>
      </g>
     </g>
    </g>
    <g id="xtick_4">
     <g id="line2d_4">
      <g>
       <use xlink:href="#m512f5703f0" x="590.54885" y="304.56" style="stroke: #000000; stroke-width: 0.8"/>
      </g>
     </g>
     <g id="text_4">
      <!-- 15 -->
      <g transform="translate(584.18635 319.158437) scale(0.1 -0.1)">
       <use xlink:href="#DejaVuSans-31"/>
       <use xlink:href="#DejaVuSans-35" x="63.623047"/>
      </g>
     </g>
    </g>
    <g id="xtick_5">
     <g id="line2d_5">
      <g>
       <use xlink:href="#m512f5703f0" x="739.398466" y="304.56" style="stroke: #000000; stroke-width: 0.8"/>
      </g>
     </g>
     <g id="text_5">
      <!-- 20 -->
      <g transform="translate(733.035966 319.158437) scale(0.1 -0.1)">
       <defs>
        <path id="DejaVuSans-32" d="M 1228 531 
L 3431 531 
L 3431 0 
L 469 0 
L 469 531 
Q 828 903 1448 1529 
Q 2069 2156 2228 2338 
Q 2531 2678 2651 2914 
Q 2772 3150 2772 3378 
Q 2772 3750 2511 3984 
Q 2250 4219 1831 4219 
Q 1534 4219 1204 4116 
Q 875 4013 500 3803 
L 500 4441 
Q 881 4594 1212 4672 
Q 1544 4750 1819 4750 
Q 2544 4750 2975 4387 
Q 3406 4025 3406 3419 
Q 3406 3131 3298 2873 
Q 3191 2616 2906 2266 
Q 2828 2175 2409 1742 
Q 1991 1309 1228 531 
z
" transform="scale(0.015625)"/>
       </defs>
       <use xlink:href="#DejaVuSans-32"/>
       <use xlink:href="#DejaVuSans-30" x="63.623047"/>
      </g>
     </g>
    </g>
    <g id="xtick_6">
     <g id="line2d_6">
      <g>
       <use xlink:href="#m512f5703f0" x="888.248083" y="304.56" style="stroke: #000000; stroke-width: 0.8"/>
      </g>
     </g>
     <g id="text_6">
      <!-- 25 -->
      <g transform="translate(881.885583 319.158437) scale(0.1 -0.1)">
       <use xlink:href="#DejaVuSans-32"/>
       <use xlink:href="#DejaVuSans-35" x="63.623047"/>
      </g>
     </g>
    </g>
   </g>
   <g id="matplotlib.axis_2">
    <g id="ytick_1">
     <g id="line2d_7">
      <defs>
       <path id="m8114e0bdb3" d="M 0 0 
L -3.5 0 
" style="stroke: #000000; stroke-width: 0.8"/>
      </defs>
      <g>
       <use xlink:href="#m8114e0bdb3" x="144" y="271.827858" style="stroke: #000000; stroke-width: 0.8"/>
      </g>
     </g>
     <g id="text_7">
      <!-- 1.0 -->
      <g transform="translate(121.096875 275.627077) scale(0.1 -0.1)">
       <defs>
        <path id="DejaVuSans-2e" d="M 684 794 
L 1344 794 
L 1344 0 
L 684 0 
L 684 794 
z
" transform="scale(0.015625)"/>
       </defs>
       <use xlink:href="#DejaVuSans-31"/>
       <use xlink:href="#DejaVuSans-2e" x="63.623047"/>
       <use xlink:href="#DejaVuSans-30" x="95.410156"/>
      </g>
     </g>
    </g>
    <g id="ytick_2">
     <g id="line2d_8">
      <g>
       <use xlink:href="#m8114e0bdb3" x="144" y="230.996033" style="stroke: #000000; stroke-width: 0.8"/>
      </g>
     </g>
     <g id="text_8">
      <!-- 1.5 -->
      <g transform="translate(121.096875 234.795251) scale(0.1 -0.1)">
       <use xlink:href="#DejaVuSans-31"/>
       <use xlink:href="#DejaVuSans-2e" x="63.623047"/>
       <use xlink:href="#DejaVuSans-35" x="95.410156"/>
      </g>
     </g>
    </g>
    <g id="ytick_3">
     <g id="line2d_9">
      <g>
       <use xlink:href="#m8114e0bdb3" x="144" y="190.164207" style="stroke: #000000; stroke-width: 0.8"/>
      </g>
     </g>
     <g id="text_9">
      <!-- 2.0 -->
      <g transform="translate(121.096875 193.963426) scale(0.1 -0.1)">
       <use xlink:href="#DejaVuSans-32"/>
       <use xlink:href="#DejaVuSans-2e" x="63.623047"/>
       <use xlink:href="#DejaVuSans-30" x="95.410156"/>
      </g>
     </g>
    </g>
    <g id="ytick_4">
     <g id="line2d_10">
      <g>
       <use xlink:href="#m8114e0bdb3" x="144" y="149.332382" style="stroke: #000000; stroke-width: 0.8"/>
      </g>
     </g>
     <g id="text_10">
      <!-- 2.5 -->
      <g transform="translate(121.096875 153.131601) scale(0.1 -0.1)">
       <use xlink:href="#DejaVuSans-32"/>
       <use xlink:href="#DejaVuSans-2e" x="63.623047"/>
       <use xlink:href="#DejaVuSans-35" x="95.410156"/>
      </g>
     </g>
    </g>
    <g id="ytick_5">
     <g id="line2d_11">
      <g>
       <use xlink:href="#m8114e0bdb3" x="144" y="108.500556" style="stroke: #000000; stroke-width: 0.8"/>
      </g>
     </g>
     <g id="text_11">
      <!-- 3.0 -->
      <g transform="translate(121.096875 112.299775) scale(0.1 -0.1)">
       <defs>
        <path id="DejaVuSans-33" d="M 2597 2516 
Q 3050 2419 3304 2112 
Q 3559 1806 3559 1356 
Q 3559 666 3084 287 
Q 2609 -91 1734 -91 
Q 1441 -91 1130 -33 
Q 819 25 488 141 
L 488 750 
Q 750 597 1062 519 
Q 1375 441 1716 441 
Q 2309 441 2620 675 
Q 2931 909 2931 1356 
Q 2931 1769 2642 2001 
Q 2353 2234 1838 2234 
L 1294 2234 
L 1294 2753 
L 1863 2753 
Q 2328 2753 2575 2939 
Q 2822 3125 2822 3475 
Q 2822 3834 2567 4026 
Q 2313 4219 1838 4219 
Q 1578 4219 1281 4162 
Q 984 4106 628 3988 
L 628 4550 
Q 988 4650 1302 4700 
Q 1616 4750 1894 4750 
Q 2613 4750 3031 4423 
Q 3450 4097 3450 3541 
Q 3450 3153 3228 2886 
Q 3006 2619 2597 2516 
z
" transform="scale(0.015625)"/>
       </defs>
       <use xlink:href="#DejaVuSans-33"/>
       <use xlink:href="#DejaVuSans-2e" x="63.623047"/>
       <use xlink:href="#DejaVuSans-30" x="95.410156"/>
      </g>
     </g>
    </g>
   </g>
   <g id="line2d_12">
    <path d="M 144 103.546825 
L 149.060887 103.429471 
L 155.014872 103.439296 
L 162.159653 103.676571 
L 169.602134 104.142385 
L 177.342314 104.848128 
L 185.380193 105.818037 
L 193.120373 106.992909 
L 200.562854 108.357213 
L 207.707636 109.89183 
L 214.554718 111.586368 
L 221.104101 113.41779 
L 227.951184 115.5586 
L 234.798266 117.942189 
L 241.645348 120.564728 
L 248.492431 123.428031 
L 255.637212 126.653249 
L 263.079693 130.269189 
L 270.819873 134.266667 
L 280.04855 139.293533 
L 291.65882 145.888262 
L 296.719707 148.926167 
L 304.162187 153.418783 
L 313.688563 158.929813 
L 322.024141 163.512798 
L 329.764321 167.526732 
L 336.909103 171.004096 
L 343.756185 174.077812 
L 350.007869 176.643315 
L 356.557252 179.08034 
L 362.808936 181.162384 
L 368.762921 182.915414 
L 374.716906 184.457742 
L 381.266289 185.904219 
L 387.517973 187.058084 
L 394.067356 188.037516 
L 400.914438 188.832715 
L 408.05922 189.43347 
L 415.501701 189.854988 
L 424.134978 190.115697 
L 434.852151 190.206644 
L 464.026676 190.393111 
L 471.766856 190.77223 
L 478.01854 191.293095 
L 483.972524 192.012581 
L 489.33111 192.88503 
L 494.391997 193.941923 
L 499.155185 195.17028 
L 503.620674 196.544112 
L 507.788463 198.048656 
L 511.956252 199.785396 
L 516.124041 201.776649 
L 519.994131 203.864143 
L 523.864221 206.201685 
L 527.734311 208.800082 
L 531.604401 211.666855 
L 535.474491 214.805811 
L 539.344582 218.229453 
L 543.512371 222.22238 
L 547.68016 226.523256 
L 552.145649 231.451783 
L 557.206536 237.386731 
L 563.16052 244.731878 
L 580.724775 266.634653 
L 585.190263 271.673409 
L 588.762654 275.378731 
L 592.037346 278.46573 
L 595.014338 280.986242 
L 597.99133 283.210089 
L 600.670624 284.945569 
L 603.349917 286.40979 
L 605.731511 287.481316 
L 608.113104 288.331571 
L 610.494698 288.964651 
L 612.876292 289.378314 
L 615.257886 289.578301 
L 617.63948 289.566674 
L 620.318773 289.318009 
L 622.998066 288.818363 
L 625.677359 288.082778 
L 628.356652 287.125863 
L 631.333645 285.82466 
L 634.310637 284.293976 
L 637.883028 282.191015 
L 641.455418 279.838779 
L 645.325509 277.017798 
L 649.790997 273.481883 
L 654.851884 269.196603 
L 661.401267 263.324693 
L 669.736846 255.528292 
L 685.217206 240.638426 
L 703.376859 223.260597 
L 718.261821 209.353297 
L 739.696165 189.689821 
L 750.711037 179.780147 
L 761.725909 170.206407 
L 772.74078 160.9253 
L 783.160253 152.40065 
L 794.175125 143.665305 
L 803.9992 136.150849 
L 812.632477 129.812623 
L 820.372658 124.385263 
L 827.815138 119.430832 
L 834.662221 115.13664 
L 841.211604 111.300329 
L 847.463288 107.906828 
L 853.119573 105.077969 
L 858.775859 102.49844 
L 864.134445 100.296811 
L 869.493031 98.330742 
L 874.851617 96.613845 
L 879.912504 95.22039 
L 884.973391 94.045491 
L 890.034278 93.089817 
L 895.392864 92.305355 
L 900.75145 91.754117 
L 906.110037 91.41341 
L 911.766322 91.27408 
L 917.720307 91.347525 
L 924.26969 91.654073 
L 931.414471 92.221958 
L 939.154652 93.064513 
L 948.681027 94.331517 
L 962.97059 96.484891 
L 981.725642 99.317091 
L 992.740514 100.77978 
L 1002.564588 101.878641 
L 1011.793264 102.688939 
L 1020.724241 103.245228 
L 1029.357519 103.56043 
L 1036.8 103.648986 
L 1036.8 103.648986 
" clip-path="url(#pb661d25c1b)" style="fill: none; stroke-dasharray: 5.55,2.4; stroke-dashoffset: 0; stroke: #ffa500; stroke-width: 1.5"/>
   </g>
   <g id="line2d_13">
    <path d="M 292.849617 148.446907 
L 301.780594 153.851878 
L 310.711571 159.014124 
L 319.642548 163.920794 
L 328.573525 168.509768 
L 334.527509 171.374288 
L 340.481494 174.042692 
L 346.435478 176.507017 
L 352.389463 178.757006 
L 358.343448 180.788103 
L 364.297432 182.601466 
L 370.251417 184.197956 
L 376.205402 185.573047 
L 382.159386 186.750274 
L 388.113371 187.727669 
L 394.067356 188.51854 
L 400.02134 189.140015 
L 408.952317 189.787174 
L 417.883294 190.150909 
L 426.814271 190.293634 
L 444.676225 190.288367 
L 456.584195 190.375542 
L 465.515172 190.691137 
L 471.469156 191.078778 
L 477.423141 191.66398 
L 483.377126 192.484901 
L 489.33111 193.591845 
L 495.285095 195.034304 
L 501.23908 196.862516 
L 504.216072 197.936755 
L 507.193064 199.12959 
L 510.170057 200.4467 
L 513.147049 201.895772 
L 516.124041 203.483594 
L 519.101034 205.21327 
L 522.078026 207.096308 
L 525.055018 209.135605 
L 528.032011 211.334772 
L 531.009003 213.696801 
L 533.985995 216.220915 
L 536.962988 218.915805 
L 539.93998 221.772547 
L 545.893965 227.95638 
L 551.847949 234.712261 
L 557.801934 241.928203 
L 578.64088 267.902703 
L 581.617873 271.25841 
L 584.594865 274.425361 
L 587.571857 277.357409 
L 590.54885 280.029333 
L 593.525842 282.412737 
L 596.502834 284.486626 
L 599.479827 286.243371 
L 602.456819 287.656334 
L 605.433811 288.726054 
L 608.410804 289.450209 
L 611.387796 289.835716 
L 614.364788 289.890567 
L 617.341781 289.621995 
L 620.318773 289.054564 
L 623.295765 288.193891 
L 626.272758 287.064127 
L 629.24975 285.686309 
L 632.226742 284.088107 
L 635.203735 282.285026 
L 638.180727 280.318552 
L 641.157719 278.184055 
L 647.111704 273.492623 
L 653.065689 268.395731 
L 659.019673 263.00546 
L 667.95065 254.599479 
L 706.651551 217.523264 
L 724.513505 200.976928 
L 745.352451 181.995344 
L 757.26042 171.576977 
L 769.168389 161.512977 
L 781.076359 151.763659 
L 792.984328 142.355245 
L 801.915305 135.556655 
L 810.846282 129.031679 
L 819.777259 122.837527 
L 825.731244 118.922087 
L 831.685228 115.200593 
L 837.639213 111.699978 
L 843.593198 108.43578 
L 849.547182 105.425776 
L 855.501167 102.688429 
L 861.455152 100.240264 
L 867.409136 98.08577 
L 873.363121 96.238148 
L 879.317106 94.697102 
L 885.27109 93.458043 
L 891.225075 92.517076 
L 897.17906 91.860069 
L 903.133044 91.469227 
L 909.087029 91.328482 
L 915.041014 91.410618 
L 920.994998 91.691708 
L 926.948983 92.142912 
L 935.87996 93.083917 
L 944.810937 94.259207 
L 959.695899 96.492643 
L 977.557853 99.2036 
L 989.465822 100.802251 
L 998.396799 101.815063 
L 1007.327776 102.636529 
L 1016.258753 103.226128 
L 1025.18973 103.588314 
L 1034.120707 103.706332 
L 1034.120707 103.706332 
" clip-path="url(#pb661d25c1b)" style="fill: none; stroke: #0000ff; stroke-opacity: 0.5; stroke-width: 1.5; stroke-linecap: square"/>
   </g>
   <g id="patch_3">
    <path d="M 144 304.56 
L 144 77.76 
" style="fill: none; stroke: #000000; stroke-width: 0.8; stroke-linejoin: miter; stroke-linecap: square"/>
   </g>
   <g id="patch_4">
    <path d="M 1036.8 304.56 
L 1036.8 77.76 
" style="fill: none; stroke: #000000; stroke-width: 0.8; stroke-linejoin: miter; stroke-linecap: square"/>
   </g>
   <g id="patch_5">
    <path d="M 144 304.56 
L 1036.8 304.56 
" style="fill: none; stroke: #000000; stroke-width: 0.8; stroke-linejoin: miter; stroke-linecap: square"/>
   </g>
   <g id="patch_6">
    <path d="M 144 77.76 
L 1036.8 77.76 
" style="fill: none; stroke: #000000; stroke-width: 0.8; stroke-linejoin: miter; stroke-linecap: square"/>
   </g>
   <g id="legend_1">
    <g id="patch_7">
     <path d="M 151 299.56 
L 256.6 299.56 
Q 258.6 299.56 258.6 297.56 
L 258.6 254.525625 
Q 258.6 252.525625 256.6 252.525625 
L 151 252.525625 
Q 149 252.525625 149 254.525625 
L 149 297.56 
Q 149 299.56 151 299.56 
z
" style="fill: #ffffff; opacity: 0.8; stroke: #cccccc; stroke-linejoin: miter"/>
    </g>
    <g id="line2d_14">
     <path d="M 153 260.624062 
L 163 260.624062 
L 173 260.624062 
" style="fill: none; stroke-dasharray: 5.55,2.4; stroke-dashoffset: 0; stroke: #ffa500; stroke-width: 1.5"/>
    </g>
    <g id="text_12">
     <!-- Real $x$ Position -->
     <g transform="translate(181 264.124062) scale(0.1 -0.1)">
      <defs>
       <path id="DejaVuSans-52" d="M 2841 2188 
Q 3044 2119 3236 1894 
Q 3428 1669 3622 1275 
L 4263 0 
L 3584 0 
L 2988 1197 
Q 2756 1666 2539 1819 
Q 2322 1972 1947 1972 
L 1259 1972 
L 1259 0 
L 628 0 
L 628 4666 
L 2053 4666 
Q 2853 4666 3247 4331 
Q 3641 3997 3641 3322 
Q 3641 2881 3436 2590 
Q 3231 2300 2841 2188 
z
M 1259 4147 
L 1259 2491 
L 2053 2491 
Q 2509 2491 2742 2702 
Q 2975 2913 2975 3322 
Q 2975 3731 2742 3939 
Q 2509 4147 2053 4147 
L 1259 4147 
z
" transform="scale(0.015625)"/>
       <path id="DejaVuSans-65" d="M 3597 1894 
L 3597 1613 
L 953 1613 
Q 991 1019 1311 708 
Q 1631 397 2203 397 
Q 2534 397 2845 478 
Q 3156 559 3463 722 
L 3463 178 
Q 3153 47 2828 -22 
Q 2503 -91 2169 -91 
Q 1331 -91 842 396 
Q 353 884 353 1716 
Q 353 2575 817 3079 
Q 1281 3584 2069 3584 
Q 2775 3584 3186 3129 
Q 3597 2675 3597 1894 
z
M 3022 2063 
Q 3016 2534 2758 2815 
Q 2500 3097 2075 3097 
Q 1594 3097 1305 2825 
Q 1016 2553 972 2059 
L 3022 2063 
z
" transform="scale(0.015625)"/>
       <path id="DejaVuSans-61" d="M 2194 1759 
Q 1497 1759 1228 1600 
Q 959 1441 959 1056 
Q 959 750 1161 570 
Q 1363 391 1709 391 
Q 2188 391 2477 730 
Q 2766 1069 2766 1631 
L 2766 1759 
L 2194 1759 
z
M 3341 1997 
L 3341 0 
L 2766 0 
L 2766 531 
Q 2569 213 2275 61 
Q 1981 -91 1556 -91 
Q 1019 -91 701 211 
Q 384 513 384 1019 
Q 384 1609 779 1909 
Q 1175 2209 1959 2209 
L 2766 2209 
L 2766 2266 
Q 2766 2663 2505 2880 
Q 2244 3097 1772 3097 
Q 1472 3097 1187 3025 
Q 903 2953 641 2809 
L 641 3341 
Q 956 3463 1253 3523 
Q 1550 3584 1831 3584 
Q 2591 3584 2966 3190 
Q 3341 2797 3341 1997 
z
" transform="scale(0.015625)"/>
       <path id="DejaVuSans-6c" d="M 603 4863 
L 1178 4863 
L 1178 0 
L 603 0 
L 603 4863 
z
" transform="scale(0.015625)"/>
       <path id="DejaVuSans-20" transform="scale(0.015625)"/>
       <path id="DejaVuSans-Oblique-78" d="M 3841 3500 
L 2234 1784 
L 3219 0 
L 2559 0 
L 1819 1388 
L 531 0 
L -166 0 
L 1556 1844 
L 641 3500 
L 1300 3500 
L 1972 2234 
L 3144 3500 
L 3841 3500 
z
" transform="scale(0.015625)"/>
       <path id="DejaVuSans-50" d="M 1259 4147 
L 1259 2394 
L 2053 2394 
Q 2494 2394 2734 2622 
Q 2975 2850 2975 3272 
Q 2975 3691 2734 3919 
Q 2494 4147 2053 4147 
L 1259 4147 
z
M 628 4666 
L 2053 4666 
Q 2838 4666 3239 4311 
Q 3641 3956 3641 3272 
Q 3641 2581 3239 2228 
Q 2838 1875 2053 1875 
L 1259 1875 
L 1259 0 
L 628 0 
L 628 4666 
z
" transform="scale(0.015625)"/>
       <path id="DejaVuSans-6f" d="M 1959 3097 
Q 1497 3097 1228 2736 
Q 959 2375 959 1747 
Q 959 1119 1226 758 
Q 1494 397 1959 397 
Q 2419 397 2687 759 
Q 2956 1122 2956 1747 
Q 2956 2369 2687 2733 
Q 2419 3097 1959 3097 
z
M 1959 3584 
Q 2709 3584 3137 3096 
Q 3566 2609 3566 1747 
Q 3566 888 3137 398 
Q 2709 -91 1959 -91 
Q 1206 -91 779 398 
Q 353 888 353 1747 
Q 353 2609 779 3096 
Q 1206 3584 1959 3584 
z
" transform="scale(0.015625)"/>
       <path id="DejaVuSans-73" d="M 2834 3397 
L 2834 2853 
Q 2591 2978 2328 3040 
Q 2066 3103 1784 3103 
Q 1356 3103 1142 2972 
Q 928 2841 928 2578 
Q 928 2378 1081 2264 
Q 1234 2150 1697 2047 
L 1894 2003 
Q 2506 1872 2764 1633 
Q 3022 1394 3022 966 
Q 3022 478 2636 193 
Q 2250 -91 1575 -91 
Q 1294 -91 989 -36 
Q 684 19 347 128 
L 347 722 
Q 666 556 975 473 
Q 1284 391 1588 391 
Q 1994 391 2212 530 
Q 2431 669 2431 922 
Q 2431 1156 2273 1281 
Q 2116 1406 1581 1522 
L 1381 1569 
Q 847 1681 609 1914 
Q 372 2147 372 2553 
Q 372 3047 722 3315 
Q 1072 3584 1716 3584 
Q 2034 3584 2315 3537 
Q 2597 3491 2834 3397 
z
" transform="scale(0.015625)"/>
       <path id="DejaVuSans-69" d="M 603 3500 
L 1178 3500 
L 1178 0 
L 603 0 
L 603 3500 
z
M 603 4863 
L 1178 4863 
L 1178 4134 
L 603 4134 
L 603 4863 
z
" transform="scale(0.015625)"/>
       <path id="DejaVuSans-74" d="M 1172 4494 
L 1172 3500 
L 2356 3500 
L 2356 3053 
L 1172 3053 
L 1172 1153 
Q 1172 725 1289 603 
Q 1406 481 1766 481 
L 2356 481 
L 2356 0 
L 1766 0 
Q 1100 0 847 248 
Q 594 497 594 1153 
L 594 3053 
L 172 3053 
L 172 3500 
L 594 3500 
L 594 4494 
L 1172 4494 
z
" transform="scale(0.015625)"/>
       <path id="DejaVuSans-6e" d="M 3513 2113 
L 3513 0 
L 2938 0 
L 2938 2094 
Q 2938 2591 2744 2837 
Q 2550 3084 2163 3084 
Q 1697 3084 1428 2787 
Q 1159 2491 1159 1978 
L 1159 0 
L 581 0 
L 581 3500 
L 1159 3500 
L 1159 2956 
Q 1366 3272 1645 3428 
Q 1925 3584 2291 3584 
Q 2894 3584 3203 3211 
Q 3513 2838 3513 2113 
z
" transform="scale(0.015625)"/>
      </defs>
      <use xlink:href="#DejaVuSans-52" transform="translate(0 0.015625)"/>
      <use xlink:href="#DejaVuSans-65" transform="translate(69.482422 0.015625)"/>
      <use xlink:href="#DejaVuSans-61" transform="translate(131.005859 0.015625)"/>
      <use xlink:href="#DejaVuSans-6c" transform="translate(192.285156 0.015625)"/>
      <use xlink:href="#DejaVuSans-20" transform="translate(220.068359 0.015625)"/>
      <use xlink:href="#DejaVuSans-Oblique-78" transform="translate(251.855469 0.015625)"/>
      <use xlink:href="#DejaVuSans-20" transform="translate(311.035156 0.015625)"/>
      <use xlink:href="#DejaVuSans-50" transform="translate(342.822266 0.015625)"/>
      <use xlink:href="#DejaVuSans-6f" transform="translate(403.125 0.015625)"/>
      <use xlink:href="#DejaVuSans-73" transform="translate(464.306641 0.015625)"/>
      <use xlink:href="#DejaVuSans-69" transform="translate(516.40625 0.015625)"/>
      <use xlink:href="#DejaVuSans-74" transform="translate(544.189453 0.015625)"/>
      <use xlink:href="#DejaVuSans-69" transform="translate(583.398438 0.015625)"/>
      <use xlink:href="#DejaVuSans-6f" transform="translate(611.181641 0.015625)"/>
      <use xlink:href="#DejaVuSans-6e" transform="translate(672.363281 0.015625)"/>
     </g>
    </g>
    <g id="line2d_15">
     <path d="M 153 275.302188 
L 163 275.302188 
L 173 275.302188 
" style="fill: none; stroke: #0000ff; stroke-opacity: 0.5; stroke-width: 1.5; stroke-linecap: square"/>
    </g>
    <g id="text_13">
     <!-- Prediction $x$ -->
     <g transform="translate(181 278.802188) scale(0.1 -0.1)">
      <defs>
       <path id="DejaVuSans-72" d="M 2631 2963 
Q 2534 3019 2420 3045 
Q 2306 3072 2169 3072 
Q 1681 3072 1420 2755 
Q 1159 2438 1159 1844 
L 1159 0 
L 581 0 
L 581 3500 
L 1159 3500 
L 1159 2956 
Q 1341 3275 1631 3429 
Q 1922 3584 2338 3584 
Q 2397 3584 2469 3576 
Q 2541 3569 2628 3553 
L 2631 2963 
z
" transform="scale(0.015625)"/>
       <path id="DejaVuSans-64" d="M 2906 2969 
L 2906 4863 
L 3481 4863 
L 3481 0 
L 2906 0 
L 2906 525 
Q 2725 213 2448 61 
Q 2172 -91 1784 -91 
Q 1150 -91 751 415 
Q 353 922 353 1747 
Q 353 2572 751 3078 
Q 1150 3584 1784 3584 
Q 2172 3584 2448 3432 
Q 2725 3281 2906 2969 
z
M 947 1747 
Q 947 1113 1208 752 
Q 1469 391 1925 391 
Q 2381 391 2643 752 
Q 2906 1113 2906 1747 
Q 2906 2381 2643 2742 
Q 2381 3103 1925 3103 
Q 1469 3103 1208 2742 
Q 947 2381 947 1747 
z
" transform="scale(0.015625)"/>
       <path id="DejaVuSans-63" d="M 3122 3366 
L 3122 2828 
Q 2878 2963 2633 3030 
Q 2388 3097 2138 3097 
Q 1578 3097 1268 2742 
Q 959 2388 959 1747 
Q 959 1106 1268 751 
Q 1578 397 2138 397 
Q 2388 397 2633 464 
Q 2878 531 3122 666 
L 3122 134 
Q 2881 22 2623 -34 
Q 2366 -91 2075 -91 
Q 1284 -91 818 406 
Q 353 903 353 1747 
Q 353 2603 823 3093 
Q 1294 3584 2113 3584 
Q 2378 3584 2631 3529 
Q 2884 3475 3122 3366 
z
" transform="scale(0.015625)"/>
      </defs>
      <use xlink:href="#DejaVuSans-50" transform="translate(0 0.015625)"/>
      <use xlink:href="#DejaVuSans-72" transform="translate(60.302734 0.015625)"/>
      <use xlink:href="#DejaVuSans-65" transform="translate(101.416016 0.015625)"/>
      <use xlink:href="#DejaVuSans-64" transform="translate(162.939453 0.015625)"/>
      <use xlink:href="#DejaVuSans-69" transform="translate(226.416016 0.015625)"/>
      <use xlink:href="#DejaVuSans-63" transform="translate(254.199219 0.015625)"/>
      <use xlink:href="#DejaVuSans-74" transform="translate(309.179688 0.015625)"/>
      <use xlink:href="#DejaVuSans-69" transform="translate(348.388672 0.015625)"/>
      <use xlink:href="#DejaVuSans-6f" transform="translate(376.171875 0.015625)"/>
      <use xlink:href="#DejaVuSans-6e" transform="translate(437.353516 0.015625)"/>
      <use xlink:href="#DejaVuSans-20" transform="translate(500.732422 0.015625)"/>
      <use xlink:href="#DejaVuSans-Oblique-78" transform="translate(532.519531 0.015625)"/>
     </g>
    </g>
    <g id="patch_8">
     <path d="M 153 293.480312 
L 173 293.480312 
L 173 286.480312 
L 153 286.480312 
z
" style="fill: #00ffff; fill-opacity: 0.5; stroke: #00ffff; stroke-opacity: 0.5; stroke-linejoin: miter"/>
    </g>
    <g id="text_14">
     <!-- Confidence -->
     <g transform="translate(181 293.480312) scale(0.1 -0.1)">
      <defs>
       <path id="DejaVuSans-43" d="M 4122 4306 
L 4122 3641 
Q 3803 3938 3442 4084 
Q 3081 4231 2675 4231 
Q 1875 4231 1450 3742 
Q 1025 3253 1025 2328 
Q 1025 1406 1450 917 
Q 1875 428 2675 428 
Q 3081 428 3442 575 
Q 3803 722 4122 1019 
L 4122 359 
Q 3791 134 3420 21 
Q 3050 -91 2638 -91 
Q 1578 -91 968 557 
Q 359 1206 359 2328 
Q 359 3453 968 4101 
Q 1578 4750 2638 4750 
Q 3056 4750 3426 4639 
Q 3797 4528 4122 4306 
z
" transform="scale(0.015625)"/>
       <path id="DejaVuSans-66" d="M 2375 4863 
L 2375 4384 
L 1825 4384 
Q 1516 4384 1395 4259 
Q 1275 4134 1275 3809 
L 1275 3500 
L 2222 3500 
L 2222 3053 
L 1275 3053 
L 1275 0 
L 697 0 
L 697 3053 
L 147 3053 
L 147 3500 
L 697 3500 
L 697 3744 
Q 697 4328 969 4595 
Q 1241 4863 1831 4863 
L 2375 4863 
z
" transform="scale(0.015625)"/>
      </defs>
      <use xlink:href="#DejaVuSans-43"/>
      <use xlink:href="#DejaVuSans-6f" x="69.824219"/>
      <use xlink:href="#DejaVuSans-6e" x="131.005859"/>
      <use xlink:href="#DejaVuSans-66" x="194.384766"/>
      <use xlink:href="#DejaVuSans-69" x="229.589844"/>
      <use xlink:href="#DejaVuSans-64" x="257.373047"/>
      <use xlink:href="#DejaVuSans-65" x="320.849609"/>
      <use xlink:href="#DejaVuSans-6e" x="382.373047"/>
      <use xlink:href="#DejaVuSans-63" x="445.751953"/>
      <use xlink:href="#DejaVuSans-65" x="500.732422"/>
     </g>
    </g>
   </g>
  </g>
  <g id="axes_2">
   <g id="patch_9">
    <path d="M 144 576.72 
L 1036.8 576.72 
L 1036.8 349.92 
L 144 349.92 
z
" style="fill: #ffffff"/>
   </g>
   <g id="matplotlib.axis_3">
    <g id="xtick_7">
     <g id="line2d_16">
      <g>
       <use xlink:href="#m512f5703f0" x="144" y="576.72" style="stroke: #000000; stroke-width: 0.8"/>
      </g>
     </g>
     <g id="text_15">
      <!-- 0 -->
      <g transform="translate(140.81875 591.318438) scale(0.1 -0.1)">
       <use xlink:href="#DejaVuSans-30"/>
      </g>
     </g>
    </g>
    <g id="xtick_8">
     <g id="line2d_17">
      <g>
       <use xlink:href="#m512f5703f0" x="292.849617" y="576.72" style="stroke: #000000; stroke-width: 0.8"/>
      </g>
     </g>
     <g id="text_16">
      <!-- 5 -->
      <g transform="translate(289.668367 591.318438) scale(0.1 -0.1)">
       <use xlink:href="#DejaVuSans-35"/>
      </g>
     </g>
    </g>
    <g id="xtick_9">
     <g id="line2d_18">
      <g>
       <use xlink:href="#m512f5703f0" x="441.699233" y="576.72" style="stroke: #000000; stroke-width: 0.8"/>
      </g>
     </g>
     <g id="text_17">
      <!-- 10 -->
      <g transform="translate(435.336733 591.318438) scale(0.1 -0.1)">
       <use xlink:href="#DejaVuSans-31"/>
       <use xlink:href="#DejaVuSans-30" x="63.623047"/>
      </g>
     </g>
    </g>
    <g id="xtick_10">
     <g id="line2d_19">
      <g>
       <use xlink:href="#m512f5703f0" x="590.54885" y="576.72" style="stroke: #000000; stroke-width: 0.8"/>
      </g>
     </g>
     <g id="text_18">
      <!-- 15 -->
      <g transform="translate(584.18635 591.318438) scale(0.1 -0.1)">
       <use xlink:href="#DejaVuSans-31"/>
       <use xlink:href="#DejaVuSans-35" x="63.623047"/>
      </g>
     </g>
    </g>
    <g id="xtick_11">
     <g id="line2d_20">
      <g>
       <use xlink:href="#m512f5703f0" x="739.398466" y="576.72" style="stroke: #000000; stroke-width: 0.8"/>
      </g>
     </g>
     <g id="text_19">
      <!-- 20 -->
      <g transform="translate(733.035966 591.318438) scale(0.1 -0.1)">
       <use xlink:href="#DejaVuSans-32"/>
       <use xlink:href="#DejaVuSans-30" x="63.623047"/>
      </g>
     </g>
    </g>
    <g id="xtick_12">
     <g id="line2d_21">
      <g>
       <use xlink:href="#m512f5703f0" x="888.248083" y="576.72" style="stroke: #000000; stroke-width: 0.8"/>
      </g>
     </g>
     <g id="text_20">
      <!-- 25 -->
      <g transform="translate(881.885583 591.318438) scale(0.1 -0.1)">
       <use xlink:href="#DejaVuSans-32"/>
       <use xlink:href="#DejaVuSans-35" x="63.623047"/>
      </g>
     </g>
    </g>
   </g>
   <g id="matplotlib.axis_4">
    <g id="ytick_6">
     <g id="line2d_22">
      <g>
       <use xlink:href="#m8114e0bdb3" x="144" y="558.710757" style="stroke: #000000; stroke-width: 0.8"/>
      </g>
     </g>
     <g id="text_21">
      <!-- −0.03 -->
      <g transform="translate(106.354687 562.509976) scale(0.1 -0.1)">
       <defs>
        <path id="DejaVuSans-2212" d="M 678 2272 
L 4684 2272 
L 4684 1741 
L 678 1741 
L 678 2272 
z
" transform="scale(0.015625)"/>
       </defs>
       <use xlink:href="#DejaVuSans-2212"/>
       <use xlink:href="#DejaVuSans-30" x="83.789062"/>
       <use xlink:href="#DejaVuSans-2e" x="147.412109"/>
       <use xlink:href="#DejaVuSans-30" x="179.199219"/>
       <use xlink:href="#DejaVuSans-33" x="242.822266"/>
      </g>
     </g>
    </g>
    <g id="ytick_7">
     <g id="line2d_23">
      <g>
       <use xlink:href="#m8114e0bdb3" x="144" y="533.503517" style="stroke: #000000; stroke-width: 0.8"/>
      </g>
     </g>
     <g id="text_22">
      <!-- −0.02 -->
      <g transform="translate(106.354687 537.302735) scale(0.1 -0.1)">
       <use xlink:href="#DejaVuSans-2212"/>
       <use xlink:href="#DejaVuSans-30" x="83.789062"/>
       <use xlink:href="#DejaVuSans-2e" x="147.412109"/>
       <use xlink:href="#DejaVuSans-30" x="179.199219"/>
       <use xlink:href="#DejaVuSans-32" x="242.822266"/>
      </g>
     </g>
    </g>
    <g id="ytick_8">
     <g id="line2d_24">
      <g>
       <use xlink:href="#m8114e0bdb3" x="144" y="508.296276" style="stroke: #000000; stroke-width: 0.8"/>
      </g>
     </g>
     <g id="text_23">
      <!-- −0.01 -->
      <g transform="translate(106.354687 512.095495) scale(0.1 -0.1)">
       <use xlink:href="#DejaVuSans-2212"/>
       <use xlink:href="#DejaVuSans-30" x="83.789062"/>
       <use xlink:href="#DejaVuSans-2e" x="147.412109"/>
       <use xlink:href="#DejaVuSans-30" x="179.199219"/>
       <use xlink:href="#DejaVuSans-31" x="242.822266"/>
      </g>
     </g>
    </g>
    <g id="ytick_9">
     <g id="line2d_25">
      <g>
       <use xlink:href="#m8114e0bdb3" x="144" y="483.089035" style="stroke: #000000; stroke-width: 0.8"/>
      </g>
     </g>
     <g id="text_24">
      <!-- 0.00 -->
      <g transform="translate(114.734375 486.888254) scale(0.1 -0.1)">
       <use xlink:href="#DejaVuSans-30"/>
       <use xlink:href="#DejaVuSans-2e" x="63.623047"/>
       <use xlink:href="#DejaVuSans-30" x="95.410156"/>
       <use xlink:href="#DejaVuSans-30" x="159.033203"/>
      </g>
     </g>
    </g>
    <g id="ytick_10">
     <g id="line2d_26">
      <g>
       <use xlink:href="#m8114e0bdb3" x="144" y="457.881795" style="stroke: #000000; stroke-width: 0.8"/>
      </g>
     </g>
     <g id="text_25">
      <!-- 0.01 -->
      <g transform="translate(114.734375 461.681014) scale(0.1 -0.1)">
       <use xlink:href="#DejaVuSans-30"/>
       <use xlink:href="#DejaVuSans-2e" x="63.623047"/>
       <use xlink:href="#DejaVuSans-30" x="95.410156"/>
       <use xlink:href="#DejaVuSans-31" x="159.033203"/>
      </g>
     </g>
    </g>
    <g id="ytick_11">
     <g id="line2d_27">
      <g>
       <use xlink:href="#m8114e0bdb3" x="144" y="432.674554" style="stroke: #000000; stroke-width: 0.8"/>
      </g>
     </g>
     <g id="text_26">
      <!-- 0.02 -->
      <g transform="translate(114.734375 436.473773) scale(0.1 -0.1)">
       <use xlink:href="#DejaVuSans-30"/>
       <use xlink:href="#DejaVuSans-2e" x="63.623047"/>
       <use xlink:href="#DejaVuSans-30" x="95.410156"/>
       <use xlink:href="#DejaVuSans-32" x="159.033203"/>
      </g>
     </g>
    </g>
    <g id="ytick_12">
     <g id="line2d_28">
      <g>
       <use xlink:href="#m8114e0bdb3" x="144" y="407.467314" style="stroke: #000000; stroke-width: 0.8"/>
      </g>
     </g>
     <g id="text_27">
      <!-- 0.03 -->
      <g transform="translate(114.734375 411.266533) scale(0.1 -0.1)">
       <use xlink:href="#DejaVuSans-30"/>
       <use xlink:href="#DejaVuSans-2e" x="63.623047"/>
       <use xlink:href="#DejaVuSans-30" x="95.410156"/>
       <use xlink:href="#DejaVuSans-33" x="159.033203"/>
      </g>
     </g>
    </g>
    <g id="ytick_13">
     <g id="line2d_29">
      <g>
       <use xlink:href="#m8114e0bdb3" x="144" y="382.260073" style="stroke: #000000; stroke-width: 0.8"/>
      </g>
     </g>
     <g id="text_28">
      <!-- 0.04 -->
      <g transform="translate(114.734375 386.059292) scale(0.1 -0.1)">
       <defs>
        <path id="DejaVuSans-34" d="M 2419 4116 
L 825 1625 
L 2419 1625 
L 2419 4116 
z
M 2253 4666 
L 3047 4666 
L 3047 1625 
L 3713 1625 
L 3713 1100 
L 3047 1100 
L 3047 0 
L 2419 0 
L 2419 1100 
L 313 1100 
L 313 1709 
L 2253 4666 
z
" transform="scale(0.015625)"/>
       </defs>
       <use xlink:href="#DejaVuSans-30"/>
       <use xlink:href="#DejaVuSans-2e" x="63.623047"/>
       <use xlink:href="#DejaVuSans-30" x="95.410156"/>
       <use xlink:href="#DejaVuSans-34" x="159.033203"/>
      </g>
     </g>
    </g>
    <g id="ytick_14">
     <g id="line2d_30">
      <g>
       <use xlink:href="#m8114e0bdb3" x="144" y="357.052833" style="stroke: #000000; stroke-width: 0.8"/>
      </g>
     </g>
     <g id="text_29">
      <!-- 0.05 -->
      <g transform="translate(114.734375 360.852052) scale(0.1 -0.1)">
       <use xlink:href="#DejaVuSans-30"/>
       <use xlink:href="#DejaVuSans-2e" x="63.623047"/>
       <use xlink:href="#DejaVuSans-30" x="95.410156"/>
       <use xlink:href="#DejaVuSans-35" x="159.033203"/>
      </g>
     </g>
    </g>
   </g>
   <g id="line2d_31">
    <path d="M 144 425.265452 
L 173.769923 423.860098 
L 203.539847 425.230821 
L 233.30977 425.884981 
L 292.849617 427.399253 
L 352.389463 428.961973 
L 441.699233 431.896303 
L 501.23908 434.156954 
L 531.009003 435.396542 
L 590.54885 438.279427 
L 650.088696 441.306877 
L 918.018006 456.068209 
L 947.787929 457.836401 
L 977.557853 459.427025 
L 1007.327776 460.86271 
L 1066.867623 464.003956 
L 1126.407469 466.882507 
L 1153 468.096166 
L 1153 468.096166 
" clip-path="url(#p4163299478)" style="fill: none; stroke: #1f77b4; stroke-width: 1.5; stroke-linecap: square"/>
   </g>
   <g id="patch_10">
    <path d="M 144 576.72 
L 144 349.92 
" style="fill: none; stroke: #000000; stroke-width: 0.8; stroke-linejoin: miter; stroke-linecap: square"/>
   </g>
   <g id="patch_11">
    <path d="M 1036.8 576.72 
L 1036.8 349.92 
" style="fill: none; stroke: #000000; stroke-width: 0.8; stroke-linejoin: miter; stroke-linecap: square"/>
   </g>
   <g id="patch_12">
    <path d="M 144 576.72 
L 1036.8 576.72 
" style="fill: none; stroke: #000000; stroke-width: 0.8; stroke-linejoin: miter; stroke-linecap: square"/>
   </g>
   <g id="patch_13">
    <path d="M 144 349.92 
L 1036.8 349.92 
" style="fill: none; stroke: #000000; stroke-width: 0.8; stroke-linejoin: miter; stroke-linecap: square"/>
   </g>
   <g id="legend_2">
    <g id="patch_14">
     <path d="M 920.578125 372.598125 
L 1029.8 372.598125 
Q 1031.8 372.598125 1031.8 370.598125 
L 1031.8 356.92 
Q 1031.8 354.92 1029.8 354.92 
L 920.578125 354.92 
Q 918.578125 354.92 918.578125 356.92 
L 918.578125 370.598125 
Q 918.578125 372.598125 920.578125 372.598125 
z
" style="fill: #ffffff; opacity: 0.8; stroke: #cccccc; stroke-linejoin: miter"/>
    </g>
    <g id="line2d_32">
     <path d="M 922.578125 363.018437 
L 932.578125 363.018437 
L 942.578125 363.018437 
" style="fill: none; stroke: #1f77b4; stroke-width: 1.5; stroke-linecap: square"/>
    </g>
    <g id="text_30">
     <!-- Prediction Error -->
     <g transform="translate(950.578125 366.518437) scale(0.1 -0.1)">
      <defs>
       <path id="DejaVuSans-45" d="M 628 4666 
L 3578 4666 
L 3578 4134 
L 1259 4134 
L 1259 2753 
L 3481 2753 
L 3481 2222 
L 1259 2222 
L 1259 531 
L 3634 531 
L 3634 0 
L 628 0 
L 628 4666 
z
" transform="scale(0.015625)"/>
      </defs>
      <use xlink:href="#DejaVuSans-50"/>
      <use xlink:href="#DejaVuSans-72" x="58.552734"/>
      <use xlink:href="#DejaVuSans-65" x="97.416016"/>
      <use xlink:href="#DejaVuSans-64" x="158.939453"/>
      <use xlink:href="#DejaVuSans-69" x="222.416016"/>
      <use xlink:href="#DejaVuSans-63" x="250.199219"/>
      <use xlink:href="#DejaVuSans-74" x="305.179688"/>
      <use xlink:href="#DejaVuSans-69" x="344.388672"/>
      <use xlink:href="#DejaVuSans-6f" x="372.171875"/>
      <use xlink:href="#DejaVuSans-6e" x="433.353516"/>
      <use xlink:href="#DejaVuSans-20" x="496.732422"/>
      <use xlink:href="#DejaVuSans-45" x="528.519531"/>
      <use xlink:href="#DejaVuSans-72" x="591.703125"/>
      <use xlink:href="#DejaVuSans-72" x="631.066406"/>
      <use xlink:href="#DejaVuSans-6f" x="669.929688"/>
      <use xlink:href="#DejaVuSans-72" x="731.111328"/>
     </g>
    </g>
   </g>
  </g>
  <g id="text_31">
   <!-- $x$-Position Prediction -->
   <g transform="translate(514.74 22.078125) scale(0.12 -0.12)">
    <defs>
     <path id="DejaVuSans-2d" d="M 313 2009 
L 1997 2009 
L 1997 1497 
L 313 1497 
L 313 2009 
z
" transform="scale(0.015625)"/>
    </defs>
    <use xlink:href="#DejaVuSans-Oblique-78" transform="translate(0 0.015625)"/>
    <use xlink:href="#DejaVuSans-2d" transform="translate(59.179688 0.015625)"/>
    <use xlink:href="#DejaVuSans-50" transform="translate(95.263672 0.015625)"/>
    <use xlink:href="#DejaVuSans-6f" transform="translate(155.566406 0.015625)"/>
    <use xlink:href="#DejaVuSans-73" transform="translate(216.748047 0.015625)"/>
    <use xlink:href="#DejaVuSans-69" transform="translate(268.847656 0.015625)"/>
    <use xlink:href="#DejaVuSans-74" transform="translate(296.630859 0.015625)"/>
    <use xlink:href="#DejaVuSans-69" transform="translate(335.839844 0.015625)"/>
    <use xlink:href="#DejaVuSans-6f" transform="translate(363.623047 0.015625)"/>
    <use xlink:href="#DejaVuSans-6e" transform="translate(424.804688 0.015625)"/>
    <use xlink:href="#DejaVuSans-20" transform="translate(488.183594 0.015625)"/>
    <use xlink:href="#DejaVuSans-50" transform="translate(519.970703 0.015625)"/>
    <use xlink:href="#DejaVuSans-72" transform="translate(580.273438 0.015625)"/>
    <use xlink:href="#DejaVuSans-65" transform="translate(621.386719 0.015625)"/>
    <use xlink:href="#DejaVuSans-64" transform="translate(682.910156 0.015625)"/>
    <use xlink:href="#DejaVuSans-69" transform="translate(746.386719 0.015625)"/>
    <use xlink:href="#DejaVuSans-63" transform="translate(774.169922 0.015625)"/>
    <use xlink:href="#DejaVuSans-74" transform="translate(829.150391 0.015625)"/>
    <use xlink:href="#DejaVuSans-69" transform="translate(868.359375 0.015625)"/>
    <use xlink:href="#DejaVuSans-6f" transform="translate(896.142578 0.015625)"/>
    <use xlink:href="#DejaVuSans-6e" transform="translate(957.324219 0.015625)"/>
   </g>
  </g>
 </g>
 <defs>
  <clipPath id="pb661d25c1b">
   <rect x="144" y="77.76" width="892.8" height="226.8"/>
  </clipPath>
  <clipPath id="p4163299478">
   <rect x="144" y="349.92" width="892.8" height="226.8"/>
  </clipPath>
 </defs>
</svg>
