<?xml version="1.0" encoding="utf-8" standalone="no"?>
<!DOCTYPE svg PUBLIC "-//W3C//DTD SVG 1.1//EN"
  "http://www.w3.org/Graphics/SVG/1.1/DTD/svg11.dtd">
<svg xmlns:xlink="http://www.w3.org/1999/xlink" width="1152pt" height="648pt" viewBox="0 0 1152 648" xmlns="http://www.w3.org/2000/svg" version="1.1">
 <metadata>
  <rdf:RDF xmlns:dc="http://purl.org/dc/elements/1.1/" xmlns:cc="http://creativecommons.org/ns#" xmlns:rdf="http://www.w3.org/1999/02/22-rdf-syntax-ns#">
   <cc:Work>
    <dc:type rdf:resource="http://purl.org/dc/dcmitype/StillImage"/>
    <dc:date>2024-06-19T20:45:53.196860</dc:date>
    <dc:format>image/svg+xml</dc:format>
    <dc:creator>
     <cc:Agent>
      <dc:title>Matplotlib v3.9.0, https://matplotlib.org/</dc:title>
     </cc:Agent>
    </dc:creator>
   </cc:Work>
  </rdf:RDF>
 </metadata>
 <defs>
  <style type="text/css">*{stroke-linejoin: round; stroke-linecap: butt}</style>
 </defs>
 <g id="figure_1">
  <g id="patch_1">
   <path d="M 0 648 
L 1152 648 
L 1152 0 
L 0 0 
z
" style="fill: #ffffff"/>
  </g>
  <g id="axes_1">
   <g id="patch_2">
    <path d="M 144 304.56 
L 1036.8 304.56 
L 1036.8 77.76 
L 144 77.76 
z
" style="fill: #ffffff"/>
   </g>
   <g id="PolyCollection_1">
    <defs>
     <path id="m6e63e1c2bd" d="M 292.849617 -547.298998 
L 292.849617 -533.932073 
L 295.826609 -535.349225 
L 298.803601 -536.848041 
L 301.780594 -538.23934 
L 304.757586 -539.474437 
L 307.734578 -540.558144 
L 310.711571 -541.473749 
L 313.688563 -542.221816 
L 316.665555 -542.807768 
L 319.642548 -543.216393 
L 322.61954 -543.467478 
L 325.596532 -543.537403 
L 328.573525 -543.423403 
L 331.550517 -543.141292 
L 334.527509 -542.698 
L 337.504502 -542.095324 
L 340.481494 -541.345609 
L 343.458486 -540.440678 
L 346.435478 -539.396149 
L 349.412471 -538.192682 
L 352.389463 -536.836555 
L 355.366455 -535.361233 
L 358.343448 -533.733861 
L 361.32044 -531.963492 
L 364.297432 -530.076106 
L 367.274425 -528.040888 
L 370.251417 -525.878976 
L 373.228409 -523.600206 
L 376.205402 -521.187666 
L 379.182394 -518.66572 
L 382.159386 -516.024372 
L 385.136379 -513.272719 
L 388.113371 -510.404684 
L 391.090363 -507.427385 
L 394.067356 -504.348402 
L 397.044348 -501.173799 
L 400.02134 -497.910605 
L 402.998333 -494.545967 
L 405.975325 -491.091271 
L 408.952317 -487.56536 
L 411.92931 -483.955112 
L 414.906302 -480.274771 
L 417.883294 -476.52051 
L 420.860287 -472.708112 
L 423.837279 -468.830791 
L 426.814271 -464.900125 
L 429.791264 -460.905553 
L 432.768256 -456.857172 
L 435.745248 -452.756383 
L 438.722241 -448.614284 
L 441.699233 -444.422564 
L 444.676225 -440.219723 
L 447.653218 -436.044976 
L 450.63021 -431.895806 
L 453.607202 -427.76822 
L 456.584195 -423.662553 
L 459.561187 -419.57547 
L 462.538179 -415.543117 
L 465.515172 -411.542854 
L 468.492164 -407.589143 
L 471.469156 -403.678556 
L 474.446149 -399.826501 
L 477.423141 -396.03113 
L 480.400133 -392.318384 
L 483.377126 -388.678357 
L 486.354118 -385.135201 
L 489.33111 -381.696613 
L 492.308103 -378.376983 
L 495.285095 -375.17841 
L 498.262087 -372.120684 
L 501.23908 -369.220371 
L 504.216072 -366.498088 
L 507.193064 -363.978559 
L 510.170057 -361.678198 
L 513.147049 -359.628282 
L 516.124041 -357.837409 
L 519.101034 -356.3338 
L 522.078026 -355.149288 
L 525.055018 -354.308246 
L 528.032011 -353.829826 
L 531.009003 -353.749091 
L 533.985995 -354.104969 
L 536.962988 -354.920923 
L 539.93998 -356.212944 
L 542.916972 -358.018778 
L 545.893965 -360.343713 
L 548.870957 -363.216669 
L 551.847949 -366.658862 
L 554.824942 -370.654673 
L 557.801934 -375.229586 
L 560.778926 -380.369964 
L 563.755919 -386.068923 
L 566.732911 -392.293674 
L 569.709903 -399.023746 
L 572.686896 -406.186285 
L 575.663888 -413.746638 
L 578.64088 -421.637146 
L 581.617873 -429.791225 
L 584.594865 -438.128583 
L 587.571857 -446.567802 
L 590.54885 -455.040829 
L 593.525842 -463.432937 
L 596.502834 -471.669695 
L 599.479827 -479.673792 
L 602.456819 -487.381276 
L 605.433811 -494.708898 
L 608.410804 -501.606328 
L 611.387796 -508.017748 
L 614.364788 -513.909317 
L 617.341781 -519.244401 
L 620.318773 -524.010542 
L 623.295765 -528.19365 
L 626.272758 -531.807807 
L 629.24975 -534.844043 
L 632.226742 -537.31751 
L 635.203735 -539.250284 
L 638.180727 -540.656288 
L 641.157719 -541.568095 
L 644.134712 -542.018527 
L 647.111704 -542.029097 
L 650.088696 -541.631816 
L 653.065689 -540.848154 
L 656.042681 -539.711414 
L 659.019673 -538.257333 
L 661.996666 -536.505864 
L 664.973658 -534.486816 
L 667.95065 -532.218315 
L 670.927643 -529.728976 
L 673.904635 -527.032805 
L 676.881627 -524.16332 
L 679.85862 -521.12335 
L 682.835612 -517.93825 
L 685.812604 -514.63148 
L 688.789597 -511.205149 
L 691.766589 -507.672565 
L 694.743581 -504.04555 
L 697.720574 -500.343524 
L 700.697566 -496.574324 
L 703.674558 -492.739055 
L 706.651551 -488.852011 
L 709.628543 -484.907369 
L 712.605535 -480.924038 
L 715.582528 -476.902564 
L 718.55952 -472.844467 
L 721.536512 -468.770779 
L 724.513505 -464.6721 
L 727.490497 -460.563695 
L 730.467489 -456.446909 
L 733.444481 -452.305205 
L 736.421474 -448.170835 
L 739.398466 -444.030331 
L 742.375458 -439.918017 
L 745.352451 -435.877083 
L 748.329443 -431.902748 
L 751.306435 -427.990966 
L 754.283428 -424.142445 
L 757.26042 -420.362937 
L 760.237412 -416.657428 
L 763.214405 -413.022108 
L 766.191397 -409.453657 
L 769.168389 -405.97141 
L 772.145382 -402.564264 
L 775.122374 -399.254561 
L 778.099366 -396.017856 
L 781.076359 -392.883428 
L 784.053351 -389.835971 
L 787.030343 -386.891986 
L 790.007336 -384.044836 
L 792.984328 -381.311988 
L 795.96132 -378.688402 
L 798.938313 -376.186452 
L 801.915305 -373.798604 
L 804.892297 -371.541256 
L 807.86929 -369.413697 
L 810.846282 -367.409697 
L 813.823274 -365.554138 
L 816.800267 -363.837696 
L 819.777259 -362.271673 
L 822.754251 -360.851961 
L 825.731244 -359.593981 
L 828.708236 -358.494133 
L 831.685228 -357.549454 
L 834.662221 -356.76799 
L 837.639213 -356.148591 
L 840.616205 -355.690331 
L 843.593198 -355.397898 
L 846.57019 -355.262468 
L 849.547182 -355.286227 
L 852.524175 -355.495103 
L 855.501167 -355.846975 
L 858.478159 -356.378086 
L 861.455152 -357.047738 
L 864.432144 -357.874984 
L 867.409136 -358.843065 
L 870.386129 -359.965849 
L 873.363121 -361.223769 
L 876.340113 -362.613799 
L 879.317106 -364.142924 
L 882.294098 -365.789281 
L 885.27109 -367.541004 
L 888.248083 -369.393708 
L 891.225075 -371.345522 
L 894.202067 -373.407087 
L 897.17906 -375.528373 
L 900.156052 -377.759292 
L 903.133044 -380.018432 
L 906.110037 -382.347234 
L 909.087029 -384.722401 
L 912.064021 -387.131699 
L 915.041014 -389.575151 
L 918.018006 -392.041428 
L 920.994998 -394.522125 
L 923.971991 -397.009418 
L 926.948983 -399.490194 
L 929.925975 -401.968241 
L 932.902968 -404.425588 
L 935.87996 -406.875862 
L 938.856952 -409.278254 
L 941.833945 -411.654135 
L 944.810937 -413.98436 
L 947.787929 -416.277688 
L 950.764922 -418.512677 
L 953.741914 -420.696518 
L 956.718906 -422.835675 
L 959.695899 -424.905795 
L 962.672891 -426.903742 
L 965.649883 -428.844074 
L 968.626876 -430.728905 
L 971.603868 -432.53434 
L 974.58086 -434.263608 
L 977.557853 -435.922136 
L 980.534845 -437.510021 
L 983.511837 -438.999406 
L 986.48883 -440.427829 
L 989.465822 -441.768698 
L 992.442814 -443.033886 
L 995.419807 -444.215526 
L 998.396799 -445.319609 
L 1001.373791 -446.340271 
L 1004.350784 -447.279527 
L 1007.327776 -448.140553 
L 1010.304768 -448.920982 
L 1013.281761 -449.628009 
L 1016.258753 -450.237428 
L 1019.235745 -450.764367 
L 1022.212738 -451.208825 
L 1025.18973 -451.590696 
L 1028.166722 -451.871277 
L 1031.143715 -452.078012 
L 1034.120707 -452.202867 
L 1034.120707 -460.949775 
L 1034.120707 -460.949775 
L 1031.143715 -460.995454 
L 1028.166722 -460.958613 
L 1025.18973 -460.846385 
L 1022.212738 -460.63084 
L 1019.235745 -460.353079 
L 1016.258753 -459.991811 
L 1013.281761 -459.545011 
L 1010.304768 -458.997279 
L 1007.327776 -458.374479 
L 1004.350784 -457.669822 
L 1001.373791 -456.884608 
L 998.396799 -456.015787 
L 995.419807 -455.060373 
L 992.442814 -454.024966 
L 989.465822 -452.904429 
L 986.48883 -451.704205 
L 983.511837 -450.414984 
L 980.534845 -449.062246 
L 977.557853 -447.604288 
L 974.58086 -446.074762 
L 971.603868 -444.471611 
L 968.626876 -442.786827 
L 965.649883 -441.021705 
L 962.672891 -439.203859 
L 959.695899 -437.325521 
L 956.718906 -435.367882 
L 953.741914 -433.341167 
L 950.764922 -431.272676 
L 947.787929 -429.147358 
L 944.810937 -426.961378 
L 941.833945 -424.736939 
L 938.856952 -422.462123 
L 935.87996 -420.152572 
L 932.902968 -417.790929 
L 929.925975 -415.424236 
L 926.948983 -413.032997 
L 923.971991 -410.634127 
L 920.994998 -408.223344 
L 918.018006 -405.819727 
L 915.041014 -403.428192 
L 912.064021 -401.057041 
L 909.087029 -398.716672 
L 906.110037 -396.404764 
L 903.133044 -394.13893 
L 900.156052 -391.934171 
L 897.17906 -389.753571 
L 894.202067 -387.690687 
L 891.225075 -385.686723 
L 888.248083 -383.796561 
L 885.27109 -381.998062 
L 882.294098 -380.294578 
L 879.317106 -378.692574 
L 876.340113 -377.210909 
L 873.363121 -375.86688 
L 870.386129 -374.654089 
L 867.409136 -373.577089 
L 864.432144 -372.651495 
L 861.455152 -371.861435 
L 858.478159 -371.224551 
L 855.501167 -370.725165 
L 852.524175 -370.402191 
L 849.547182 -370.225812 
L 846.57019 -370.235231 
L 843.593198 -370.39432 
L 840.616205 -370.705645 
L 837.639213 -371.179937 
L 834.662221 -371.814221 
L 831.685228 -372.611114 
L 828.708236 -373.569246 
L 825.731244 -374.683873 
L 822.754251 -375.958662 
L 819.777259 -377.398747 
L 816.800267 -378.986637 
L 813.823274 -380.727409 
L 810.846282 -382.609799 
L 807.86929 -384.640297 
L 804.892297 -386.794712 
L 801.915305 -389.080697 
L 798.938313 -391.498517 
L 795.96132 -394.033253 
L 792.984328 -396.692408 
L 790.007336 -399.462555 
L 787.030343 -402.347723 
L 784.053351 -405.329948 
L 781.076359 -408.417374 
L 778.099366 -411.593613 
L 775.122374 -414.874097 
L 772.145382 -418.230068 
L 769.168389 -421.684899 
L 766.191397 -425.215487 
L 763.214405 -428.832421 
L 760.237412 -432.515785 
L 757.26042 -436.269247 
L 754.283428 -440.095363 
L 751.306435 -443.987263 
L 748.329443 -447.938211 
L 745.352451 -451.946588 
L 742.375458 -456.014035 
L 739.398466 -460.148748 
L 736.421474 -464.314339 
L 733.444481 -468.4772 
L 730.467489 -472.649804 
L 727.490497 -476.800581 
L 724.513505 -480.946677 
L 721.536512 -485.086481 
L 718.55952 -489.204551 
L 715.582528 -493.309215 
L 712.605535 -497.37897 
L 709.628543 -501.412048 
L 706.651551 -505.406666 
L 703.674558 -509.343484 
L 700.697566 -513.229155 
L 697.720574 -517.049623 
L 694.743581 -520.804493 
L 691.766589 -524.484958 
L 688.789597 -528.069727 
L 685.812604 -531.547979 
L 682.835612 -534.90885 
L 679.85862 -538.149975 
L 676.881627 -541.245666 
L 673.904635 -544.174451 
L 670.927643 -546.932978 
L 667.95065 -549.486232 
L 664.973658 -551.821676 
L 661.996666 -553.91221 
L 659.019673 -555.739327 
L 656.042681 -557.27409 
L 653.065689 -558.49576 
L 650.088696 -559.365298 
L 647.111704 -559.850423 
L 644.134712 -559.930909 
L 641.157719 -559.574439 
L 638.180727 -558.757424 
L 635.203735 -557.441863 
L 632.226742 -555.594749 
L 629.24975 -553.200276 
L 626.272758 -550.23643 
L 623.295765 -546.690194 
L 620.318773 -542.569113 
L 617.341781 -537.856236 
L 614.364788 -532.566534 
L 611.387796 -526.712552 
L 608.410804 -520.331835 
L 605.433811 -513.457949 
L 602.456819 -506.147901 
L 599.479827 -498.453204 
L 596.502834 -490.457238 
L 593.525842 -482.219436 
L 590.54885 -473.816173 
L 587.571857 -465.323286 
L 584.594865 -456.85738 
L 581.617873 -448.482565 
L 578.64088 -440.280676 
L 575.663888 -432.332748 
L 572.686896 -424.706373 
L 569.709903 -417.469516 
L 566.732911 -410.657683 
L 563.755919 -404.344339 
L 560.778926 -398.550474 
L 557.801934 -393.310061 
L 554.824942 -388.631015 
L 551.847949 -384.529295 
L 548.870957 -380.98061 
L 545.893965 -378.001525 
L 542.916972 -375.572912 
L 539.93998 -373.664781 
L 536.962988 -372.27157 
L 533.985995 -371.358157 
L 531.009003 -370.907038 
L 528.032011 -370.893453 
L 525.055018 -371.28269 
L 522.078026 -372.03941 
L 519.101034 -373.14313 
L 516.124041 -374.569108 
L 513.147049 -376.288499 
L 510.170057 -378.269628 
L 507.193064 -380.503641 
L 504.216072 -382.959071 
L 501.23908 -385.619615 
L 498.262087 -388.465146 
L 495.285095 -391.47425 
L 492.308103 -394.63102 
L 489.33111 -397.91509 
L 486.354118 -401.319927 
L 483.377126 -404.832021 
L 480.400133 -408.444829 
L 477.423141 -412.134313 
L 474.446149 -415.910279 
L 471.469156 -419.74492 
L 468.492164 -423.642606 
L 465.515172 -427.586242 
L 462.538179 -431.577271 
L 459.561187 -435.596674 
L 456.584195 -439.666799 
L 453.607202 -443.756597 
L 450.63021 -447.865993 
L 447.653218 -451.990006 
L 444.676225 -456.127879 
L 441.699233 -460.288362 
L 438.722241 -464.44329 
L 435.745248 -468.551288 
L 432.768256 -472.619551 
L 429.791264 -476.637909 
L 426.814271 -480.605864 
L 423.837279 -484.511205 
L 420.860287 -488.362694 
L 417.883294 -492.149214 
L 414.906302 -495.875833 
L 411.92931 -499.529203 
L 408.952317 -503.116738 
L 405.975325 -506.620091 
L 402.998333 -510.052322 
L 400.02134 -513.401053 
L 397.044348 -516.654621 
L 394.067356 -519.820142 
L 391.090363 -522.892242 
L 388.113371 -525.865683 
L 385.136379 -528.736014 
L 382.159386 -531.491133 
L 379.182394 -534.136175 
L 376.205402 -536.658012 
L 373.228409 -539.064687 
L 370.251417 -541.330802 
L 367.274425 -543.466641 
L 364.297432 -545.46751 
L 361.32044 -547.304414 
L 358.343448 -549.001394 
L 355.366455 -550.541447 
L 352.389463 -551.902388 
L 349.412471 -553.111461 
L 346.435478 -554.151062 
L 343.458486 -555.007904 
L 340.481494 -555.699329 
L 337.504502 -556.211141 
L 334.527509 -556.558383 
L 331.550517 -556.737561 
L 328.573525 -556.75598 
L 325.596532 -556.623347 
L 322.61954 -556.333498 
L 319.642548 -555.890932 
L 316.665555 -555.32643 
L 313.688563 -554.630579 
L 310.711571 -553.826391 
L 307.734578 -552.920237 
L 304.757586 -551.920234 
L 301.780594 -550.856809 
L 298.803601 -549.73527 
L 295.826609 -548.58484 
L 292.849617 -547.298998 
z
" style="stroke: #00ffff; stroke-opacity: 0.5"/>
    </defs>
    <g clip-path="url(#p4d87d90c9b)">
     <use xlink:href="#m6e63e1c2bd" x="0" y="648" style="fill: #00ffff; fill-opacity: 0.5; stroke: #00ffff; stroke-opacity: 0.5"/>
    </g>
   </g>
   <g id="matplotlib.axis_1">
    <g id="xtick_1">
     <g id="line2d_1">
      <defs>
       <path id="mfed52b1597" d="M 0 0 
L 0 3.5 
" style="stroke: #000000; stroke-width: 0.8"/>
      </defs>
      <g>
       <use xlink:href="#mfed52b1597" x="144" y="304.56" style="stroke: #000000; stroke-width: 0.8"/>
      </g>
     </g>
     <g id="text_1">
      <!-- 0 -->
      <g transform="translate(140.81875 319.158437) scale(0.1 -0.1)">
       <defs>
        <path id="DejaVuSans-30" d="M 2034 4250 
Q 1547 4250 1301 3770 
Q 1056 3291 1056 2328 
Q 1056 1369 1301 889 
Q 1547 409 2034 409 
Q 2525 409 2770 889 
Q 3016 1369 3016 2328 
Q 3016 3291 2770 3770 
Q 2525 4250 2034 4250 
z
M 2034 4750 
Q 2819 4750 3233 4129 
Q 3647 3509 3647 2328 
Q 3647 1150 3233 529 
Q 2819 -91 2034 -91 
Q 1250 -91 836 529 
Q 422 1150 422 2328 
Q 422 3509 836 4129 
Q 1250 4750 2034 4750 
z
" transform="scale(0.015625)"/>
       </defs>
       <use xlink:href="#DejaVuSans-30"/>
      </g>
     </g>
    </g>
    <g id="xtick_2">
     <g id="line2d_2">
      <g>
       <use xlink:href="#mfed52b1597" x="292.849617" y="304.56" style="stroke: #000000; stroke-width: 0.8"/>
      </g>
     </g>
     <g id="text_2">
      <!-- 5 -->
      <g transform="translate(289.668367 319.158437) scale(0.1 -0.1)">
       <defs>
        <path id="DejaVuSans-35" d="M 691 4666 
L 3169 4666 
L 3169 4134 
L 1269 4134 
L 1269 2991 
Q 1406 3038 1543 3061 
Q 1681 3084 1819 3084 
Q 2600 3084 3056 2656 
Q 3513 2228 3513 1497 
Q 3513 744 3044 326 
Q 2575 -91 1722 -91 
Q 1428 -91 1123 -41 
Q 819 9 494 109 
L 494 744 
Q 775 591 1075 516 
Q 1375 441 1709 441 
Q 2250 441 2565 725 
Q 2881 1009 2881 1497 
Q 2881 1984 2565 2268 
Q 2250 2553 1709 2553 
Q 1456 2553 1204 2497 
Q 953 2441 691 2322 
L 691 4666 
z
" transform="scale(0.015625)"/>
       </defs>
       <use xlink:href="#DejaVuSans-35"/>
      </g>
     </g>
    </g>
    <g id="xtick_3">
     <g id="line2d_3">
      <g>
       <use xlink:href="#mfed52b1597" x="441.699233" y="304.56" style="stroke: #000000; stroke-width: 0.8"/>
      </g>
     </g>
     <g id="text_3">
      <!-- 10 -->
      <g transform="translate(435.336733 319.158437) scale(0.1 -0.1)">
       <defs>
        <path id="DejaVuSans-31" d="M 794 531 
L 1825 531 
L 1825 4091 
L 703 3866 
L 703 4441 
L 1819 4666 
L 2450 4666 
L 2450 531 
L 3481 531 
L 3481 0 
L 794 0 
L 794 531 
z
" transform="scale(0.015625)"/>
       </defs>
       <use xlink:href="#DejaVuSans-31"/>
       <use xlink:href="#DejaVuSans-30" x="63.623047"/>
      </g>
     </g>
    </g>
    <g id="xtick_4">
     <g id="line2d_4">
      <g>
       <use xlink:href="#mfed52b1597" x="590.54885" y="304.56" style="stroke: #000000; stroke-width: 0.8"/>
      </g>
     </g>
     <g id="text_4">
      <!-- 15 -->
      <g transform="translate(584.18635 319.158437) scale(0.1 -0.1)">
       <use xlink:href="#DejaVuSans-31"/>
       <use xlink:href="#DejaVuSans-35" x="63.623047"/>
      </g>
     </g>
    </g>
    <g id="xtick_5">
     <g id="line2d_5">
      <g>
       <use xlink:href="#mfed52b1597" x="739.398466" y="304.56" style="stroke: #000000; stroke-width: 0.8"/>
      </g>
     </g>
     <g id="text_5">
      <!-- 20 -->
      <g transform="translate(733.035966 319.158437) scale(0.1 -0.1)">
       <defs>
        <path id="DejaVuSans-32" d="M 1228 531 
L 3431 531 
L 3431 0 
L 469 0 
L 469 531 
Q 828 903 1448 1529 
Q 2069 2156 2228 2338 
Q 2531 2678 2651 2914 
Q 2772 3150 2772 3378 
Q 2772 3750 2511 3984 
Q 2250 4219 1831 4219 
Q 1534 4219 1204 4116 
Q 875 4013 500 3803 
L 500 4441 
Q 881 4594 1212 4672 
Q 1544 4750 1819 4750 
Q 2544 4750 2975 4387 
Q 3406 4025 3406 3419 
Q 3406 3131 3298 2873 
Q 3191 2616 2906 2266 
Q 2828 2175 2409 1742 
Q 1991 1309 1228 531 
z
" transform="scale(0.015625)"/>
       </defs>
       <use xlink:href="#DejaVuSans-32"/>
       <use xlink:href="#DejaVuSans-30" x="63.623047"/>
      </g>
     </g>
    </g>
    <g id="xtick_6">
     <g id="line2d_6">
      <g>
       <use xlink:href="#mfed52b1597" x="888.248083" y="304.56" style="stroke: #000000; stroke-width: 0.8"/>
      </g>
     </g>
     <g id="text_6">
      <!-- 25 -->
      <g transform="translate(881.885583 319.158437) scale(0.1 -0.1)">
       <use xlink:href="#DejaVuSans-32"/>
       <use xlink:href="#DejaVuSans-35" x="63.623047"/>
      </g>
     </g>
    </g>
   </g>
   <g id="matplotlib.axis_2">
    <g id="ytick_1">
     <g id="line2d_7">
      <defs>
       <path id="mb2a4fa0dcd" d="M 0 0 
L -3.5 0 
" style="stroke: #000000; stroke-width: 0.8"/>
      </defs>
      <g>
       <use xlink:href="#mb2a4fa0dcd" x="144" y="296.732264" style="stroke: #000000; stroke-width: 0.8"/>
      </g>
     </g>
     <g id="text_7">
      <!-- 1.4 -->
      <g transform="translate(121.096875 300.531483) scale(0.1 -0.1)">
       <defs>
        <path id="DejaVuSans-2e" d="M 684 794 
L 1344 794 
L 1344 0 
L 684 0 
L 684 794 
z
" transform="scale(0.015625)"/>
        <path id="DejaVuSans-34" d="M 2419 4116 
L 825 1625 
L 2419 1625 
L 2419 4116 
z
M 2253 4666 
L 3047 4666 
L 3047 1625 
L 3713 1625 
L 3713 1100 
L 3047 1100 
L 3047 0 
L 2419 0 
L 2419 1100 
L 313 1100 
L 313 1709 
L 2253 4666 
z
" transform="scale(0.015625)"/>
       </defs>
       <use xlink:href="#DejaVuSans-31"/>
       <use xlink:href="#DejaVuSans-2e" x="63.623047"/>
       <use xlink:href="#DejaVuSans-34" x="95.410156"/>
      </g>
     </g>
    </g>
    <g id="ytick_2">
     <g id="line2d_8">
      <g>
       <use xlink:href="#mb2a4fa0dcd" x="144" y="261.614354" style="stroke: #000000; stroke-width: 0.8"/>
      </g>
     </g>
     <g id="text_8">
      <!-- 1.6 -->
      <g transform="translate(121.096875 265.413573) scale(0.1 -0.1)">
       <defs>
        <path id="DejaVuSans-36" d="M 2113 2584 
Q 1688 2584 1439 2293 
Q 1191 2003 1191 1497 
Q 1191 994 1439 701 
Q 1688 409 2113 409 
Q 2538 409 2786 701 
Q 3034 994 3034 1497 
Q 3034 2003 2786 2293 
Q 2538 2584 2113 2584 
z
M 3366 4563 
L 3366 3988 
Q 3128 4100 2886 4159 
Q 2644 4219 2406 4219 
Q 1781 4219 1451 3797 
Q 1122 3375 1075 2522 
Q 1259 2794 1537 2939 
Q 1816 3084 2150 3084 
Q 2853 3084 3261 2657 
Q 3669 2231 3669 1497 
Q 3669 778 3244 343 
Q 2819 -91 2113 -91 
Q 1303 -91 875 529 
Q 447 1150 447 2328 
Q 447 3434 972 4092 
Q 1497 4750 2381 4750 
Q 2619 4750 2861 4703 
Q 3103 4656 3366 4563 
z
" transform="scale(0.015625)"/>
       </defs>
       <use xlink:href="#DejaVuSans-31"/>
       <use xlink:href="#DejaVuSans-2e" x="63.623047"/>
       <use xlink:href="#DejaVuSans-36" x="95.410156"/>
      </g>
     </g>
    </g>
    <g id="ytick_3">
     <g id="line2d_9">
      <g>
       <use xlink:href="#mb2a4fa0dcd" x="144" y="226.496445" style="stroke: #000000; stroke-width: 0.8"/>
      </g>
     </g>
     <g id="text_9">
      <!-- 1.8 -->
      <g transform="translate(121.096875 230.295663) scale(0.1 -0.1)">
       <defs>
        <path id="DejaVuSans-38" d="M 2034 2216 
Q 1584 2216 1326 1975 
Q 1069 1734 1069 1313 
Q 1069 891 1326 650 
Q 1584 409 2034 409 
Q 2484 409 2743 651 
Q 3003 894 3003 1313 
Q 3003 1734 2745 1975 
Q 2488 2216 2034 2216 
z
M 1403 2484 
Q 997 2584 770 2862 
Q 544 3141 544 3541 
Q 544 4100 942 4425 
Q 1341 4750 2034 4750 
Q 2731 4750 3128 4425 
Q 3525 4100 3525 3541 
Q 3525 3141 3298 2862 
Q 3072 2584 2669 2484 
Q 3125 2378 3379 2068 
Q 3634 1759 3634 1313 
Q 3634 634 3220 271 
Q 2806 -91 2034 -91 
Q 1263 -91 848 271 
Q 434 634 434 1313 
Q 434 1759 690 2068 
Q 947 2378 1403 2484 
z
M 1172 3481 
Q 1172 3119 1398 2916 
Q 1625 2713 2034 2713 
Q 2441 2713 2670 2916 
Q 2900 3119 2900 3481 
Q 2900 3844 2670 4047 
Q 2441 4250 2034 4250 
Q 1625 4250 1398 4047 
Q 1172 3844 1172 3481 
z
" transform="scale(0.015625)"/>
       </defs>
       <use xlink:href="#DejaVuSans-31"/>
       <use xlink:href="#DejaVuSans-2e" x="63.623047"/>
       <use xlink:href="#DejaVuSans-38" x="95.410156"/>
      </g>
     </g>
    </g>
    <g id="ytick_4">
     <g id="line2d_10">
      <g>
       <use xlink:href="#mb2a4fa0dcd" x="144" y="191.378535" style="stroke: #000000; stroke-width: 0.8"/>
      </g>
     </g>
     <g id="text_10">
      <!-- 2.0 -->
      <g transform="translate(121.096875 195.177754) scale(0.1 -0.1)">
       <use xlink:href="#DejaVuSans-32"/>
       <use xlink:href="#DejaVuSans-2e" x="63.623047"/>
       <use xlink:href="#DejaVuSans-30" x="95.410156"/>
      </g>
     </g>
    </g>
    <g id="ytick_5">
     <g id="line2d_11">
      <g>
       <use xlink:href="#mb2a4fa0dcd" x="144" y="156.260625" style="stroke: #000000; stroke-width: 0.8"/>
      </g>
     </g>
     <g id="text_11">
      <!-- 2.2 -->
      <g transform="translate(121.096875 160.059844) scale(0.1 -0.1)">
       <use xlink:href="#DejaVuSans-32"/>
       <use xlink:href="#DejaVuSans-2e" x="63.623047"/>
       <use xlink:href="#DejaVuSans-32" x="95.410156"/>
      </g>
     </g>
    </g>
    <g id="ytick_6">
     <g id="line2d_12">
      <g>
       <use xlink:href="#mb2a4fa0dcd" x="144" y="121.142715" style="stroke: #000000; stroke-width: 0.8"/>
      </g>
     </g>
     <g id="text_12">
      <!-- 2.4 -->
      <g transform="translate(121.096875 124.941934) scale(0.1 -0.1)">
       <use xlink:href="#DejaVuSans-32"/>
       <use xlink:href="#DejaVuSans-2e" x="63.623047"/>
       <use xlink:href="#DejaVuSans-34" x="95.410156"/>
      </g>
     </g>
    </g>
    <g id="ytick_7">
     <g id="line2d_13">
      <g>
       <use xlink:href="#mb2a4fa0dcd" x="144" y="86.024806" style="stroke: #000000; stroke-width: 0.8"/>
      </g>
     </g>
     <g id="text_13">
      <!-- 2.6 -->
      <g transform="translate(121.096875 89.824025) scale(0.1 -0.1)">
       <use xlink:href="#DejaVuSans-32"/>
       <use xlink:href="#DejaVuSans-2e" x="63.623047"/>
       <use xlink:href="#DejaVuSans-36" x="95.410156"/>
      </g>
     </g>
    </g>
   </g>
   <g id="line2d_14">
    <path d="M 144 191.378535 
L 146.083895 191.258758 
L 153.228676 190.272441 
L 159.778059 189.255366 
L 165.434345 188.167111 
L 170.792931 186.907848 
L 175.853818 185.494924 
L 180.617006 183.951792 
L 186.273291 181.875763 
L 191.631877 179.627888 
L 196.692764 177.295902 
L 201.753651 174.728037 
L 207.707636 171.4327 
L 213.363921 168.019184 
L 219.317906 164.17108 
L 225.867289 159.65818 
L 232.416672 154.855107 
L 240.156852 148.917146 
L 249.087829 141.765006 
L 272.308369 123.074542 
L 278.857753 118.133163 
L 284.514038 114.113382 
L 289.574925 110.773063 
L 293.742714 108.246779 
L 296.124308 107.075906 
L 305.650684 102.92262 
L 310.116172 101.286552 
L 313.986262 100.097867 
L 317.856352 99.129489 
L 321.428743 98.451768 
L 325.001134 97.981737 
L 328.573525 97.752937 
L 332.145915 97.761335 
L 335.718306 97.999435 
L 339.290697 98.470133 
L 342.863088 99.168606 
L 346.435478 100.100899 
L 349.71017 101.160742 
L 353.282561 102.549742 
L 357.152651 104.285 
L 360.725042 106.132516 
L 364.892831 108.545968 
L 368.762921 111.047131 
L 373.228409 114.21523 
L 377.396199 117.440897 
L 382.159386 121.416812 
L 386.922574 125.693094 
L 391.685762 130.265599 
L 397.044348 135.725205 
L 402.402934 141.489064 
L 408.05922 147.904997 
L 414.013204 154.967057 
L 420.562588 163.078954 
L 427.707369 172.27895 
L 435.14985 182.226619 
L 443.783128 194.156145 
L 457.774992 213.629035 
L 467.301367 226.574818 
L 475.636946 237.552633 
L 482.781727 246.594635 
L 488.735712 253.778382 
L 493.796599 259.551305 
L 498.559787 264.669881 
L 503.025275 269.133119 
L 506.895365 272.687535 
L 510.467756 275.668297 
L 513.742447 278.11235 
L 517.017139 280.25894 
L 519.696432 281.774021 
L 522.375725 283.045601 
L 525.055018 284.057213 
L 527.436612 284.725765 
L 529.818206 285.168241 
L 531.902101 285.34811 
L 533.985995 285.322081 
L 536.06989 285.083388 
L 538.153785 284.627094 
L 540.237679 283.944621 
L 542.321574 283.020946 
L 544.405468 281.848355 
L 546.489363 280.428614 
L 548.573258 278.74697 
L 550.657152 276.796171 
L 553.038746 274.2309 
L 555.42034 271.314188 
L 557.801934 268.032643 
L 560.183528 264.380206 
L 562.862821 259.841918 
L 565.542114 254.8474 
L 568.519106 248.788807 
L 571.496099 242.216673 
L 574.77079 234.469186 
L 578.64088 224.684324 
L 583.106369 212.716761 
L 589.060353 196.045729 
L 599.777526 165.91223 
L 604.243014 154.064959 
L 608.113104 144.425091 
L 611.387796 136.832538 
L 614.364788 130.439461 
L 617.341781 124.574238 
L 620.021074 119.770309 
L 622.700367 115.431592 
L 625.081961 111.970639 
L 627.463555 108.875734 
L 629.845148 106.153712 
L 632.226742 103.800882 
L 634.310637 102.040164 
L 636.394532 100.548753 
L 638.478426 99.324252 
L 640.562321 98.356465 
L 642.646215 97.633416 
L 644.73011 97.142474 
L 646.814005 96.876208 
L 648.897899 96.825459 
L 650.981794 96.979981 
L 653.363388 97.398809 
L 655.744982 98.062023 
L 658.126576 98.949394 
L 660.805869 100.195122 
L 663.485162 101.689 
L 666.462154 103.61106 
L 669.439146 105.791955 
L 672.713838 108.45967 
L 676.286229 111.660591 
L 680.156319 115.417289 
L 684.621807 120.095224 
L 689.384995 125.404688 
L 694.445882 131.375425 
L 700.995265 139.48379 
L 708.140047 148.703085 
L 716.475625 159.851715 
L 728.383595 176.204722 
L 753.39033 210.587382 
L 760.535112 219.799185 
L 767.382194 228.25293 
L 773.633878 235.62057 
L 779.587863 242.293391 
L 785.244148 248.29386 
L 790.602734 253.65994 
L 795.663621 258.418562 
L 800.426809 262.597536 
L 804.892297 266.239435 
L 809.357786 269.593951 
L 813.823274 272.66456 
L 817.991064 275.242883 
L 821.861154 277.381902 
L 825.433545 279.125407 
L 829.303635 280.755891 
L 832.876025 282.027191 
L 836.448416 283.069269 
L 840.020807 283.876634 
L 843.593198 284.451215 
L 847.165589 284.798052 
L 850.737979 284.927883 
L 854.012671 284.814539 
L 857.585062 284.481917 
L 861.157452 283.908303 
L 864.729843 283.12416 
L 868.599933 282.036969 
L 872.172324 280.806483 
L 876.042414 279.247028 
L 879.912504 277.456899 
L 884.377993 275.124149 
L 889.14118 272.371107 
L 893.606669 269.552598 
L 899.262954 265.671562 
L 906.407736 260.379715 
L 914.147916 254.317363 
L 924.865088 245.594985 
L 940.643148 232.786791 
L 948.383328 226.800556 
L 954.932711 221.988345 
L 961.482094 217.422578 
L 967.733778 213.366737 
L 973.092364 210.103825 
L 978.74865 206.927217 
L 983.809537 204.324221 
L 989.465822 201.685619 
L 994.824408 199.457425 
L 1000.182994 197.492323 
L 1005.243881 195.882899 
L 1010.304768 194.503058 
L 1015.365655 193.354773 
L 1020.128843 192.514556 
L 1025.18973 191.839177 
L 1029.655218 191.439851 
L 1034.418406 191.217423 
L 1036.8 191.188467 
L 1036.8 191.188467 
" clip-path="url(#p4d87d90c9b)" style="fill: none; stroke-dasharray: 5.55,2.4; stroke-dashoffset: 0; stroke: #ffa500; stroke-width: 1.5"/>
   </g>
   <g id="line2d_15">
    <path d="M 292.849617 107.384464 
L 301.780594 103.451925 
L 307.734578 101.260809 
L 310.711571 100.34993 
L 313.688563 99.573802 
L 316.665555 98.932901 
L 319.642548 98.446337 
L 322.61954 98.099512 
L 325.596532 97.919625 
L 328.573525 97.910309 
L 331.550517 98.060574 
L 334.527509 98.371809 
L 337.504502 98.846767 
L 340.481494 99.477531 
L 343.458486 100.275709 
L 346.435478 101.226394 
L 349.412471 102.347928 
L 352.389463 103.630529 
L 355.366455 105.04866 
L 358.343448 106.632373 
L 364.297432 110.228192 
L 370.251417 114.395111 
L 376.205402 119.077161 
L 382.159386 124.242247 
L 388.113371 129.864817 
L 394.067356 135.915728 
L 400.02134 142.344171 
L 405.975325 149.144319 
L 411.92931 156.257842 
L 417.883294 163.665138 
L 423.837279 171.329002 
L 432.768256 183.261638 
L 441.699233 195.644537 
L 453.607202 212.237591 
L 462.538179 224.439806 
L 471.469156 236.288262 
L 477.423141 243.917279 
L 483.377126 251.244811 
L 489.33111 258.194148 
L 495.285095 264.67367 
L 498.262087 267.707085 
L 501.23908 270.580007 
L 504.216072 273.27142 
L 507.193064 275.7589 
L 510.170057 278.026087 
L 513.147049 280.041609 
L 516.124041 281.796742 
L 519.101034 283.261535 
L 522.078026 284.405651 
L 525.055018 285.204532 
L 528.032011 285.63836 
L 531.009003 285.671935 
L 533.985995 285.268437 
L 536.962988 284.403754 
L 539.93998 283.061138 
L 542.916972 281.204155 
L 545.893965 278.827381 
L 548.870957 275.901361 
L 551.847949 272.405922 
L 554.824942 268.357156 
L 557.801934 263.730176 
L 560.778926 258.539781 
L 563.755919 252.793369 
L 566.732911 246.524321 
L 569.709903 239.753369 
L 572.686896 232.553671 
L 575.663888 224.960307 
L 581.617873 208.863105 
L 599.479827 158.936502 
L 602.456819 151.235412 
L 605.433811 143.916577 
L 608.410804 137.030918 
L 611.387796 130.63485 
L 614.364788 124.762074 
L 617.341781 119.449681 
L 620.318773 114.710172 
L 623.295765 110.558078 
L 626.272758 106.977881 
L 629.24975 103.977841 
L 632.226742 101.54387 
L 635.203735 99.653926 
L 638.180727 98.293144 
L 641.157719 97.428733 
L 644.134712 97.025282 
L 647.111704 97.06024 
L 650.088696 97.501443 
L 653.065689 98.328043 
L 656.042681 99.507248 
L 659.019673 101.00167 
L 661.996666 102.790963 
L 664.973658 104.845754 
L 667.95065 107.147726 
L 670.927643 109.669023 
L 673.904635 112.396372 
L 676.881627 115.295507 
L 682.835612 121.57645 
L 688.789597 128.362562 
L 694.743581 135.574978 
L 700.697566 143.098261 
L 709.628543 154.840291 
L 718.55952 166.975491 
L 733.444481 187.608797 
L 745.352451 204.088164 
L 754.283428 215.881096 
L 760.237412 223.413394 
L 766.191397 230.665428 
L 772.145382 237.602834 
L 778.099366 244.194266 
L 784.053351 250.417041 
L 790.007336 256.246305 
L 795.96132 261.639173 
L 801.915305 266.56035 
L 807.86929 270.973003 
L 810.846282 272.990252 
L 813.823274 274.859226 
L 816.800267 276.587834 
L 819.777259 278.16479 
L 822.754251 279.594688 
L 825.731244 280.861073 
L 828.708236 281.96831 
L 831.685228 282.919716 
L 834.662221 283.708894 
L 837.639213 284.335736 
L 840.616205 284.802012 
L 843.593198 285.103891 
L 846.57019 285.251151 
L 849.547182 285.243981 
L 852.524175 285.051353 
L 855.501167 284.71393 
L 858.478159 284.198682 
L 861.455152 283.545413 
L 864.432144 282.736761 
L 867.409136 281.789923 
L 870.386129 280.690031 
L 873.363121 279.454675 
L 876.340113 278.087646 
L 882.294098 274.95807 
L 888.248083 271.404865 
L 894.202067 267.451113 
L 900.156052 263.153268 
L 906.110037 258.624001 
L 915.041014 251.498329 
L 938.856952 232.129812 
L 947.787929 225.287477 
L 953.741914 220.981157 
L 959.695899 216.884342 
L 965.649883 213.067111 
L 971.603868 209.497025 
L 977.557853 206.236788 
L 983.511837 203.292805 
L 989.465822 200.663436 
L 995.419807 198.36205 
L 1001.373791 196.38756 
L 1007.327776 194.742484 
L 1013.281761 193.41349 
L 1019.235745 192.441277 
L 1025.18973 191.781459 
L 1031.143715 191.463267 
L 1034.120707 191.423679 
L 1034.120707 191.423679 
" clip-path="url(#p4d87d90c9b)" style="fill: none; stroke: #0000ff; stroke-opacity: 0.5; stroke-width: 1.5; stroke-linecap: square"/>
   </g>
   <g id="patch_3">
    <path d="M 144 304.56 
L 144 77.76 
" style="fill: none; stroke: #000000; stroke-width: 0.8; stroke-linejoin: miter; stroke-linecap: square"/>
   </g>
   <g id="patch_4">
    <path d="M 1036.8 304.56 
L 1036.8 77.76 
" style="fill: none; stroke: #000000; stroke-width: 0.8; stroke-linejoin: miter; stroke-linecap: square"/>
   </g>
   <g id="patch_5">
    <path d="M 144 304.56 
L 1036.8 304.56 
" style="fill: none; stroke: #000000; stroke-width: 0.8; stroke-linejoin: miter; stroke-linecap: square"/>
   </g>
   <g id="patch_6">
    <path d="M 144 77.76 
L 1036.8 77.76 
" style="fill: none; stroke: #000000; stroke-width: 0.8; stroke-linejoin: miter; stroke-linecap: square"/>
   </g>
   <g id="legend_1">
    <g id="patch_7">
     <path d="M 924.2 129.794375 
L 1029.8 129.794375 
Q 1031.8 129.794375 1031.8 127.794375 
L 1031.8 84.76 
Q 1031.8 82.76 1029.8 82.76 
L 924.2 82.76 
Q 922.2 82.76 922.2 84.76 
L 922.2 127.794375 
Q 922.2 129.794375 924.2 129.794375 
z
" style="fill: #ffffff; opacity: 0.8; stroke: #cccccc; stroke-linejoin: miter"/>
    </g>
    <g id="line2d_16">
     <path d="M 926.2 90.858437 
L 936.2 90.858437 
L 946.2 90.858437 
" style="fill: none; stroke-dasharray: 5.55,2.4; stroke-dashoffset: 0; stroke: #ffa500; stroke-width: 1.5"/>
    </g>
    <g id="text_14">
     <!-- Real $x$ Position -->
     <g transform="translate(954.2 94.358437) scale(0.1 -0.1)">
      <defs>
       <path id="DejaVuSans-52" d="M 2841 2188 
Q 3044 2119 3236 1894 
Q 3428 1669 3622 1275 
L 4263 0 
L 3584 0 
L 2988 1197 
Q 2756 1666 2539 1819 
Q 2322 1972 1947 1972 
L 1259 1972 
L 1259 0 
L 628 0 
L 628 4666 
L 2053 4666 
Q 2853 4666 3247 4331 
Q 3641 3997 3641 3322 
Q 3641 2881 3436 2590 
Q 3231 2300 2841 2188 
z
M 1259 4147 
L 1259 2491 
L 2053 2491 
Q 2509 2491 2742 2702 
Q 2975 2913 2975 3322 
Q 2975 3731 2742 3939 
Q 2509 4147 2053 4147 
L 1259 4147 
z
" transform="scale(0.015625)"/>
       <path id="DejaVuSans-65" d="M 3597 1894 
L 3597 1613 
L 953 1613 
Q 991 1019 1311 708 
Q 1631 397 2203 397 
Q 2534 397 2845 478 
Q 3156 559 3463 722 
L 3463 178 
Q 3153 47 2828 -22 
Q 2503 -91 2169 -91 
Q 1331 -91 842 396 
Q 353 884 353 1716 
Q 353 2575 817 3079 
Q 1281 3584 2069 3584 
Q 2775 3584 3186 3129 
Q 3597 2675 3597 1894 
z
M 3022 2063 
Q 3016 2534 2758 2815 
Q 2500 3097 2075 3097 
Q 1594 3097 1305 2825 
Q 1016 2553 972 2059 
L 3022 2063 
z
" transform="scale(0.015625)"/>
       <path id="DejaVuSans-61" d="M 2194 1759 
Q 1497 1759 1228 1600 
Q 959 1441 959 1056 
Q 959 750 1161 570 
Q 1363 391 1709 391 
Q 2188 391 2477 730 
Q 2766 1069 2766 1631 
L 2766 1759 
L 2194 1759 
z
M 3341 1997 
L 3341 0 
L 2766 0 
L 2766 531 
Q 2569 213 2275 61 
Q 1981 -91 1556 -91 
Q 1019 -91 701 211 
Q 384 513 384 1019 
Q 384 1609 779 1909 
Q 1175 2209 1959 2209 
L 2766 2209 
L 2766 2266 
Q 2766 2663 2505 2880 
Q 2244 3097 1772 3097 
Q 1472 3097 1187 3025 
Q 903 2953 641 2809 
L 641 3341 
Q 956 3463 1253 3523 
Q 1550 3584 1831 3584 
Q 2591 3584 2966 3190 
Q 3341 2797 3341 1997 
z
" transform="scale(0.015625)"/>
       <path id="DejaVuSans-6c" d="M 603 4863 
L 1178 4863 
L 1178 0 
L 603 0 
L 603 4863 
z
" transform="scale(0.015625)"/>
       <path id="DejaVuSans-20" transform="scale(0.015625)"/>
       <path id="DejaVuSans-Oblique-78" d="M 3841 3500 
L 2234 1784 
L 3219 0 
L 2559 0 
L 1819 1388 
L 531 0 
L -166 0 
L 1556 1844 
L 641 3500 
L 1300 3500 
L 1972 2234 
L 3144 3500 
L 3841 3500 
z
" transform="scale(0.015625)"/>
       <path id="DejaVuSans-50" d="M 1259 4147 
L 1259 2394 
L 2053 2394 
Q 2494 2394 2734 2622 
Q 2975 2850 2975 3272 
Q 2975 3691 2734 3919 
Q 2494 4147 2053 4147 
L 1259 4147 
z
M 628 4666 
L 2053 4666 
Q 2838 4666 3239 4311 
Q 3641 3956 3641 3272 
Q 3641 2581 3239 2228 
Q 2838 1875 2053 1875 
L 1259 1875 
L 1259 0 
L 628 0 
L 628 4666 
z
" transform="scale(0.015625)"/>
       <path id="DejaVuSans-6f" d="M 1959 3097 
Q 1497 3097 1228 2736 
Q 959 2375 959 1747 
Q 959 1119 1226 758 
Q 1494 397 1959 397 
Q 2419 397 2687 759 
Q 2956 1122 2956 1747 
Q 2956 2369 2687 2733 
Q 2419 3097 1959 3097 
z
M 1959 3584 
Q 2709 3584 3137 3096 
Q 3566 2609 3566 1747 
Q 3566 888 3137 398 
Q 2709 -91 1959 -91 
Q 1206 -91 779 398 
Q 353 888 353 1747 
Q 353 2609 779 3096 
Q 1206 3584 1959 3584 
z
" transform="scale(0.015625)"/>
       <path id="DejaVuSans-73" d="M 2834 3397 
L 2834 2853 
Q 2591 2978 2328 3040 
Q 2066 3103 1784 3103 
Q 1356 3103 1142 2972 
Q 928 2841 928 2578 
Q 928 2378 1081 2264 
Q 1234 2150 1697 2047 
L 1894 2003 
Q 2506 1872 2764 1633 
Q 3022 1394 3022 966 
Q 3022 478 2636 193 
Q 2250 -91 1575 -91 
Q 1294 -91 989 -36 
Q 684 19 347 128 
L 347 722 
Q 666 556 975 473 
Q 1284 391 1588 391 
Q 1994 391 2212 530 
Q 2431 669 2431 922 
Q 2431 1156 2273 1281 
Q 2116 1406 1581 1522 
L 1381 1569 
Q 847 1681 609 1914 
Q 372 2147 372 2553 
Q 372 3047 722 3315 
Q 1072 3584 1716 3584 
Q 2034 3584 2315 3537 
Q 2597 3491 2834 3397 
z
" transform="scale(0.015625)"/>
       <path id="DejaVuSans-69" d="M 603 3500 
L 1178 3500 
L 1178 0 
L 603 0 
L 603 3500 
z
M 603 4863 
L 1178 4863 
L 1178 4134 
L 603 4134 
L 603 4863 
z
" transform="scale(0.015625)"/>
       <path id="DejaVuSans-74" d="M 1172 4494 
L 1172 3500 
L 2356 3500 
L 2356 3053 
L 1172 3053 
L 1172 1153 
Q 1172 725 1289 603 
Q 1406 481 1766 481 
L 2356 481 
L 2356 0 
L 1766 0 
Q 1100 0 847 248 
Q 594 497 594 1153 
L 594 3053 
L 172 3053 
L 172 3500 
L 594 3500 
L 594 4494 
L 1172 4494 
z
" transform="scale(0.015625)"/>
       <path id="DejaVuSans-6e" d="M 3513 2113 
L 3513 0 
L 2938 0 
L 2938 2094 
Q 2938 2591 2744 2837 
Q 2550 3084 2163 3084 
Q 1697 3084 1428 2787 
Q 1159 2491 1159 1978 
L 1159 0 
L 581 0 
L 581 3500 
L 1159 3500 
L 1159 2956 
Q 1366 3272 1645 3428 
Q 1925 3584 2291 3584 
Q 2894 3584 3203 3211 
Q 3513 2838 3513 2113 
z
" transform="scale(0.015625)"/>
      </defs>
      <use xlink:href="#DejaVuSans-52" transform="translate(0 0.015625)"/>
      <use xlink:href="#DejaVuSans-65" transform="translate(69.482422 0.015625)"/>
      <use xlink:href="#DejaVuSans-61" transform="translate(131.005859 0.015625)"/>
      <use xlink:href="#DejaVuSans-6c" transform="translate(192.285156 0.015625)"/>
      <use xlink:href="#DejaVuSans-20" transform="translate(220.068359 0.015625)"/>
      <use xlink:href="#DejaVuSans-Oblique-78" transform="translate(251.855469 0.015625)"/>
      <use xlink:href="#DejaVuSans-20" transform="translate(311.035156 0.015625)"/>
      <use xlink:href="#DejaVuSans-50" transform="translate(342.822266 0.015625)"/>
      <use xlink:href="#DejaVuSans-6f" transform="translate(403.125 0.015625)"/>
      <use xlink:href="#DejaVuSans-73" transform="translate(464.306641 0.015625)"/>
      <use xlink:href="#DejaVuSans-69" transform="translate(516.40625 0.015625)"/>
      <use xlink:href="#DejaVuSans-74" transform="translate(544.189453 0.015625)"/>
      <use xlink:href="#DejaVuSans-69" transform="translate(583.398438 0.015625)"/>
      <use xlink:href="#DejaVuSans-6f" transform="translate(611.181641 0.015625)"/>
      <use xlink:href="#DejaVuSans-6e" transform="translate(672.363281 0.015625)"/>
     </g>
    </g>
    <g id="line2d_17">
     <path d="M 926.2 105.536562 
L 936.2 105.536562 
L 946.2 105.536562 
" style="fill: none; stroke: #0000ff; stroke-opacity: 0.5; stroke-width: 1.5; stroke-linecap: square"/>
    </g>
    <g id="text_15">
     <!-- Prediction $x$ -->
     <g transform="translate(954.2 109.036562) scale(0.1 -0.1)">
      <defs>
       <path id="DejaVuSans-72" d="M 2631 2963 
Q 2534 3019 2420 3045 
Q 2306 3072 2169 3072 
Q 1681 3072 1420 2755 
Q 1159 2438 1159 1844 
L 1159 0 
L 581 0 
L 581 3500 
L 1159 3500 
L 1159 2956 
Q 1341 3275 1631 3429 
Q 1922 3584 2338 3584 
Q 2397 3584 2469 3576 
Q 2541 3569 2628 3553 
L 2631 2963 
z
" transform="scale(0.015625)"/>
       <path id="DejaVuSans-64" d="M 2906 2969 
L 2906 4863 
L 3481 4863 
L 3481 0 
L 2906 0 
L 2906 525 
Q 2725 213 2448 61 
Q 2172 -91 1784 -91 
Q 1150 -91 751 415 
Q 353 922 353 1747 
Q 353 2572 751 3078 
Q 1150 3584 1784 3584 
Q 2172 3584 2448 3432 
Q 2725 3281 2906 2969 
z
M 947 1747 
Q 947 1113 1208 752 
Q 1469 391 1925 391 
Q 2381 391 2643 752 
Q 2906 1113 2906 1747 
Q 2906 2381 2643 2742 
Q 2381 3103 1925 3103 
Q 1469 3103 1208 2742 
Q 947 2381 947 1747 
z
" transform="scale(0.015625)"/>
       <path id="DejaVuSans-63" d="M 3122 3366 
L 3122 2828 
Q 2878 2963 2633 3030 
Q 2388 3097 2138 3097 
Q 1578 3097 1268 2742 
Q 959 2388 959 1747 
Q 959 1106 1268 751 
Q 1578 397 2138 397 
Q 2388 397 2633 464 
Q 2878 531 3122 666 
L 3122 134 
Q 2881 22 2623 -34 
Q 2366 -91 2075 -91 
Q 1284 -91 818 406 
Q 353 903 353 1747 
Q 353 2603 823 3093 
Q 1294 3584 2113 3584 
Q 2378 3584 2631 3529 
Q 2884 3475 3122 3366 
z
" transform="scale(0.015625)"/>
      </defs>
      <use xlink:href="#DejaVuSans-50" transform="translate(0 0.015625)"/>
      <use xlink:href="#DejaVuSans-72" transform="translate(60.302734 0.015625)"/>
      <use xlink:href="#DejaVuSans-65" transform="translate(101.416016 0.015625)"/>
      <use xlink:href="#DejaVuSans-64" transform="translate(162.939453 0.015625)"/>
      <use xlink:href="#DejaVuSans-69" transform="translate(226.416016 0.015625)"/>
      <use xlink:href="#DejaVuSans-63" transform="translate(254.199219 0.015625)"/>
      <use xlink:href="#DejaVuSans-74" transform="translate(309.179688 0.015625)"/>
      <use xlink:href="#DejaVuSans-69" transform="translate(348.388672 0.015625)"/>
      <use xlink:href="#DejaVuSans-6f" transform="translate(376.171875 0.015625)"/>
      <use xlink:href="#DejaVuSans-6e" transform="translate(437.353516 0.015625)"/>
      <use xlink:href="#DejaVuSans-20" transform="translate(500.732422 0.015625)"/>
      <use xlink:href="#DejaVuSans-Oblique-78" transform="translate(532.519531 0.015625)"/>
     </g>
    </g>
    <g id="patch_8">
     <path d="M 926.2 123.714687 
L 946.2 123.714687 
L 946.2 116.714687 
L 926.2 116.714687 
z
" style="fill: #00ffff; fill-opacity: 0.5; stroke: #00ffff; stroke-opacity: 0.5; stroke-linejoin: miter"/>
    </g>
    <g id="text_16">
     <!-- Confidence -->
     <g transform="translate(954.2 123.714687) scale(0.1 -0.1)">
      <defs>
       <path id="DejaVuSans-43" d="M 4122 4306 
L 4122 3641 
Q 3803 3938 3442 4084 
Q 3081 4231 2675 4231 
Q 1875 4231 1450 3742 
Q 1025 3253 1025 2328 
Q 1025 1406 1450 917 
Q 1875 428 2675 428 
Q 3081 428 3442 575 
Q 3803 722 4122 1019 
L 4122 359 
Q 3791 134 3420 21 
Q 3050 -91 2638 -91 
Q 1578 -91 968 557 
Q 359 1206 359 2328 
Q 359 3453 968 4101 
Q 1578 4750 2638 4750 
Q 3056 4750 3426 4639 
Q 3797 4528 4122 4306 
z
" transform="scale(0.015625)"/>
       <path id="DejaVuSans-66" d="M 2375 4863 
L 2375 4384 
L 1825 4384 
Q 1516 4384 1395 4259 
Q 1275 4134 1275 3809 
L 1275 3500 
L 2222 3500 
L 2222 3053 
L 1275 3053 
L 1275 0 
L 697 0 
L 697 3053 
L 147 3053 
L 147 3500 
L 697 3500 
L 697 3744 
Q 697 4328 969 4595 
Q 1241 4863 1831 4863 
L 2375 4863 
z
" transform="scale(0.015625)"/>
      </defs>
      <use xlink:href="#DejaVuSans-43"/>
      <use xlink:href="#DejaVuSans-6f" x="69.824219"/>
      <use xlink:href="#DejaVuSans-6e" x="131.005859"/>
      <use xlink:href="#DejaVuSans-66" x="194.384766"/>
      <use xlink:href="#DejaVuSans-69" x="229.589844"/>
      <use xlink:href="#DejaVuSans-64" x="257.373047"/>
      <use xlink:href="#DejaVuSans-65" x="320.849609"/>
      <use xlink:href="#DejaVuSans-6e" x="382.373047"/>
      <use xlink:href="#DejaVuSans-63" x="445.751953"/>
      <use xlink:href="#DejaVuSans-65" x="500.732422"/>
     </g>
    </g>
   </g>
  </g>
  <g id="axes_2">
   <g id="patch_9">
    <path d="M 144 576.72 
L 1036.8 576.72 
L 1036.8 349.92 
L 144 349.92 
z
" style="fill: #ffffff"/>
   </g>
   <g id="matplotlib.axis_3">
    <g id="xtick_7">
     <g id="line2d_18">
      <g>
       <use xlink:href="#mfed52b1597" x="144" y="576.72" style="stroke: #000000; stroke-width: 0.8"/>
      </g>
     </g>
     <g id="text_17">
      <!-- 0 -->
      <g transform="translate(140.81875 591.318438) scale(0.1 -0.1)">
       <use xlink:href="#DejaVuSans-30"/>
      </g>
     </g>
    </g>
    <g id="xtick_8">
     <g id="line2d_19">
      <g>
       <use xlink:href="#mfed52b1597" x="292.849617" y="576.72" style="stroke: #000000; stroke-width: 0.8"/>
      </g>
     </g>
     <g id="text_18">
      <!-- 5 -->
      <g transform="translate(289.668367 591.318438) scale(0.1 -0.1)">
       <use xlink:href="#DejaVuSans-35"/>
      </g>
     </g>
    </g>
    <g id="xtick_9">
     <g id="line2d_20">
      <g>
       <use xlink:href="#mfed52b1597" x="441.699233" y="576.72" style="stroke: #000000; stroke-width: 0.8"/>
      </g>
     </g>
     <g id="text_19">
      <!-- 10 -->
      <g transform="translate(435.336733 591.318438) scale(0.1 -0.1)">
       <use xlink:href="#DejaVuSans-31"/>
       <use xlink:href="#DejaVuSans-30" x="63.623047"/>
      </g>
     </g>
    </g>
    <g id="xtick_10">
     <g id="line2d_21">
      <g>
       <use xlink:href="#mfed52b1597" x="590.54885" y="576.72" style="stroke: #000000; stroke-width: 0.8"/>
      </g>
     </g>
     <g id="text_20">
      <!-- 15 -->
      <g transform="translate(584.18635 591.318438) scale(0.1 -0.1)">
       <use xlink:href="#DejaVuSans-31"/>
       <use xlink:href="#DejaVuSans-35" x="63.623047"/>
      </g>
     </g>
    </g>
    <g id="xtick_11">
     <g id="line2d_22">
      <g>
       <use xlink:href="#mfed52b1597" x="739.398466" y="576.72" style="stroke: #000000; stroke-width: 0.8"/>
      </g>
     </g>
     <g id="text_21">
      <!-- 20 -->
      <g transform="translate(733.035966 591.318438) scale(0.1 -0.1)">
       <use xlink:href="#DejaVuSans-32"/>
       <use xlink:href="#DejaVuSans-30" x="63.623047"/>
      </g>
     </g>
    </g>
    <g id="xtick_12">
     <g id="line2d_23">
      <g>
       <use xlink:href="#mfed52b1597" x="888.248083" y="576.72" style="stroke: #000000; stroke-width: 0.8"/>
      </g>
     </g>
     <g id="text_22">
      <!-- 25 -->
      <g transform="translate(881.885583 591.318438) scale(0.1 -0.1)">
       <use xlink:href="#DejaVuSans-32"/>
       <use xlink:href="#DejaVuSans-35" x="63.623047"/>
      </g>
     </g>
    </g>
   </g>
   <g id="matplotlib.axis_4">
    <g id="ytick_8">
     <g id="line2d_24">
      <g>
       <use xlink:href="#mb2a4fa0dcd" x="144" y="575.256221" style="stroke: #000000; stroke-width: 0.8"/>
      </g>
     </g>
     <g id="text_23">
      <!-- −0.05 -->
      <g transform="translate(106.354687 579.05544) scale(0.1 -0.1)">
       <defs>
        <path id="DejaVuSans-2212" d="M 678 2272 
L 4684 2272 
L 4684 1741 
L 678 1741 
L 678 2272 
z
" transform="scale(0.015625)"/>
       </defs>
       <use xlink:href="#DejaVuSans-2212"/>
       <use xlink:href="#DejaVuSans-30" x="83.789062"/>
       <use xlink:href="#DejaVuSans-2e" x="147.412109"/>
       <use xlink:href="#DejaVuSans-30" x="179.199219"/>
       <use xlink:href="#DejaVuSans-35" x="242.822266"/>
      </g>
     </g>
    </g>
    <g id="ytick_9">
     <g id="line2d_25">
      <g>
       <use xlink:href="#mb2a4fa0dcd" x="144" y="546.638269" style="stroke: #000000; stroke-width: 0.8"/>
      </g>
     </g>
     <g id="text_24">
      <!-- −0.04 -->
      <g transform="translate(106.354687 550.437488) scale(0.1 -0.1)">
       <use xlink:href="#DejaVuSans-2212"/>
       <use xlink:href="#DejaVuSans-30" x="83.789062"/>
       <use xlink:href="#DejaVuSans-2e" x="147.412109"/>
       <use xlink:href="#DejaVuSans-30" x="179.199219"/>
       <use xlink:href="#DejaVuSans-34" x="242.822266"/>
      </g>
     </g>
    </g>
    <g id="ytick_10">
     <g id="line2d_26">
      <g>
       <use xlink:href="#mb2a4fa0dcd" x="144" y="518.020318" style="stroke: #000000; stroke-width: 0.8"/>
      </g>
     </g>
     <g id="text_25">
      <!-- −0.03 -->
      <g transform="translate(106.354687 521.819537) scale(0.1 -0.1)">
       <defs>
        <path id="DejaVuSans-33" d="M 2597 2516 
Q 3050 2419 3304 2112 
Q 3559 1806 3559 1356 
Q 3559 666 3084 287 
Q 2609 -91 1734 -91 
Q 1441 -91 1130 -33 
Q 819 25 488 141 
L 488 750 
Q 750 597 1062 519 
Q 1375 441 1716 441 
Q 2309 441 2620 675 
Q 2931 909 2931 1356 
Q 2931 1769 2642 2001 
Q 2353 2234 1838 2234 
L 1294 2234 
L 1294 2753 
L 1863 2753 
Q 2328 2753 2575 2939 
Q 2822 3125 2822 3475 
Q 2822 3834 2567 4026 
Q 2313 4219 1838 4219 
Q 1578 4219 1281 4162 
Q 984 4106 628 3988 
L 628 4550 
Q 988 4650 1302 4700 
Q 1616 4750 1894 4750 
Q 2613 4750 3031 4423 
Q 3450 4097 3450 3541 
Q 3450 3153 3228 2886 
Q 3006 2619 2597 2516 
z
" transform="scale(0.015625)"/>
       </defs>
       <use xlink:href="#DejaVuSans-2212"/>
       <use xlink:href="#DejaVuSans-30" x="83.789062"/>
       <use xlink:href="#DejaVuSans-2e" x="147.412109"/>
       <use xlink:href="#DejaVuSans-30" x="179.199219"/>
       <use xlink:href="#DejaVuSans-33" x="242.822266"/>
      </g>
     </g>
    </g>
    <g id="ytick_11">
     <g id="line2d_27">
      <g>
       <use xlink:href="#mb2a4fa0dcd" x="144" y="489.402366" style="stroke: #000000; stroke-width: 0.8"/>
      </g>
     </g>
     <g id="text_26">
      <!-- −0.02 -->
      <g transform="translate(106.354687 493.201585) scale(0.1 -0.1)">
       <use xlink:href="#DejaVuSans-2212"/>
       <use xlink:href="#DejaVuSans-30" x="83.789062"/>
       <use xlink:href="#DejaVuSans-2e" x="147.412109"/>
       <use xlink:href="#DejaVuSans-30" x="179.199219"/>
       <use xlink:href="#DejaVuSans-32" x="242.822266"/>
      </g>
     </g>
    </g>
    <g id="ytick_12">
     <g id="line2d_28">
      <g>
       <use xlink:href="#mb2a4fa0dcd" x="144" y="460.784415" style="stroke: #000000; stroke-width: 0.8"/>
      </g>
     </g>
     <g id="text_27">
      <!-- −0.01 -->
      <g transform="translate(106.354687 464.583633) scale(0.1 -0.1)">
       <use xlink:href="#DejaVuSans-2212"/>
       <use xlink:href="#DejaVuSans-30" x="83.789062"/>
       <use xlink:href="#DejaVuSans-2e" x="147.412109"/>
       <use xlink:href="#DejaVuSans-30" x="179.199219"/>
       <use xlink:href="#DejaVuSans-31" x="242.822266"/>
      </g>
     </g>
    </g>
    <g id="ytick_13">
     <g id="line2d_29">
      <g>
       <use xlink:href="#mb2a4fa0dcd" x="144" y="432.166463" style="stroke: #000000; stroke-width: 0.8"/>
      </g>
     </g>
     <g id="text_28">
      <!-- 0.00 -->
      <g transform="translate(114.734375 435.965682) scale(0.1 -0.1)">
       <use xlink:href="#DejaVuSans-30"/>
       <use xlink:href="#DejaVuSans-2e" x="63.623047"/>
       <use xlink:href="#DejaVuSans-30" x="95.410156"/>
       <use xlink:href="#DejaVuSans-30" x="159.033203"/>
      </g>
     </g>
    </g>
    <g id="ytick_14">
     <g id="line2d_30">
      <g>
       <use xlink:href="#mb2a4fa0dcd" x="144" y="403.548512" style="stroke: #000000; stroke-width: 0.8"/>
      </g>
     </g>
     <g id="text_29">
      <!-- 0.01 -->
      <g transform="translate(114.734375 407.34773) scale(0.1 -0.1)">
       <use xlink:href="#DejaVuSans-30"/>
       <use xlink:href="#DejaVuSans-2e" x="63.623047"/>
       <use xlink:href="#DejaVuSans-30" x="95.410156"/>
       <use xlink:href="#DejaVuSans-31" x="159.033203"/>
      </g>
     </g>
    </g>
    <g id="ytick_15">
     <g id="line2d_31">
      <g>
       <use xlink:href="#mb2a4fa0dcd" x="144" y="374.93056" style="stroke: #000000; stroke-width: 0.8"/>
      </g>
     </g>
     <g id="text_30">
      <!-- 0.02 -->
      <g transform="translate(114.734375 378.729779) scale(0.1 -0.1)">
       <use xlink:href="#DejaVuSans-30"/>
       <use xlink:href="#DejaVuSans-2e" x="63.623047"/>
       <use xlink:href="#DejaVuSans-30" x="95.410156"/>
       <use xlink:href="#DejaVuSans-32" x="159.033203"/>
      </g>
     </g>
    </g>
   </g>
   <g id="line2d_32">
    <path d="M 144 454.547442 
L 173.769923 451.332973 
L 203.539847 450.992612 
L 233.30977 449.741881 
L 292.849617 446.283147 
L 352.389463 442.070212 
L 382.159386 439.822337 
L 441.699233 434.93447 
L 709.628543 411.100047 
L 739.398466 408.568235 
L 769.168389 406.158288 
L 798.938313 403.526978 
L 828.708236 401.131693 
L 858.478159 398.872386 
L 888.248083 396.447641 
L 977.557853 390.052492 
L 1096.637546 382.373583 
L 1153 379.162393 
L 1153 379.162393 
" clip-path="url(#p4c0d6604dc)" style="fill: none; stroke: #1f77b4; stroke-width: 1.5; stroke-linecap: square"/>
   </g>
   <g id="patch_10">
    <path d="M 144 576.72 
L 144 349.92 
" style="fill: none; stroke: #000000; stroke-width: 0.8; stroke-linejoin: miter; stroke-linecap: square"/>
   </g>
   <g id="patch_11">
    <path d="M 1036.8 576.72 
L 1036.8 349.92 
" style="fill: none; stroke: #000000; stroke-width: 0.8; stroke-linejoin: miter; stroke-linecap: square"/>
   </g>
   <g id="patch_12">
    <path d="M 144 576.72 
L 1036.8 576.72 
" style="fill: none; stroke: #000000; stroke-width: 0.8; stroke-linejoin: miter; stroke-linecap: square"/>
   </g>
   <g id="patch_13">
    <path d="M 144 349.92 
L 1036.8 349.92 
" style="fill: none; stroke: #000000; stroke-width: 0.8; stroke-linejoin: miter; stroke-linecap: square"/>
   </g>
   <g id="legend_2">
    <g id="patch_14">
     <path d="M 920.578125 372.598125 
L 1029.8 372.598125 
Q 1031.8 372.598125 1031.8 370.598125 
L 1031.8 356.92 
Q 1031.8 354.92 1029.8 354.92 
L 920.578125 354.92 
Q 918.578125 354.92 918.578125 356.92 
L 918.578125 370.598125 
Q 918.578125 372.598125 920.578125 372.598125 
z
" style="fill: #ffffff; opacity: 0.8; stroke: #cccccc; stroke-linejoin: miter"/>
    </g>
    <g id="line2d_33">
     <path d="M 922.578125 363.018437 
L 932.578125 363.018437 
L 942.578125 363.018437 
" style="fill: none; stroke: #1f77b4; stroke-width: 1.5; stroke-linecap: square"/>
    </g>
    <g id="text_31">
     <!-- Prediction Error -->
     <g transform="translate(950.578125 366.518437) scale(0.1 -0.1)">
      <defs>
       <path id="DejaVuSans-45" d="M 628 4666 
L 3578 4666 
L 3578 4134 
L 1259 4134 
L 1259 2753 
L 3481 2753 
L 3481 2222 
L 1259 2222 
L 1259 531 
L 3634 531 
L 3634 0 
L 628 0 
L 628 4666 
z
" transform="scale(0.015625)"/>
      </defs>
      <use xlink:href="#DejaVuSans-50"/>
      <use xlink:href="#DejaVuSans-72" x="58.552734"/>
      <use xlink:href="#DejaVuSans-65" x="97.416016"/>
      <use xlink:href="#DejaVuSans-64" x="158.939453"/>
      <use xlink:href="#DejaVuSans-69" x="222.416016"/>
      <use xlink:href="#DejaVuSans-63" x="250.199219"/>
      <use xlink:href="#DejaVuSans-74" x="305.179688"/>
      <use xlink:href="#DejaVuSans-69" x="344.388672"/>
      <use xlink:href="#DejaVuSans-6f" x="372.171875"/>
      <use xlink:href="#DejaVuSans-6e" x="433.353516"/>
      <use xlink:href="#DejaVuSans-20" x="496.732422"/>
      <use xlink:href="#DejaVuSans-45" x="528.519531"/>
      <use xlink:href="#DejaVuSans-72" x="591.703125"/>
      <use xlink:href="#DejaVuSans-72" x="631.066406"/>
      <use xlink:href="#DejaVuSans-6f" x="669.929688"/>
      <use xlink:href="#DejaVuSans-72" x="731.111328"/>
     </g>
    </g>
   </g>
  </g>
  <g id="text_32">
   <!-- $x$-Position Prediction -->
   <g transform="translate(514.74 22.078125) scale(0.12 -0.12)">
    <defs>
     <path id="DejaVuSans-2d" d="M 313 2009 
L 1997 2009 
L 1997 1497 
L 313 1497 
L 313 2009 
z
" transform="scale(0.015625)"/>
    </defs>
    <use xlink:href="#DejaVuSans-Oblique-78" transform="translate(0 0.015625)"/>
    <use xlink:href="#DejaVuSans-2d" transform="translate(59.179688 0.015625)"/>
    <use xlink:href="#DejaVuSans-50" transform="translate(95.263672 0.015625)"/>
    <use xlink:href="#DejaVuSans-6f" transform="translate(155.566406 0.015625)"/>
    <use xlink:href="#DejaVuSans-73" transform="translate(216.748047 0.015625)"/>
    <use xlink:href="#DejaVuSans-69" transform="translate(268.847656 0.015625)"/>
    <use xlink:href="#DejaVuSans-74" transform="translate(296.630859 0.015625)"/>
    <use xlink:href="#DejaVuSans-69" transform="translate(335.839844 0.015625)"/>
    <use xlink:href="#DejaVuSans-6f" transform="translate(363.623047 0.015625)"/>
    <use xlink:href="#DejaVuSans-6e" transform="translate(424.804688 0.015625)"/>
    <use xlink:href="#DejaVuSans-20" transform="translate(488.183594 0.015625)"/>
    <use xlink:href="#DejaVuSans-50" transform="translate(519.970703 0.015625)"/>
    <use xlink:href="#DejaVuSans-72" transform="translate(580.273438 0.015625)"/>
    <use xlink:href="#DejaVuSans-65" transform="translate(621.386719 0.015625)"/>
    <use xlink:href="#DejaVuSans-64" transform="translate(682.910156 0.015625)"/>
    <use xlink:href="#DejaVuSans-69" transform="translate(746.386719 0.015625)"/>
    <use xlink:href="#DejaVuSans-63" transform="translate(774.169922 0.015625)"/>
    <use xlink:href="#DejaVuSans-74" transform="translate(829.150391 0.015625)"/>
    <use xlink:href="#DejaVuSans-69" transform="translate(868.359375 0.015625)"/>
    <use xlink:href="#DejaVuSans-6f" transform="translate(896.142578 0.015625)"/>
    <use xlink:href="#DejaVuSans-6e" transform="translate(957.324219 0.015625)"/>
   </g>
  </g>
 </g>
 <defs>
  <clipPath id="p4d87d90c9b">
   <rect x="144" y="77.76" width="892.8" height="226.8"/>
  </clipPath>
  <clipPath id="p4c0d6604dc">
   <rect x="144" y="349.92" width="892.8" height="226.8"/>
  </clipPath>
 </defs>
</svg>
