<?xml version="1.0" encoding="utf-8" standalone="no"?>
<!DOCTYPE svg PUBLIC "-//W3C//DTD SVG 1.1//EN"
  "http://www.w3.org/Graphics/SVG/1.1/DTD/svg11.dtd">
<svg xmlns:xlink="http://www.w3.org/1999/xlink" width="1152pt" height="648pt" viewBox="0 0 1152 648" xmlns="http://www.w3.org/2000/svg" version="1.1">
 <metadata>
  <rdf:RDF xmlns:dc="http://purl.org/dc/elements/1.1/" xmlns:cc="http://creativecommons.org/ns#" xmlns:rdf="http://www.w3.org/1999/02/22-rdf-syntax-ns#">
   <cc:Work>
    <dc:type rdf:resource="http://purl.org/dc/dcmitype/StillImage"/>
    <dc:date>2024-06-19T20:44:58.554782</dc:date>
    <dc:format>image/svg+xml</dc:format>
    <dc:creator>
     <cc:Agent>
      <dc:title>Matplotlib v3.9.0, https://matplotlib.org/</dc:title>
     </cc:Agent>
    </dc:creator>
   </cc:Work>
  </rdf:RDF>
 </metadata>
 <defs>
  <style type="text/css">*{stroke-linejoin: round; stroke-linecap: butt}</style>
 </defs>
 <g id="figure_1">
  <g id="patch_1">
   <path d="M 0 648 
L 1152 648 
L 1152 0 
L 0 0 
z
" style="fill: #ffffff"/>
  </g>
  <g id="axes_1">
   <g id="patch_2">
    <path d="M 144 304.56 
L 1036.8 304.56 
L 1036.8 77.76 
L 144 77.76 
z
" style="fill: #ffffff"/>
   </g>
   <g id="PolyCollection_1">
    <defs>
     <path id="m2a485e3bff" d="M 292.849617 -559.930909 
L 292.849617 -553.381751 
L 295.826609 -552.591396 
L 298.803601 -551.73951 
L 301.780594 -550.8292 
L 304.757586 -549.864237 
L 307.734578 -548.837806 
L 310.711571 -547.749254 
L 313.688563 -546.591199 
L 316.665555 -545.36791 
L 319.642548 -544.074187 
L 322.61954 -542.711715 
L 325.596532 -541.27945 
L 328.573525 -539.776858 
L 331.550517 -538.21285 
L 334.527509 -536.577191 
L 337.504502 -534.884693 
L 340.481494 -533.130459 
L 343.458486 -531.320269 
L 346.435478 -529.450138 
L 349.412471 -527.528491 
L 352.389463 -525.558162 
L 355.366455 -523.542357 
L 358.343448 -521.479391 
L 361.32044 -519.37277 
L 364.297432 -517.230613 
L 367.274425 -515.0495 
L 370.251417 -512.83056 
L 373.228409 -510.585206 
L 376.205402 -508.306591 
L 379.182394 -505.998132 
L 382.159386 -503.661219 
L 385.136379 -501.301673 
L 388.113371 -498.917192 
L 391.090363 -496.507689 
L 394.067356 -494.078843 
L 397.044348 -491.627672 
L 400.02134 -489.158588 
L 402.998333 -486.668023 
L 405.975325 -484.158241 
L 408.952317 -481.630082 
L 411.92931 -479.080634 
L 414.906302 -476.50967 
L 417.883294 -473.916928 
L 420.860287 -471.30581 
L 423.837279 -468.673146 
L 426.814271 -466.022517 
L 429.791264 -463.347956 
L 432.768256 -460.6458 
L 435.745248 -457.924682 
L 438.722241 -455.17195 
L 441.699233 -452.392551 
L 444.676225 -449.604443 
L 447.653218 -446.821987 
L 450.63021 -444.045741 
L 453.607202 -441.265499 
L 456.584195 -438.481157 
L 459.561187 -435.691654 
L 462.538179 -432.895032 
L 465.515172 -430.087203 
L 468.492164 -427.268797 
L 471.469156 -424.443218 
L 474.446149 -421.609458 
L 477.423141 -418.761673 
L 480.400133 -415.897949 
L 483.377126 -413.028504 
L 486.354118 -410.144484 
L 489.33111 -407.252929 
L 492.308103 -404.351754 
L 495.285095 -401.449359 
L 498.262087 -398.544818 
L 501.23908 -395.644651 
L 504.216072 -392.751874 
L 507.193064 -389.871632 
L 510.170057 -387.012562 
L 513.147049 -384.17941 
L 516.124041 -381.392529 
L 519.101034 -378.646544 
L 522.078026 -375.963062 
L 525.055018 -373.347955 
L 528.032011 -370.811706 
L 531.009003 -368.38119 
L 533.985995 -366.062305 
L 536.962988 -363.8897 
L 539.93998 -361.857725 
L 542.916972 -360.00717 
L 545.893965 -358.353038 
L 548.870957 -356.916183 
L 551.847949 -355.729406 
L 554.824942 -354.795464 
L 557.801934 -354.133395 
L 560.778926 -353.776831 
L 563.755919 -353.749091 
L 566.732911 -354.040586 
L 569.709903 -354.674455 
L 572.686896 -355.653348 
L 575.663888 -356.986581 
L 578.64088 -358.670193 
L 581.617873 -360.689803 
L 584.594865 -363.026089 
L 587.571857 -365.65814 
L 590.54885 -368.564026 
L 593.525842 -371.723419 
L 596.502834 -375.099028 
L 599.479827 -378.645594 
L 602.456819 -382.343364 
L 605.433811 -386.141698 
L 608.410804 -390.015457 
L 611.387796 -393.907352 
L 614.364788 -397.794726 
L 617.341781 -401.657251 
L 620.318773 -405.441036 
L 623.295765 -409.137682 
L 626.272758 -412.718711 
L 629.24975 -416.160733 
L 632.226742 -419.458804 
L 635.203735 -422.599345 
L 638.180727 -425.573218 
L 641.157719 -428.365936 
L 644.134712 -430.985172 
L 647.111704 -433.433108 
L 650.088696 -435.699152 
L 653.065689 -437.804337 
L 656.042681 -439.746122 
L 659.019673 -441.537017 
L 661.996666 -443.166807 
L 664.973658 -444.651771 
L 667.95065 -446.003181 
L 670.927643 -447.222974 
L 673.904635 -448.314213 
L 676.881627 -449.294991 
L 679.85862 -450.171493 
L 682.835612 -450.949825 
L 685.812604 -451.639219 
L 688.789597 -452.244039 
L 691.766589 -452.770032 
L 694.743581 -453.222352 
L 697.720574 -453.614937 
L 700.697566 -453.951438 
L 703.674558 -454.23669 
L 706.651551 -454.46819 
L 709.628543 -454.652301 
L 712.605535 -454.799523 
L 715.582528 -454.908272 
L 718.55952 -454.990689 
L 721.536512 -455.046347 
L 724.513505 -455.089112 
L 727.490497 -455.106892 
L 730.467489 -455.118964 
L 733.444481 -455.122452 
L 736.421474 -455.118657 
L 739.398466 -455.118257 
L 742.375458 -455.117511 
L 745.352451 -455.125856 
L 748.329443 -455.145334 
L 751.306435 -455.183935 
L 754.283428 -455.242904 
L 757.26042 -455.323407 
L 760.237412 -455.421253 
L 763.214405 -455.551198 
L 766.191397 -455.71259 
L 769.168389 -455.900094 
L 772.145382 -456.128171 
L 775.122374 -456.390417 
L 778.099366 -456.694971 
L 781.076359 -457.037872 
L 784.053351 -457.425189 
L 787.030343 -457.855546 
L 790.007336 -458.335 
L 792.984328 -458.858108 
L 795.96132 -459.433611 
L 798.938313 -460.055356 
L 801.915305 -460.731638 
L 804.892297 -461.463185 
L 807.86929 -462.248588 
L 810.846282 -463.090763 
L 813.823274 -463.985957 
L 816.800267 -464.937795 
L 819.777259 -465.945596 
L 822.754251 -467.005381 
L 825.731244 -468.13132 
L 828.708236 -469.307696 
L 831.685228 -470.536266 
L 834.662221 -471.817925 
L 837.639213 -473.152442 
L 840.616205 -474.533873 
L 843.593198 -475.958824 
L 846.57019 -477.430832 
L 849.547182 -478.947023 
L 852.524175 -480.503178 
L 855.501167 -482.094649 
L 858.478159 -483.716794 
L 861.455152 -485.373335 
L 864.432144 -487.055167 
L 867.409136 -488.761588 
L 870.386129 -490.486814 
L 873.363121 -492.22794 
L 876.340113 -493.980952 
L 879.317106 -495.734182 
L 882.294098 -497.493439 
L 885.27109 -499.253525 
L 888.248083 -501.007594 
L 891.225075 -502.755966 
L 894.202067 -504.491471 
L 897.17906 -506.208501 
L 900.156052 -507.909571 
L 903.133044 -509.584918 
L 906.110037 -511.233289 
L 909.087029 -512.854339 
L 912.064021 -514.444784 
L 915.041014 -515.999769 
L 918.018006 -517.517066 
L 920.994998 -518.997829 
L 923.971991 -520.436832 
L 926.948983 -521.834586 
L 929.925975 -523.187636 
L 932.902968 -524.499147 
L 935.87996 -525.766153 
L 938.856952 -526.986655 
L 941.833945 -528.161077 
L 944.810937 -529.28812 
L 947.787929 -530.370785 
L 950.764922 -531.405422 
L 953.741914 -532.398594 
L 956.718906 -533.342986 
L 959.695899 -534.246395 
L 962.672891 -535.104006 
L 965.649883 -535.917115 
L 968.626876 -536.689334 
L 971.603868 -537.417781 
L 974.58086 -538.107619 
L 977.557853 -538.755499 
L 980.534845 -539.366891 
L 983.511837 -539.941398 
L 986.48883 -540.476186 
L 989.465822 -540.975191 
L 992.442814 -541.441153 
L 995.419807 -541.873188 
L 998.396799 -542.271035 
L 1001.373791 -542.637562 
L 1004.350784 -542.974641 
L 1007.327776 -543.27942 
L 1010.304768 -543.552476 
L 1013.281761 -543.798208 
L 1016.258753 -544.014941 
L 1019.235745 -544.202509 
L 1022.212738 -544.364498 
L 1025.18973 -544.496506 
L 1028.166722 -544.600543 
L 1031.143715 -544.677864 
L 1034.120707 -544.727781 
L 1034.120707 -548.855574 
L 1034.120707 -548.855574 
L 1031.143715 -548.88694 
L 1028.166722 -548.890544 
L 1025.18973 -548.866577 
L 1022.212738 -548.81362 
L 1019.235745 -548.729721 
L 1016.258753 -548.620119 
L 1013.281761 -548.480338 
L 1010.304768 -548.310819 
L 1007.327776 -548.113095 
L 1004.350784 -547.881683 
L 1001.373791 -547.616767 
L 998.396799 -547.321756 
L 995.419807 -546.994326 
L 992.442814 -546.63093 
L 989.465822 -546.232853 
L 986.48883 -545.800371 
L 983.511837 -545.330265 
L 980.534845 -544.818744 
L 977.557853 -544.269773 
L 974.58086 -543.68315 
L 971.603868 -543.053098 
L 968.626876 -542.38301 
L 965.649883 -541.667215 
L 962.672891 -540.909527 
L 959.695899 -540.10551 
L 956.718906 -539.254916 
L 953.741914 -538.362118 
L 950.764922 -537.419691 
L 947.787929 -536.43498 
L 944.810937 -535.400941 
L 941.833945 -534.321401 
L 938.856952 -533.193009 
L 935.87996 -532.016739 
L 932.902968 -530.79278 
L 929.925975 -529.523543 
L 926.948983 -528.211989 
L 923.971991 -526.854348 
L 920.994998 -525.45422 
L 918.018006 -524.011049 
L 915.041014 -522.530311 
L 912.064021 -521.010282 
L 909.087029 -519.453654 
L 906.110037 -517.865623 
L 903.133044 -516.249405 
L 900.156052 -514.604554 
L 897.17906 -512.932908 
L 894.202067 -511.244352 
L 891.225075 -509.535772 
L 888.248083 -507.813295 
L 885.27109 -506.084096 
L 882.294098 -504.347494 
L 879.317106 -502.610919 
L 876.340113 -500.879071 
L 873.363121 -499.145951 
L 870.386129 -497.423757 
L 867.409136 -495.716382 
L 864.432144 -494.026864 
L 861.455152 -492.360912 
L 858.478159 -490.719413 
L 855.501167 -489.111689 
L 852.524175 -487.533956 
L 849.547182 -485.990826 
L 846.57019 -484.486915 
L 843.593198 -483.026737 
L 840.616205 -481.613596 
L 837.639213 -480.244039 
L 834.662221 -478.921166 
L 831.685228 -477.650832 
L 828.708236 -476.433835 
L 825.731244 -475.26921 
L 822.754251 -474.154154 
L 819.777259 -473.104769 
L 816.800267 -472.107587 
L 813.823274 -471.166696 
L 810.846282 -470.283025 
L 807.86929 -469.452764 
L 804.892297 -468.679487 
L 801.915305 -467.960046 
L 798.938313 -467.295843 
L 795.96132 -466.68685 
L 792.984328 -466.125511 
L 790.007336 -465.617644 
L 787.030343 -465.155071 
L 784.053351 -464.742692 
L 781.076359 -464.374118 
L 778.099366 -464.051143 
L 775.122374 -463.767095 
L 772.145382 -463.525684 
L 769.168389 -463.318447 
L 766.191397 -463.152048 
L 763.214405 -463.012978 
L 760.237412 -462.904403 
L 757.26042 -462.827855 
L 754.283428 -462.769181 
L 751.306435 -462.730727 
L 748.329443 -462.709888 
L 745.352451 -462.704822 
L 742.375458 -462.707813 
L 739.398466 -462.720085 
L 736.421474 -462.733902 
L 733.444481 -462.752787 
L 730.467489 -462.766138 
L 727.490497 -462.770941 
L 724.513505 -462.771815 
L 721.536512 -462.748485 
L 718.55952 -462.712141 
L 715.582528 -462.649822 
L 712.605535 -462.56299 
L 709.628543 -462.4393 
L 706.651551 -462.280271 
L 703.674558 -462.076755 
L 700.697566 -461.821474 
L 697.720574 -461.512738 
L 694.743581 -461.145798 
L 691.766589 -460.718278 
L 688.789597 -460.218192 
L 685.812604 -459.639108 
L 682.835612 -458.974265 
L 679.85862 -458.219599 
L 676.881627 -457.366352 
L 673.904635 -456.407603 
L 670.927643 -455.339986 
L 667.95065 -454.145778 
L 664.973658 -452.821542 
L 661.996666 -451.365747 
L 659.019673 -449.768005 
L 656.042681 -448.010412 
L 653.065689 -446.101823 
L 650.088696 -444.031032 
L 647.111704 -441.801535 
L 644.134712 -439.391792 
L 641.157719 -436.813345 
L 638.180727 -434.06376 
L 635.203735 -431.133674 
L 632.226742 -428.036733 
L 629.24975 -424.782512 
L 626.272758 -421.383117 
L 623.295765 -417.841966 
L 620.318773 -414.182257 
L 617.341781 -410.430472 
L 614.364788 -406.595477 
L 611.387796 -402.733851 
L 608.410804 -398.860097 
L 605.433811 -394.999251 
L 602.456819 -391.208749 
L 599.479827 -387.515677 
L 596.502834 -383.97151 
L 593.525842 -380.595014 
L 590.54885 -377.431672 
L 587.571857 -374.515461 
L 584.594865 -371.864262 
L 581.617873 -369.499943 
L 578.64088 -367.446227 
L 575.663888 -365.727652 
L 572.686896 -364.359549 
L 569.709903 -363.342259 
L 566.732911 -362.666541 
L 563.755919 -362.329559 
L 560.778926 -362.312026 
L 557.801934 -362.624495 
L 554.824942 -363.239545 
L 551.847949 -364.123167 
L 548.870957 -365.260462 
L 545.893965 -366.649988 
L 542.916972 -368.257925 
L 539.93998 -370.063603 
L 536.962988 -372.051104 
L 533.985995 -374.180074 
L 531.009003 -376.456175 
L 528.032011 -378.84495 
L 525.055018 -381.340414 
L 522.078026 -383.91649 
L 519.101034 -386.56265 
L 516.124041 -389.27331 
L 513.147049 -392.026942 
L 510.170057 -394.828318 
L 507.193064 -397.65754 
L 504.216072 -400.509865 
L 501.23908 -403.376679 
L 498.262087 -406.252819 
L 495.285095 -409.135188 
L 492.308103 -412.01731 
L 489.33111 -414.899782 
L 486.354118 -417.774559 
L 483.377126 -420.644249 
L 480.400133 -423.501026 
L 477.423141 -426.35358 
L 474.446149 -429.192835 
L 471.469156 -432.019338 
L 468.492164 -434.838229 
L 465.515172 -437.650209 
L 462.538179 -440.452539 
L 459.561187 -443.243725 
L 456.584195 -446.02745 
L 453.607202 -448.804607 
L 450.63021 -451.576089 
L 447.653218 -454.340722 
L 444.676225 -457.106082 
L 441.699233 -459.874449 
L 438.722241 -462.635295 
L 435.745248 -465.371225 
L 432.768256 -468.076556 
L 429.791264 -470.763592 
L 426.814271 -473.424543 
L 423.837279 -476.06241 
L 420.860287 -478.682657 
L 417.883294 -481.282032 
L 414.906302 -483.863298 
L 411.92931 -486.423867 
L 408.952317 -488.96399 
L 405.975325 -491.48342 
L 402.998333 -493.984662 
L 400.02134 -496.467128 
L 397.044348 -498.928115 
L 394.067356 -501.371 
L 391.090363 -503.791292 
L 388.113371 -506.191773 
L 385.136379 -508.567565 
L 382.159386 -510.917663 
L 379.182394 -513.244545 
L 376.205402 -515.542521 
L 373.228409 -517.810631 
L 370.251417 -520.044773 
L 367.274425 -522.251724 
L 364.297432 -524.420845 
L 361.32044 -526.550737 
L 358.343448 -528.644849 
L 355.366455 -530.695549 
L 352.389463 -532.699558 
L 349.412471 -534.658739 
L 346.435478 -536.569805 
L 343.458486 -538.430102 
L 340.481494 -540.231303 
L 337.504502 -541.977793 
L 334.527509 -543.663751 
L 331.550517 -545.293467 
L 328.573525 -546.851551 
L 325.596532 -548.347701 
L 322.61954 -549.771778 
L 319.642548 -551.123555 
L 316.665555 -552.402762 
L 313.688563 -553.606227 
L 310.711571 -554.736234 
L 307.734578 -555.785344 
L 304.757586 -556.758201 
L 301.780594 -557.651483 
L 298.803601 -558.469576 
L 295.826609 -559.21302 
L 292.849617 -559.930909 
z
" style="stroke: #00ffff; stroke-opacity: 0.5"/>
    </defs>
    <g clip-path="url(#pad5ed4f1d1)">
     <use xlink:href="#m2a485e3bff" x="0" y="648" style="fill: #00ffff; fill-opacity: 0.5; stroke: #00ffff; stroke-opacity: 0.5"/>
    </g>
   </g>
   <g id="matplotlib.axis_1">
    <g id="xtick_1">
     <g id="line2d_1">
      <defs>
       <path id="me3523893ed" d="M 0 0 
L 0 3.5 
" style="stroke: #000000; stroke-width: 0.8"/>
      </defs>
      <g>
       <use xlink:href="#me3523893ed" x="144" y="304.56" style="stroke: #000000; stroke-width: 0.8"/>
      </g>
     </g>
     <g id="text_1">
      <!-- 0 -->
      <g transform="translate(140.81875 319.158437) scale(0.1 -0.1)">
       <defs>
        <path id="DejaVuSans-30" d="M 2034 4250 
Q 1547 4250 1301 3770 
Q 1056 3291 1056 2328 
Q 1056 1369 1301 889 
Q 1547 409 2034 409 
Q 2525 409 2770 889 
Q 3016 1369 3016 2328 
Q 3016 3291 2770 3770 
Q 2525 4250 2034 4250 
z
M 2034 4750 
Q 2819 4750 3233 4129 
Q 3647 3509 3647 2328 
Q 3647 1150 3233 529 
Q 2819 -91 2034 -91 
Q 1250 -91 836 529 
Q 422 1150 422 2328 
Q 422 3509 836 4129 
Q 1250 4750 2034 4750 
z
" transform="scale(0.015625)"/>
       </defs>
       <use xlink:href="#DejaVuSans-30"/>
      </g>
     </g>
    </g>
    <g id="xtick_2">
     <g id="line2d_2">
      <g>
       <use xlink:href="#me3523893ed" x="292.849617" y="304.56" style="stroke: #000000; stroke-width: 0.8"/>
      </g>
     </g>
     <g id="text_2">
      <!-- 5 -->
      <g transform="translate(289.668367 319.158437) scale(0.1 -0.1)">
       <defs>
        <path id="DejaVuSans-35" d="M 691 4666 
L 3169 4666 
L 3169 4134 
L 1269 4134 
L 1269 2991 
Q 1406 3038 1543 3061 
Q 1681 3084 1819 3084 
Q 2600 3084 3056 2656 
Q 3513 2228 3513 1497 
Q 3513 744 3044 326 
Q 2575 -91 1722 -91 
Q 1428 -91 1123 -41 
Q 819 9 494 109 
L 494 744 
Q 775 591 1075 516 
Q 1375 441 1709 441 
Q 2250 441 2565 725 
Q 2881 1009 2881 1497 
Q 2881 1984 2565 2268 
Q 2250 2553 1709 2553 
Q 1456 2553 1204 2497 
Q 953 2441 691 2322 
L 691 4666 
z
" transform="scale(0.015625)"/>
       </defs>
       <use xlink:href="#DejaVuSans-35"/>
      </g>
     </g>
    </g>
    <g id="xtick_3">
     <g id="line2d_3">
      <g>
       <use xlink:href="#me3523893ed" x="441.699233" y="304.56" style="stroke: #000000; stroke-width: 0.8"/>
      </g>
     </g>
     <g id="text_3">
      <!-- 10 -->
      <g transform="translate(435.336733 319.158437) scale(0.1 -0.1)">
       <defs>
        <path id="DejaVuSans-31" d="M 794 531 
L 1825 531 
L 1825 4091 
L 703 3866 
L 703 4441 
L 1819 4666 
L 2450 4666 
L 2450 531 
L 3481 531 
L 3481 0 
L 794 0 
L 794 531 
z
" transform="scale(0.015625)"/>
       </defs>
       <use xlink:href="#DejaVuSans-31"/>
       <use xlink:href="#DejaVuSans-30" x="63.623047"/>
      </g>
     </g>
    </g>
    <g id="xtick_4">
     <g id="line2d_4">
      <g>
       <use xlink:href="#me3523893ed" x="590.54885" y="304.56" style="stroke: #000000; stroke-width: 0.8"/>
      </g>
     </g>
     <g id="text_4">
      <!-- 15 -->
      <g transform="translate(584.18635 319.158437) scale(0.1 -0.1)">
       <use xlink:href="#DejaVuSans-31"/>
       <use xlink:href="#DejaVuSans-35" x="63.623047"/>
      </g>
     </g>
    </g>
    <g id="xtick_5">
     <g id="line2d_5">
      <g>
       <use xlink:href="#me3523893ed" x="739.398466" y="304.56" style="stroke: #000000; stroke-width: 0.8"/>
      </g>
     </g>
     <g id="text_5">
      <!-- 20 -->
      <g transform="translate(733.035966 319.158437) scale(0.1 -0.1)">
       <defs>
        <path id="DejaVuSans-32" d="M 1228 531 
L 3431 531 
L 3431 0 
L 469 0 
L 469 531 
Q 828 903 1448 1529 
Q 2069 2156 2228 2338 
Q 2531 2678 2651 2914 
Q 2772 3150 2772 3378 
Q 2772 3750 2511 3984 
Q 2250 4219 1831 4219 
Q 1534 4219 1204 4116 
Q 875 4013 500 3803 
L 500 4441 
Q 881 4594 1212 4672 
Q 1544 4750 1819 4750 
Q 2544 4750 2975 4387 
Q 3406 4025 3406 3419 
Q 3406 3131 3298 2873 
Q 3191 2616 2906 2266 
Q 2828 2175 2409 1742 
Q 1991 1309 1228 531 
z
" transform="scale(0.015625)"/>
       </defs>
       <use xlink:href="#DejaVuSans-32"/>
       <use xlink:href="#DejaVuSans-30" x="63.623047"/>
      </g>
     </g>
    </g>
    <g id="xtick_6">
     <g id="line2d_6">
      <g>
       <use xlink:href="#me3523893ed" x="888.248083" y="304.56" style="stroke: #000000; stroke-width: 0.8"/>
      </g>
     </g>
     <g id="text_6">
      <!-- 25 -->
      <g transform="translate(881.885583 319.158437) scale(0.1 -0.1)">
       <use xlink:href="#DejaVuSans-32"/>
       <use xlink:href="#DejaVuSans-35" x="63.623047"/>
      </g>
     </g>
    </g>
   </g>
   <g id="matplotlib.axis_2">
    <g id="ytick_1">
     <g id="line2d_7">
      <defs>
       <path id="m85479d4dec" d="M 0 0 
L -3.5 0 
" style="stroke: #000000; stroke-width: 0.8"/>
      </defs>
      <g>
       <use xlink:href="#m85479d4dec" x="144" y="271.815482" style="stroke: #000000; stroke-width: 0.8"/>
      </g>
     </g>
     <g id="text_7">
      <!-- 1.0 -->
      <g transform="translate(121.096875 275.6147) scale(0.1 -0.1)">
       <defs>
        <path id="DejaVuSans-2e" d="M 684 794 
L 1344 794 
L 1344 0 
L 684 0 
L 684 794 
z
" transform="scale(0.015625)"/>
       </defs>
       <use xlink:href="#DejaVuSans-31"/>
       <use xlink:href="#DejaVuSans-2e" x="63.623047"/>
       <use xlink:href="#DejaVuSans-30" x="95.410156"/>
      </g>
     </g>
    </g>
    <g id="ytick_2">
     <g id="line2d_8">
      <g>
       <use xlink:href="#m85479d4dec" x="144" y="230.423266" style="stroke: #000000; stroke-width: 0.8"/>
      </g>
     </g>
     <g id="text_8">
      <!-- 1.5 -->
      <g transform="translate(121.096875 234.222485) scale(0.1 -0.1)">
       <use xlink:href="#DejaVuSans-31"/>
       <use xlink:href="#DejaVuSans-2e" x="63.623047"/>
       <use xlink:href="#DejaVuSans-35" x="95.410156"/>
      </g>
     </g>
    </g>
    <g id="ytick_3">
     <g id="line2d_9">
      <g>
       <use xlink:href="#m85479d4dec" x="144" y="189.031051" style="stroke: #000000; stroke-width: 0.8"/>
      </g>
     </g>
     <g id="text_9">
      <!-- 2.0 -->
      <g transform="translate(121.096875 192.830269) scale(0.1 -0.1)">
       <use xlink:href="#DejaVuSans-32"/>
       <use xlink:href="#DejaVuSans-2e" x="63.623047"/>
       <use xlink:href="#DejaVuSans-30" x="95.410156"/>
      </g>
     </g>
    </g>
    <g id="ytick_4">
     <g id="line2d_10">
      <g>
       <use xlink:href="#m85479d4dec" x="144" y="147.638835" style="stroke: #000000; stroke-width: 0.8"/>
      </g>
     </g>
     <g id="text_10">
      <!-- 2.5 -->
      <g transform="translate(121.096875 151.438054) scale(0.1 -0.1)">
       <use xlink:href="#DejaVuSans-32"/>
       <use xlink:href="#DejaVuSans-2e" x="63.623047"/>
       <use xlink:href="#DejaVuSans-35" x="95.410156"/>
      </g>
     </g>
    </g>
    <g id="ytick_5">
     <g id="line2d_11">
      <g>
       <use xlink:href="#m85479d4dec" x="144" y="106.246619" style="stroke: #000000; stroke-width: 0.8"/>
      </g>
     </g>
     <g id="text_11">
      <!-- 3.0 -->
      <g transform="translate(121.096875 110.045838) scale(0.1 -0.1)">
       <defs>
        <path id="DejaVuSans-33" d="M 2597 2516 
Q 3050 2419 3304 2112 
Q 3559 1806 3559 1356 
Q 3559 666 3084 287 
Q 2609 -91 1734 -91 
Q 1441 -91 1130 -33 
Q 819 25 488 141 
L 488 750 
Q 750 597 1062 519 
Q 1375 441 1716 441 
Q 2309 441 2620 675 
Q 2931 909 2931 1356 
Q 2931 1769 2642 2001 
Q 2353 2234 1838 2234 
L 1294 2234 
L 1294 2753 
L 1863 2753 
Q 2328 2753 2575 2939 
Q 2822 3125 2822 3475 
Q 2822 3834 2567 4026 
Q 2313 4219 1838 4219 
Q 1578 4219 1281 4162 
Q 984 4106 628 3988 
L 628 4550 
Q 988 4650 1302 4700 
Q 1616 4750 1894 4750 
Q 2613 4750 3031 4423 
Q 3450 4097 3450 3541 
Q 3450 3153 3228 2886 
Q 3006 2619 2597 2516 
z
" transform="scale(0.015625)"/>
       </defs>
       <use xlink:href="#DejaVuSans-33"/>
       <use xlink:href="#DejaVuSans-2e" x="63.623047"/>
       <use xlink:href="#DejaVuSans-30" x="95.410156"/>
      </g>
     </g>
    </g>
   </g>
   <g id="line2d_12">
    <path d="M 144 101.224902 
L 148.465488 101.103867 
L 161.861954 100.489623 
L 171.09063 99.830956 
L 180.319306 98.951348 
L 190.73878 97.725186 
L 202.05135 96.159089 
L 219.615605 93.461758 
L 235.393665 91.110436 
L 244.92004 89.908842 
L 252.66022 89.148505 
L 259.507302 88.689707 
L 265.758986 88.482717 
L 271.712971 88.50145 
L 277.071557 88.72445 
L 282.727843 89.183726 
L 288.086429 89.848544 
L 293.147316 90.694533 
L 296.422007 91.43504 
L 303.26909 93.261907 
L 308.925375 95.02181 
L 314.283961 96.92199 
L 319.642548 99.054331 
L 325.001134 101.419626 
L 330.657419 104.166859 
L 336.313705 107.157947 
L 342.565388 110.722618 
L 348.817072 114.548007 
L 355.664155 119.001468 
L 362.808936 123.914666 
L 370.549116 129.499212 
L 379.480093 136.229524 
L 389.304168 143.936068 
L 400.31904 152.883785 
L 411.631611 162.359295 
L 422.944181 172.127093 
L 434.256752 182.185951 
L 444.378526 191.477794 
L 478.911637 223.870764 
L 496.178193 240.508644 
L 515.230944 258.846895 
L 523.268823 266.238958 
L 529.520507 271.682875 
L 534.581394 275.79387 
L 538.749183 278.91446 
L 542.619273 281.569782 
L 546.191664 283.755476 
L 549.466355 285.510155 
L 552.443348 286.859555 
L 555.42034 287.969482 
L 558.397332 288.830027 
L 561.076626 289.362246 
L 563.458219 289.62315 
L 566.137513 289.672373 
L 568.519106 289.502199 
L 570.9007 289.116969 
L 573.282294 288.514338 
L 575.663888 287.689815 
L 578.045482 286.63717 
L 580.427076 285.358383 
L 583.106369 283.663208 
L 585.785662 281.708694 
L 588.762654 279.249149 
L 591.739647 276.507496 
L 595.014338 273.188046 
L 598.586729 269.249749 
L 602.754518 264.318253 
L 608.113104 257.589353 
L 627.165855 233.257789 
L 631.929043 227.704971 
L 636.394532 222.830287 
L 640.562321 218.609517 
L 644.432411 215.001825 
L 648.302501 211.68151 
L 652.172591 208.662416 
L 656.042681 205.919425 
L 659.912771 203.443332 
L 663.782861 201.238301 
L 667.652951 199.279666 
L 671.523041 197.551828 
L 675.69083 195.940852 
L 680.156319 194.461703 
L 684.621807 193.218217 
L 689.384995 192.121583 
L 694.445882 191.192334 
L 700.102167 190.394272 
L 706.056152 189.778664 
L 712.605535 189.341072 
L 720.048016 189.069791 
L 729.574391 188.953061 
L 762.916706 188.736391 
L 771.252284 188.337903 
L 778.694765 187.755126 
L 785.839547 186.963204 
L 792.38893 186.012351 
L 798.640614 184.891831 
L 804.594598 183.617027 
L 810.548583 182.123595 
L 816.800267 180.320061 
L 823.051951 178.273326 
L 828.708236 176.198163 
L 834.95992 173.682678 
L 841.509303 170.797379 
L 848.356385 167.538188 
L 855.798866 163.732911 
L 864.134445 159.210353 
L 873.95852 153.61228 
L 908.193931 133.863494 
L 916.827209 129.273039 
L 924.567389 125.416449 
L 931.712171 122.103627 
L 938.559253 119.161799 
L 945.406335 116.468331 
L 952.253418 114.021903 
L 959.1005 111.815968 
L 965.649883 109.929479 
L 972.496966 108.186493 
L 979.641747 106.606158 
L 986.786529 105.250988 
L 994.22901 104.070886 
L 1001.67149 103.108115 
L 1009.411671 102.320518 
L 1017.747249 101.707572 
L 1026.380527 101.31019 
L 1034.716105 101.153965 
L 1036.8 101.147744 
L 1036.8 101.147744 
" clip-path="url(#pad5ed4f1d1)" style="fill: none; stroke-dasharray: 5.55,2.4; stroke-dashoffset: 0; stroke: #ffa500; stroke-width: 1.5"/>
   </g>
   <g id="line2d_13">
    <path d="M 292.849617 91.34367 
L 298.803601 92.895457 
L 304.757586 94.688781 
L 310.711571 96.757256 
L 316.665555 99.114664 
L 322.61954 101.758253 
L 328.573525 104.685796 
L 334.527509 107.879529 
L 340.481494 111.319119 
L 346.435478 114.990028 
L 352.389463 118.87114 
L 358.343448 122.93788 
L 367.274425 129.349388 
L 376.205402 136.075444 
L 385.136379 143.065381 
L 397.044348 152.722106 
L 408.952317 162.702964 
L 420.860287 173.005767 
L 432.768256 183.638822 
L 441.699233 191.8665 
L 471.469156 219.768722 
L 486.354118 234.040479 
L 513.147049 259.896824 
L 522.078026 268.060224 
L 528.032011 273.171672 
L 533.985995 277.878811 
L 536.962988 280.029598 
L 539.93998 282.039336 
L 542.916972 283.867452 
L 545.893965 285.498487 
L 548.870957 286.911678 
L 551.847949 288.073714 
L 554.824942 288.982495 
L 557.801934 289.621055 
L 560.778926 289.955572 
L 563.755919 289.960675 
L 566.732911 289.646437 
L 569.709903 288.991643 
L 572.686896 287.993551 
L 575.663888 286.642884 
L 578.64088 284.94179 
L 581.617873 282.905127 
L 584.594865 280.554824 
L 587.571857 277.913199 
L 590.54885 275.002151 
L 593.525842 271.840783 
L 596.502834 268.464731 
L 602.456819 261.223943 
L 611.387796 249.679399 
L 620.318773 238.188353 
L 626.272758 230.949086 
L 632.226742 224.252232 
L 635.203735 221.133491 
L 638.180727 218.181511 
L 641.157719 215.41036 
L 644.134712 212.811518 
L 647.111704 210.382678 
L 650.088696 208.134908 
L 653.065689 206.04692 
L 656.042681 204.121733 
L 659.019673 202.347489 
L 661.996666 200.733723 
L 664.973658 199.263343 
L 667.95065 197.92552 
L 670.927643 196.71852 
L 676.881627 194.669328 
L 682.835612 193.037955 
L 688.789597 191.768884 
L 694.743581 190.815925 
L 700.697566 190.113544 
L 706.651551 189.625769 
L 715.582528 189.220953 
L 724.513505 189.069537 
L 757.26042 188.924369 
L 766.191397 188.567681 
L 772.145382 188.173073 
L 778.099366 187.626943 
L 784.053351 186.91606 
L 790.007336 186.023678 
L 795.96132 184.93977 
L 801.915305 183.654158 
L 807.86929 182.149324 
L 813.823274 180.423674 
L 819.777259 178.474818 
L 825.731244 176.299735 
L 831.685228 173.906451 
L 837.639213 171.30176 
L 843.593198 168.507219 
L 849.547182 165.531075 
L 858.478159 160.781896 
L 867.409136 155.761015 
L 882.294098 147.079533 
L 897.17906 138.429295 
L 906.110037 133.450544 
L 915.041014 128.73496 
L 923.971991 124.35441 
L 929.925975 121.644411 
L 935.87996 119.108554 
L 941.833945 116.758761 
L 947.787929 114.597118 
L 953.741914 112.619644 
L 959.695899 110.824047 
L 965.649883 109.207835 
L 971.603868 107.764561 
L 977.557853 106.487364 
L 983.511837 105.364169 
L 992.442814 103.963959 
L 1001.373791 102.872836 
L 1010.304768 102.068353 
L 1019.235745 101.533885 
L 1028.166722 101.254457 
L 1034.120707 101.208323 
L 1034.120707 101.208323 
" clip-path="url(#pad5ed4f1d1)" style="fill: none; stroke: #0000ff; stroke-opacity: 0.5; stroke-width: 1.5; stroke-linecap: square"/>
   </g>
   <g id="patch_3">
    <path d="M 144 304.56 
L 144 77.76 
" style="fill: none; stroke: #000000; stroke-width: 0.8; stroke-linejoin: miter; stroke-linecap: square"/>
   </g>
   <g id="patch_4">
    <path d="M 1036.8 304.56 
L 1036.8 77.76 
" style="fill: none; stroke: #000000; stroke-width: 0.8; stroke-linejoin: miter; stroke-linecap: square"/>
   </g>
   <g id="patch_5">
    <path d="M 144 304.56 
L 1036.8 304.56 
" style="fill: none; stroke: #000000; stroke-width: 0.8; stroke-linejoin: miter; stroke-linecap: square"/>
   </g>
   <g id="patch_6">
    <path d="M 144 77.76 
L 1036.8 77.76 
" style="fill: none; stroke: #000000; stroke-width: 0.8; stroke-linejoin: miter; stroke-linecap: square"/>
   </g>
   <g id="legend_1">
    <g id="patch_7">
     <path d="M 151 299.56 
L 256.6 299.56 
Q 258.6 299.56 258.6 297.56 
L 258.6 254.525625 
Q 258.6 252.525625 256.6 252.525625 
L 151 252.525625 
Q 149 252.525625 149 254.525625 
L 149 297.56 
Q 149 299.56 151 299.56 
z
" style="fill: #ffffff; opacity: 0.8; stroke: #cccccc; stroke-linejoin: miter"/>
    </g>
    <g id="line2d_14">
     <path d="M 153 260.624062 
L 163 260.624062 
L 173 260.624062 
" style="fill: none; stroke-dasharray: 5.55,2.4; stroke-dashoffset: 0; stroke: #ffa500; stroke-width: 1.5"/>
    </g>
    <g id="text_12">
     <!-- Real $x$ Position -->
     <g transform="translate(181 264.124062) scale(0.1 -0.1)">
      <defs>
       <path id="DejaVuSans-52" d="M 2841 2188 
Q 3044 2119 3236 1894 
Q 3428 1669 3622 1275 
L 4263 0 
L 3584 0 
L 2988 1197 
Q 2756 1666 2539 1819 
Q 2322 1972 1947 1972 
L 1259 1972 
L 1259 0 
L 628 0 
L 628 4666 
L 2053 4666 
Q 2853 4666 3247 4331 
Q 3641 3997 3641 3322 
Q 3641 2881 3436 2590 
Q 3231 2300 2841 2188 
z
M 1259 4147 
L 1259 2491 
L 2053 2491 
Q 2509 2491 2742 2702 
Q 2975 2913 2975 3322 
Q 2975 3731 2742 3939 
Q 2509 4147 2053 4147 
L 1259 4147 
z
" transform="scale(0.015625)"/>
       <path id="DejaVuSans-65" d="M 3597 1894 
L 3597 1613 
L 953 1613 
Q 991 1019 1311 708 
Q 1631 397 2203 397 
Q 2534 397 2845 478 
Q 3156 559 3463 722 
L 3463 178 
Q 3153 47 2828 -22 
Q 2503 -91 2169 -91 
Q 1331 -91 842 396 
Q 353 884 353 1716 
Q 353 2575 817 3079 
Q 1281 3584 2069 3584 
Q 2775 3584 3186 3129 
Q 3597 2675 3597 1894 
z
M 3022 2063 
Q 3016 2534 2758 2815 
Q 2500 3097 2075 3097 
Q 1594 3097 1305 2825 
Q 1016 2553 972 2059 
L 3022 2063 
z
" transform="scale(0.015625)"/>
       <path id="DejaVuSans-61" d="M 2194 1759 
Q 1497 1759 1228 1600 
Q 959 1441 959 1056 
Q 959 750 1161 570 
Q 1363 391 1709 391 
Q 2188 391 2477 730 
Q 2766 1069 2766 1631 
L 2766 1759 
L 2194 1759 
z
M 3341 1997 
L 3341 0 
L 2766 0 
L 2766 531 
Q 2569 213 2275 61 
Q 1981 -91 1556 -91 
Q 1019 -91 701 211 
Q 384 513 384 1019 
Q 384 1609 779 1909 
Q 1175 2209 1959 2209 
L 2766 2209 
L 2766 2266 
Q 2766 2663 2505 2880 
Q 2244 3097 1772 3097 
Q 1472 3097 1187 3025 
Q 903 2953 641 2809 
L 641 3341 
Q 956 3463 1253 3523 
Q 1550 3584 1831 3584 
Q 2591 3584 2966 3190 
Q 3341 2797 3341 1997 
z
" transform="scale(0.015625)"/>
       <path id="DejaVuSans-6c" d="M 603 4863 
L 1178 4863 
L 1178 0 
L 603 0 
L 603 4863 
z
" transform="scale(0.015625)"/>
       <path id="DejaVuSans-20" transform="scale(0.015625)"/>
       <path id="DejaVuSans-Oblique-78" d="M 3841 3500 
L 2234 1784 
L 3219 0 
L 2559 0 
L 1819 1388 
L 531 0 
L -166 0 
L 1556 1844 
L 641 3500 
L 1300 3500 
L 1972 2234 
L 3144 3500 
L 3841 3500 
z
" transform="scale(0.015625)"/>
       <path id="DejaVuSans-50" d="M 1259 4147 
L 1259 2394 
L 2053 2394 
Q 2494 2394 2734 2622 
Q 2975 2850 2975 3272 
Q 2975 3691 2734 3919 
Q 2494 4147 2053 4147 
L 1259 4147 
z
M 628 4666 
L 2053 4666 
Q 2838 4666 3239 4311 
Q 3641 3956 3641 3272 
Q 3641 2581 3239 2228 
Q 2838 1875 2053 1875 
L 1259 1875 
L 1259 0 
L 628 0 
L 628 4666 
z
" transform="scale(0.015625)"/>
       <path id="DejaVuSans-6f" d="M 1959 3097 
Q 1497 3097 1228 2736 
Q 959 2375 959 1747 
Q 959 1119 1226 758 
Q 1494 397 1959 397 
Q 2419 397 2687 759 
Q 2956 1122 2956 1747 
Q 2956 2369 2687 2733 
Q 2419 3097 1959 3097 
z
M 1959 3584 
Q 2709 3584 3137 3096 
Q 3566 2609 3566 1747 
Q 3566 888 3137 398 
Q 2709 -91 1959 -91 
Q 1206 -91 779 398 
Q 353 888 353 1747 
Q 353 2609 779 3096 
Q 1206 3584 1959 3584 
z
" transform="scale(0.015625)"/>
       <path id="DejaVuSans-73" d="M 2834 3397 
L 2834 2853 
Q 2591 2978 2328 3040 
Q 2066 3103 1784 3103 
Q 1356 3103 1142 2972 
Q 928 2841 928 2578 
Q 928 2378 1081 2264 
Q 1234 2150 1697 2047 
L 1894 2003 
Q 2506 1872 2764 1633 
Q 3022 1394 3022 966 
Q 3022 478 2636 193 
Q 2250 -91 1575 -91 
Q 1294 -91 989 -36 
Q 684 19 347 128 
L 347 722 
Q 666 556 975 473 
Q 1284 391 1588 391 
Q 1994 391 2212 530 
Q 2431 669 2431 922 
Q 2431 1156 2273 1281 
Q 2116 1406 1581 1522 
L 1381 1569 
Q 847 1681 609 1914 
Q 372 2147 372 2553 
Q 372 3047 722 3315 
Q 1072 3584 1716 3584 
Q 2034 3584 2315 3537 
Q 2597 3491 2834 3397 
z
" transform="scale(0.015625)"/>
       <path id="DejaVuSans-69" d="M 603 3500 
L 1178 3500 
L 1178 0 
L 603 0 
L 603 3500 
z
M 603 4863 
L 1178 4863 
L 1178 4134 
L 603 4134 
L 603 4863 
z
" transform="scale(0.015625)"/>
       <path id="DejaVuSans-74" d="M 1172 4494 
L 1172 3500 
L 2356 3500 
L 2356 3053 
L 1172 3053 
L 1172 1153 
Q 1172 725 1289 603 
Q 1406 481 1766 481 
L 2356 481 
L 2356 0 
L 1766 0 
Q 1100 0 847 248 
Q 594 497 594 1153 
L 594 3053 
L 172 3053 
L 172 3500 
L 594 3500 
L 594 4494 
L 1172 4494 
z
" transform="scale(0.015625)"/>
       <path id="DejaVuSans-6e" d="M 3513 2113 
L 3513 0 
L 2938 0 
L 2938 2094 
Q 2938 2591 2744 2837 
Q 2550 3084 2163 3084 
Q 1697 3084 1428 2787 
Q 1159 2491 1159 1978 
L 1159 0 
L 581 0 
L 581 3500 
L 1159 3500 
L 1159 2956 
Q 1366 3272 1645 3428 
Q 1925 3584 2291 3584 
Q 2894 3584 3203 3211 
Q 3513 2838 3513 2113 
z
" transform="scale(0.015625)"/>
      </defs>
      <use xlink:href="#DejaVuSans-52" transform="translate(0 0.015625)"/>
      <use xlink:href="#DejaVuSans-65" transform="translate(69.482422 0.015625)"/>
      <use xlink:href="#DejaVuSans-61" transform="translate(131.005859 0.015625)"/>
      <use xlink:href="#DejaVuSans-6c" transform="translate(192.285156 0.015625)"/>
      <use xlink:href="#DejaVuSans-20" transform="translate(220.068359 0.015625)"/>
      <use xlink:href="#DejaVuSans-Oblique-78" transform="translate(251.855469 0.015625)"/>
      <use xlink:href="#DejaVuSans-20" transform="translate(311.035156 0.015625)"/>
      <use xlink:href="#DejaVuSans-50" transform="translate(342.822266 0.015625)"/>
      <use xlink:href="#DejaVuSans-6f" transform="translate(403.125 0.015625)"/>
      <use xlink:href="#DejaVuSans-73" transform="translate(464.306641 0.015625)"/>
      <use xlink:href="#DejaVuSans-69" transform="translate(516.40625 0.015625)"/>
      <use xlink:href="#DejaVuSans-74" transform="translate(544.189453 0.015625)"/>
      <use xlink:href="#DejaVuSans-69" transform="translate(583.398438 0.015625)"/>
      <use xlink:href="#DejaVuSans-6f" transform="translate(611.181641 0.015625)"/>
      <use xlink:href="#DejaVuSans-6e" transform="translate(672.363281 0.015625)"/>
     </g>
    </g>
    <g id="line2d_15">
     <path d="M 153 275.302188 
L 163 275.302188 
L 173 275.302188 
" style="fill: none; stroke: #0000ff; stroke-opacity: 0.5; stroke-width: 1.5; stroke-linecap: square"/>
    </g>
    <g id="text_13">
     <!-- Prediction $x$ -->
     <g transform="translate(181 278.802188) scale(0.1 -0.1)">
      <defs>
       <path id="DejaVuSans-72" d="M 2631 2963 
Q 2534 3019 2420 3045 
Q 2306 3072 2169 3072 
Q 1681 3072 1420 2755 
Q 1159 2438 1159 1844 
L 1159 0 
L 581 0 
L 581 3500 
L 1159 3500 
L 1159 2956 
Q 1341 3275 1631 3429 
Q 1922 3584 2338 3584 
Q 2397 3584 2469 3576 
Q 2541 3569 2628 3553 
L 2631 2963 
z
" transform="scale(0.015625)"/>
       <path id="DejaVuSans-64" d="M 2906 2969 
L 2906 4863 
L 3481 4863 
L 3481 0 
L 2906 0 
L 2906 525 
Q 2725 213 2448 61 
Q 2172 -91 1784 -91 
Q 1150 -91 751 415 
Q 353 922 353 1747 
Q 353 2572 751 3078 
Q 1150 3584 1784 3584 
Q 2172 3584 2448 3432 
Q 2725 3281 2906 2969 
z
M 947 1747 
Q 947 1113 1208 752 
Q 1469 391 1925 391 
Q 2381 391 2643 752 
Q 2906 1113 2906 1747 
Q 2906 2381 2643 2742 
Q 2381 3103 1925 3103 
Q 1469 3103 1208 2742 
Q 947 2381 947 1747 
z
" transform="scale(0.015625)"/>
       <path id="DejaVuSans-63" d="M 3122 3366 
L 3122 2828 
Q 2878 2963 2633 3030 
Q 2388 3097 2138 3097 
Q 1578 3097 1268 2742 
Q 959 2388 959 1747 
Q 959 1106 1268 751 
Q 1578 397 2138 397 
Q 2388 397 2633 464 
Q 2878 531 3122 666 
L 3122 134 
Q 2881 22 2623 -34 
Q 2366 -91 2075 -91 
Q 1284 -91 818 406 
Q 353 903 353 1747 
Q 353 2603 823 3093 
Q 1294 3584 2113 3584 
Q 2378 3584 2631 3529 
Q 2884 3475 3122 3366 
z
" transform="scale(0.015625)"/>
      </defs>
      <use xlink:href="#DejaVuSans-50" transform="translate(0 0.015625)"/>
      <use xlink:href="#DejaVuSans-72" transform="translate(60.302734 0.015625)"/>
      <use xlink:href="#DejaVuSans-65" transform="translate(101.416016 0.015625)"/>
      <use xlink:href="#DejaVuSans-64" transform="translate(162.939453 0.015625)"/>
      <use xlink:href="#DejaVuSans-69" transform="translate(226.416016 0.015625)"/>
      <use xlink:href="#DejaVuSans-63" transform="translate(254.199219 0.015625)"/>
      <use xlink:href="#DejaVuSans-74" transform="translate(309.179688 0.015625)"/>
      <use xlink:href="#DejaVuSans-69" transform="translate(348.388672 0.015625)"/>
      <use xlink:href="#DejaVuSans-6f" transform="translate(376.171875 0.015625)"/>
      <use xlink:href="#DejaVuSans-6e" transform="translate(437.353516 0.015625)"/>
      <use xlink:href="#DejaVuSans-20" transform="translate(500.732422 0.015625)"/>
      <use xlink:href="#DejaVuSans-Oblique-78" transform="translate(532.519531 0.015625)"/>
     </g>
    </g>
    <g id="patch_8">
     <path d="M 153 293.480312 
L 173 293.480312 
L 173 286.480312 
L 153 286.480312 
z
" style="fill: #00ffff; fill-opacity: 0.5; stroke: #00ffff; stroke-opacity: 0.5; stroke-linejoin: miter"/>
    </g>
    <g id="text_14">
     <!-- Confidence -->
     <g transform="translate(181 293.480312) scale(0.1 -0.1)">
      <defs>
       <path id="DejaVuSans-43" d="M 4122 4306 
L 4122 3641 
Q 3803 3938 3442 4084 
Q 3081 4231 2675 4231 
Q 1875 4231 1450 3742 
Q 1025 3253 1025 2328 
Q 1025 1406 1450 917 
Q 1875 428 2675 428 
Q 3081 428 3442 575 
Q 3803 722 4122 1019 
L 4122 359 
Q 3791 134 3420 21 
Q 3050 -91 2638 -91 
Q 1578 -91 968 557 
Q 359 1206 359 2328 
Q 359 3453 968 4101 
Q 1578 4750 2638 4750 
Q 3056 4750 3426 4639 
Q 3797 4528 4122 4306 
z
" transform="scale(0.015625)"/>
       <path id="DejaVuSans-66" d="M 2375 4863 
L 2375 4384 
L 1825 4384 
Q 1516 4384 1395 4259 
Q 1275 4134 1275 3809 
L 1275 3500 
L 2222 3500 
L 2222 3053 
L 1275 3053 
L 1275 0 
L 697 0 
L 697 3053 
L 147 3053 
L 147 3500 
L 697 3500 
L 697 3744 
Q 697 4328 969 4595 
Q 1241 4863 1831 4863 
L 2375 4863 
z
" transform="scale(0.015625)"/>
      </defs>
      <use xlink:href="#DejaVuSans-43"/>
      <use xlink:href="#DejaVuSans-6f" x="69.824219"/>
      <use xlink:href="#DejaVuSans-6e" x="131.005859"/>
      <use xlink:href="#DejaVuSans-66" x="194.384766"/>
      <use xlink:href="#DejaVuSans-69" x="229.589844"/>
      <use xlink:href="#DejaVuSans-64" x="257.373047"/>
      <use xlink:href="#DejaVuSans-65" x="320.849609"/>
      <use xlink:href="#DejaVuSans-6e" x="382.373047"/>
      <use xlink:href="#DejaVuSans-63" x="445.751953"/>
      <use xlink:href="#DejaVuSans-65" x="500.732422"/>
     </g>
    </g>
   </g>
  </g>
  <g id="axes_2">
   <g id="patch_9">
    <path d="M 144 576.72 
L 1036.8 576.72 
L 1036.8 349.92 
L 144 349.92 
z
" style="fill: #ffffff"/>
   </g>
   <g id="matplotlib.axis_3">
    <g id="xtick_7">
     <g id="line2d_16">
      <g>
       <use xlink:href="#me3523893ed" x="144" y="576.72" style="stroke: #000000; stroke-width: 0.8"/>
      </g>
     </g>
     <g id="text_15">
      <!-- 0 -->
      <g transform="translate(140.81875 591.318438) scale(0.1 -0.1)">
       <use xlink:href="#DejaVuSans-30"/>
      </g>
     </g>
    </g>
    <g id="xtick_8">
     <g id="line2d_17">
      <g>
       <use xlink:href="#me3523893ed" x="292.849617" y="576.72" style="stroke: #000000; stroke-width: 0.8"/>
      </g>
     </g>
     <g id="text_16">
      <!-- 5 -->
      <g transform="translate(289.668367 591.318438) scale(0.1 -0.1)">
       <use xlink:href="#DejaVuSans-35"/>
      </g>
     </g>
    </g>
    <g id="xtick_9">
     <g id="line2d_18">
      <g>
       <use xlink:href="#me3523893ed" x="441.699233" y="576.72" style="stroke: #000000; stroke-width: 0.8"/>
      </g>
     </g>
     <g id="text_17">
      <!-- 10 -->
      <g transform="translate(435.336733 591.318438) scale(0.1 -0.1)">
       <use xlink:href="#DejaVuSans-31"/>
       <use xlink:href="#DejaVuSans-30" x="63.623047"/>
      </g>
     </g>
    </g>
    <g id="xtick_10">
     <g id="line2d_19">
      <g>
       <use xlink:href="#me3523893ed" x="590.54885" y="576.72" style="stroke: #000000; stroke-width: 0.8"/>
      </g>
     </g>
     <g id="text_18">
      <!-- 15 -->
      <g transform="translate(584.18635 591.318438) scale(0.1 -0.1)">
       <use xlink:href="#DejaVuSans-31"/>
       <use xlink:href="#DejaVuSans-35" x="63.623047"/>
      </g>
     </g>
    </g>
    <g id="xtick_11">
     <g id="line2d_20">
      <g>
       <use xlink:href="#me3523893ed" x="739.398466" y="576.72" style="stroke: #000000; stroke-width: 0.8"/>
      </g>
     </g>
     <g id="text_19">
      <!-- 20 -->
      <g transform="translate(733.035966 591.318438) scale(0.1 -0.1)">
       <use xlink:href="#DejaVuSans-32"/>
       <use xlink:href="#DejaVuSans-30" x="63.623047"/>
      </g>
     </g>
    </g>
    <g id="xtick_12">
     <g id="line2d_21">
      <g>
       <use xlink:href="#me3523893ed" x="888.248083" y="576.72" style="stroke: #000000; stroke-width: 0.8"/>
      </g>
     </g>
     <g id="text_20">
      <!-- 25 -->
      <g transform="translate(881.885583 591.318438) scale(0.1 -0.1)">
       <use xlink:href="#DejaVuSans-32"/>
       <use xlink:href="#DejaVuSans-35" x="63.623047"/>
      </g>
     </g>
    </g>
   </g>
   <g id="matplotlib.axis_4">
    <g id="ytick_6">
     <g id="line2d_22">
      <g>
       <use xlink:href="#m85479d4dec" x="144" y="555.215846" style="stroke: #000000; stroke-width: 0.8"/>
      </g>
     </g>
     <g id="text_21">
      <!-- −0.04 -->
      <g transform="translate(106.354687 559.015064) scale(0.1 -0.1)">
       <defs>
        <path id="DejaVuSans-2212" d="M 678 2272 
L 4684 2272 
L 4684 1741 
L 678 1741 
L 678 2272 
z
" transform="scale(0.015625)"/>
        <path id="DejaVuSans-34" d="M 2419 4116 
L 825 1625 
L 2419 1625 
L 2419 4116 
z
M 2253 4666 
L 3047 4666 
L 3047 1625 
L 3713 1625 
L 3713 1100 
L 3047 1100 
L 3047 0 
L 2419 0 
L 2419 1100 
L 313 1100 
L 313 1709 
L 2253 4666 
z
" transform="scale(0.015625)"/>
       </defs>
       <use xlink:href="#DejaVuSans-2212"/>
       <use xlink:href="#DejaVuSans-30" x="83.789062"/>
       <use xlink:href="#DejaVuSans-2e" x="147.412109"/>
       <use xlink:href="#DejaVuSans-30" x="179.199219"/>
       <use xlink:href="#DejaVuSans-34" x="242.822266"/>
      </g>
     </g>
    </g>
    <g id="ytick_7">
     <g id="line2d_23">
      <g>
       <use xlink:href="#m85479d4dec" x="144" y="529.926598" style="stroke: #000000; stroke-width: 0.8"/>
      </g>
     </g>
     <g id="text_22">
      <!-- −0.03 -->
      <g transform="translate(106.354687 533.725816) scale(0.1 -0.1)">
       <use xlink:href="#DejaVuSans-2212"/>
       <use xlink:href="#DejaVuSans-30" x="83.789062"/>
       <use xlink:href="#DejaVuSans-2e" x="147.412109"/>
       <use xlink:href="#DejaVuSans-30" x="179.199219"/>
       <use xlink:href="#DejaVuSans-33" x="242.822266"/>
      </g>
     </g>
    </g>
    <g id="ytick_8">
     <g id="line2d_24">
      <g>
       <use xlink:href="#m85479d4dec" x="144" y="504.63735" style="stroke: #000000; stroke-width: 0.8"/>
      </g>
     </g>
     <g id="text_23">
      <!-- −0.02 -->
      <g transform="translate(106.354687 508.436569) scale(0.1 -0.1)">
       <use xlink:href="#DejaVuSans-2212"/>
       <use xlink:href="#DejaVuSans-30" x="83.789062"/>
       <use xlink:href="#DejaVuSans-2e" x="147.412109"/>
       <use xlink:href="#DejaVuSans-30" x="179.199219"/>
       <use xlink:href="#DejaVuSans-32" x="242.822266"/>
      </g>
     </g>
    </g>
    <g id="ytick_9">
     <g id="line2d_25">
      <g>
       <use xlink:href="#m85479d4dec" x="144" y="479.348102" style="stroke: #000000; stroke-width: 0.8"/>
      </g>
     </g>
     <g id="text_24">
      <!-- −0.01 -->
      <g transform="translate(106.354687 483.147321) scale(0.1 -0.1)">
       <use xlink:href="#DejaVuSans-2212"/>
       <use xlink:href="#DejaVuSans-30" x="83.789062"/>
       <use xlink:href="#DejaVuSans-2e" x="147.412109"/>
       <use xlink:href="#DejaVuSans-30" x="179.199219"/>
       <use xlink:href="#DejaVuSans-31" x="242.822266"/>
      </g>
     </g>
    </g>
    <g id="ytick_10">
     <g id="line2d_26">
      <g>
       <use xlink:href="#m85479d4dec" x="144" y="454.058854" style="stroke: #000000; stroke-width: 0.8"/>
      </g>
     </g>
     <g id="text_25">
      <!-- 0.00 -->
      <g transform="translate(114.734375 457.858073) scale(0.1 -0.1)">
       <use xlink:href="#DejaVuSans-30"/>
       <use xlink:href="#DejaVuSans-2e" x="63.623047"/>
       <use xlink:href="#DejaVuSans-30" x="95.410156"/>
       <use xlink:href="#DejaVuSans-30" x="159.033203"/>
      </g>
     </g>
    </g>
    <g id="ytick_11">
     <g id="line2d_27">
      <g>
       <use xlink:href="#m85479d4dec" x="144" y="428.769606" style="stroke: #000000; stroke-width: 0.8"/>
      </g>
     </g>
     <g id="text_26">
      <!-- 0.01 -->
      <g transform="translate(114.734375 432.568825) scale(0.1 -0.1)">
       <use xlink:href="#DejaVuSans-30"/>
       <use xlink:href="#DejaVuSans-2e" x="63.623047"/>
       <use xlink:href="#DejaVuSans-30" x="95.410156"/>
       <use xlink:href="#DejaVuSans-31" x="159.033203"/>
      </g>
     </g>
    </g>
    <g id="ytick_12">
     <g id="line2d_28">
      <g>
       <use xlink:href="#m85479d4dec" x="144" y="403.480359" style="stroke: #000000; stroke-width: 0.8"/>
      </g>
     </g>
     <g id="text_27">
      <!-- 0.02 -->
      <g transform="translate(114.734375 407.279577) scale(0.1 -0.1)">
       <use xlink:href="#DejaVuSans-30"/>
       <use xlink:href="#DejaVuSans-2e" x="63.623047"/>
       <use xlink:href="#DejaVuSans-30" x="95.410156"/>
       <use xlink:href="#DejaVuSans-32" x="159.033203"/>
      </g>
     </g>
    </g>
    <g id="ytick_13">
     <g id="line2d_29">
      <g>
       <use xlink:href="#m85479d4dec" x="144" y="378.191111" style="stroke: #000000; stroke-width: 0.8"/>
      </g>
     </g>
     <g id="text_28">
      <!-- 0.03 -->
      <g transform="translate(114.734375 381.990329) scale(0.1 -0.1)">
       <use xlink:href="#DejaVuSans-30"/>
       <use xlink:href="#DejaVuSans-2e" x="63.623047"/>
       <use xlink:href="#DejaVuSans-30" x="95.410156"/>
       <use xlink:href="#DejaVuSans-33" x="159.033203"/>
      </g>
     </g>
    </g>
    <g id="ytick_14">
     <g id="line2d_30">
      <g>
       <use xlink:href="#m85479d4dec" x="144" y="352.901863" style="stroke: #000000; stroke-width: 0.8"/>
      </g>
     </g>
     <g id="text_29">
      <!-- 0.04 -->
      <g transform="translate(114.734375 356.701082) scale(0.1 -0.1)">
       <use xlink:href="#DejaVuSans-30"/>
       <use xlink:href="#DejaVuSans-2e" x="63.623047"/>
       <use xlink:href="#DejaVuSans-30" x="95.410156"/>
       <use xlink:href="#DejaVuSans-34" x="159.033203"/>
      </g>
     </g>
    </g>
   </g>
   <g id="line2d_31">
    <path d="M 144 432.506231 
L 173.769923 429.272369 
L 203.539847 427.893573 
L 263.079693 423.898116 
L 322.61954 419.579558 
L 411.92931 412.916462 
L 501.23908 406.414588 
L 590.54885 400.529929 
L 620.318773 398.63979 
L 679.85862 395.12308 
L 739.398466 392.018769 
L 798.938313 389.13722 
L 828.708236 387.831951 
L 918.018006 384.321192 
L 947.787929 383.380672 
L 977.557853 382.325386 
L 1037.097699 380.53885 
L 1153 377.621575 
L 1153 377.621575 
" clip-path="url(#p6a185b4c87)" style="fill: none; stroke: #1f77b4; stroke-width: 1.5; stroke-linecap: square"/>
   </g>
   <g id="patch_10">
    <path d="M 144 576.72 
L 144 349.92 
" style="fill: none; stroke: #000000; stroke-width: 0.8; stroke-linejoin: miter; stroke-linecap: square"/>
   </g>
   <g id="patch_11">
    <path d="M 1036.8 576.72 
L 1036.8 349.92 
" style="fill: none; stroke: #000000; stroke-width: 0.8; stroke-linejoin: miter; stroke-linecap: square"/>
   </g>
   <g id="patch_12">
    <path d="M 144 576.72 
L 1036.8 576.72 
" style="fill: none; stroke: #000000; stroke-width: 0.8; stroke-linejoin: miter; stroke-linecap: square"/>
   </g>
   <g id="patch_13">
    <path d="M 144 349.92 
L 1036.8 349.92 
" style="fill: none; stroke: #000000; stroke-width: 0.8; stroke-linejoin: miter; stroke-linecap: square"/>
   </g>
   <g id="legend_2">
    <g id="patch_14">
     <path d="M 920.578125 372.598125 
L 1029.8 372.598125 
Q 1031.8 372.598125 1031.8 370.598125 
L 1031.8 356.92 
Q 1031.8 354.92 1029.8 354.92 
L 920.578125 354.92 
Q 918.578125 354.92 918.578125 356.92 
L 918.578125 370.598125 
Q 918.578125 372.598125 920.578125 372.598125 
z
" style="fill: #ffffff; opacity: 0.8; stroke: #cccccc; stroke-linejoin: miter"/>
    </g>
    <g id="line2d_32">
     <path d="M 922.578125 363.018437 
L 932.578125 363.018437 
L 942.578125 363.018437 
" style="fill: none; stroke: #1f77b4; stroke-width: 1.5; stroke-linecap: square"/>
    </g>
    <g id="text_30">
     <!-- Prediction Error -->
     <g transform="translate(950.578125 366.518437) scale(0.1 -0.1)">
      <defs>
       <path id="DejaVuSans-45" d="M 628 4666 
L 3578 4666 
L 3578 4134 
L 1259 4134 
L 1259 2753 
L 3481 2753 
L 3481 2222 
L 1259 2222 
L 1259 531 
L 3634 531 
L 3634 0 
L 628 0 
L 628 4666 
z
" transform="scale(0.015625)"/>
      </defs>
      <use xlink:href="#DejaVuSans-50"/>
      <use xlink:href="#DejaVuSans-72" x="58.552734"/>
      <use xlink:href="#DejaVuSans-65" x="97.416016"/>
      <use xlink:href="#DejaVuSans-64" x="158.939453"/>
      <use xlink:href="#DejaVuSans-69" x="222.416016"/>
      <use xlink:href="#DejaVuSans-63" x="250.199219"/>
      <use xlink:href="#DejaVuSans-74" x="305.179688"/>
      <use xlink:href="#DejaVuSans-69" x="344.388672"/>
      <use xlink:href="#DejaVuSans-6f" x="372.171875"/>
      <use xlink:href="#DejaVuSans-6e" x="433.353516"/>
      <use xlink:href="#DejaVuSans-20" x="496.732422"/>
      <use xlink:href="#DejaVuSans-45" x="528.519531"/>
      <use xlink:href="#DejaVuSans-72" x="591.703125"/>
      <use xlink:href="#DejaVuSans-72" x="631.066406"/>
      <use xlink:href="#DejaVuSans-6f" x="669.929688"/>
      <use xlink:href="#DejaVuSans-72" x="731.111328"/>
     </g>
    </g>
   </g>
  </g>
  <g id="text_31">
   <!-- $x$-Position Prediction -->
   <g transform="translate(514.74 22.078125) scale(0.12 -0.12)">
    <defs>
     <path id="DejaVuSans-2d" d="M 313 2009 
L 1997 2009 
L 1997 1497 
L 313 1497 
L 313 2009 
z
" transform="scale(0.015625)"/>
    </defs>
    <use xlink:href="#DejaVuSans-Oblique-78" transform="translate(0 0.015625)"/>
    <use xlink:href="#DejaVuSans-2d" transform="translate(59.179688 0.015625)"/>
    <use xlink:href="#DejaVuSans-50" transform="translate(95.263672 0.015625)"/>
    <use xlink:href="#DejaVuSans-6f" transform="translate(155.566406 0.015625)"/>
    <use xlink:href="#DejaVuSans-73" transform="translate(216.748047 0.015625)"/>
    <use xlink:href="#DejaVuSans-69" transform="translate(268.847656 0.015625)"/>
    <use xlink:href="#DejaVuSans-74" transform="translate(296.630859 0.015625)"/>
    <use xlink:href="#DejaVuSans-69" transform="translate(335.839844 0.015625)"/>
    <use xlink:href="#DejaVuSans-6f" transform="translate(363.623047 0.015625)"/>
    <use xlink:href="#DejaVuSans-6e" transform="translate(424.804688 0.015625)"/>
    <use xlink:href="#DejaVuSans-20" transform="translate(488.183594 0.015625)"/>
    <use xlink:href="#DejaVuSans-50" transform="translate(519.970703 0.015625)"/>
    <use xlink:href="#DejaVuSans-72" transform="translate(580.273438 0.015625)"/>
    <use xlink:href="#DejaVuSans-65" transform="translate(621.386719 0.015625)"/>
    <use xlink:href="#DejaVuSans-64" transform="translate(682.910156 0.015625)"/>
    <use xlink:href="#DejaVuSans-69" transform="translate(746.386719 0.015625)"/>
    <use xlink:href="#DejaVuSans-63" transform="translate(774.169922 0.015625)"/>
    <use xlink:href="#DejaVuSans-74" transform="translate(829.150391 0.015625)"/>
    <use xlink:href="#DejaVuSans-69" transform="translate(868.359375 0.015625)"/>
    <use xlink:href="#DejaVuSans-6f" transform="translate(896.142578 0.015625)"/>
    <use xlink:href="#DejaVuSans-6e" transform="translate(957.324219 0.015625)"/>
   </g>
  </g>
 </g>
 <defs>
  <clipPath id="pad5ed4f1d1">
   <rect x="144" y="77.76" width="892.8" height="226.8"/>
  </clipPath>
  <clipPath id="p6a185b4c87">
   <rect x="144" y="349.92" width="892.8" height="226.8"/>
  </clipPath>
 </defs>
</svg>
