<?xml version="1.0" encoding="utf-8" standalone="no"?>
<!DOCTYPE svg PUBLIC "-//W3C//DTD SVG 1.1//EN"
  "http://www.w3.org/Graphics/SVG/1.1/DTD/svg11.dtd">
<svg xmlns:xlink="http://www.w3.org/1999/xlink" width="1152pt" height="648pt" viewBox="0 0 1152 648" xmlns="http://www.w3.org/2000/svg" version="1.1">
 <metadata>
  <rdf:RDF xmlns:dc="http://purl.org/dc/elements/1.1/" xmlns:cc="http://creativecommons.org/ns#" xmlns:rdf="http://www.w3.org/1999/02/22-rdf-syntax-ns#">
   <cc:Work>
    <dc:type rdf:resource="http://purl.org/dc/dcmitype/StillImage"/>
    <dc:date>2024-06-19T20:46:20.320448</dc:date>
    <dc:format>image/svg+xml</dc:format>
    <dc:creator>
     <cc:Agent>
      <dc:title>Matplotlib v3.9.0, https://matplotlib.org/</dc:title>
     </cc:Agent>
    </dc:creator>
   </cc:Work>
  </rdf:RDF>
 </metadata>
 <defs>
  <style type="text/css">*{stroke-linejoin: round; stroke-linecap: butt}</style>
 </defs>
 <g id="figure_1">
  <g id="patch_1">
   <path d="M 0 648 
L 1152 648 
L 1152 0 
L 0 0 
z
" style="fill: #ffffff"/>
  </g>
  <g id="axes_1">
   <g id="patch_2">
    <path d="M 144 304.56 
L 1036.8 304.56 
L 1036.8 77.76 
L 144 77.76 
z
" style="fill: #ffffff"/>
   </g>
   <g id="PolyCollection_1">
    <defs>
     <path id="m10379df0ef" d="M 292.849617 -540.199329 
L 292.849617 -534.934117 
L 295.826609 -533.459092 
L 298.803601 -531.958904 
L 301.780594 -530.438266 
L 304.757586 -528.895661 
L 307.734578 -527.330975 
L 310.711571 -525.742934 
L 313.688563 -524.128484 
L 316.665555 -522.495092 
L 319.642548 -520.839568 
L 322.61954 -519.158782 
L 325.596532 -517.463889 
L 328.573525 -515.746295 
L 331.550517 -514.015632 
L 334.527509 -512.273334 
L 337.504502 -510.521032 
L 340.481494 -508.760722 
L 343.458486 -506.997031 
L 346.435478 -505.231161 
L 349.412471 -503.467616 
L 352.389463 -501.701267 
L 355.366455 -499.944017 
L 358.343448 -498.196812 
L 361.32044 -496.455343 
L 364.297432 -494.725242 
L 367.274425 -493.002229 
L 370.251417 -491.296842 
L 373.228409 -489.600323 
L 376.205402 -487.918538 
L 379.182394 -486.250869 
L 382.159386 -484.598991 
L 385.136379 -482.964071 
L 388.113371 -481.33842 
L 391.090363 -479.729102 
L 394.067356 -478.129218 
L 397.044348 -476.545007 
L 400.02134 -474.972075 
L 402.998333 -473.410906 
L 405.975325 -471.866181 
L 408.952317 -470.322789 
L 411.92931 -468.786762 
L 414.906302 -467.256261 
L 417.883294 -465.731226 
L 420.860287 -464.201753 
L 423.837279 -462.680006 
L 426.814271 -461.153679 
L 429.791264 -459.621259 
L 432.768256 -458.077298 
L 435.745248 -456.52727 
L 438.722241 -454.965199 
L 441.699233 -453.381254 
L 444.676225 -451.79556 
L 447.653218 -450.210775 
L 450.63021 -448.619386 
L 453.607202 -447.01802 
L 456.584195 -445.403547 
L 459.561187 -443.775985 
L 462.538179 -442.123634 
L 465.515172 -440.446781 
L 468.492164 -438.735184 
L 471.469156 -436.998973 
L 474.446149 -435.228436 
L 477.423141 -433.422571 
L 480.400133 -431.576222 
L 483.377126 -429.682309 
L 486.354118 -427.744045 
L 489.33111 -425.753263 
L 492.308103 -423.712076 
L 495.285095 -421.618149 
L 498.262087 -419.466984 
L 501.23908 -417.258994 
L 504.216072 -414.990546 
L 507.193064 -412.663718 
L 510.170057 -410.273565 
L 513.147049 -407.82791 
L 516.124041 -405.325919 
L 519.101034 -402.759937 
L 522.078026 -400.134335 
L 525.055018 -397.46408 
L 528.032011 -394.754342 
L 531.009003 -392.008156 
L 533.985995 -389.227981 
L 536.962988 -386.430466 
L 539.93998 -383.628977 
L 542.916972 -380.832252 
L 545.893965 -378.060955 
L 548.870957 -375.336152 
L 551.847949 -372.670857 
L 554.824942 -370.084784 
L 557.801934 -367.614944 
L 560.778926 -365.27396 
L 563.755919 -363.084145 
L 566.732911 -361.066834 
L 569.709903 -359.248451 
L 572.686896 -357.65782 
L 575.663888 -356.314218 
L 578.64088 -355.237874 
L 581.617873 -354.453898 
L 584.594865 -353.950772 
L 587.571857 -353.749091 
L 590.54885 -353.849423 
L 593.525842 -354.239574 
L 596.502834 -354.948932 
L 599.479827 -355.933065 
L 602.456819 -357.194713 
L 605.433811 -358.712466 
L 608.410804 -360.470086 
L 611.387796 -362.448034 
L 614.364788 -364.622848 
L 617.341781 -366.958413 
L 620.318773 -369.436853 
L 623.295765 -372.031541 
L 626.272758 -374.728296 
L 629.24975 -377.479836 
L 632.226742 -380.284893 
L 635.203735 -383.120882 
L 638.180727 -385.962631 
L 641.157719 -388.804288 
L 644.134712 -391.629457 
L 647.111704 -394.429281 
L 650.088696 -397.190298 
L 653.065689 -399.900165 
L 656.042681 -402.559653 
L 659.019673 -405.160119 
L 661.996666 -407.701157 
L 664.973658 -410.183428 
L 667.95065 -412.603623 
L 670.927643 -414.951794 
L 673.904635 -417.237984 
L 676.881627 -419.466142 
L 679.85862 -421.634113 
L 682.835612 -423.737323 
L 685.812604 -425.788381 
L 688.789597 -427.789053 
L 691.766589 -429.738934 
L 694.743581 -431.636634 
L 697.720574 -433.493312 
L 700.697566 -435.306287 
L 703.674558 -437.081223 
L 706.651551 -438.821704 
L 709.628543 -440.528373 
L 712.605535 -442.208105 
L 715.582528 -443.865943 
L 718.55952 -445.499399 
L 721.536512 -447.111924 
L 724.513505 -448.709966 
L 727.490497 -450.299082 
L 730.467489 -451.877793 
L 733.444481 -453.445827 
L 736.421474 -455.017703 
L 739.398466 -456.584737 
L 742.375458 -458.143233 
L 745.352451 -459.689059 
L 748.329443 -461.224681 
L 751.306435 -462.752872 
L 754.283428 -464.278468 
L 757.26042 -465.807371 
L 760.237412 -467.337889 
L 763.214405 -468.875426 
L 766.191397 -470.416364 
L 769.168389 -471.962629 
L 772.145382 -473.518082 
L 775.122374 -475.085807 
L 778.099366 -476.665189 
L 781.076359 -478.251409 
L 784.053351 -479.851639 
L 787.030343 -481.465857 
L 790.007336 -483.09274 
L 792.984328 -484.732171 
L 795.96132 -486.385012 
L 798.938313 -488.050891 
L 801.915305 -489.734739 
L 804.892297 -491.428181 
L 807.86929 -493.133641 
L 810.846282 -494.846931 
L 813.823274 -496.57564 
L 816.800267 -498.312353 
L 819.777259 -500.055889 
L 822.754251 -501.805694 
L 825.731244 -503.558796 
L 828.708236 -505.318646 
L 831.685228 -507.078229 
L 834.662221 -508.834461 
L 837.639213 -510.588945 
L 840.616205 -512.335382 
L 843.593198 -514.070715 
L 846.57019 -515.798585 
L 849.547182 -517.512291 
L 852.524175 -519.209857 
L 855.501167 -520.88706 
L 858.478159 -522.541263 
L 861.455152 -524.169992 
L 864.432144 -525.770898 
L 867.409136 -527.344129 
L 870.386129 -528.88207 
L 873.363121 -530.385161 
L 876.340113 -531.851523 
L 879.317106 -533.277475 
L 882.294098 -534.659046 
L 885.27109 -535.999817 
L 888.248083 -537.295391 
L 891.225075 -538.540891 
L 894.202067 -539.740013 
L 897.17906 -540.89166 
L 900.156052 -541.994494 
L 903.133044 -543.043468 
L 906.110037 -544.044115 
L 909.087029 -544.993744 
L 912.064021 -545.893036 
L 915.041014 -546.742576 
L 918.018006 -547.54263 
L 920.994998 -548.293905 
L 923.971991 -548.996823 
L 926.948983 -549.654289 
L 929.925975 -550.267354 
L 932.902968 -550.835021 
L 935.87996 -551.362293 
L 938.856952 -551.848787 
L 941.833945 -552.295086 
L 944.810937 -552.705237 
L 947.787929 -553.0798 
L 950.764922 -553.421559 
L 953.741914 -553.731144 
L 956.718906 -554.011276 
L 959.695899 -554.264693 
L 962.672891 -554.490545 
L 965.649883 -554.695985 
L 968.626876 -554.8763 
L 971.603868 -555.03885 
L 974.58086 -555.181868 
L 977.557853 -555.309275 
L 980.534845 -555.420684 
L 983.511837 -555.519419 
L 986.48883 -555.604856 
L 989.465822 -555.683628 
L 992.442814 -555.747297 
L 995.419807 -555.809514 
L 998.396799 -555.860489 
L 1001.373791 -555.905825 
L 1004.350784 -555.948629 
L 1007.327776 -555.988012 
L 1010.304768 -556.023197 
L 1013.281761 -556.057447 
L 1016.258753 -556.089731 
L 1019.235745 -556.121383 
L 1022.212738 -556.15051 
L 1025.18973 -556.182705 
L 1028.166722 -556.214209 
L 1031.143715 -556.244912 
L 1034.120707 -556.276398 
L 1034.120707 -559.598924 
L 1034.120707 -559.598924 
L 1031.143715 -559.63247 
L 1028.166722 -559.666301 
L 1025.18973 -559.698768 
L 1022.212738 -559.730528 
L 1019.235745 -559.764957 
L 1016.258753 -559.795674 
L 1013.281761 -559.824992 
L 1010.304768 -559.851912 
L 1007.327776 -559.876783 
L 1004.350784 -559.896499 
L 1001.373791 -559.913165 
L 998.396799 -559.926066 
L 995.419807 -559.930909 
L 992.442814 -559.923945 
L 989.465822 -559.914388 
L 986.48883 -559.888118 
L 983.511837 -559.85479 
L 980.534845 -559.806859 
L 977.557853 -559.74533 
L 974.58086 -559.666822 
L 971.603868 -559.571815 
L 968.626876 -559.456564 
L 965.649883 -559.32253 
L 962.672891 -559.162298 
L 959.695899 -558.981109 
L 956.718906 -558.771029 
L 953.741914 -558.533496 
L 950.764922 -558.265065 
L 947.787929 -557.963363 
L 944.810937 -557.628115 
L 941.833945 -557.256257 
L 938.856952 -556.84693 
L 935.87996 -556.396055 
L 932.902968 -555.903652 
L 929.925975 -555.370016 
L 926.948983 -554.79016 
L 923.971991 -554.165855 
L 920.994998 -553.495003 
L 918.018006 -552.774366 
L 915.041014 -552.003485 
L 912.064021 -551.182028 
L 909.087029 -550.309995 
L 906.110037 -549.386521 
L 903.133044 -548.411424 
L 900.156052 -547.386013 
L 897.17906 -546.305237 
L 894.202067 -545.175419 
L 891.225075 -543.997867 
L 888.248083 -542.772671 
L 885.27109 -541.495915 
L 882.294098 -540.173558 
L 879.317106 -538.809318 
L 876.340113 -537.399238 
L 873.363121 -535.948367 
L 870.386129 -534.46034 
L 867.409136 -532.936555 
L 864.432144 -531.376992 
L 861.455152 -529.789566 
L 858.478159 -528.173518 
L 855.501167 -526.531173 
L 852.524175 -524.865022 
L 849.547182 -523.178138 
L 846.57019 -521.474709 
L 843.593198 -519.757183 
L 840.616205 -518.031894 
L 837.639213 -516.294748 
L 834.662221 -514.549242 
L 831.685228 -512.802077 
L 828.708236 -511.05107 
L 825.731244 -509.299913 
L 822.754251 -507.555631 
L 819.777259 -505.814638 
L 816.800267 -504.079914 
L 813.823274 -502.351939 
L 810.846282 -500.632232 
L 807.86929 -498.928415 
L 804.892297 -497.232834 
L 801.915305 -495.549665 
L 798.938313 -493.876487 
L 795.96132 -492.221964 
L 792.984328 -490.581197 
L 790.007336 -488.954577 
L 787.030343 -487.341185 
L 784.053351 -485.741103 
L 781.076359 -484.155902 
L 778.099366 -482.585723 
L 775.122374 -481.02324 
L 772.145382 -479.472976 
L 769.168389 -477.935352 
L 766.191397 -476.407699 
L 763.214405 -474.885821 
L 760.237412 -473.367233 
L 757.26042 -471.854906 
L 754.283428 -470.3432 
L 751.306435 -468.833704 
L 748.329443 -467.320422 
L 745.352451 -465.797864 
L 742.375458 -464.262285 
L 739.398466 -462.713126 
L 736.421474 -461.156592 
L 733.444481 -459.596183 
L 730.467489 -458.040842 
L 727.490497 -456.476259 
L 724.513505 -454.901898 
L 721.536512 -453.319218 
L 718.55952 -451.723125 
L 715.582528 -450.106833 
L 712.605535 -448.466397 
L 709.628543 -446.804194 
L 706.651551 -445.115412 
L 703.674558 -443.392945 
L 700.697566 -441.636086 
L 697.720574 -439.841153 
L 694.743581 -438.002514 
L 691.766589 -436.122859 
L 688.789597 -434.190646 
L 685.812604 -432.207353 
L 682.835612 -430.174175 
L 679.85862 -428.089392 
L 676.881627 -425.939818 
L 673.904635 -423.730988 
L 670.927643 -421.46581 
L 667.95065 -419.139607 
L 664.973658 -416.741629 
L 661.996666 -414.283811 
L 659.019673 -411.769592 
L 656.042681 -409.197432 
L 653.065689 -406.567707 
L 650.088696 -403.888934 
L 647.111704 -401.159049 
L 644.134712 -398.392228 
L 641.157719 -395.602883 
L 638.180727 -392.799907 
L 635.203735 -389.996825 
L 632.226742 -387.198071 
L 629.24975 -384.430661 
L 626.272758 -381.713705 
L 623.295765 -379.049221 
L 620.318773 -376.487085 
L 617.341781 -374.037595 
L 614.364788 -371.72419 
L 611.387796 -369.567677 
L 608.410804 -367.607717 
L 605.433811 -365.864359 
L 602.456819 -364.356589 
L 599.479827 -363.098253 
L 596.502834 -362.110811 
L 593.525842 -361.395182 
L 590.54885 -360.993774 
L 587.571857 -360.874607 
L 584.594865 -361.05358 
L 581.617873 -361.530527 
L 578.64088 -362.286598 
L 575.663888 -363.334138 
L 572.686896 -364.64753 
L 569.709903 -366.206364 
L 566.732911 -367.991109 
L 563.755919 -369.973735 
L 560.778926 -372.128516 
L 557.801934 -374.435026 
L 554.824942 -376.869855 
L 551.847949 -379.420197 
L 548.870957 -382.050404 
L 545.893965 -384.740206 
L 542.916972 -387.475943 
L 539.93998 -390.237652 
L 536.962988 -393.004702 
L 533.985995 -395.767706 
L 531.009003 -398.514439 
L 528.032011 -401.228983 
L 525.055018 -403.907454 
L 522.078026 -406.545783 
L 519.101034 -409.140409 
L 516.124041 -411.678359 
L 513.147049 -414.154854 
L 510.170057 -416.574769 
L 507.193064 -418.940479 
L 504.216072 -421.244006 
L 501.23908 -423.491007 
L 498.262087 -425.679116 
L 495.285095 -427.812371 
L 492.308103 -429.889764 
L 489.33111 -431.915312 
L 486.354118 -433.892321 
L 483.377126 -435.819231 
L 480.400133 -437.70352 
L 477.423141 -439.542532 
L 474.446149 -441.341603 
L 471.469156 -443.106071 
L 468.492164 -444.835684 
L 465.515172 -446.541007 
L 462.538179 -448.213324 
L 459.561187 -449.862362 
L 456.584195 -451.485922 
L 453.607202 -453.094085 
L 450.63021 -454.687501 
L 447.653218 -456.268593 
L 444.676225 -457.838998 
L 441.699233 -459.407151 
L 438.722241 -460.974421 
L 435.745248 -462.522116 
L 432.768256 -464.057526 
L 429.791264 -465.588074 
L 426.814271 -467.109034 
L 423.837279 -468.625912 
L 420.860287 -470.138049 
L 417.883294 -471.657647 
L 414.906302 -473.175083 
L 411.92931 -474.698127 
L 408.952317 -476.227327 
L 405.975325 -477.766655 
L 402.998333 -479.308306 
L 400.02134 -480.86466 
L 397.044348 -482.43273 
L 394.067356 -484.011736 
L 391.090363 -485.606518 
L 388.113371 -487.211201 
L 385.136379 -488.832023 
L 382.159386 -490.462722 
L 379.182394 -492.108655 
L 376.205402 -493.768795 
L 373.228409 -495.441737 
L 370.251417 -497.128871 
L 367.274425 -498.823288 
L 364.297432 -500.533086 
L 361.32044 -502.249313 
L 358.343448 -503.976031 
L 355.366455 -505.707334 
L 352.389463 -507.44612 
L 349.412471 -509.193516 
L 346.435478 -510.938463 
L 343.458486 -512.686151 
L 340.481494 -514.432131 
L 337.504502 -516.175783 
L 334.527509 -517.91317 
L 331.550517 -519.642256 
L 328.573525 -521.361418 
L 325.596532 -523.069526 
L 322.61954 -524.756295 
L 319.642548 -526.429451 
L 316.665555 -528.077234 
L 313.688563 -529.700842 
L 310.711571 -531.301368 
L 307.734578 -532.868871 
L 304.757586 -534.402913 
L 301.780594 -535.900967 
L 298.803601 -537.360444 
L 295.826609 -538.781943 
L 292.849617 -540.199329 
z
" style="stroke: #00ffff; stroke-opacity: 0.5"/>
    </defs>
    <g clip-path="url(#pb0a7d7654c)">
     <use xlink:href="#m10379df0ef" x="0" y="648" style="fill: #00ffff; fill-opacity: 0.5; stroke: #00ffff; stroke-opacity: 0.5"/>
    </g>
   </g>
   <g id="matplotlib.axis_1">
    <g id="xtick_1">
     <g id="line2d_1">
      <defs>
       <path id="mca77d0b3d8" d="M 0 0 
L 0 3.5 
" style="stroke: #000000; stroke-width: 0.8"/>
      </defs>
      <g>
       <use xlink:href="#mca77d0b3d8" x="144" y="304.56" style="stroke: #000000; stroke-width: 0.8"/>
      </g>
     </g>
     <g id="text_1">
      <!-- 0 -->
      <g transform="translate(140.81875 319.158437) scale(0.1 -0.1)">
       <defs>
        <path id="DejaVuSans-30" d="M 2034 4250 
Q 1547 4250 1301 3770 
Q 1056 3291 1056 2328 
Q 1056 1369 1301 889 
Q 1547 409 2034 409 
Q 2525 409 2770 889 
Q 3016 1369 3016 2328 
Q 3016 3291 2770 3770 
Q 2525 4250 2034 4250 
z
M 2034 4750 
Q 2819 4750 3233 4129 
Q 3647 3509 3647 2328 
Q 3647 1150 3233 529 
Q 2819 -91 2034 -91 
Q 1250 -91 836 529 
Q 422 1150 422 2328 
Q 422 3509 836 4129 
Q 1250 4750 2034 4750 
z
" transform="scale(0.015625)"/>
       </defs>
       <use xlink:href="#DejaVuSans-30"/>
      </g>
     </g>
    </g>
    <g id="xtick_2">
     <g id="line2d_2">
      <g>
       <use xlink:href="#mca77d0b3d8" x="292.849617" y="304.56" style="stroke: #000000; stroke-width: 0.8"/>
      </g>
     </g>
     <g id="text_2">
      <!-- 5 -->
      <g transform="translate(289.668367 319.158437) scale(0.1 -0.1)">
       <defs>
        <path id="DejaVuSans-35" d="M 691 4666 
L 3169 4666 
L 3169 4134 
L 1269 4134 
L 1269 2991 
Q 1406 3038 1543 3061 
Q 1681 3084 1819 3084 
Q 2600 3084 3056 2656 
Q 3513 2228 3513 1497 
Q 3513 744 3044 326 
Q 2575 -91 1722 -91 
Q 1428 -91 1123 -41 
Q 819 9 494 109 
L 494 744 
Q 775 591 1075 516 
Q 1375 441 1709 441 
Q 2250 441 2565 725 
Q 2881 1009 2881 1497 
Q 2881 1984 2565 2268 
Q 2250 2553 1709 2553 
Q 1456 2553 1204 2497 
Q 953 2441 691 2322 
L 691 4666 
z
" transform="scale(0.015625)"/>
       </defs>
       <use xlink:href="#DejaVuSans-35"/>
      </g>
     </g>
    </g>
    <g id="xtick_3">
     <g id="line2d_3">
      <g>
       <use xlink:href="#mca77d0b3d8" x="441.699233" y="304.56" style="stroke: #000000; stroke-width: 0.8"/>
      </g>
     </g>
     <g id="text_3">
      <!-- 10 -->
      <g transform="translate(435.336733 319.158437) scale(0.1 -0.1)">
       <defs>
        <path id="DejaVuSans-31" d="M 794 531 
L 1825 531 
L 1825 4091 
L 703 3866 
L 703 4441 
L 1819 4666 
L 2450 4666 
L 2450 531 
L 3481 531 
L 3481 0 
L 794 0 
L 794 531 
z
" transform="scale(0.015625)"/>
       </defs>
       <use xlink:href="#DejaVuSans-31"/>
       <use xlink:href="#DejaVuSans-30" x="63.623047"/>
      </g>
     </g>
    </g>
    <g id="xtick_4">
     <g id="line2d_4">
      <g>
       <use xlink:href="#mca77d0b3d8" x="590.54885" y="304.56" style="stroke: #000000; stroke-width: 0.8"/>
      </g>
     </g>
     <g id="text_4">
      <!-- 15 -->
      <g transform="translate(584.18635 319.158437) scale(0.1 -0.1)">
       <use xlink:href="#DejaVuSans-31"/>
       <use xlink:href="#DejaVuSans-35" x="63.623047"/>
      </g>
     </g>
    </g>
    <g id="xtick_5">
     <g id="line2d_5">
      <g>
       <use xlink:href="#mca77d0b3d8" x="739.398466" y="304.56" style="stroke: #000000; stroke-width: 0.8"/>
      </g>
     </g>
     <g id="text_5">
      <!-- 20 -->
      <g transform="translate(733.035966 319.158437) scale(0.1 -0.1)">
       <defs>
        <path id="DejaVuSans-32" d="M 1228 531 
L 3431 531 
L 3431 0 
L 469 0 
L 469 531 
Q 828 903 1448 1529 
Q 2069 2156 2228 2338 
Q 2531 2678 2651 2914 
Q 2772 3150 2772 3378 
Q 2772 3750 2511 3984 
Q 2250 4219 1831 4219 
Q 1534 4219 1204 4116 
Q 875 4013 500 3803 
L 500 4441 
Q 881 4594 1212 4672 
Q 1544 4750 1819 4750 
Q 2544 4750 2975 4387 
Q 3406 4025 3406 3419 
Q 3406 3131 3298 2873 
Q 3191 2616 2906 2266 
Q 2828 2175 2409 1742 
Q 1991 1309 1228 531 
z
" transform="scale(0.015625)"/>
       </defs>
       <use xlink:href="#DejaVuSans-32"/>
       <use xlink:href="#DejaVuSans-30" x="63.623047"/>
      </g>
     </g>
    </g>
    <g id="xtick_6">
     <g id="line2d_6">
      <g>
       <use xlink:href="#mca77d0b3d8" x="888.248083" y="304.56" style="stroke: #000000; stroke-width: 0.8"/>
      </g>
     </g>
     <g id="text_6">
      <!-- 25 -->
      <g transform="translate(881.885583 319.158437) scale(0.1 -0.1)">
       <use xlink:href="#DejaVuSans-32"/>
       <use xlink:href="#DejaVuSans-35" x="63.623047"/>
      </g>
     </g>
    </g>
   </g>
   <g id="matplotlib.axis_2">
    <g id="ytick_1">
     <g id="line2d_7">
      <defs>
       <path id="mfc28eb5c24" d="M 0 0 
L -3.5 0 
" style="stroke: #000000; stroke-width: 0.8"/>
      </defs>
      <g>
       <use xlink:href="#mfc28eb5c24" x="144" y="289.884859" style="stroke: #000000; stroke-width: 0.8"/>
      </g>
     </g>
     <g id="text_7">
      <!-- 0.5 -->
      <g transform="translate(121.096875 293.684078) scale(0.1 -0.1)">
       <defs>
        <path id="DejaVuSans-2e" d="M 684 794 
L 1344 794 
L 1344 0 
L 684 0 
L 684 794 
z
" transform="scale(0.015625)"/>
       </defs>
       <use xlink:href="#DejaVuSans-30"/>
       <use xlink:href="#DejaVuSans-2e" x="63.623047"/>
       <use xlink:href="#DejaVuSans-35" x="95.410156"/>
      </g>
     </g>
    </g>
    <g id="ytick_2">
     <g id="line2d_8">
      <g>
       <use xlink:href="#mfc28eb5c24" x="144" y="256.573726" style="stroke: #000000; stroke-width: 0.8"/>
      </g>
     </g>
     <g id="text_8">
      <!-- 1.0 -->
      <g transform="translate(121.096875 260.372945) scale(0.1 -0.1)">
       <use xlink:href="#DejaVuSans-31"/>
       <use xlink:href="#DejaVuSans-2e" x="63.623047"/>
       <use xlink:href="#DejaVuSans-30" x="95.410156"/>
      </g>
     </g>
    </g>
    <g id="ytick_3">
     <g id="line2d_9">
      <g>
       <use xlink:href="#mfc28eb5c24" x="144" y="223.262593" style="stroke: #000000; stroke-width: 0.8"/>
      </g>
     </g>
     <g id="text_9">
      <!-- 1.5 -->
      <g transform="translate(121.096875 227.061812) scale(0.1 -0.1)">
       <use xlink:href="#DejaVuSans-31"/>
       <use xlink:href="#DejaVuSans-2e" x="63.623047"/>
       <use xlink:href="#DejaVuSans-35" x="95.410156"/>
      </g>
     </g>
    </g>
    <g id="ytick_4">
     <g id="line2d_10">
      <g>
       <use xlink:href="#mfc28eb5c24" x="144" y="189.951461" style="stroke: #000000; stroke-width: 0.8"/>
      </g>
     </g>
     <g id="text_10">
      <!-- 2.0 -->
      <g transform="translate(121.096875 193.75068) scale(0.1 -0.1)">
       <use xlink:href="#DejaVuSans-32"/>
       <use xlink:href="#DejaVuSans-2e" x="63.623047"/>
       <use xlink:href="#DejaVuSans-30" x="95.410156"/>
      </g>
     </g>
    </g>
    <g id="ytick_5">
     <g id="line2d_11">
      <g>
       <use xlink:href="#mfc28eb5c24" x="144" y="156.640328" style="stroke: #000000; stroke-width: 0.8"/>
      </g>
     </g>
     <g id="text_11">
      <!-- 2.5 -->
      <g transform="translate(121.096875 160.439547) scale(0.1 -0.1)">
       <use xlink:href="#DejaVuSans-32"/>
       <use xlink:href="#DejaVuSans-2e" x="63.623047"/>
       <use xlink:href="#DejaVuSans-35" x="95.410156"/>
      </g>
     </g>
    </g>
    <g id="ytick_6">
     <g id="line2d_12">
      <g>
       <use xlink:href="#mfc28eb5c24" x="144" y="123.329195" style="stroke: #000000; stroke-width: 0.8"/>
      </g>
     </g>
     <g id="text_12">
      <!-- 3.0 -->
      <g transform="translate(121.096875 127.128414) scale(0.1 -0.1)">
       <defs>
        <path id="DejaVuSans-33" d="M 2597 2516 
Q 3050 2419 3304 2112 
Q 3559 1806 3559 1356 
Q 3559 666 3084 287 
Q 2609 -91 1734 -91 
Q 1441 -91 1130 -33 
Q 819 25 488 141 
L 488 750 
Q 750 597 1062 519 
Q 1375 441 1716 441 
Q 2309 441 2620 675 
Q 2931 909 2931 1356 
Q 2931 1769 2642 2001 
Q 2353 2234 1838 2234 
L 1294 2234 
L 1294 2753 
L 1863 2753 
Q 2328 2753 2575 2939 
Q 2822 3125 2822 3475 
Q 2822 3834 2567 4026 
Q 2313 4219 1838 4219 
Q 1578 4219 1281 4162 
Q 984 4106 628 3988 
L 628 4550 
Q 988 4650 1302 4700 
Q 1616 4750 1894 4750 
Q 2613 4750 3031 4423 
Q 3450 4097 3450 3541 
Q 3450 3153 3228 2886 
Q 3006 2619 2597 2516 
z
" transform="scale(0.015625)"/>
       </defs>
       <use xlink:href="#DejaVuSans-33"/>
       <use xlink:href="#DejaVuSans-2e" x="63.623047"/>
       <use xlink:href="#DejaVuSans-30" x="95.410156"/>
      </g>
     </g>
    </g>
    <g id="ytick_7">
     <g id="line2d_13">
      <g>
       <use xlink:href="#mfc28eb5c24" x="144" y="90.018063" style="stroke: #000000; stroke-width: 0.8"/>
      </g>
     </g>
     <g id="text_13">
      <!-- 3.5 -->
      <g transform="translate(121.096875 93.817282) scale(0.1 -0.1)">
       <use xlink:href="#DejaVuSans-33"/>
       <use xlink:href="#DejaVuSans-2e" x="63.623047"/>
       <use xlink:href="#DejaVuSans-35" x="95.410156"/>
      </g>
     </g>
    </g>
   </g>
   <g id="line2d_14">
    <path d="M 144 90.018063 
L 151.442481 89.897981 
L 167.518239 89.805689 
L 185.677893 89.900472 
L 199.074358 90.171265 
L 209.791531 90.600363 
L 219.317906 91.204543 
L 227.951184 91.985686 
L 235.691364 92.912132 
L 242.836145 93.990896 
L 249.683228 95.249324 
L 256.53031 96.740458 
L 262.781994 98.322815 
L 269.331377 100.214018 
L 275.583061 102.249211 
L 281.834745 104.504272 
L 288.384128 107.105538 
L 294.635812 109.82155 
L 301.780594 113.293353 
L 310.413871 117.695419 
L 319.642548 122.662595 
L 329.764321 128.36494 
L 344.053885 136.698295 
L 372.037613 153.044192 
L 385.136379 160.399418 
L 398.532844 167.650663 
L 412.227009 174.802001 
L 453.309503 196.093802 
L 465.812871 202.895 
L 474.743848 208.016847 
L 482.781727 212.876981 
L 489.926509 217.458319 
L 496.773591 222.110412 
L 503.322974 226.826782 
L 509.872357 231.824718 
L 516.71944 237.348592 
L 522.971124 242.670297 
L 530.711304 249.557611 
L 539.93998 258.081808 
L 552.741047 269.870041 
L 558.397332 274.760377 
L 563.16052 278.56506 
L 567.03061 281.385154 
L 570.603001 283.72854 
L 573.877693 285.614071 
L 576.854685 287.083898 
L 579.831677 288.296485 
L 582.51097 289.147227 
L 585.190263 289.777599 
L 587.869557 290.1729 
L 590.54885 290.324602 
L 593.228143 290.24732 
L 595.609737 289.9761 
L 598.28903 289.429394 
L 600.968323 288.659653 
L 603.647616 287.665694 
L 606.624608 286.313372 
L 609.601601 284.71422 
L 612.876292 282.685589 
L 616.448683 280.185221 
L 620.616472 276.971783 
L 625.081961 273.230982 
L 630.738246 268.170396 
L 638.776125 260.657288 
L 654.554185 245.930841 
L 661.698966 239.629359 
L 668.546049 233.897237 
L 674.500033 229.191943 
L 681.049416 224.293681 
L 687.5988 219.688043 
L 694.445882 215.143363 
L 701.888363 210.49352 
L 709.628543 205.925069 
L 719.154918 200.585573 
L 731.062888 194.20245 
L 751.901834 183.33908 
L 779.885562 168.929249 
L 792.984328 161.907102 
L 805.487696 154.955124 
L 819.47956 146.915976 
L 861.455152 122.592341 
L 870.386129 117.811472 
L 878.424008 113.760416 
L 885.56879 110.401734 
L 892.415872 107.422413 
L 899.262954 104.693555 
L 905.514638 102.432769 
L 912.064021 100.305407 
L 918.613404 98.423167 
L 924.865088 96.853653 
L 931.414471 95.432767 
L 938.261554 94.177911 
L 945.108636 93.14271 
L 952.551117 92.240619 
L 960.588996 91.495861 
L 969.519973 90.901994 
L 979.641747 90.461992 
L 991.847416 90.171121 
L 1009.411671 90.030387 
L 1036.8 90.022298 
L 1036.8 90.022298 
" clip-path="url(#pb0a7d7654c)" style="fill: none; stroke-dasharray: 5.55,2.4; stroke-dashoffset: 0; stroke: #ffa500; stroke-width: 1.5"/>
   </g>
   <g id="line2d_15">
    <path d="M 292.849617 110.433277 
L 301.780594 114.830384 
L 310.711571 119.477849 
L 319.642548 124.36549 
L 331.550517 131.171056 
L 379.182394 158.820238 
L 391.090363 165.33219 
L 402.998333 171.640394 
L 426.814271 183.868643 
L 441.699233 191.605798 
L 459.561187 201.180827 
L 468.492164 206.214566 
L 477.423141 211.517449 
L 483.377126 215.24923 
L 489.33111 219.165712 
L 495.285095 223.28474 
L 501.23908 227.624999 
L 507.193064 232.197901 
L 513.147049 237.008618 
L 519.101034 242.049827 
L 528.032011 250.008337 
L 539.93998 261.066686 
L 548.870957 269.306722 
L 554.824942 274.52268 
L 560.778926 279.298762 
L 563.755919 281.47106 
L 566.732911 283.471028 
L 569.709903 285.272593 
L 572.686896 286.847325 
L 575.663888 288.175822 
L 578.64088 289.237764 
L 581.617873 290.007787 
L 584.594865 290.497824 
L 587.571857 290.688151 
L 590.54885 290.578401 
L 593.525842 290.182622 
L 596.502834 289.470128 
L 599.479827 288.484341 
L 602.456819 287.224349 
L 605.433811 285.711587 
L 608.410804 283.961098 
L 611.387796 281.992144 
L 614.364788 279.826481 
L 620.318773 275.038031 
L 626.272758 269.778999 
L 635.203735 261.441147 
L 650.088696 247.460384 
L 656.042681 242.121458 
L 661.996666 237.007516 
L 667.95065 232.128385 
L 673.904635 227.515514 
L 679.85862 223.138248 
L 685.812604 219.002133 
L 691.766589 215.069104 
L 700.697566 209.528814 
L 709.628543 204.333717 
L 718.55952 199.388738 
L 733.444481 191.478995 
L 751.306435 182.206712 
L 775.122374 169.945476 
L 790.007336 161.976342 
L 801.915305 155.357798 
L 816.800267 146.803867 
L 855.501167 124.290884 
L 864.432144 119.426055 
L 873.363121 114.833236 
L 879.317106 111.956604 
L 885.27109 109.252134 
L 891.225075 106.730621 
L 897.17906 104.401551 
L 903.133044 102.272554 
L 909.087029 100.348131 
L 915.041014 98.626969 
L 920.994998 97.105546 
L 926.948983 95.777775 
L 932.902968 94.630663 
L 938.856952 93.652142 
L 947.787929 92.478418 
L 956.718906 91.608848 
L 965.649883 90.990742 
L 977.557853 90.472697 
L 989.465822 90.200992 
L 1007.327776 90.067603 
L 1034.120707 90.062339 
L 1034.120707 90.062339 
" clip-path="url(#pb0a7d7654c)" style="fill: none; stroke: #0000ff; stroke-opacity: 0.5; stroke-width: 1.5; stroke-linecap: square"/>
   </g>
   <g id="patch_3">
    <path d="M 144 304.56 
L 144 77.76 
" style="fill: none; stroke: #000000; stroke-width: 0.8; stroke-linejoin: miter; stroke-linecap: square"/>
   </g>
   <g id="patch_4">
    <path d="M 1036.8 304.56 
L 1036.8 77.76 
" style="fill: none; stroke: #000000; stroke-width: 0.8; stroke-linejoin: miter; stroke-linecap: square"/>
   </g>
   <g id="patch_5">
    <path d="M 144 304.56 
L 1036.8 304.56 
" style="fill: none; stroke: #000000; stroke-width: 0.8; stroke-linejoin: miter; stroke-linecap: square"/>
   </g>
   <g id="patch_6">
    <path d="M 144 77.76 
L 1036.8 77.76 
" style="fill: none; stroke: #000000; stroke-width: 0.8; stroke-linejoin: miter; stroke-linecap: square"/>
   </g>
   <g id="legend_1">
    <g id="patch_7">
     <path d="M 151 299.56 
L 256.6 299.56 
Q 258.6 299.56 258.6 297.56 
L 258.6 254.525625 
Q 258.6 252.525625 256.6 252.525625 
L 151 252.525625 
Q 149 252.525625 149 254.525625 
L 149 297.56 
Q 149 299.56 151 299.56 
z
" style="fill: #ffffff; opacity: 0.8; stroke: #cccccc; stroke-linejoin: miter"/>
    </g>
    <g id="line2d_16">
     <path d="M 153 260.624062 
L 163 260.624062 
L 173 260.624062 
" style="fill: none; stroke-dasharray: 5.55,2.4; stroke-dashoffset: 0; stroke: #ffa500; stroke-width: 1.5"/>
    </g>
    <g id="text_14">
     <!-- Real $x$ Position -->
     <g transform="translate(181 264.124062) scale(0.1 -0.1)">
      <defs>
       <path id="DejaVuSans-52" d="M 2841 2188 
Q 3044 2119 3236 1894 
Q 3428 1669 3622 1275 
L 4263 0 
L 3584 0 
L 2988 1197 
Q 2756 1666 2539 1819 
Q 2322 1972 1947 1972 
L 1259 1972 
L 1259 0 
L 628 0 
L 628 4666 
L 2053 4666 
Q 2853 4666 3247 4331 
Q 3641 3997 3641 3322 
Q 3641 2881 3436 2590 
Q 3231 2300 2841 2188 
z
M 1259 4147 
L 1259 2491 
L 2053 2491 
Q 2509 2491 2742 2702 
Q 2975 2913 2975 3322 
Q 2975 3731 2742 3939 
Q 2509 4147 2053 4147 
L 1259 4147 
z
" transform="scale(0.015625)"/>
       <path id="DejaVuSans-65" d="M 3597 1894 
L 3597 1613 
L 953 1613 
Q 991 1019 1311 708 
Q 1631 397 2203 397 
Q 2534 397 2845 478 
Q 3156 559 3463 722 
L 3463 178 
Q 3153 47 2828 -22 
Q 2503 -91 2169 -91 
Q 1331 -91 842 396 
Q 353 884 353 1716 
Q 353 2575 817 3079 
Q 1281 3584 2069 3584 
Q 2775 3584 3186 3129 
Q 3597 2675 3597 1894 
z
M 3022 2063 
Q 3016 2534 2758 2815 
Q 2500 3097 2075 3097 
Q 1594 3097 1305 2825 
Q 1016 2553 972 2059 
L 3022 2063 
z
" transform="scale(0.015625)"/>
       <path id="DejaVuSans-61" d="M 2194 1759 
Q 1497 1759 1228 1600 
Q 959 1441 959 1056 
Q 959 750 1161 570 
Q 1363 391 1709 391 
Q 2188 391 2477 730 
Q 2766 1069 2766 1631 
L 2766 1759 
L 2194 1759 
z
M 3341 1997 
L 3341 0 
L 2766 0 
L 2766 531 
Q 2569 213 2275 61 
Q 1981 -91 1556 -91 
Q 1019 -91 701 211 
Q 384 513 384 1019 
Q 384 1609 779 1909 
Q 1175 2209 1959 2209 
L 2766 2209 
L 2766 2266 
Q 2766 2663 2505 2880 
Q 2244 3097 1772 3097 
Q 1472 3097 1187 3025 
Q 903 2953 641 2809 
L 641 3341 
Q 956 3463 1253 3523 
Q 1550 3584 1831 3584 
Q 2591 3584 2966 3190 
Q 3341 2797 3341 1997 
z
" transform="scale(0.015625)"/>
       <path id="DejaVuSans-6c" d="M 603 4863 
L 1178 4863 
L 1178 0 
L 603 0 
L 603 4863 
z
" transform="scale(0.015625)"/>
       <path id="DejaVuSans-20" transform="scale(0.015625)"/>
       <path id="DejaVuSans-Oblique-78" d="M 3841 3500 
L 2234 1784 
L 3219 0 
L 2559 0 
L 1819 1388 
L 531 0 
L -166 0 
L 1556 1844 
L 641 3500 
L 1300 3500 
L 1972 2234 
L 3144 3500 
L 3841 3500 
z
" transform="scale(0.015625)"/>
       <path id="DejaVuSans-50" d="M 1259 4147 
L 1259 2394 
L 2053 2394 
Q 2494 2394 2734 2622 
Q 2975 2850 2975 3272 
Q 2975 3691 2734 3919 
Q 2494 4147 2053 4147 
L 1259 4147 
z
M 628 4666 
L 2053 4666 
Q 2838 4666 3239 4311 
Q 3641 3956 3641 3272 
Q 3641 2581 3239 2228 
Q 2838 1875 2053 1875 
L 1259 1875 
L 1259 0 
L 628 0 
L 628 4666 
z
" transform="scale(0.015625)"/>
       <path id="DejaVuSans-6f" d="M 1959 3097 
Q 1497 3097 1228 2736 
Q 959 2375 959 1747 
Q 959 1119 1226 758 
Q 1494 397 1959 397 
Q 2419 397 2687 759 
Q 2956 1122 2956 1747 
Q 2956 2369 2687 2733 
Q 2419 3097 1959 3097 
z
M 1959 3584 
Q 2709 3584 3137 3096 
Q 3566 2609 3566 1747 
Q 3566 888 3137 398 
Q 2709 -91 1959 -91 
Q 1206 -91 779 398 
Q 353 888 353 1747 
Q 353 2609 779 3096 
Q 1206 3584 1959 3584 
z
" transform="scale(0.015625)"/>
       <path id="DejaVuSans-73" d="M 2834 3397 
L 2834 2853 
Q 2591 2978 2328 3040 
Q 2066 3103 1784 3103 
Q 1356 3103 1142 2972 
Q 928 2841 928 2578 
Q 928 2378 1081 2264 
Q 1234 2150 1697 2047 
L 1894 2003 
Q 2506 1872 2764 1633 
Q 3022 1394 3022 966 
Q 3022 478 2636 193 
Q 2250 -91 1575 -91 
Q 1294 -91 989 -36 
Q 684 19 347 128 
L 347 722 
Q 666 556 975 473 
Q 1284 391 1588 391 
Q 1994 391 2212 530 
Q 2431 669 2431 922 
Q 2431 1156 2273 1281 
Q 2116 1406 1581 1522 
L 1381 1569 
Q 847 1681 609 1914 
Q 372 2147 372 2553 
Q 372 3047 722 3315 
Q 1072 3584 1716 3584 
Q 2034 3584 2315 3537 
Q 2597 3491 2834 3397 
z
" transform="scale(0.015625)"/>
       <path id="DejaVuSans-69" d="M 603 3500 
L 1178 3500 
L 1178 0 
L 603 0 
L 603 3500 
z
M 603 4863 
L 1178 4863 
L 1178 4134 
L 603 4134 
L 603 4863 
z
" transform="scale(0.015625)"/>
       <path id="DejaVuSans-74" d="M 1172 4494 
L 1172 3500 
L 2356 3500 
L 2356 3053 
L 1172 3053 
L 1172 1153 
Q 1172 725 1289 603 
Q 1406 481 1766 481 
L 2356 481 
L 2356 0 
L 1766 0 
Q 1100 0 847 248 
Q 594 497 594 1153 
L 594 3053 
L 172 3053 
L 172 3500 
L 594 3500 
L 594 4494 
L 1172 4494 
z
" transform="scale(0.015625)"/>
       <path id="DejaVuSans-6e" d="M 3513 2113 
L 3513 0 
L 2938 0 
L 2938 2094 
Q 2938 2591 2744 2837 
Q 2550 3084 2163 3084 
Q 1697 3084 1428 2787 
Q 1159 2491 1159 1978 
L 1159 0 
L 581 0 
L 581 3500 
L 1159 3500 
L 1159 2956 
Q 1366 3272 1645 3428 
Q 1925 3584 2291 3584 
Q 2894 3584 3203 3211 
Q 3513 2838 3513 2113 
z
" transform="scale(0.015625)"/>
      </defs>
      <use xlink:href="#DejaVuSans-52" transform="translate(0 0.015625)"/>
      <use xlink:href="#DejaVuSans-65" transform="translate(69.482422 0.015625)"/>
      <use xlink:href="#DejaVuSans-61" transform="translate(131.005859 0.015625)"/>
      <use xlink:href="#DejaVuSans-6c" transform="translate(192.285156 0.015625)"/>
      <use xlink:href="#DejaVuSans-20" transform="translate(220.068359 0.015625)"/>
      <use xlink:href="#DejaVuSans-Oblique-78" transform="translate(251.855469 0.015625)"/>
      <use xlink:href="#DejaVuSans-20" transform="translate(311.035156 0.015625)"/>
      <use xlink:href="#DejaVuSans-50" transform="translate(342.822266 0.015625)"/>
      <use xlink:href="#DejaVuSans-6f" transform="translate(403.125 0.015625)"/>
      <use xlink:href="#DejaVuSans-73" transform="translate(464.306641 0.015625)"/>
      <use xlink:href="#DejaVuSans-69" transform="translate(516.40625 0.015625)"/>
      <use xlink:href="#DejaVuSans-74" transform="translate(544.189453 0.015625)"/>
      <use xlink:href="#DejaVuSans-69" transform="translate(583.398438 0.015625)"/>
      <use xlink:href="#DejaVuSans-6f" transform="translate(611.181641 0.015625)"/>
      <use xlink:href="#DejaVuSans-6e" transform="translate(672.363281 0.015625)"/>
     </g>
    </g>
    <g id="line2d_17">
     <path d="M 153 275.302188 
L 163 275.302188 
L 173 275.302188 
" style="fill: none; stroke: #0000ff; stroke-opacity: 0.5; stroke-width: 1.5; stroke-linecap: square"/>
    </g>
    <g id="text_15">
     <!-- Prediction $x$ -->
     <g transform="translate(181 278.802188) scale(0.1 -0.1)">
      <defs>
       <path id="DejaVuSans-72" d="M 2631 2963 
Q 2534 3019 2420 3045 
Q 2306 3072 2169 3072 
Q 1681 3072 1420 2755 
Q 1159 2438 1159 1844 
L 1159 0 
L 581 0 
L 581 3500 
L 1159 3500 
L 1159 2956 
Q 1341 3275 1631 3429 
Q 1922 3584 2338 3584 
Q 2397 3584 2469 3576 
Q 2541 3569 2628 3553 
L 2631 2963 
z
" transform="scale(0.015625)"/>
       <path id="DejaVuSans-64" d="M 2906 2969 
L 2906 4863 
L 3481 4863 
L 3481 0 
L 2906 0 
L 2906 525 
Q 2725 213 2448 61 
Q 2172 -91 1784 -91 
Q 1150 -91 751 415 
Q 353 922 353 1747 
Q 353 2572 751 3078 
Q 1150 3584 1784 3584 
Q 2172 3584 2448 3432 
Q 2725 3281 2906 2969 
z
M 947 1747 
Q 947 1113 1208 752 
Q 1469 391 1925 391 
Q 2381 391 2643 752 
Q 2906 1113 2906 1747 
Q 2906 2381 2643 2742 
Q 2381 3103 1925 3103 
Q 1469 3103 1208 2742 
Q 947 2381 947 1747 
z
" transform="scale(0.015625)"/>
       <path id="DejaVuSans-63" d="M 3122 3366 
L 3122 2828 
Q 2878 2963 2633 3030 
Q 2388 3097 2138 3097 
Q 1578 3097 1268 2742 
Q 959 2388 959 1747 
Q 959 1106 1268 751 
Q 1578 397 2138 397 
Q 2388 397 2633 464 
Q 2878 531 3122 666 
L 3122 134 
Q 2881 22 2623 -34 
Q 2366 -91 2075 -91 
Q 1284 -91 818 406 
Q 353 903 353 1747 
Q 353 2603 823 3093 
Q 1294 3584 2113 3584 
Q 2378 3584 2631 3529 
Q 2884 3475 3122 3366 
z
" transform="scale(0.015625)"/>
      </defs>
      <use xlink:href="#DejaVuSans-50" transform="translate(0 0.015625)"/>
      <use xlink:href="#DejaVuSans-72" transform="translate(60.302734 0.015625)"/>
      <use xlink:href="#DejaVuSans-65" transform="translate(101.416016 0.015625)"/>
      <use xlink:href="#DejaVuSans-64" transform="translate(162.939453 0.015625)"/>
      <use xlink:href="#DejaVuSans-69" transform="translate(226.416016 0.015625)"/>
      <use xlink:href="#DejaVuSans-63" transform="translate(254.199219 0.015625)"/>
      <use xlink:href="#DejaVuSans-74" transform="translate(309.179688 0.015625)"/>
      <use xlink:href="#DejaVuSans-69" transform="translate(348.388672 0.015625)"/>
      <use xlink:href="#DejaVuSans-6f" transform="translate(376.171875 0.015625)"/>
      <use xlink:href="#DejaVuSans-6e" transform="translate(437.353516 0.015625)"/>
      <use xlink:href="#DejaVuSans-20" transform="translate(500.732422 0.015625)"/>
      <use xlink:href="#DejaVuSans-Oblique-78" transform="translate(532.519531 0.015625)"/>
     </g>
    </g>
    <g id="patch_8">
     <path d="M 153 293.480312 
L 173 293.480312 
L 173 286.480312 
L 153 286.480312 
z
" style="fill: #00ffff; fill-opacity: 0.5; stroke: #00ffff; stroke-opacity: 0.5; stroke-linejoin: miter"/>
    </g>
    <g id="text_16">
     <!-- Confidence -->
     <g transform="translate(181 293.480312) scale(0.1 -0.1)">
      <defs>
       <path id="DejaVuSans-43" d="M 4122 4306 
L 4122 3641 
Q 3803 3938 3442 4084 
Q 3081 4231 2675 4231 
Q 1875 4231 1450 3742 
Q 1025 3253 1025 2328 
Q 1025 1406 1450 917 
Q 1875 428 2675 428 
Q 3081 428 3442 575 
Q 3803 722 4122 1019 
L 4122 359 
Q 3791 134 3420 21 
Q 3050 -91 2638 -91 
Q 1578 -91 968 557 
Q 359 1206 359 2328 
Q 359 3453 968 4101 
Q 1578 4750 2638 4750 
Q 3056 4750 3426 4639 
Q 3797 4528 4122 4306 
z
" transform="scale(0.015625)"/>
       <path id="DejaVuSans-66" d="M 2375 4863 
L 2375 4384 
L 1825 4384 
Q 1516 4384 1395 4259 
Q 1275 4134 1275 3809 
L 1275 3500 
L 2222 3500 
L 2222 3053 
L 1275 3053 
L 1275 0 
L 697 0 
L 697 3053 
L 147 3053 
L 147 3500 
L 697 3500 
L 697 3744 
Q 697 4328 969 4595 
Q 1241 4863 1831 4863 
L 2375 4863 
z
" transform="scale(0.015625)"/>
      </defs>
      <use xlink:href="#DejaVuSans-43"/>
      <use xlink:href="#DejaVuSans-6f" x="69.824219"/>
      <use xlink:href="#DejaVuSans-6e" x="131.005859"/>
      <use xlink:href="#DejaVuSans-66" x="194.384766"/>
      <use xlink:href="#DejaVuSans-69" x="229.589844"/>
      <use xlink:href="#DejaVuSans-64" x="257.373047"/>
      <use xlink:href="#DejaVuSans-65" x="320.849609"/>
      <use xlink:href="#DejaVuSans-6e" x="382.373047"/>
      <use xlink:href="#DejaVuSans-63" x="445.751953"/>
      <use xlink:href="#DejaVuSans-65" x="500.732422"/>
     </g>
    </g>
   </g>
  </g>
  <g id="axes_2">
   <g id="patch_9">
    <path d="M 144 576.72 
L 1036.8 576.72 
L 1036.8 349.92 
L 144 349.92 
z
" style="fill: #ffffff"/>
   </g>
   <g id="matplotlib.axis_3">
    <g id="xtick_7">
     <g id="line2d_18">
      <g>
       <use xlink:href="#mca77d0b3d8" x="144" y="576.72" style="stroke: #000000; stroke-width: 0.8"/>
      </g>
     </g>
     <g id="text_17">
      <!-- 0 -->
      <g transform="translate(140.81875 591.318438) scale(0.1 -0.1)">
       <use xlink:href="#DejaVuSans-30"/>
      </g>
     </g>
    </g>
    <g id="xtick_8">
     <g id="line2d_19">
      <g>
       <use xlink:href="#mca77d0b3d8" x="292.849617" y="576.72" style="stroke: #000000; stroke-width: 0.8"/>
      </g>
     </g>
     <g id="text_18">
      <!-- 5 -->
      <g transform="translate(289.668367 591.318438) scale(0.1 -0.1)">
       <use xlink:href="#DejaVuSans-35"/>
      </g>
     </g>
    </g>
    <g id="xtick_9">
     <g id="line2d_20">
      <g>
       <use xlink:href="#mca77d0b3d8" x="441.699233" y="576.72" style="stroke: #000000; stroke-width: 0.8"/>
      </g>
     </g>
     <g id="text_19">
      <!-- 10 -->
      <g transform="translate(435.336733 591.318438) scale(0.1 -0.1)">
       <use xlink:href="#DejaVuSans-31"/>
       <use xlink:href="#DejaVuSans-30" x="63.623047"/>
      </g>
     </g>
    </g>
    <g id="xtick_10">
     <g id="line2d_21">
      <g>
       <use xlink:href="#mca77d0b3d8" x="590.54885" y="576.72" style="stroke: #000000; stroke-width: 0.8"/>
      </g>
     </g>
     <g id="text_20">
      <!-- 15 -->
      <g transform="translate(584.18635 591.318438) scale(0.1 -0.1)">
       <use xlink:href="#DejaVuSans-31"/>
       <use xlink:href="#DejaVuSans-35" x="63.623047"/>
      </g>
     </g>
    </g>
    <g id="xtick_11">
     <g id="line2d_22">
      <g>
       <use xlink:href="#mca77d0b3d8" x="739.398466" y="576.72" style="stroke: #000000; stroke-width: 0.8"/>
      </g>
     </g>
     <g id="text_21">
      <!-- 20 -->
      <g transform="translate(733.035966 591.318438) scale(0.1 -0.1)">
       <use xlink:href="#DejaVuSans-32"/>
       <use xlink:href="#DejaVuSans-30" x="63.623047"/>
      </g>
     </g>
    </g>
    <g id="xtick_12">
     <g id="line2d_23">
      <g>
       <use xlink:href="#mca77d0b3d8" x="888.248083" y="576.72" style="stroke: #000000; stroke-width: 0.8"/>
      </g>
     </g>
     <g id="text_22">
      <!-- 25 -->
      <g transform="translate(881.885583 591.318438) scale(0.1 -0.1)">
       <use xlink:href="#DejaVuSans-32"/>
       <use xlink:href="#DejaVuSans-35" x="63.623047"/>
      </g>
     </g>
    </g>
   </g>
   <g id="matplotlib.axis_4">
    <g id="ytick_8">
     <g id="line2d_24">
      <g>
       <use xlink:href="#mfc28eb5c24" x="144" y="568.398251" style="stroke: #000000; stroke-width: 0.8"/>
      </g>
     </g>
     <g id="text_23">
      <!-- −0.04 -->
      <g transform="translate(106.354687 572.19747) scale(0.1 -0.1)">
       <defs>
        <path id="DejaVuSans-2212" d="M 678 2272 
L 4684 2272 
L 4684 1741 
L 678 1741 
L 678 2272 
z
" transform="scale(0.015625)"/>
        <path id="DejaVuSans-34" d="M 2419 4116 
L 825 1625 
L 2419 1625 
L 2419 4116 
z
M 2253 4666 
L 3047 4666 
L 3047 1625 
L 3713 1625 
L 3713 1100 
L 3047 1100 
L 3047 0 
L 2419 0 
L 2419 1100 
L 313 1100 
L 313 1709 
L 2253 4666 
z
" transform="scale(0.015625)"/>
       </defs>
       <use xlink:href="#DejaVuSans-2212"/>
       <use xlink:href="#DejaVuSans-30" x="83.789062"/>
       <use xlink:href="#DejaVuSans-2e" x="147.412109"/>
       <use xlink:href="#DejaVuSans-30" x="179.199219"/>
       <use xlink:href="#DejaVuSans-34" x="242.822266"/>
      </g>
     </g>
    </g>
    <g id="ytick_9">
     <g id="line2d_25">
      <g>
       <use xlink:href="#mfc28eb5c24" x="144" y="519.316781" style="stroke: #000000; stroke-width: 0.8"/>
      </g>
     </g>
     <g id="text_24">
      <!-- −0.02 -->
      <g transform="translate(106.354687 523.115999) scale(0.1 -0.1)">
       <use xlink:href="#DejaVuSans-2212"/>
       <use xlink:href="#DejaVuSans-30" x="83.789062"/>
       <use xlink:href="#DejaVuSans-2e" x="147.412109"/>
       <use xlink:href="#DejaVuSans-30" x="179.199219"/>
       <use xlink:href="#DejaVuSans-32" x="242.822266"/>
      </g>
     </g>
    </g>
    <g id="ytick_10">
     <g id="line2d_26">
      <g>
       <use xlink:href="#mfc28eb5c24" x="144" y="470.23531" style="stroke: #000000; stroke-width: 0.8"/>
      </g>
     </g>
     <g id="text_25">
      <!-- 0.00 -->
      <g transform="translate(114.734375 474.034528) scale(0.1 -0.1)">
       <use xlink:href="#DejaVuSans-30"/>
       <use xlink:href="#DejaVuSans-2e" x="63.623047"/>
       <use xlink:href="#DejaVuSans-30" x="95.410156"/>
       <use xlink:href="#DejaVuSans-30" x="159.033203"/>
      </g>
     </g>
    </g>
    <g id="ytick_11">
     <g id="line2d_27">
      <g>
       <use xlink:href="#mfc28eb5c24" x="144" y="421.153839" style="stroke: #000000; stroke-width: 0.8"/>
      </g>
     </g>
     <g id="text_26">
      <!-- 0.02 -->
      <g transform="translate(114.734375 424.953057) scale(0.1 -0.1)">
       <use xlink:href="#DejaVuSans-30"/>
       <use xlink:href="#DejaVuSans-2e" x="63.623047"/>
       <use xlink:href="#DejaVuSans-30" x="95.410156"/>
       <use xlink:href="#DejaVuSans-32" x="159.033203"/>
      </g>
     </g>
    </g>
    <g id="ytick_12">
     <g id="line2d_28">
      <g>
       <use xlink:href="#mfc28eb5c24" x="144" y="372.072368" style="stroke: #000000; stroke-width: 0.8"/>
      </g>
     </g>
     <g id="text_27">
      <!-- 0.04 -->
      <g transform="translate(114.734375 375.871586) scale(0.1 -0.1)">
       <use xlink:href="#DejaVuSans-30"/>
       <use xlink:href="#DejaVuSans-2e" x="63.623047"/>
       <use xlink:href="#DejaVuSans-30" x="95.410156"/>
       <use xlink:href="#DejaVuSans-34" x="159.033203"/>
      </g>
     </g>
    </g>
   </g>
   <g id="line2d_29">
    <path d="M 144 417.912829 
L 173.769923 415.321911 
L 203.539847 414.73439 
L 322.61954 410.331616 
L 352.389463 409.291604 
L 441.699233 406.62192 
L 531.009003 404.742523 
L 590.54885 403.960381 
L 620.318773 403.695637 
L 679.85862 403.428467 
L 739.398466 403.472164 
L 858.478159 404.451577 
L 888.248083 404.770868 
L 918.018006 405.244583 
L 947.787929 405.589512 
L 1126.407469 408.445804 
L 1153 408.806307 
L 1153 408.806307 
" clip-path="url(#p6d9a532f14)" style="fill: none; stroke: #1f77b4; stroke-width: 1.5; stroke-linecap: square"/>
   </g>
   <g id="patch_10">
    <path d="M 144 576.72 
L 144 349.92 
" style="fill: none; stroke: #000000; stroke-width: 0.8; stroke-linejoin: miter; stroke-linecap: square"/>
   </g>
   <g id="patch_11">
    <path d="M 1036.8 576.72 
L 1036.8 349.92 
" style="fill: none; stroke: #000000; stroke-width: 0.8; stroke-linejoin: miter; stroke-linecap: square"/>
   </g>
   <g id="patch_12">
    <path d="M 144 576.72 
L 1036.8 576.72 
" style="fill: none; stroke: #000000; stroke-width: 0.8; stroke-linejoin: miter; stroke-linecap: square"/>
   </g>
   <g id="patch_13">
    <path d="M 144 349.92 
L 1036.8 349.92 
" style="fill: none; stroke: #000000; stroke-width: 0.8; stroke-linejoin: miter; stroke-linecap: square"/>
   </g>
   <g id="legend_2">
    <g id="patch_14">
     <path d="M 920.578125 372.598125 
L 1029.8 372.598125 
Q 1031.8 372.598125 1031.8 370.598125 
L 1031.8 356.92 
Q 1031.8 354.92 1029.8 354.92 
L 920.578125 354.92 
Q 918.578125 354.92 918.578125 356.92 
L 918.578125 370.598125 
Q 918.578125 372.598125 920.578125 372.598125 
z
" style="fill: #ffffff; opacity: 0.8; stroke: #cccccc; stroke-linejoin: miter"/>
    </g>
    <g id="line2d_30">
     <path d="M 922.578125 363.018437 
L 932.578125 363.018437 
L 942.578125 363.018437 
" style="fill: none; stroke: #1f77b4; stroke-width: 1.5; stroke-linecap: square"/>
    </g>
    <g id="text_28">
     <!-- Prediction Error -->
     <g transform="translate(950.578125 366.518437) scale(0.1 -0.1)">
      <defs>
       <path id="DejaVuSans-45" d="M 628 4666 
L 3578 4666 
L 3578 4134 
L 1259 4134 
L 1259 2753 
L 3481 2753 
L 3481 2222 
L 1259 2222 
L 1259 531 
L 3634 531 
L 3634 0 
L 628 0 
L 628 4666 
z
" transform="scale(0.015625)"/>
      </defs>
      <use xlink:href="#DejaVuSans-50"/>
      <use xlink:href="#DejaVuSans-72" x="58.552734"/>
      <use xlink:href="#DejaVuSans-65" x="97.416016"/>
      <use xlink:href="#DejaVuSans-64" x="158.939453"/>
      <use xlink:href="#DejaVuSans-69" x="222.416016"/>
      <use xlink:href="#DejaVuSans-63" x="250.199219"/>
      <use xlink:href="#DejaVuSans-74" x="305.179688"/>
      <use xlink:href="#DejaVuSans-69" x="344.388672"/>
      <use xlink:href="#DejaVuSans-6f" x="372.171875"/>
      <use xlink:href="#DejaVuSans-6e" x="433.353516"/>
      <use xlink:href="#DejaVuSans-20" x="496.732422"/>
      <use xlink:href="#DejaVuSans-45" x="528.519531"/>
      <use xlink:href="#DejaVuSans-72" x="591.703125"/>
      <use xlink:href="#DejaVuSans-72" x="631.066406"/>
      <use xlink:href="#DejaVuSans-6f" x="669.929688"/>
      <use xlink:href="#DejaVuSans-72" x="731.111328"/>
     </g>
    </g>
   </g>
  </g>
  <g id="text_29">
   <!-- $x$-Position Prediction -->
   <g transform="translate(514.74 22.078125) scale(0.12 -0.12)">
    <defs>
     <path id="DejaVuSans-2d" d="M 313 2009 
L 1997 2009 
L 1997 1497 
L 313 1497 
L 313 2009 
z
" transform="scale(0.015625)"/>
    </defs>
    <use xlink:href="#DejaVuSans-Oblique-78" transform="translate(0 0.015625)"/>
    <use xlink:href="#DejaVuSans-2d" transform="translate(59.179688 0.015625)"/>
    <use xlink:href="#DejaVuSans-50" transform="translate(95.263672 0.015625)"/>
    <use xlink:href="#DejaVuSans-6f" transform="translate(155.566406 0.015625)"/>
    <use xlink:href="#DejaVuSans-73" transform="translate(216.748047 0.015625)"/>
    <use xlink:href="#DejaVuSans-69" transform="translate(268.847656 0.015625)"/>
    <use xlink:href="#DejaVuSans-74" transform="translate(296.630859 0.015625)"/>
    <use xlink:href="#DejaVuSans-69" transform="translate(335.839844 0.015625)"/>
    <use xlink:href="#DejaVuSans-6f" transform="translate(363.623047 0.015625)"/>
    <use xlink:href="#DejaVuSans-6e" transform="translate(424.804688 0.015625)"/>
    <use xlink:href="#DejaVuSans-20" transform="translate(488.183594 0.015625)"/>
    <use xlink:href="#DejaVuSans-50" transform="translate(519.970703 0.015625)"/>
    <use xlink:href="#DejaVuSans-72" transform="translate(580.273438 0.015625)"/>
    <use xlink:href="#DejaVuSans-65" transform="translate(621.386719 0.015625)"/>
    <use xlink:href="#DejaVuSans-64" transform="translate(682.910156 0.015625)"/>
    <use xlink:href="#DejaVuSans-69" transform="translate(746.386719 0.015625)"/>
    <use xlink:href="#DejaVuSans-63" transform="translate(774.169922 0.015625)"/>
    <use xlink:href="#DejaVuSans-74" transform="translate(829.150391 0.015625)"/>
    <use xlink:href="#DejaVuSans-69" transform="translate(868.359375 0.015625)"/>
    <use xlink:href="#DejaVuSans-6f" transform="translate(896.142578 0.015625)"/>
    <use xlink:href="#DejaVuSans-6e" transform="translate(957.324219 0.015625)"/>
   </g>
  </g>
 </g>
 <defs>
  <clipPath id="pb0a7d7654c">
   <rect x="144" y="77.76" width="892.8" height="226.8"/>
  </clipPath>
  <clipPath id="p6d9a532f14">
   <rect x="144" y="349.92" width="892.8" height="226.8"/>
  </clipPath>
 </defs>
</svg>
