<?xml version="1.0" encoding="utf-8" standalone="no"?>
<!DOCTYPE svg PUBLIC "-//W3C//DTD SVG 1.1//EN"
  "http://www.w3.org/Graphics/SVG/1.1/DTD/svg11.dtd">
<svg xmlns:xlink="http://www.w3.org/1999/xlink" width="1152pt" height="648pt" viewBox="0 0 1152 648" xmlns="http://www.w3.org/2000/svg" version="1.1">
 <metadata>
  <rdf:RDF xmlns:dc="http://purl.org/dc/elements/1.1/" xmlns:cc="http://creativecommons.org/ns#" xmlns:rdf="http://www.w3.org/1999/02/22-rdf-syntax-ns#">
   <cc:Work>
    <dc:type rdf:resource="http://purl.org/dc/dcmitype/StillImage"/>
    <dc:date>2024-06-20T12:46:08.622430</dc:date>
    <dc:format>image/svg+xml</dc:format>
    <dc:creator>
     <cc:Agent>
      <dc:title>Matplotlib v3.9.0, https://matplotlib.org/</dc:title>
     </cc:Agent>
    </dc:creator>
   </cc:Work>
  </rdf:RDF>
 </metadata>
 <defs>
  <style type="text/css">*{stroke-linejoin: round; stroke-linecap: butt}</style>
 </defs>
 <g id="figure_1">
  <g id="patch_1">
   <path d="M 0 648 
L 1152 648 
L 1152 0 
L 0 0 
z
" style="fill: #ffffff"/>
  </g>
  <g id="axes_1">
   <g id="patch_2">
    <path d="M 144 304.56 
L 1036.8 304.56 
L 1036.8 77.76 
L 144 77.76 
z
" style="fill: #ffffff"/>
   </g>
   <g id="PolyCollection_1">
    <defs>
     <path id="m8ee7e1d15e" d="M 292.849617 -559.930909 
L 292.849617 -553.388144 
L 295.826609 -552.552241 
L 298.803601 -551.669923 
L 301.780594 -550.740976 
L 304.757586 -549.762016 
L 307.734578 -548.726175 
L 310.711571 -547.629998 
L 313.688563 -546.468299 
L 316.665555 -545.24052 
L 319.642548 -543.948206 
L 322.61954 -542.586431 
L 325.596532 -541.151884 
L 328.573525 -539.653749 
L 331.550517 -538.086769 
L 334.527509 -536.454267 
L 337.504502 -534.760789 
L 340.481494 -533.006939 
L 343.458486 -531.195307 
L 346.435478 -529.328371 
L 349.412471 -527.411636 
L 352.389463 -525.445775 
L 355.366455 -523.428354 
L 358.343448 -521.372844 
L 361.32044 -519.270341 
L 364.297432 -517.125916 
L 367.274425 -514.94599 
L 370.251417 -512.73235 
L 373.228409 -510.488896 
L 376.205402 -508.207071 
L 379.182394 -505.902255 
L 382.159386 -503.572975 
L 385.136379 -501.212393 
L 388.113371 -498.827744 
L 391.090363 -496.422778 
L 394.067356 -493.989692 
L 397.044348 -491.543433 
L 400.02134 -489.074265 
L 402.998333 -486.586345 
L 405.975325 -484.076055 
L 408.952317 -481.544261 
L 411.92931 -479.002053 
L 414.906302 -476.4305 
L 417.883294 -473.845616 
L 420.860287 -471.235061 
L 423.837279 -468.609932 
L 426.814271 -465.955636 
L 429.791264 -463.281704 
L 432.768256 -460.581707 
L 435.745248 -457.857133 
L 438.722241 -455.109089 
L 441.699233 -452.329106 
L 444.676225 -449.543746 
L 447.653218 -446.767678 
L 450.63021 -443.995081 
L 453.607202 -441.220076 
L 456.584195 -438.437436 
L 459.561187 -435.647375 
L 462.538179 -432.855972 
L 465.515172 -430.054787 
L 468.492164 -427.247254 
L 471.469156 -424.42836 
L 474.446149 -421.590756 
L 477.423141 -418.741908 
L 480.400133 -415.886861 
L 483.377126 -413.01585 
L 486.354118 -410.121313 
L 489.33111 -407.229614 
L 492.308103 -404.345795 
L 495.285095 -401.448819 
L 498.262087 -398.552331 
L 501.23908 -395.660105 
L 504.216072 -392.770466 
L 507.193064 -389.886425 
L 510.170057 -387.029978 
L 513.147049 -384.200923 
L 516.124041 -381.395728 
L 519.101034 -378.653467 
L 522.078026 -375.965821 
L 525.055018 -373.347993 
L 528.032011 -370.812428 
L 531.009003 -368.393749 
L 533.985995 -366.08472 
L 536.962988 -363.905512 
L 539.93998 -361.888865 
L 542.916972 -360.029895 
L 545.893965 -358.366635 
L 548.870957 -356.945899 
L 551.847949 -355.742639 
L 554.824942 -354.802421 
L 557.801934 -354.138138 
L 560.778926 -353.790612 
L 563.755919 -353.749091 
L 566.732911 -354.033156 
L 569.709903 -354.66124 
L 572.686896 -355.640696 
L 575.663888 -356.972413 
L 578.64088 -358.645072 
L 581.617873 -360.636812 
L 584.594865 -362.963678 
L 587.571857 -365.594633 
L 590.54885 -368.495165 
L 593.525842 -371.64687 
L 596.502834 -375.019324 
L 599.479827 -378.565948 
L 602.456819 -382.267561 
L 605.433811 -386.056781 
L 608.410804 -389.928735 
L 611.387796 -393.829983 
L 614.364788 -397.713797 
L 617.341781 -401.569194 
L 620.318773 -405.361246 
L 623.295765 -409.062285 
L 626.272758 -412.6349 
L 629.24975 -416.072296 
L 632.226742 -419.372263 
L 635.203735 -422.50704 
L 638.180727 -425.472535 
L 641.157719 -428.26912 
L 644.134712 -430.89583 
L 647.111704 -433.345061 
L 650.088696 -435.620961 
L 653.065689 -437.719996 
L 656.042681 -439.658888 
L 659.019673 -441.442028 
L 661.996666 -443.071834 
L 664.973658 -444.558992 
L 667.95065 -445.914832 
L 670.927643 -447.132018 
L 673.904635 -448.230827 
L 676.881627 -449.217992 
L 679.85862 -450.098831 
L 682.835612 -450.877998 
L 685.812604 -451.567539 
L 688.789597 -452.175609 
L 691.766589 -452.703534 
L 694.743581 -453.156751 
L 697.720574 -453.543721 
L 700.697566 -453.877064 
L 703.674558 -454.150204 
L 706.651551 -454.379224 
L 709.628543 -454.562178 
L 712.605535 -454.714134 
L 715.582528 -454.833178 
L 718.55952 -454.920119 
L 721.536512 -454.977261 
L 724.513505 -455.016592 
L 727.490497 -455.038592 
L 730.467489 -455.049901 
L 733.444481 -455.051418 
L 736.421474 -455.049184 
L 739.398466 -455.045946 
L 742.375458 -455.040503 
L 745.352451 -455.050653 
L 748.329443 -455.071444 
L 751.306435 -455.109296 
L 754.283428 -455.164964 
L 757.26042 -455.242902 
L 760.237412 -455.351227 
L 763.214405 -455.478905 
L 766.191397 -455.641519 
L 769.168389 -455.835808 
L 772.145382 -456.064754 
L 775.122374 -456.326762 
L 778.099366 -456.623404 
L 781.076359 -456.962928 
L 784.053351 -457.345789 
L 787.030343 -457.770966 
L 790.007336 -458.249544 
L 792.984328 -458.770935 
L 795.96132 -459.345751 
L 798.938313 -459.970825 
L 801.915305 -460.650639 
L 804.892297 -461.378853 
L 807.86929 -462.165891 
L 810.846282 -463.007714 
L 813.823274 -463.901465 
L 816.800267 -464.855696 
L 819.777259 -465.8632 
L 822.754251 -466.926379 
L 825.731244 -468.045924 
L 828.708236 -469.21833 
L 831.685228 -470.443542 
L 834.662221 -471.724339 
L 837.639213 -473.049575 
L 840.616205 -474.428928 
L 843.593198 -475.85511 
L 846.57019 -477.325943 
L 849.547182 -478.840442 
L 852.524175 -480.394191 
L 855.501167 -481.982211 
L 858.478159 -483.603442 
L 861.455152 -485.260565 
L 864.432144 -486.940385 
L 867.409136 -488.645614 
L 870.386129 -490.36994 
L 873.363121 -492.108013 
L 876.340113 -493.860477 
L 879.317106 -495.615691 
L 882.294098 -497.376831 
L 885.27109 -499.138412 
L 888.248083 -500.892575 
L 891.225075 -502.639944 
L 894.202067 -504.374027 
L 897.17906 -506.087776 
L 900.156052 -507.784261 
L 903.133044 -509.460798 
L 906.110037 -511.110865 
L 909.087029 -512.730653 
L 912.064021 -514.320509 
L 915.041014 -515.874266 
L 918.018006 -517.390415 
L 920.994998 -518.868255 
L 923.971991 -520.308093 
L 926.948983 -521.706268 
L 929.925975 -523.063821 
L 932.902968 -524.373349 
L 935.87996 -525.63723 
L 938.856952 -526.854686 
L 941.833945 -528.028654 
L 944.810937 -529.155968 
L 947.787929 -530.240609 
L 950.764922 -531.27446 
L 953.741914 -532.265219 
L 956.718906 -533.209891 
L 959.695899 -534.108639 
L 962.672891 -534.965262 
L 965.649883 -535.779115 
L 968.626876 -536.551619 
L 971.603868 -537.278398 
L 974.58086 -537.967689 
L 977.557853 -538.615964 
L 980.534845 -539.227601 
L 983.511837 -539.797696 
L 986.48883 -540.334141 
L 989.465822 -540.833402 
L 992.442814 -541.297532 
L 995.419807 -541.728648 
L 998.396799 -542.128197 
L 1001.373791 -542.494841 
L 1004.350784 -542.827331 
L 1007.327776 -543.130482 
L 1010.304768 -543.404976 
L 1013.281761 -543.650948 
L 1016.258753 -543.865831 
L 1019.235745 -544.052902 
L 1022.212738 -544.21364 
L 1025.18973 -544.345657 
L 1028.166722 -544.450536 
L 1031.143715 -544.52949 
L 1034.120707 -544.579679 
L 1034.120707 -548.703686 
L 1034.120707 -548.703686 
L 1031.143715 -548.734159 
L 1028.166722 -548.735083 
L 1025.18973 -548.70973 
L 1022.212738 -548.656692 
L 1019.235745 -548.574289 
L 1016.258753 -548.465181 
L 1013.281761 -548.327116 
L 1010.304768 -548.156758 
L 1007.327776 -547.957354 
L 1004.350784 -547.728709 
L 1001.373791 -547.468919 
L 998.396799 -547.173131 
L 995.419807 -546.84325 
L 992.442814 -546.480944 
L 989.465822 -546.084677 
L 986.48883 -545.651613 
L 983.511837 -545.180216 
L 980.534845 -544.673658 
L 977.557853 -544.123568 
L 974.58086 -543.536062 
L 971.603868 -542.906604 
L 968.626876 -542.237819 
L 965.649883 -541.52169 
L 962.672891 -540.76354 
L 959.695899 -539.961928 
L 956.718906 -539.116845 
L 953.741914 -538.224167 
L 950.764922 -537.284182 
L 947.787929 -536.299762 
L 944.810937 -535.262888 
L 941.833945 -534.183034 
L 938.856952 -533.055584 
L 935.87996 -531.883693 
L 932.902968 -530.663779 
L 929.925975 -529.395926 
L 926.948983 -528.078516 
L 923.971991 -526.719793 
L 920.994998 -525.318952 
L 918.018006 -523.87915 
L 915.041014 -522.399703 
L 912.064021 -520.880962 
L 909.087029 -519.324988 
L 906.110037 -517.737843 
L 903.133044 -516.11928 
L 900.156052 -514.473214 
L 897.17906 -512.806578 
L 894.202067 -511.121513 
L 891.225075 -509.414124 
L 888.248083 -507.692471 
L 885.27109 -505.962893 
L 882.294098 -504.224303 
L 879.317106 -502.485578 
L 876.340113 -500.751612 
L 873.363121 -499.019091 
L 870.386129 -497.300154 
L 867.409136 -495.593847 
L 864.432144 -493.905927 
L 861.455152 -492.242312 
L 858.478159 -490.600329 
L 855.501167 -488.993537 
L 852.524175 -487.419223 
L 849.547182 -485.878486 
L 846.57019 -484.376484 
L 843.593198 -482.917814 
L 840.616205 -481.503298 
L 837.639213 -480.135137 
L 834.662221 -478.82077 
L 831.685228 -477.550859 
L 828.708236 -476.336428 
L 825.731244 -475.174559 
L 822.754251 -474.065439 
L 819.777259 -473.012931 
L 816.800267 -472.016661 
L 813.823274 -471.073902 
L 810.846282 -470.191864 
L 807.86929 -469.361992 
L 804.892297 -468.587179 
L 801.915305 -467.872184 
L 798.938313 -467.206228 
L 795.96132 -466.595463 
L 792.984328 -466.035054 
L 790.007336 -465.528933 
L 787.030343 -465.066162 
L 784.053351 -464.656832 
L 781.076359 -464.291338 
L 778.099366 -463.969757 
L 775.122374 -463.692104 
L 772.145382 -463.451211 
L 769.168389 -463.244676 
L 766.191397 -463.072883 
L 763.214405 -462.933065 
L 760.237412 -462.82882 
L 757.26042 -462.743856 
L 754.283428 -462.687646 
L 751.306435 -462.652342 
L 748.329443 -462.633198 
L 745.352451 -462.627827 
L 742.375458 -462.629038 
L 739.398466 -462.644446 
L 736.421474 -462.660325 
L 733.444481 -462.676846 
L 730.467489 -462.691581 
L 727.490497 -462.698048 
L 724.513505 -462.694615 
L 721.536512 -462.675376 
L 718.55952 -462.640115 
L 715.582528 -462.578091 
L 712.605535 -462.484854 
L 709.628543 -462.356997 
L 706.651551 -462.196961 
L 703.674558 -461.991255 
L 700.697566 -461.742466 
L 697.720574 -461.43311 
L 694.743581 -461.069886 
L 691.766589 -460.640324 
L 688.789597 -460.136862 
L 685.812604 -459.553742 
L 682.835612 -458.888206 
L 679.85862 -458.133923 
L 676.881627 -457.278977 
L 673.904635 -456.316404 
L 670.927643 -455.242371 
L 667.95065 -454.052413 
L 664.973658 -452.725307 
L 661.996666 -451.266328 
L 659.019673 -449.665657 
L 656.042681 -447.912778 
L 653.065689 -446.006291 
L 650.088696 -443.942763 
L 647.111704 -441.705079 
L 644.134712 -439.296013 
L 641.157719 -436.710454 
L 638.180727 -433.956756 
L 635.203735 -431.035346 
L 632.226742 -427.944185 
L 629.24975 -424.687473 
L 626.272758 -421.294359 
L 623.295765 -417.761787 
L 620.318773 -414.09559 
L 617.341781 -410.334355 
L 614.364788 -406.508485 
L 611.387796 -402.649686 
L 608.410804 -398.766487 
L 605.433811 -394.909474 
L 602.456819 -391.13041 
L 599.479827 -387.430154 
L 596.502834 -383.884083 
L 593.525842 -380.509022 
L 590.54885 -377.349816 
L 587.571857 -374.436902 
L 584.594865 -371.787392 
L 581.617873 -369.442586 
L 578.64088 -367.422444 
L 575.663888 -365.712404 
L 572.686896 -364.341364 
L 569.709903 -363.322564 
L 566.732911 -362.653876 
L 563.755919 -362.326632 
L 560.778926 -362.320819 
L 557.801934 -362.621347 
L 554.824942 -363.2387 
L 551.847949 -364.130964 
L 548.870957 -365.285223 
L 545.893965 -366.657908 
L 542.916972 -368.274402 
L 539.93998 -370.086573 
L 536.962988 -372.057133 
L 533.985995 -374.190637 
L 531.009003 -376.455844 
L 528.032011 -378.832952 
L 525.055018 -381.328172 
L 522.078026 -383.907232 
L 519.101034 -386.558583 
L 516.124041 -389.266027 
L 513.147049 -392.037233 
L 510.170057 -394.835286 
L 507.193064 -397.662138 
L 504.216072 -400.51751 
L 501.23908 -403.381359 
L 498.262087 -406.250229 
L 495.285095 -409.124806 
L 492.308103 -412.002842 
L 489.33111 -414.869751 
L 486.354118 -417.743693 
L 483.377126 -420.6219 
L 480.400133 -423.480338 
L 477.423141 -426.324752 
L 474.446149 -429.163335 
L 471.469156 -431.993293 
L 468.492164 -434.806252 
L 465.515172 -437.609008 
L 462.538179 -440.405569 
L 459.561187 -443.191588 
L 456.584195 -445.975097 
L 453.607202 -448.75077 
L 450.63021 -451.517766 
L 447.653218 -454.27957 
L 444.676225 -457.038989 
L 441.699233 -459.804769 
L 438.722241 -462.565909 
L 435.745248 -465.296848 
L 432.768256 -468.005188 
L 429.791264 -470.689944 
L 426.814271 -473.349405 
L 423.837279 -475.990965 
L 420.860287 -478.604255 
L 417.883294 -481.203537 
L 414.906302 -483.777646 
L 411.92931 -486.339367 
L 408.952317 -488.872669 
L 405.975325 -491.394697 
L 402.998333 -493.896141 
L 400.02134 -496.375526 
L 397.044348 -498.836699 
L 394.067356 -501.274399 
L 391.090363 -503.698498 
L 388.113371 -506.094606 
L 385.136379 -508.469764 
L 382.159386 -510.820813 
L 379.182394 -513.140652 
L 376.205402 -515.434715 
L 373.228409 -517.705155 
L 370.251417 -519.937414 
L 367.274425 -522.139183 
L 364.297432 -524.306789 
L 361.32044 -526.43865 
L 358.343448 -528.529029 
L 355.366455 -530.572632 
L 352.389463 -532.578334 
L 349.412471 -534.533449 
L 346.435478 -536.440378 
L 343.458486 -538.298532 
L 340.481494 -540.102533 
L 337.504502 -541.850042 
L 334.527509 -543.538342 
L 331.550517 -545.166194 
L 328.573525 -546.728559 
L 325.596532 -548.221499 
L 322.61954 -549.649185 
L 319.642548 -551.001136 
L 316.665555 -552.279569 
L 313.688563 -553.487734 
L 310.711571 -554.621385 
L 307.734578 -555.677855 
L 304.757586 -556.658829 
L 301.780594 -557.564205 
L 298.803601 -558.398702 
L 295.826609 -559.169592 
L 292.849617 -559.930909 
z
" style="stroke: #00ffff; stroke-opacity: 0.5"/>
    </defs>
    <g clip-path="url(#p074dc80204)">
     <use xlink:href="#m8ee7e1d15e" x="0" y="648" style="fill: #00ffff; fill-opacity: 0.5; stroke: #00ffff; stroke-opacity: 0.5"/>
    </g>
   </g>
   <g id="matplotlib.axis_1">
    <g id="xtick_1">
     <g id="line2d_1">
      <defs>
       <path id="m74d0c7915e" d="M 0 0 
L 0 3.5 
" style="stroke: #000000; stroke-width: 0.8"/>
      </defs>
      <g>
       <use xlink:href="#m74d0c7915e" x="144" y="304.56" style="stroke: #000000; stroke-width: 0.8"/>
      </g>
     </g>
     <g id="text_1">
      <!-- 0 -->
      <g transform="translate(140.81875 319.158437) scale(0.1 -0.1)">
       <defs>
        <path id="DejaVuSans-30" d="M 2034 4250 
Q 1547 4250 1301 3770 
Q 1056 3291 1056 2328 
Q 1056 1369 1301 889 
Q 1547 409 2034 409 
Q 2525 409 2770 889 
Q 3016 1369 3016 2328 
Q 3016 3291 2770 3770 
Q 2525 4250 2034 4250 
z
M 2034 4750 
Q 2819 4750 3233 4129 
Q 3647 3509 3647 2328 
Q 3647 1150 3233 529 
Q 2819 -91 2034 -91 
Q 1250 -91 836 529 
Q 422 1150 422 2328 
Q 422 3509 836 4129 
Q 1250 4750 2034 4750 
z
" transform="scale(0.015625)"/>
       </defs>
       <use xlink:href="#DejaVuSans-30"/>
      </g>
     </g>
    </g>
    <g id="xtick_2">
     <g id="line2d_2">
      <g>
       <use xlink:href="#m74d0c7915e" x="292.849617" y="304.56" style="stroke: #000000; stroke-width: 0.8"/>
      </g>
     </g>
     <g id="text_2">
      <!-- 5 -->
      <g transform="translate(289.668367 319.158437) scale(0.1 -0.1)">
       <defs>
        <path id="DejaVuSans-35" d="M 691 4666 
L 3169 4666 
L 3169 4134 
L 1269 4134 
L 1269 2991 
Q 1406 3038 1543 3061 
Q 1681 3084 1819 3084 
Q 2600 3084 3056 2656 
Q 3513 2228 3513 1497 
Q 3513 744 3044 326 
Q 2575 -91 1722 -91 
Q 1428 -91 1123 -41 
Q 819 9 494 109 
L 494 744 
Q 775 591 1075 516 
Q 1375 441 1709 441 
Q 2250 441 2565 725 
Q 2881 1009 2881 1497 
Q 2881 1984 2565 2268 
Q 2250 2553 1709 2553 
Q 1456 2553 1204 2497 
Q 953 2441 691 2322 
L 691 4666 
z
" transform="scale(0.015625)"/>
       </defs>
       <use xlink:href="#DejaVuSans-35"/>
      </g>
     </g>
    </g>
    <g id="xtick_3">
     <g id="line2d_3">
      <g>
       <use xlink:href="#m74d0c7915e" x="441.699233" y="304.56" style="stroke: #000000; stroke-width: 0.8"/>
      </g>
     </g>
     <g id="text_3">
      <!-- 10 -->
      <g transform="translate(435.336733 319.158437) scale(0.1 -0.1)">
       <defs>
        <path id="DejaVuSans-31" d="M 794 531 
L 1825 531 
L 1825 4091 
L 703 3866 
L 703 4441 
L 1819 4666 
L 2450 4666 
L 2450 531 
L 3481 531 
L 3481 0 
L 794 0 
L 794 531 
z
" transform="scale(0.015625)"/>
       </defs>
       <use xlink:href="#DejaVuSans-31"/>
       <use xlink:href="#DejaVuSans-30" x="63.623047"/>
      </g>
     </g>
    </g>
    <g id="xtick_4">
     <g id="line2d_4">
      <g>
       <use xlink:href="#m74d0c7915e" x="590.54885" y="304.56" style="stroke: #000000; stroke-width: 0.8"/>
      </g>
     </g>
     <g id="text_4">
      <!-- 15 -->
      <g transform="translate(584.18635 319.158437) scale(0.1 -0.1)">
       <use xlink:href="#DejaVuSans-31"/>
       <use xlink:href="#DejaVuSans-35" x="63.623047"/>
      </g>
     </g>
    </g>
    <g id="xtick_5">
     <g id="line2d_5">
      <g>
       <use xlink:href="#m74d0c7915e" x="739.398466" y="304.56" style="stroke: #000000; stroke-width: 0.8"/>
      </g>
     </g>
     <g id="text_5">
      <!-- 20 -->
      <g transform="translate(733.035966 319.158437) scale(0.1 -0.1)">
       <defs>
        <path id="DejaVuSans-32" d="M 1228 531 
L 3431 531 
L 3431 0 
L 469 0 
L 469 531 
Q 828 903 1448 1529 
Q 2069 2156 2228 2338 
Q 2531 2678 2651 2914 
Q 2772 3150 2772 3378 
Q 2772 3750 2511 3984 
Q 2250 4219 1831 4219 
Q 1534 4219 1204 4116 
Q 875 4013 500 3803 
L 500 4441 
Q 881 4594 1212 4672 
Q 1544 4750 1819 4750 
Q 2544 4750 2975 4387 
Q 3406 4025 3406 3419 
Q 3406 3131 3298 2873 
Q 3191 2616 2906 2266 
Q 2828 2175 2409 1742 
Q 1991 1309 1228 531 
z
" transform="scale(0.015625)"/>
       </defs>
       <use xlink:href="#DejaVuSans-32"/>
       <use xlink:href="#DejaVuSans-30" x="63.623047"/>
      </g>
     </g>
    </g>
    <g id="xtick_6">
     <g id="line2d_6">
      <g>
       <use xlink:href="#m74d0c7915e" x="888.248083" y="304.56" style="stroke: #000000; stroke-width: 0.8"/>
      </g>
     </g>
     <g id="text_6">
      <!-- 25 -->
      <g transform="translate(881.885583 319.158437) scale(0.1 -0.1)">
       <use xlink:href="#DejaVuSans-32"/>
       <use xlink:href="#DejaVuSans-35" x="63.623047"/>
      </g>
     </g>
    </g>
   </g>
   <g id="matplotlib.axis_2">
    <g id="ytick_1">
     <g id="line2d_7">
      <defs>
       <path id="m1067f7446f" d="M 0 0 
L -3.5 0 
" style="stroke: #000000; stroke-width: 0.8"/>
      </defs>
      <g>
       <use xlink:href="#m1067f7446f" x="144" y="271.789704" style="stroke: #000000; stroke-width: 0.8"/>
      </g>
     </g>
     <g id="text_7">
      <!-- 1.0 -->
      <g transform="translate(121.096875 275.588923) scale(0.1 -0.1)">
       <defs>
        <path id="DejaVuSans-2e" d="M 684 794 
L 1344 794 
L 1344 0 
L 684 0 
L 684 794 
z
" transform="scale(0.015625)"/>
       </defs>
       <use xlink:href="#DejaVuSans-31"/>
       <use xlink:href="#DejaVuSans-2e" x="63.623047"/>
       <use xlink:href="#DejaVuSans-30" x="95.410156"/>
      </g>
     </g>
    </g>
    <g id="ytick_2">
     <g id="line2d_8">
      <g>
       <use xlink:href="#m1067f7446f" x="144" y="230.434204" style="stroke: #000000; stroke-width: 0.8"/>
      </g>
     </g>
     <g id="text_8">
      <!-- 1.5 -->
      <g transform="translate(121.096875 234.233423) scale(0.1 -0.1)">
       <use xlink:href="#DejaVuSans-31"/>
       <use xlink:href="#DejaVuSans-2e" x="63.623047"/>
       <use xlink:href="#DejaVuSans-35" x="95.410156"/>
      </g>
     </g>
    </g>
    <g id="ytick_3">
     <g id="line2d_9">
      <g>
       <use xlink:href="#m1067f7446f" x="144" y="189.078704" style="stroke: #000000; stroke-width: 0.8"/>
      </g>
     </g>
     <g id="text_9">
      <!-- 2.0 -->
      <g transform="translate(121.096875 192.877923) scale(0.1 -0.1)">
       <use xlink:href="#DejaVuSans-32"/>
       <use xlink:href="#DejaVuSans-2e" x="63.623047"/>
       <use xlink:href="#DejaVuSans-30" x="95.410156"/>
      </g>
     </g>
    </g>
    <g id="ytick_4">
     <g id="line2d_10">
      <g>
       <use xlink:href="#m1067f7446f" x="144" y="147.723204" style="stroke: #000000; stroke-width: 0.8"/>
      </g>
     </g>
     <g id="text_10">
      <!-- 2.5 -->
      <g transform="translate(121.096875 151.522423) scale(0.1 -0.1)">
       <use xlink:href="#DejaVuSans-32"/>
       <use xlink:href="#DejaVuSans-2e" x="63.623047"/>
       <use xlink:href="#DejaVuSans-35" x="95.410156"/>
      </g>
     </g>
    </g>
    <g id="ytick_5">
     <g id="line2d_11">
      <g>
       <use xlink:href="#m1067f7446f" x="144" y="106.367704" style="stroke: #000000; stroke-width: 0.8"/>
      </g>
     </g>
     <g id="text_11">
      <!-- 3.0 -->
      <g transform="translate(121.096875 110.166923) scale(0.1 -0.1)">
       <defs>
        <path id="DejaVuSans-33" d="M 2597 2516 
Q 3050 2419 3304 2112 
Q 3559 1806 3559 1356 
Q 3559 666 3084 287 
Q 2609 -91 1734 -91 
Q 1441 -91 1130 -33 
Q 819 25 488 141 
L 488 750 
Q 750 597 1062 519 
Q 1375 441 1716 441 
Q 2309 441 2620 675 
Q 2931 909 2931 1356 
Q 2931 1769 2642 2001 
Q 2353 2234 1838 2234 
L 1294 2234 
L 1294 2753 
L 1863 2753 
Q 2328 2753 2575 2939 
Q 2822 3125 2822 3475 
Q 2822 3834 2567 4026 
Q 2313 4219 1838 4219 
Q 1578 4219 1281 4162 
Q 984 4106 628 3988 
L 628 4550 
Q 988 4650 1302 4700 
Q 1616 4750 1894 4750 
Q 2613 4750 3031 4423 
Q 3450 4097 3450 3541 
Q 3450 3153 3228 2886 
Q 3006 2619 2597 2516 
z
" transform="scale(0.015625)"/>
       </defs>
       <use xlink:href="#DejaVuSans-33"/>
       <use xlink:href="#DejaVuSans-2e" x="63.623047"/>
       <use xlink:href="#DejaVuSans-30" x="95.410156"/>
      </g>
     </g>
    </g>
   </g>
   <g id="line2d_12">
    <path d="M 144 101.35044 
L 147.274692 101.237474 
L 173.769923 99.521127 
L 182.9986 98.580556 
L 193.715772 97.252351 
L 206.21914 95.457735 
L 241.04995 90.297321 
L 249.385529 89.378331 
L 256.828009 88.778912 
L 263.079693 88.481491 
L 269.331377 88.404482 
L 274.987663 88.553525 
L 280.643948 88.922187 
L 286.002534 89.501659 
L 291.36112 90.309167 
L 294.933511 91.022998 
L 300.589797 92.538281 
L 306.543781 94.314071 
L 312.200067 96.236353 
L 317.856352 98.40849 
L 323.214938 100.695472 
L 328.871224 103.363496 
L 334.527509 106.277666 
L 340.481494 109.596982 
L 346.733178 113.337294 
L 353.58026 117.701334 
L 360.725042 122.527353 
L 368.167523 127.822741 
L 376.8008 134.244217 
L 386.624875 141.85812 
L 397.044348 150.238841 
L 407.761521 159.125475 
L 419.967189 169.551575 
L 431.577459 179.784956 
L 441.996932 189.269944 
L 469.087563 214.513822 
L 484.270223 228.931584 
L 519.696432 262.876571 
L 526.841214 269.269336 
L 531.902101 273.514675 
L 536.665288 277.227439 
L 540.833078 280.202439 
L 544.703168 282.702458 
L 547.977859 284.564479 
L 551.252551 286.158226 
L 554.229543 287.379733 
L 557.206536 288.343839 
L 559.885829 288.975712 
L 562.565122 289.3578 
L 565.244415 289.501864 
L 567.626009 289.419014 
L 570.007603 289.120568 
L 572.389196 288.603778 
L 574.77079 287.862032 
L 577.152384 286.895397 
L 579.831677 285.546272 
L 582.51097 283.942862 
L 585.190263 282.069826 
L 588.167256 279.679452 
L 591.144248 277.003817 
L 594.41894 273.750532 
L 597.99133 269.874127 
L 601.86142 265.352616 
L 607.220007 258.698435 
L 616.150984 247.135089 
L 624.188863 236.873533 
L 629.24975 230.782726 
L 634.012938 225.39122 
L 638.180727 220.997289 
L 642.348516 216.931329 
L 646.218606 213.44777 
L 650.088696 210.261811 
L 653.958786 207.373819 
L 657.828876 204.764024 
L 661.698966 202.421507 
L 665.569056 200.334555 
L 669.439146 198.479058 
L 673.606936 196.743005 
L 677.774725 195.239015 
L 681.942514 193.952547 
L 686.705702 192.725066 
L 691.46889 191.719628 
L 696.529777 190.878657 
L 702.186062 190.166049 
L 708.140047 189.640241 
L 715.582528 189.225549 
L 723.322708 189.017826 
L 734.337579 188.957277 
L 757.558119 188.897649 
L 766.489096 188.606286 
L 774.229276 188.13656 
L 781.671757 187.469042 
L 788.816539 186.583394 
L 795.365922 185.535802 
L 801.617606 184.308264 
L 807.86929 182.851 
L 814.120974 181.152407 
L 820.074958 179.303893 
L 826.028943 177.234301 
L 832.280627 174.826797 
L 838.83001 172.05561 
L 845.379393 169.037772 
L 852.226475 165.646172 
L 860.264355 161.4073 
L 869.493031 156.255078 
L 882.889496 148.470392 
L 900.453751 138.264716 
L 910.277826 132.814814 
L 918.315705 128.600167 
L 926.055885 124.798408 
L 933.200667 121.531027 
L 940.047749 118.652097 
L 946.894832 116.012261 
L 953.444215 113.716559 
L 959.993598 111.646788 
L 966.84068 109.715676 
L 973.687763 108.014407 
L 980.832544 106.471135 
L 987.977326 105.157272 
L 995.419807 104.014916 
L 1003.159987 103.050667 
L 1011.197866 102.286929 
L 1019.235745 101.740892 
L 1027.571324 101.39434 
L 1036.204602 101.263996 
L 1036.8 101.263683 
L 1036.8 101.263683 
" clip-path="url(#p074dc80204)" style="fill: none; stroke-dasharray: 5.55,2.4; stroke-dashoffset: 0; stroke: #ffa500; stroke-width: 1.5"/>
   </g>
   <g id="line2d_13">
    <path d="M 292.849617 91.340473 
L 301.780594 93.84741 
L 307.734578 95.797985 
L 313.688563 98.021984 
L 319.642548 100.525329 
L 325.596532 103.313309 
L 331.550517 106.373518 
L 337.504502 109.694585 
L 343.458486 113.253081 
L 349.412471 117.027458 
L 355.366455 120.999507 
L 361.32044 125.145505 
L 370.251417 131.665118 
L 379.182394 138.478546 
L 388.113371 145.538825 
L 400.02134 155.275104 
L 411.92931 165.32929 
L 423.837279 175.699551 
L 435.745248 186.42301 
L 450.63021 200.243576 
L 471.469156 219.789174 
L 486.354118 234.067497 
L 513.147049 259.880922 
L 519.101034 265.393975 
L 525.055018 270.661917 
L 531.009003 275.575204 
L 536.962988 280.018677 
L 539.93998 282.012281 
L 542.916972 283.847851 
L 545.893965 285.487728 
L 548.870957 286.884439 
L 551.847949 288.063199 
L 554.824942 288.979439 
L 557.801934 289.620258 
L 560.778926 289.944285 
L 563.755919 289.962139 
L 566.732911 289.656484 
L 569.709903 289.008098 
L 572.686896 288.00897 
L 575.663888 286.657592 
L 578.64088 284.966242 
L 581.617873 282.960301 
L 584.594865 280.624465 
L 587.571857 277.984232 
L 590.54885 275.07751 
L 593.525842 271.922054 
L 596.502834 268.548297 
L 602.456819 261.301015 
L 608.410804 253.652389 
L 617.341781 242.048226 
L 623.295765 234.587964 
L 629.24975 227.620116 
L 632.226742 224.341776 
L 635.203735 221.228807 
L 638.180727 218.285354 
L 641.157719 215.510213 
L 644.134712 212.904079 
L 647.111704 210.47493 
L 650.088696 208.218138 
L 653.065689 206.136857 
L 656.042681 204.214167 
L 659.019673 202.446157 
L 661.996666 200.830919 
L 664.973658 199.35785 
L 667.95065 198.016378 
L 673.904635 195.726384 
L 679.85862 193.883623 
L 685.812604 192.439359 
L 691.766589 191.328071 
L 697.720574 190.511585 
L 703.674558 189.92927 
L 709.628543 189.540413 
L 718.55952 189.219883 
L 730.467489 189.129259 
L 754.283428 189.073695 
L 763.214405 188.794015 
L 772.145382 188.242018 
L 778.099366 187.703419 
L 784.053351 186.998689 
L 790.007336 186.110762 
L 795.96132 185.029393 
L 801.915305 183.738588 
L 807.86929 182.236059 
L 813.823274 180.512316 
L 819.777259 178.561934 
L 825.731244 176.389759 
L 831.685228 174.002799 
L 837.639213 171.407644 
L 843.593198 168.613538 
L 849.547182 165.640536 
L 858.478159 160.898114 
L 867.409136 155.88027 
L 882.294098 147.199433 
L 897.17906 138.552823 
L 906.110037 133.575646 
L 915.041014 128.863015 
L 923.971991 124.486057 
L 929.925975 121.770127 
L 935.87996 119.239538 
L 941.833945 116.894156 
L 947.787929 114.729814 
L 953.741914 112.755307 
L 959.695899 110.964716 
L 965.649883 109.349597 
L 971.603868 107.907499 
L 977.557853 106.630234 
L 983.511837 105.511044 
L 992.442814 104.110762 
L 1001.373791 103.01812 
L 1010.304768 102.219133 
L 1019.235745 101.686404 
L 1028.166722 101.40719 
L 1034.120707 101.358318 
L 1034.120707 101.358318 
" clip-path="url(#p074dc80204)" style="fill: none; stroke: #0000ff; stroke-opacity: 0.5; stroke-width: 1.5; stroke-linecap: square"/>
   </g>
   <g id="patch_3">
    <path d="M 144 304.56 
L 144 77.76 
" style="fill: none; stroke: #000000; stroke-width: 0.8; stroke-linejoin: miter; stroke-linecap: square"/>
   </g>
   <g id="patch_4">
    <path d="M 1036.8 304.56 
L 1036.8 77.76 
" style="fill: none; stroke: #000000; stroke-width: 0.8; stroke-linejoin: miter; stroke-linecap: square"/>
   </g>
   <g id="patch_5">
    <path d="M 144 304.56 
L 1036.8 304.56 
" style="fill: none; stroke: #000000; stroke-width: 0.8; stroke-linejoin: miter; stroke-linecap: square"/>
   </g>
   <g id="patch_6">
    <path d="M 144 77.76 
L 1036.8 77.76 
" style="fill: none; stroke: #000000; stroke-width: 0.8; stroke-linejoin: miter; stroke-linecap: square"/>
   </g>
   <g id="legend_1">
    <g id="patch_7">
     <path d="M 151 299.56 
L 256.6 299.56 
Q 258.6 299.56 258.6 297.56 
L 258.6 254.525625 
Q 258.6 252.525625 256.6 252.525625 
L 151 252.525625 
Q 149 252.525625 149 254.525625 
L 149 297.56 
Q 149 299.56 151 299.56 
z
" style="fill: #ffffff; opacity: 0.8; stroke: #cccccc; stroke-linejoin: miter"/>
    </g>
    <g id="line2d_14">
     <path d="M 153 260.624062 
L 163 260.624062 
L 173 260.624062 
" style="fill: none; stroke-dasharray: 5.55,2.4; stroke-dashoffset: 0; stroke: #ffa500; stroke-width: 1.5"/>
    </g>
    <g id="text_12">
     <!-- Real $x$ Position -->
     <g transform="translate(181 264.124062) scale(0.1 -0.1)">
      <defs>
       <path id="DejaVuSans-52" d="M 2841 2188 
Q 3044 2119 3236 1894 
Q 3428 1669 3622 1275 
L 4263 0 
L 3584 0 
L 2988 1197 
Q 2756 1666 2539 1819 
Q 2322 1972 1947 1972 
L 1259 1972 
L 1259 0 
L 628 0 
L 628 4666 
L 2053 4666 
Q 2853 4666 3247 4331 
Q 3641 3997 3641 3322 
Q 3641 2881 3436 2590 
Q 3231 2300 2841 2188 
z
M 1259 4147 
L 1259 2491 
L 2053 2491 
Q 2509 2491 2742 2702 
Q 2975 2913 2975 3322 
Q 2975 3731 2742 3939 
Q 2509 4147 2053 4147 
L 1259 4147 
z
" transform="scale(0.015625)"/>
       <path id="DejaVuSans-65" d="M 3597 1894 
L 3597 1613 
L 953 1613 
Q 991 1019 1311 708 
Q 1631 397 2203 397 
Q 2534 397 2845 478 
Q 3156 559 3463 722 
L 3463 178 
Q 3153 47 2828 -22 
Q 2503 -91 2169 -91 
Q 1331 -91 842 396 
Q 353 884 353 1716 
Q 353 2575 817 3079 
Q 1281 3584 2069 3584 
Q 2775 3584 3186 3129 
Q 3597 2675 3597 1894 
z
M 3022 2063 
Q 3016 2534 2758 2815 
Q 2500 3097 2075 3097 
Q 1594 3097 1305 2825 
Q 1016 2553 972 2059 
L 3022 2063 
z
" transform="scale(0.015625)"/>
       <path id="DejaVuSans-61" d="M 2194 1759 
Q 1497 1759 1228 1600 
Q 959 1441 959 1056 
Q 959 750 1161 570 
Q 1363 391 1709 391 
Q 2188 391 2477 730 
Q 2766 1069 2766 1631 
L 2766 1759 
L 2194 1759 
z
M 3341 1997 
L 3341 0 
L 2766 0 
L 2766 531 
Q 2569 213 2275 61 
Q 1981 -91 1556 -91 
Q 1019 -91 701 211 
Q 384 513 384 1019 
Q 384 1609 779 1909 
Q 1175 2209 1959 2209 
L 2766 2209 
L 2766 2266 
Q 2766 2663 2505 2880 
Q 2244 3097 1772 3097 
Q 1472 3097 1187 3025 
Q 903 2953 641 2809 
L 641 3341 
Q 956 3463 1253 3523 
Q 1550 3584 1831 3584 
Q 2591 3584 2966 3190 
Q 3341 2797 3341 1997 
z
" transform="scale(0.015625)"/>
       <path id="DejaVuSans-6c" d="M 603 4863 
L 1178 4863 
L 1178 0 
L 603 0 
L 603 4863 
z
" transform="scale(0.015625)"/>
       <path id="DejaVuSans-20" transform="scale(0.015625)"/>
       <path id="DejaVuSans-Oblique-78" d="M 3841 3500 
L 2234 1784 
L 3219 0 
L 2559 0 
L 1819 1388 
L 531 0 
L -166 0 
L 1556 1844 
L 641 3500 
L 1300 3500 
L 1972 2234 
L 3144 3500 
L 3841 3500 
z
" transform="scale(0.015625)"/>
       <path id="DejaVuSans-50" d="M 1259 4147 
L 1259 2394 
L 2053 2394 
Q 2494 2394 2734 2622 
Q 2975 2850 2975 3272 
Q 2975 3691 2734 3919 
Q 2494 4147 2053 4147 
L 1259 4147 
z
M 628 4666 
L 2053 4666 
Q 2838 4666 3239 4311 
Q 3641 3956 3641 3272 
Q 3641 2581 3239 2228 
Q 2838 1875 2053 1875 
L 1259 1875 
L 1259 0 
L 628 0 
L 628 4666 
z
" transform="scale(0.015625)"/>
       <path id="DejaVuSans-6f" d="M 1959 3097 
Q 1497 3097 1228 2736 
Q 959 2375 959 1747 
Q 959 1119 1226 758 
Q 1494 397 1959 397 
Q 2419 397 2687 759 
Q 2956 1122 2956 1747 
Q 2956 2369 2687 2733 
Q 2419 3097 1959 3097 
z
M 1959 3584 
Q 2709 3584 3137 3096 
Q 3566 2609 3566 1747 
Q 3566 888 3137 398 
Q 2709 -91 1959 -91 
Q 1206 -91 779 398 
Q 353 888 353 1747 
Q 353 2609 779 3096 
Q 1206 3584 1959 3584 
z
" transform="scale(0.015625)"/>
       <path id="DejaVuSans-73" d="M 2834 3397 
L 2834 2853 
Q 2591 2978 2328 3040 
Q 2066 3103 1784 3103 
Q 1356 3103 1142 2972 
Q 928 2841 928 2578 
Q 928 2378 1081 2264 
Q 1234 2150 1697 2047 
L 1894 2003 
Q 2506 1872 2764 1633 
Q 3022 1394 3022 966 
Q 3022 478 2636 193 
Q 2250 -91 1575 -91 
Q 1294 -91 989 -36 
Q 684 19 347 128 
L 347 722 
Q 666 556 975 473 
Q 1284 391 1588 391 
Q 1994 391 2212 530 
Q 2431 669 2431 922 
Q 2431 1156 2273 1281 
Q 2116 1406 1581 1522 
L 1381 1569 
Q 847 1681 609 1914 
Q 372 2147 372 2553 
Q 372 3047 722 3315 
Q 1072 3584 1716 3584 
Q 2034 3584 2315 3537 
Q 2597 3491 2834 3397 
z
" transform="scale(0.015625)"/>
       <path id="DejaVuSans-69" d="M 603 3500 
L 1178 3500 
L 1178 0 
L 603 0 
L 603 3500 
z
M 603 4863 
L 1178 4863 
L 1178 4134 
L 603 4134 
L 603 4863 
z
" transform="scale(0.015625)"/>
       <path id="DejaVuSans-74" d="M 1172 4494 
L 1172 3500 
L 2356 3500 
L 2356 3053 
L 1172 3053 
L 1172 1153 
Q 1172 725 1289 603 
Q 1406 481 1766 481 
L 2356 481 
L 2356 0 
L 1766 0 
Q 1100 0 847 248 
Q 594 497 594 1153 
L 594 3053 
L 172 3053 
L 172 3500 
L 594 3500 
L 594 4494 
L 1172 4494 
z
" transform="scale(0.015625)"/>
       <path id="DejaVuSans-6e" d="M 3513 2113 
L 3513 0 
L 2938 0 
L 2938 2094 
Q 2938 2591 2744 2837 
Q 2550 3084 2163 3084 
Q 1697 3084 1428 2787 
Q 1159 2491 1159 1978 
L 1159 0 
L 581 0 
L 581 3500 
L 1159 3500 
L 1159 2956 
Q 1366 3272 1645 3428 
Q 1925 3584 2291 3584 
Q 2894 3584 3203 3211 
Q 3513 2838 3513 2113 
z
" transform="scale(0.015625)"/>
      </defs>
      <use xlink:href="#DejaVuSans-52" transform="translate(0 0.015625)"/>
      <use xlink:href="#DejaVuSans-65" transform="translate(69.482422 0.015625)"/>
      <use xlink:href="#DejaVuSans-61" transform="translate(131.005859 0.015625)"/>
      <use xlink:href="#DejaVuSans-6c" transform="translate(192.285156 0.015625)"/>
      <use xlink:href="#DejaVuSans-20" transform="translate(220.068359 0.015625)"/>
      <use xlink:href="#DejaVuSans-Oblique-78" transform="translate(251.855469 0.015625)"/>
      <use xlink:href="#DejaVuSans-20" transform="translate(311.035156 0.015625)"/>
      <use xlink:href="#DejaVuSans-50" transform="translate(342.822266 0.015625)"/>
      <use xlink:href="#DejaVuSans-6f" transform="translate(403.125 0.015625)"/>
      <use xlink:href="#DejaVuSans-73" transform="translate(464.306641 0.015625)"/>
      <use xlink:href="#DejaVuSans-69" transform="translate(516.40625 0.015625)"/>
      <use xlink:href="#DejaVuSans-74" transform="translate(544.189453 0.015625)"/>
      <use xlink:href="#DejaVuSans-69" transform="translate(583.398438 0.015625)"/>
      <use xlink:href="#DejaVuSans-6f" transform="translate(611.181641 0.015625)"/>
      <use xlink:href="#DejaVuSans-6e" transform="translate(672.363281 0.015625)"/>
     </g>
    </g>
    <g id="line2d_15">
     <path d="M 153 275.302188 
L 163 275.302188 
L 173 275.302188 
" style="fill: none; stroke: #0000ff; stroke-opacity: 0.5; stroke-width: 1.5; stroke-linecap: square"/>
    </g>
    <g id="text_13">
     <!-- Prediction $x$ -->
     <g transform="translate(181 278.802188) scale(0.1 -0.1)">
      <defs>
       <path id="DejaVuSans-72" d="M 2631 2963 
Q 2534 3019 2420 3045 
Q 2306 3072 2169 3072 
Q 1681 3072 1420 2755 
Q 1159 2438 1159 1844 
L 1159 0 
L 581 0 
L 581 3500 
L 1159 3500 
L 1159 2956 
Q 1341 3275 1631 3429 
Q 1922 3584 2338 3584 
Q 2397 3584 2469 3576 
Q 2541 3569 2628 3553 
L 2631 2963 
z
" transform="scale(0.015625)"/>
       <path id="DejaVuSans-64" d="M 2906 2969 
L 2906 4863 
L 3481 4863 
L 3481 0 
L 2906 0 
L 2906 525 
Q 2725 213 2448 61 
Q 2172 -91 1784 -91 
Q 1150 -91 751 415 
Q 353 922 353 1747 
Q 353 2572 751 3078 
Q 1150 3584 1784 3584 
Q 2172 3584 2448 3432 
Q 2725 3281 2906 2969 
z
M 947 1747 
Q 947 1113 1208 752 
Q 1469 391 1925 391 
Q 2381 391 2643 752 
Q 2906 1113 2906 1747 
Q 2906 2381 2643 2742 
Q 2381 3103 1925 3103 
Q 1469 3103 1208 2742 
Q 947 2381 947 1747 
z
" transform="scale(0.015625)"/>
       <path id="DejaVuSans-63" d="M 3122 3366 
L 3122 2828 
Q 2878 2963 2633 3030 
Q 2388 3097 2138 3097 
Q 1578 3097 1268 2742 
Q 959 2388 959 1747 
Q 959 1106 1268 751 
Q 1578 397 2138 397 
Q 2388 397 2633 464 
Q 2878 531 3122 666 
L 3122 134 
Q 2881 22 2623 -34 
Q 2366 -91 2075 -91 
Q 1284 -91 818 406 
Q 353 903 353 1747 
Q 353 2603 823 3093 
Q 1294 3584 2113 3584 
Q 2378 3584 2631 3529 
Q 2884 3475 3122 3366 
z
" transform="scale(0.015625)"/>
      </defs>
      <use xlink:href="#DejaVuSans-50" transform="translate(0 0.015625)"/>
      <use xlink:href="#DejaVuSans-72" transform="translate(60.302734 0.015625)"/>
      <use xlink:href="#DejaVuSans-65" transform="translate(101.416016 0.015625)"/>
      <use xlink:href="#DejaVuSans-64" transform="translate(162.939453 0.015625)"/>
      <use xlink:href="#DejaVuSans-69" transform="translate(226.416016 0.015625)"/>
      <use xlink:href="#DejaVuSans-63" transform="translate(254.199219 0.015625)"/>
      <use xlink:href="#DejaVuSans-74" transform="translate(309.179688 0.015625)"/>
      <use xlink:href="#DejaVuSans-69" transform="translate(348.388672 0.015625)"/>
      <use xlink:href="#DejaVuSans-6f" transform="translate(376.171875 0.015625)"/>
      <use xlink:href="#DejaVuSans-6e" transform="translate(437.353516 0.015625)"/>
      <use xlink:href="#DejaVuSans-20" transform="translate(500.732422 0.015625)"/>
      <use xlink:href="#DejaVuSans-Oblique-78" transform="translate(532.519531 0.015625)"/>
     </g>
    </g>
    <g id="patch_8">
     <path d="M 153 293.480312 
L 173 293.480312 
L 173 286.480312 
L 153 286.480312 
z
" style="fill: #00ffff; fill-opacity: 0.5; stroke: #00ffff; stroke-opacity: 0.5; stroke-linejoin: miter"/>
    </g>
    <g id="text_14">
     <!-- Confidence -->
     <g transform="translate(181 293.480312) scale(0.1 -0.1)">
      <defs>
       <path id="DejaVuSans-43" d="M 4122 4306 
L 4122 3641 
Q 3803 3938 3442 4084 
Q 3081 4231 2675 4231 
Q 1875 4231 1450 3742 
Q 1025 3253 1025 2328 
Q 1025 1406 1450 917 
Q 1875 428 2675 428 
Q 3081 428 3442 575 
Q 3803 722 4122 1019 
L 4122 359 
Q 3791 134 3420 21 
Q 3050 -91 2638 -91 
Q 1578 -91 968 557 
Q 359 1206 359 2328 
Q 359 3453 968 4101 
Q 1578 4750 2638 4750 
Q 3056 4750 3426 4639 
Q 3797 4528 4122 4306 
z
" transform="scale(0.015625)"/>
       <path id="DejaVuSans-66" d="M 2375 4863 
L 2375 4384 
L 1825 4384 
Q 1516 4384 1395 4259 
Q 1275 4134 1275 3809 
L 1275 3500 
L 2222 3500 
L 2222 3053 
L 1275 3053 
L 1275 0 
L 697 0 
L 697 3053 
L 147 3053 
L 147 3500 
L 697 3500 
L 697 3744 
Q 697 4328 969 4595 
Q 1241 4863 1831 4863 
L 2375 4863 
z
" transform="scale(0.015625)"/>
      </defs>
      <use xlink:href="#DejaVuSans-43"/>
      <use xlink:href="#DejaVuSans-6f" x="69.824219"/>
      <use xlink:href="#DejaVuSans-6e" x="131.005859"/>
      <use xlink:href="#DejaVuSans-66" x="194.384766"/>
      <use xlink:href="#DejaVuSans-69" x="229.589844"/>
      <use xlink:href="#DejaVuSans-64" x="257.373047"/>
      <use xlink:href="#DejaVuSans-65" x="320.849609"/>
      <use xlink:href="#DejaVuSans-6e" x="382.373047"/>
      <use xlink:href="#DejaVuSans-63" x="445.751953"/>
      <use xlink:href="#DejaVuSans-65" x="500.732422"/>
     </g>
    </g>
   </g>
  </g>
  <g id="axes_2">
   <g id="patch_9">
    <path d="M 144 576.72 
L 1036.8 576.72 
L 1036.8 349.92 
L 144 349.92 
z
" style="fill: #ffffff"/>
   </g>
   <g id="matplotlib.axis_3">
    <g id="xtick_7">
     <g id="line2d_16">
      <g>
       <use xlink:href="#m74d0c7915e" x="144" y="576.72" style="stroke: #000000; stroke-width: 0.8"/>
      </g>
     </g>
     <g id="text_15">
      <!-- 0 -->
      <g transform="translate(140.81875 591.318438) scale(0.1 -0.1)">
       <use xlink:href="#DejaVuSans-30"/>
      </g>
     </g>
    </g>
    <g id="xtick_8">
     <g id="line2d_17">
      <g>
       <use xlink:href="#m74d0c7915e" x="292.849617" y="576.72" style="stroke: #000000; stroke-width: 0.8"/>
      </g>
     </g>
     <g id="text_16">
      <!-- 5 -->
      <g transform="translate(289.668367 591.318438) scale(0.1 -0.1)">
       <use xlink:href="#DejaVuSans-35"/>
      </g>
     </g>
    </g>
    <g id="xtick_9">
     <g id="line2d_18">
      <g>
       <use xlink:href="#m74d0c7915e" x="441.699233" y="576.72" style="stroke: #000000; stroke-width: 0.8"/>
      </g>
     </g>
     <g id="text_17">
      <!-- 10 -->
      <g transform="translate(435.336733 591.318438) scale(0.1 -0.1)">
       <use xlink:href="#DejaVuSans-31"/>
       <use xlink:href="#DejaVuSans-30" x="63.623047"/>
      </g>
     </g>
    </g>
    <g id="xtick_10">
     <g id="line2d_19">
      <g>
       <use xlink:href="#m74d0c7915e" x="590.54885" y="576.72" style="stroke: #000000; stroke-width: 0.8"/>
      </g>
     </g>
     <g id="text_18">
      <!-- 15 -->
      <g transform="translate(584.18635 591.318438) scale(0.1 -0.1)">
       <use xlink:href="#DejaVuSans-31"/>
       <use xlink:href="#DejaVuSans-35" x="63.623047"/>
      </g>
     </g>
    </g>
    <g id="xtick_11">
     <g id="line2d_20">
      <g>
       <use xlink:href="#m74d0c7915e" x="739.398466" y="576.72" style="stroke: #000000; stroke-width: 0.8"/>
      </g>
     </g>
     <g id="text_19">
      <!-- 20 -->
      <g transform="translate(733.035966 591.318438) scale(0.1 -0.1)">
       <use xlink:href="#DejaVuSans-32"/>
       <use xlink:href="#DejaVuSans-30" x="63.623047"/>
      </g>
     </g>
    </g>
    <g id="xtick_12">
     <g id="line2d_21">
      <g>
       <use xlink:href="#m74d0c7915e" x="888.248083" y="576.72" style="stroke: #000000; stroke-width: 0.8"/>
      </g>
     </g>
     <g id="text_20">
      <!-- 25 -->
      <g transform="translate(881.885583 591.318438) scale(0.1 -0.1)">
       <use xlink:href="#DejaVuSans-32"/>
       <use xlink:href="#DejaVuSans-35" x="63.623047"/>
      </g>
     </g>
    </g>
   </g>
   <g id="matplotlib.axis_4">
    <g id="ytick_6">
     <g id="line2d_22">
      <g>
       <use xlink:href="#m1067f7446f" x="144" y="558.576178" style="stroke: #000000; stroke-width: 0.8"/>
      </g>
     </g>
     <g id="text_21">
      <!-- −0.04 -->
      <g transform="translate(106.354687 562.375397) scale(0.1 -0.1)">
       <defs>
        <path id="DejaVuSans-2212" d="M 678 2272 
L 4684 2272 
L 4684 1741 
L 678 1741 
L 678 2272 
z
" transform="scale(0.015625)"/>
        <path id="DejaVuSans-34" d="M 2419 4116 
L 825 1625 
L 2419 1625 
L 2419 4116 
z
M 2253 4666 
L 3047 4666 
L 3047 1625 
L 3713 1625 
L 3713 1100 
L 3047 1100 
L 3047 0 
L 2419 0 
L 2419 1100 
L 313 1100 
L 313 1709 
L 2253 4666 
z
" transform="scale(0.015625)"/>
       </defs>
       <use xlink:href="#DejaVuSans-2212"/>
       <use xlink:href="#DejaVuSans-30" x="83.789062"/>
       <use xlink:href="#DejaVuSans-2e" x="147.412109"/>
       <use xlink:href="#DejaVuSans-30" x="179.199219"/>
       <use xlink:href="#DejaVuSans-34" x="242.822266"/>
      </g>
     </g>
    </g>
    <g id="ytick_7">
     <g id="line2d_23">
      <g>
       <use xlink:href="#m1067f7446f" x="144" y="533.267577" style="stroke: #000000; stroke-width: 0.8"/>
      </g>
     </g>
     <g id="text_22">
      <!-- −0.03 -->
      <g transform="translate(106.354687 537.066796) scale(0.1 -0.1)">
       <use xlink:href="#DejaVuSans-2212"/>
       <use xlink:href="#DejaVuSans-30" x="83.789062"/>
       <use xlink:href="#DejaVuSans-2e" x="147.412109"/>
       <use xlink:href="#DejaVuSans-30" x="179.199219"/>
       <use xlink:href="#DejaVuSans-33" x="242.822266"/>
      </g>
     </g>
    </g>
    <g id="ytick_8">
     <g id="line2d_24">
      <g>
       <use xlink:href="#m1067f7446f" x="144" y="507.958976" style="stroke: #000000; stroke-width: 0.8"/>
      </g>
     </g>
     <g id="text_23">
      <!-- −0.02 -->
      <g transform="translate(106.354687 511.758194) scale(0.1 -0.1)">
       <use xlink:href="#DejaVuSans-2212"/>
       <use xlink:href="#DejaVuSans-30" x="83.789062"/>
       <use xlink:href="#DejaVuSans-2e" x="147.412109"/>
       <use xlink:href="#DejaVuSans-30" x="179.199219"/>
       <use xlink:href="#DejaVuSans-32" x="242.822266"/>
      </g>
     </g>
    </g>
    <g id="ytick_9">
     <g id="line2d_25">
      <g>
       <use xlink:href="#m1067f7446f" x="144" y="482.650374" style="stroke: #000000; stroke-width: 0.8"/>
      </g>
     </g>
     <g id="text_24">
      <!-- −0.01 -->
      <g transform="translate(106.354687 486.449593) scale(0.1 -0.1)">
       <use xlink:href="#DejaVuSans-2212"/>
       <use xlink:href="#DejaVuSans-30" x="83.789062"/>
       <use xlink:href="#DejaVuSans-2e" x="147.412109"/>
       <use xlink:href="#DejaVuSans-30" x="179.199219"/>
       <use xlink:href="#DejaVuSans-31" x="242.822266"/>
      </g>
     </g>
    </g>
    <g id="ytick_10">
     <g id="line2d_26">
      <g>
       <use xlink:href="#m1067f7446f" x="144" y="457.341773" style="stroke: #000000; stroke-width: 0.8"/>
      </g>
     </g>
     <g id="text_25">
      <!-- 0.00 -->
      <g transform="translate(114.734375 461.140992) scale(0.1 -0.1)">
       <use xlink:href="#DejaVuSans-30"/>
       <use xlink:href="#DejaVuSans-2e" x="63.623047"/>
       <use xlink:href="#DejaVuSans-30" x="95.410156"/>
       <use xlink:href="#DejaVuSans-30" x="159.033203"/>
      </g>
     </g>
    </g>
    <g id="ytick_11">
     <g id="line2d_27">
      <g>
       <use xlink:href="#m1067f7446f" x="144" y="432.033172" style="stroke: #000000; stroke-width: 0.8"/>
      </g>
     </g>
     <g id="text_26">
      <!-- 0.01 -->
      <g transform="translate(114.734375 435.832391) scale(0.1 -0.1)">
       <use xlink:href="#DejaVuSans-30"/>
       <use xlink:href="#DejaVuSans-2e" x="63.623047"/>
       <use xlink:href="#DejaVuSans-30" x="95.410156"/>
       <use xlink:href="#DejaVuSans-31" x="159.033203"/>
      </g>
     </g>
    </g>
    <g id="ytick_12">
     <g id="line2d_28">
      <g>
       <use xlink:href="#m1067f7446f" x="144" y="406.724571" style="stroke: #000000; stroke-width: 0.8"/>
      </g>
     </g>
     <g id="text_27">
      <!-- 0.02 -->
      <g transform="translate(114.734375 410.52379) scale(0.1 -0.1)">
       <use xlink:href="#DejaVuSans-30"/>
       <use xlink:href="#DejaVuSans-2e" x="63.623047"/>
       <use xlink:href="#DejaVuSans-30" x="95.410156"/>
       <use xlink:href="#DejaVuSans-32" x="159.033203"/>
      </g>
     </g>
    </g>
    <g id="ytick_13">
     <g id="line2d_29">
      <g>
       <use xlink:href="#m1067f7446f" x="144" y="381.41597" style="stroke: #000000; stroke-width: 0.8"/>
      </g>
     </g>
     <g id="text_28">
      <!-- 0.03 -->
      <g transform="translate(114.734375 385.215188) scale(0.1 -0.1)">
       <use xlink:href="#DejaVuSans-30"/>
       <use xlink:href="#DejaVuSans-2e" x="63.623047"/>
       <use xlink:href="#DejaVuSans-30" x="95.410156"/>
       <use xlink:href="#DejaVuSans-33" x="159.033203"/>
      </g>
     </g>
    </g>
    <g id="ytick_14">
     <g id="line2d_30">
      <g>
       <use xlink:href="#m1067f7446f" x="144" y="356.107368" style="stroke: #000000; stroke-width: 0.8"/>
      </g>
     </g>
     <g id="text_29">
      <!-- 0.04 -->
      <g transform="translate(114.734375 359.906587) scale(0.1 -0.1)">
       <use xlink:href="#DejaVuSans-30"/>
       <use xlink:href="#DejaVuSans-2e" x="63.623047"/>
       <use xlink:href="#DejaVuSans-30" x="95.410156"/>
       <use xlink:href="#DejaVuSans-34" x="159.033203"/>
      </g>
     </g>
    </g>
   </g>
   <g id="line2d_31">
    <path d="M 144 433.93531 
L 173.769923 430.19302 
L 203.539847 429.326608 
L 263.079693 425.732703 
L 322.61954 421.608453 
L 441.699233 412.897676 
L 471.469156 410.700154 
L 560.778926 404.527282 
L 620.318773 400.786516 
L 679.85862 397.303713 
L 769.168389 392.63139 
L 858.478159 388.617538 
L 947.787929 385.356263 
L 977.557853 384.285033 
L 1037.097699 382.54207 
L 1066.867623 381.617519 
L 1153 379.361032 
L 1153 379.361032 
" clip-path="url(#p12384a13ac)" style="fill: none; stroke: #1f77b4; stroke-width: 1.5; stroke-linecap: square"/>
   </g>
   <g id="patch_10">
    <path d="M 144 576.72 
L 144 349.92 
" style="fill: none; stroke: #000000; stroke-width: 0.8; stroke-linejoin: miter; stroke-linecap: square"/>
   </g>
   <g id="patch_11">
    <path d="M 1036.8 576.72 
L 1036.8 349.92 
" style="fill: none; stroke: #000000; stroke-width: 0.8; stroke-linejoin: miter; stroke-linecap: square"/>
   </g>
   <g id="patch_12">
    <path d="M 144 576.72 
L 1036.8 576.72 
" style="fill: none; stroke: #000000; stroke-width: 0.8; stroke-linejoin: miter; stroke-linecap: square"/>
   </g>
   <g id="patch_13">
    <path d="M 144 349.92 
L 1036.8 349.92 
" style="fill: none; stroke: #000000; stroke-width: 0.8; stroke-linejoin: miter; stroke-linecap: square"/>
   </g>
   <g id="legend_2">
    <g id="patch_14">
     <path d="M 920.578125 372.598125 
L 1029.8 372.598125 
Q 1031.8 372.598125 1031.8 370.598125 
L 1031.8 356.92 
Q 1031.8 354.92 1029.8 354.92 
L 920.578125 354.92 
Q 918.578125 354.92 918.578125 356.92 
L 918.578125 370.598125 
Q 918.578125 372.598125 920.578125 372.598125 
z
" style="fill: #ffffff; opacity: 0.8; stroke: #cccccc; stroke-linejoin: miter"/>
    </g>
    <g id="line2d_32">
     <path d="M 922.578125 363.018437 
L 932.578125 363.018437 
L 942.578125 363.018437 
" style="fill: none; stroke: #1f77b4; stroke-width: 1.5; stroke-linecap: square"/>
    </g>
    <g id="text_30">
     <!-- Prediction Error -->
     <g transform="translate(950.578125 366.518437) scale(0.1 -0.1)">
      <defs>
       <path id="DejaVuSans-45" d="M 628 4666 
L 3578 4666 
L 3578 4134 
L 1259 4134 
L 1259 2753 
L 3481 2753 
L 3481 2222 
L 1259 2222 
L 1259 531 
L 3634 531 
L 3634 0 
L 628 0 
L 628 4666 
z
" transform="scale(0.015625)"/>
      </defs>
      <use xlink:href="#DejaVuSans-50"/>
      <use xlink:href="#DejaVuSans-72" x="58.552734"/>
      <use xlink:href="#DejaVuSans-65" x="97.416016"/>
      <use xlink:href="#DejaVuSans-64" x="158.939453"/>
      <use xlink:href="#DejaVuSans-69" x="222.416016"/>
      <use xlink:href="#DejaVuSans-63" x="250.199219"/>
      <use xlink:href="#DejaVuSans-74" x="305.179688"/>
      <use xlink:href="#DejaVuSans-69" x="344.388672"/>
      <use xlink:href="#DejaVuSans-6f" x="372.171875"/>
      <use xlink:href="#DejaVuSans-6e" x="433.353516"/>
      <use xlink:href="#DejaVuSans-20" x="496.732422"/>
      <use xlink:href="#DejaVuSans-45" x="528.519531"/>
      <use xlink:href="#DejaVuSans-72" x="591.703125"/>
      <use xlink:href="#DejaVuSans-72" x="631.066406"/>
      <use xlink:href="#DejaVuSans-6f" x="669.929688"/>
      <use xlink:href="#DejaVuSans-72" x="731.111328"/>
     </g>
    </g>
   </g>
  </g>
  <g id="text_31">
   <!-- $x$-Position Prediction -->
   <g transform="translate(514.74 22.078125) scale(0.12 -0.12)">
    <defs>
     <path id="DejaVuSans-2d" d="M 313 2009 
L 1997 2009 
L 1997 1497 
L 313 1497 
L 313 2009 
z
" transform="scale(0.015625)"/>
    </defs>
    <use xlink:href="#DejaVuSans-Oblique-78" transform="translate(0 0.015625)"/>
    <use xlink:href="#DejaVuSans-2d" transform="translate(59.179688 0.015625)"/>
    <use xlink:href="#DejaVuSans-50" transform="translate(95.263672 0.015625)"/>
    <use xlink:href="#DejaVuSans-6f" transform="translate(155.566406 0.015625)"/>
    <use xlink:href="#DejaVuSans-73" transform="translate(216.748047 0.015625)"/>
    <use xlink:href="#DejaVuSans-69" transform="translate(268.847656 0.015625)"/>
    <use xlink:href="#DejaVuSans-74" transform="translate(296.630859 0.015625)"/>
    <use xlink:href="#DejaVuSans-69" transform="translate(335.839844 0.015625)"/>
    <use xlink:href="#DejaVuSans-6f" transform="translate(363.623047 0.015625)"/>
    <use xlink:href="#DejaVuSans-6e" transform="translate(424.804688 0.015625)"/>
    <use xlink:href="#DejaVuSans-20" transform="translate(488.183594 0.015625)"/>
    <use xlink:href="#DejaVuSans-50" transform="translate(519.970703 0.015625)"/>
    <use xlink:href="#DejaVuSans-72" transform="translate(580.273438 0.015625)"/>
    <use xlink:href="#DejaVuSans-65" transform="translate(621.386719 0.015625)"/>
    <use xlink:href="#DejaVuSans-64" transform="translate(682.910156 0.015625)"/>
    <use xlink:href="#DejaVuSans-69" transform="translate(746.386719 0.015625)"/>
    <use xlink:href="#DejaVuSans-63" transform="translate(774.169922 0.015625)"/>
    <use xlink:href="#DejaVuSans-74" transform="translate(829.150391 0.015625)"/>
    <use xlink:href="#DejaVuSans-69" transform="translate(868.359375 0.015625)"/>
    <use xlink:href="#DejaVuSans-6f" transform="translate(896.142578 0.015625)"/>
    <use xlink:href="#DejaVuSans-6e" transform="translate(957.324219 0.015625)"/>
   </g>
  </g>
 </g>
 <defs>
  <clipPath id="p074dc80204">
   <rect x="144" y="77.76" width="892.8" height="226.8"/>
  </clipPath>
  <clipPath id="p12384a13ac">
   <rect x="144" y="349.92" width="892.8" height="226.8"/>
  </clipPath>
 </defs>
</svg>
