<?xml version="1.0" encoding="utf-8" standalone="no"?>
<!DOCTYPE svg PUBLIC "-//W3C//DTD SVG 1.1//EN"
  "http://www.w3.org/Graphics/SVG/1.1/DTD/svg11.dtd">
<svg xmlns:xlink="http://www.w3.org/1999/xlink" width="1152pt" height="648pt" viewBox="0 0 1152 648" xmlns="http://www.w3.org/2000/svg" version="1.1">
 <metadata>
  <rdf:RDF xmlns:dc="http://purl.org/dc/elements/1.1/" xmlns:cc="http://creativecommons.org/ns#" xmlns:rdf="http://www.w3.org/1999/02/22-rdf-syntax-ns#">
   <cc:Work>
    <dc:type rdf:resource="http://purl.org/dc/dcmitype/StillImage"/>
    <dc:date>2024-06-20T12:47:17.274220</dc:date>
    <dc:format>image/svg+xml</dc:format>
    <dc:creator>
     <cc:Agent>
      <dc:title>Matplotlib v3.9.0, https://matplotlib.org/</dc:title>
     </cc:Agent>
    </dc:creator>
   </cc:Work>
  </rdf:RDF>
 </metadata>
 <defs>
  <style type="text/css">*{stroke-linejoin: round; stroke-linecap: butt}</style>
 </defs>
 <g id="figure_1">
  <g id="patch_1">
   <path d="M 0 648 
L 1152 648 
L 1152 0 
L 0 0 
z
" style="fill: #ffffff"/>
  </g>
  <g id="axes_1">
   <g id="patch_2">
    <path d="M 144 304.56 
L 1036.8 304.56 
L 1036.8 77.76 
L 144 77.76 
z
" style="fill: #ffffff"/>
   </g>
   <g id="PolyCollection_1">
    <defs>
     <path id="mc368cbd0d7" d="M 292.849617 -540.324553 
L 292.849617 -535.059162 
L 295.826609 -533.552709 
L 298.803601 -532.028019 
L 301.780594 -530.489234 
L 304.757586 -528.93497 
L 307.734578 -527.358905 
L 310.711571 -525.763714 
L 313.688563 -524.150308 
L 316.665555 -522.512407 
L 319.642548 -520.853406 
L 322.61954 -519.170121 
L 325.596532 -517.470295 
L 328.573525 -515.753266 
L 331.550517 -514.024901 
L 334.527509 -512.281212 
L 337.504502 -510.527044 
L 340.481494 -508.767618 
L 343.458486 -507.007913 
L 346.435478 -505.244348 
L 349.412471 -503.478739 
L 352.389463 -501.71729 
L 355.366455 -499.95653 
L 358.343448 -498.207177 
L 361.32044 -496.465423 
L 364.297432 -494.73284 
L 367.274425 -493.013207 
L 370.251417 -491.30683 
L 373.228409 -489.613957 
L 376.205402 -487.936767 
L 379.182394 -486.27281 
L 382.159386 -484.62198 
L 385.136379 -482.983469 
L 388.113371 -481.359848 
L 391.090363 -479.748616 
L 394.067356 -478.153211 
L 397.044348 -476.567119 
L 400.02134 -474.993443 
L 402.998333 -473.435631 
L 405.975325 -471.880287 
L 408.952317 -470.339959 
L 411.92931 -468.799433 
L 414.906302 -467.26818 
L 417.883294 -465.736584 
L 420.860287 -464.210933 
L 423.837279 -462.683567 
L 426.814271 -461.157007 
L 429.791264 -459.61944 
L 432.768256 -458.079208 
L 435.745248 -456.523566 
L 438.722241 -454.960786 
L 441.699233 -453.378903 
L 444.676225 -451.79288 
L 447.653218 -450.207208 
L 450.63021 -448.61998 
L 453.607202 -447.023377 
L 456.584195 -445.41023 
L 459.561187 -443.778806 
L 462.538179 -442.129825 
L 465.515172 -440.450922 
L 468.492164 -438.740495 
L 471.469156 -437.000686 
L 474.446149 -435.233205 
L 477.423141 -433.423006 
L 480.400133 -431.573786 
L 483.377126 -429.680334 
L 486.354118 -427.739854 
L 489.33111 -425.757753 
L 492.308103 -423.719761 
L 495.285095 -421.625153 
L 498.262087 -419.470896 
L 501.23908 -417.265401 
L 504.216072 -415.003585 
L 507.193064 -412.675479 
L 510.170057 -410.280841 
L 513.147049 -407.834975 
L 516.124041 -405.327873 
L 519.101034 -402.770454 
L 522.078026 -400.152873 
L 525.055018 -397.480296 
L 528.032011 -394.774659 
L 531.009003 -392.024875 
L 533.985995 -389.250796 
L 536.962988 -386.455371 
L 539.93998 -383.656215 
L 542.916972 -380.866182 
L 545.893965 -378.102114 
L 548.870957 -375.369336 
L 551.847949 -372.697418 
L 554.824942 -370.129292 
L 557.801934 -367.653704 
L 560.778926 -365.302527 
L 563.755919 -363.108533 
L 566.732911 -361.097788 
L 569.709903 -359.286488 
L 572.686896 -357.682598 
L 575.663888 -356.334809 
L 578.64088 -355.260906 
L 581.617873 -354.46659 
L 584.594865 -353.959587 
L 587.571857 -353.749091 
L 590.54885 -353.84426 
L 593.525842 -354.229292 
L 596.502834 -354.906571 
L 599.479827 -355.872497 
L 602.456819 -357.120209 
L 605.433811 -358.627716 
L 608.410804 -360.373883 
L 611.387796 -362.339885 
L 614.364788 -364.497336 
L 617.341781 -366.828266 
L 620.318773 -369.304089 
L 623.295765 -371.890669 
L 626.272758 -374.572329 
L 629.24975 -377.324114 
L 632.226742 -380.125498 
L 635.203735 -382.963184 
L 638.180727 -385.801252 
L 641.157719 -388.654764 
L 644.134712 -391.488188 
L 647.111704 -394.292964 
L 650.088696 -397.052944 
L 653.065689 -399.7759 
L 656.042681 -402.443113 
L 659.019673 -405.044606 
L 661.996666 -407.59486 
L 664.973658 -410.081828 
L 667.95065 -412.509467 
L 670.927643 -414.868655 
L 673.904635 -417.160646 
L 676.881627 -419.390273 
L 679.85862 -421.566126 
L 682.835612 -423.67696 
L 685.812604 -425.732968 
L 688.789597 -427.739066 
L 691.766589 -429.692636 
L 694.743581 -431.594253 
L 697.720574 -433.457929 
L 700.697566 -435.277083 
L 703.674558 -437.061499 
L 706.651551 -438.803761 
L 709.628543 -440.516164 
L 712.605535 -442.200298 
L 715.582528 -443.863924 
L 718.55952 -445.500022 
L 721.536512 -447.115868 
L 724.513505 -448.720337 
L 727.490497 -450.311246 
L 730.467489 -451.886782 
L 733.444481 -453.455092 
L 736.421474 -455.018583 
L 739.398466 -456.583079 
L 742.375458 -458.135546 
L 745.352451 -459.67991 
L 748.329443 -461.212756 
L 751.306435 -462.744398 
L 754.283428 -464.273899 
L 757.26042 -465.803564 
L 760.237412 -467.334229 
L 763.214405 -468.868632 
L 766.191397 -470.408081 
L 769.168389 -471.952627 
L 772.145382 -473.508873 
L 775.122374 -475.072201 
L 778.099366 -476.650019 
L 781.076359 -478.237854 
L 784.053351 -479.83926 
L 787.030343 -481.449523 
L 790.007336 -483.073444 
L 792.984328 -484.712522 
L 795.96132 -486.370054 
L 798.938313 -488.038624 
L 801.915305 -489.718567 
L 804.892297 -491.413908 
L 807.86929 -493.118073 
L 810.846282 -494.833456 
L 813.823274 -496.561894 
L 816.800267 -498.298467 
L 819.777259 -500.045332 
L 822.754251 -501.798362 
L 825.731244 -503.555759 
L 828.708236 -505.311364 
L 831.685228 -507.070609 
L 834.662221 -508.824667 
L 837.639213 -510.577954 
L 840.616205 -512.322704 
L 843.593198 -514.062722 
L 846.57019 -515.790532 
L 849.547182 -517.504441 
L 852.524175 -519.200461 
L 855.501167 -520.876927 
L 858.478159 -522.532062 
L 861.455152 -524.163827 
L 864.432144 -525.76338 
L 867.409136 -527.335877 
L 870.386129 -528.87299 
L 873.363121 -530.378747 
L 876.340113 -531.843654 
L 879.317106 -533.269395 
L 882.294098 -534.653829 
L 885.27109 -535.992902 
L 888.248083 -537.289256 
L 891.225075 -538.53576 
L 894.202067 -539.737513 
L 897.17906 -540.886258 
L 900.156052 -541.986762 
L 903.133044 -543.038802 
L 906.110037 -544.038996 
L 909.087029 -544.987241 
L 912.064021 -545.887313 
L 915.041014 -546.735802 
L 918.018006 -547.535828 
L 920.994998 -548.288675 
L 923.971991 -548.996224 
L 926.948983 -549.653454 
L 929.925975 -550.266622 
L 932.902968 -550.834594 
L 935.87996 -551.362521 
L 938.856952 -551.847216 
L 941.833945 -552.294428 
L 944.810937 -552.705278 
L 947.787929 -553.082579 
L 950.764922 -553.421878 
L 953.741914 -553.73427 
L 956.718906 -554.01512 
L 959.695899 -554.269133 
L 962.672891 -554.496852 
L 965.649883 -554.69794 
L 968.626876 -554.880909 
L 971.603868 -555.042496 
L 974.58086 -555.186625 
L 977.557853 -555.312207 
L 980.534845 -555.425112 
L 983.511837 -555.524193 
L 986.48883 -555.610982 
L 989.465822 -555.68736 
L 992.442814 -555.752593 
L 995.419807 -555.811648 
L 998.396799 -555.864201 
L 1001.373791 -555.912455 
L 1004.350784 -555.953075 
L 1007.327776 -555.994435 
L 1010.304768 -556.029408 
L 1013.281761 -556.064375 
L 1016.258753 -556.095026 
L 1019.235745 -556.125368 
L 1022.212738 -556.15929 
L 1025.18973 -556.188542 
L 1028.166722 -556.219663 
L 1031.143715 -556.251074 
L 1034.120707 -556.282622 
L 1034.120707 -559.606808 
L 1034.120707 -559.606808 
L 1031.143715 -559.639824 
L 1028.166722 -559.672536 
L 1025.18973 -559.705182 
L 1022.212738 -559.738933 
L 1019.235745 -559.767494 
L 1016.258753 -559.800019 
L 1013.281761 -559.830877 
L 1010.304768 -559.856485 
L 1007.327776 -559.881379 
L 1004.350784 -559.899615 
L 1001.373791 -559.917466 
L 998.396799 -559.926599 
L 995.419807 -559.930909 
L 992.442814 -559.928246 
L 989.465822 -559.918166 
L 986.48883 -559.895103 
L 983.511837 -559.860528 
L 980.534845 -559.812471 
L 977.557853 -559.750119 
L 974.58086 -559.674051 
L 971.603868 -559.57828 
L 968.626876 -559.464499 
L 965.649883 -559.32881 
L 962.672891 -559.17389 
L 959.695899 -558.990342 
L 956.718906 -558.779399 
L 953.741914 -558.54022 
L 950.764922 -558.269036 
L 947.787929 -557.969953 
L 944.810937 -557.630839 
L 941.833945 -557.258009 
L 938.856952 -556.848757 
L 935.87996 -556.400528 
L 932.902968 -555.908011 
L 929.925975 -555.374191 
L 926.948983 -554.793777 
L 923.971991 -554.167135 
L 920.994998 -553.489235 
L 918.018006 -552.766717 
L 915.041014 -551.996175 
L 912.064021 -551.175886 
L 909.087029 -550.303372 
L 906.110037 -549.381391 
L 903.133044 -548.405704 
L 900.156052 -547.377674 
L 897.17906 -546.300847 
L 894.202067 -545.174099 
L 891.225075 -543.992997 
L 888.248083 -542.766517 
L 885.27109 -541.489045 
L 882.294098 -540.168178 
L 879.317106 -538.801014 
L 876.340113 -537.391741 
L 873.363121 -535.942269 
L 870.386129 -534.451102 
L 867.409136 -532.928571 
L 864.432144 -531.369823 
L 861.455152 -529.783491 
L 858.478159 -528.163604 
L 855.501167 -526.520493 
L 852.524175 -524.855681 
L 849.547182 -523.170668 
L 846.57019 -521.467218 
L 843.593198 -519.749383 
L 840.616205 -518.019251 
L 837.639213 -516.284333 
L 834.662221 -514.540611 
L 831.685228 -512.795764 
L 828.708236 -511.045456 
L 825.731244 -509.298582 
L 822.754251 -507.549594 
L 819.777259 -505.80485 
L 816.800267 -504.066608 
L 813.823274 -502.338847 
L 810.846282 -500.61936 
L 807.86929 -498.91344 
L 804.892297 -497.218931 
L 801.915305 -495.533669 
L 798.938313 -493.864583 
L 795.96132 -492.207327 
L 792.984328 -490.561685 
L 790.007336 -488.935301 
L 787.030343 -487.324973 
L 784.053351 -485.729135 
L 781.076359 -484.142964 
L 778.099366 -482.571108 
L 775.122374 -481.010032 
L 772.145382 -479.464168 
L 769.168389 -477.925956 
L 766.191397 -476.40002 
L 763.214405 -474.879666 
L 760.237412 -473.364692 
L 757.26042 -471.853361 
L 754.283428 -470.342518 
L 751.306435 -468.83061 
L 748.329443 -467.314451 
L 745.352451 -465.794525 
L 742.375458 -464.259605 
L 739.398466 -462.714729 
L 736.421474 -461.158707 
L 733.444481 -459.604909 
L 730.467489 -458.047832 
L 727.490497 -456.485554 
L 724.513505 -454.909138 
L 721.536512 -453.319713 
L 718.55952 -451.720025 
L 715.582528 -450.101071 
L 712.605535 -448.454994 
L 709.628543 -446.788512 
L 706.651551 -445.094213 
L 703.674558 -443.370523 
L 700.697566 -441.604882 
L 697.720574 -439.804492 
L 694.743581 -437.959491 
L 691.766589 -436.076901 
L 688.789597 -434.141825 
L 685.812604 -432.154027 
L 682.835612 -430.116498 
L 679.85862 -428.024207 
L 676.881627 -425.866883 
L 673.904635 -423.657435 
L 670.927643 -421.386394 
L 667.95065 -419.048253 
L 664.973658 -416.642737 
L 661.996666 -414.179816 
L 659.019673 -411.656548 
L 656.042681 -409.083629 
L 653.065689 -406.444455 
L 650.088696 -403.751593 
L 647.111704 -401.023569 
L 644.134712 -398.250654 
L 641.157719 -395.448757 
L 638.180727 -392.630638 
L 635.203735 -389.830385 
L 632.226742 -387.028415 
L 629.24975 -384.26469 
L 626.272758 -381.548395 
L 623.295765 -378.900119 
L 620.318773 -376.345618 
L 617.341781 -373.897077 
L 614.364788 -371.591247 
L 611.387796 -369.454861 
L 608.410804 -367.50737 
L 605.433811 -365.775598 
L 602.456819 -364.278529 
L 599.479827 -363.037172 
L 596.502834 -362.073209 
L 593.525842 -361.390483 
L 590.54885 -360.991414 
L 587.571857 -360.876522 
L 584.594865 -361.063498 
L 581.617873 -361.543541 
L 578.64088 -362.308865 
L 575.663888 -363.352788 
L 572.686896 -364.668894 
L 569.709903 -366.239114 
L 566.732911 -368.016769 
L 563.755919 -369.993545 
L 560.778926 -372.152725 
L 557.801934 -374.468184 
L 554.824942 -376.909413 
L 551.847949 -379.443495 
L 548.870957 -382.078867 
L 545.893965 -384.77589 
L 542.916972 -387.505289 
L 539.93998 -390.261003 
L 536.962988 -393.025826 
L 533.985995 -395.787149 
L 531.009003 -398.528303 
L 528.032011 -401.246188 
L 525.055018 -403.919847 
L 522.078026 -406.561002 
L 519.101034 -409.149958 
L 516.124041 -411.680375 
L 513.147049 -414.160734 
L 510.170057 -416.580353 
L 507.193064 -418.949275 
L 504.216072 -421.255277 
L 501.23908 -423.497271 
L 498.262087 -425.682869 
L 495.285095 -427.818018 
L 492.308103 -429.895955 
L 489.33111 -431.920159 
L 486.354118 -433.89005 
L 483.377126 -435.817936 
L 480.400133 -437.700898 
L 477.423141 -439.541175 
L 474.446149 -441.343913 
L 471.469156 -443.105098 
L 468.492164 -444.837874 
L 465.515172 -446.542235 
L 462.538179 -448.217341 
L 459.561187 -449.863169 
L 456.584195 -451.49013 
L 453.607202 -453.09898 
L 450.63021 -454.689715 
L 447.653218 -456.267923 
L 444.676225 -457.839878 
L 441.699233 -459.409977 
L 438.722241 -460.976876 
L 435.745248 -462.525408 
L 432.768256 -464.066657 
L 429.791264 -465.59375 
L 426.814271 -467.119168 
L 423.837279 -468.63587 
L 420.860287 -470.153195 
L 417.883294 -471.669259 
L 414.906302 -473.191692 
L 411.92931 -474.714171 
L 408.952317 -476.247564 
L 405.975325 -477.781299 
L 402.998333 -479.330791 
L 400.02134 -480.883462 
L 397.044348 -482.451012 
L 394.067356 -484.032095 
L 391.090363 -485.622653 
L 388.113371 -487.228426 
L 385.136379 -488.846548 
L 382.159386 -490.479222 
L 379.182394 -492.12456 
L 376.205402 -493.782785 
L 373.228409 -495.452914 
L 370.251417 -497.137019 
L 367.274425 -498.832743 
L 364.297432 -500.539688 
L 361.32044 -502.258202 
L 358.343448 -503.984545 
L 355.366455 -505.717092 
L 352.389463 -507.459728 
L 349.412471 -509.203337 
L 346.435478 -510.951202 
L 343.458486 -512.698417 
L 340.481494 -514.442122 
L 337.504502 -516.185885 
L 334.527509 -517.925809 
L 331.550517 -519.657525 
L 328.573525 -521.376113 
L 325.596532 -523.084671 
L 322.61954 -524.777265 
L 319.642548 -526.454176 
L 316.665555 -528.106515 
L 313.688563 -529.735736 
L 310.711571 -531.336325 
L 307.734578 -532.911384 
L 304.757586 -534.456548 
L 301.780594 -535.965104 
L 298.803601 -537.439892 
L 295.826609 -538.87986 
L 292.849617 -540.324553 
z
" style="stroke: #00ffff; stroke-opacity: 0.5"/>
    </defs>
    <g clip-path="url(#pc515a3a933)">
     <use xlink:href="#mc368cbd0d7" x="0" y="648" style="fill: #00ffff; fill-opacity: 0.5; stroke: #00ffff; stroke-opacity: 0.5"/>
    </g>
   </g>
   <g id="matplotlib.axis_1">
    <g id="xtick_1">
     <g id="line2d_1">
      <defs>
       <path id="m3d61c9fb21" d="M 0 0 
L 0 3.5 
" style="stroke: #000000; stroke-width: 0.8"/>
      </defs>
      <g>
       <use xlink:href="#m3d61c9fb21" x="144" y="304.56" style="stroke: #000000; stroke-width: 0.8"/>
      </g>
     </g>
     <g id="text_1">
      <!-- 0 -->
      <g transform="translate(140.81875 319.158437) scale(0.1 -0.1)">
       <defs>
        <path id="DejaVuSans-30" d="M 2034 4250 
Q 1547 4250 1301 3770 
Q 1056 3291 1056 2328 
Q 1056 1369 1301 889 
Q 1547 409 2034 409 
Q 2525 409 2770 889 
Q 3016 1369 3016 2328 
Q 3016 3291 2770 3770 
Q 2525 4250 2034 4250 
z
M 2034 4750 
Q 2819 4750 3233 4129 
Q 3647 3509 3647 2328 
Q 3647 1150 3233 529 
Q 2819 -91 2034 -91 
Q 1250 -91 836 529 
Q 422 1150 422 2328 
Q 422 3509 836 4129 
Q 1250 4750 2034 4750 
z
" transform="scale(0.015625)"/>
       </defs>
       <use xlink:href="#DejaVuSans-30"/>
      </g>
     </g>
    </g>
    <g id="xtick_2">
     <g id="line2d_2">
      <g>
       <use xlink:href="#m3d61c9fb21" x="292.849617" y="304.56" style="stroke: #000000; stroke-width: 0.8"/>
      </g>
     </g>
     <g id="text_2">
      <!-- 5 -->
      <g transform="translate(289.668367 319.158437) scale(0.1 -0.1)">
       <defs>
        <path id="DejaVuSans-35" d="M 691 4666 
L 3169 4666 
L 3169 4134 
L 1269 4134 
L 1269 2991 
Q 1406 3038 1543 3061 
Q 1681 3084 1819 3084 
Q 2600 3084 3056 2656 
Q 3513 2228 3513 1497 
Q 3513 744 3044 326 
Q 2575 -91 1722 -91 
Q 1428 -91 1123 -41 
Q 819 9 494 109 
L 494 744 
Q 775 591 1075 516 
Q 1375 441 1709 441 
Q 2250 441 2565 725 
Q 2881 1009 2881 1497 
Q 2881 1984 2565 2268 
Q 2250 2553 1709 2553 
Q 1456 2553 1204 2497 
Q 953 2441 691 2322 
L 691 4666 
z
" transform="scale(0.015625)"/>
       </defs>
       <use xlink:href="#DejaVuSans-35"/>
      </g>
     </g>
    </g>
    <g id="xtick_3">
     <g id="line2d_3">
      <g>
       <use xlink:href="#m3d61c9fb21" x="441.699233" y="304.56" style="stroke: #000000; stroke-width: 0.8"/>
      </g>
     </g>
     <g id="text_3">
      <!-- 10 -->
      <g transform="translate(435.336733 319.158437) scale(0.1 -0.1)">
       <defs>
        <path id="DejaVuSans-31" d="M 794 531 
L 1825 531 
L 1825 4091 
L 703 3866 
L 703 4441 
L 1819 4666 
L 2450 4666 
L 2450 531 
L 3481 531 
L 3481 0 
L 794 0 
L 794 531 
z
" transform="scale(0.015625)"/>
       </defs>
       <use xlink:href="#DejaVuSans-31"/>
       <use xlink:href="#DejaVuSans-30" x="63.623047"/>
      </g>
     </g>
    </g>
    <g id="xtick_4">
     <g id="line2d_4">
      <g>
       <use xlink:href="#m3d61c9fb21" x="590.54885" y="304.56" style="stroke: #000000; stroke-width: 0.8"/>
      </g>
     </g>
     <g id="text_4">
      <!-- 15 -->
      <g transform="translate(584.18635 319.158437) scale(0.1 -0.1)">
       <use xlink:href="#DejaVuSans-31"/>
       <use xlink:href="#DejaVuSans-35" x="63.623047"/>
      </g>
     </g>
    </g>
    <g id="xtick_5">
     <g id="line2d_5">
      <g>
       <use xlink:href="#m3d61c9fb21" x="739.398466" y="304.56" style="stroke: #000000; stroke-width: 0.8"/>
      </g>
     </g>
     <g id="text_5">
      <!-- 20 -->
      <g transform="translate(733.035966 319.158437) scale(0.1 -0.1)">
       <defs>
        <path id="DejaVuSans-32" d="M 1228 531 
L 3431 531 
L 3431 0 
L 469 0 
L 469 531 
Q 828 903 1448 1529 
Q 2069 2156 2228 2338 
Q 2531 2678 2651 2914 
Q 2772 3150 2772 3378 
Q 2772 3750 2511 3984 
Q 2250 4219 1831 4219 
Q 1534 4219 1204 4116 
Q 875 4013 500 3803 
L 500 4441 
Q 881 4594 1212 4672 
Q 1544 4750 1819 4750 
Q 2544 4750 2975 4387 
Q 3406 4025 3406 3419 
Q 3406 3131 3298 2873 
Q 3191 2616 2906 2266 
Q 2828 2175 2409 1742 
Q 1991 1309 1228 531 
z
" transform="scale(0.015625)"/>
       </defs>
       <use xlink:href="#DejaVuSans-32"/>
       <use xlink:href="#DejaVuSans-30" x="63.623047"/>
      </g>
     </g>
    </g>
    <g id="xtick_6">
     <g id="line2d_6">
      <g>
       <use xlink:href="#m3d61c9fb21" x="888.248083" y="304.56" style="stroke: #000000; stroke-width: 0.8"/>
      </g>
     </g>
     <g id="text_6">
      <!-- 25 -->
      <g transform="translate(881.885583 319.158437) scale(0.1 -0.1)">
       <use xlink:href="#DejaVuSans-32"/>
       <use xlink:href="#DejaVuSans-35" x="63.623047"/>
      </g>
     </g>
    </g>
   </g>
   <g id="matplotlib.axis_2">
    <g id="ytick_1">
     <g id="line2d_7">
      <defs>
       <path id="md4b94b0a82" d="M 0 0 
L -3.5 0 
" style="stroke: #000000; stroke-width: 0.8"/>
      </defs>
      <g>
       <use xlink:href="#md4b94b0a82" x="144" y="289.884355" style="stroke: #000000; stroke-width: 0.8"/>
      </g>
     </g>
     <g id="text_7">
      <!-- 0.5 -->
      <g transform="translate(121.096875 293.683574) scale(0.1 -0.1)">
       <defs>
        <path id="DejaVuSans-2e" d="M 684 794 
L 1344 794 
L 1344 0 
L 684 0 
L 684 794 
z
" transform="scale(0.015625)"/>
       </defs>
       <use xlink:href="#DejaVuSans-30"/>
       <use xlink:href="#DejaVuSans-2e" x="63.623047"/>
       <use xlink:href="#DejaVuSans-35" x="95.410156"/>
      </g>
     </g>
    </g>
    <g id="ytick_2">
     <g id="line2d_8">
      <g>
       <use xlink:href="#md4b94b0a82" x="144" y="256.570063" style="stroke: #000000; stroke-width: 0.8"/>
      </g>
     </g>
     <g id="text_8">
      <!-- 1.0 -->
      <g transform="translate(121.096875 260.369282) scale(0.1 -0.1)">
       <use xlink:href="#DejaVuSans-31"/>
       <use xlink:href="#DejaVuSans-2e" x="63.623047"/>
       <use xlink:href="#DejaVuSans-30" x="95.410156"/>
      </g>
     </g>
    </g>
    <g id="ytick_3">
     <g id="line2d_9">
      <g>
       <use xlink:href="#md4b94b0a82" x="144" y="223.255771" style="stroke: #000000; stroke-width: 0.8"/>
      </g>
     </g>
     <g id="text_9">
      <!-- 1.5 -->
      <g transform="translate(121.096875 227.05499) scale(0.1 -0.1)">
       <use xlink:href="#DejaVuSans-31"/>
       <use xlink:href="#DejaVuSans-2e" x="63.623047"/>
       <use xlink:href="#DejaVuSans-35" x="95.410156"/>
      </g>
     </g>
    </g>
    <g id="ytick_4">
     <g id="line2d_10">
      <g>
       <use xlink:href="#md4b94b0a82" x="144" y="189.94148" style="stroke: #000000; stroke-width: 0.8"/>
      </g>
     </g>
     <g id="text_10">
      <!-- 2.0 -->
      <g transform="translate(121.096875 193.740698) scale(0.1 -0.1)">
       <use xlink:href="#DejaVuSans-32"/>
       <use xlink:href="#DejaVuSans-2e" x="63.623047"/>
       <use xlink:href="#DejaVuSans-30" x="95.410156"/>
      </g>
     </g>
    </g>
    <g id="ytick_5">
     <g id="line2d_11">
      <g>
       <use xlink:href="#md4b94b0a82" x="144" y="156.627188" style="stroke: #000000; stroke-width: 0.8"/>
      </g>
     </g>
     <g id="text_11">
      <!-- 2.5 -->
      <g transform="translate(121.096875 160.426407) scale(0.1 -0.1)">
       <use xlink:href="#DejaVuSans-32"/>
       <use xlink:href="#DejaVuSans-2e" x="63.623047"/>
       <use xlink:href="#DejaVuSans-35" x="95.410156"/>
      </g>
     </g>
    </g>
    <g id="ytick_6">
     <g id="line2d_12">
      <g>
       <use xlink:href="#md4b94b0a82" x="144" y="123.312896" style="stroke: #000000; stroke-width: 0.8"/>
      </g>
     </g>
     <g id="text_12">
      <!-- 3.0 -->
      <g transform="translate(121.096875 127.112115) scale(0.1 -0.1)">
       <defs>
        <path id="DejaVuSans-33" d="M 2597 2516 
Q 3050 2419 3304 2112 
Q 3559 1806 3559 1356 
Q 3559 666 3084 287 
Q 2609 -91 1734 -91 
Q 1441 -91 1130 -33 
Q 819 25 488 141 
L 488 750 
Q 750 597 1062 519 
Q 1375 441 1716 441 
Q 2309 441 2620 675 
Q 2931 909 2931 1356 
Q 2931 1769 2642 2001 
Q 2353 2234 1838 2234 
L 1294 2234 
L 1294 2753 
L 1863 2753 
Q 2328 2753 2575 2939 
Q 2822 3125 2822 3475 
Q 2822 3834 2567 4026 
Q 2313 4219 1838 4219 
Q 1578 4219 1281 4162 
Q 984 4106 628 3988 
L 628 4550 
Q 988 4650 1302 4700 
Q 1616 4750 1894 4750 
Q 2613 4750 3031 4423 
Q 3450 4097 3450 3541 
Q 3450 3153 3228 2886 
Q 3006 2619 2597 2516 
z
" transform="scale(0.015625)"/>
       </defs>
       <use xlink:href="#DejaVuSans-33"/>
       <use xlink:href="#DejaVuSans-2e" x="63.623047"/>
       <use xlink:href="#DejaVuSans-30" x="95.410156"/>
      </g>
     </g>
    </g>
    <g id="ytick_7">
     <g id="line2d_13">
      <g>
       <use xlink:href="#md4b94b0a82" x="144" y="89.998604" style="stroke: #000000; stroke-width: 0.8"/>
      </g>
     </g>
     <g id="text_13">
      <!-- 3.5 -->
      <g transform="translate(121.096875 93.797823) scale(0.1 -0.1)">
       <use xlink:href="#DejaVuSans-33"/>
       <use xlink:href="#DejaVuSans-2e" x="63.623047"/>
       <use xlink:href="#DejaVuSans-35" x="95.410156"/>
      </g>
     </g>
    </g>
   </g>
   <g id="line2d_14">
    <path d="M 144 89.998604 
L 148.465488 89.882052 
L 157.098766 89.721999 
L 173.174525 89.659903 
L 190.143381 89.809275 
L 203.242147 90.151865 
L 213.363921 90.635945 
L 221.997199 91.259938 
L 230.035078 92.053846 
L 237.775258 93.044732 
L 244.92004 94.193057 
L 251.767122 95.516229 
L 258.316506 97.009707 
L 264.865889 98.735622 
L 271.415272 100.707169 
L 277.964655 102.917846 
L 284.514038 105.375323 
L 291.063421 108.06797 
L 295.52891 110.088186 
L 308.627676 116.696802 
L 318.451751 121.956036 
L 328.573525 127.643229 
L 342.267689 135.60842 
L 373.823808 154.018405 
L 386.922574 161.326549 
L 399.723641 168.221145 
L 414.013204 175.663767 
L 450.63021 194.616019 
L 463.728976 201.677002 
L 472.659953 206.73898 
L 480.697833 211.52748 
L 488.140313 216.223185 
L 494.987396 220.794553 
L 501.536779 225.437268 
L 507.788463 230.114667 
L 514.337846 235.306878 
L 521.184928 241.022197 
L 528.032011 247.031924 
L 536.06989 254.35685 
L 554.229543 271.020272 
L 559.885829 275.799808 
L 564.053618 279.05578 
L 567.923708 281.801232 
L 571.496099 284.058371 
L 574.77079 285.876953 
L 577.747783 287.264468 
L 580.724775 288.388435 
L 583.404068 289.169865 
L 586.083361 289.724252 
L 588.762654 290.044002 
L 591.441947 290.11867 
L 594.12124 289.963009 
L 596.800534 289.578431 
L 599.479827 288.961789 
L 602.15912 288.110416 
L 605.136112 286.903499 
L 608.113104 285.43872 
L 611.090097 283.737818 
L 614.364788 281.612983 
L 617.937179 279.033526 
L 622.104968 275.732301 
L 626.868156 271.665949 
L 632.822141 266.27752 
L 643.539313 256.189202 
L 653.065689 247.312938 
L 659.912771 241.199464 
L 666.759853 235.380872 
L 673.011537 230.345322 
L 679.56092 225.378727 
L 685.812604 220.905392 
L 692.957386 216.090131 
L 700.399867 211.374563 
L 708.140047 206.746206 
L 717.368723 201.514945 
L 728.383595 195.555815 
L 744.757052 186.973213 
L 762.321307 177.981312 
L 781.076359 168.274212 
L 794.472824 161.074964 
L 807.571591 153.752667 
L 821.265755 145.851627 
L 857.287362 124.88775 
L 866.813738 119.672859 
L 875.149316 115.358735 
L 882.591797 111.752218 
L 889.43888 108.666543 
L 896.285962 105.82615 
L 902.835345 103.355878 
L 909.087029 101.223477 
L 915.636412 99.232273 
L 922.185795 97.482473 
L 928.735178 95.962381 
L 935.284562 94.67099 
L 942.131644 93.544931 
L 949.574125 92.549292 
L 957.612004 91.718492 
L 965.947583 91.084984 
L 975.771657 90.577361 
L 987.084228 90.23213 
L 1000.778393 90.046261 
L 1021.915038 89.990002 
L 1036.8 89.993379 
L 1036.8 89.993379 
" clip-path="url(#pc515a3a933)" style="fill: none; stroke-dasharray: 5.55,2.4; stroke-dashoffset: 0; stroke: #ffa500; stroke-width: 1.5"/>
   </g>
   <g id="line2d_15">
    <path d="M 292.849617 110.308142 
L 304.757586 116.304241 
L 313.688563 121.056978 
L 322.61954 126.026307 
L 334.527509 132.896489 
L 370.251417 153.778075 
L 382.159386 160.449399 
L 394.067356 166.907347 
L 408.952317 174.706239 
L 450.63021 196.345153 
L 462.538179 202.826417 
L 471.469156 207.947108 
L 480.400133 213.362658 
L 486.354118 217.185048 
L 492.308103 221.192142 
L 498.262087 225.423118 
L 504.216072 229.870569 
L 510.170057 234.569403 
L 516.124041 239.495876 
L 522.078026 244.643063 
L 531.009003 252.723411 
L 551.847949 271.929543 
L 557.801934 276.939056 
L 560.778926 279.272374 
L 563.755919 281.448961 
L 566.732911 283.442721 
L 569.709903 285.237199 
L 572.686896 286.824254 
L 575.663888 288.156201 
L 578.64088 289.215114 
L 581.617873 289.994935 
L 584.594865 290.488458 
L 587.571857 290.687193 
L 590.54885 290.582163 
L 593.525842 290.190113 
L 596.502834 289.51011 
L 599.479827 288.545166 
L 602.456819 287.300631 
L 605.433811 285.798343 
L 608.410804 284.059373 
L 611.387796 282.102627 
L 614.364788 279.955709 
L 617.341781 277.637328 
L 623.295765 272.604606 
L 629.24975 267.205598 
L 641.157719 255.94824 
L 650.088696 247.597731 
L 656.042681 242.236629 
L 661.996666 237.112662 
L 667.95065 232.22114 
L 673.904635 227.590959 
L 679.85862 223.204834 
L 685.812604 219.056502 
L 691.766589 215.115232 
L 700.697566 209.559017 
L 709.628543 204.347662 
L 718.55952 199.389976 
L 733.444481 191.47 
L 751.306435 182.212496 
L 775.122374 169.958884 
L 790.007336 161.995628 
L 801.915305 155.373882 
L 816.800267 146.817462 
L 852.524175 125.971929 
L 861.455152 121.026341 
L 870.386129 116.337954 
L 879.317106 111.964796 
L 885.27109 109.259026 
L 891.225075 106.735622 
L 897.17906 104.406447 
L 903.133044 102.277747 
L 909.087029 100.354693 
L 915.041014 98.634011 
L 920.994998 97.111045 
L 926.948983 95.776384 
L 932.902968 94.628698 
L 938.856952 93.652014 
L 947.787929 92.473734 
L 956.718906 91.602741 
L 965.649883 90.986625 
L 974.58086 90.569662 
L 986.48883 90.246958 
L 1001.373791 90.08504 
L 1034.120707 90.055285 
L 1034.120707 90.055285 
" clip-path="url(#pc515a3a933)" style="fill: none; stroke: #0000ff; stroke-opacity: 0.5; stroke-width: 1.5; stroke-linecap: square"/>
   </g>
   <g id="patch_3">
    <path d="M 144 304.56 
L 144 77.76 
" style="fill: none; stroke: #000000; stroke-width: 0.8; stroke-linejoin: miter; stroke-linecap: square"/>
   </g>
   <g id="patch_4">
    <path d="M 1036.8 304.56 
L 1036.8 77.76 
" style="fill: none; stroke: #000000; stroke-width: 0.8; stroke-linejoin: miter; stroke-linecap: square"/>
   </g>
   <g id="patch_5">
    <path d="M 144 304.56 
L 1036.8 304.56 
" style="fill: none; stroke: #000000; stroke-width: 0.8; stroke-linejoin: miter; stroke-linecap: square"/>
   </g>
   <g id="patch_6">
    <path d="M 144 77.76 
L 1036.8 77.76 
" style="fill: none; stroke: #000000; stroke-width: 0.8; stroke-linejoin: miter; stroke-linecap: square"/>
   </g>
   <g id="legend_1">
    <g id="patch_7">
     <path d="M 151 299.56 
L 256.6 299.56 
Q 258.6 299.56 258.6 297.56 
L 258.6 254.525625 
Q 258.6 252.525625 256.6 252.525625 
L 151 252.525625 
Q 149 252.525625 149 254.525625 
L 149 297.56 
Q 149 299.56 151 299.56 
z
" style="fill: #ffffff; opacity: 0.8; stroke: #cccccc; stroke-linejoin: miter"/>
    </g>
    <g id="line2d_16">
     <path d="M 153 260.624062 
L 163 260.624062 
L 173 260.624062 
" style="fill: none; stroke-dasharray: 5.55,2.4; stroke-dashoffset: 0; stroke: #ffa500; stroke-width: 1.5"/>
    </g>
    <g id="text_14">
     <!-- Real $x$ Position -->
     <g transform="translate(181 264.124062) scale(0.1 -0.1)">
      <defs>
       <path id="DejaVuSans-52" d="M 2841 2188 
Q 3044 2119 3236 1894 
Q 3428 1669 3622 1275 
L 4263 0 
L 3584 0 
L 2988 1197 
Q 2756 1666 2539 1819 
Q 2322 1972 1947 1972 
L 1259 1972 
L 1259 0 
L 628 0 
L 628 4666 
L 2053 4666 
Q 2853 4666 3247 4331 
Q 3641 3997 3641 3322 
Q 3641 2881 3436 2590 
Q 3231 2300 2841 2188 
z
M 1259 4147 
L 1259 2491 
L 2053 2491 
Q 2509 2491 2742 2702 
Q 2975 2913 2975 3322 
Q 2975 3731 2742 3939 
Q 2509 4147 2053 4147 
L 1259 4147 
z
" transform="scale(0.015625)"/>
       <path id="DejaVuSans-65" d="M 3597 1894 
L 3597 1613 
L 953 1613 
Q 991 1019 1311 708 
Q 1631 397 2203 397 
Q 2534 397 2845 478 
Q 3156 559 3463 722 
L 3463 178 
Q 3153 47 2828 -22 
Q 2503 -91 2169 -91 
Q 1331 -91 842 396 
Q 353 884 353 1716 
Q 353 2575 817 3079 
Q 1281 3584 2069 3584 
Q 2775 3584 3186 3129 
Q 3597 2675 3597 1894 
z
M 3022 2063 
Q 3016 2534 2758 2815 
Q 2500 3097 2075 3097 
Q 1594 3097 1305 2825 
Q 1016 2553 972 2059 
L 3022 2063 
z
" transform="scale(0.015625)"/>
       <path id="DejaVuSans-61" d="M 2194 1759 
Q 1497 1759 1228 1600 
Q 959 1441 959 1056 
Q 959 750 1161 570 
Q 1363 391 1709 391 
Q 2188 391 2477 730 
Q 2766 1069 2766 1631 
L 2766 1759 
L 2194 1759 
z
M 3341 1997 
L 3341 0 
L 2766 0 
L 2766 531 
Q 2569 213 2275 61 
Q 1981 -91 1556 -91 
Q 1019 -91 701 211 
Q 384 513 384 1019 
Q 384 1609 779 1909 
Q 1175 2209 1959 2209 
L 2766 2209 
L 2766 2266 
Q 2766 2663 2505 2880 
Q 2244 3097 1772 3097 
Q 1472 3097 1187 3025 
Q 903 2953 641 2809 
L 641 3341 
Q 956 3463 1253 3523 
Q 1550 3584 1831 3584 
Q 2591 3584 2966 3190 
Q 3341 2797 3341 1997 
z
" transform="scale(0.015625)"/>
       <path id="DejaVuSans-6c" d="M 603 4863 
L 1178 4863 
L 1178 0 
L 603 0 
L 603 4863 
z
" transform="scale(0.015625)"/>
       <path id="DejaVuSans-20" transform="scale(0.015625)"/>
       <path id="DejaVuSans-Oblique-78" d="M 3841 3500 
L 2234 1784 
L 3219 0 
L 2559 0 
L 1819 1388 
L 531 0 
L -166 0 
L 1556 1844 
L 641 3500 
L 1300 3500 
L 1972 2234 
L 3144 3500 
L 3841 3500 
z
" transform="scale(0.015625)"/>
       <path id="DejaVuSans-50" d="M 1259 4147 
L 1259 2394 
L 2053 2394 
Q 2494 2394 2734 2622 
Q 2975 2850 2975 3272 
Q 2975 3691 2734 3919 
Q 2494 4147 2053 4147 
L 1259 4147 
z
M 628 4666 
L 2053 4666 
Q 2838 4666 3239 4311 
Q 3641 3956 3641 3272 
Q 3641 2581 3239 2228 
Q 2838 1875 2053 1875 
L 1259 1875 
L 1259 0 
L 628 0 
L 628 4666 
z
" transform="scale(0.015625)"/>
       <path id="DejaVuSans-6f" d="M 1959 3097 
Q 1497 3097 1228 2736 
Q 959 2375 959 1747 
Q 959 1119 1226 758 
Q 1494 397 1959 397 
Q 2419 397 2687 759 
Q 2956 1122 2956 1747 
Q 2956 2369 2687 2733 
Q 2419 3097 1959 3097 
z
M 1959 3584 
Q 2709 3584 3137 3096 
Q 3566 2609 3566 1747 
Q 3566 888 3137 398 
Q 2709 -91 1959 -91 
Q 1206 -91 779 398 
Q 353 888 353 1747 
Q 353 2609 779 3096 
Q 1206 3584 1959 3584 
z
" transform="scale(0.015625)"/>
       <path id="DejaVuSans-73" d="M 2834 3397 
L 2834 2853 
Q 2591 2978 2328 3040 
Q 2066 3103 1784 3103 
Q 1356 3103 1142 2972 
Q 928 2841 928 2578 
Q 928 2378 1081 2264 
Q 1234 2150 1697 2047 
L 1894 2003 
Q 2506 1872 2764 1633 
Q 3022 1394 3022 966 
Q 3022 478 2636 193 
Q 2250 -91 1575 -91 
Q 1294 -91 989 -36 
Q 684 19 347 128 
L 347 722 
Q 666 556 975 473 
Q 1284 391 1588 391 
Q 1994 391 2212 530 
Q 2431 669 2431 922 
Q 2431 1156 2273 1281 
Q 2116 1406 1581 1522 
L 1381 1569 
Q 847 1681 609 1914 
Q 372 2147 372 2553 
Q 372 3047 722 3315 
Q 1072 3584 1716 3584 
Q 2034 3584 2315 3537 
Q 2597 3491 2834 3397 
z
" transform="scale(0.015625)"/>
       <path id="DejaVuSans-69" d="M 603 3500 
L 1178 3500 
L 1178 0 
L 603 0 
L 603 3500 
z
M 603 4863 
L 1178 4863 
L 1178 4134 
L 603 4134 
L 603 4863 
z
" transform="scale(0.015625)"/>
       <path id="DejaVuSans-74" d="M 1172 4494 
L 1172 3500 
L 2356 3500 
L 2356 3053 
L 1172 3053 
L 1172 1153 
Q 1172 725 1289 603 
Q 1406 481 1766 481 
L 2356 481 
L 2356 0 
L 1766 0 
Q 1100 0 847 248 
Q 594 497 594 1153 
L 594 3053 
L 172 3053 
L 172 3500 
L 594 3500 
L 594 4494 
L 1172 4494 
z
" transform="scale(0.015625)"/>
       <path id="DejaVuSans-6e" d="M 3513 2113 
L 3513 0 
L 2938 0 
L 2938 2094 
Q 2938 2591 2744 2837 
Q 2550 3084 2163 3084 
Q 1697 3084 1428 2787 
Q 1159 2491 1159 1978 
L 1159 0 
L 581 0 
L 581 3500 
L 1159 3500 
L 1159 2956 
Q 1366 3272 1645 3428 
Q 1925 3584 2291 3584 
Q 2894 3584 3203 3211 
Q 3513 2838 3513 2113 
z
" transform="scale(0.015625)"/>
      </defs>
      <use xlink:href="#DejaVuSans-52" transform="translate(0 0.015625)"/>
      <use xlink:href="#DejaVuSans-65" transform="translate(69.482422 0.015625)"/>
      <use xlink:href="#DejaVuSans-61" transform="translate(131.005859 0.015625)"/>
      <use xlink:href="#DejaVuSans-6c" transform="translate(192.285156 0.015625)"/>
      <use xlink:href="#DejaVuSans-20" transform="translate(220.068359 0.015625)"/>
      <use xlink:href="#DejaVuSans-Oblique-78" transform="translate(251.855469 0.015625)"/>
      <use xlink:href="#DejaVuSans-20" transform="translate(311.035156 0.015625)"/>
      <use xlink:href="#DejaVuSans-50" transform="translate(342.822266 0.015625)"/>
      <use xlink:href="#DejaVuSans-6f" transform="translate(403.125 0.015625)"/>
      <use xlink:href="#DejaVuSans-73" transform="translate(464.306641 0.015625)"/>
      <use xlink:href="#DejaVuSans-69" transform="translate(516.40625 0.015625)"/>
      <use xlink:href="#DejaVuSans-74" transform="translate(544.189453 0.015625)"/>
      <use xlink:href="#DejaVuSans-69" transform="translate(583.398438 0.015625)"/>
      <use xlink:href="#DejaVuSans-6f" transform="translate(611.181641 0.015625)"/>
      <use xlink:href="#DejaVuSans-6e" transform="translate(672.363281 0.015625)"/>
     </g>
    </g>
    <g id="line2d_17">
     <path d="M 153 275.302188 
L 163 275.302188 
L 173 275.302188 
" style="fill: none; stroke: #0000ff; stroke-opacity: 0.5; stroke-width: 1.5; stroke-linecap: square"/>
    </g>
    <g id="text_15">
     <!-- Prediction $x$ -->
     <g transform="translate(181 278.802188) scale(0.1 -0.1)">
      <defs>
       <path id="DejaVuSans-72" d="M 2631 2963 
Q 2534 3019 2420 3045 
Q 2306 3072 2169 3072 
Q 1681 3072 1420 2755 
Q 1159 2438 1159 1844 
L 1159 0 
L 581 0 
L 581 3500 
L 1159 3500 
L 1159 2956 
Q 1341 3275 1631 3429 
Q 1922 3584 2338 3584 
Q 2397 3584 2469 3576 
Q 2541 3569 2628 3553 
L 2631 2963 
z
" transform="scale(0.015625)"/>
       <path id="DejaVuSans-64" d="M 2906 2969 
L 2906 4863 
L 3481 4863 
L 3481 0 
L 2906 0 
L 2906 525 
Q 2725 213 2448 61 
Q 2172 -91 1784 -91 
Q 1150 -91 751 415 
Q 353 922 353 1747 
Q 353 2572 751 3078 
Q 1150 3584 1784 3584 
Q 2172 3584 2448 3432 
Q 2725 3281 2906 2969 
z
M 947 1747 
Q 947 1113 1208 752 
Q 1469 391 1925 391 
Q 2381 391 2643 752 
Q 2906 1113 2906 1747 
Q 2906 2381 2643 2742 
Q 2381 3103 1925 3103 
Q 1469 3103 1208 2742 
Q 947 2381 947 1747 
z
" transform="scale(0.015625)"/>
       <path id="DejaVuSans-63" d="M 3122 3366 
L 3122 2828 
Q 2878 2963 2633 3030 
Q 2388 3097 2138 3097 
Q 1578 3097 1268 2742 
Q 959 2388 959 1747 
Q 959 1106 1268 751 
Q 1578 397 2138 397 
Q 2388 397 2633 464 
Q 2878 531 3122 666 
L 3122 134 
Q 2881 22 2623 -34 
Q 2366 -91 2075 -91 
Q 1284 -91 818 406 
Q 353 903 353 1747 
Q 353 2603 823 3093 
Q 1294 3584 2113 3584 
Q 2378 3584 2631 3529 
Q 2884 3475 3122 3366 
z
" transform="scale(0.015625)"/>
      </defs>
      <use xlink:href="#DejaVuSans-50" transform="translate(0 0.015625)"/>
      <use xlink:href="#DejaVuSans-72" transform="translate(60.302734 0.015625)"/>
      <use xlink:href="#DejaVuSans-65" transform="translate(101.416016 0.015625)"/>
      <use xlink:href="#DejaVuSans-64" transform="translate(162.939453 0.015625)"/>
      <use xlink:href="#DejaVuSans-69" transform="translate(226.416016 0.015625)"/>
      <use xlink:href="#DejaVuSans-63" transform="translate(254.199219 0.015625)"/>
      <use xlink:href="#DejaVuSans-74" transform="translate(309.179688 0.015625)"/>
      <use xlink:href="#DejaVuSans-69" transform="translate(348.388672 0.015625)"/>
      <use xlink:href="#DejaVuSans-6f" transform="translate(376.171875 0.015625)"/>
      <use xlink:href="#DejaVuSans-6e" transform="translate(437.353516 0.015625)"/>
      <use xlink:href="#DejaVuSans-20" transform="translate(500.732422 0.015625)"/>
      <use xlink:href="#DejaVuSans-Oblique-78" transform="translate(532.519531 0.015625)"/>
     </g>
    </g>
    <g id="patch_8">
     <path d="M 153 293.480312 
L 173 293.480312 
L 173 286.480312 
L 153 286.480312 
z
" style="fill: #00ffff; fill-opacity: 0.5; stroke: #00ffff; stroke-opacity: 0.5; stroke-linejoin: miter"/>
    </g>
    <g id="text_16">
     <!-- Confidence -->
     <g transform="translate(181 293.480312) scale(0.1 -0.1)">
      <defs>
       <path id="DejaVuSans-43" d="M 4122 4306 
L 4122 3641 
Q 3803 3938 3442 4084 
Q 3081 4231 2675 4231 
Q 1875 4231 1450 3742 
Q 1025 3253 1025 2328 
Q 1025 1406 1450 917 
Q 1875 428 2675 428 
Q 3081 428 3442 575 
Q 3803 722 4122 1019 
L 4122 359 
Q 3791 134 3420 21 
Q 3050 -91 2638 -91 
Q 1578 -91 968 557 
Q 359 1206 359 2328 
Q 359 3453 968 4101 
Q 1578 4750 2638 4750 
Q 3056 4750 3426 4639 
Q 3797 4528 4122 4306 
z
" transform="scale(0.015625)"/>
       <path id="DejaVuSans-66" d="M 2375 4863 
L 2375 4384 
L 1825 4384 
Q 1516 4384 1395 4259 
Q 1275 4134 1275 3809 
L 1275 3500 
L 2222 3500 
L 2222 3053 
L 1275 3053 
L 1275 0 
L 697 0 
L 697 3053 
L 147 3053 
L 147 3500 
L 697 3500 
L 697 3744 
Q 697 4328 969 4595 
Q 1241 4863 1831 4863 
L 2375 4863 
z
" transform="scale(0.015625)"/>
      </defs>
      <use xlink:href="#DejaVuSans-43"/>
      <use xlink:href="#DejaVuSans-6f" x="69.824219"/>
      <use xlink:href="#DejaVuSans-6e" x="131.005859"/>
      <use xlink:href="#DejaVuSans-66" x="194.384766"/>
      <use xlink:href="#DejaVuSans-69" x="229.589844"/>
      <use xlink:href="#DejaVuSans-64" x="257.373047"/>
      <use xlink:href="#DejaVuSans-65" x="320.849609"/>
      <use xlink:href="#DejaVuSans-6e" x="382.373047"/>
      <use xlink:href="#DejaVuSans-63" x="445.751953"/>
      <use xlink:href="#DejaVuSans-65" x="500.732422"/>
     </g>
    </g>
   </g>
  </g>
  <g id="axes_2">
   <g id="patch_9">
    <path d="M 144 576.72 
L 1036.8 576.72 
L 1036.8 349.92 
L 144 349.92 
z
" style="fill: #ffffff"/>
   </g>
   <g id="matplotlib.axis_3">
    <g id="xtick_7">
     <g id="line2d_18">
      <g>
       <use xlink:href="#m3d61c9fb21" x="144" y="576.72" style="stroke: #000000; stroke-width: 0.8"/>
      </g>
     </g>
     <g id="text_17">
      <!-- 0 -->
      <g transform="translate(140.81875 591.318438) scale(0.1 -0.1)">
       <use xlink:href="#DejaVuSans-30"/>
      </g>
     </g>
    </g>
    <g id="xtick_8">
     <g id="line2d_19">
      <g>
       <use xlink:href="#m3d61c9fb21" x="292.849617" y="576.72" style="stroke: #000000; stroke-width: 0.8"/>
      </g>
     </g>
     <g id="text_18">
      <!-- 5 -->
      <g transform="translate(289.668367 591.318438) scale(0.1 -0.1)">
       <use xlink:href="#DejaVuSans-35"/>
      </g>
     </g>
    </g>
    <g id="xtick_9">
     <g id="line2d_20">
      <g>
       <use xlink:href="#m3d61c9fb21" x="441.699233" y="576.72" style="stroke: #000000; stroke-width: 0.8"/>
      </g>
     </g>
     <g id="text_19">
      <!-- 10 -->
      <g transform="translate(435.336733 591.318438) scale(0.1 -0.1)">
       <use xlink:href="#DejaVuSans-31"/>
       <use xlink:href="#DejaVuSans-30" x="63.623047"/>
      </g>
     </g>
    </g>
    <g id="xtick_10">
     <g id="line2d_21">
      <g>
       <use xlink:href="#m3d61c9fb21" x="590.54885" y="576.72" style="stroke: #000000; stroke-width: 0.8"/>
      </g>
     </g>
     <g id="text_20">
      <!-- 15 -->
      <g transform="translate(584.18635 591.318438) scale(0.1 -0.1)">
       <use xlink:href="#DejaVuSans-31"/>
       <use xlink:href="#DejaVuSans-35" x="63.623047"/>
      </g>
     </g>
    </g>
    <g id="xtick_11">
     <g id="line2d_22">
      <g>
       <use xlink:href="#m3d61c9fb21" x="739.398466" y="576.72" style="stroke: #000000; stroke-width: 0.8"/>
      </g>
     </g>
     <g id="text_21">
      <!-- 20 -->
      <g transform="translate(733.035966 591.318438) scale(0.1 -0.1)">
       <use xlink:href="#DejaVuSans-32"/>
       <use xlink:href="#DejaVuSans-30" x="63.623047"/>
      </g>
     </g>
    </g>
    <g id="xtick_12">
     <g id="line2d_23">
      <g>
       <use xlink:href="#m3d61c9fb21" x="888.248083" y="576.72" style="stroke: #000000; stroke-width: 0.8"/>
      </g>
     </g>
     <g id="text_22">
      <!-- 25 -->
      <g transform="translate(881.885583 591.318438) scale(0.1 -0.1)">
       <use xlink:href="#DejaVuSans-32"/>
       <use xlink:href="#DejaVuSans-35" x="63.623047"/>
      </g>
     </g>
    </g>
   </g>
   <g id="matplotlib.axis_4">
    <g id="ytick_8">
     <g id="line2d_24">
      <g>
       <use xlink:href="#md4b94b0a82" x="144" y="572.476276" style="stroke: #000000; stroke-width: 0.8"/>
      </g>
     </g>
     <g id="text_23">
      <!-- −0.04 -->
      <g transform="translate(106.354687 576.275495) scale(0.1 -0.1)">
       <defs>
        <path id="DejaVuSans-2212" d="M 678 2272 
L 4684 2272 
L 4684 1741 
L 678 1741 
L 678 2272 
z
" transform="scale(0.015625)"/>
        <path id="DejaVuSans-34" d="M 2419 4116 
L 825 1625 
L 2419 1625 
L 2419 4116 
z
M 2253 4666 
L 3047 4666 
L 3047 1625 
L 3713 1625 
L 3713 1100 
L 3047 1100 
L 3047 0 
L 2419 0 
L 2419 1100 
L 313 1100 
L 313 1709 
L 2253 4666 
z
" transform="scale(0.015625)"/>
       </defs>
       <use xlink:href="#DejaVuSans-2212"/>
       <use xlink:href="#DejaVuSans-30" x="83.789062"/>
       <use xlink:href="#DejaVuSans-2e" x="147.412109"/>
       <use xlink:href="#DejaVuSans-30" x="179.199219"/>
       <use xlink:href="#DejaVuSans-34" x="242.822266"/>
      </g>
     </g>
    </g>
    <g id="ytick_9">
     <g id="line2d_25">
      <g>
       <use xlink:href="#md4b94b0a82" x="144" y="523.404849" style="stroke: #000000; stroke-width: 0.8"/>
      </g>
     </g>
     <g id="text_24">
      <!-- −0.02 -->
      <g transform="translate(106.354687 527.204068) scale(0.1 -0.1)">
       <use xlink:href="#DejaVuSans-2212"/>
       <use xlink:href="#DejaVuSans-30" x="83.789062"/>
       <use xlink:href="#DejaVuSans-2e" x="147.412109"/>
       <use xlink:href="#DejaVuSans-30" x="179.199219"/>
       <use xlink:href="#DejaVuSans-32" x="242.822266"/>
      </g>
     </g>
    </g>
    <g id="ytick_10">
     <g id="line2d_26">
      <g>
       <use xlink:href="#md4b94b0a82" x="144" y="474.333423" style="stroke: #000000; stroke-width: 0.8"/>
      </g>
     </g>
     <g id="text_25">
      <!-- 0.00 -->
      <g transform="translate(114.734375 478.132641) scale(0.1 -0.1)">
       <use xlink:href="#DejaVuSans-30"/>
       <use xlink:href="#DejaVuSans-2e" x="63.623047"/>
       <use xlink:href="#DejaVuSans-30" x="95.410156"/>
       <use xlink:href="#DejaVuSans-30" x="159.033203"/>
      </g>
     </g>
    </g>
    <g id="ytick_11">
     <g id="line2d_27">
      <g>
       <use xlink:href="#md4b94b0a82" x="144" y="425.261996" style="stroke: #000000; stroke-width: 0.8"/>
      </g>
     </g>
     <g id="text_26">
      <!-- 0.02 -->
      <g transform="translate(114.734375 429.061215) scale(0.1 -0.1)">
       <use xlink:href="#DejaVuSans-30"/>
       <use xlink:href="#DejaVuSans-2e" x="63.623047"/>
       <use xlink:href="#DejaVuSans-30" x="95.410156"/>
       <use xlink:href="#DejaVuSans-32" x="159.033203"/>
      </g>
     </g>
    </g>
    <g id="ytick_12">
     <g id="line2d_28">
      <g>
       <use xlink:href="#md4b94b0a82" x="144" y="376.19057" style="stroke: #000000; stroke-width: 0.8"/>
      </g>
     </g>
     <g id="text_27">
      <!-- 0.04 -->
      <g transform="translate(114.734375 379.989788) scale(0.1 -0.1)">
       <use xlink:href="#DejaVuSans-30"/>
       <use xlink:href="#DejaVuSans-2e" x="63.623047"/>
       <use xlink:href="#DejaVuSans-30" x="95.410156"/>
       <use xlink:href="#DejaVuSans-34" x="159.033203"/>
      </g>
     </g>
    </g>
   </g>
   <g id="line2d_29">
    <path d="M 144 420.337915 
L 173.769923 417.326384 
L 203.539847 417.091767 
L 292.849617 414.186801 
L 382.159386 411.327722 
L 441.699233 409.592669 
L 501.23908 408.340732 
L 560.778926 407.325457 
L 590.54885 406.972028 
L 650.088696 406.600652 
L 679.85862 406.420152 
L 709.628543 406.372179 
L 769.168389 406.549298 
L 858.478159 407.343049 
L 1037.097699 409.808982 
L 1153 411.559404 
L 1153 411.559404 
" clip-path="url(#p947ad36a28)" style="fill: none; stroke: #1f77b4; stroke-width: 1.5; stroke-linecap: square"/>
   </g>
   <g id="patch_10">
    <path d="M 144 576.72 
L 144 349.92 
" style="fill: none; stroke: #000000; stroke-width: 0.8; stroke-linejoin: miter; stroke-linecap: square"/>
   </g>
   <g id="patch_11">
    <path d="M 1036.8 576.72 
L 1036.8 349.92 
" style="fill: none; stroke: #000000; stroke-width: 0.8; stroke-linejoin: miter; stroke-linecap: square"/>
   </g>
   <g id="patch_12">
    <path d="M 144 576.72 
L 1036.8 576.72 
" style="fill: none; stroke: #000000; stroke-width: 0.8; stroke-linejoin: miter; stroke-linecap: square"/>
   </g>
   <g id="patch_13">
    <path d="M 144 349.92 
L 1036.8 349.92 
" style="fill: none; stroke: #000000; stroke-width: 0.8; stroke-linejoin: miter; stroke-linecap: square"/>
   </g>
   <g id="legend_2">
    <g id="patch_14">
     <path d="M 920.578125 372.598125 
L 1029.8 372.598125 
Q 1031.8 372.598125 1031.8 370.598125 
L 1031.8 356.92 
Q 1031.8 354.92 1029.8 354.92 
L 920.578125 354.92 
Q 918.578125 354.92 918.578125 356.92 
L 918.578125 370.598125 
Q 918.578125 372.598125 920.578125 372.598125 
z
" style="fill: #ffffff; opacity: 0.8; stroke: #cccccc; stroke-linejoin: miter"/>
    </g>
    <g id="line2d_30">
     <path d="M 922.578125 363.018437 
L 932.578125 363.018437 
L 942.578125 363.018437 
" style="fill: none; stroke: #1f77b4; stroke-width: 1.5; stroke-linecap: square"/>
    </g>
    <g id="text_28">
     <!-- Prediction Error -->
     <g transform="translate(950.578125 366.518437) scale(0.1 -0.1)">
      <defs>
       <path id="DejaVuSans-45" d="M 628 4666 
L 3578 4666 
L 3578 4134 
L 1259 4134 
L 1259 2753 
L 3481 2753 
L 3481 2222 
L 1259 2222 
L 1259 531 
L 3634 531 
L 3634 0 
L 628 0 
L 628 4666 
z
" transform="scale(0.015625)"/>
      </defs>
      <use xlink:href="#DejaVuSans-50"/>
      <use xlink:href="#DejaVuSans-72" x="58.552734"/>
      <use xlink:href="#DejaVuSans-65" x="97.416016"/>
      <use xlink:href="#DejaVuSans-64" x="158.939453"/>
      <use xlink:href="#DejaVuSans-69" x="222.416016"/>
      <use xlink:href="#DejaVuSans-63" x="250.199219"/>
      <use xlink:href="#DejaVuSans-74" x="305.179688"/>
      <use xlink:href="#DejaVuSans-69" x="344.388672"/>
      <use xlink:href="#DejaVuSans-6f" x="372.171875"/>
      <use xlink:href="#DejaVuSans-6e" x="433.353516"/>
      <use xlink:href="#DejaVuSans-20" x="496.732422"/>
      <use xlink:href="#DejaVuSans-45" x="528.519531"/>
      <use xlink:href="#DejaVuSans-72" x="591.703125"/>
      <use xlink:href="#DejaVuSans-72" x="631.066406"/>
      <use xlink:href="#DejaVuSans-6f" x="669.929688"/>
      <use xlink:href="#DejaVuSans-72" x="731.111328"/>
     </g>
    </g>
   </g>
  </g>
  <g id="text_29">
   <!-- $x$-Position Prediction -->
   <g transform="translate(514.74 22.078125) scale(0.12 -0.12)">
    <defs>
     <path id="DejaVuSans-2d" d="M 313 2009 
L 1997 2009 
L 1997 1497 
L 313 1497 
L 313 2009 
z
" transform="scale(0.015625)"/>
    </defs>
    <use xlink:href="#DejaVuSans-Oblique-78" transform="translate(0 0.015625)"/>
    <use xlink:href="#DejaVuSans-2d" transform="translate(59.179688 0.015625)"/>
    <use xlink:href="#DejaVuSans-50" transform="translate(95.263672 0.015625)"/>
    <use xlink:href="#DejaVuSans-6f" transform="translate(155.566406 0.015625)"/>
    <use xlink:href="#DejaVuSans-73" transform="translate(216.748047 0.015625)"/>
    <use xlink:href="#DejaVuSans-69" transform="translate(268.847656 0.015625)"/>
    <use xlink:href="#DejaVuSans-74" transform="translate(296.630859 0.015625)"/>
    <use xlink:href="#DejaVuSans-69" transform="translate(335.839844 0.015625)"/>
    <use xlink:href="#DejaVuSans-6f" transform="translate(363.623047 0.015625)"/>
    <use xlink:href="#DejaVuSans-6e" transform="translate(424.804688 0.015625)"/>
    <use xlink:href="#DejaVuSans-20" transform="translate(488.183594 0.015625)"/>
    <use xlink:href="#DejaVuSans-50" transform="translate(519.970703 0.015625)"/>
    <use xlink:href="#DejaVuSans-72" transform="translate(580.273438 0.015625)"/>
    <use xlink:href="#DejaVuSans-65" transform="translate(621.386719 0.015625)"/>
    <use xlink:href="#DejaVuSans-64" transform="translate(682.910156 0.015625)"/>
    <use xlink:href="#DejaVuSans-69" transform="translate(746.386719 0.015625)"/>
    <use xlink:href="#DejaVuSans-63" transform="translate(774.169922 0.015625)"/>
    <use xlink:href="#DejaVuSans-74" transform="translate(829.150391 0.015625)"/>
    <use xlink:href="#DejaVuSans-69" transform="translate(868.359375 0.015625)"/>
    <use xlink:href="#DejaVuSans-6f" transform="translate(896.142578 0.015625)"/>
    <use xlink:href="#DejaVuSans-6e" transform="translate(957.324219 0.015625)"/>
   </g>
  </g>
 </g>
 <defs>
  <clipPath id="pc515a3a933">
   <rect x="144" y="77.76" width="892.8" height="226.8"/>
  </clipPath>
  <clipPath id="p947ad36a28">
   <rect x="144" y="349.92" width="892.8" height="226.8"/>
  </clipPath>
 </defs>
</svg>
