<?xml version="1.0" encoding="utf-8" standalone="no"?>
<!DOCTYPE svg PUBLIC "-//W3C//DTD SVG 1.1//EN"
  "http://www.w3.org/Graphics/SVG/1.1/DTD/svg11.dtd">
<svg xmlns:xlink="http://www.w3.org/1999/xlink" width="1152pt" height="648pt" viewBox="0 0 1152 648" xmlns="http://www.w3.org/2000/svg" version="1.1">
 <metadata>
  <rdf:RDF xmlns:dc="http://purl.org/dc/elements/1.1/" xmlns:cc="http://creativecommons.org/ns#" xmlns:rdf="http://www.w3.org/1999/02/22-rdf-syntax-ns#">
   <cc:Work>
    <dc:type rdf:resource="http://purl.org/dc/dcmitype/StillImage"/>
    <dc:date>2024-06-19T20:44:32.828786</dc:date>
    <dc:format>image/svg+xml</dc:format>
    <dc:creator>
     <cc:Agent>
      <dc:title>Matplotlib v3.9.0, https://matplotlib.org/</dc:title>
     </cc:Agent>
    </dc:creator>
   </cc:Work>
  </rdf:RDF>
 </metadata>
 <defs>
  <style type="text/css">*{stroke-linejoin: round; stroke-linecap: butt}</style>
 </defs>
 <g id="figure_1">
  <g id="patch_1">
   <path d="M 0 648 
L 1152 648 
L 1152 0 
L 0 0 
z
" style="fill: #ffffff"/>
  </g>
  <g id="axes_1">
   <g id="patch_2">
    <path d="M 144 304.56 
L 1036.8 304.56 
L 1036.8 77.76 
L 144 77.76 
z
" style="fill: #ffffff"/>
   </g>
   <g id="PolyCollection_1">
    <defs>
     <path id="m4c021b7490" d="M 292.849617 -495.859882 
L 292.849617 -489.091334 
L 295.826609 -490.985272 
L 298.803601 -492.809948 
L 301.780594 -494.603966 
L 304.757586 -496.378671 
L 307.734578 -498.146242 
L 310.711571 -499.89564 
L 313.688563 -501.631057 
L 316.665555 -503.350803 
L 319.642548 -505.052143 
L 322.61954 -506.740502 
L 325.596532 -508.416647 
L 328.573525 -510.073746 
L 331.550517 -511.728596 
L 334.527509 -513.365407 
L 337.504502 -514.988098 
L 340.481494 -516.597851 
L 343.458486 -518.189942 
L 346.435478 -519.78234 
L 349.412471 -521.3467 
L 352.389463 -522.89023 
L 355.366455 -524.426477 
L 358.343448 -525.963739 
L 361.32044 -527.467188 
L 364.297432 -528.955126 
L 367.274425 -530.425369 
L 370.251417 -531.876234 
L 373.228409 -533.293245 
L 376.205402 -534.678007 
L 379.182394 -536.031249 
L 382.159386 -537.333008 
L 385.136379 -538.593931 
L 388.113371 -539.828725 
L 391.090363 -541.011137 
L 394.067356 -542.164044 
L 397.044348 -543.251683 
L 400.02134 -544.295325 
L 402.998333 -545.306428 
L 405.975325 -546.243738 
L 408.952317 -547.124444 
L 411.92931 -547.937337 
L 414.906302 -548.668268 
L 417.883294 -549.326159 
L 420.860287 -549.90865 
L 423.837279 -550.427528 
L 426.814271 -550.87889 
L 429.791264 -551.234728 
L 432.768256 -551.541426 
L 435.745248 -551.736666 
L 438.722241 -551.804166 
L 441.699233 -551.767771 
L 444.676225 -551.636207 
L 447.653218 -551.427837 
L 450.63021 -551.121423 
L 453.607202 -550.716714 
L 456.584195 -550.222672 
L 459.561187 -549.641028 
L 462.538179 -548.945881 
L 465.515172 -548.153886 
L 468.492164 -547.249876 
L 471.469156 -546.263139 
L 474.446149 -545.153891 
L 477.423141 -543.95914 
L 480.400133 -542.653743 
L 483.377126 -541.264499 
L 486.354118 -539.810805 
L 489.33111 -538.270235 
L 492.308103 -536.601044 
L 495.285095 -534.857755 
L 498.262087 -533.026328 
L 501.23908 -531.110642 
L 504.216072 -529.110473 
L 507.193064 -527.022817 
L 510.170057 -524.860467 
L 513.147049 -522.653403 
L 516.124041 -520.388931 
L 519.101034 -518.066396 
L 522.078026 -515.668555 
L 525.055018 -513.21099 
L 528.032011 -510.686446 
L 531.009003 -508.102255 
L 533.985995 -505.473679 
L 536.962988 -502.788454 
L 539.93998 -500.068102 
L 542.916972 -497.318502 
L 545.893965 -494.516311 
L 548.870957 -491.656412 
L 551.847949 -488.773611 
L 554.824942 -485.859103 
L 557.801934 -482.919836 
L 560.778926 -479.946258 
L 563.755919 -476.942573 
L 566.732911 -473.906809 
L 569.709903 -470.860314 
L 572.686896 -467.777372 
L 575.663888 -464.678035 
L 578.64088 -461.57368 
L 581.617873 -458.466022 
L 584.594865 -455.357611 
L 587.571857 -452.227673 
L 590.54885 -449.104898 
L 593.525842 -445.984985 
L 596.502834 -442.884953 
L 599.479827 -439.78124 
L 602.456819 -436.681871 
L 605.433811 -433.605276 
L 608.410804 -430.563483 
L 611.387796 -427.535081 
L 614.364788 -424.53448 
L 617.341781 -421.576199 
L 620.318773 -418.645934 
L 623.295765 -415.753142 
L 626.272758 -412.89174 
L 629.24975 -410.065882 
L 632.226742 -407.284794 
L 635.203735 -404.558178 
L 638.180727 -401.884855 
L 641.157719 -399.254909 
L 644.134712 -396.678214 
L 647.111704 -394.147344 
L 650.088696 -391.669767 
L 653.065689 -389.252003 
L 656.042681 -386.905778 
L 659.019673 -384.615493 
L 661.996666 -382.394624 
L 664.973658 -380.24493 
L 667.95065 -378.165864 
L 670.927643 -376.164028 
L 673.904635 -374.2389 
L 676.881627 -372.391007 
L 679.85862 -370.625322 
L 682.835612 -368.941597 
L 685.812604 -367.338964 
L 688.789597 -365.822285 
L 691.766589 -364.38649 
L 694.743581 -363.033872 
L 697.720574 -361.772155 
L 700.697566 -360.597643 
L 703.674558 -359.51753 
L 706.651551 -358.524033 
L 709.628543 -357.623142 
L 712.605535 -356.813507 
L 715.582528 -356.099771 
L 718.55952 -355.479171 
L 721.536512 -354.954131 
L 724.513505 -354.519673 
L 727.490497 -354.182629 
L 730.467489 -353.94121 
L 733.444481 -353.797272 
L 736.421474 -353.749091 
L 739.398466 -353.797464 
L 742.375458 -353.94295 
L 745.352451 -354.18699 
L 748.329443 -354.526466 
L 751.306435 -354.952174 
L 754.283428 -355.464957 
L 757.26042 -356.062062 
L 760.237412 -356.733732 
L 763.214405 -357.477634 
L 766.191397 -358.290397 
L 769.168389 -359.169045 
L 772.145382 -360.109695 
L 775.122374 -361.110093 
L 778.099366 -362.168271 
L 781.076359 -363.27923 
L 784.053351 -364.441208 
L 787.030343 -365.653297 
L 790.007336 -366.906649 
L 792.984328 -368.203679 
L 795.96132 -369.539788 
L 798.938313 -370.910443 
L 801.915305 -372.318954 
L 804.892297 -373.755833 
L 807.86929 -375.219676 
L 810.846282 -376.706397 
L 813.823274 -378.217847 
L 816.800267 -379.747518 
L 819.777259 -381.296162 
L 822.754251 -382.86043 
L 825.731244 -384.436816 
L 828.708236 -386.021961 
L 831.685228 -387.613788 
L 834.662221 -389.212522 
L 837.639213 -390.817428 
L 840.616205 -392.426627 
L 843.593198 -394.034713 
L 846.57019 -395.644038 
L 849.547182 -397.247148 
L 852.524175 -398.848893 
L 855.501167 -400.447272 
L 858.478159 -402.037846 
L 861.455152 -403.619543 
L 864.432144 -405.191827 
L 867.409136 -406.755181 
L 870.386129 -408.303189 
L 873.363121 -409.837075 
L 876.340113 -411.355047 
L 879.317106 -412.858737 
L 882.294098 -414.342398 
L 885.27109 -415.804924 
L 888.248083 -417.249541 
L 891.225075 -418.676001 
L 894.202067 -420.079206 
L 897.17906 -421.46128 
L 900.156052 -422.821059 
L 903.133044 -424.158664 
L 906.110037 -425.470822 
L 909.087029 -426.758465 
L 912.064021 -428.019771 
L 915.041014 -429.257404 
L 918.018006 -430.4694 
L 920.994998 -431.652142 
L 923.971991 -432.809906 
L 926.948983 -433.938957 
L 929.925975 -435.045012 
L 932.902968 -436.118202 
L 935.87996 -437.167605 
L 938.856952 -438.185488 
L 941.833945 -439.173768 
L 944.810937 -440.135217 
L 947.787929 -441.073331 
L 950.764922 -441.979008 
L 953.741914 -442.854028 
L 956.718906 -443.698125 
L 959.695899 -444.514632 
L 962.672891 -445.293749 
L 965.649883 -446.048414 
L 968.626876 -446.772611 
L 971.603868 -447.471848 
L 974.58086 -448.136858 
L 977.557853 -448.772609 
L 980.534845 -449.375208 
L 983.511837 -449.95204 
L 986.48883 -450.497436 
L 989.465822 -451.013412 
L 992.442814 -451.495179 
L 995.419807 -451.946203 
L 998.396799 -452.370825 
L 1001.373791 -452.761623 
L 1004.350784 -453.126293 
L 1007.327776 -453.461168 
L 1010.304768 -453.76284 
L 1013.281761 -454.031254 
L 1016.258753 -454.277539 
L 1019.235745 -454.494335 
L 1022.212738 -454.675468 
L 1025.18973 -454.828427 
L 1028.166722 -454.948542 
L 1031.143715 -455.0456 
L 1034.120707 -455.109824 
L 1034.120707 -458.88708 
L 1034.120707 -458.88708 
L 1031.143715 -458.922167 
L 1028.166722 -458.923055 
L 1025.18973 -458.899646 
L 1022.212738 -458.840727 
L 1019.235745 -458.750479 
L 1016.258753 -458.621458 
L 1013.281761 -458.462484 
L 1010.304768 -458.278863 
L 1007.327776 -458.059228 
L 1004.350784 -457.80389 
L 1001.373791 -457.517862 
L 998.396799 -457.203935 
L 995.419807 -456.855305 
L 992.442814 -456.480055 
L 989.465822 -456.071877 
L 986.48883 -455.627859 
L 983.511837 -455.153852 
L 980.534845 -454.648503 
L 977.557853 -454.117382 
L 974.58086 -453.551668 
L 971.603868 -452.955557 
L 968.626876 -452.325084 
L 965.649883 -451.670064 
L 962.672891 -450.985326 
L 959.695899 -450.275638 
L 956.718906 -449.525932 
L 953.741914 -448.748303 
L 950.764922 -447.937915 
L 947.787929 -447.095298 
L 944.810937 -446.220341 
L 941.833945 -445.322313 
L 938.856952 -444.397402 
L 935.87996 -443.440498 
L 932.902968 -442.451646 
L 929.925975 -441.43853 
L 926.948983 -440.390577 
L 923.971991 -439.319488 
L 920.994998 -438.219065 
L 918.018006 -437.092273 
L 915.041014 -435.934335 
L 912.064021 -434.751061 
L 909.087029 -433.543115 
L 906.110037 -432.306738 
L 903.133044 -431.045481 
L 900.156052 -429.757518 
L 897.17906 -428.446516 
L 894.202067 -427.112548 
L 891.225075 -425.756095 
L 888.248083 -424.375493 
L 885.27109 -422.977274 
L 882.294098 -421.559769 
L 879.317106 -420.118588 
L 876.340113 -418.655915 
L 873.363121 -417.178228 
L 870.386129 -415.682801 
L 867.409136 -414.170935 
L 864.432144 -412.642341 
L 861.455152 -411.104673 
L 858.478159 -409.556694 
L 855.501167 -407.998313 
L 852.524175 -406.431881 
L 849.547182 -404.862795 
L 846.57019 -403.290023 
L 843.593198 -401.709583 
L 840.616205 -400.129519 
L 837.639213 -398.547478 
L 834.662221 -396.970352 
L 831.685228 -395.399161 
L 828.708236 -393.833786 
L 825.731244 -392.27207 
L 822.754251 -390.717456 
L 819.777259 -389.174256 
L 816.800267 -387.647006 
L 813.823274 -386.137345 
L 810.846282 -384.645343 
L 807.86929 -383.177356 
L 804.892297 -381.730234 
L 801.915305 -380.307626 
L 798.938313 -378.913827 
L 795.96132 -377.558784 
L 792.984328 -376.237441 
L 790.007336 -374.95458 
L 787.030343 -373.71522 
L 784.053351 -372.517328 
L 781.076359 -371.370502 
L 778.099366 -370.275122 
L 775.122374 -369.232708 
L 772.145382 -368.250125 
L 769.168389 -367.327084 
L 766.191397 -366.46649 
L 763.214405 -365.671437 
L 760.237412 -364.944948 
L 757.26042 -364.289809 
L 754.283428 -363.70881 
L 751.306435 -363.214124 
L 748.329443 -362.803106 
L 745.352451 -362.472136 
L 742.375458 -362.228687 
L 739.398466 -362.080854 
L 736.421474 -362.032812 
L 733.444481 -362.085649 
L 730.467489 -362.237139 
L 727.490497 -362.489869 
L 724.513505 -362.841726 
L 721.536512 -363.2931 
L 718.55952 -363.837135 
L 715.582528 -364.479252 
L 712.605535 -365.217346 
L 709.628543 -366.053838 
L 706.651551 -366.984337 
L 703.674558 -368.008762 
L 700.697566 -369.120851 
L 697.720574 -370.329866 
L 694.743581 -371.627664 
L 691.766589 -373.018219 
L 688.789597 -374.491911 
L 685.812604 -376.047017 
L 682.835612 -377.689638 
L 679.85862 -379.413621 
L 676.881627 -381.220381 
L 673.904635 -383.109302 
L 670.927643 -385.074716 
L 667.95065 -387.116385 
L 664.973658 -389.234591 
L 661.996666 -391.422079 
L 659.019673 -393.680114 
L 656.042681 -396.00642 
L 653.065689 -398.3864 
L 650.088696 -400.835681 
L 647.111704 -403.344279 
L 644.134712 -405.906174 
L 641.157719 -408.513804 
L 638.180727 -411.174467 
L 635.203735 -413.877055 
L 632.226742 -416.62954 
L 629.24975 -419.433179 
L 626.272758 -422.280603 
L 623.295765 -425.164156 
L 620.318773 -428.078354 
L 617.341781 -431.028467 
L 614.364788 -434.003671 
L 611.387796 -437.016489 
L 608.410804 -440.057266 
L 605.433811 -443.108115 
L 602.456819 -446.186487 
L 599.479827 -449.286193 
L 596.502834 -452.392381 
L 593.525842 -455.493279 
L 590.54885 -458.608622 
L 587.571857 -461.722959 
L 584.594865 -464.845826 
L 581.617873 -467.948276 
L 578.64088 -471.043832 
L 575.663888 -474.130995 
L 572.686896 -477.208937 
L 569.709903 -480.272684 
L 566.732911 -483.301767 
L 563.755919 -486.314676 
L 560.778926 -489.298575 
L 557.801934 -492.253856 
L 554.824942 -495.173678 
L 551.847949 -498.066003 
L 548.870957 -500.920532 
L 545.893965 -503.750816 
L 542.916972 -506.532048 
L 539.93998 -509.258695 
L 536.962988 -511.948256 
L 533.985995 -514.601722 
L 531.009003 -517.19561 
L 528.032011 -519.744161 
L 525.055018 -522.235341 
L 522.078026 -524.661503 
L 519.101034 -527.030998 
L 516.124041 -529.328847 
L 513.147049 -531.563224 
L 510.170057 -533.732519 
L 507.193064 -535.849356 
L 504.216072 -537.890879 
L 501.23908 -539.849117 
L 498.262087 -541.72368 
L 495.285095 -543.515757 
L 492.308103 -545.216881 
L 489.33111 -546.848387 
L 486.354118 -548.364549 
L 483.377126 -549.789458 
L 480.400133 -551.139176 
L 477.423141 -552.406387 
L 474.446149 -553.566525 
L 471.469156 -554.646501 
L 468.492164 -555.606702 
L 465.515172 -556.488305 
L 462.538179 -557.260364 
L 459.561187 -557.944066 
L 456.584195 -558.513935 
L 453.607202 -558.992581 
L 450.63021 -559.378608 
L 447.653218 -559.662902 
L 444.676225 -559.839614 
L 441.699233 -559.930909 
L 438.722241 -559.928748 
L 435.745248 -559.82966 
L 432.768256 -559.612866 
L 429.791264 -559.284564 
L 426.814271 -558.90498 
L 423.837279 -558.433717 
L 420.860287 -557.893989 
L 417.883294 -557.291411 
L 414.906302 -556.614546 
L 411.92931 -555.866473 
L 408.952317 -555.037532 
L 405.975325 -554.14051 
L 402.998333 -553.186917 
L 400.02134 -552.160348 
L 397.044348 -551.101139 
L 394.067356 -549.998682 
L 391.090363 -548.831505 
L 388.113371 -547.635388 
L 385.136379 -546.388583 
L 382.159386 -545.116319 
L 379.182394 -543.801401 
L 376.205402 -542.43318 
L 373.228409 -541.03188 
L 370.251417 -539.59543 
L 367.274425 -538.123868 
L 364.297432 -536.632527 
L 361.32044 -535.123182 
L 358.343448 -533.597467 
L 355.366455 -532.038243 
L 352.389463 -530.48475 
L 349.412471 -528.925074 
L 346.435478 -527.344423 
L 343.458486 -525.739686 
L 340.481494 -524.140854 
L 337.504502 -522.530651 
L 334.527509 -520.914416 
L 331.550517 -519.289567 
L 328.573525 -517.655375 
L 325.596532 -516.026559 
L 322.61954 -514.383296 
L 319.642548 -512.72954 
L 316.665555 -511.061 
L 313.688563 -509.363102 
L 310.711571 -507.629622 
L 307.734578 -505.848822 
L 304.757586 -504.003121 
L 301.780594 -502.082231 
L 298.803601 -500.060766 
L 295.826609 -497.942594 
L 292.849617 -495.859882 
z
" style="stroke: #00ffff; stroke-opacity: 0.5"/>
    </defs>
    <g clip-path="url(#p7733fb31fe)">
     <use xlink:href="#m4c021b7490" x="0" y="648" style="fill: #00ffff; fill-opacity: 0.5; stroke: #00ffff; stroke-opacity: 0.5"/>
    </g>
   </g>
   <g id="matplotlib.axis_1">
    <g id="xtick_1">
     <g id="line2d_1">
      <defs>
       <path id="m0e97d3a2b2" d="M 0 0 
L 0 3.5 
" style="stroke: #000000; stroke-width: 0.8"/>
      </defs>
      <g>
       <use xlink:href="#m0e97d3a2b2" x="144" y="304.56" style="stroke: #000000; stroke-width: 0.8"/>
      </g>
     </g>
     <g id="text_1">
      <!-- 0 -->
      <g transform="translate(140.81875 319.158437) scale(0.1 -0.1)">
       <defs>
        <path id="DejaVuSans-30" d="M 2034 4250 
Q 1547 4250 1301 3770 
Q 1056 3291 1056 2328 
Q 1056 1369 1301 889 
Q 1547 409 2034 409 
Q 2525 409 2770 889 
Q 3016 1369 3016 2328 
Q 3016 3291 2770 3770 
Q 2525 4250 2034 4250 
z
M 2034 4750 
Q 2819 4750 3233 4129 
Q 3647 3509 3647 2328 
Q 3647 1150 3233 529 
Q 2819 -91 2034 -91 
Q 1250 -91 836 529 
Q 422 1150 422 2328 
Q 422 3509 836 4129 
Q 1250 4750 2034 4750 
z
" transform="scale(0.015625)"/>
       </defs>
       <use xlink:href="#DejaVuSans-30"/>
      </g>
     </g>
    </g>
    <g id="xtick_2">
     <g id="line2d_2">
      <g>
       <use xlink:href="#m0e97d3a2b2" x="292.849617" y="304.56" style="stroke: #000000; stroke-width: 0.8"/>
      </g>
     </g>
     <g id="text_2">
      <!-- 5 -->
      <g transform="translate(289.668367 319.158437) scale(0.1 -0.1)">
       <defs>
        <path id="DejaVuSans-35" d="M 691 4666 
L 3169 4666 
L 3169 4134 
L 1269 4134 
L 1269 2991 
Q 1406 3038 1543 3061 
Q 1681 3084 1819 3084 
Q 2600 3084 3056 2656 
Q 3513 2228 3513 1497 
Q 3513 744 3044 326 
Q 2575 -91 1722 -91 
Q 1428 -91 1123 -41 
Q 819 9 494 109 
L 494 744 
Q 775 591 1075 516 
Q 1375 441 1709 441 
Q 2250 441 2565 725 
Q 2881 1009 2881 1497 
Q 2881 1984 2565 2268 
Q 2250 2553 1709 2553 
Q 1456 2553 1204 2497 
Q 953 2441 691 2322 
L 691 4666 
z
" transform="scale(0.015625)"/>
       </defs>
       <use xlink:href="#DejaVuSans-35"/>
      </g>
     </g>
    </g>
    <g id="xtick_3">
     <g id="line2d_3">
      <g>
       <use xlink:href="#m0e97d3a2b2" x="441.699233" y="304.56" style="stroke: #000000; stroke-width: 0.8"/>
      </g>
     </g>
     <g id="text_3">
      <!-- 10 -->
      <g transform="translate(435.336733 319.158437) scale(0.1 -0.1)">
       <defs>
        <path id="DejaVuSans-31" d="M 794 531 
L 1825 531 
L 1825 4091 
L 703 3866 
L 703 4441 
L 1819 4666 
L 2450 4666 
L 2450 531 
L 3481 531 
L 3481 0 
L 794 0 
L 794 531 
z
" transform="scale(0.015625)"/>
       </defs>
       <use xlink:href="#DejaVuSans-31"/>
       <use xlink:href="#DejaVuSans-30" x="63.623047"/>
      </g>
     </g>
    </g>
    <g id="xtick_4">
     <g id="line2d_4">
      <g>
       <use xlink:href="#m0e97d3a2b2" x="590.54885" y="304.56" style="stroke: #000000; stroke-width: 0.8"/>
      </g>
     </g>
     <g id="text_4">
      <!-- 15 -->
      <g transform="translate(584.18635 319.158437) scale(0.1 -0.1)">
       <use xlink:href="#DejaVuSans-31"/>
       <use xlink:href="#DejaVuSans-35" x="63.623047"/>
      </g>
     </g>
    </g>
    <g id="xtick_5">
     <g id="line2d_5">
      <g>
       <use xlink:href="#m0e97d3a2b2" x="739.398466" y="304.56" style="stroke: #000000; stroke-width: 0.8"/>
      </g>
     </g>
     <g id="text_5">
      <!-- 20 -->
      <g transform="translate(733.035966 319.158437) scale(0.1 -0.1)">
       <defs>
        <path id="DejaVuSans-32" d="M 1228 531 
L 3431 531 
L 3431 0 
L 469 0 
L 469 531 
Q 828 903 1448 1529 
Q 2069 2156 2228 2338 
Q 2531 2678 2651 2914 
Q 2772 3150 2772 3378 
Q 2772 3750 2511 3984 
Q 2250 4219 1831 4219 
Q 1534 4219 1204 4116 
Q 875 4013 500 3803 
L 500 4441 
Q 881 4594 1212 4672 
Q 1544 4750 1819 4750 
Q 2544 4750 2975 4387 
Q 3406 4025 3406 3419 
Q 3406 3131 3298 2873 
Q 3191 2616 2906 2266 
Q 2828 2175 2409 1742 
Q 1991 1309 1228 531 
z
" transform="scale(0.015625)"/>
       </defs>
       <use xlink:href="#DejaVuSans-32"/>
       <use xlink:href="#DejaVuSans-30" x="63.623047"/>
      </g>
     </g>
    </g>
    <g id="xtick_6">
     <g id="line2d_6">
      <g>
       <use xlink:href="#m0e97d3a2b2" x="888.248083" y="304.56" style="stroke: #000000; stroke-width: 0.8"/>
      </g>
     </g>
     <g id="text_6">
      <!-- 25 -->
      <g transform="translate(881.885583 319.158437) scale(0.1 -0.1)">
       <use xlink:href="#DejaVuSans-32"/>
       <use xlink:href="#DejaVuSans-35" x="63.623047"/>
      </g>
     </g>
    </g>
   </g>
   <g id="matplotlib.axis_2">
    <g id="ytick_1">
     <g id="line2d_7">
      <defs>
       <path id="m97788c6471" d="M 0 0 
L -3.5 0 
" style="stroke: #000000; stroke-width: 0.8"/>
      </defs>
      <g>
       <use xlink:href="#m97788c6471" x="144" y="289.677716" style="stroke: #000000; stroke-width: 0.8"/>
      </g>
     </g>
     <g id="text_7">
      <!-- 0.5 -->
      <g transform="translate(121.096875 293.476935) scale(0.1 -0.1)">
       <defs>
        <path id="DejaVuSans-2e" d="M 684 794 
L 1344 794 
L 1344 0 
L 684 0 
L 684 794 
z
" transform="scale(0.015625)"/>
       </defs>
       <use xlink:href="#DejaVuSans-30"/>
       <use xlink:href="#DejaVuSans-2e" x="63.623047"/>
       <use xlink:href="#DejaVuSans-35" x="95.410156"/>
      </g>
     </g>
    </g>
    <g id="ytick_2">
     <g id="line2d_8">
      <g>
       <use xlink:href="#m97788c6471" x="144" y="256.921653" style="stroke: #000000; stroke-width: 0.8"/>
      </g>
     </g>
     <g id="text_8">
      <!-- 1.0 -->
      <g transform="translate(121.096875 260.720872) scale(0.1 -0.1)">
       <use xlink:href="#DejaVuSans-31"/>
       <use xlink:href="#DejaVuSans-2e" x="63.623047"/>
       <use xlink:href="#DejaVuSans-30" x="95.410156"/>
      </g>
     </g>
    </g>
    <g id="ytick_3">
     <g id="line2d_9">
      <g>
       <use xlink:href="#m97788c6471" x="144" y="224.16559" style="stroke: #000000; stroke-width: 0.8"/>
      </g>
     </g>
     <g id="text_9">
      <!-- 1.5 -->
      <g transform="translate(121.096875 227.964808) scale(0.1 -0.1)">
       <use xlink:href="#DejaVuSans-31"/>
       <use xlink:href="#DejaVuSans-2e" x="63.623047"/>
       <use xlink:href="#DejaVuSans-35" x="95.410156"/>
      </g>
     </g>
    </g>
    <g id="ytick_4">
     <g id="line2d_10">
      <g>
       <use xlink:href="#m97788c6471" x="144" y="191.409526" style="stroke: #000000; stroke-width: 0.8"/>
      </g>
     </g>
     <g id="text_10">
      <!-- 2.0 -->
      <g transform="translate(121.096875 195.208745) scale(0.1 -0.1)">
       <use xlink:href="#DejaVuSans-32"/>
       <use xlink:href="#DejaVuSans-2e" x="63.623047"/>
       <use xlink:href="#DejaVuSans-30" x="95.410156"/>
      </g>
     </g>
    </g>
    <g id="ytick_5">
     <g id="line2d_11">
      <g>
       <use xlink:href="#m97788c6471" x="144" y="158.653463" style="stroke: #000000; stroke-width: 0.8"/>
      </g>
     </g>
     <g id="text_11">
      <!-- 2.5 -->
      <g transform="translate(121.096875 162.452682) scale(0.1 -0.1)">
       <use xlink:href="#DejaVuSans-32"/>
       <use xlink:href="#DejaVuSans-2e" x="63.623047"/>
       <use xlink:href="#DejaVuSans-35" x="95.410156"/>
      </g>
     </g>
    </g>
    <g id="ytick_6">
     <g id="line2d_12">
      <g>
       <use xlink:href="#m97788c6471" x="144" y="125.8974" style="stroke: #000000; stroke-width: 0.8"/>
      </g>
     </g>
     <g id="text_12">
      <!-- 3.0 -->
      <g transform="translate(121.096875 129.696619) scale(0.1 -0.1)">
       <defs>
        <path id="DejaVuSans-33" d="M 2597 2516 
Q 3050 2419 3304 2112 
Q 3559 1806 3559 1356 
Q 3559 666 3084 287 
Q 2609 -91 1734 -91 
Q 1441 -91 1130 -33 
Q 819 25 488 141 
L 488 750 
Q 750 597 1062 519 
Q 1375 441 1716 441 
Q 2309 441 2620 675 
Q 2931 909 2931 1356 
Q 2931 1769 2642 2001 
Q 2353 2234 1838 2234 
L 1294 2234 
L 1294 2753 
L 1863 2753 
Q 2328 2753 2575 2939 
Q 2822 3125 2822 3475 
Q 2822 3834 2567 4026 
Q 2313 4219 1838 4219 
Q 1578 4219 1281 4162 
Q 984 4106 628 3988 
L 628 4550 
Q 988 4650 1302 4700 
Q 1616 4750 1894 4750 
Q 2613 4750 3031 4423 
Q 3450 4097 3450 3541 
Q 3450 3153 3228 2886 
Q 3006 2619 2597 2516 
z
" transform="scale(0.015625)"/>
       </defs>
       <use xlink:href="#DejaVuSans-33"/>
       <use xlink:href="#DejaVuSans-2e" x="63.623047"/>
       <use xlink:href="#DejaVuSans-30" x="95.410156"/>
      </g>
     </g>
    </g>
    <g id="ytick_7">
     <g id="line2d_13">
      <g>
       <use xlink:href="#m97788c6471" x="144" y="93.141337" style="stroke: #000000; stroke-width: 0.8"/>
      </g>
     </g>
     <g id="text_13">
      <!-- 3.5 -->
      <g transform="translate(121.096875 96.940556) scale(0.1 -0.1)">
       <use xlink:href="#DejaVuSans-33"/>
       <use xlink:href="#DejaVuSans-2e" x="63.623047"/>
       <use xlink:href="#DejaVuSans-35" x="95.410156"/>
      </g>
     </g>
    </g>
   </g>
   <g id="line2d_14">
    <path d="M 144 191.409526 
L 146.381594 191.534435 
L 156.801067 192.595882 
L 161.564255 192.725025 
L 166.922841 192.651592 
L 172.579126 192.357158 
L 179.12851 191.788487 
L 186.273291 190.949021 
L 193.418073 189.882768 
L 201.455952 188.457204 
L 209.493831 186.796076 
L 217.531711 184.904541 
L 225.867289 182.725653 
L 234.202868 180.307889 
L 242.836145 177.572454 
L 250.874025 174.816935 
L 259.507302 171.631664 
L 268.735979 167.992871 
L 278.857753 163.7495 
L 288.681827 159.391421 
L 294.338113 156.720835 
L 296.422007 155.419946 
L 306.246082 149.042871 
L 313.688563 144.571391 
L 323.214938 139.134531 
L 337.206802 131.427409 
L 352.687162 123.166454 
L 366.976726 115.869698 
L 376.503101 111.249539 
L 383.945582 107.883565 
L 391.685762 104.653295 
L 398.532844 102.028177 
L 405.677626 99.540316 
L 411.92931 97.629419 
L 416.990197 96.309327 
L 422.348783 95.143846 
L 428.005068 94.144403 
L 433.661354 93.408416 
L 437.829143 93.056788 
L 442.294632 92.92966 
L 446.76012 93.014985 
L 451.225609 93.300922 
L 455.691097 93.804601 
L 460.454285 94.563531 
L 464.622074 95.437674 
L 469.385262 96.680088 
L 474.148449 98.16965 
L 478.911637 99.918871 
L 483.674825 101.918631 
L 489.033411 104.403384 
L 493.4989 106.71527 
L 498.857486 109.756724 
L 504.216072 113.076188 
L 509.276959 116.469352 
L 515.528643 120.940087 
L 521.780327 125.673149 
L 528.032011 130.700468 
L 534.879093 136.516624 
L 542.023875 142.875847 
L 549.466355 149.763437 
L 558.992731 158.939662 
L 568.221407 168.139991 
L 578.64088 178.825318 
L 619.723374 221.258136 
L 628.952051 230.270136 
L 636.98993 237.823312 
L 644.432411 244.499481 
L 651.874892 250.875381 
L 658.126576 255.952312 
L 664.378259 260.757831 
L 670.332244 265.05002 
L 675.98853 268.853605 
L 681.347116 272.199184 
L 686.705702 275.278704 
L 691.766589 277.939265 
L 696.827476 280.36306 
L 701.888363 282.530742 
L 706.651551 284.329603 
L 711.414738 285.897065 
L 716.177926 287.225942 
L 720.941114 288.310978 
L 725.704301 289.153179 
L 730.16979 289.721813 
L 734.635278 290.070049 
L 739.100767 290.196476 
L 743.566255 290.101328 
L 748.031744 289.785066 
L 752.794932 289.225267 
L 757.558119 288.444263 
L 762.619006 287.387421 
L 767.977593 286.040219 
L 773.633878 284.384534 
L 779.587863 282.402271 
L 785.839547 280.082262 
L 792.686629 277.290605 
L 800.12911 274.008043 
L 808.166989 270.211837 
L 817.991064 265.319984 
L 829.601334 259.281299 
L 850.737979 248.015693 
L 870.683828 237.51134 
L 882.591797 231.49878 
L 893.30897 226.343781 
L 903.133044 221.857088 
L 912.361721 217.87737 
L 921.590397 214.143743 
L 930.521374 210.77759 
L 939.154652 207.763233 
L 947.787929 204.991746 
L 955.825809 202.623718 
L 963.863688 200.485427 
L 972.496966 198.429418 
L 980.534845 196.742105 
L 989.168123 195.173958 
L 996.908303 193.994362 
L 1004.946182 192.985485 
L 1012.984061 192.200561 
L 1021.617339 191.607943 
L 1029.357519 191.303479 
L 1036.8 191.201033 
L 1036.8 191.201033 
" clip-path="url(#p7733fb31fe)" style="fill: none; stroke-dasharray: 5.55,2.4; stroke-dashoffset: 0; stroke: #ffa500; stroke-width: 1.5"/>
   </g>
   <g id="line2d_15">
    <path d="M 292.849617 155.524392 
L 301.780594 149.656901 
L 310.711571 144.237369 
L 319.642548 139.109158 
L 334.527509 130.860089 
L 349.412471 122.864113 
L 364.297432 115.206174 
L 373.228409 110.837437 
L 382.159386 106.775336 
L 391.090363 103.078679 
L 397.044348 100.823589 
L 402.998333 98.753327 
L 408.952317 96.919012 
L 414.906302 95.358593 
L 420.860287 94.09868 
L 426.814271 93.108065 
L 432.768256 92.422854 
L 435.745248 92.216837 
L 441.699233 92.15066 
L 447.653218 92.45463 
L 453.607202 93.145352 
L 459.561187 94.207453 
L 465.515172 95.678905 
L 471.469156 97.54518 
L 477.423141 99.817236 
L 483.377126 102.473021 
L 489.33111 105.440689 
L 495.285095 108.813244 
L 501.23908 112.520121 
L 507.193064 116.563914 
L 513.147049 120.891686 
L 519.101034 125.451303 
L 525.055018 130.276834 
L 531.009003 135.351068 
L 536.962988 140.631645 
L 545.893965 148.866436 
L 554.824942 157.48361 
L 563.755919 166.371375 
L 575.663888 178.595485 
L 614.364788 218.730924 
L 623.295765 227.541351 
L 632.226742 236.042833 
L 641.157719 244.115644 
L 650.088696 251.747276 
L 656.042681 256.543901 
L 661.996666 261.091648 
L 667.95065 265.358875 
L 673.904635 269.325899 
L 679.85862 272.980528 
L 685.812604 276.30701 
L 691.766589 279.297645 
L 697.720574 281.948989 
L 703.674558 284.236854 
L 709.628543 286.16151 
L 715.582528 287.710488 
L 721.536512 288.876385 
L 727.490497 289.663751 
L 733.444481 290.05854 
L 739.398466 290.060841 
L 745.352451 289.670437 
L 751.306435 288.916851 
L 757.26042 287.824065 
L 763.214405 286.425465 
L 769.168389 284.751936 
L 775.122374 282.8286 
L 781.076359 280.675134 
L 787.030343 278.315742 
L 792.984328 275.77944 
L 801.915305 271.68671 
L 810.846282 267.32413 
L 822.754251 261.211057 
L 843.593198 250.127852 
L 864.432144 239.082916 
L 876.340113 232.994519 
L 885.27109 228.608901 
L 897.17906 223.046102 
L 906.110037 219.11122 
L 915.041014 215.40413 
L 923.971991 211.935303 
L 932.902968 208.715076 
L 941.833945 205.75196 
L 950.764922 203.041539 
L 959.695899 200.604865 
L 968.626876 198.451152 
L 977.557853 196.555005 
L 986.48883 194.937352 
L 995.419807 193.599246 
L 1004.350784 192.534908 
L 1013.281761 191.753131 
L 1022.212738 191.241902 
L 1031.143715 191.016116 
L 1034.120707 191.001548 
L 1034.120707 191.001548 
" clip-path="url(#p7733fb31fe)" style="fill: none; stroke: #0000ff; stroke-opacity: 0.5; stroke-width: 1.5; stroke-linecap: square"/>
   </g>
   <g id="patch_3">
    <path d="M 144 304.56 
L 144 77.76 
" style="fill: none; stroke: #000000; stroke-width: 0.8; stroke-linejoin: miter; stroke-linecap: square"/>
   </g>
   <g id="patch_4">
    <path d="M 1036.8 304.56 
L 1036.8 77.76 
" style="fill: none; stroke: #000000; stroke-width: 0.8; stroke-linejoin: miter; stroke-linecap: square"/>
   </g>
   <g id="patch_5">
    <path d="M 144 304.56 
L 1036.8 304.56 
" style="fill: none; stroke: #000000; stroke-width: 0.8; stroke-linejoin: miter; stroke-linecap: square"/>
   </g>
   <g id="patch_6">
    <path d="M 144 77.76 
L 1036.8 77.76 
" style="fill: none; stroke: #000000; stroke-width: 0.8; stroke-linejoin: miter; stroke-linecap: square"/>
   </g>
   <g id="legend_1">
    <g id="patch_7">
     <path d="M 924.2 129.838125 
L 1029.8 129.838125 
Q 1031.8 129.838125 1031.8 127.838125 
L 1031.8 84.76 
Q 1031.8 82.76 1029.8 82.76 
L 924.2 82.76 
Q 922.2 82.76 922.2 84.76 
L 922.2 127.838125 
Q 922.2 129.838125 924.2 129.838125 
z
" style="fill: #ffffff; opacity: 0.8; stroke: #cccccc; stroke-linejoin: miter"/>
    </g>
    <g id="line2d_16">
     <path d="M 926.2 90.86 
L 936.2 90.86 
L 946.2 90.86 
" style="fill: none; stroke-dasharray: 5.55,2.4; stroke-dashoffset: 0; stroke: #ffa500; stroke-width: 1.5"/>
    </g>
    <g id="text_14">
     <!-- Real $y$ Position -->
     <g transform="translate(954.2 94.36) scale(0.1 -0.1)">
      <defs>
       <path id="DejaVuSans-52" d="M 2841 2188 
Q 3044 2119 3236 1894 
Q 3428 1669 3622 1275 
L 4263 0 
L 3584 0 
L 2988 1197 
Q 2756 1666 2539 1819 
Q 2322 1972 1947 1972 
L 1259 1972 
L 1259 0 
L 628 0 
L 628 4666 
L 2053 4666 
Q 2853 4666 3247 4331 
Q 3641 3997 3641 3322 
Q 3641 2881 3436 2590 
Q 3231 2300 2841 2188 
z
M 1259 4147 
L 1259 2491 
L 2053 2491 
Q 2509 2491 2742 2702 
Q 2975 2913 2975 3322 
Q 2975 3731 2742 3939 
Q 2509 4147 2053 4147 
L 1259 4147 
z
" transform="scale(0.015625)"/>
       <path id="DejaVuSans-65" d="M 3597 1894 
L 3597 1613 
L 953 1613 
Q 991 1019 1311 708 
Q 1631 397 2203 397 
Q 2534 397 2845 478 
Q 3156 559 3463 722 
L 3463 178 
Q 3153 47 2828 -22 
Q 2503 -91 2169 -91 
Q 1331 -91 842 396 
Q 353 884 353 1716 
Q 353 2575 817 3079 
Q 1281 3584 2069 3584 
Q 2775 3584 3186 3129 
Q 3597 2675 3597 1894 
z
M 3022 2063 
Q 3016 2534 2758 2815 
Q 2500 3097 2075 3097 
Q 1594 3097 1305 2825 
Q 1016 2553 972 2059 
L 3022 2063 
z
" transform="scale(0.015625)"/>
       <path id="DejaVuSans-61" d="M 2194 1759 
Q 1497 1759 1228 1600 
Q 959 1441 959 1056 
Q 959 750 1161 570 
Q 1363 391 1709 391 
Q 2188 391 2477 730 
Q 2766 1069 2766 1631 
L 2766 1759 
L 2194 1759 
z
M 3341 1997 
L 3341 0 
L 2766 0 
L 2766 531 
Q 2569 213 2275 61 
Q 1981 -91 1556 -91 
Q 1019 -91 701 211 
Q 384 513 384 1019 
Q 384 1609 779 1909 
Q 1175 2209 1959 2209 
L 2766 2209 
L 2766 2266 
Q 2766 2663 2505 2880 
Q 2244 3097 1772 3097 
Q 1472 3097 1187 3025 
Q 903 2953 641 2809 
L 641 3341 
Q 956 3463 1253 3523 
Q 1550 3584 1831 3584 
Q 2591 3584 2966 3190 
Q 3341 2797 3341 1997 
z
" transform="scale(0.015625)"/>
       <path id="DejaVuSans-6c" d="M 603 4863 
L 1178 4863 
L 1178 0 
L 603 0 
L 603 4863 
z
" transform="scale(0.015625)"/>
       <path id="DejaVuSans-20" transform="scale(0.015625)"/>
       <path id="DejaVuSans-Oblique-79" d="M 1588 -325 
Q 1188 -997 936 -1164 
Q 684 -1331 294 -1331 
L -159 -1331 
L -63 -850 
L 269 -850 
Q 509 -850 678 -719 
Q 847 -588 1056 -206 
L 1234 128 
L 459 3500 
L 1069 3500 
L 1650 819 
L 3256 3500 
L 3859 3500 
L 1588 -325 
z
" transform="scale(0.015625)"/>
       <path id="DejaVuSans-50" d="M 1259 4147 
L 1259 2394 
L 2053 2394 
Q 2494 2394 2734 2622 
Q 2975 2850 2975 3272 
Q 2975 3691 2734 3919 
Q 2494 4147 2053 4147 
L 1259 4147 
z
M 628 4666 
L 2053 4666 
Q 2838 4666 3239 4311 
Q 3641 3956 3641 3272 
Q 3641 2581 3239 2228 
Q 2838 1875 2053 1875 
L 1259 1875 
L 1259 0 
L 628 0 
L 628 4666 
z
" transform="scale(0.015625)"/>
       <path id="DejaVuSans-6f" d="M 1959 3097 
Q 1497 3097 1228 2736 
Q 959 2375 959 1747 
Q 959 1119 1226 758 
Q 1494 397 1959 397 
Q 2419 397 2687 759 
Q 2956 1122 2956 1747 
Q 2956 2369 2687 2733 
Q 2419 3097 1959 3097 
z
M 1959 3584 
Q 2709 3584 3137 3096 
Q 3566 2609 3566 1747 
Q 3566 888 3137 398 
Q 2709 -91 1959 -91 
Q 1206 -91 779 398 
Q 353 888 353 1747 
Q 353 2609 779 3096 
Q 1206 3584 1959 3584 
z
" transform="scale(0.015625)"/>
       <path id="DejaVuSans-73" d="M 2834 3397 
L 2834 2853 
Q 2591 2978 2328 3040 
Q 2066 3103 1784 3103 
Q 1356 3103 1142 2972 
Q 928 2841 928 2578 
Q 928 2378 1081 2264 
Q 1234 2150 1697 2047 
L 1894 2003 
Q 2506 1872 2764 1633 
Q 3022 1394 3022 966 
Q 3022 478 2636 193 
Q 2250 -91 1575 -91 
Q 1294 -91 989 -36 
Q 684 19 347 128 
L 347 722 
Q 666 556 975 473 
Q 1284 391 1588 391 
Q 1994 391 2212 530 
Q 2431 669 2431 922 
Q 2431 1156 2273 1281 
Q 2116 1406 1581 1522 
L 1381 1569 
Q 847 1681 609 1914 
Q 372 2147 372 2553 
Q 372 3047 722 3315 
Q 1072 3584 1716 3584 
Q 2034 3584 2315 3537 
Q 2597 3491 2834 3397 
z
" transform="scale(0.015625)"/>
       <path id="DejaVuSans-69" d="M 603 3500 
L 1178 3500 
L 1178 0 
L 603 0 
L 603 3500 
z
M 603 4863 
L 1178 4863 
L 1178 4134 
L 603 4134 
L 603 4863 
z
" transform="scale(0.015625)"/>
       <path id="DejaVuSans-74" d="M 1172 4494 
L 1172 3500 
L 2356 3500 
L 2356 3053 
L 1172 3053 
L 1172 1153 
Q 1172 725 1289 603 
Q 1406 481 1766 481 
L 2356 481 
L 2356 0 
L 1766 0 
Q 1100 0 847 248 
Q 594 497 594 1153 
L 594 3053 
L 172 3053 
L 172 3500 
L 594 3500 
L 594 4494 
L 1172 4494 
z
" transform="scale(0.015625)"/>
       <path id="DejaVuSans-6e" d="M 3513 2113 
L 3513 0 
L 2938 0 
L 2938 2094 
Q 2938 2591 2744 2837 
Q 2550 3084 2163 3084 
Q 1697 3084 1428 2787 
Q 1159 2491 1159 1978 
L 1159 0 
L 581 0 
L 581 3500 
L 1159 3500 
L 1159 2956 
Q 1366 3272 1645 3428 
Q 1925 3584 2291 3584 
Q 2894 3584 3203 3211 
Q 3513 2838 3513 2113 
z
" transform="scale(0.015625)"/>
      </defs>
      <use xlink:href="#DejaVuSans-52" transform="translate(0 0.015625)"/>
      <use xlink:href="#DejaVuSans-65" transform="translate(69.482422 0.015625)"/>
      <use xlink:href="#DejaVuSans-61" transform="translate(131.005859 0.015625)"/>
      <use xlink:href="#DejaVuSans-6c" transform="translate(192.285156 0.015625)"/>
      <use xlink:href="#DejaVuSans-20" transform="translate(220.068359 0.015625)"/>
      <use xlink:href="#DejaVuSans-Oblique-79" transform="translate(251.855469 0.015625)"/>
      <use xlink:href="#DejaVuSans-20" transform="translate(311.035156 0.015625)"/>
      <use xlink:href="#DejaVuSans-50" transform="translate(342.822266 0.015625)"/>
      <use xlink:href="#DejaVuSans-6f" transform="translate(403.125 0.015625)"/>
      <use xlink:href="#DejaVuSans-73" transform="translate(464.306641 0.015625)"/>
      <use xlink:href="#DejaVuSans-69" transform="translate(516.40625 0.015625)"/>
      <use xlink:href="#DejaVuSans-74" transform="translate(544.189453 0.015625)"/>
      <use xlink:href="#DejaVuSans-69" transform="translate(583.398438 0.015625)"/>
      <use xlink:href="#DejaVuSans-6f" transform="translate(611.181641 0.015625)"/>
      <use xlink:href="#DejaVuSans-6e" transform="translate(672.363281 0.015625)"/>
     </g>
    </g>
    <g id="line2d_17">
     <path d="M 926.2 105.56 
L 936.2 105.56 
L 946.2 105.56 
" style="fill: none; stroke: #0000ff; stroke-opacity: 0.5; stroke-width: 1.5; stroke-linecap: square"/>
    </g>
    <g id="text_15">
     <!-- Prediction $y$ -->
     <g transform="translate(954.2 109.06) scale(0.1 -0.1)">
      <defs>
       <path id="DejaVuSans-72" d="M 2631 2963 
Q 2534 3019 2420 3045 
Q 2306 3072 2169 3072 
Q 1681 3072 1420 2755 
Q 1159 2438 1159 1844 
L 1159 0 
L 581 0 
L 581 3500 
L 1159 3500 
L 1159 2956 
Q 1341 3275 1631 3429 
Q 1922 3584 2338 3584 
Q 2397 3584 2469 3576 
Q 2541 3569 2628 3553 
L 2631 2963 
z
" transform="scale(0.015625)"/>
       <path id="DejaVuSans-64" d="M 2906 2969 
L 2906 4863 
L 3481 4863 
L 3481 0 
L 2906 0 
L 2906 525 
Q 2725 213 2448 61 
Q 2172 -91 1784 -91 
Q 1150 -91 751 415 
Q 353 922 353 1747 
Q 353 2572 751 3078 
Q 1150 3584 1784 3584 
Q 2172 3584 2448 3432 
Q 2725 3281 2906 2969 
z
M 947 1747 
Q 947 1113 1208 752 
Q 1469 391 1925 391 
Q 2381 391 2643 752 
Q 2906 1113 2906 1747 
Q 2906 2381 2643 2742 
Q 2381 3103 1925 3103 
Q 1469 3103 1208 2742 
Q 947 2381 947 1747 
z
" transform="scale(0.015625)"/>
       <path id="DejaVuSans-63" d="M 3122 3366 
L 3122 2828 
Q 2878 2963 2633 3030 
Q 2388 3097 2138 3097 
Q 1578 3097 1268 2742 
Q 959 2388 959 1747 
Q 959 1106 1268 751 
Q 1578 397 2138 397 
Q 2388 397 2633 464 
Q 2878 531 3122 666 
L 3122 134 
Q 2881 22 2623 -34 
Q 2366 -91 2075 -91 
Q 1284 -91 818 406 
Q 353 903 353 1747 
Q 353 2603 823 3093 
Q 1294 3584 2113 3584 
Q 2378 3584 2631 3529 
Q 2884 3475 3122 3366 
z
" transform="scale(0.015625)"/>
      </defs>
      <use xlink:href="#DejaVuSans-50" transform="translate(0 0.015625)"/>
      <use xlink:href="#DejaVuSans-72" transform="translate(60.302734 0.015625)"/>
      <use xlink:href="#DejaVuSans-65" transform="translate(101.416016 0.015625)"/>
      <use xlink:href="#DejaVuSans-64" transform="translate(162.939453 0.015625)"/>
      <use xlink:href="#DejaVuSans-69" transform="translate(226.416016 0.015625)"/>
      <use xlink:href="#DejaVuSans-63" transform="translate(254.199219 0.015625)"/>
      <use xlink:href="#DejaVuSans-74" transform="translate(309.179688 0.015625)"/>
      <use xlink:href="#DejaVuSans-69" transform="translate(348.388672 0.015625)"/>
      <use xlink:href="#DejaVuSans-6f" transform="translate(376.171875 0.015625)"/>
      <use xlink:href="#DejaVuSans-6e" transform="translate(437.353516 0.015625)"/>
      <use xlink:href="#DejaVuSans-20" transform="translate(500.732422 0.015625)"/>
      <use xlink:href="#DejaVuSans-Oblique-79" transform="translate(532.519531 0.015625)"/>
     </g>
    </g>
    <g id="patch_8">
     <path d="M 926.2 123.758438 
L 946.2 123.758438 
L 946.2 116.758438 
L 926.2 116.758438 
z
" style="fill: #00ffff; fill-opacity: 0.5; stroke: #00ffff; stroke-opacity: 0.5; stroke-linejoin: miter"/>
    </g>
    <g id="text_16">
     <!-- Confidence -->
     <g transform="translate(954.2 123.758438) scale(0.1 -0.1)">
      <defs>
       <path id="DejaVuSans-43" d="M 4122 4306 
L 4122 3641 
Q 3803 3938 3442 4084 
Q 3081 4231 2675 4231 
Q 1875 4231 1450 3742 
Q 1025 3253 1025 2328 
Q 1025 1406 1450 917 
Q 1875 428 2675 428 
Q 3081 428 3442 575 
Q 3803 722 4122 1019 
L 4122 359 
Q 3791 134 3420 21 
Q 3050 -91 2638 -91 
Q 1578 -91 968 557 
Q 359 1206 359 2328 
Q 359 3453 968 4101 
Q 1578 4750 2638 4750 
Q 3056 4750 3426 4639 
Q 3797 4528 4122 4306 
z
" transform="scale(0.015625)"/>
       <path id="DejaVuSans-66" d="M 2375 4863 
L 2375 4384 
L 1825 4384 
Q 1516 4384 1395 4259 
Q 1275 4134 1275 3809 
L 1275 3500 
L 2222 3500 
L 2222 3053 
L 1275 3053 
L 1275 0 
L 697 0 
L 697 3053 
L 147 3053 
L 147 3500 
L 697 3500 
L 697 3744 
Q 697 4328 969 4595 
Q 1241 4863 1831 4863 
L 2375 4863 
z
" transform="scale(0.015625)"/>
      </defs>
      <use xlink:href="#DejaVuSans-43"/>
      <use xlink:href="#DejaVuSans-6f" x="69.824219"/>
      <use xlink:href="#DejaVuSans-6e" x="131.005859"/>
      <use xlink:href="#DejaVuSans-66" x="194.384766"/>
      <use xlink:href="#DejaVuSans-69" x="229.589844"/>
      <use xlink:href="#DejaVuSans-64" x="257.373047"/>
      <use xlink:href="#DejaVuSans-65" x="320.849609"/>
      <use xlink:href="#DejaVuSans-6e" x="382.373047"/>
      <use xlink:href="#DejaVuSans-63" x="445.751953"/>
      <use xlink:href="#DejaVuSans-65" x="500.732422"/>
     </g>
    </g>
   </g>
  </g>
  <g id="axes_2">
   <g id="patch_9">
    <path d="M 144 576.72 
L 1036.8 576.72 
L 1036.8 349.92 
L 144 349.92 
z
" style="fill: #ffffff"/>
   </g>
   <g id="matplotlib.axis_3">
    <g id="xtick_7">
     <g id="line2d_18">
      <g>
       <use xlink:href="#m0e97d3a2b2" x="144" y="576.72" style="stroke: #000000; stroke-width: 0.8"/>
      </g>
     </g>
     <g id="text_17">
      <!-- 0 -->
      <g transform="translate(140.81875 591.318438) scale(0.1 -0.1)">
       <use xlink:href="#DejaVuSans-30"/>
      </g>
     </g>
    </g>
    <g id="xtick_8">
     <g id="line2d_19">
      <g>
       <use xlink:href="#m0e97d3a2b2" x="292.849617" y="576.72" style="stroke: #000000; stroke-width: 0.8"/>
      </g>
     </g>
     <g id="text_18">
      <!-- 5 -->
      <g transform="translate(289.668367 591.318438) scale(0.1 -0.1)">
       <use xlink:href="#DejaVuSans-35"/>
      </g>
     </g>
    </g>
    <g id="xtick_9">
     <g id="line2d_20">
      <g>
       <use xlink:href="#m0e97d3a2b2" x="441.699233" y="576.72" style="stroke: #000000; stroke-width: 0.8"/>
      </g>
     </g>
     <g id="text_19">
      <!-- 10 -->
      <g transform="translate(435.336733 591.318438) scale(0.1 -0.1)">
       <use xlink:href="#DejaVuSans-31"/>
       <use xlink:href="#DejaVuSans-30" x="63.623047"/>
      </g>
     </g>
    </g>
    <g id="xtick_10">
     <g id="line2d_21">
      <g>
       <use xlink:href="#m0e97d3a2b2" x="590.54885" y="576.72" style="stroke: #000000; stroke-width: 0.8"/>
      </g>
     </g>
     <g id="text_20">
      <!-- 15 -->
      <g transform="translate(584.18635 591.318438) scale(0.1 -0.1)">
       <use xlink:href="#DejaVuSans-31"/>
       <use xlink:href="#DejaVuSans-35" x="63.623047"/>
      </g>
     </g>
    </g>
    <g id="xtick_11">
     <g id="line2d_22">
      <g>
       <use xlink:href="#m0e97d3a2b2" x="739.398466" y="576.72" style="stroke: #000000; stroke-width: 0.8"/>
      </g>
     </g>
     <g id="text_21">
      <!-- 20 -->
      <g transform="translate(733.035966 591.318438) scale(0.1 -0.1)">
       <use xlink:href="#DejaVuSans-32"/>
       <use xlink:href="#DejaVuSans-30" x="63.623047"/>
      </g>
     </g>
    </g>
    <g id="xtick_12">
     <g id="line2d_23">
      <g>
       <use xlink:href="#m0e97d3a2b2" x="888.248083" y="576.72" style="stroke: #000000; stroke-width: 0.8"/>
      </g>
     </g>
     <g id="text_22">
      <!-- 25 -->
      <g transform="translate(881.885583 591.318438) scale(0.1 -0.1)">
       <use xlink:href="#DejaVuSans-32"/>
       <use xlink:href="#DejaVuSans-35" x="63.623047"/>
      </g>
     </g>
    </g>
   </g>
   <g id="matplotlib.axis_4">
    <g id="ytick_8">
     <g id="line2d_24">
      <g>
       <use xlink:href="#m97788c6471" x="144" y="554.057918" style="stroke: #000000; stroke-width: 0.8"/>
      </g>
     </g>
     <g id="text_23">
      <!-- −0.03 -->
      <g transform="translate(106.354687 557.857137) scale(0.1 -0.1)">
       <defs>
        <path id="DejaVuSans-2212" d="M 678 2272 
L 4684 2272 
L 4684 1741 
L 678 1741 
L 678 2272 
z
" transform="scale(0.015625)"/>
       </defs>
       <use xlink:href="#DejaVuSans-2212"/>
       <use xlink:href="#DejaVuSans-30" x="83.789062"/>
       <use xlink:href="#DejaVuSans-2e" x="147.412109"/>
       <use xlink:href="#DejaVuSans-30" x="179.199219"/>
       <use xlink:href="#DejaVuSans-33" x="242.822266"/>
      </g>
     </g>
    </g>
    <g id="ytick_9">
     <g id="line2d_25">
      <g>
       <use xlink:href="#m97788c6471" x="144" y="528.068481" style="stroke: #000000; stroke-width: 0.8"/>
      </g>
     </g>
     <g id="text_24">
      <!-- −0.02 -->
      <g transform="translate(106.354687 531.8677) scale(0.1 -0.1)">
       <use xlink:href="#DejaVuSans-2212"/>
       <use xlink:href="#DejaVuSans-30" x="83.789062"/>
       <use xlink:href="#DejaVuSans-2e" x="147.412109"/>
       <use xlink:href="#DejaVuSans-30" x="179.199219"/>
       <use xlink:href="#DejaVuSans-32" x="242.822266"/>
      </g>
     </g>
    </g>
    <g id="ytick_10">
     <g id="line2d_26">
      <g>
       <use xlink:href="#m97788c6471" x="144" y="502.079044" style="stroke: #000000; stroke-width: 0.8"/>
      </g>
     </g>
     <g id="text_25">
      <!-- −0.01 -->
      <g transform="translate(106.354687 505.878263) scale(0.1 -0.1)">
       <use xlink:href="#DejaVuSans-2212"/>
       <use xlink:href="#DejaVuSans-30" x="83.789062"/>
       <use xlink:href="#DejaVuSans-2e" x="147.412109"/>
       <use xlink:href="#DejaVuSans-30" x="179.199219"/>
       <use xlink:href="#DejaVuSans-31" x="242.822266"/>
      </g>
     </g>
    </g>
    <g id="ytick_11">
     <g id="line2d_27">
      <g>
       <use xlink:href="#m97788c6471" x="144" y="476.089607" style="stroke: #000000; stroke-width: 0.8"/>
      </g>
     </g>
     <g id="text_26">
      <!-- 0.00 -->
      <g transform="translate(114.734375 479.888826) scale(0.1 -0.1)">
       <use xlink:href="#DejaVuSans-30"/>
       <use xlink:href="#DejaVuSans-2e" x="63.623047"/>
       <use xlink:href="#DejaVuSans-30" x="95.410156"/>
       <use xlink:href="#DejaVuSans-30" x="159.033203"/>
      </g>
     </g>
    </g>
    <g id="ytick_12">
     <g id="line2d_28">
      <g>
       <use xlink:href="#m97788c6471" x="144" y="450.10017" style="stroke: #000000; stroke-width: 0.8"/>
      </g>
     </g>
     <g id="text_27">
      <!-- 0.01 -->
      <g transform="translate(114.734375 453.899389) scale(0.1 -0.1)">
       <use xlink:href="#DejaVuSans-30"/>
       <use xlink:href="#DejaVuSans-2e" x="63.623047"/>
       <use xlink:href="#DejaVuSans-30" x="95.410156"/>
       <use xlink:href="#DejaVuSans-31" x="159.033203"/>
      </g>
     </g>
    </g>
    <g id="ytick_13">
     <g id="line2d_29">
      <g>
       <use xlink:href="#m97788c6471" x="144" y="424.110733" style="stroke: #000000; stroke-width: 0.8"/>
      </g>
     </g>
     <g id="text_28">
      <!-- 0.02 -->
      <g transform="translate(114.734375 427.909952) scale(0.1 -0.1)">
       <use xlink:href="#DejaVuSans-30"/>
       <use xlink:href="#DejaVuSans-2e" x="63.623047"/>
       <use xlink:href="#DejaVuSans-30" x="95.410156"/>
       <use xlink:href="#DejaVuSans-32" x="159.033203"/>
      </g>
     </g>
    </g>
    <g id="ytick_14">
     <g id="line2d_30">
      <g>
       <use xlink:href="#m97788c6471" x="144" y="398.121297" style="stroke: #000000; stroke-width: 0.8"/>
      </g>
     </g>
     <g id="text_29">
      <!-- 0.03 -->
      <g transform="translate(114.734375 401.920515) scale(0.1 -0.1)">
       <use xlink:href="#DejaVuSans-30"/>
       <use xlink:href="#DejaVuSans-2e" x="63.623047"/>
       <use xlink:href="#DejaVuSans-30" x="95.410156"/>
       <use xlink:href="#DejaVuSans-33" x="159.033203"/>
      </g>
     </g>
    </g>
    <g id="ytick_15">
     <g id="line2d_31">
      <g>
       <use xlink:href="#m97788c6471" x="144" y="372.13186" style="stroke: #000000; stroke-width: 0.8"/>
      </g>
     </g>
     <g id="text_30">
      <!-- 0.04 -->
      <g transform="translate(114.734375 375.931078) scale(0.1 -0.1)">
       <defs>
        <path id="DejaVuSans-34" d="M 2419 4116 
L 825 1625 
L 2419 1625 
L 2419 4116 
z
M 2253 4666 
L 3047 4666 
L 3047 1625 
L 3713 1625 
L 3713 1100 
L 3047 1100 
L 3047 0 
L 2419 0 
L 2419 1100 
L 313 1100 
L 313 1709 
L 2253 4666 
z
" transform="scale(0.015625)"/>
       </defs>
       <use xlink:href="#DejaVuSans-30"/>
       <use xlink:href="#DejaVuSans-2e" x="63.623047"/>
       <use xlink:href="#DejaVuSans-30" x="95.410156"/>
       <use xlink:href="#DejaVuSans-34" x="159.033203"/>
      </g>
     </g>
    </g>
   </g>
   <g id="line2d_32">
    <path d="M 144 553.75691 
L 173.769923 566.410909 
L 203.539847 566.134838 
L 233.30977 563.899395 
L 263.079693 561.780577 
L 322.61954 559.082592 
L 352.389463 558.148269 
L 382.159386 557.461969 
L 411.92931 556.968786 
L 441.699233 556.616383 
L 501.23908 556.303565 
L 531.009003 556.515861 
L 560.778926 556.392245 
L 620.318773 556.486702 
L 650.088696 556.308084 
L 679.85862 556.491138 
L 709.628543 556.047661 
L 739.398466 555.768753 
L 798.938313 556.103294 
L 828.708236 555.703133 
L 888.248083 555.277397 
L 918.018006 554.905271 
L 1007.327776 552.325381 
L 1037.097699 551.016751 
L 1066.867623 550.040003 
L 1096.637546 549.382994 
L 1126.407469 548.021135 
L 1153 547.225537 
L 1153 547.225537 
" clip-path="url(#pd10aa64f89)" style="fill: none; stroke: #1f77b4; stroke-width: 1.5; stroke-linecap: square"/>
   </g>
   <g id="patch_10">
    <path d="M 144 576.72 
L 144 349.92 
" style="fill: none; stroke: #000000; stroke-width: 0.8; stroke-linejoin: miter; stroke-linecap: square"/>
   </g>
   <g id="patch_11">
    <path d="M 1036.8 576.72 
L 1036.8 349.92 
" style="fill: none; stroke: #000000; stroke-width: 0.8; stroke-linejoin: miter; stroke-linecap: square"/>
   </g>
   <g id="patch_12">
    <path d="M 144 576.72 
L 1036.8 576.72 
" style="fill: none; stroke: #000000; stroke-width: 0.8; stroke-linejoin: miter; stroke-linecap: square"/>
   </g>
   <g id="patch_13">
    <path d="M 144 349.92 
L 1036.8 349.92 
" style="fill: none; stroke: #000000; stroke-width: 0.8; stroke-linejoin: miter; stroke-linecap: square"/>
   </g>
   <g id="legend_2">
    <g id="patch_14">
     <path d="M 920.578125 372.598125 
L 1029.8 372.598125 
Q 1031.8 372.598125 1031.8 370.598125 
L 1031.8 356.92 
Q 1031.8 354.92 1029.8 354.92 
L 920.578125 354.92 
Q 918.578125 354.92 918.578125 356.92 
L 918.578125 370.598125 
Q 918.578125 372.598125 920.578125 372.598125 
z
" style="fill: #ffffff; opacity: 0.8; stroke: #cccccc; stroke-linejoin: miter"/>
    </g>
    <g id="line2d_33">
     <path d="M 922.578125 363.018437 
L 932.578125 363.018437 
L 942.578125 363.018437 
" style="fill: none; stroke: #1f77b4; stroke-width: 1.5; stroke-linecap: square"/>
    </g>
    <g id="text_31">
     <!-- Prediction Error -->
     <g transform="translate(950.578125 366.518437) scale(0.1 -0.1)">
      <defs>
       <path id="DejaVuSans-45" d="M 628 4666 
L 3578 4666 
L 3578 4134 
L 1259 4134 
L 1259 2753 
L 3481 2753 
L 3481 2222 
L 1259 2222 
L 1259 531 
L 3634 531 
L 3634 0 
L 628 0 
L 628 4666 
z
" transform="scale(0.015625)"/>
      </defs>
      <use xlink:href="#DejaVuSans-50"/>
      <use xlink:href="#DejaVuSans-72" x="58.552734"/>
      <use xlink:href="#DejaVuSans-65" x="97.416016"/>
      <use xlink:href="#DejaVuSans-64" x="158.939453"/>
      <use xlink:href="#DejaVuSans-69" x="222.416016"/>
      <use xlink:href="#DejaVuSans-63" x="250.199219"/>
      <use xlink:href="#DejaVuSans-74" x="305.179688"/>
      <use xlink:href="#DejaVuSans-69" x="344.388672"/>
      <use xlink:href="#DejaVuSans-6f" x="372.171875"/>
      <use xlink:href="#DejaVuSans-6e" x="433.353516"/>
      <use xlink:href="#DejaVuSans-20" x="496.732422"/>
      <use xlink:href="#DejaVuSans-45" x="528.519531"/>
      <use xlink:href="#DejaVuSans-72" x="591.703125"/>
      <use xlink:href="#DejaVuSans-72" x="631.066406"/>
      <use xlink:href="#DejaVuSans-6f" x="669.929688"/>
      <use xlink:href="#DejaVuSans-72" x="731.111328"/>
     </g>
    </g>
   </g>
  </g>
  <g id="text_32">
   <!-- $y$-Position Prediction -->
   <g transform="translate(514.74 22.08) scale(0.12 -0.12)">
    <defs>
     <path id="DejaVuSans-2d" d="M 313 2009 
L 1997 2009 
L 1997 1497 
L 313 1497 
L 313 2009 
z
" transform="scale(0.015625)"/>
    </defs>
    <use xlink:href="#DejaVuSans-Oblique-79" transform="translate(0 0.015625)"/>
    <use xlink:href="#DejaVuSans-2d" transform="translate(59.179688 0.015625)"/>
    <use xlink:href="#DejaVuSans-50" transform="translate(95.263672 0.015625)"/>
    <use xlink:href="#DejaVuSans-6f" transform="translate(155.566406 0.015625)"/>
    <use xlink:href="#DejaVuSans-73" transform="translate(216.748047 0.015625)"/>
    <use xlink:href="#DejaVuSans-69" transform="translate(268.847656 0.015625)"/>
    <use xlink:href="#DejaVuSans-74" transform="translate(296.630859 0.015625)"/>
    <use xlink:href="#DejaVuSans-69" transform="translate(335.839844 0.015625)"/>
    <use xlink:href="#DejaVuSans-6f" transform="translate(363.623047 0.015625)"/>
    <use xlink:href="#DejaVuSans-6e" transform="translate(424.804688 0.015625)"/>
    <use xlink:href="#DejaVuSans-20" transform="translate(488.183594 0.015625)"/>
    <use xlink:href="#DejaVuSans-50" transform="translate(519.970703 0.015625)"/>
    <use xlink:href="#DejaVuSans-72" transform="translate(580.273438 0.015625)"/>
    <use xlink:href="#DejaVuSans-65" transform="translate(621.386719 0.015625)"/>
    <use xlink:href="#DejaVuSans-64" transform="translate(682.910156 0.015625)"/>
    <use xlink:href="#DejaVuSans-69" transform="translate(746.386719 0.015625)"/>
    <use xlink:href="#DejaVuSans-63" transform="translate(774.169922 0.015625)"/>
    <use xlink:href="#DejaVuSans-74" transform="translate(829.150391 0.015625)"/>
    <use xlink:href="#DejaVuSans-69" transform="translate(868.359375 0.015625)"/>
    <use xlink:href="#DejaVuSans-6f" transform="translate(896.142578 0.015625)"/>
    <use xlink:href="#DejaVuSans-6e" transform="translate(957.324219 0.015625)"/>
   </g>
  </g>
 </g>
 <defs>
  <clipPath id="p7733fb31fe">
   <rect x="144" y="77.76" width="892.8" height="226.8"/>
  </clipPath>
  <clipPath id="pd10aa64f89">
   <rect x="144" y="349.92" width="892.8" height="226.8"/>
  </clipPath>
 </defs>
</svg>
