<?xml version="1.0" encoding="utf-8" standalone="no"?>
<!DOCTYPE svg PUBLIC "-//W3C//DTD SVG 1.1//EN"
  "http://www.w3.org/Graphics/SVG/1.1/DTD/svg11.dtd">
<svg xmlns:xlink="http://www.w3.org/1999/xlink" width="1152pt" height="648pt" viewBox="0 0 1152 648" xmlns="http://www.w3.org/2000/svg" version="1.1">
 <metadata>
  <rdf:RDF xmlns:dc="http://purl.org/dc/elements/1.1/" xmlns:cc="http://creativecommons.org/ns#" xmlns:rdf="http://www.w3.org/1999/02/22-rdf-syntax-ns#">
   <cc:Work>
    <dc:type rdf:resource="http://purl.org/dc/dcmitype/StillImage"/>
    <dc:date>2024-06-19T20:46:52.172542</dc:date>
    <dc:format>image/svg+xml</dc:format>
    <dc:creator>
     <cc:Agent>
      <dc:title>Matplotlib v3.9.0, https://matplotlib.org/</dc:title>
     </cc:Agent>
    </dc:creator>
   </cc:Work>
  </rdf:RDF>
 </metadata>
 <defs>
  <style type="text/css">*{stroke-linejoin: round; stroke-linecap: butt}</style>
 </defs>
 <g id="figure_1">
  <g id="patch_1">
   <path d="M 0 648 
L 1152 648 
L 1152 0 
L 0 0 
z
" style="fill: #ffffff"/>
  </g>
  <g id="axes_1">
   <g id="patch_2">
    <path d="M 144 304.56 
L 1036.8 304.56 
L 1036.8 77.76 
L 144 77.76 
z
" style="fill: #ffffff"/>
   </g>
   <g id="PolyCollection_1">
    <defs>
     <path id="m660cc24c17" d="M 292.849617 -474.964604 
L 292.849617 -467.031745 
L 295.826609 -466.083617 
L 298.803601 -465.114096 
L 301.780594 -463.985641 
L 304.757586 -462.70945 
L 307.734578 -461.302564 
L 310.711571 -459.789417 
L 313.688563 -458.181469 
L 316.665555 -456.505835 
L 319.642548 -454.758986 
L 322.61954 -452.958473 
L 325.596532 -451.105246 
L 328.573525 -449.208445 
L 331.550517 -447.272292 
L 334.527509 -445.307065 
L 337.504502 -443.303608 
L 340.481494 -441.279374 
L 343.458486 -439.220639 
L 346.435478 -437.133609 
L 349.412471 -435.024337 
L 352.389463 -432.896007 
L 355.366455 -430.74182 
L 358.343448 -428.578601 
L 361.32044 -426.391155 
L 364.297432 -424.184895 
L 367.274425 -421.967251 
L 370.251417 -419.735959 
L 373.228409 -417.487832 
L 376.205402 -415.23192 
L 379.182394 -412.970355 
L 382.159386 -410.698438 
L 385.136379 -408.425469 
L 388.113371 -406.151905 
L 391.090363 -403.886645 
L 394.067356 -401.634468 
L 397.044348 -399.384938 
L 400.02134 -397.152326 
L 402.998333 -394.929506 
L 405.975325 -392.732561 
L 408.952317 -390.555933 
L 411.92931 -388.404404 
L 414.906302 -386.277851 
L 417.883294 -384.18078 
L 420.860287 -382.120612 
L 423.837279 -380.096624 
L 426.814271 -378.121856 
L 429.791264 -376.192567 
L 432.768256 -374.305591 
L 435.745248 -372.469178 
L 438.722241 -370.70025 
L 441.699233 -368.988775 
L 444.676225 -367.351481 
L 447.653218 -365.806008 
L 450.63021 -364.350494 
L 453.607202 -362.990529 
L 456.584195 -361.718911 
L 459.561187 -360.539251 
L 462.538179 -359.454308 
L 465.515172 -358.46205 
L 468.492164 -357.560892 
L 471.469156 -356.754371 
L 474.446149 -356.039671 
L 477.423141 -355.424357 
L 480.400133 -354.896033 
L 483.377126 -354.474787 
L 486.354118 -354.145886 
L 489.33111 -353.916781 
L 492.308103 -353.786718 
L 495.285095 -353.749091 
L 498.262087 -353.802379 
L 501.23908 -353.947365 
L 504.216072 -354.190639 
L 507.193064 -354.530214 
L 510.170057 -354.969914 
L 513.147049 -355.508023 
L 516.124041 -356.137973 
L 519.101034 -356.861184 
L 522.078026 -357.684585 
L 525.055018 -358.601131 
L 528.032011 -359.609379 
L 531.009003 -360.702665 
L 533.985995 -361.885414 
L 536.962988 -363.157762 
L 539.93998 -364.529534 
L 542.916972 -365.982793 
L 545.893965 -367.521007 
L 548.870957 -369.140795 
L 551.847949 -370.843271 
L 554.824942 -372.628686 
L 557.801934 -374.492637 
L 560.778926 -376.424301 
L 563.755919 -378.434969 
L 566.732911 -380.52098 
L 569.709903 -382.677336 
L 572.686896 -384.904848 
L 575.663888 -387.202967 
L 578.64088 -389.564339 
L 581.617873 -391.988327 
L 584.594865 -394.473177 
L 587.571857 -397.013362 
L 590.54885 -399.596989 
L 593.525842 -402.24248 
L 596.502834 -404.935416 
L 599.479827 -407.671715 
L 602.456819 -410.450881 
L 605.433811 -413.275591 
L 608.410804 -416.140561 
L 611.387796 -419.038022 
L 614.364788 -421.971271 
L 617.341781 -424.935577 
L 620.318773 -427.925803 
L 623.295765 -430.933137 
L 626.272758 -433.96071 
L 629.24975 -437.010773 
L 632.226742 -440.088419 
L 635.203735 -443.177844 
L 638.180727 -446.264175 
L 641.157719 -449.361909 
L 644.134712 -452.450575 
L 647.111704 -455.542673 
L 650.088696 -458.627528 
L 653.065689 -461.699996 
L 656.042681 -464.7734 
L 659.019673 -467.842715 
L 661.996666 -470.896727 
L 664.973658 -473.94267 
L 667.95065 -476.957759 
L 670.927643 -479.94434 
L 673.904635 -482.903245 
L 676.881627 -485.826966 
L 679.85862 -488.723784 
L 682.835612 -491.592301 
L 685.812604 -494.414088 
L 688.789597 -497.190125 
L 691.766589 -499.925345 
L 694.743581 -502.614756 
L 697.720574 -505.239262 
L 700.697566 -507.812333 
L 703.674558 -510.329326 
L 706.651551 -512.791096 
L 709.628543 -515.19274 
L 712.605535 -517.539697 
L 715.582528 -519.811839 
L 718.55952 -522.003017 
L 721.536512 -524.130963 
L 724.513505 -526.181136 
L 727.490497 -528.158918 
L 730.467489 -530.067731 
L 733.444481 -531.906464 
L 736.421474 -533.661594 
L 739.398466 -535.325858 
L 742.375458 -536.910334 
L 745.352451 -538.390998 
L 748.329443 -539.783762 
L 751.306435 -541.120361 
L 754.283428 -542.323578 
L 757.26042 -543.444126 
L 760.237412 -544.466068 
L 763.214405 -545.402319 
L 766.191397 -546.259121 
L 769.168389 -547.02005 
L 772.145382 -547.704708 
L 775.122374 -548.306342 
L 778.099366 -548.83017 
L 781.076359 -549.300378 
L 784.053351 -549.70165 
L 787.030343 -550.025173 
L 790.007336 -550.285917 
L 792.984328 -550.464552 
L 795.96132 -550.565076 
L 798.938313 -550.596428 
L 801.915305 -550.543996 
L 804.892297 -550.434226 
L 807.86929 -550.267726 
L 810.846282 -550.062441 
L 813.823274 -549.816882 
L 816.800267 -549.492076 
L 819.777259 -549.128764 
L 822.754251 -548.708625 
L 825.731244 -548.280224 
L 828.708236 -547.784848 
L 831.685228 -547.262026 
L 834.662221 -546.704277 
L 837.639213 -546.106888 
L 840.616205 -545.508143 
L 843.593198 -544.888267 
L 846.57019 -544.226636 
L 849.547182 -543.5544 
L 852.524175 -542.86186 
L 855.501167 -542.128768 
L 858.478159 -541.375655 
L 861.455152 -540.624315 
L 864.432144 -539.823745 
L 867.409136 -539.023241 
L 870.386129 -538.214963 
L 873.363121 -537.390948 
L 876.340113 -536.557851 
L 879.317106 -535.718253 
L 882.294098 -534.871877 
L 885.27109 -534.044295 
L 888.248083 -533.203631 
L 891.225075 -532.359397 
L 894.202067 -531.502341 
L 897.17906 -530.671578 
L 900.156052 -529.822873 
L 903.133044 -528.996029 
L 906.110037 -528.151496 
L 909.087029 -527.319265 
L 912.064021 -526.49465 
L 915.041014 -525.69716 
L 918.018006 -524.905842 
L 920.994998 -524.117648 
L 923.971991 -523.342212 
L 926.948983 -522.580485 
L 929.925975 -521.835736 
L 932.902968 -521.113098 
L 935.87996 -520.394999 
L 938.856952 -519.686143 
L 941.833945 -519.003822 
L 944.810937 -518.349633 
L 947.787929 -517.722213 
L 950.764922 -517.094228 
L 953.741914 -516.48522 
L 956.718906 -515.89506 
L 959.695899 -515.336727 
L 962.672891 -514.790264 
L 965.649883 -514.261575 
L 968.626876 -513.750871 
L 971.603868 -513.262173 
L 974.58086 -512.798109 
L 977.557853 -512.35478 
L 980.534845 -511.948523 
L 983.511837 -511.560637 
L 986.48883 -511.179324 
L 989.465822 -510.826062 
L 992.442814 -510.496615 
L 995.419807 -510.197217 
L 998.396799 -509.927898 
L 1001.373791 -509.666287 
L 1004.350784 -509.431216 
L 1007.327776 -509.218787 
L 1010.304768 -509.044861 
L 1013.281761 -508.905504 
L 1016.258753 -508.798894 
L 1019.235745 -508.710401 
L 1022.212738 -508.65992 
L 1025.18973 -508.617524 
L 1028.166722 -508.602991 
L 1031.143715 -508.625294 
L 1034.120707 -508.683025 
L 1034.120707 -513.098048 
L 1034.120707 -513.098048 
L 1031.143715 -513.159021 
L 1028.166722 -513.25083 
L 1025.18973 -513.376594 
L 1022.212738 -513.529468 
L 1019.235745 -513.688478 
L 1016.258753 -513.882407 
L 1013.281761 -514.092464 
L 1010.304768 -514.330716 
L 1007.327776 -514.598081 
L 1004.350784 -514.901265 
L 1001.373791 -515.224995 
L 998.396799 -515.575301 
L 995.419807 -515.933467 
L 992.442814 -516.319141 
L 989.465822 -516.733004 
L 986.48883 -517.16907 
L 983.511837 -517.634419 
L 980.534845 -518.107661 
L 977.557853 -518.597573 
L 974.58086 -519.12252 
L 971.603868 -519.66735 
L 968.626876 -520.236153 
L 965.649883 -520.826145 
L 962.672891 -521.433988 
L 959.695899 -522.060836 
L 956.718906 -522.698041 
L 953.741914 -523.365415 
L 950.764922 -524.051701 
L 947.787929 -524.757633 
L 944.810937 -525.463832 
L 941.833945 -526.19287 
L 938.856952 -526.947368 
L 935.87996 -527.726338 
L 932.902968 -528.515918 
L 929.925975 -529.309243 
L 926.948983 -530.122481 
L 923.971991 -530.950307 
L 920.994998 -531.791499 
L 918.018006 -532.645044 
L 915.041014 -533.501752 
L 912.064021 -534.361438 
L 909.087029 -535.24506 
L 906.110037 -536.134805 
L 903.133044 -537.037057 
L 900.156052 -537.920835 
L 897.17906 -538.825335 
L 894.202067 -539.710493 
L 891.225075 -540.6203 
L 888.248083 -541.517765 
L 885.27109 -542.411529 
L 882.294098 -543.289335 
L 879.317106 -544.181975 
L 876.340113 -545.067549 
L 873.363121 -545.945767 
L 870.386129 -546.814415 
L 867.409136 -547.66505 
L 864.432144 -548.505919 
L 861.455152 -549.347505 
L 858.478159 -550.139846 
L 855.501167 -550.931896 
L 852.524175 -551.704501 
L 849.547182 -552.436788 
L 846.57019 -553.147653 
L 843.593198 -553.847508 
L 840.616205 -554.504198 
L 837.639213 -555.135351 
L 834.662221 -555.763508 
L 831.685228 -556.350627 
L 828.708236 -556.901912 
L 825.731244 -557.425006 
L 822.754251 -557.878747 
L 819.777259 -558.322207 
L 816.800267 -558.708562 
L 813.823274 -559.056526 
L 810.846282 -559.322351 
L 807.86929 -559.546269 
L 804.892297 -559.73089 
L 801.915305 -559.859233 
L 798.938313 -559.930909 
L 795.96132 -559.917311 
L 792.984328 -559.835539 
L 790.007336 -559.673903 
L 787.030343 -559.430256 
L 784.053351 -559.124265 
L 781.076359 -558.738722 
L 778.099366 -558.285171 
L 775.122374 -557.780367 
L 772.145382 -557.196795 
L 769.168389 -556.531088 
L 766.191397 -555.789249 
L 763.214405 -554.952698 
L 760.237412 -554.041146 
L 757.26042 -553.043613 
L 754.283428 -551.949331 
L 751.306435 -550.761182 
L 748.329443 -549.430868 
L 745.352451 -548.053589 
L 742.375458 -546.57375 
L 739.398466 -544.98581 
L 736.421474 -543.321 
L 733.444481 -541.562828 
L 730.467489 -539.723742 
L 727.490497 -537.821699 
L 724.513505 -535.861599 
L 721.536512 -533.834943 
L 718.55952 -531.740104 
L 715.582528 -529.579986 
L 712.605535 -527.330362 
L 709.628543 -525.006516 
L 706.651551 -522.641097 
L 703.674558 -520.218505 
L 700.697566 -517.746358 
L 697.720574 -515.217883 
L 694.743581 -512.639057 
L 691.766589 -509.992033 
L 688.789597 -507.302914 
L 685.812604 -504.57521 
L 682.835612 -501.796654 
L 679.85862 -498.973721 
L 676.881627 -496.126794 
L 673.904635 -493.252515 
L 670.927643 -490.341251 
L 667.95065 -487.399416 
L 664.973658 -484.420819 
L 661.996666 -481.410744 
L 659.019673 -478.395902 
L 656.042681 -475.367524 
L 653.065689 -472.339538 
L 650.088696 -469.312618 
L 647.111704 -466.270735 
L 644.134712 -463.219268 
L 641.157719 -460.167842 
L 638.180727 -457.104007 
L 635.203735 -454.045825 
L 632.226742 -450.980809 
L 629.24975 -447.929827 
L 626.272758 -444.907755 
L 623.295765 -441.905654 
L 620.318773 -438.919119 
L 617.341781 -435.946136 
L 614.364788 -432.997477 
L 611.387796 -430.077966 
L 608.410804 -427.191499 
L 605.433811 -424.335672 
L 602.456819 -421.518918 
L 599.479827 -418.745424 
L 596.502834 -416.011925 
L 593.525842 -413.320226 
L 590.54885 -410.674076 
L 587.571857 -408.085992 
L 584.594865 -405.538273 
L 581.617873 -403.043219 
L 578.64088 -400.606291 
L 575.663888 -398.229475 
L 572.686896 -395.914639 
L 569.709903 -393.668598 
L 566.732911 -391.491796 
L 563.755919 -389.38426 
L 560.778926 -387.350025 
L 557.801934 -385.392382 
L 554.824942 -383.501027 
L 551.847949 -381.686699 
L 548.870957 -379.953288 
L 545.893965 -378.300635 
L 542.916972 -376.727388 
L 539.93998 -375.238322 
L 536.962988 -373.830562 
L 533.985995 -372.52062 
L 531.009003 -371.298664 
L 528.032011 -370.164923 
L 525.055018 -369.115743 
L 522.078026 -368.158268 
L 519.101034 -367.293697 
L 516.124041 -366.528359 
L 513.147049 -365.856388 
L 510.170057 -365.277216 
L 507.193064 -364.79616 
L 504.216072 -364.415197 
L 501.23908 -364.130513 
L 498.262087 -363.944179 
L 495.285095 -363.850653 
L 492.308103 -363.849784 
L 489.33111 -363.943168 
L 486.354118 -364.135252 
L 483.377126 -364.429294 
L 480.400133 -364.816843 
L 477.423141 -365.311966 
L 474.446149 -365.897124 
L 471.469156 -366.583339 
L 468.492164 -367.363832 
L 465.515172 -368.241425 
L 462.538179 -369.212893 
L 459.561187 -370.277693 
L 456.584195 -371.437344 
L 453.607202 -372.688283 
L 450.63021 -374.025242 
L 447.653218 -375.451909 
L 444.676225 -376.960493 
L 441.699233 -378.554031 
L 438.722241 -380.225466 
L 435.745248 -381.956627 
L 432.768256 -383.754364 
L 429.791264 -385.607995 
L 426.814271 -387.508955 
L 423.837279 -389.456298 
L 420.860287 -391.453046 
L 417.883294 -393.488648 
L 414.906302 -395.562305 
L 411.92931 -397.668042 
L 408.952317 -399.801008 
L 405.975325 -401.959766 
L 402.998333 -404.138257 
L 400.02134 -406.342149 
L 397.044348 -408.556087 
L 394.067356 -410.78735 
L 391.090363 -413.021559 
L 388.113371 -415.265214 
L 385.136379 -417.516164 
L 382.159386 -419.766304 
L 379.182394 -422.015888 
L 376.205402 -424.256743 
L 373.228409 -426.491207 
L 370.251417 -428.718195 
L 367.274425 -430.931336 
L 364.297432 -433.128124 
L 361.32044 -435.312755 
L 358.343448 -437.479324 
L 355.366455 -439.618113 
L 352.389463 -441.742051 
L 349.412471 -443.835955 
L 346.435478 -445.902526 
L 343.458486 -447.938644 
L 340.481494 -449.94023 
L 337.504502 -451.896881 
L 334.527509 -453.820797 
L 331.550517 -455.696941 
L 328.573525 -457.533529 
L 325.596532 -459.323961 
L 322.61954 -461.066201 
L 319.642548 -462.755305 
L 316.665555 -464.394774 
L 313.688563 -465.971602 
L 310.711571 -467.495954 
L 307.734578 -468.950837 
L 304.757586 -470.333983 
L 301.780594 -471.634507 
L 298.803601 -472.850467 
L 295.826609 -473.967636 
L 292.849617 -474.964604 
z
" style="stroke: #00ffff; stroke-opacity: 0.5"/>
    </defs>
    <g clip-path="url(#p33897e0ac9)">
     <use xlink:href="#m660cc24c17" x="0" y="648" style="fill: #00ffff; fill-opacity: 0.5; stroke: #00ffff; stroke-opacity: 0.5"/>
    </g>
   </g>
   <g id="matplotlib.axis_1">
    <g id="xtick_1">
     <g id="line2d_1">
      <defs>
       <path id="m2e20896ad8" d="M 0 0 
L 0 3.5 
" style="stroke: #000000; stroke-width: 0.8"/>
      </defs>
      <g>
       <use xlink:href="#m2e20896ad8" x="144" y="304.56" style="stroke: #000000; stroke-width: 0.8"/>
      </g>
     </g>
     <g id="text_1">
      <!-- 0 -->
      <g transform="translate(140.81875 319.158437) scale(0.1 -0.1)">
       <defs>
        <path id="DejaVuSans-30" d="M 2034 4250 
Q 1547 4250 1301 3770 
Q 1056 3291 1056 2328 
Q 1056 1369 1301 889 
Q 1547 409 2034 409 
Q 2525 409 2770 889 
Q 3016 1369 3016 2328 
Q 3016 3291 2770 3770 
Q 2525 4250 2034 4250 
z
M 2034 4750 
Q 2819 4750 3233 4129 
Q 3647 3509 3647 2328 
Q 3647 1150 3233 529 
Q 2819 -91 2034 -91 
Q 1250 -91 836 529 
Q 422 1150 422 2328 
Q 422 3509 836 4129 
Q 1250 4750 2034 4750 
z
" transform="scale(0.015625)"/>
       </defs>
       <use xlink:href="#DejaVuSans-30"/>
      </g>
     </g>
    </g>
    <g id="xtick_2">
     <g id="line2d_2">
      <g>
       <use xlink:href="#m2e20896ad8" x="292.849617" y="304.56" style="stroke: #000000; stroke-width: 0.8"/>
      </g>
     </g>
     <g id="text_2">
      <!-- 5 -->
      <g transform="translate(289.668367 319.158437) scale(0.1 -0.1)">
       <defs>
        <path id="DejaVuSans-35" d="M 691 4666 
L 3169 4666 
L 3169 4134 
L 1269 4134 
L 1269 2991 
Q 1406 3038 1543 3061 
Q 1681 3084 1819 3084 
Q 2600 3084 3056 2656 
Q 3513 2228 3513 1497 
Q 3513 744 3044 326 
Q 2575 -91 1722 -91 
Q 1428 -91 1123 -41 
Q 819 9 494 109 
L 494 744 
Q 775 591 1075 516 
Q 1375 441 1709 441 
Q 2250 441 2565 725 
Q 2881 1009 2881 1497 
Q 2881 1984 2565 2268 
Q 2250 2553 1709 2553 
Q 1456 2553 1204 2497 
Q 953 2441 691 2322 
L 691 4666 
z
" transform="scale(0.015625)"/>
       </defs>
       <use xlink:href="#DejaVuSans-35"/>
      </g>
     </g>
    </g>
    <g id="xtick_3">
     <g id="line2d_3">
      <g>
       <use xlink:href="#m2e20896ad8" x="441.699233" y="304.56" style="stroke: #000000; stroke-width: 0.8"/>
      </g>
     </g>
     <g id="text_3">
      <!-- 10 -->
      <g transform="translate(435.336733 319.158437) scale(0.1 -0.1)">
       <defs>
        <path id="DejaVuSans-31" d="M 794 531 
L 1825 531 
L 1825 4091 
L 703 3866 
L 703 4441 
L 1819 4666 
L 2450 4666 
L 2450 531 
L 3481 531 
L 3481 0 
L 794 0 
L 794 531 
z
" transform="scale(0.015625)"/>
       </defs>
       <use xlink:href="#DejaVuSans-31"/>
       <use xlink:href="#DejaVuSans-30" x="63.623047"/>
      </g>
     </g>
    </g>
    <g id="xtick_4">
     <g id="line2d_4">
      <g>
       <use xlink:href="#m2e20896ad8" x="590.54885" y="304.56" style="stroke: #000000; stroke-width: 0.8"/>
      </g>
     </g>
     <g id="text_4">
      <!-- 15 -->
      <g transform="translate(584.18635 319.158437) scale(0.1 -0.1)">
       <use xlink:href="#DejaVuSans-31"/>
       <use xlink:href="#DejaVuSans-35" x="63.623047"/>
      </g>
     </g>
    </g>
    <g id="xtick_5">
     <g id="line2d_5">
      <g>
       <use xlink:href="#m2e20896ad8" x="739.398466" y="304.56" style="stroke: #000000; stroke-width: 0.8"/>
      </g>
     </g>
     <g id="text_5">
      <!-- 20 -->
      <g transform="translate(733.035966 319.158437) scale(0.1 -0.1)">
       <defs>
        <path id="DejaVuSans-32" d="M 1228 531 
L 3431 531 
L 3431 0 
L 469 0 
L 469 531 
Q 828 903 1448 1529 
Q 2069 2156 2228 2338 
Q 2531 2678 2651 2914 
Q 2772 3150 2772 3378 
Q 2772 3750 2511 3984 
Q 2250 4219 1831 4219 
Q 1534 4219 1204 4116 
Q 875 4013 500 3803 
L 500 4441 
Q 881 4594 1212 4672 
Q 1544 4750 1819 4750 
Q 2544 4750 2975 4387 
Q 3406 4025 3406 3419 
Q 3406 3131 3298 2873 
Q 3191 2616 2906 2266 
Q 2828 2175 2409 1742 
Q 1991 1309 1228 531 
z
" transform="scale(0.015625)"/>
       </defs>
       <use xlink:href="#DejaVuSans-32"/>
       <use xlink:href="#DejaVuSans-30" x="63.623047"/>
      </g>
     </g>
    </g>
    <g id="xtick_6">
     <g id="line2d_6">
      <g>
       <use xlink:href="#m2e20896ad8" x="888.248083" y="304.56" style="stroke: #000000; stroke-width: 0.8"/>
      </g>
     </g>
     <g id="text_6">
      <!-- 25 -->
      <g transform="translate(881.885583 319.158437) scale(0.1 -0.1)">
       <use xlink:href="#DejaVuSans-32"/>
       <use xlink:href="#DejaVuSans-35" x="63.623047"/>
      </g>
     </g>
    </g>
   </g>
   <g id="matplotlib.axis_2">
    <g id="ytick_1">
     <g id="line2d_7">
      <defs>
       <path id="m1af686cab8" d="M 0 0 
L -3.5 0 
" style="stroke: #000000; stroke-width: 0.8"/>
      </defs>
      <g>
       <use xlink:href="#m1af686cab8" x="144" y="267.850274" style="stroke: #000000; stroke-width: 0.8"/>
      </g>
     </g>
     <g id="text_7">
      <!-- 1.0 -->
      <g transform="translate(121.096875 271.649493) scale(0.1 -0.1)">
       <defs>
        <path id="DejaVuSans-2e" d="M 684 794 
L 1344 794 
L 1344 0 
L 684 0 
L 684 794 
z
" transform="scale(0.015625)"/>
       </defs>
       <use xlink:href="#DejaVuSans-31"/>
       <use xlink:href="#DejaVuSans-2e" x="63.623047"/>
       <use xlink:href="#DejaVuSans-30" x="95.410156"/>
      </g>
     </g>
    </g>
    <g id="ytick_2">
     <g id="line2d_8">
      <g>
       <use xlink:href="#m1af686cab8" x="144" y="229.621439" style="stroke: #000000; stroke-width: 0.8"/>
      </g>
     </g>
     <g id="text_8">
      <!-- 1.5 -->
      <g transform="translate(121.096875 233.420658) scale(0.1 -0.1)">
       <use xlink:href="#DejaVuSans-31"/>
       <use xlink:href="#DejaVuSans-2e" x="63.623047"/>
       <use xlink:href="#DejaVuSans-35" x="95.410156"/>
      </g>
     </g>
    </g>
    <g id="ytick_3">
     <g id="line2d_9">
      <g>
       <use xlink:href="#m1af686cab8" x="144" y="191.392603" style="stroke: #000000; stroke-width: 0.8"/>
      </g>
     </g>
     <g id="text_9">
      <!-- 2.0 -->
      <g transform="translate(121.096875 195.191822) scale(0.1 -0.1)">
       <use xlink:href="#DejaVuSans-32"/>
       <use xlink:href="#DejaVuSans-2e" x="63.623047"/>
       <use xlink:href="#DejaVuSans-30" x="95.410156"/>
      </g>
     </g>
    </g>
    <g id="ytick_4">
     <g id="line2d_10">
      <g>
       <use xlink:href="#m1af686cab8" x="144" y="153.163768" style="stroke: #000000; stroke-width: 0.8"/>
      </g>
     </g>
     <g id="text_10">
      <!-- 2.5 -->
      <g transform="translate(121.096875 156.962987) scale(0.1 -0.1)">
       <use xlink:href="#DejaVuSans-32"/>
       <use xlink:href="#DejaVuSans-2e" x="63.623047"/>
       <use xlink:href="#DejaVuSans-35" x="95.410156"/>
      </g>
     </g>
    </g>
    <g id="ytick_5">
     <g id="line2d_11">
      <g>
       <use xlink:href="#m1af686cab8" x="144" y="114.934933" style="stroke: #000000; stroke-width: 0.8"/>
      </g>
     </g>
     <g id="text_11">
      <!-- 3.0 -->
      <g transform="translate(121.096875 118.734151) scale(0.1 -0.1)">
       <defs>
        <path id="DejaVuSans-33" d="M 2597 2516 
Q 3050 2419 3304 2112 
Q 3559 1806 3559 1356 
Q 3559 666 3084 287 
Q 2609 -91 1734 -91 
Q 1441 -91 1130 -33 
Q 819 25 488 141 
L 488 750 
Q 750 597 1062 519 
Q 1375 441 1716 441 
Q 2309 441 2620 675 
Q 2931 909 2931 1356 
Q 2931 1769 2642 2001 
Q 2353 2234 1838 2234 
L 1294 2234 
L 1294 2753 
L 1863 2753 
Q 2328 2753 2575 2939 
Q 2822 3125 2822 3475 
Q 2822 3834 2567 4026 
Q 2313 4219 1838 4219 
Q 1578 4219 1281 4162 
Q 984 4106 628 3988 
L 628 4550 
Q 988 4650 1302 4700 
Q 1616 4750 1894 4750 
Q 2613 4750 3031 4423 
Q 3450 4097 3450 3541 
Q 3450 3153 3228 2886 
Q 3006 2619 2597 2516 
z
" transform="scale(0.015625)"/>
       </defs>
       <use xlink:href="#DejaVuSans-33"/>
       <use xlink:href="#DejaVuSans-2e" x="63.623047"/>
       <use xlink:href="#DejaVuSans-30" x="95.410156"/>
      </g>
     </g>
    </g>
   </g>
   <g id="line2d_12">
    <path d="M 144 137.328866 
L 145.488496 137.426091 
L 146.976992 137.718569 
L 156.503368 140.114779 
L 161.564255 141.056545 
L 168.113638 142.046939 
L 181.807803 143.839242 
L 194.906569 145.676454 
L 204.135245 147.222263 
L 213.066222 148.926644 
L 222.294898 150.921246 
L 230.630477 152.962307 
L 238.966055 155.242894 
L 247.301634 157.751617 
L 255.041814 160.311743 
L 263.079693 163.207721 
L 270.819873 166.228979 
L 279.155452 169.719233 
L 286.597933 173.073769 
L 295.826609 177.266722 
L 302.078293 179.387426 
L 306.246082 181.075019 
L 310.711571 183.123307 
L 315.772457 185.691006 
L 321.726442 188.965487 
L 328.275825 192.832315 
L 335.420607 197.308059 
L 343.756185 202.805089 
L 352.687162 208.981079 
L 363.106636 216.464721 
L 375.610003 225.739776 
L 414.013204 254.466896 
L 422.944181 260.741167 
L 430.088963 265.509942 
L 437.233745 270.016757 
L 443.485428 273.686856 
L 448.844015 276.587789 
L 453.904902 279.07127 
L 458.965789 281.296613 
L 463.728976 283.150174 
L 468.492164 284.764591 
L 473.255352 286.141328 
L 477.72084 287.21053 
L 482.484028 288.11626 
L 486.949517 288.733582 
L 491.415005 289.129734 
L 495.880493 289.303583 
L 500.643681 289.261726 
L 505.10917 289.006655 
L 509.574658 288.531385 
L 514.040147 287.832218 
L 518.803334 286.851726 
L 523.268823 285.710399 
L 528.032011 284.256283 
L 533.092898 282.46079 
L 538.153785 280.412936 
L 542.916972 278.238119 
L 547.977859 275.688305 
L 553.336445 272.728627 
L 558.695032 269.504608 
L 564.351317 265.845069 
L 570.007603 261.914218 
L 575.961587 257.501033 
L 582.213271 252.575496 
L 588.762654 247.129674 
L 595.907436 240.904508 
L 603.647616 233.848988 
L 611.685495 226.218571 
L 620.616472 217.444429 
L 633.11984 204.8114 
L 670.927643 166.110215 
L 680.454018 156.759286 
L 689.384995 148.296916 
L 697.125175 141.275807 
L 703.972257 135.366572 
L 710.81934 129.746833 
L 717.071024 124.871639 
L 722.727309 120.755516 
L 728.681294 116.686539 
L 734.635278 112.881043 
L 739.993865 109.720115 
L 745.352451 106.83055 
L 750.413338 104.387503 
L 754.878826 102.424391 
L 759.642014 100.597073 
L 764.702901 98.918047 
L 769.763788 97.476269 
L 774.824675 96.281975 
L 779.587863 95.377178 
L 785.244148 94.507429 
L 790.602734 93.90876 
L 795.663621 93.563228 
L 800.724508 93.439927 
L 806.380794 93.557974 
L 813.227876 93.954269 
L 818.586462 94.456594 
L 825.135845 95.302636 
L 831.387529 96.28231 
L 838.83001 97.678293 
L 849.547182 99.950587 
L 857.882761 101.946398 
L 868.897633 104.846766 
L 881.996399 108.537951 
L 923.078893 120.287581 
L 935.582261 123.576939 
L 946.597132 126.269436 
L 959.695899 129.134806 
L 971.306169 131.379496 
L 980.534845 132.935571 
L 991.847416 134.552975 
L 1000.480694 135.559554 
L 1009.70937 136.44719 
L 1017.44955 136.963718 
L 1026.082828 137.337545 
L 1034.120707 137.497565 
L 1036.8 137.504051 
L 1036.8 137.504051 
" clip-path="url(#p33897e0ac9)" style="fill: none; stroke-dasharray: 5.55,2.4; stroke-dashoffset: 0; stroke: #ffa500; stroke-width: 1.5"/>
   </g>
   <g id="line2d_13">
    <path d="M 292.849617 177.001825 
L 298.803601 179.017718 
L 304.757586 181.478283 
L 310.711571 184.357315 
L 316.665555 187.549695 
L 322.61954 190.987663 
L 328.573525 194.629013 
L 337.504502 200.399755 
L 346.435478 206.481932 
L 355.366455 212.820034 
L 367.274425 221.550706 
L 382.159386 232.767629 
L 402.998333 248.466118 
L 414.906302 257.079922 
L 423.837279 263.223539 
L 429.791264 267.099719 
L 435.745248 270.787098 
L 441.699233 274.228597 
L 447.653218 277.371041 
L 453.607202 280.160594 
L 459.561187 282.591528 
L 465.515172 284.648263 
L 471.469156 286.331145 
L 477.423141 287.631839 
L 483.377126 288.547959 
L 489.33111 289.070026 
L 495.285095 289.200128 
L 501.23908 288.961061 
L 507.193064 288.336813 
L 513.147049 287.317795 
L 519.101034 285.922559 
L 525.055018 284.141563 
L 531.009003 281.999336 
L 536.962988 279.505838 
L 542.916972 276.64491 
L 548.870957 273.452959 
L 554.824942 269.935143 
L 560.778926 266.112837 
L 566.732911 261.993612 
L 572.686896 257.590257 
L 578.64088 252.914685 
L 584.594865 247.994275 
L 593.525842 240.218647 
L 602.456819 232.0151 
L 611.387796 223.442006 
L 620.318773 214.577539 
L 632.226742 202.465386 
L 661.996666 171.846264 
L 670.927643 162.857204 
L 679.85862 154.151247 
L 688.789597 145.75348 
L 694.743581 140.373093 
L 700.697566 135.220655 
L 706.651551 130.283904 
L 712.605535 125.56497 
L 718.55952 121.12844 
L 724.513505 116.978632 
L 730.467489 113.104264 
L 736.421474 109.508703 
L 742.375458 106.257958 
L 748.329443 103.392685 
L 751.306435 102.059228 
L 757.26042 99.756131 
L 763.214405 97.822491 
L 769.168389 96.224431 
L 775.122374 94.956646 
L 781.076359 93.98045 
L 787.030343 93.272285 
L 792.984328 92.849955 
L 798.938313 92.736332 
L 804.892297 92.917442 
L 810.846282 93.307604 
L 816.800267 93.899681 
L 822.754251 94.706314 
L 828.708236 95.65662 
L 837.639213 97.378881 
L 846.57019 99.312856 
L 855.501167 101.469668 
L 867.409136 104.655855 
L 879.317106 108.049886 
L 915.041014 118.400544 
L 929.925975 122.42751 
L 941.833945 125.401654 
L 953.741914 128.074683 
L 962.672891 129.887874 
L 971.603868 131.535239 
L 980.534845 132.971908 
L 992.442814 134.592122 
L 1001.373791 135.554359 
L 1010.304768 136.312212 
L 1019.235745 136.80056 
L 1028.166722 137.073089 
L 1034.120707 137.109463 
L 1034.120707 137.109463 
" clip-path="url(#p33897e0ac9)" style="fill: none; stroke: #0000ff; stroke-opacity: 0.5; stroke-width: 1.5; stroke-linecap: square"/>
   </g>
   <g id="patch_3">
    <path d="M 144 304.56 
L 144 77.76 
" style="fill: none; stroke: #000000; stroke-width: 0.8; stroke-linejoin: miter; stroke-linecap: square"/>
   </g>
   <g id="patch_4">
    <path d="M 1036.8 304.56 
L 1036.8 77.76 
" style="fill: none; stroke: #000000; stroke-width: 0.8; stroke-linejoin: miter; stroke-linecap: square"/>
   </g>
   <g id="patch_5">
    <path d="M 144 304.56 
L 1036.8 304.56 
" style="fill: none; stroke: #000000; stroke-width: 0.8; stroke-linejoin: miter; stroke-linecap: square"/>
   </g>
   <g id="patch_6">
    <path d="M 144 77.76 
L 1036.8 77.76 
" style="fill: none; stroke: #000000; stroke-width: 0.8; stroke-linejoin: miter; stroke-linecap: square"/>
   </g>
   <g id="legend_1">
    <g id="patch_7">
     <path d="M 151 129.838125 
L 256.6 129.838125 
Q 258.6 129.838125 258.6 127.838125 
L 258.6 84.76 
Q 258.6 82.76 256.6 82.76 
L 151 82.76 
Q 149 82.76 149 84.76 
L 149 127.838125 
Q 149 129.838125 151 129.838125 
z
" style="fill: #ffffff; opacity: 0.8; stroke: #cccccc; stroke-linejoin: miter"/>
    </g>
    <g id="line2d_14">
     <path d="M 153 90.86 
L 163 90.86 
L 173 90.86 
" style="fill: none; stroke-dasharray: 5.55,2.4; stroke-dashoffset: 0; stroke: #ffa500; stroke-width: 1.5"/>
    </g>
    <g id="text_12">
     <!-- Real $y$ Position -->
     <g transform="translate(181 94.36) scale(0.1 -0.1)">
      <defs>
       <path id="DejaVuSans-52" d="M 2841 2188 
Q 3044 2119 3236 1894 
Q 3428 1669 3622 1275 
L 4263 0 
L 3584 0 
L 2988 1197 
Q 2756 1666 2539 1819 
Q 2322 1972 1947 1972 
L 1259 1972 
L 1259 0 
L 628 0 
L 628 4666 
L 2053 4666 
Q 2853 4666 3247 4331 
Q 3641 3997 3641 3322 
Q 3641 2881 3436 2590 
Q 3231 2300 2841 2188 
z
M 1259 4147 
L 1259 2491 
L 2053 2491 
Q 2509 2491 2742 2702 
Q 2975 2913 2975 3322 
Q 2975 3731 2742 3939 
Q 2509 4147 2053 4147 
L 1259 4147 
z
" transform="scale(0.015625)"/>
       <path id="DejaVuSans-65" d="M 3597 1894 
L 3597 1613 
L 953 1613 
Q 991 1019 1311 708 
Q 1631 397 2203 397 
Q 2534 397 2845 478 
Q 3156 559 3463 722 
L 3463 178 
Q 3153 47 2828 -22 
Q 2503 -91 2169 -91 
Q 1331 -91 842 396 
Q 353 884 353 1716 
Q 353 2575 817 3079 
Q 1281 3584 2069 3584 
Q 2775 3584 3186 3129 
Q 3597 2675 3597 1894 
z
M 3022 2063 
Q 3016 2534 2758 2815 
Q 2500 3097 2075 3097 
Q 1594 3097 1305 2825 
Q 1016 2553 972 2059 
L 3022 2063 
z
" transform="scale(0.015625)"/>
       <path id="DejaVuSans-61" d="M 2194 1759 
Q 1497 1759 1228 1600 
Q 959 1441 959 1056 
Q 959 750 1161 570 
Q 1363 391 1709 391 
Q 2188 391 2477 730 
Q 2766 1069 2766 1631 
L 2766 1759 
L 2194 1759 
z
M 3341 1997 
L 3341 0 
L 2766 0 
L 2766 531 
Q 2569 213 2275 61 
Q 1981 -91 1556 -91 
Q 1019 -91 701 211 
Q 384 513 384 1019 
Q 384 1609 779 1909 
Q 1175 2209 1959 2209 
L 2766 2209 
L 2766 2266 
Q 2766 2663 2505 2880 
Q 2244 3097 1772 3097 
Q 1472 3097 1187 3025 
Q 903 2953 641 2809 
L 641 3341 
Q 956 3463 1253 3523 
Q 1550 3584 1831 3584 
Q 2591 3584 2966 3190 
Q 3341 2797 3341 1997 
z
" transform="scale(0.015625)"/>
       <path id="DejaVuSans-6c" d="M 603 4863 
L 1178 4863 
L 1178 0 
L 603 0 
L 603 4863 
z
" transform="scale(0.015625)"/>
       <path id="DejaVuSans-20" transform="scale(0.015625)"/>
       <path id="DejaVuSans-Oblique-79" d="M 1588 -325 
Q 1188 -997 936 -1164 
Q 684 -1331 294 -1331 
L -159 -1331 
L -63 -850 
L 269 -850 
Q 509 -850 678 -719 
Q 847 -588 1056 -206 
L 1234 128 
L 459 3500 
L 1069 3500 
L 1650 819 
L 3256 3500 
L 3859 3500 
L 1588 -325 
z
" transform="scale(0.015625)"/>
       <path id="DejaVuSans-50" d="M 1259 4147 
L 1259 2394 
L 2053 2394 
Q 2494 2394 2734 2622 
Q 2975 2850 2975 3272 
Q 2975 3691 2734 3919 
Q 2494 4147 2053 4147 
L 1259 4147 
z
M 628 4666 
L 2053 4666 
Q 2838 4666 3239 4311 
Q 3641 3956 3641 3272 
Q 3641 2581 3239 2228 
Q 2838 1875 2053 1875 
L 1259 1875 
L 1259 0 
L 628 0 
L 628 4666 
z
" transform="scale(0.015625)"/>
       <path id="DejaVuSans-6f" d="M 1959 3097 
Q 1497 3097 1228 2736 
Q 959 2375 959 1747 
Q 959 1119 1226 758 
Q 1494 397 1959 397 
Q 2419 397 2687 759 
Q 2956 1122 2956 1747 
Q 2956 2369 2687 2733 
Q 2419 3097 1959 3097 
z
M 1959 3584 
Q 2709 3584 3137 3096 
Q 3566 2609 3566 1747 
Q 3566 888 3137 398 
Q 2709 -91 1959 -91 
Q 1206 -91 779 398 
Q 353 888 353 1747 
Q 353 2609 779 3096 
Q 1206 3584 1959 3584 
z
" transform="scale(0.015625)"/>
       <path id="DejaVuSans-73" d="M 2834 3397 
L 2834 2853 
Q 2591 2978 2328 3040 
Q 2066 3103 1784 3103 
Q 1356 3103 1142 2972 
Q 928 2841 928 2578 
Q 928 2378 1081 2264 
Q 1234 2150 1697 2047 
L 1894 2003 
Q 2506 1872 2764 1633 
Q 3022 1394 3022 966 
Q 3022 478 2636 193 
Q 2250 -91 1575 -91 
Q 1294 -91 989 -36 
Q 684 19 347 128 
L 347 722 
Q 666 556 975 473 
Q 1284 391 1588 391 
Q 1994 391 2212 530 
Q 2431 669 2431 922 
Q 2431 1156 2273 1281 
Q 2116 1406 1581 1522 
L 1381 1569 
Q 847 1681 609 1914 
Q 372 2147 372 2553 
Q 372 3047 722 3315 
Q 1072 3584 1716 3584 
Q 2034 3584 2315 3537 
Q 2597 3491 2834 3397 
z
" transform="scale(0.015625)"/>
       <path id="DejaVuSans-69" d="M 603 3500 
L 1178 3500 
L 1178 0 
L 603 0 
L 603 3500 
z
M 603 4863 
L 1178 4863 
L 1178 4134 
L 603 4134 
L 603 4863 
z
" transform="scale(0.015625)"/>
       <path id="DejaVuSans-74" d="M 1172 4494 
L 1172 3500 
L 2356 3500 
L 2356 3053 
L 1172 3053 
L 1172 1153 
Q 1172 725 1289 603 
Q 1406 481 1766 481 
L 2356 481 
L 2356 0 
L 1766 0 
Q 1100 0 847 248 
Q 594 497 594 1153 
L 594 3053 
L 172 3053 
L 172 3500 
L 594 3500 
L 594 4494 
L 1172 4494 
z
" transform="scale(0.015625)"/>
       <path id="DejaVuSans-6e" d="M 3513 2113 
L 3513 0 
L 2938 0 
L 2938 2094 
Q 2938 2591 2744 2837 
Q 2550 3084 2163 3084 
Q 1697 3084 1428 2787 
Q 1159 2491 1159 1978 
L 1159 0 
L 581 0 
L 581 3500 
L 1159 3500 
L 1159 2956 
Q 1366 3272 1645 3428 
Q 1925 3584 2291 3584 
Q 2894 3584 3203 3211 
Q 3513 2838 3513 2113 
z
" transform="scale(0.015625)"/>
      </defs>
      <use xlink:href="#DejaVuSans-52" transform="translate(0 0.015625)"/>
      <use xlink:href="#DejaVuSans-65" transform="translate(69.482422 0.015625)"/>
      <use xlink:href="#DejaVuSans-61" transform="translate(131.005859 0.015625)"/>
      <use xlink:href="#DejaVuSans-6c" transform="translate(192.285156 0.015625)"/>
      <use xlink:href="#DejaVuSans-20" transform="translate(220.068359 0.015625)"/>
      <use xlink:href="#DejaVuSans-Oblique-79" transform="translate(251.855469 0.015625)"/>
      <use xlink:href="#DejaVuSans-20" transform="translate(311.035156 0.015625)"/>
      <use xlink:href="#DejaVuSans-50" transform="translate(342.822266 0.015625)"/>
      <use xlink:href="#DejaVuSans-6f" transform="translate(403.125 0.015625)"/>
      <use xlink:href="#DejaVuSans-73" transform="translate(464.306641 0.015625)"/>
      <use xlink:href="#DejaVuSans-69" transform="translate(516.40625 0.015625)"/>
      <use xlink:href="#DejaVuSans-74" transform="translate(544.189453 0.015625)"/>
      <use xlink:href="#DejaVuSans-69" transform="translate(583.398438 0.015625)"/>
      <use xlink:href="#DejaVuSans-6f" transform="translate(611.181641 0.015625)"/>
      <use xlink:href="#DejaVuSans-6e" transform="translate(672.363281 0.015625)"/>
     </g>
    </g>
    <g id="line2d_15">
     <path d="M 153 105.56 
L 163 105.56 
L 173 105.56 
" style="fill: none; stroke: #0000ff; stroke-opacity: 0.5; stroke-width: 1.5; stroke-linecap: square"/>
    </g>
    <g id="text_13">
     <!-- Prediction $y$ -->
     <g transform="translate(181 109.06) scale(0.1 -0.1)">
      <defs>
       <path id="DejaVuSans-72" d="M 2631 2963 
Q 2534 3019 2420 3045 
Q 2306 3072 2169 3072 
Q 1681 3072 1420 2755 
Q 1159 2438 1159 1844 
L 1159 0 
L 581 0 
L 581 3500 
L 1159 3500 
L 1159 2956 
Q 1341 3275 1631 3429 
Q 1922 3584 2338 3584 
Q 2397 3584 2469 3576 
Q 2541 3569 2628 3553 
L 2631 2963 
z
" transform="scale(0.015625)"/>
       <path id="DejaVuSans-64" d="M 2906 2969 
L 2906 4863 
L 3481 4863 
L 3481 0 
L 2906 0 
L 2906 525 
Q 2725 213 2448 61 
Q 2172 -91 1784 -91 
Q 1150 -91 751 415 
Q 353 922 353 1747 
Q 353 2572 751 3078 
Q 1150 3584 1784 3584 
Q 2172 3584 2448 3432 
Q 2725 3281 2906 2969 
z
M 947 1747 
Q 947 1113 1208 752 
Q 1469 391 1925 391 
Q 2381 391 2643 752 
Q 2906 1113 2906 1747 
Q 2906 2381 2643 2742 
Q 2381 3103 1925 3103 
Q 1469 3103 1208 2742 
Q 947 2381 947 1747 
z
" transform="scale(0.015625)"/>
       <path id="DejaVuSans-63" d="M 3122 3366 
L 3122 2828 
Q 2878 2963 2633 3030 
Q 2388 3097 2138 3097 
Q 1578 3097 1268 2742 
Q 959 2388 959 1747 
Q 959 1106 1268 751 
Q 1578 397 2138 397 
Q 2388 397 2633 464 
Q 2878 531 3122 666 
L 3122 134 
Q 2881 22 2623 -34 
Q 2366 -91 2075 -91 
Q 1284 -91 818 406 
Q 353 903 353 1747 
Q 353 2603 823 3093 
Q 1294 3584 2113 3584 
Q 2378 3584 2631 3529 
Q 2884 3475 3122 3366 
z
" transform="scale(0.015625)"/>
      </defs>
      <use xlink:href="#DejaVuSans-50" transform="translate(0 0.015625)"/>
      <use xlink:href="#DejaVuSans-72" transform="translate(60.302734 0.015625)"/>
      <use xlink:href="#DejaVuSans-65" transform="translate(101.416016 0.015625)"/>
      <use xlink:href="#DejaVuSans-64" transform="translate(162.939453 0.015625)"/>
      <use xlink:href="#DejaVuSans-69" transform="translate(226.416016 0.015625)"/>
      <use xlink:href="#DejaVuSans-63" transform="translate(254.199219 0.015625)"/>
      <use xlink:href="#DejaVuSans-74" transform="translate(309.179688 0.015625)"/>
      <use xlink:href="#DejaVuSans-69" transform="translate(348.388672 0.015625)"/>
      <use xlink:href="#DejaVuSans-6f" transform="translate(376.171875 0.015625)"/>
      <use xlink:href="#DejaVuSans-6e" transform="translate(437.353516 0.015625)"/>
      <use xlink:href="#DejaVuSans-20" transform="translate(500.732422 0.015625)"/>
      <use xlink:href="#DejaVuSans-Oblique-79" transform="translate(532.519531 0.015625)"/>
     </g>
    </g>
    <g id="patch_8">
     <path d="M 153 123.758438 
L 173 123.758438 
L 173 116.758438 
L 153 116.758438 
z
" style="fill: #00ffff; fill-opacity: 0.5; stroke: #00ffff; stroke-opacity: 0.5; stroke-linejoin: miter"/>
    </g>
    <g id="text_14">
     <!-- Confidence -->
     <g transform="translate(181 123.758438) scale(0.1 -0.1)">
      <defs>
       <path id="DejaVuSans-43" d="M 4122 4306 
L 4122 3641 
Q 3803 3938 3442 4084 
Q 3081 4231 2675 4231 
Q 1875 4231 1450 3742 
Q 1025 3253 1025 2328 
Q 1025 1406 1450 917 
Q 1875 428 2675 428 
Q 3081 428 3442 575 
Q 3803 722 4122 1019 
L 4122 359 
Q 3791 134 3420 21 
Q 3050 -91 2638 -91 
Q 1578 -91 968 557 
Q 359 1206 359 2328 
Q 359 3453 968 4101 
Q 1578 4750 2638 4750 
Q 3056 4750 3426 4639 
Q 3797 4528 4122 4306 
z
" transform="scale(0.015625)"/>
       <path id="DejaVuSans-66" d="M 2375 4863 
L 2375 4384 
L 1825 4384 
Q 1516 4384 1395 4259 
Q 1275 4134 1275 3809 
L 1275 3500 
L 2222 3500 
L 2222 3053 
L 1275 3053 
L 1275 0 
L 697 0 
L 697 3053 
L 147 3053 
L 147 3500 
L 697 3500 
L 697 3744 
Q 697 4328 969 4595 
Q 1241 4863 1831 4863 
L 2375 4863 
z
" transform="scale(0.015625)"/>
      </defs>
      <use xlink:href="#DejaVuSans-43"/>
      <use xlink:href="#DejaVuSans-6f" x="69.824219"/>
      <use xlink:href="#DejaVuSans-6e" x="131.005859"/>
      <use xlink:href="#DejaVuSans-66" x="194.384766"/>
      <use xlink:href="#DejaVuSans-69" x="229.589844"/>
      <use xlink:href="#DejaVuSans-64" x="257.373047"/>
      <use xlink:href="#DejaVuSans-65" x="320.849609"/>
      <use xlink:href="#DejaVuSans-6e" x="382.373047"/>
      <use xlink:href="#DejaVuSans-63" x="445.751953"/>
      <use xlink:href="#DejaVuSans-65" x="500.732422"/>
     </g>
    </g>
   </g>
  </g>
  <g id="axes_2">
   <g id="patch_9">
    <path d="M 144 576.72 
L 1036.8 576.72 
L 1036.8 349.92 
L 144 349.92 
z
" style="fill: #ffffff"/>
   </g>
   <g id="matplotlib.axis_3">
    <g id="xtick_7">
     <g id="line2d_16">
      <g>
       <use xlink:href="#m2e20896ad8" x="144" y="576.72" style="stroke: #000000; stroke-width: 0.8"/>
      </g>
     </g>
     <g id="text_15">
      <!-- 0 -->
      <g transform="translate(140.81875 591.318438) scale(0.1 -0.1)">
       <use xlink:href="#DejaVuSans-30"/>
      </g>
     </g>
    </g>
    <g id="xtick_8">
     <g id="line2d_17">
      <g>
       <use xlink:href="#m2e20896ad8" x="292.849617" y="576.72" style="stroke: #000000; stroke-width: 0.8"/>
      </g>
     </g>
     <g id="text_16">
      <!-- 5 -->
      <g transform="translate(289.668367 591.318438) scale(0.1 -0.1)">
       <use xlink:href="#DejaVuSans-35"/>
      </g>
     </g>
    </g>
    <g id="xtick_9">
     <g id="line2d_18">
      <g>
       <use xlink:href="#m2e20896ad8" x="441.699233" y="576.72" style="stroke: #000000; stroke-width: 0.8"/>
      </g>
     </g>
     <g id="text_17">
      <!-- 10 -->
      <g transform="translate(435.336733 591.318438) scale(0.1 -0.1)">
       <use xlink:href="#DejaVuSans-31"/>
       <use xlink:href="#DejaVuSans-30" x="63.623047"/>
      </g>
     </g>
    </g>
    <g id="xtick_10">
     <g id="line2d_19">
      <g>
       <use xlink:href="#m2e20896ad8" x="590.54885" y="576.72" style="stroke: #000000; stroke-width: 0.8"/>
      </g>
     </g>
     <g id="text_18">
      <!-- 15 -->
      <g transform="translate(584.18635 591.318438) scale(0.1 -0.1)">
       <use xlink:href="#DejaVuSans-31"/>
       <use xlink:href="#DejaVuSans-35" x="63.623047"/>
      </g>
     </g>
    </g>
    <g id="xtick_11">
     <g id="line2d_20">
      <g>
       <use xlink:href="#m2e20896ad8" x="739.398466" y="576.72" style="stroke: #000000; stroke-width: 0.8"/>
      </g>
     </g>
     <g id="text_19">
      <!-- 20 -->
      <g transform="translate(733.035966 591.318438) scale(0.1 -0.1)">
       <use xlink:href="#DejaVuSans-32"/>
       <use xlink:href="#DejaVuSans-30" x="63.623047"/>
      </g>
     </g>
    </g>
    <g id="xtick_12">
     <g id="line2d_21">
      <g>
       <use xlink:href="#m2e20896ad8" x="888.248083" y="576.72" style="stroke: #000000; stroke-width: 0.8"/>
      </g>
     </g>
     <g id="text_20">
      <!-- 25 -->
      <g transform="translate(881.885583 591.318438) scale(0.1 -0.1)">
       <use xlink:href="#DejaVuSans-32"/>
       <use xlink:href="#DejaVuSans-35" x="63.623047"/>
      </g>
     </g>
    </g>
   </g>
   <g id="matplotlib.axis_4">
    <g id="ytick_6">
     <g id="line2d_22">
      <g>
       <use xlink:href="#m1af686cab8" x="144" y="557.019291" style="stroke: #000000; stroke-width: 0.8"/>
      </g>
     </g>
     <g id="text_21">
      <!-- −0.04 -->
      <g transform="translate(106.354687 560.81851) scale(0.1 -0.1)">
       <defs>
        <path id="DejaVuSans-2212" d="M 678 2272 
L 4684 2272 
L 4684 1741 
L 678 1741 
L 678 2272 
z
" transform="scale(0.015625)"/>
        <path id="DejaVuSans-34" d="M 2419 4116 
L 825 1625 
L 2419 1625 
L 2419 4116 
z
M 2253 4666 
L 3047 4666 
L 3047 1625 
L 3713 1625 
L 3713 1100 
L 3047 1100 
L 3047 0 
L 2419 0 
L 2419 1100 
L 313 1100 
L 313 1709 
L 2253 4666 
z
" transform="scale(0.015625)"/>
       </defs>
       <use xlink:href="#DejaVuSans-2212"/>
       <use xlink:href="#DejaVuSans-30" x="83.789062"/>
       <use xlink:href="#DejaVuSans-2e" x="147.412109"/>
       <use xlink:href="#DejaVuSans-30" x="179.199219"/>
       <use xlink:href="#DejaVuSans-34" x="242.822266"/>
      </g>
     </g>
    </g>
    <g id="ytick_7">
     <g id="line2d_23">
      <g>
       <use xlink:href="#m1af686cab8" x="144" y="527.828288" style="stroke: #000000; stroke-width: 0.8"/>
      </g>
     </g>
     <g id="text_22">
      <!-- −0.03 -->
      <g transform="translate(106.354687 531.627507) scale(0.1 -0.1)">
       <use xlink:href="#DejaVuSans-2212"/>
       <use xlink:href="#DejaVuSans-30" x="83.789062"/>
       <use xlink:href="#DejaVuSans-2e" x="147.412109"/>
       <use xlink:href="#DejaVuSans-30" x="179.199219"/>
       <use xlink:href="#DejaVuSans-33" x="242.822266"/>
      </g>
     </g>
    </g>
    <g id="ytick_8">
     <g id="line2d_24">
      <g>
       <use xlink:href="#m1af686cab8" x="144" y="498.637284" style="stroke: #000000; stroke-width: 0.8"/>
      </g>
     </g>
     <g id="text_23">
      <!-- −0.02 -->
      <g transform="translate(106.354687 502.436503) scale(0.1 -0.1)">
       <use xlink:href="#DejaVuSans-2212"/>
       <use xlink:href="#DejaVuSans-30" x="83.789062"/>
       <use xlink:href="#DejaVuSans-2e" x="147.412109"/>
       <use xlink:href="#DejaVuSans-30" x="179.199219"/>
       <use xlink:href="#DejaVuSans-32" x="242.822266"/>
      </g>
     </g>
    </g>
    <g id="ytick_9">
     <g id="line2d_25">
      <g>
       <use xlink:href="#m1af686cab8" x="144" y="469.446281" style="stroke: #000000; stroke-width: 0.8"/>
      </g>
     </g>
     <g id="text_24">
      <!-- −0.01 -->
      <g transform="translate(106.354687 473.245499) scale(0.1 -0.1)">
       <use xlink:href="#DejaVuSans-2212"/>
       <use xlink:href="#DejaVuSans-30" x="83.789062"/>
       <use xlink:href="#DejaVuSans-2e" x="147.412109"/>
       <use xlink:href="#DejaVuSans-30" x="179.199219"/>
       <use xlink:href="#DejaVuSans-31" x="242.822266"/>
      </g>
     </g>
    </g>
    <g id="ytick_10">
     <g id="line2d_26">
      <g>
       <use xlink:href="#m1af686cab8" x="144" y="440.255277" style="stroke: #000000; stroke-width: 0.8"/>
      </g>
     </g>
     <g id="text_25">
      <!-- 0.00 -->
      <g transform="translate(114.734375 444.054496) scale(0.1 -0.1)">
       <use xlink:href="#DejaVuSans-30"/>
       <use xlink:href="#DejaVuSans-2e" x="63.623047"/>
       <use xlink:href="#DejaVuSans-30" x="95.410156"/>
       <use xlink:href="#DejaVuSans-30" x="159.033203"/>
      </g>
     </g>
    </g>
    <g id="ytick_11">
     <g id="line2d_27">
      <g>
       <use xlink:href="#m1af686cab8" x="144" y="411.064273" style="stroke: #000000; stroke-width: 0.8"/>
      </g>
     </g>
     <g id="text_26">
      <!-- 0.01 -->
      <g transform="translate(114.734375 414.863492) scale(0.1 -0.1)">
       <use xlink:href="#DejaVuSans-30"/>
       <use xlink:href="#DejaVuSans-2e" x="63.623047"/>
       <use xlink:href="#DejaVuSans-30" x="95.410156"/>
       <use xlink:href="#DejaVuSans-31" x="159.033203"/>
      </g>
     </g>
    </g>
    <g id="ytick_12">
     <g id="line2d_28">
      <g>
       <use xlink:href="#m1af686cab8" x="144" y="381.87327" style="stroke: #000000; stroke-width: 0.8"/>
      </g>
     </g>
     <g id="text_27">
      <!-- 0.02 -->
      <g transform="translate(114.734375 385.672488) scale(0.1 -0.1)">
       <use xlink:href="#DejaVuSans-30"/>
       <use xlink:href="#DejaVuSans-2e" x="63.623047"/>
       <use xlink:href="#DejaVuSans-30" x="95.410156"/>
       <use xlink:href="#DejaVuSans-32" x="159.033203"/>
      </g>
     </g>
    </g>
    <g id="ytick_13">
     <g id="line2d_29">
      <g>
       <use xlink:href="#m1af686cab8" x="144" y="352.682266" style="stroke: #000000; stroke-width: 0.8"/>
      </g>
     </g>
     <g id="text_28">
      <!-- 0.03 -->
      <g transform="translate(114.734375 356.481485) scale(0.1 -0.1)">
       <use xlink:href="#DejaVuSans-30"/>
       <use xlink:href="#DejaVuSans-2e" x="63.623047"/>
       <use xlink:href="#DejaVuSans-30" x="95.410156"/>
       <use xlink:href="#DejaVuSans-33" x="159.033203"/>
      </g>
     </g>
    </g>
   </g>
   <g id="line2d_30">
    <path d="M 144 404.226912 
L 173.769923 413.237619 
L 203.539847 410.329136 
L 233.30977 405.367874 
L 263.079693 400.81597 
L 292.849617 396.694938 
L 322.61954 393.141712 
L 352.389463 389.978935 
L 411.92931 384.805657 
L 441.699233 382.592606 
L 471.469156 380.507149 
L 501.23908 378.586165 
L 531.009003 376.852352 
L 590.54885 373.767269 
L 620.318773 372.457275 
L 650.088696 370.904439 
L 679.85862 369.598738 
L 739.398466 367.3483 
L 769.168389 366.259153 
L 798.938313 365.484356 
L 828.708236 364.461508 
L 858.478159 363.645367 
L 888.248083 363.070797 
L 918.018006 362.340593 
L 947.787929 361.725732 
L 1007.327776 360.893608 
L 1037.097699 360.511889 
L 1096.637546 360.229091 
L 1153 360.590888 
L 1153 360.590888 
" clip-path="url(#p583412028f)" style="fill: none; stroke: #1f77b4; stroke-width: 1.5; stroke-linecap: square"/>
   </g>
   <g id="patch_10">
    <path d="M 144 576.72 
L 144 349.92 
" style="fill: none; stroke: #000000; stroke-width: 0.8; stroke-linejoin: miter; stroke-linecap: square"/>
   </g>
   <g id="patch_11">
    <path d="M 1036.8 576.72 
L 1036.8 349.92 
" style="fill: none; stroke: #000000; stroke-width: 0.8; stroke-linejoin: miter; stroke-linecap: square"/>
   </g>
   <g id="patch_12">
    <path d="M 144 576.72 
L 1036.8 576.72 
" style="fill: none; stroke: #000000; stroke-width: 0.8; stroke-linejoin: miter; stroke-linecap: square"/>
   </g>
   <g id="patch_13">
    <path d="M 144 349.92 
L 1036.8 349.92 
" style="fill: none; stroke: #000000; stroke-width: 0.8; stroke-linejoin: miter; stroke-linecap: square"/>
   </g>
   <g id="legend_2">
    <g id="patch_14">
     <path d="M 151 372.598125 
L 260.221875 372.598125 
Q 262.221875 372.598125 262.221875 370.598125 
L 262.221875 356.92 
Q 262.221875 354.92 260.221875 354.92 
L 151 354.92 
Q 149 354.92 149 356.92 
L 149 370.598125 
Q 149 372.598125 151 372.598125 
z
" style="fill: #ffffff; opacity: 0.8; stroke: #cccccc; stroke-linejoin: miter"/>
    </g>
    <g id="line2d_31">
     <path d="M 153 363.018437 
L 163 363.018437 
L 173 363.018437 
" style="fill: none; stroke: #1f77b4; stroke-width: 1.5; stroke-linecap: square"/>
    </g>
    <g id="text_29">
     <!-- Prediction Error -->
     <g transform="translate(181 366.518437) scale(0.1 -0.1)">
      <defs>
       <path id="DejaVuSans-45" d="M 628 4666 
L 3578 4666 
L 3578 4134 
L 1259 4134 
L 1259 2753 
L 3481 2753 
L 3481 2222 
L 1259 2222 
L 1259 531 
L 3634 531 
L 3634 0 
L 628 0 
L 628 4666 
z
" transform="scale(0.015625)"/>
      </defs>
      <use xlink:href="#DejaVuSans-50"/>
      <use xlink:href="#DejaVuSans-72" x="58.552734"/>
      <use xlink:href="#DejaVuSans-65" x="97.416016"/>
      <use xlink:href="#DejaVuSans-64" x="158.939453"/>
      <use xlink:href="#DejaVuSans-69" x="222.416016"/>
      <use xlink:href="#DejaVuSans-63" x="250.199219"/>
      <use xlink:href="#DejaVuSans-74" x="305.179688"/>
      <use xlink:href="#DejaVuSans-69" x="344.388672"/>
      <use xlink:href="#DejaVuSans-6f" x="372.171875"/>
      <use xlink:href="#DejaVuSans-6e" x="433.353516"/>
      <use xlink:href="#DejaVuSans-20" x="496.732422"/>
      <use xlink:href="#DejaVuSans-45" x="528.519531"/>
      <use xlink:href="#DejaVuSans-72" x="591.703125"/>
      <use xlink:href="#DejaVuSans-72" x="631.066406"/>
      <use xlink:href="#DejaVuSans-6f" x="669.929688"/>
      <use xlink:href="#DejaVuSans-72" x="731.111328"/>
     </g>
    </g>
   </g>
  </g>
  <g id="text_30">
   <!-- $y$-Position Prediction -->
   <g transform="translate(514.74 22.08) scale(0.12 -0.12)">
    <defs>
     <path id="DejaVuSans-2d" d="M 313 2009 
L 1997 2009 
L 1997 1497 
L 313 1497 
L 313 2009 
z
" transform="scale(0.015625)"/>
    </defs>
    <use xlink:href="#DejaVuSans-Oblique-79" transform="translate(0 0.015625)"/>
    <use xlink:href="#DejaVuSans-2d" transform="translate(59.179688 0.015625)"/>
    <use xlink:href="#DejaVuSans-50" transform="translate(95.263672 0.015625)"/>
    <use xlink:href="#DejaVuSans-6f" transform="translate(155.566406 0.015625)"/>
    <use xlink:href="#DejaVuSans-73" transform="translate(216.748047 0.015625)"/>
    <use xlink:href="#DejaVuSans-69" transform="translate(268.847656 0.015625)"/>
    <use xlink:href="#DejaVuSans-74" transform="translate(296.630859 0.015625)"/>
    <use xlink:href="#DejaVuSans-69" transform="translate(335.839844 0.015625)"/>
    <use xlink:href="#DejaVuSans-6f" transform="translate(363.623047 0.015625)"/>
    <use xlink:href="#DejaVuSans-6e" transform="translate(424.804688 0.015625)"/>
    <use xlink:href="#DejaVuSans-20" transform="translate(488.183594 0.015625)"/>
    <use xlink:href="#DejaVuSans-50" transform="translate(519.970703 0.015625)"/>
    <use xlink:href="#DejaVuSans-72" transform="translate(580.273438 0.015625)"/>
    <use xlink:href="#DejaVuSans-65" transform="translate(621.386719 0.015625)"/>
    <use xlink:href="#DejaVuSans-64" transform="translate(682.910156 0.015625)"/>
    <use xlink:href="#DejaVuSans-69" transform="translate(746.386719 0.015625)"/>
    <use xlink:href="#DejaVuSans-63" transform="translate(774.169922 0.015625)"/>
    <use xlink:href="#DejaVuSans-74" transform="translate(829.150391 0.015625)"/>
    <use xlink:href="#DejaVuSans-69" transform="translate(868.359375 0.015625)"/>
    <use xlink:href="#DejaVuSans-6f" transform="translate(896.142578 0.015625)"/>
    <use xlink:href="#DejaVuSans-6e" transform="translate(957.324219 0.015625)"/>
   </g>
  </g>
 </g>
 <defs>
  <clipPath id="p33897e0ac9">
   <rect x="144" y="77.76" width="892.8" height="226.8"/>
  </clipPath>
  <clipPath id="p583412028f">
   <rect x="144" y="349.92" width="892.8" height="226.8"/>
  </clipPath>
 </defs>
</svg>
