<?xml version="1.0" encoding="utf-8" standalone="no"?>
<!DOCTYPE svg PUBLIC "-//W3C//DTD SVG 1.1//EN"
  "http://www.w3.org/Graphics/SVG/1.1/DTD/svg11.dtd">
<svg xmlns:xlink="http://www.w3.org/1999/xlink" width="1152pt" height="648pt" viewBox="0 0 1152 648" xmlns="http://www.w3.org/2000/svg" version="1.1">
 <metadata>
  <rdf:RDF xmlns:dc="http://purl.org/dc/elements/1.1/" xmlns:cc="http://creativecommons.org/ns#" xmlns:rdf="http://www.w3.org/1999/02/22-rdf-syntax-ns#">
   <cc:Work>
    <dc:type rdf:resource="http://purl.org/dc/dcmitype/StillImage"/>
    <dc:date>2024-06-20T12:45:56.830576</dc:date>
    <dc:format>image/svg+xml</dc:format>
    <dc:creator>
     <cc:Agent>
      <dc:title>Matplotlib v3.9.0, https://matplotlib.org/</dc:title>
     </cc:Agent>
    </dc:creator>
   </cc:Work>
  </rdf:RDF>
 </metadata>
 <defs>
  <style type="text/css">*{stroke-linejoin: round; stroke-linecap: butt}</style>
 </defs>
 <g id="figure_1">
  <g id="patch_1">
   <path d="M 0 648 
L 1152 648 
L 1152 0 
L 0 0 
z
" style="fill: #ffffff"/>
  </g>
  <g id="axes_1">
   <g id="patch_2">
    <path d="M 144 304.56 
L 1036.8 304.56 
L 1036.8 77.76 
L 144 77.76 
z
" style="fill: #ffffff"/>
   </g>
   <g id="PolyCollection_1">
    <defs>
     <path id="m2f8f997b74" d="M 292.849617 -495.821785 
L 292.849617 -489.055153 
L 295.826609 -490.944949 
L 298.803601 -492.773597 
L 301.780594 -494.56513 
L 304.757586 -496.345369 
L 307.734578 -498.109199 
L 310.711571 -499.85624 
L 313.688563 -501.589685 
L 316.665555 -503.300009 
L 319.642548 -505.003972 
L 322.61954 -506.68887 
L 325.596532 -508.36888 
L 328.573525 -510.040478 
L 331.550517 -511.684964 
L 334.527509 -513.331726 
L 337.504502 -514.965068 
L 340.481494 -516.579218 
L 343.458486 -518.181699 
L 346.435478 -519.76874 
L 349.412471 -521.33954 
L 352.389463 -522.903013 
L 355.366455 -524.459815 
L 358.343448 -525.979194 
L 361.32044 -527.489699 
L 364.297432 -528.97744 
L 367.274425 -530.442996 
L 370.251417 -531.888748 
L 373.228409 -533.29755 
L 376.205402 -534.681003 
L 379.182394 -536.026487 
L 382.159386 -537.343919 
L 385.136379 -538.624729 
L 388.113371 -539.852209 
L 391.090363 -541.04038 
L 394.067356 -542.176905 
L 397.044348 -543.264977 
L 400.02134 -544.3005 
L 402.998333 -545.279031 
L 405.975325 -546.195981 
L 408.952317 -547.069324 
L 411.92931 -547.885445 
L 414.906302 -548.628217 
L 417.883294 -549.308449 
L 420.860287 -549.900748 
L 423.837279 -550.427118 
L 426.814271 -550.870955 
L 429.791264 -551.233541 
L 432.768256 -551.511481 
L 435.745248 -551.683195 
L 438.722241 -551.772257 
L 441.699233 -551.776382 
L 444.676225 -551.647056 
L 447.653218 -551.455286 
L 450.63021 -551.154781 
L 453.607202 -550.750336 
L 456.584195 -550.251211 
L 459.561187 -549.659895 
L 462.538179 -548.969793 
L 465.515172 -548.185371 
L 468.492164 -547.320107 
L 471.469156 -546.32451 
L 474.446149 -545.220899 
L 477.423141 -544.027959 
L 480.400133 -542.720895 
L 483.377126 -541.318129 
L 486.354118 -539.815286 
L 489.33111 -538.235037 
L 492.308103 -536.577509 
L 495.285095 -534.825432 
L 498.262087 -532.996356 
L 501.23908 -531.082798 
L 504.216072 -529.097023 
L 507.193064 -527.06165 
L 510.170057 -524.947098 
L 513.147049 -522.757366 
L 516.124041 -520.473551 
L 519.101034 -518.129363 
L 522.078026 -515.705755 
L 525.055018 -513.239306 
L 528.032011 -510.714461 
L 531.009003 -508.146055 
L 533.985995 -505.513103 
L 536.962988 -502.827136 
L 539.93998 -500.088585 
L 542.916972 -497.300559 
L 545.893965 -494.484086 
L 548.870957 -491.62743 
L 551.847949 -488.732537 
L 554.824942 -485.816391 
L 557.801934 -482.867858 
L 560.778926 -479.885563 
L 563.755919 -476.877103 
L 566.732911 -473.844188 
L 569.709903 -470.793633 
L 572.686896 -467.714532 
L 575.663888 -464.630318 
L 578.64088 -461.535215 
L 581.617873 -458.430148 
L 584.594865 -455.32054 
L 587.571857 -452.187418 
L 590.54885 -449.074335 
L 593.525842 -445.968632 
L 596.502834 -442.866849 
L 599.479827 -439.778236 
L 602.456819 -436.702623 
L 605.433811 -433.644192 
L 608.410804 -430.605749 
L 611.387796 -427.583591 
L 614.364788 -424.580398 
L 617.341781 -421.606956 
L 620.318773 -418.675469 
L 623.295765 -415.772364 
L 626.272758 -412.902116 
L 629.24975 -410.075448 
L 632.226742 -407.282265 
L 635.203735 -404.52909 
L 638.180727 -401.82696 
L 641.157719 -399.179603 
L 644.134712 -396.589097 
L 647.111704 -394.06101 
L 650.088696 -391.588606 
L 653.065689 -389.180445 
L 656.042681 -386.84022 
L 659.019673 -384.567141 
L 661.996666 -382.364276 
L 664.973658 -380.22392 
L 667.95065 -378.155469 
L 670.927643 -376.156653 
L 673.904635 -374.225651 
L 676.881627 -372.377428 
L 679.85862 -370.612265 
L 682.835612 -368.92504 
L 685.812604 -367.319363 
L 688.789597 -365.795424 
L 691.766589 -364.364099 
L 694.743581 -363.012722 
L 697.720574 -361.746916 
L 700.697566 -360.5749 
L 703.674558 -359.490415 
L 706.651551 -358.496335 
L 709.628543 -357.596345 
L 712.605535 -356.792288 
L 715.582528 -356.079212 
L 718.55952 -355.464963 
L 721.536512 -354.940842 
L 724.513505 -354.513468 
L 727.490497 -354.181137 
L 730.467489 -353.942151 
L 733.444481 -353.798555 
L 736.421474 -353.749091 
L 739.398466 -353.795906 
L 742.375458 -353.9389 
L 745.352451 -354.180608 
L 748.329443 -354.51523 
L 751.306435 -354.940714 
L 754.283428 -355.450476 
L 757.26042 -356.042595 
L 760.237412 -356.710411 
L 763.214405 -357.452179 
L 766.191397 -358.26599 
L 769.168389 -359.143445 
L 772.145382 -360.087298 
L 775.122374 -361.092772 
L 778.099366 -362.152505 
L 781.076359 -363.268851 
L 784.053351 -364.433874 
L 787.030343 -365.645671 
L 790.007336 -366.902647 
L 792.984328 -368.200416 
L 795.96132 -369.535656 
L 798.938313 -370.90862 
L 801.915305 -372.31349 
L 804.892297 -373.746011 
L 807.86929 -375.208217 
L 810.846282 -376.69126 
L 813.823274 -378.200947 
L 816.800267 -379.728784 
L 819.777259 -381.280389 
L 822.754251 -382.841818 
L 825.731244 -384.415056 
L 828.708236 -386.001282 
L 831.685228 -387.595572 
L 834.662221 -389.199132 
L 837.639213 -390.805932 
L 840.616205 -392.415885 
L 843.593198 -394.027763 
L 846.57019 -395.636396 
L 849.547182 -397.241344 
L 852.524175 -398.844541 
L 855.501167 -400.436894 
L 858.478159 -402.026633 
L 861.455152 -403.609217 
L 864.432144 -405.181895 
L 867.409136 -406.737185 
L 870.386129 -408.288269 
L 873.363121 -409.822862 
L 876.340113 -411.339681 
L 879.317106 -412.839403 
L 882.294098 -414.323325 
L 885.27109 -415.792945 
L 888.248083 -417.234072 
L 891.225075 -418.66063 
L 894.202067 -420.064542 
L 897.17906 -421.442877 
L 900.156052 -422.797839 
L 903.133044 -424.134749 
L 906.110037 -425.4421 
L 909.087029 -426.725511 
L 912.064021 -427.988414 
L 915.041014 -429.221635 
L 918.018006 -430.430734 
L 920.994998 -431.615473 
L 923.971991 -432.770994 
L 926.948983 -433.902524 
L 929.925975 -435.007622 
L 932.902968 -436.084217 
L 935.87996 -437.132285 
L 938.856952 -438.153658 
L 941.833945 -439.143762 
L 944.810937 -440.108511 
L 947.787929 -441.049056 
L 950.764922 -441.9527 
L 953.741914 -442.832891 
L 956.718906 -443.68211 
L 959.695899 -444.500689 
L 962.672891 -445.284653 
L 965.649883 -446.040715 
L 968.626876 -446.767871 
L 971.603868 -447.467629 
L 974.58086 -448.13209 
L 977.557853 -448.768301 
L 980.534845 -449.370919 
L 983.511837 -449.950917 
L 986.48883 -450.495528 
L 989.465822 -451.005529 
L 992.442814 -451.492123 
L 995.419807 -451.94108 
L 998.396799 -452.362908 
L 1001.373791 -452.756191 
L 1004.350784 -453.11508 
L 1007.327776 -453.444923 
L 1010.304768 -453.748749 
L 1013.281761 -454.015763 
L 1016.258753 -454.260476 
L 1019.235745 -454.47287 
L 1022.212738 -454.657834 
L 1025.18973 -454.813417 
L 1028.166722 -454.931112 
L 1031.143715 -455.023688 
L 1034.120707 -455.086626 
L 1034.120707 -458.859765 
L 1034.120707 -458.859765 
L 1031.143715 -458.897154 
L 1028.166722 -458.903488 
L 1025.18973 -458.881812 
L 1022.212738 -458.819015 
L 1019.235745 -458.724835 
L 1016.258753 -458.600976 
L 1013.281761 -458.443296 
L 1010.304768 -458.261461 
L 1007.327776 -458.040128 
L 1004.350784 -457.791735 
L 1001.373791 -457.512017 
L 998.396799 -457.196166 
L 995.419807 -456.851454 
L 992.442814 -456.477671 
L 989.465822 -456.06521 
L 986.48883 -455.628947 
L 983.511837 -455.155775 
L 980.534845 -454.647235 
L 977.557853 -454.116371 
L 974.58086 -453.551675 
L 971.603868 -452.95695 
L 968.626876 -452.326544 
L 965.649883 -451.66877 
L 962.672891 -450.982029 
L 959.695899 -450.26613 
L 956.718906 -449.51383 
L 953.741914 -448.729667 
L 950.764922 -447.914656 
L 947.787929 -447.07389 
L 944.810937 -446.194988 
L 941.833945 -445.293296 
L 938.856952 -444.365133 
L 935.87996 -443.404619 
L 932.902968 -442.416164 
L 929.925975 -441.397524 
L 926.948983 -440.349594 
L 923.971991 -439.275797 
L 920.994998 -438.177123 
L 918.018006 -437.047402 
L 915.041014 -435.893388 
L 912.064021 -434.713845 
L 909.087029 -433.503633 
L 906.110037 -432.273666 
L 903.133044 -431.017855 
L 900.156052 -429.731839 
L 897.17906 -428.427863 
L 894.202067 -427.098372 
L 891.225075 -425.740789 
L 888.248083 -424.360537 
L 885.27109 -422.964334 
L 882.294098 -421.536347 
L 879.317106 -420.094723 
L 876.340113 -418.63726 
L 873.363121 -417.15941 
L 870.386129 -415.662039 
L 867.409136 -414.148529 
L 864.432144 -412.630875 
L 861.455152 -411.092458 
L 858.478159 -409.543931 
L 855.501167 -407.989247 
L 852.524175 -406.431251 
L 849.547182 -404.860345 
L 846.57019 -403.286795 
L 843.593198 -401.707067 
L 840.616205 -400.122594 
L 837.639213 -398.538958 
L 834.662221 -396.957113 
L 831.685228 -395.377955 
L 828.708236 -393.808086 
L 825.731244 -392.245323 
L 822.754251 -390.69586 
L 819.777259 -389.153283 
L 816.800267 -387.620156 
L 813.823274 -386.112619 
L 810.846282 -384.623229 
L 807.86929 -383.16017 
L 804.892297 -381.717156 
L 801.915305 -380.303057 
L 798.938313 -378.91402 
L 795.96132 -377.557075 
L 792.984328 -376.238348 
L 790.007336 -374.956737 
L 787.030343 -373.715213 
L 784.053351 -372.517889 
L 781.076359 -371.366335 
L 778.099366 -370.263799 
L 775.122374 -369.217607 
L 772.145382 -368.224614 
L 769.168389 -367.295803 
L 766.191397 -366.434615 
L 763.214405 -365.636176 
L 760.237412 -364.912343 
L 757.26042 -364.261819 
L 754.283428 -363.687393 
L 751.306435 -363.194924 
L 748.329443 -362.784662 
L 745.352451 -362.461015 
L 742.375458 -362.222367 
L 739.398466 -362.078332 
L 736.421474 -362.033839 
L 733.444481 -362.088975 
L 730.467489 -362.241404 
L 727.490497 -362.4902 
L 724.513505 -362.834686 
L 721.536512 -363.279313 
L 718.55952 -363.821366 
L 715.582528 -364.455999 
L 712.605535 -365.193032 
L 709.628543 -366.022574 
L 706.651551 -366.951498 
L 703.674558 -367.977855 
L 700.697566 -369.094402 
L 697.720574 -370.300779 
L 694.743581 -371.604928 
L 691.766589 -372.992784 
L 688.789597 -374.461406 
L 685.812604 -376.02533 
L 682.835612 -377.670938 
L 679.85862 -379.397672 
L 676.881627 -381.201426 
L 673.904635 -383.089656 
L 670.927643 -385.061462 
L 667.95065 -387.099259 
L 664.973658 -389.206813 
L 661.996666 -391.386228 
L 659.019673 -393.627506 
L 656.042681 -395.938608 
L 653.065689 -398.31535 
L 650.088696 -400.759592 
L 647.111704 -403.267311 
L 644.134712 -405.828802 
L 641.157719 -408.450386 
L 638.180727 -411.125807 
L 635.203735 -413.852899 
L 632.226742 -416.629398 
L 629.24975 -419.445255 
L 626.272758 -422.293095 
L 623.295765 -425.182962 
L 620.318773 -428.105622 
L 617.341781 -431.053014 
L 614.364788 -434.037423 
L 611.387796 -437.050568 
L 608.410804 -440.082998 
L 605.433811 -443.130545 
L 602.456819 -446.195196 
L 599.479827 -449.275638 
L 596.502834 -452.367454 
L 593.525842 -455.469805 
L 590.54885 -458.574842 
L 587.571857 -461.679593 
L 584.594865 -464.801557 
L 581.617873 -467.903067 
L 578.64088 -470.998451 
L 575.663888 -474.081978 
L 572.686896 -477.150751 
L 569.709903 -480.212236 
L 566.732911 -483.245264 
L 563.755919 -486.259183 
L 560.778926 -489.248269 
L 557.801934 -492.211526 
L 554.824942 -495.14221 
L 551.847949 -498.036772 
L 548.870957 -500.907755 
L 545.893965 -503.73923 
L 542.916972 -506.527642 
L 539.93998 -509.279689 
L 536.962988 -511.984121 
L 533.985995 -514.638011 
L 531.009003 -517.241972 
L 528.032011 -519.780424 
L 525.055018 -522.269709 
L 522.078026 -524.695365 
L 519.101034 -527.075352 
L 516.124041 -529.378859 
L 513.147049 -531.625324 
L 510.170057 -533.785932 
L 507.193064 -535.875682 
L 504.216072 -537.884204 
L 501.23908 -539.833215 
L 498.262087 -541.710704 
L 495.285095 -543.503334 
L 492.308103 -545.219997 
L 489.33111 -546.841613 
L 486.354118 -548.379114 
L 483.377126 -549.838037 
L 480.400133 -551.197941 
L 477.423141 -552.464359 
L 474.446149 -553.624611 
L 471.469156 -554.693811 
L 468.492164 -555.668639 
L 465.515172 -556.518741 
L 462.538179 -557.284305 
L 459.561187 -557.957247 
L 456.584195 -558.534224 
L 453.607202 -559.014369 
L 450.63021 -559.398683 
L 447.653218 -559.680216 
L 444.676225 -559.838939 
L 441.699233 -559.930909 
L 438.722241 -559.898234 
L 435.745248 -559.777496 
L 432.768256 -559.577245 
L 429.791264 -559.275208 
L 426.814271 -558.890565 
L 423.837279 -558.42612 
L 420.860287 -557.880121 
L 417.883294 -557.269653 
L 414.906302 -556.572662 
L 411.92931 -555.812712 
L 408.952317 -554.98066 
L 405.975325 -554.090904 
L 402.998333 -553.157772 
L 400.02134 -552.164079 
L 397.044348 -551.114445 
L 394.067356 -550.012383 
L 391.090363 -548.862272 
L 388.113371 -547.660437 
L 385.136379 -546.418862 
L 382.159386 -545.12383 
L 379.182394 -543.791946 
L 376.205402 -542.431397 
L 373.228409 -541.031764 
L 370.251417 -539.605801 
L 367.274425 -538.141324 
L 364.297432 -536.655416 
L 361.32044 -535.147714 
L 358.343448 -533.617496 
L 355.366455 -532.076321 
L 352.389463 -530.49782 
L 349.412471 -528.915455 
L 346.435478 -527.33039 
L 343.458486 -525.731815 
L 340.481494 -524.122794 
L 337.504502 -522.506737 
L 334.527509 -520.878262 
L 331.550517 -519.244983 
L 328.573525 -517.620382 
L 325.596532 -515.974867 
L 322.61954 -514.328842 
L 319.642548 -512.681105 
L 316.665555 -511.012241 
L 313.688563 -509.32858 
L 310.711571 -507.601646 
L 307.734578 -505.828031 
L 304.757586 -503.986493 
L 301.780594 -502.059326 
L 298.803601 -500.037643 
L 295.826609 -497.906393 
L 292.849617 -495.821785 
z
" style="stroke: #00ffff; stroke-opacity: 0.5"/>
    </defs>
    <g clip-path="url(#pf0eaee045f)">
     <use xlink:href="#m2f8f997b74" x="0" y="648" style="fill: #00ffff; fill-opacity: 0.5; stroke: #00ffff; stroke-opacity: 0.5"/>
    </g>
   </g>
   <g id="matplotlib.axis_1">
    <g id="xtick_1">
     <g id="line2d_1">
      <defs>
       <path id="md82d46e401" d="M 0 0 
L 0 3.5 
" style="stroke: #000000; stroke-width: 0.8"/>
      </defs>
      <g>
       <use xlink:href="#md82d46e401" x="144" y="304.56" style="stroke: #000000; stroke-width: 0.8"/>
      </g>
     </g>
     <g id="text_1">
      <!-- 0 -->
      <g transform="translate(140.81875 319.158437) scale(0.1 -0.1)">
       <defs>
        <path id="DejaVuSans-30" d="M 2034 4250 
Q 1547 4250 1301 3770 
Q 1056 3291 1056 2328 
Q 1056 1369 1301 889 
Q 1547 409 2034 409 
Q 2525 409 2770 889 
Q 3016 1369 3016 2328 
Q 3016 3291 2770 3770 
Q 2525 4250 2034 4250 
z
M 2034 4750 
Q 2819 4750 3233 4129 
Q 3647 3509 3647 2328 
Q 3647 1150 3233 529 
Q 2819 -91 2034 -91 
Q 1250 -91 836 529 
Q 422 1150 422 2328 
Q 422 3509 836 4129 
Q 1250 4750 2034 4750 
z
" transform="scale(0.015625)"/>
       </defs>
       <use xlink:href="#DejaVuSans-30"/>
      </g>
     </g>
    </g>
    <g id="xtick_2">
     <g id="line2d_2">
      <g>
       <use xlink:href="#md82d46e401" x="292.849617" y="304.56" style="stroke: #000000; stroke-width: 0.8"/>
      </g>
     </g>
     <g id="text_2">
      <!-- 5 -->
      <g transform="translate(289.668367 319.158437) scale(0.1 -0.1)">
       <defs>
        <path id="DejaVuSans-35" d="M 691 4666 
L 3169 4666 
L 3169 4134 
L 1269 4134 
L 1269 2991 
Q 1406 3038 1543 3061 
Q 1681 3084 1819 3084 
Q 2600 3084 3056 2656 
Q 3513 2228 3513 1497 
Q 3513 744 3044 326 
Q 2575 -91 1722 -91 
Q 1428 -91 1123 -41 
Q 819 9 494 109 
L 494 744 
Q 775 591 1075 516 
Q 1375 441 1709 441 
Q 2250 441 2565 725 
Q 2881 1009 2881 1497 
Q 2881 1984 2565 2268 
Q 2250 2553 1709 2553 
Q 1456 2553 1204 2497 
Q 953 2441 691 2322 
L 691 4666 
z
" transform="scale(0.015625)"/>
       </defs>
       <use xlink:href="#DejaVuSans-35"/>
      </g>
     </g>
    </g>
    <g id="xtick_3">
     <g id="line2d_3">
      <g>
       <use xlink:href="#md82d46e401" x="441.699233" y="304.56" style="stroke: #000000; stroke-width: 0.8"/>
      </g>
     </g>
     <g id="text_3">
      <!-- 10 -->
      <g transform="translate(435.336733 319.158437) scale(0.1 -0.1)">
       <defs>
        <path id="DejaVuSans-31" d="M 794 531 
L 1825 531 
L 1825 4091 
L 703 3866 
L 703 4441 
L 1819 4666 
L 2450 4666 
L 2450 531 
L 3481 531 
L 3481 0 
L 794 0 
L 794 531 
z
" transform="scale(0.015625)"/>
       </defs>
       <use xlink:href="#DejaVuSans-31"/>
       <use xlink:href="#DejaVuSans-30" x="63.623047"/>
      </g>
     </g>
    </g>
    <g id="xtick_4">
     <g id="line2d_4">
      <g>
       <use xlink:href="#md82d46e401" x="590.54885" y="304.56" style="stroke: #000000; stroke-width: 0.8"/>
      </g>
     </g>
     <g id="text_4">
      <!-- 15 -->
      <g transform="translate(584.18635 319.158437) scale(0.1 -0.1)">
       <use xlink:href="#DejaVuSans-31"/>
       <use xlink:href="#DejaVuSans-35" x="63.623047"/>
      </g>
     </g>
    </g>
    <g id="xtick_5">
     <g id="line2d_5">
      <g>
       <use xlink:href="#md82d46e401" x="739.398466" y="304.56" style="stroke: #000000; stroke-width: 0.8"/>
      </g>
     </g>
     <g id="text_5">
      <!-- 20 -->
      <g transform="translate(733.035966 319.158437) scale(0.1 -0.1)">
       <defs>
        <path id="DejaVuSans-32" d="M 1228 531 
L 3431 531 
L 3431 0 
L 469 0 
L 469 531 
Q 828 903 1448 1529 
Q 2069 2156 2228 2338 
Q 2531 2678 2651 2914 
Q 2772 3150 2772 3378 
Q 2772 3750 2511 3984 
Q 2250 4219 1831 4219 
Q 1534 4219 1204 4116 
Q 875 4013 500 3803 
L 500 4441 
Q 881 4594 1212 4672 
Q 1544 4750 1819 4750 
Q 2544 4750 2975 4387 
Q 3406 4025 3406 3419 
Q 3406 3131 3298 2873 
Q 3191 2616 2906 2266 
Q 2828 2175 2409 1742 
Q 1991 1309 1228 531 
z
" transform="scale(0.015625)"/>
       </defs>
       <use xlink:href="#DejaVuSans-32"/>
       <use xlink:href="#DejaVuSans-30" x="63.623047"/>
      </g>
     </g>
    </g>
    <g id="xtick_6">
     <g id="line2d_6">
      <g>
       <use xlink:href="#md82d46e401" x="888.248083" y="304.56" style="stroke: #000000; stroke-width: 0.8"/>
      </g>
     </g>
     <g id="text_6">
      <!-- 25 -->
      <g transform="translate(881.885583 319.158437) scale(0.1 -0.1)">
       <use xlink:href="#DejaVuSans-32"/>
       <use xlink:href="#DejaVuSans-35" x="63.623047"/>
      </g>
     </g>
    </g>
   </g>
   <g id="matplotlib.axis_2">
    <g id="ytick_1">
     <g id="line2d_7">
      <defs>
       <path id="m8bd5670445" d="M 0 0 
L -3.5 0 
" style="stroke: #000000; stroke-width: 0.8"/>
      </defs>
      <g>
       <use xlink:href="#m8bd5670445" x="144" y="289.686083" style="stroke: #000000; stroke-width: 0.8"/>
      </g>
     </g>
     <g id="text_7">
      <!-- 0.5 -->
      <g transform="translate(121.096875 293.485302) scale(0.1 -0.1)">
       <defs>
        <path id="DejaVuSans-2e" d="M 684 794 
L 1344 794 
L 1344 0 
L 684 0 
L 684 794 
z
" transform="scale(0.015625)"/>
       </defs>
       <use xlink:href="#DejaVuSans-30"/>
       <use xlink:href="#DejaVuSans-2e" x="63.623047"/>
       <use xlink:href="#DejaVuSans-35" x="95.410156"/>
      </g>
     </g>
    </g>
    <g id="ytick_2">
     <g id="line2d_8">
      <g>
       <use xlink:href="#m8bd5670445" x="144" y="256.93709" style="stroke: #000000; stroke-width: 0.8"/>
      </g>
     </g>
     <g id="text_8">
      <!-- 1.0 -->
      <g transform="translate(121.096875 260.736309) scale(0.1 -0.1)">
       <use xlink:href="#DejaVuSans-31"/>
       <use xlink:href="#DejaVuSans-2e" x="63.623047"/>
       <use xlink:href="#DejaVuSans-30" x="95.410156"/>
      </g>
     </g>
    </g>
    <g id="ytick_3">
     <g id="line2d_9">
      <g>
       <use xlink:href="#m8bd5670445" x="144" y="224.188097" style="stroke: #000000; stroke-width: 0.8"/>
      </g>
     </g>
     <g id="text_9">
      <!-- 1.5 -->
      <g transform="translate(121.096875 227.987316) scale(0.1 -0.1)">
       <use xlink:href="#DejaVuSans-31"/>
       <use xlink:href="#DejaVuSans-2e" x="63.623047"/>
       <use xlink:href="#DejaVuSans-35" x="95.410156"/>
      </g>
     </g>
    </g>
    <g id="ytick_4">
     <g id="line2d_10">
      <g>
       <use xlink:href="#m8bd5670445" x="144" y="191.439104" style="stroke: #000000; stroke-width: 0.8"/>
      </g>
     </g>
     <g id="text_10">
      <!-- 2.0 -->
      <g transform="translate(121.096875 195.238322) scale(0.1 -0.1)">
       <use xlink:href="#DejaVuSans-32"/>
       <use xlink:href="#DejaVuSans-2e" x="63.623047"/>
       <use xlink:href="#DejaVuSans-30" x="95.410156"/>
      </g>
     </g>
    </g>
    <g id="ytick_5">
     <g id="line2d_11">
      <g>
       <use xlink:href="#m8bd5670445" x="144" y="158.69011" style="stroke: #000000; stroke-width: 0.8"/>
      </g>
     </g>
     <g id="text_11">
      <!-- 2.5 -->
      <g transform="translate(121.096875 162.489329) scale(0.1 -0.1)">
       <use xlink:href="#DejaVuSans-32"/>
       <use xlink:href="#DejaVuSans-2e" x="63.623047"/>
       <use xlink:href="#DejaVuSans-35" x="95.410156"/>
      </g>
     </g>
    </g>
    <g id="ytick_6">
     <g id="line2d_12">
      <g>
       <use xlink:href="#m8bd5670445" x="144" y="125.941117" style="stroke: #000000; stroke-width: 0.8"/>
      </g>
     </g>
     <g id="text_12">
      <!-- 3.0 -->
      <g transform="translate(121.096875 129.740336) scale(0.1 -0.1)">
       <defs>
        <path id="DejaVuSans-33" d="M 2597 2516 
Q 3050 2419 3304 2112 
Q 3559 1806 3559 1356 
Q 3559 666 3084 287 
Q 2609 -91 1734 -91 
Q 1441 -91 1130 -33 
Q 819 25 488 141 
L 488 750 
Q 750 597 1062 519 
Q 1375 441 1716 441 
Q 2309 441 2620 675 
Q 2931 909 2931 1356 
Q 2931 1769 2642 2001 
Q 2353 2234 1838 2234 
L 1294 2234 
L 1294 2753 
L 1863 2753 
Q 2328 2753 2575 2939 
Q 2822 3125 2822 3475 
Q 2822 3834 2567 4026 
Q 2313 4219 1838 4219 
Q 1578 4219 1281 4162 
Q 984 4106 628 3988 
L 628 4550 
Q 988 4650 1302 4700 
Q 1616 4750 1894 4750 
Q 2613 4750 3031 4423 
Q 3450 4097 3450 3541 
Q 3450 3153 3228 2886 
Q 3006 2619 2597 2516 
z
" transform="scale(0.015625)"/>
       </defs>
       <use xlink:href="#DejaVuSans-33"/>
       <use xlink:href="#DejaVuSans-2e" x="63.623047"/>
       <use xlink:href="#DejaVuSans-30" x="95.410156"/>
      </g>
     </g>
    </g>
    <g id="ytick_7">
     <g id="line2d_13">
      <g>
       <use xlink:href="#m8bd5670445" x="144" y="93.192124" style="stroke: #000000; stroke-width: 0.8"/>
      </g>
     </g>
     <g id="text_13">
      <!-- 3.5 -->
      <g transform="translate(121.096875 96.991342) scale(0.1 -0.1)">
       <use xlink:href="#DejaVuSans-33"/>
       <use xlink:href="#DejaVuSans-2e" x="63.623047"/>
       <use xlink:href="#DejaVuSans-35" x="95.410156"/>
      </g>
     </g>
    </g>
   </g>
   <g id="line2d_14">
    <path d="M 144 191.439104 
L 146.381594 191.564996 
L 156.801067 192.627559 
L 161.564255 192.759102 
L 166.922841 192.683454 
L 172.876826 192.367825 
L 179.723908 191.768782 
L 186.57099 190.940392 
L 194.31117 189.773298 
L 202.05135 188.373256 
L 210.08923 186.693848 
L 218.127109 184.793021 
L 226.760387 182.514889 
L 235.095965 180.074565 
L 243.431544 177.409572 
L 252.064822 174.414476 
L 260.995799 171.098611 
L 270.224475 167.424508 
L 279.155452 163.654356 
L 289.872624 158.889427 
L 294.338113 156.760242 
L 296.422007 155.45893 
L 306.543781 148.883852 
L 313.390864 144.779791 
L 322.61954 139.519828 
L 340.481494 129.67811 
L 355.366455 121.758848 
L 364.892831 116.886308 
L 374.121507 112.370393 
L 382.457086 108.536032 
L 389.899567 105.348781 
L 396.44895 102.776081 
L 402.700634 100.547328 
L 408.952317 98.559111 
L 414.906302 96.878999 
L 420.562588 95.522389 
L 425.921174 94.487939 
L 430.982061 93.733502 
L 435.745248 93.246224 
L 440.806135 92.975124 
L 444.973925 92.955807 
L 450.332511 93.205297 
L 454.797999 93.660743 
L 459.561187 94.383692 
L 464.026676 95.287927 
L 468.789863 96.471006 
L 472.659953 97.622487 
L 477.423141 99.283908 
L 481.88863 101.079478 
L 486.651817 103.235446 
L 491.712704 105.779662 
L 496.773591 108.566703 
L 502.132177 111.7852 
L 508.383861 115.842149 
L 514.040147 119.77735 
L 519.696432 123.999856 
L 525.650417 128.720118 
L 532.497499 134.421143 
L 539.046882 140.156731 
L 546.489363 146.98138 
L 554.824942 154.919795 
L 563.755919 163.707923 
L 574.175392 174.276488 
L 589.655752 190.336008 
L 609.006202 210.389721 
L 620.914171 222.409771 
L 630.440547 231.675565 
L 639.073825 239.758448 
L 646.218606 246.138918 
L 653.065689 251.944746 
L 659.317372 256.954961 
L 665.271357 261.451871 
L 671.225342 265.68088 
L 677.179326 269.635737 
L 682.537913 272.919142 
L 687.896499 275.94679 
L 692.957386 278.555035 
L 698.315972 281.050765 
L 703.07916 283.026437 
L 707.842347 284.773126 
L 712.605535 286.279741 
L 717.368723 287.543161 
L 721.834211 288.503676 
L 726.2997 289.251823 
L 730.765188 289.780817 
L 735.230677 290.096901 
L 739.696165 290.196142 
L 744.161654 290.075581 
L 748.627142 289.738235 
L 753.39033 289.154741 
L 758.153518 288.352566 
L 763.214405 287.27843 
L 768.572991 285.907212 
L 773.931577 284.316581 
L 779.885562 282.311859 
L 786.137246 279.969917 
L 792.984328 277.165827 
L 800.426809 273.870877 
L 809.060087 269.789692 
L 818.884161 264.885506 
L 832.280627 257.88959 
L 875.744715 234.942131 
L 887.057286 229.335272 
L 897.476759 224.426235 
L 907.003134 220.187337 
L 916.52951 216.197065 
L 925.460487 212.69764 
L 934.689163 209.330089 
L 943.024742 206.524999 
L 951.955719 203.760944 
L 960.588996 201.341388 
L 968.626876 199.326585 
L 976.962454 197.467647 
L 985.298033 195.847497 
L 993.038213 194.56071 
L 1000.778393 193.486377 
L 1008.518573 192.622268 
L 1016.258753 191.965615 
L 1024.296632 191.496215 
L 1031.739113 191.269381 
L 1036.8 191.22373 
L 1036.8 191.22373 
" clip-path="url(#pf0eaee045f)" style="fill: none; stroke-dasharray: 5.55,2.4; stroke-dashoffset: 0; stroke: #ffa500; stroke-width: 1.5"/>
   </g>
   <g id="line2d_15">
    <path d="M 292.849617 155.561531 
L 301.780594 149.687772 
L 307.734578 146.031385 
L 316.665555 140.843875 
L 331.550517 132.535026 
L 346.435478 124.450435 
L 361.32044 116.681294 
L 370.251417 112.252726 
L 379.182394 108.090783 
L 385.136379 105.478204 
L 391.090363 103.048674 
L 397.044348 100.810289 
L 402.998333 98.781598 
L 408.952317 96.975008 
L 414.906302 95.39956 
L 420.860287 94.109565 
L 426.814271 93.11924 
L 432.768256 92.455637 
L 438.722241 92.164755 
L 441.699233 92.146355 
L 447.653218 92.432249 
L 453.607202 93.117648 
L 459.561187 94.191429 
L 465.515172 95.647944 
L 468.492164 96.505627 
L 474.446149 98.577245 
L 480.400133 101.040582 
L 486.354118 103.9028 
L 492.308103 107.101247 
L 498.262087 110.64647 
L 504.216072 114.509387 
L 510.170057 118.633485 
L 516.124041 123.073795 
L 522.078026 127.79944 
L 528.032011 132.752558 
L 533.985995 137.924443 
L 539.93998 143.315863 
L 548.870957 151.732407 
L 557.801934 160.460308 
L 569.709903 172.497066 
L 587.571857 191.066494 
L 605.433811 209.612632 
L 617.341781 221.670015 
L 626.272758 230.402395 
L 635.203735 238.809006 
L 641.157719 244.185005 
L 647.111704 249.335839 
L 653.065689 254.252103 
L 659.019673 258.902677 
L 664.973658 263.284634 
L 670.927643 267.390943 
L 676.881627 271.210573 
L 682.835612 274.702011 
L 688.789597 277.871585 
L 694.743581 280.691175 
L 700.697566 283.165349 
L 706.651551 285.276083 
L 712.605535 287.00734 
L 718.55952 288.356835 
L 724.513505 289.325923 
L 730.467489 289.908223 
L 736.421474 290.108535 
L 742.375458 289.919367 
L 748.329443 289.350054 
L 754.283428 288.431065 
L 760.237412 287.188623 
L 766.191397 285.649697 
L 772.145382 283.844044 
L 778.099366 281.791848 
L 784.053351 279.524119 
L 790.007336 277.070308 
L 798.938313 273.08868 
L 807.86929 268.815806 
L 816.800267 264.32553 
L 831.685228 256.513236 
L 864.432144 239.093615 
L 879.317106 231.532937 
L 891.225075 225.799291 
L 900.156052 221.735161 
L 909.087029 217.885428 
L 918.018006 214.260932 
L 926.948983 210.873941 
L 935.87996 207.731548 
L 944.810937 204.848251 
L 953.741914 202.218721 
L 962.672891 199.866659 
L 971.603868 197.787711 
L 980.534845 195.990923 
L 989.465822 194.46463 
L 998.396799 193.220463 
L 1007.327776 192.257475 
L 1016.258753 191.569274 
L 1025.18973 191.152386 
L 1034.120707 191.026805 
L 1034.120707 191.026805 
" clip-path="url(#pf0eaee045f)" style="fill: none; stroke: #0000ff; stroke-opacity: 0.5; stroke-width: 1.5; stroke-linecap: square"/>
   </g>
   <g id="patch_3">
    <path d="M 144 304.56 
L 144 77.76 
" style="fill: none; stroke: #000000; stroke-width: 0.8; stroke-linejoin: miter; stroke-linecap: square"/>
   </g>
   <g id="patch_4">
    <path d="M 1036.8 304.56 
L 1036.8 77.76 
" style="fill: none; stroke: #000000; stroke-width: 0.8; stroke-linejoin: miter; stroke-linecap: square"/>
   </g>
   <g id="patch_5">
    <path d="M 144 304.56 
L 1036.8 304.56 
" style="fill: none; stroke: #000000; stroke-width: 0.8; stroke-linejoin: miter; stroke-linecap: square"/>
   </g>
   <g id="patch_6">
    <path d="M 144 77.76 
L 1036.8 77.76 
" style="fill: none; stroke: #000000; stroke-width: 0.8; stroke-linejoin: miter; stroke-linecap: square"/>
   </g>
   <g id="legend_1">
    <g id="patch_7">
     <path d="M 924.2 129.838125 
L 1029.8 129.838125 
Q 1031.8 129.838125 1031.8 127.838125 
L 1031.8 84.76 
Q 1031.8 82.76 1029.8 82.76 
L 924.2 82.76 
Q 922.2 82.76 922.2 84.76 
L 922.2 127.838125 
Q 922.2 129.838125 924.2 129.838125 
z
" style="fill: #ffffff; opacity: 0.8; stroke: #cccccc; stroke-linejoin: miter"/>
    </g>
    <g id="line2d_16">
     <path d="M 926.2 90.86 
L 936.2 90.86 
L 946.2 90.86 
" style="fill: none; stroke-dasharray: 5.55,2.4; stroke-dashoffset: 0; stroke: #ffa500; stroke-width: 1.5"/>
    </g>
    <g id="text_14">
     <!-- Real $y$ Position -->
     <g transform="translate(954.2 94.36) scale(0.1 -0.1)">
      <defs>
       <path id="DejaVuSans-52" d="M 2841 2188 
Q 3044 2119 3236 1894 
Q 3428 1669 3622 1275 
L 4263 0 
L 3584 0 
L 2988 1197 
Q 2756 1666 2539 1819 
Q 2322 1972 1947 1972 
L 1259 1972 
L 1259 0 
L 628 0 
L 628 4666 
L 2053 4666 
Q 2853 4666 3247 4331 
Q 3641 3997 3641 3322 
Q 3641 2881 3436 2590 
Q 3231 2300 2841 2188 
z
M 1259 4147 
L 1259 2491 
L 2053 2491 
Q 2509 2491 2742 2702 
Q 2975 2913 2975 3322 
Q 2975 3731 2742 3939 
Q 2509 4147 2053 4147 
L 1259 4147 
z
" transform="scale(0.015625)"/>
       <path id="DejaVuSans-65" d="M 3597 1894 
L 3597 1613 
L 953 1613 
Q 991 1019 1311 708 
Q 1631 397 2203 397 
Q 2534 397 2845 478 
Q 3156 559 3463 722 
L 3463 178 
Q 3153 47 2828 -22 
Q 2503 -91 2169 -91 
Q 1331 -91 842 396 
Q 353 884 353 1716 
Q 353 2575 817 3079 
Q 1281 3584 2069 3584 
Q 2775 3584 3186 3129 
Q 3597 2675 3597 1894 
z
M 3022 2063 
Q 3016 2534 2758 2815 
Q 2500 3097 2075 3097 
Q 1594 3097 1305 2825 
Q 1016 2553 972 2059 
L 3022 2063 
z
" transform="scale(0.015625)"/>
       <path id="DejaVuSans-61" d="M 2194 1759 
Q 1497 1759 1228 1600 
Q 959 1441 959 1056 
Q 959 750 1161 570 
Q 1363 391 1709 391 
Q 2188 391 2477 730 
Q 2766 1069 2766 1631 
L 2766 1759 
L 2194 1759 
z
M 3341 1997 
L 3341 0 
L 2766 0 
L 2766 531 
Q 2569 213 2275 61 
Q 1981 -91 1556 -91 
Q 1019 -91 701 211 
Q 384 513 384 1019 
Q 384 1609 779 1909 
Q 1175 2209 1959 2209 
L 2766 2209 
L 2766 2266 
Q 2766 2663 2505 2880 
Q 2244 3097 1772 3097 
Q 1472 3097 1187 3025 
Q 903 2953 641 2809 
L 641 3341 
Q 956 3463 1253 3523 
Q 1550 3584 1831 3584 
Q 2591 3584 2966 3190 
Q 3341 2797 3341 1997 
z
" transform="scale(0.015625)"/>
       <path id="DejaVuSans-6c" d="M 603 4863 
L 1178 4863 
L 1178 0 
L 603 0 
L 603 4863 
z
" transform="scale(0.015625)"/>
       <path id="DejaVuSans-20" transform="scale(0.015625)"/>
       <path id="DejaVuSans-Oblique-79" d="M 1588 -325 
Q 1188 -997 936 -1164 
Q 684 -1331 294 -1331 
L -159 -1331 
L -63 -850 
L 269 -850 
Q 509 -850 678 -719 
Q 847 -588 1056 -206 
L 1234 128 
L 459 3500 
L 1069 3500 
L 1650 819 
L 3256 3500 
L 3859 3500 
L 1588 -325 
z
" transform="scale(0.015625)"/>
       <path id="DejaVuSans-50" d="M 1259 4147 
L 1259 2394 
L 2053 2394 
Q 2494 2394 2734 2622 
Q 2975 2850 2975 3272 
Q 2975 3691 2734 3919 
Q 2494 4147 2053 4147 
L 1259 4147 
z
M 628 4666 
L 2053 4666 
Q 2838 4666 3239 4311 
Q 3641 3956 3641 3272 
Q 3641 2581 3239 2228 
Q 2838 1875 2053 1875 
L 1259 1875 
L 1259 0 
L 628 0 
L 628 4666 
z
" transform="scale(0.015625)"/>
       <path id="DejaVuSans-6f" d="M 1959 3097 
Q 1497 3097 1228 2736 
Q 959 2375 959 1747 
Q 959 1119 1226 758 
Q 1494 397 1959 397 
Q 2419 397 2687 759 
Q 2956 1122 2956 1747 
Q 2956 2369 2687 2733 
Q 2419 3097 1959 3097 
z
M 1959 3584 
Q 2709 3584 3137 3096 
Q 3566 2609 3566 1747 
Q 3566 888 3137 398 
Q 2709 -91 1959 -91 
Q 1206 -91 779 398 
Q 353 888 353 1747 
Q 353 2609 779 3096 
Q 1206 3584 1959 3584 
z
" transform="scale(0.015625)"/>
       <path id="DejaVuSans-73" d="M 2834 3397 
L 2834 2853 
Q 2591 2978 2328 3040 
Q 2066 3103 1784 3103 
Q 1356 3103 1142 2972 
Q 928 2841 928 2578 
Q 928 2378 1081 2264 
Q 1234 2150 1697 2047 
L 1894 2003 
Q 2506 1872 2764 1633 
Q 3022 1394 3022 966 
Q 3022 478 2636 193 
Q 2250 -91 1575 -91 
Q 1294 -91 989 -36 
Q 684 19 347 128 
L 347 722 
Q 666 556 975 473 
Q 1284 391 1588 391 
Q 1994 391 2212 530 
Q 2431 669 2431 922 
Q 2431 1156 2273 1281 
Q 2116 1406 1581 1522 
L 1381 1569 
Q 847 1681 609 1914 
Q 372 2147 372 2553 
Q 372 3047 722 3315 
Q 1072 3584 1716 3584 
Q 2034 3584 2315 3537 
Q 2597 3491 2834 3397 
z
" transform="scale(0.015625)"/>
       <path id="DejaVuSans-69" d="M 603 3500 
L 1178 3500 
L 1178 0 
L 603 0 
L 603 3500 
z
M 603 4863 
L 1178 4863 
L 1178 4134 
L 603 4134 
L 603 4863 
z
" transform="scale(0.015625)"/>
       <path id="DejaVuSans-74" d="M 1172 4494 
L 1172 3500 
L 2356 3500 
L 2356 3053 
L 1172 3053 
L 1172 1153 
Q 1172 725 1289 603 
Q 1406 481 1766 481 
L 2356 481 
L 2356 0 
L 1766 0 
Q 1100 0 847 248 
Q 594 497 594 1153 
L 594 3053 
L 172 3053 
L 172 3500 
L 594 3500 
L 594 4494 
L 1172 4494 
z
" transform="scale(0.015625)"/>
       <path id="DejaVuSans-6e" d="M 3513 2113 
L 3513 0 
L 2938 0 
L 2938 2094 
Q 2938 2591 2744 2837 
Q 2550 3084 2163 3084 
Q 1697 3084 1428 2787 
Q 1159 2491 1159 1978 
L 1159 0 
L 581 0 
L 581 3500 
L 1159 3500 
L 1159 2956 
Q 1366 3272 1645 3428 
Q 1925 3584 2291 3584 
Q 2894 3584 3203 3211 
Q 3513 2838 3513 2113 
z
" transform="scale(0.015625)"/>
      </defs>
      <use xlink:href="#DejaVuSans-52" transform="translate(0 0.015625)"/>
      <use xlink:href="#DejaVuSans-65" transform="translate(69.482422 0.015625)"/>
      <use xlink:href="#DejaVuSans-61" transform="translate(131.005859 0.015625)"/>
      <use xlink:href="#DejaVuSans-6c" transform="translate(192.285156 0.015625)"/>
      <use xlink:href="#DejaVuSans-20" transform="translate(220.068359 0.015625)"/>
      <use xlink:href="#DejaVuSans-Oblique-79" transform="translate(251.855469 0.015625)"/>
      <use xlink:href="#DejaVuSans-20" transform="translate(311.035156 0.015625)"/>
      <use xlink:href="#DejaVuSans-50" transform="translate(342.822266 0.015625)"/>
      <use xlink:href="#DejaVuSans-6f" transform="translate(403.125 0.015625)"/>
      <use xlink:href="#DejaVuSans-73" transform="translate(464.306641 0.015625)"/>
      <use xlink:href="#DejaVuSans-69" transform="translate(516.40625 0.015625)"/>
      <use xlink:href="#DejaVuSans-74" transform="translate(544.189453 0.015625)"/>
      <use xlink:href="#DejaVuSans-69" transform="translate(583.398438 0.015625)"/>
      <use xlink:href="#DejaVuSans-6f" transform="translate(611.181641 0.015625)"/>
      <use xlink:href="#DejaVuSans-6e" transform="translate(672.363281 0.015625)"/>
     </g>
    </g>
    <g id="line2d_17">
     <path d="M 926.2 105.56 
L 936.2 105.56 
L 946.2 105.56 
" style="fill: none; stroke: #0000ff; stroke-opacity: 0.5; stroke-width: 1.5; stroke-linecap: square"/>
    </g>
    <g id="text_15">
     <!-- Prediction $y$ -->
     <g transform="translate(954.2 109.06) scale(0.1 -0.1)">
      <defs>
       <path id="DejaVuSans-72" d="M 2631 2963 
Q 2534 3019 2420 3045 
Q 2306 3072 2169 3072 
Q 1681 3072 1420 2755 
Q 1159 2438 1159 1844 
L 1159 0 
L 581 0 
L 581 3500 
L 1159 3500 
L 1159 2956 
Q 1341 3275 1631 3429 
Q 1922 3584 2338 3584 
Q 2397 3584 2469 3576 
Q 2541 3569 2628 3553 
L 2631 2963 
z
" transform="scale(0.015625)"/>
       <path id="DejaVuSans-64" d="M 2906 2969 
L 2906 4863 
L 3481 4863 
L 3481 0 
L 2906 0 
L 2906 525 
Q 2725 213 2448 61 
Q 2172 -91 1784 -91 
Q 1150 -91 751 415 
Q 353 922 353 1747 
Q 353 2572 751 3078 
Q 1150 3584 1784 3584 
Q 2172 3584 2448 3432 
Q 2725 3281 2906 2969 
z
M 947 1747 
Q 947 1113 1208 752 
Q 1469 391 1925 391 
Q 2381 391 2643 752 
Q 2906 1113 2906 1747 
Q 2906 2381 2643 2742 
Q 2381 3103 1925 3103 
Q 1469 3103 1208 2742 
Q 947 2381 947 1747 
z
" transform="scale(0.015625)"/>
       <path id="DejaVuSans-63" d="M 3122 3366 
L 3122 2828 
Q 2878 2963 2633 3030 
Q 2388 3097 2138 3097 
Q 1578 3097 1268 2742 
Q 959 2388 959 1747 
Q 959 1106 1268 751 
Q 1578 397 2138 397 
Q 2388 397 2633 464 
Q 2878 531 3122 666 
L 3122 134 
Q 2881 22 2623 -34 
Q 2366 -91 2075 -91 
Q 1284 -91 818 406 
Q 353 903 353 1747 
Q 353 2603 823 3093 
Q 1294 3584 2113 3584 
Q 2378 3584 2631 3529 
Q 2884 3475 3122 3366 
z
" transform="scale(0.015625)"/>
      </defs>
      <use xlink:href="#DejaVuSans-50" transform="translate(0 0.015625)"/>
      <use xlink:href="#DejaVuSans-72" transform="translate(60.302734 0.015625)"/>
      <use xlink:href="#DejaVuSans-65" transform="translate(101.416016 0.015625)"/>
      <use xlink:href="#DejaVuSans-64" transform="translate(162.939453 0.015625)"/>
      <use xlink:href="#DejaVuSans-69" transform="translate(226.416016 0.015625)"/>
      <use xlink:href="#DejaVuSans-63" transform="translate(254.199219 0.015625)"/>
      <use xlink:href="#DejaVuSans-74" transform="translate(309.179688 0.015625)"/>
      <use xlink:href="#DejaVuSans-69" transform="translate(348.388672 0.015625)"/>
      <use xlink:href="#DejaVuSans-6f" transform="translate(376.171875 0.015625)"/>
      <use xlink:href="#DejaVuSans-6e" transform="translate(437.353516 0.015625)"/>
      <use xlink:href="#DejaVuSans-20" transform="translate(500.732422 0.015625)"/>
      <use xlink:href="#DejaVuSans-Oblique-79" transform="translate(532.519531 0.015625)"/>
     </g>
    </g>
    <g id="patch_8">
     <path d="M 926.2 123.758438 
L 946.2 123.758438 
L 946.2 116.758438 
L 926.2 116.758438 
z
" style="fill: #00ffff; fill-opacity: 0.5; stroke: #00ffff; stroke-opacity: 0.5; stroke-linejoin: miter"/>
    </g>
    <g id="text_16">
     <!-- Confidence -->
     <g transform="translate(954.2 123.758438) scale(0.1 -0.1)">
      <defs>
       <path id="DejaVuSans-43" d="M 4122 4306 
L 4122 3641 
Q 3803 3938 3442 4084 
Q 3081 4231 2675 4231 
Q 1875 4231 1450 3742 
Q 1025 3253 1025 2328 
Q 1025 1406 1450 917 
Q 1875 428 2675 428 
Q 3081 428 3442 575 
Q 3803 722 4122 1019 
L 4122 359 
Q 3791 134 3420 21 
Q 3050 -91 2638 -91 
Q 1578 -91 968 557 
Q 359 1206 359 2328 
Q 359 3453 968 4101 
Q 1578 4750 2638 4750 
Q 3056 4750 3426 4639 
Q 3797 4528 4122 4306 
z
" transform="scale(0.015625)"/>
       <path id="DejaVuSans-66" d="M 2375 4863 
L 2375 4384 
L 1825 4384 
Q 1516 4384 1395 4259 
Q 1275 4134 1275 3809 
L 1275 3500 
L 2222 3500 
L 2222 3053 
L 1275 3053 
L 1275 0 
L 697 0 
L 697 3053 
L 147 3053 
L 147 3500 
L 697 3500 
L 697 3744 
Q 697 4328 969 4595 
Q 1241 4863 1831 4863 
L 2375 4863 
z
" transform="scale(0.015625)"/>
      </defs>
      <use xlink:href="#DejaVuSans-43"/>
      <use xlink:href="#DejaVuSans-6f" x="69.824219"/>
      <use xlink:href="#DejaVuSans-6e" x="131.005859"/>
      <use xlink:href="#DejaVuSans-66" x="194.384766"/>
      <use xlink:href="#DejaVuSans-69" x="229.589844"/>
      <use xlink:href="#DejaVuSans-64" x="257.373047"/>
      <use xlink:href="#DejaVuSans-65" x="320.849609"/>
      <use xlink:href="#DejaVuSans-6e" x="382.373047"/>
      <use xlink:href="#DejaVuSans-63" x="445.751953"/>
      <use xlink:href="#DejaVuSans-65" x="500.732422"/>
     </g>
    </g>
   </g>
  </g>
  <g id="axes_2">
   <g id="patch_9">
    <path d="M 144 576.72 
L 1036.8 576.72 
L 1036.8 349.92 
L 144 349.92 
z
" style="fill: #ffffff"/>
   </g>
   <g id="matplotlib.axis_3">
    <g id="xtick_7">
     <g id="line2d_18">
      <g>
       <use xlink:href="#md82d46e401" x="144" y="576.72" style="stroke: #000000; stroke-width: 0.8"/>
      </g>
     </g>
     <g id="text_17">
      <!-- 0 -->
      <g transform="translate(140.81875 591.318438) scale(0.1 -0.1)">
       <use xlink:href="#DejaVuSans-30"/>
      </g>
     </g>
    </g>
    <g id="xtick_8">
     <g id="line2d_19">
      <g>
       <use xlink:href="#md82d46e401" x="292.849617" y="576.72" style="stroke: #000000; stroke-width: 0.8"/>
      </g>
     </g>
     <g id="text_18">
      <!-- 5 -->
      <g transform="translate(289.668367 591.318438) scale(0.1 -0.1)">
       <use xlink:href="#DejaVuSans-35"/>
      </g>
     </g>
    </g>
    <g id="xtick_9">
     <g id="line2d_20">
      <g>
       <use xlink:href="#md82d46e401" x="441.699233" y="576.72" style="stroke: #000000; stroke-width: 0.8"/>
      </g>
     </g>
     <g id="text_19">
      <!-- 10 -->
      <g transform="translate(435.336733 591.318438) scale(0.1 -0.1)">
       <use xlink:href="#DejaVuSans-31"/>
       <use xlink:href="#DejaVuSans-30" x="63.623047"/>
      </g>
     </g>
    </g>
    <g id="xtick_10">
     <g id="line2d_21">
      <g>
       <use xlink:href="#md82d46e401" x="590.54885" y="576.72" style="stroke: #000000; stroke-width: 0.8"/>
      </g>
     </g>
     <g id="text_20">
      <!-- 15 -->
      <g transform="translate(584.18635 591.318438) scale(0.1 -0.1)">
       <use xlink:href="#DejaVuSans-31"/>
       <use xlink:href="#DejaVuSans-35" x="63.623047"/>
      </g>
     </g>
    </g>
    <g id="xtick_11">
     <g id="line2d_22">
      <g>
       <use xlink:href="#md82d46e401" x="739.398466" y="576.72" style="stroke: #000000; stroke-width: 0.8"/>
      </g>
     </g>
     <g id="text_21">
      <!-- 20 -->
      <g transform="translate(733.035966 591.318438) scale(0.1 -0.1)">
       <use xlink:href="#DejaVuSans-32"/>
       <use xlink:href="#DejaVuSans-30" x="63.623047"/>
      </g>
     </g>
    </g>
    <g id="xtick_12">
     <g id="line2d_23">
      <g>
       <use xlink:href="#md82d46e401" x="888.248083" y="576.72" style="stroke: #000000; stroke-width: 0.8"/>
      </g>
     </g>
     <g id="text_22">
      <!-- 25 -->
      <g transform="translate(881.885583 591.318438) scale(0.1 -0.1)">
       <use xlink:href="#DejaVuSans-32"/>
       <use xlink:href="#DejaVuSans-35" x="63.623047"/>
      </g>
     </g>
    </g>
   </g>
   <g id="matplotlib.axis_4">
    <g id="ytick_8">
     <g id="line2d_24">
      <g>
       <use xlink:href="#m8bd5670445" x="144" y="553.984529" style="stroke: #000000; stroke-width: 0.8"/>
      </g>
     </g>
     <g id="text_23">
      <!-- −0.03 -->
      <g transform="translate(106.354687 557.783748) scale(0.1 -0.1)">
       <defs>
        <path id="DejaVuSans-2212" d="M 678 2272 
L 4684 2272 
L 4684 1741 
L 678 1741 
L 678 2272 
z
" transform="scale(0.015625)"/>
       </defs>
       <use xlink:href="#DejaVuSans-2212"/>
       <use xlink:href="#DejaVuSans-30" x="83.789062"/>
       <use xlink:href="#DejaVuSans-2e" x="147.412109"/>
       <use xlink:href="#DejaVuSans-30" x="179.199219"/>
       <use xlink:href="#DejaVuSans-33" x="242.822266"/>
      </g>
     </g>
    </g>
    <g id="ytick_9">
     <g id="line2d_25">
      <g>
       <use xlink:href="#m8bd5670445" x="144" y="527.961099" style="stroke: #000000; stroke-width: 0.8"/>
      </g>
     </g>
     <g id="text_24">
      <!-- −0.02 -->
      <g transform="translate(106.354687 531.760317) scale(0.1 -0.1)">
       <use xlink:href="#DejaVuSans-2212"/>
       <use xlink:href="#DejaVuSans-30" x="83.789062"/>
       <use xlink:href="#DejaVuSans-2e" x="147.412109"/>
       <use xlink:href="#DejaVuSans-30" x="179.199219"/>
       <use xlink:href="#DejaVuSans-32" x="242.822266"/>
      </g>
     </g>
    </g>
    <g id="ytick_10">
     <g id="line2d_26">
      <g>
       <use xlink:href="#m8bd5670445" x="144" y="501.937668" style="stroke: #000000; stroke-width: 0.8"/>
      </g>
     </g>
     <g id="text_25">
      <!-- −0.01 -->
      <g transform="translate(106.354687 505.736887) scale(0.1 -0.1)">
       <use xlink:href="#DejaVuSans-2212"/>
       <use xlink:href="#DejaVuSans-30" x="83.789062"/>
       <use xlink:href="#DejaVuSans-2e" x="147.412109"/>
       <use xlink:href="#DejaVuSans-30" x="179.199219"/>
       <use xlink:href="#DejaVuSans-31" x="242.822266"/>
      </g>
     </g>
    </g>
    <g id="ytick_11">
     <g id="line2d_27">
      <g>
       <use xlink:href="#m8bd5670445" x="144" y="475.914238" style="stroke: #000000; stroke-width: 0.8"/>
      </g>
     </g>
     <g id="text_26">
      <!-- 0.00 -->
      <g transform="translate(114.734375 479.713456) scale(0.1 -0.1)">
       <use xlink:href="#DejaVuSans-30"/>
       <use xlink:href="#DejaVuSans-2e" x="63.623047"/>
       <use xlink:href="#DejaVuSans-30" x="95.410156"/>
       <use xlink:href="#DejaVuSans-30" x="159.033203"/>
      </g>
     </g>
    </g>
    <g id="ytick_12">
     <g id="line2d_28">
      <g>
       <use xlink:href="#m8bd5670445" x="144" y="449.890807" style="stroke: #000000; stroke-width: 0.8"/>
      </g>
     </g>
     <g id="text_27">
      <!-- 0.01 -->
      <g transform="translate(114.734375 453.690026) scale(0.1 -0.1)">
       <use xlink:href="#DejaVuSans-30"/>
       <use xlink:href="#DejaVuSans-2e" x="63.623047"/>
       <use xlink:href="#DejaVuSans-30" x="95.410156"/>
       <use xlink:href="#DejaVuSans-31" x="159.033203"/>
      </g>
     </g>
    </g>
    <g id="ytick_13">
     <g id="line2d_29">
      <g>
       <use xlink:href="#m8bd5670445" x="144" y="423.867376" style="stroke: #000000; stroke-width: 0.8"/>
      </g>
     </g>
     <g id="text_28">
      <!-- 0.02 -->
      <g transform="translate(114.734375 427.666595) scale(0.1 -0.1)">
       <use xlink:href="#DejaVuSans-30"/>
       <use xlink:href="#DejaVuSans-2e" x="63.623047"/>
       <use xlink:href="#DejaVuSans-30" x="95.410156"/>
       <use xlink:href="#DejaVuSans-32" x="159.033203"/>
      </g>
     </g>
    </g>
    <g id="ytick_14">
     <g id="line2d_30">
      <g>
       <use xlink:href="#m8bd5670445" x="144" y="397.843946" style="stroke: #000000; stroke-width: 0.8"/>
      </g>
     </g>
     <g id="text_29">
      <!-- 0.03 -->
      <g transform="translate(114.734375 401.643165) scale(0.1 -0.1)">
       <use xlink:href="#DejaVuSans-30"/>
       <use xlink:href="#DejaVuSans-2e" x="63.623047"/>
       <use xlink:href="#DejaVuSans-30" x="95.410156"/>
       <use xlink:href="#DejaVuSans-33" x="159.033203"/>
      </g>
     </g>
    </g>
    <g id="ytick_15">
     <g id="line2d_31">
      <g>
       <use xlink:href="#m8bd5670445" x="144" y="371.820515" style="stroke: #000000; stroke-width: 0.8"/>
      </g>
     </g>
     <g id="text_30">
      <!-- 0.04 -->
      <g transform="translate(114.734375 375.619734) scale(0.1 -0.1)">
       <defs>
        <path id="DejaVuSans-34" d="M 2419 4116 
L 825 1625 
L 2419 1625 
L 2419 4116 
z
M 2253 4666 
L 3047 4666 
L 3047 1625 
L 3713 1625 
L 3713 1100 
L 3047 1100 
L 3047 0 
L 2419 0 
L 2419 1100 
L 313 1100 
L 313 1709 
L 2253 4666 
z
" transform="scale(0.015625)"/>
       </defs>
       <use xlink:href="#DejaVuSans-30"/>
       <use xlink:href="#DejaVuSans-2e" x="63.623047"/>
       <use xlink:href="#DejaVuSans-30" x="95.410156"/>
       <use xlink:href="#DejaVuSans-34" x="159.033203"/>
      </g>
     </g>
    </g>
   </g>
   <g id="line2d_32">
    <path d="M 144 553.83122 
L 173.769923 566.410909 
L 203.539847 566.30136 
L 233.30977 563.933506 
L 263.079693 561.914205 
L 292.849617 560.179957 
L 322.61954 558.857385 
L 382.159386 557.160864 
L 441.699233 556.517186 
L 501.23908 556.680827 
L 531.009003 556.305347 
L 560.778926 556.608091 
L 590.54885 556.685875 
L 620.318773 556.534352 
L 650.088696 556.572822 
L 709.628543 556.486729 
L 769.168389 556.446947 
L 798.938313 555.736998 
L 828.708236 555.752025 
L 858.478159 555.45266 
L 947.787929 553.785564 
L 977.557853 553.154493 
L 1007.327776 552.24658 
L 1037.097699 551.493276 
L 1066.867623 550.580107 
L 1096.637546 549.251517 
L 1126.407469 548.042542 
L 1153 546.828502 
L 1153 546.828502 
" clip-path="url(#p7c2766c8fc)" style="fill: none; stroke: #1f77b4; stroke-width: 1.5; stroke-linecap: square"/>
   </g>
   <g id="patch_10">
    <path d="M 144 576.72 
L 144 349.92 
" style="fill: none; stroke: #000000; stroke-width: 0.8; stroke-linejoin: miter; stroke-linecap: square"/>
   </g>
   <g id="patch_11">
    <path d="M 1036.8 576.72 
L 1036.8 349.92 
" style="fill: none; stroke: #000000; stroke-width: 0.8; stroke-linejoin: miter; stroke-linecap: square"/>
   </g>
   <g id="patch_12">
    <path d="M 144 576.72 
L 1036.8 576.72 
" style="fill: none; stroke: #000000; stroke-width: 0.8; stroke-linejoin: miter; stroke-linecap: square"/>
   </g>
   <g id="patch_13">
    <path d="M 144 349.92 
L 1036.8 349.92 
" style="fill: none; stroke: #000000; stroke-width: 0.8; stroke-linejoin: miter; stroke-linecap: square"/>
   </g>
   <g id="legend_2">
    <g id="patch_14">
     <path d="M 920.578125 372.598125 
L 1029.8 372.598125 
Q 1031.8 372.598125 1031.8 370.598125 
L 1031.8 356.92 
Q 1031.8 354.92 1029.8 354.92 
L 920.578125 354.92 
Q 918.578125 354.92 918.578125 356.92 
L 918.578125 370.598125 
Q 918.578125 372.598125 920.578125 372.598125 
z
" style="fill: #ffffff; opacity: 0.8; stroke: #cccccc; stroke-linejoin: miter"/>
    </g>
    <g id="line2d_33">
     <path d="M 922.578125 363.018437 
L 932.578125 363.018437 
L 942.578125 363.018437 
" style="fill: none; stroke: #1f77b4; stroke-width: 1.5; stroke-linecap: square"/>
    </g>
    <g id="text_31">
     <!-- Prediction Error -->
     <g transform="translate(950.578125 366.518437) scale(0.1 -0.1)">
      <defs>
       <path id="DejaVuSans-45" d="M 628 4666 
L 3578 4666 
L 3578 4134 
L 1259 4134 
L 1259 2753 
L 3481 2753 
L 3481 2222 
L 1259 2222 
L 1259 531 
L 3634 531 
L 3634 0 
L 628 0 
L 628 4666 
z
" transform="scale(0.015625)"/>
      </defs>
      <use xlink:href="#DejaVuSans-50"/>
      <use xlink:href="#DejaVuSans-72" x="58.552734"/>
      <use xlink:href="#DejaVuSans-65" x="97.416016"/>
      <use xlink:href="#DejaVuSans-64" x="158.939453"/>
      <use xlink:href="#DejaVuSans-69" x="222.416016"/>
      <use xlink:href="#DejaVuSans-63" x="250.199219"/>
      <use xlink:href="#DejaVuSans-74" x="305.179688"/>
      <use xlink:href="#DejaVuSans-69" x="344.388672"/>
      <use xlink:href="#DejaVuSans-6f" x="372.171875"/>
      <use xlink:href="#DejaVuSans-6e" x="433.353516"/>
      <use xlink:href="#DejaVuSans-20" x="496.732422"/>
      <use xlink:href="#DejaVuSans-45" x="528.519531"/>
      <use xlink:href="#DejaVuSans-72" x="591.703125"/>
      <use xlink:href="#DejaVuSans-72" x="631.066406"/>
      <use xlink:href="#DejaVuSans-6f" x="669.929688"/>
      <use xlink:href="#DejaVuSans-72" x="731.111328"/>
     </g>
    </g>
   </g>
  </g>
  <g id="text_32">
   <!-- $y$-Position Prediction -->
   <g transform="translate(514.74 22.08) scale(0.12 -0.12)">
    <defs>
     <path id="DejaVuSans-2d" d="M 313 2009 
L 1997 2009 
L 1997 1497 
L 313 1497 
L 313 2009 
z
" transform="scale(0.015625)"/>
    </defs>
    <use xlink:href="#DejaVuSans-Oblique-79" transform="translate(0 0.015625)"/>
    <use xlink:href="#DejaVuSans-2d" transform="translate(59.179688 0.015625)"/>
    <use xlink:href="#DejaVuSans-50" transform="translate(95.263672 0.015625)"/>
    <use xlink:href="#DejaVuSans-6f" transform="translate(155.566406 0.015625)"/>
    <use xlink:href="#DejaVuSans-73" transform="translate(216.748047 0.015625)"/>
    <use xlink:href="#DejaVuSans-69" transform="translate(268.847656 0.015625)"/>
    <use xlink:href="#DejaVuSans-74" transform="translate(296.630859 0.015625)"/>
    <use xlink:href="#DejaVuSans-69" transform="translate(335.839844 0.015625)"/>
    <use xlink:href="#DejaVuSans-6f" transform="translate(363.623047 0.015625)"/>
    <use xlink:href="#DejaVuSans-6e" transform="translate(424.804688 0.015625)"/>
    <use xlink:href="#DejaVuSans-20" transform="translate(488.183594 0.015625)"/>
    <use xlink:href="#DejaVuSans-50" transform="translate(519.970703 0.015625)"/>
    <use xlink:href="#DejaVuSans-72" transform="translate(580.273438 0.015625)"/>
    <use xlink:href="#DejaVuSans-65" transform="translate(621.386719 0.015625)"/>
    <use xlink:href="#DejaVuSans-64" transform="translate(682.910156 0.015625)"/>
    <use xlink:href="#DejaVuSans-69" transform="translate(746.386719 0.015625)"/>
    <use xlink:href="#DejaVuSans-63" transform="translate(774.169922 0.015625)"/>
    <use xlink:href="#DejaVuSans-74" transform="translate(829.150391 0.015625)"/>
    <use xlink:href="#DejaVuSans-69" transform="translate(868.359375 0.015625)"/>
    <use xlink:href="#DejaVuSans-6f" transform="translate(896.142578 0.015625)"/>
    <use xlink:href="#DejaVuSans-6e" transform="translate(957.324219 0.015625)"/>
   </g>
  </g>
 </g>
 <defs>
  <clipPath id="pf0eaee045f">
   <rect x="144" y="77.76" width="892.8" height="226.8"/>
  </clipPath>
  <clipPath id="p7c2766c8fc">
   <rect x="144" y="349.92" width="892.8" height="226.8"/>
  </clipPath>
 </defs>
</svg>
