<?xml version="1.0" encoding="utf-8" standalone="no"?>
<!DOCTYPE svg PUBLIC "-//W3C//DTD SVG 1.1//EN"
  "http://www.w3.org/Graphics/SVG/1.1/DTD/svg11.dtd">
<svg xmlns:xlink="http://www.w3.org/1999/xlink" width="1152pt" height="648pt" viewBox="0 0 1152 648" xmlns="http://www.w3.org/2000/svg" version="1.1">
 <metadata>
  <rdf:RDF xmlns:dc="http://purl.org/dc/elements/1.1/" xmlns:cc="http://creativecommons.org/ns#" xmlns:rdf="http://www.w3.org/1999/02/22-rdf-syntax-ns#">
   <cc:Work>
    <dc:type rdf:resource="http://purl.org/dc/dcmitype/StillImage"/>
    <dc:date>2024-06-20T12:49:02.699315</dc:date>
    <dc:format>image/svg+xml</dc:format>
    <dc:creator>
     <cc:Agent>
      <dc:title>Matplotlib v3.9.0, https://matplotlib.org/</dc:title>
     </cc:Agent>
    </dc:creator>
   </cc:Work>
  </rdf:RDF>
 </metadata>
 <defs>
  <style type="text/css">*{stroke-linejoin: round; stroke-linecap: butt}</style>
 </defs>
 <g id="figure_1">
  <g id="patch_1">
   <path d="M 0 648 
L 1152 648 
L 1152 0 
L 0 0 
z
" style="fill: #ffffff"/>
  </g>
  <g id="axes_1">
   <g id="patch_2">
    <path d="M 144 304.56 
L 1036.8 304.56 
L 1036.8 77.76 
L 144 77.76 
z
" style="fill: #ffffff"/>
   </g>
   <g id="PolyCollection_1">
    <defs>
     <path id="m27c991d4ae" d="M 292.849617 -475.044209 
L 292.849617 -467.105881 
L 295.826609 -466.154919 
L 298.803601 -465.178782 
L 301.780594 -464.049387 
L 304.757586 -462.779662 
L 307.734578 -461.374447 
L 310.711571 -459.865102 
L 313.688563 -458.269139 
L 316.665555 -456.589521 
L 319.642548 -454.833087 
L 322.61954 -453.033182 
L 325.596532 -451.184148 
L 328.573525 -449.288573 
L 331.550517 -447.349222 
L 334.527509 -445.371227 
L 337.504502 -443.363938 
L 340.481494 -441.327015 
L 343.458486 -439.264622 
L 346.435478 -437.176615 
L 349.412471 -435.070006 
L 352.389463 -432.9412 
L 355.366455 -430.792404 
L 358.343448 -428.629269 
L 361.32044 -426.43642 
L 364.297432 -424.227999 
L 367.274425 -422.00626 
L 370.251417 -419.768357 
L 373.228409 -417.520679 
L 376.205402 -415.262799 
L 379.182394 -413.005255 
L 382.159386 -410.735421 
L 385.136379 -408.469716 
L 388.113371 -406.202975 
L 391.090363 -403.944322 
L 394.067356 -401.68741 
L 397.044348 -399.441679 
L 400.02134 -397.207815 
L 402.998333 -394.986719 
L 405.975325 -392.780557 
L 408.952317 -390.600283 
L 411.92931 -388.441971 
L 414.906302 -386.312335 
L 417.883294 -384.215788 
L 420.860287 -382.154237 
L 423.837279 -380.133119 
L 426.814271 -378.151601 
L 429.791264 -376.218582 
L 432.768256 -374.335085 
L 435.745248 -372.501191 
L 438.722241 -370.72594 
L 441.699233 -369.012334 
L 444.676225 -367.365878 
L 447.653218 -365.813124 
L 450.63021 -364.353314 
L 453.607202 -362.987522 
L 456.584195 -361.716962 
L 459.561187 -360.537772 
L 462.538179 -359.454977 
L 465.515172 -358.467083 
L 468.492164 -357.569736 
L 471.469156 -356.765605 
L 474.446149 -356.059513 
L 477.423141 -355.448114 
L 480.400133 -354.924146 
L 483.377126 -354.498881 
L 486.354118 -354.16663 
L 489.33111 -353.928997 
L 492.308103 -353.791067 
L 495.285095 -353.749091 
L 498.262087 -353.805527 
L 501.23908 -353.959546 
L 504.216072 -354.212013 
L 507.193064 -354.5584 
L 510.170057 -354.996751 
L 513.147049 -355.531559 
L 516.124041 -356.160113 
L 519.101034 -356.889412 
L 522.078026 -357.713419 
L 525.055018 -358.627475 
L 528.032011 -359.635817 
L 531.009003 -360.736932 
L 533.985995 -361.927779 
L 536.962988 -363.205927 
L 539.93998 -364.569081 
L 542.916972 -366.019995 
L 545.893965 -367.554961 
L 548.870957 -369.174905 
L 551.847949 -370.878925 
L 554.824942 -372.664792 
L 557.801934 -374.526951 
L 560.778926 -376.465199 
L 563.755919 -378.475989 
L 566.732911 -380.568589 
L 569.709903 -382.733184 
L 572.686896 -384.959235 
L 575.663888 -387.252559 
L 578.64088 -389.606745 
L 581.617873 -392.030041 
L 584.594865 -394.51124 
L 587.571857 -397.054424 
L 590.54885 -399.651857 
L 593.525842 -402.293194 
L 596.502834 -404.981072 
L 599.479827 -407.721334 
L 602.456819 -410.511616 
L 605.433811 -413.337903 
L 608.410804 -416.207967 
L 611.387796 -419.108684 
L 614.364788 -422.042277 
L 617.341781 -425.005732 
L 620.318773 -427.993681 
L 623.295765 -431.006474 
L 626.272758 -434.043234 
L 629.24975 -437.091716 
L 632.226742 -440.160637 
L 635.203735 -443.236086 
L 638.180727 -446.322801 
L 641.157719 -449.421529 
L 644.134712 -452.525787 
L 647.111704 -455.629776 
L 650.088696 -458.726968 
L 653.065689 -461.816706 
L 656.042681 -464.898689 
L 659.019673 -467.977864 
L 661.996666 -471.029 
L 664.973658 -474.063006 
L 667.95065 -477.088248 
L 670.927643 -480.078621 
L 673.904635 -483.038605 
L 676.881627 -485.967203 
L 679.85862 -488.863883 
L 682.835612 -491.73485 
L 685.812604 -494.55461 
L 688.789597 -497.334723 
L 691.766589 -500.057879 
L 694.743581 -502.733667 
L 697.720574 -505.357123 
L 700.697566 -507.949549 
L 703.674558 -510.468234 
L 706.651551 -512.919344 
L 709.628543 -515.326934 
L 712.605535 -517.655728 
L 715.582528 -519.911689 
L 718.55952 -522.111455 
L 721.536512 -524.231479 
L 724.513505 -526.285563 
L 727.490497 -528.266685 
L 730.467489 -530.19088 
L 733.444481 -532.023813 
L 736.421474 -533.761404 
L 739.398466 -535.432098 
L 742.375458 -537.021837 
L 745.352451 -538.518046 
L 748.329443 -539.909952 
L 751.306435 -541.238736 
L 754.283428 -542.458613 
L 757.26042 -543.582425 
L 760.237412 -544.603713 
L 763.214405 -545.549137 
L 766.191397 -546.392936 
L 769.168389 -547.157816 
L 772.145382 -547.838576 
L 775.122374 -548.43503 
L 778.099366 -548.958953 
L 781.076359 -549.405334 
L 784.053351 -549.789773 
L 787.030343 -550.075507 
L 790.007336 -550.295205 
L 792.984328 -550.45453 
L 795.96132 -550.563619 
L 798.938313 -550.585916 
L 801.915305 -550.570764 
L 804.892297 -550.487525 
L 807.86929 -550.333647 
L 810.846282 -550.134616 
L 813.823274 -549.880463 
L 816.800267 -549.572448 
L 819.777259 -549.224024 
L 822.754251 -548.83371 
L 825.731244 -548.398399 
L 828.708236 -547.920254 
L 831.685228 -547.412266 
L 834.662221 -546.851958 
L 837.639213 -546.272812 
L 840.616205 -545.674565 
L 843.593198 -545.031081 
L 846.57019 -544.361347 
L 849.547182 -543.683956 
L 852.524175 -542.996882 
L 855.501167 -542.279644 
L 858.478159 -541.538329 
L 861.455152 -540.771811 
L 864.432144 -539.990708 
L 867.409136 -539.181699 
L 870.386129 -538.374112 
L 873.363121 -537.553398 
L 876.340113 -536.728895 
L 879.317106 -535.896816 
L 882.294098 -535.068346 
L 885.27109 -534.229184 
L 888.248083 -533.383751 
L 891.225075 -532.54358 
L 894.202067 -531.710391 
L 897.17906 -530.872348 
L 900.156052 -530.030717 
L 903.133044 -529.186055 
L 906.110037 -528.343412 
L 909.087029 -527.520795 
L 912.064021 -526.699752 
L 915.041014 -525.893016 
L 918.018006 -525.087657 
L 920.994998 -524.297273 
L 923.971991 -523.51822 
L 926.948983 -522.76254 
L 929.925975 -522.02172 
L 932.902968 -521.30128 
L 935.87996 -520.584887 
L 938.856952 -519.881153 
L 941.833945 -519.202641 
L 944.810937 -518.534186 
L 947.787929 -517.887214 
L 950.764922 -517.263703 
L 953.741914 -516.646755 
L 956.718906 -516.046174 
L 959.695899 -515.474279 
L 962.672891 -514.935204 
L 965.649883 -514.419501 
L 968.626876 -513.909562 
L 971.603868 -513.431182 
L 974.58086 -512.975057 
L 977.557853 -512.531618 
L 980.534845 -512.100156 
L 983.511837 -511.707724 
L 986.48883 -511.345822 
L 989.465822 -510.998321 
L 992.442814 -510.678316 
L 995.419807 -510.380961 
L 998.396799 -510.109586 
L 1001.373791 -509.849348 
L 1004.350784 -509.615854 
L 1007.327776 -509.431729 
L 1010.304768 -509.262339 
L 1013.281761 -509.113663 
L 1016.258753 -508.994764 
L 1019.235745 -508.894063 
L 1022.212738 -508.821822 
L 1025.18973 -508.7838 
L 1028.166722 -508.772786 
L 1031.143715 -508.792012 
L 1034.120707 -508.837975 
L 1034.120707 -513.257814 
L 1034.120707 -513.257814 
L 1031.143715 -513.329252 
L 1028.166722 -513.424607 
L 1025.18973 -513.547231 
L 1022.212738 -513.694021 
L 1019.235745 -513.870745 
L 1016.258753 -514.074035 
L 1013.281761 -514.293187 
L 1010.304768 -514.54014 
L 1007.327776 -514.807005 
L 1004.350784 -515.084793 
L 1001.373791 -515.407299 
L 998.396799 -515.756664 
L 995.419807 -516.116662 
L 992.442814 -516.501668 
L 989.465822 -516.908188 
L 986.48883 -517.341555 
L 983.511837 -517.788831 
L 980.534845 -518.263405 
L 977.557853 -518.775825 
L 974.58086 -519.302364 
L 971.603868 -519.841833 
L 968.626876 -520.401662 
L 965.649883 -520.993766 
L 962.672891 -521.591996 
L 959.695899 -522.211287 
L 956.718906 -522.860481 
L 953.741914 -523.536639 
L 950.764922 -524.23014 
L 947.787929 -524.930291 
L 944.810937 -525.65206 
L 941.833945 -526.394562 
L 938.856952 -527.146186 
L 935.87996 -527.921198 
L 932.902968 -528.709832 
L 929.925975 -529.502425 
L 926.948983 -530.313038 
L 923.971991 -531.136345 
L 920.994998 -531.979862 
L 918.018006 -532.833849 
L 915.041014 -533.701821 
L 912.064021 -534.570567 
L 909.087029 -535.451585 
L 906.110037 -536.331424 
L 903.133044 -537.229773 
L 900.156052 -538.130009 
L 897.17906 -539.027441 
L 894.202067 -539.921138 
L 891.225075 -540.809057 
L 888.248083 -541.701876 
L 885.27109 -542.598355 
L 882.294098 -543.48798 
L 879.317106 -544.365261 
L 876.340113 -545.24524 
L 873.363121 -546.115938 
L 870.386129 -546.980191 
L 867.409136 -547.829674 
L 864.432144 -548.679758 
L 861.455152 -549.501905 
L 858.478159 -550.308988 
L 855.501167 -551.091281 
L 852.524175 -551.849374 
L 849.547182 -552.575659 
L 846.57019 -553.289194 
L 843.593198 -553.993439 
L 840.616205 -554.67084 
L 837.639213 -555.300807 
L 834.662221 -555.910145 
L 831.685228 -556.499953 
L 828.708236 -557.036221 
L 825.731244 -557.541639 
L 822.754251 -558.002967 
L 819.777259 -558.417632 
L 816.800267 -558.789664 
L 813.823274 -559.121082 
L 810.846282 -559.397091 
L 807.86929 -559.617818 
L 804.892297 -559.794417 
L 801.915305 -559.896762 
L 798.938313 -559.930909 
L 795.96132 -559.927464 
L 792.984328 -559.83388 
L 790.007336 -559.691089 
L 787.030343 -559.491691 
L 784.053351 -559.223197 
L 781.076359 -558.852824 
L 778.099366 -558.420967 
L 775.122374 -557.912519 
L 772.145382 -557.335637 
L 769.168389 -556.673095 
L 766.191397 -555.932912 
L 763.214405 -555.111738 
L 760.237412 -554.1913 
L 757.26042 -553.196117 
L 754.283428 -552.093952 
L 751.306435 -550.886824 
L 748.329443 -549.568073 
L 745.352451 -548.186079 
L 742.375458 -546.68375 
L 739.398466 -545.085798 
L 736.421474 -543.420883 
L 733.444481 -541.68878 
L 730.467489 -539.852143 
L 727.490497 -537.930833 
L 724.513505 -535.963019 
L 721.536512 -533.925262 
L 718.55952 -531.82878 
L 715.582528 -529.663202 
L 712.605535 -527.445483 
L 709.628543 -525.143187 
L 706.651551 -522.771556 
L 703.674558 -520.362746 
L 700.697566 -517.877366 
L 697.720574 -515.32435 
L 694.743581 -512.754203 
L 691.766589 -510.132485 
L 688.789597 -507.454736 
L 685.812604 -504.719134 
L 682.835612 -501.942929 
L 679.85862 -499.116617 
L 676.881627 -496.271652 
L 673.904635 -493.39303 
L 670.927643 -490.479686 
L 667.95065 -487.530166 
L 664.973658 -484.54878 
L 661.996666 -481.562641 
L 659.019673 -478.554674 
L 656.042681 -475.517574 
L 653.065689 -472.478773 
L 650.088696 -469.429051 
L 647.111704 -466.367372 
L 644.134712 -463.296196 
L 641.157719 -460.224107 
L 638.180727 -457.158067 
L 635.203735 -454.103874 
L 632.226742 -451.058683 
L 629.24975 -448.017889 
L 626.272758 -444.995693 
L 623.295765 -441.982592 
L 620.318773 -438.991771 
L 617.341781 -436.023628 
L 614.364788 -433.077134 
L 611.387796 -430.157335 
L 608.410804 -427.267024 
L 605.433811 -424.404937 
L 602.456819 -421.584967 
L 599.479827 -418.799889 
L 596.502834 -416.063451 
L 593.525842 -413.375976 
L 590.54885 -410.731266 
L 587.571857 -408.128222 
L 584.594865 -405.5774 
L 581.617873 -403.087175 
L 578.64088 -400.653231 
L 575.663888 -398.285594 
L 572.686896 -395.975912 
L 569.709903 -393.730564 
L 566.732911 -391.545596 
L 563.755919 -389.430974 
L 560.778926 -387.395592 
L 557.801934 -385.431014 
L 554.824942 -383.540864 
L 551.847949 -381.725617 
L 548.870957 -379.990892 
L 545.893965 -378.338456 
L 542.916972 -376.76971 
L 539.93998 -375.283652 
L 536.962988 -373.883611 
L 533.985995 -372.567434 
L 531.009003 -371.337642 
L 528.032011 -370.196961 
L 525.055018 -369.147748 
L 522.078026 -368.192357 
L 519.101034 -367.32745 
L 516.124041 -366.556703 
L 513.147049 -365.885917 
L 510.170057 -365.308672 
L 507.193064 -364.827903 
L 504.216072 -364.440605 
L 501.23908 -364.147777 
L 498.262087 -363.953784 
L 495.285095 -363.857949 
L 492.308103 -363.861408 
L 489.33111 -363.961597 
L 486.354118 -364.161526 
L 483.377126 -364.458381 
L 480.400133 -364.848986 
L 477.423141 -365.339955 
L 474.446149 -365.922107 
L 471.469156 -366.600576 
L 468.492164 -367.378779 
L 465.515172 -368.253315 
L 462.538179 -369.221541 
L 459.561187 -370.285047 
L 456.584195 -371.445066 
L 453.607202 -372.695792 
L 450.63021 -374.037753 
L 447.653218 -375.468411 
L 444.676225 -376.982049 
L 441.699233 -378.583222 
L 438.722241 -380.256187 
L 435.745248 -381.992339 
L 432.768256 -383.790802 
L 429.791264 -385.641957 
L 426.814271 -387.545195 
L 423.837279 -389.498601 
L 420.860287 -391.494378 
L 417.883294 -393.532204 
L 414.906302 -395.606146 
L 411.92931 -397.713796 
L 408.952317 -399.85142 
L 405.975325 -402.010889 
L 402.998333 -404.195884 
L 400.02134 -406.396773 
L 397.044348 -408.611845 
L 394.067356 -410.838044 
L 391.090363 -413.075514 
L 388.113371 -415.315151 
L 385.136379 -417.562288 
L 382.159386 -419.807256 
L 379.182394 -422.055535 
L 376.205402 -424.293567 
L 373.228409 -426.52925 
L 370.251417 -428.754832 
L 367.274425 -430.971965 
L 364.297432 -433.172725 
L 361.32044 -435.358521 
L 358.343448 -437.528623 
L 355.366455 -439.669284 
L 352.389463 -441.789298 
L 349.412471 -443.884578 
L 346.435478 -445.950447 
L 343.458486 -447.988435 
L 340.481494 -449.991362 
L 337.504502 -451.958008 
L 334.527509 -453.883515 
L 331.550517 -455.769885 
L 328.573525 -457.609143 
L 325.596532 -459.398987 
L 322.61954 -461.137393 
L 319.642548 -462.822431 
L 316.665555 -464.467211 
L 313.688563 -466.047801 
L 310.711571 -467.561459 
L 307.734578 -469.012267 
L 304.757586 -470.395314 
L 301.780594 -471.692348 
L 298.803601 -472.911423 
L 295.826609 -474.040508 
L 292.849617 -475.044209 
z
" style="stroke: #00ffff; stroke-opacity: 0.5"/>
    </defs>
    <g clip-path="url(#pb7a1844589)">
     <use xlink:href="#m27c991d4ae" x="0" y="648" style="fill: #00ffff; fill-opacity: 0.5; stroke: #00ffff; stroke-opacity: 0.5"/>
    </g>
   </g>
   <g id="matplotlib.axis_1">
    <g id="xtick_1">
     <g id="line2d_1">
      <defs>
       <path id="m882e2e189c" d="M 0 0 
L 0 3.5 
" style="stroke: #000000; stroke-width: 0.8"/>
      </defs>
      <g>
       <use xlink:href="#m882e2e189c" x="144" y="304.56" style="stroke: #000000; stroke-width: 0.8"/>
      </g>
     </g>
     <g id="text_1">
      <!-- 0 -->
      <g transform="translate(140.81875 319.158437) scale(0.1 -0.1)">
       <defs>
        <path id="DejaVuSans-30" d="M 2034 4250 
Q 1547 4250 1301 3770 
Q 1056 3291 1056 2328 
Q 1056 1369 1301 889 
Q 1547 409 2034 409 
Q 2525 409 2770 889 
Q 3016 1369 3016 2328 
Q 3016 3291 2770 3770 
Q 2525 4250 2034 4250 
z
M 2034 4750 
Q 2819 4750 3233 4129 
Q 3647 3509 3647 2328 
Q 3647 1150 3233 529 
Q 2819 -91 2034 -91 
Q 1250 -91 836 529 
Q 422 1150 422 2328 
Q 422 3509 836 4129 
Q 1250 4750 2034 4750 
z
" transform="scale(0.015625)"/>
       </defs>
       <use xlink:href="#DejaVuSans-30"/>
      </g>
     </g>
    </g>
    <g id="xtick_2">
     <g id="line2d_2">
      <g>
       <use xlink:href="#m882e2e189c" x="292.849617" y="304.56" style="stroke: #000000; stroke-width: 0.8"/>
      </g>
     </g>
     <g id="text_2">
      <!-- 5 -->
      <g transform="translate(289.668367 319.158437) scale(0.1 -0.1)">
       <defs>
        <path id="DejaVuSans-35" d="M 691 4666 
L 3169 4666 
L 3169 4134 
L 1269 4134 
L 1269 2991 
Q 1406 3038 1543 3061 
Q 1681 3084 1819 3084 
Q 2600 3084 3056 2656 
Q 3513 2228 3513 1497 
Q 3513 744 3044 326 
Q 2575 -91 1722 -91 
Q 1428 -91 1123 -41 
Q 819 9 494 109 
L 494 744 
Q 775 591 1075 516 
Q 1375 441 1709 441 
Q 2250 441 2565 725 
Q 2881 1009 2881 1497 
Q 2881 1984 2565 2268 
Q 2250 2553 1709 2553 
Q 1456 2553 1204 2497 
Q 953 2441 691 2322 
L 691 4666 
z
" transform="scale(0.015625)"/>
       </defs>
       <use xlink:href="#DejaVuSans-35"/>
      </g>
     </g>
    </g>
    <g id="xtick_3">
     <g id="line2d_3">
      <g>
       <use xlink:href="#m882e2e189c" x="441.699233" y="304.56" style="stroke: #000000; stroke-width: 0.8"/>
      </g>
     </g>
     <g id="text_3">
      <!-- 10 -->
      <g transform="translate(435.336733 319.158437) scale(0.1 -0.1)">
       <defs>
        <path id="DejaVuSans-31" d="M 794 531 
L 1825 531 
L 1825 4091 
L 703 3866 
L 703 4441 
L 1819 4666 
L 2450 4666 
L 2450 531 
L 3481 531 
L 3481 0 
L 794 0 
L 794 531 
z
" transform="scale(0.015625)"/>
       </defs>
       <use xlink:href="#DejaVuSans-31"/>
       <use xlink:href="#DejaVuSans-30" x="63.623047"/>
      </g>
     </g>
    </g>
    <g id="xtick_4">
     <g id="line2d_4">
      <g>
       <use xlink:href="#m882e2e189c" x="590.54885" y="304.56" style="stroke: #000000; stroke-width: 0.8"/>
      </g>
     </g>
     <g id="text_4">
      <!-- 15 -->
      <g transform="translate(584.18635 319.158437) scale(0.1 -0.1)">
       <use xlink:href="#DejaVuSans-31"/>
       <use xlink:href="#DejaVuSans-35" x="63.623047"/>
      </g>
     </g>
    </g>
    <g id="xtick_5">
     <g id="line2d_5">
      <g>
       <use xlink:href="#m882e2e189c" x="739.398466" y="304.56" style="stroke: #000000; stroke-width: 0.8"/>
      </g>
     </g>
     <g id="text_5">
      <!-- 20 -->
      <g transform="translate(733.035966 319.158437) scale(0.1 -0.1)">
       <defs>
        <path id="DejaVuSans-32" d="M 1228 531 
L 3431 531 
L 3431 0 
L 469 0 
L 469 531 
Q 828 903 1448 1529 
Q 2069 2156 2228 2338 
Q 2531 2678 2651 2914 
Q 2772 3150 2772 3378 
Q 2772 3750 2511 3984 
Q 2250 4219 1831 4219 
Q 1534 4219 1204 4116 
Q 875 4013 500 3803 
L 500 4441 
Q 881 4594 1212 4672 
Q 1544 4750 1819 4750 
Q 2544 4750 2975 4387 
Q 3406 4025 3406 3419 
Q 3406 3131 3298 2873 
Q 3191 2616 2906 2266 
Q 2828 2175 2409 1742 
Q 1991 1309 1228 531 
z
" transform="scale(0.015625)"/>
       </defs>
       <use xlink:href="#DejaVuSans-32"/>
       <use xlink:href="#DejaVuSans-30" x="63.623047"/>
      </g>
     </g>
    </g>
    <g id="xtick_6">
     <g id="line2d_6">
      <g>
       <use xlink:href="#m882e2e189c" x="888.248083" y="304.56" style="stroke: #000000; stroke-width: 0.8"/>
      </g>
     </g>
     <g id="text_6">
      <!-- 25 -->
      <g transform="translate(881.885583 319.158437) scale(0.1 -0.1)">
       <use xlink:href="#DejaVuSans-32"/>
       <use xlink:href="#DejaVuSans-35" x="63.623047"/>
      </g>
     </g>
    </g>
   </g>
   <g id="matplotlib.axis_2">
    <g id="ytick_1">
     <g id="line2d_7">
      <defs>
       <path id="m9e6a793495" d="M 0 0 
L -3.5 0 
" style="stroke: #000000; stroke-width: 0.8"/>
      </defs>
      <g>
       <use xlink:href="#m9e6a793495" x="144" y="267.827526" style="stroke: #000000; stroke-width: 0.8"/>
      </g>
     </g>
     <g id="text_7">
      <!-- 1.0 -->
      <g transform="translate(121.096875 271.626744) scale(0.1 -0.1)">
       <defs>
        <path id="DejaVuSans-2e" d="M 684 794 
L 1344 794 
L 1344 0 
L 684 0 
L 684 794 
z
" transform="scale(0.015625)"/>
       </defs>
       <use xlink:href="#DejaVuSans-31"/>
       <use xlink:href="#DejaVuSans-2e" x="63.623047"/>
       <use xlink:href="#DejaVuSans-30" x="95.410156"/>
      </g>
     </g>
    </g>
    <g id="ytick_2">
     <g id="line2d_8">
      <g>
       <use xlink:href="#m9e6a793495" x="144" y="229.571945" style="stroke: #000000; stroke-width: 0.8"/>
      </g>
     </g>
     <g id="text_8">
      <!-- 1.5 -->
      <g transform="translate(121.096875 233.371163) scale(0.1 -0.1)">
       <use xlink:href="#DejaVuSans-31"/>
       <use xlink:href="#DejaVuSans-2e" x="63.623047"/>
       <use xlink:href="#DejaVuSans-35" x="95.410156"/>
      </g>
     </g>
    </g>
    <g id="ytick_3">
     <g id="line2d_9">
      <g>
       <use xlink:href="#m9e6a793495" x="144" y="191.316364" style="stroke: #000000; stroke-width: 0.8"/>
      </g>
     </g>
     <g id="text_9">
      <!-- 2.0 -->
      <g transform="translate(121.096875 195.115582) scale(0.1 -0.1)">
       <use xlink:href="#DejaVuSans-32"/>
       <use xlink:href="#DejaVuSans-2e" x="63.623047"/>
       <use xlink:href="#DejaVuSans-30" x="95.410156"/>
      </g>
     </g>
    </g>
    <g id="ytick_4">
     <g id="line2d_10">
      <g>
       <use xlink:href="#m9e6a793495" x="144" y="153.060783" style="stroke: #000000; stroke-width: 0.8"/>
      </g>
     </g>
     <g id="text_10">
      <!-- 2.5 -->
      <g transform="translate(121.096875 156.860001) scale(0.1 -0.1)">
       <use xlink:href="#DejaVuSans-32"/>
       <use xlink:href="#DejaVuSans-2e" x="63.623047"/>
       <use xlink:href="#DejaVuSans-35" x="95.410156"/>
      </g>
     </g>
    </g>
    <g id="ytick_5">
     <g id="line2d_11">
      <g>
       <use xlink:href="#m9e6a793495" x="144" y="114.805202" style="stroke: #000000; stroke-width: 0.8"/>
      </g>
     </g>
     <g id="text_11">
      <!-- 3.0 -->
      <g transform="translate(121.096875 118.60442) scale(0.1 -0.1)">
       <defs>
        <path id="DejaVuSans-33" d="M 2597 2516 
Q 3050 2419 3304 2112 
Q 3559 1806 3559 1356 
Q 3559 666 3084 287 
Q 2609 -91 1734 -91 
Q 1441 -91 1130 -33 
Q 819 25 488 141 
L 488 750 
Q 750 597 1062 519 
Q 1375 441 1716 441 
Q 2309 441 2620 675 
Q 2931 909 2931 1356 
Q 2931 1769 2642 2001 
Q 2353 2234 1838 2234 
L 1294 2234 
L 1294 2753 
L 1863 2753 
Q 2328 2753 2575 2939 
Q 2822 3125 2822 3475 
Q 2822 3834 2567 4026 
Q 2313 4219 1838 4219 
Q 1578 4219 1281 4162 
Q 984 4106 628 3988 
L 628 4550 
Q 988 4650 1302 4700 
Q 1616 4750 1894 4750 
Q 2613 4750 3031 4423 
Q 3450 4097 3450 3541 
Q 3450 3153 3228 2886 
Q 3006 2619 2597 2516 
z
" transform="scale(0.015625)"/>
       </defs>
       <use xlink:href="#DejaVuSans-33"/>
       <use xlink:href="#DejaVuSans-2e" x="63.623047"/>
       <use xlink:href="#DejaVuSans-30" x="95.410156"/>
      </g>
     </g>
    </g>
   </g>
   <g id="line2d_12">
    <path d="M 144 137.214802 
L 145.488496 137.312229 
L 146.976992 137.607967 
L 156.205669 139.961134 
L 161.564255 140.955356 
L 169.006736 142.072819 
L 200.562854 146.498199 
L 210.08923 148.218842 
L 219.020207 150.070575 
L 227.951184 152.174905 
L 235.691364 154.209687 
L 244.026942 156.642357 
L 252.362521 159.312492 
L 260.4004 162.116459 
L 267.842881 164.942241 
L 276.476159 168.471746 
L 284.216339 171.889148 
L 292.254218 175.683882 
L 294.933511 176.877591 
L 298.505902 178.06361 
L 302.673691 179.552396 
L 306.84148 181.269873 
L 311.604668 183.49126 
L 316.963254 186.24484 
L 322.917239 189.578348 
L 329.466622 193.483265 
L 336.611404 198.009608 
L 344.946982 203.564111 
L 354.473358 210.198589 
L 364.892831 217.728582 
L 377.991597 227.497233 
L 412.822407 253.566805 
L 421.753384 259.88293 
L 429.493565 265.089299 
L 436.340647 269.434372 
L 442.592331 273.149073 
L 448.248616 276.262201 
L 453.309503 278.785988 
L 458.072691 280.920494 
L 462.835879 282.818553 
L 467.599066 284.47359 
L 472.362254 285.889961 
L 476.827743 286.99339 
L 481.59093 287.935957 
L 486.056419 288.599127 
L 490.521907 289.049828 
L 494.987396 289.280397 
L 499.452884 289.291595 
L 503.918373 289.081268 
L 508.383861 288.650895 
L 512.84935 288.012459 
L 517.612538 287.094955 
L 522.078026 286.006219 
L 526.841214 284.613675 
L 531.604401 282.98316 
L 536.367589 281.11928 
L 541.428476 278.895118 
L 546.489363 276.423851 
L 551.55025 273.708464 
L 556.908836 270.570724 
L 562.565122 266.98984 
L 567.923708 263.344719 
L 573.877693 259.018635 
L 580.129376 254.199634 
L 586.38106 249.101957 
L 593.228143 243.22068 
L 600.670624 236.545797 
L 608.708503 229.011679 
L 617.937179 220.029943 
L 628.654351 209.279936 
L 643.539313 194.01486 
L 665.569056 171.378971 
L 676.881627 160.088939 
L 686.705702 150.652478 
L 694.148183 143.799481 
L 701.888363 137.006552 
L 708.140047 131.778016 
L 714.68943 126.57584 
L 720.941114 121.931998 
L 726.895098 117.770899 
L 733.146782 113.682869 
L 737.90997 110.809172 
L 743.566255 107.652089 
L 748.031744 105.376507 
L 753.39033 102.919246 
L 757.855819 101.107028 
L 762.619006 99.427857 
L 767.382194 97.978426 
L 772.443081 96.678199 
L 777.503968 95.611481 
L 782.862554 94.716388 
L 787.625742 94.127712 
L 793.282027 93.687262 
L 798.938313 93.457452 
L 805.487696 93.476534 
L 811.143981 93.739668 
L 817.097966 94.225557 
L 823.945048 95.019363 
L 831.08983 96.094479 
L 837.639213 97.285433 
L 845.379393 98.878864 
L 857.287362 101.643112 
L 866.516039 104.030784 
L 880.805602 108.014741 
L 909.087029 116.173644 
L 926.948983 121.155616 
L 939.154652 124.288035 
L 950.169523 126.901739 
L 962.375192 129.53143 
L 972.496966 131.425893 
L 983.809537 133.277558 
L 993.038213 134.530621 
L 1002.564588 135.600939 
L 1010.007069 136.257777 
L 1019.831144 136.9001 
L 1027.869023 137.223676 
L 1036.502301 137.348491 
L 1036.8 137.3492 
L 1036.8 137.3492 
" clip-path="url(#pb7a1844589)" style="fill: none; stroke-dasharray: 5.55,2.4; stroke-dashoffset: 0; stroke: #ffa500; stroke-width: 1.5"/>
   </g>
   <g id="line2d_13">
    <path d="M 292.849617 176.924955 
L 298.803601 178.954897 
L 304.757586 181.412512 
L 310.711571 184.28672 
L 316.665555 187.471634 
L 322.61954 190.914712 
L 328.573525 194.551142 
L 337.504502 200.339027 
L 346.435478 206.436469 
L 355.366455 212.769156 
L 367.274425 221.510887 
L 388.113371 237.240937 
L 405.975325 250.604277 
L 414.906302 257.040759 
L 423.837279 263.18414 
L 429.791264 267.06973 
L 435.745248 270.753235 
L 441.699233 274.202222 
L 447.653218 277.359233 
L 453.607202 280.158343 
L 459.561187 282.58859 
L 465.515172 284.639801 
L 471.469156 286.31691 
L 477.423141 287.605966 
L 483.377126 288.521369 
L 489.33111 289.054703 
L 495.285095 289.19648 
L 501.23908 288.946339 
L 507.193064 288.306849 
L 513.147049 287.291262 
L 519.101034 285.891569 
L 525.055018 284.112389 
L 531.009003 281.962713 
L 536.962988 279.455231 
L 542.916972 276.605148 
L 548.870957 273.417101 
L 554.824942 269.897172 
L 560.778926 266.069605 
L 566.732911 261.942907 
L 572.686896 257.532426 
L 578.64088 252.870012 
L 584.594865 247.95568 
L 590.54885 242.808439 
L 599.479827 234.739388 
L 608.410804 226.262505 
L 617.341781 217.48532 
L 629.24975 205.445197 
L 653.065689 180.85226 
L 667.95065 165.690793 
L 676.881627 156.880573 
L 685.812604 148.363128 
L 691.766589 142.904818 
L 700.697566 135.086542 
L 706.651551 130.15455 
L 712.605535 125.449394 
L 718.55952 121.029883 
L 724.513505 116.875709 
L 730.467489 112.978489 
L 736.421474 109.408857 
L 742.375458 106.147206 
L 748.329443 103.260988 
L 754.283428 100.723718 
L 760.237412 98.602493 
L 766.191397 96.837076 
L 772.145382 95.412893 
L 778.099366 94.31004 
L 784.053351 93.493515 
L 790.007336 93.006853 
L 795.96132 92.754459 
L 801.915305 92.766237 
L 807.86929 93.024267 
L 813.823274 93.499227 
L 819.777259 94.179172 
L 825.731244 95.029981 
L 831.685228 96.04389 
L 840.616205 97.827298 
L 852.524175 100.576872 
L 861.455152 102.863142 
L 873.363121 106.165332 
L 897.17906 113.050106 
L 918.018006 119.039247 
L 929.925975 122.237928 
L 944.810937 125.906877 
L 956.718906 128.546673 
L 965.649883 130.293367 
L 974.58086 131.86129 
L 983.511837 133.251723 
L 992.442814 134.410008 
L 1001.373791 135.371677 
L 1010.304768 136.09876 
L 1019.235745 136.617596 
L 1028.166722 136.901304 
L 1034.120707 136.952106 
L 1034.120707 136.952106 
" clip-path="url(#pb7a1844589)" style="fill: none; stroke: #0000ff; stroke-opacity: 0.5; stroke-width: 1.5; stroke-linecap: square"/>
   </g>
   <g id="patch_3">
    <path d="M 144 304.56 
L 144 77.76 
" style="fill: none; stroke: #000000; stroke-width: 0.8; stroke-linejoin: miter; stroke-linecap: square"/>
   </g>
   <g id="patch_4">
    <path d="M 1036.8 304.56 
L 1036.8 77.76 
" style="fill: none; stroke: #000000; stroke-width: 0.8; stroke-linejoin: miter; stroke-linecap: square"/>
   </g>
   <g id="patch_5">
    <path d="M 144 304.56 
L 1036.8 304.56 
" style="fill: none; stroke: #000000; stroke-width: 0.8; stroke-linejoin: miter; stroke-linecap: square"/>
   </g>
   <g id="patch_6">
    <path d="M 144 77.76 
L 1036.8 77.76 
" style="fill: none; stroke: #000000; stroke-width: 0.8; stroke-linejoin: miter; stroke-linecap: square"/>
   </g>
   <g id="legend_1">
    <g id="patch_7">
     <path d="M 151 129.838125 
L 256.6 129.838125 
Q 258.6 129.838125 258.6 127.838125 
L 258.6 84.76 
Q 258.6 82.76 256.6 82.76 
L 151 82.76 
Q 149 82.76 149 84.76 
L 149 127.838125 
Q 149 129.838125 151 129.838125 
z
" style="fill: #ffffff; opacity: 0.8; stroke: #cccccc; stroke-linejoin: miter"/>
    </g>
    <g id="line2d_14">
     <path d="M 153 90.86 
L 163 90.86 
L 173 90.86 
" style="fill: none; stroke-dasharray: 5.55,2.4; stroke-dashoffset: 0; stroke: #ffa500; stroke-width: 1.5"/>
    </g>
    <g id="text_12">
     <!-- Real $y$ Position -->
     <g transform="translate(181 94.36) scale(0.1 -0.1)">
      <defs>
       <path id="DejaVuSans-52" d="M 2841 2188 
Q 3044 2119 3236 1894 
Q 3428 1669 3622 1275 
L 4263 0 
L 3584 0 
L 2988 1197 
Q 2756 1666 2539 1819 
Q 2322 1972 1947 1972 
L 1259 1972 
L 1259 0 
L 628 0 
L 628 4666 
L 2053 4666 
Q 2853 4666 3247 4331 
Q 3641 3997 3641 3322 
Q 3641 2881 3436 2590 
Q 3231 2300 2841 2188 
z
M 1259 4147 
L 1259 2491 
L 2053 2491 
Q 2509 2491 2742 2702 
Q 2975 2913 2975 3322 
Q 2975 3731 2742 3939 
Q 2509 4147 2053 4147 
L 1259 4147 
z
" transform="scale(0.015625)"/>
       <path id="DejaVuSans-65" d="M 3597 1894 
L 3597 1613 
L 953 1613 
Q 991 1019 1311 708 
Q 1631 397 2203 397 
Q 2534 397 2845 478 
Q 3156 559 3463 722 
L 3463 178 
Q 3153 47 2828 -22 
Q 2503 -91 2169 -91 
Q 1331 -91 842 396 
Q 353 884 353 1716 
Q 353 2575 817 3079 
Q 1281 3584 2069 3584 
Q 2775 3584 3186 3129 
Q 3597 2675 3597 1894 
z
M 3022 2063 
Q 3016 2534 2758 2815 
Q 2500 3097 2075 3097 
Q 1594 3097 1305 2825 
Q 1016 2553 972 2059 
L 3022 2063 
z
" transform="scale(0.015625)"/>
       <path id="DejaVuSans-61" d="M 2194 1759 
Q 1497 1759 1228 1600 
Q 959 1441 959 1056 
Q 959 750 1161 570 
Q 1363 391 1709 391 
Q 2188 391 2477 730 
Q 2766 1069 2766 1631 
L 2766 1759 
L 2194 1759 
z
M 3341 1997 
L 3341 0 
L 2766 0 
L 2766 531 
Q 2569 213 2275 61 
Q 1981 -91 1556 -91 
Q 1019 -91 701 211 
Q 384 513 384 1019 
Q 384 1609 779 1909 
Q 1175 2209 1959 2209 
L 2766 2209 
L 2766 2266 
Q 2766 2663 2505 2880 
Q 2244 3097 1772 3097 
Q 1472 3097 1187 3025 
Q 903 2953 641 2809 
L 641 3341 
Q 956 3463 1253 3523 
Q 1550 3584 1831 3584 
Q 2591 3584 2966 3190 
Q 3341 2797 3341 1997 
z
" transform="scale(0.015625)"/>
       <path id="DejaVuSans-6c" d="M 603 4863 
L 1178 4863 
L 1178 0 
L 603 0 
L 603 4863 
z
" transform="scale(0.015625)"/>
       <path id="DejaVuSans-20" transform="scale(0.015625)"/>
       <path id="DejaVuSans-Oblique-79" d="M 1588 -325 
Q 1188 -997 936 -1164 
Q 684 -1331 294 -1331 
L -159 -1331 
L -63 -850 
L 269 -850 
Q 509 -850 678 -719 
Q 847 -588 1056 -206 
L 1234 128 
L 459 3500 
L 1069 3500 
L 1650 819 
L 3256 3500 
L 3859 3500 
L 1588 -325 
z
" transform="scale(0.015625)"/>
       <path id="DejaVuSans-50" d="M 1259 4147 
L 1259 2394 
L 2053 2394 
Q 2494 2394 2734 2622 
Q 2975 2850 2975 3272 
Q 2975 3691 2734 3919 
Q 2494 4147 2053 4147 
L 1259 4147 
z
M 628 4666 
L 2053 4666 
Q 2838 4666 3239 4311 
Q 3641 3956 3641 3272 
Q 3641 2581 3239 2228 
Q 2838 1875 2053 1875 
L 1259 1875 
L 1259 0 
L 628 0 
L 628 4666 
z
" transform="scale(0.015625)"/>
       <path id="DejaVuSans-6f" d="M 1959 3097 
Q 1497 3097 1228 2736 
Q 959 2375 959 1747 
Q 959 1119 1226 758 
Q 1494 397 1959 397 
Q 2419 397 2687 759 
Q 2956 1122 2956 1747 
Q 2956 2369 2687 2733 
Q 2419 3097 1959 3097 
z
M 1959 3584 
Q 2709 3584 3137 3096 
Q 3566 2609 3566 1747 
Q 3566 888 3137 398 
Q 2709 -91 1959 -91 
Q 1206 -91 779 398 
Q 353 888 353 1747 
Q 353 2609 779 3096 
Q 1206 3584 1959 3584 
z
" transform="scale(0.015625)"/>
       <path id="DejaVuSans-73" d="M 2834 3397 
L 2834 2853 
Q 2591 2978 2328 3040 
Q 2066 3103 1784 3103 
Q 1356 3103 1142 2972 
Q 928 2841 928 2578 
Q 928 2378 1081 2264 
Q 1234 2150 1697 2047 
L 1894 2003 
Q 2506 1872 2764 1633 
Q 3022 1394 3022 966 
Q 3022 478 2636 193 
Q 2250 -91 1575 -91 
Q 1294 -91 989 -36 
Q 684 19 347 128 
L 347 722 
Q 666 556 975 473 
Q 1284 391 1588 391 
Q 1994 391 2212 530 
Q 2431 669 2431 922 
Q 2431 1156 2273 1281 
Q 2116 1406 1581 1522 
L 1381 1569 
Q 847 1681 609 1914 
Q 372 2147 372 2553 
Q 372 3047 722 3315 
Q 1072 3584 1716 3584 
Q 2034 3584 2315 3537 
Q 2597 3491 2834 3397 
z
" transform="scale(0.015625)"/>
       <path id="DejaVuSans-69" d="M 603 3500 
L 1178 3500 
L 1178 0 
L 603 0 
L 603 3500 
z
M 603 4863 
L 1178 4863 
L 1178 4134 
L 603 4134 
L 603 4863 
z
" transform="scale(0.015625)"/>
       <path id="DejaVuSans-74" d="M 1172 4494 
L 1172 3500 
L 2356 3500 
L 2356 3053 
L 1172 3053 
L 1172 1153 
Q 1172 725 1289 603 
Q 1406 481 1766 481 
L 2356 481 
L 2356 0 
L 1766 0 
Q 1100 0 847 248 
Q 594 497 594 1153 
L 594 3053 
L 172 3053 
L 172 3500 
L 594 3500 
L 594 4494 
L 1172 4494 
z
" transform="scale(0.015625)"/>
       <path id="DejaVuSans-6e" d="M 3513 2113 
L 3513 0 
L 2938 0 
L 2938 2094 
Q 2938 2591 2744 2837 
Q 2550 3084 2163 3084 
Q 1697 3084 1428 2787 
Q 1159 2491 1159 1978 
L 1159 0 
L 581 0 
L 581 3500 
L 1159 3500 
L 1159 2956 
Q 1366 3272 1645 3428 
Q 1925 3584 2291 3584 
Q 2894 3584 3203 3211 
Q 3513 2838 3513 2113 
z
" transform="scale(0.015625)"/>
      </defs>
      <use xlink:href="#DejaVuSans-52" transform="translate(0 0.015625)"/>
      <use xlink:href="#DejaVuSans-65" transform="translate(69.482422 0.015625)"/>
      <use xlink:href="#DejaVuSans-61" transform="translate(131.005859 0.015625)"/>
      <use xlink:href="#DejaVuSans-6c" transform="translate(192.285156 0.015625)"/>
      <use xlink:href="#DejaVuSans-20" transform="translate(220.068359 0.015625)"/>
      <use xlink:href="#DejaVuSans-Oblique-79" transform="translate(251.855469 0.015625)"/>
      <use xlink:href="#DejaVuSans-20" transform="translate(311.035156 0.015625)"/>
      <use xlink:href="#DejaVuSans-50" transform="translate(342.822266 0.015625)"/>
      <use xlink:href="#DejaVuSans-6f" transform="translate(403.125 0.015625)"/>
      <use xlink:href="#DejaVuSans-73" transform="translate(464.306641 0.015625)"/>
      <use xlink:href="#DejaVuSans-69" transform="translate(516.40625 0.015625)"/>
      <use xlink:href="#DejaVuSans-74" transform="translate(544.189453 0.015625)"/>
      <use xlink:href="#DejaVuSans-69" transform="translate(583.398438 0.015625)"/>
      <use xlink:href="#DejaVuSans-6f" transform="translate(611.181641 0.015625)"/>
      <use xlink:href="#DejaVuSans-6e" transform="translate(672.363281 0.015625)"/>
     </g>
    </g>
    <g id="line2d_15">
     <path d="M 153 105.56 
L 163 105.56 
L 173 105.56 
" style="fill: none; stroke: #0000ff; stroke-opacity: 0.5; stroke-width: 1.5; stroke-linecap: square"/>
    </g>
    <g id="text_13">
     <!-- Prediction $y$ -->
     <g transform="translate(181 109.06) scale(0.1 -0.1)">
      <defs>
       <path id="DejaVuSans-72" d="M 2631 2963 
Q 2534 3019 2420 3045 
Q 2306 3072 2169 3072 
Q 1681 3072 1420 2755 
Q 1159 2438 1159 1844 
L 1159 0 
L 581 0 
L 581 3500 
L 1159 3500 
L 1159 2956 
Q 1341 3275 1631 3429 
Q 1922 3584 2338 3584 
Q 2397 3584 2469 3576 
Q 2541 3569 2628 3553 
L 2631 2963 
z
" transform="scale(0.015625)"/>
       <path id="DejaVuSans-64" d="M 2906 2969 
L 2906 4863 
L 3481 4863 
L 3481 0 
L 2906 0 
L 2906 525 
Q 2725 213 2448 61 
Q 2172 -91 1784 -91 
Q 1150 -91 751 415 
Q 353 922 353 1747 
Q 353 2572 751 3078 
Q 1150 3584 1784 3584 
Q 2172 3584 2448 3432 
Q 2725 3281 2906 2969 
z
M 947 1747 
Q 947 1113 1208 752 
Q 1469 391 1925 391 
Q 2381 391 2643 752 
Q 2906 1113 2906 1747 
Q 2906 2381 2643 2742 
Q 2381 3103 1925 3103 
Q 1469 3103 1208 2742 
Q 947 2381 947 1747 
z
" transform="scale(0.015625)"/>
       <path id="DejaVuSans-63" d="M 3122 3366 
L 3122 2828 
Q 2878 2963 2633 3030 
Q 2388 3097 2138 3097 
Q 1578 3097 1268 2742 
Q 959 2388 959 1747 
Q 959 1106 1268 751 
Q 1578 397 2138 397 
Q 2388 397 2633 464 
Q 2878 531 3122 666 
L 3122 134 
Q 2881 22 2623 -34 
Q 2366 -91 2075 -91 
Q 1284 -91 818 406 
Q 353 903 353 1747 
Q 353 2603 823 3093 
Q 1294 3584 2113 3584 
Q 2378 3584 2631 3529 
Q 2884 3475 3122 3366 
z
" transform="scale(0.015625)"/>
      </defs>
      <use xlink:href="#DejaVuSans-50" transform="translate(0 0.015625)"/>
      <use xlink:href="#DejaVuSans-72" transform="translate(60.302734 0.015625)"/>
      <use xlink:href="#DejaVuSans-65" transform="translate(101.416016 0.015625)"/>
      <use xlink:href="#DejaVuSans-64" transform="translate(162.939453 0.015625)"/>
      <use xlink:href="#DejaVuSans-69" transform="translate(226.416016 0.015625)"/>
      <use xlink:href="#DejaVuSans-63" transform="translate(254.199219 0.015625)"/>
      <use xlink:href="#DejaVuSans-74" transform="translate(309.179688 0.015625)"/>
      <use xlink:href="#DejaVuSans-69" transform="translate(348.388672 0.015625)"/>
      <use xlink:href="#DejaVuSans-6f" transform="translate(376.171875 0.015625)"/>
      <use xlink:href="#DejaVuSans-6e" transform="translate(437.353516 0.015625)"/>
      <use xlink:href="#DejaVuSans-20" transform="translate(500.732422 0.015625)"/>
      <use xlink:href="#DejaVuSans-Oblique-79" transform="translate(532.519531 0.015625)"/>
     </g>
    </g>
    <g id="patch_8">
     <path d="M 153 123.758438 
L 173 123.758438 
L 173 116.758438 
L 153 116.758438 
z
" style="fill: #00ffff; fill-opacity: 0.5; stroke: #00ffff; stroke-opacity: 0.5; stroke-linejoin: miter"/>
    </g>
    <g id="text_14">
     <!-- Confidence -->
     <g transform="translate(181 123.758438) scale(0.1 -0.1)">
      <defs>
       <path id="DejaVuSans-43" d="M 4122 4306 
L 4122 3641 
Q 3803 3938 3442 4084 
Q 3081 4231 2675 4231 
Q 1875 4231 1450 3742 
Q 1025 3253 1025 2328 
Q 1025 1406 1450 917 
Q 1875 428 2675 428 
Q 3081 428 3442 575 
Q 3803 722 4122 1019 
L 4122 359 
Q 3791 134 3420 21 
Q 3050 -91 2638 -91 
Q 1578 -91 968 557 
Q 359 1206 359 2328 
Q 359 3453 968 4101 
Q 1578 4750 2638 4750 
Q 3056 4750 3426 4639 
Q 3797 4528 4122 4306 
z
" transform="scale(0.015625)"/>
       <path id="DejaVuSans-66" d="M 2375 4863 
L 2375 4384 
L 1825 4384 
Q 1516 4384 1395 4259 
Q 1275 4134 1275 3809 
L 1275 3500 
L 2222 3500 
L 2222 3053 
L 1275 3053 
L 1275 0 
L 697 0 
L 697 3053 
L 147 3053 
L 147 3500 
L 697 3500 
L 697 3744 
Q 697 4328 969 4595 
Q 1241 4863 1831 4863 
L 2375 4863 
z
" transform="scale(0.015625)"/>
      </defs>
      <use xlink:href="#DejaVuSans-43"/>
      <use xlink:href="#DejaVuSans-6f" x="69.824219"/>
      <use xlink:href="#DejaVuSans-6e" x="131.005859"/>
      <use xlink:href="#DejaVuSans-66" x="194.384766"/>
      <use xlink:href="#DejaVuSans-69" x="229.589844"/>
      <use xlink:href="#DejaVuSans-64" x="257.373047"/>
      <use xlink:href="#DejaVuSans-65" x="320.849609"/>
      <use xlink:href="#DejaVuSans-6e" x="382.373047"/>
      <use xlink:href="#DejaVuSans-63" x="445.751953"/>
      <use xlink:href="#DejaVuSans-65" x="500.732422"/>
     </g>
    </g>
   </g>
  </g>
  <g id="axes_2">
   <g id="patch_9">
    <path d="M 144 576.72 
L 1036.8 576.72 
L 1036.8 349.92 
L 144 349.92 
z
" style="fill: #ffffff"/>
   </g>
   <g id="matplotlib.axis_3">
    <g id="xtick_7">
     <g id="line2d_16">
      <g>
       <use xlink:href="#m882e2e189c" x="144" y="576.72" style="stroke: #000000; stroke-width: 0.8"/>
      </g>
     </g>
     <g id="text_15">
      <!-- 0 -->
      <g transform="translate(140.81875 591.318438) scale(0.1 -0.1)">
       <use xlink:href="#DejaVuSans-30"/>
      </g>
     </g>
    </g>
    <g id="xtick_8">
     <g id="line2d_17">
      <g>
       <use xlink:href="#m882e2e189c" x="292.849617" y="576.72" style="stroke: #000000; stroke-width: 0.8"/>
      </g>
     </g>
     <g id="text_16">
      <!-- 5 -->
      <g transform="translate(289.668367 591.318438) scale(0.1 -0.1)">
       <use xlink:href="#DejaVuSans-35"/>
      </g>
     </g>
    </g>
    <g id="xtick_9">
     <g id="line2d_18">
      <g>
       <use xlink:href="#m882e2e189c" x="441.699233" y="576.72" style="stroke: #000000; stroke-width: 0.8"/>
      </g>
     </g>
     <g id="text_17">
      <!-- 10 -->
      <g transform="translate(435.336733 591.318438) scale(0.1 -0.1)">
       <use xlink:href="#DejaVuSans-31"/>
       <use xlink:href="#DejaVuSans-30" x="63.623047"/>
      </g>
     </g>
    </g>
    <g id="xtick_10">
     <g id="line2d_19">
      <g>
       <use xlink:href="#m882e2e189c" x="590.54885" y="576.72" style="stroke: #000000; stroke-width: 0.8"/>
      </g>
     </g>
     <g id="text_18">
      <!-- 15 -->
      <g transform="translate(584.18635 591.318438) scale(0.1 -0.1)">
       <use xlink:href="#DejaVuSans-31"/>
       <use xlink:href="#DejaVuSans-35" x="63.623047"/>
      </g>
     </g>
    </g>
    <g id="xtick_11">
     <g id="line2d_20">
      <g>
       <use xlink:href="#m882e2e189c" x="739.398466" y="576.72" style="stroke: #000000; stroke-width: 0.8"/>
      </g>
     </g>
     <g id="text_19">
      <!-- 20 -->
      <g transform="translate(733.035966 591.318438) scale(0.1 -0.1)">
       <use xlink:href="#DejaVuSans-32"/>
       <use xlink:href="#DejaVuSans-30" x="63.623047"/>
      </g>
     </g>
    </g>
    <g id="xtick_12">
     <g id="line2d_21">
      <g>
       <use xlink:href="#m882e2e189c" x="888.248083" y="576.72" style="stroke: #000000; stroke-width: 0.8"/>
      </g>
     </g>
     <g id="text_20">
      <!-- 25 -->
      <g transform="translate(881.885583 591.318438) scale(0.1 -0.1)">
       <use xlink:href="#DejaVuSans-32"/>
       <use xlink:href="#DejaVuSans-35" x="63.623047"/>
      </g>
     </g>
    </g>
   </g>
   <g id="matplotlib.axis_4">
    <g id="ytick_6">
     <g id="line2d_22">
      <g>
       <use xlink:href="#m9e6a793495" x="144" y="556.751395" style="stroke: #000000; stroke-width: 0.8"/>
      </g>
     </g>
     <g id="text_21">
      <!-- −0.04 -->
      <g transform="translate(106.354687 560.550613) scale(0.1 -0.1)">
       <defs>
        <path id="DejaVuSans-2212" d="M 678 2272 
L 4684 2272 
L 4684 1741 
L 678 1741 
L 678 2272 
z
" transform="scale(0.015625)"/>
        <path id="DejaVuSans-34" d="M 2419 4116 
L 825 1625 
L 2419 1625 
L 2419 4116 
z
M 2253 4666 
L 3047 4666 
L 3047 1625 
L 3713 1625 
L 3713 1100 
L 3047 1100 
L 3047 0 
L 2419 0 
L 2419 1100 
L 313 1100 
L 313 1709 
L 2253 4666 
z
" transform="scale(0.015625)"/>
       </defs>
       <use xlink:href="#DejaVuSans-2212"/>
       <use xlink:href="#DejaVuSans-30" x="83.789062"/>
       <use xlink:href="#DejaVuSans-2e" x="147.412109"/>
       <use xlink:href="#DejaVuSans-30" x="179.199219"/>
       <use xlink:href="#DejaVuSans-34" x="242.822266"/>
      </g>
     </g>
    </g>
    <g id="ytick_7">
     <g id="line2d_23">
      <g>
       <use xlink:href="#m9e6a793495" x="144" y="527.568142" style="stroke: #000000; stroke-width: 0.8"/>
      </g>
     </g>
     <g id="text_22">
      <!-- −0.03 -->
      <g transform="translate(106.354687 531.36736) scale(0.1 -0.1)">
       <use xlink:href="#DejaVuSans-2212"/>
       <use xlink:href="#DejaVuSans-30" x="83.789062"/>
       <use xlink:href="#DejaVuSans-2e" x="147.412109"/>
       <use xlink:href="#DejaVuSans-30" x="179.199219"/>
       <use xlink:href="#DejaVuSans-33" x="242.822266"/>
      </g>
     </g>
    </g>
    <g id="ytick_8">
     <g id="line2d_24">
      <g>
       <use xlink:href="#m9e6a793495" x="144" y="498.384889" style="stroke: #000000; stroke-width: 0.8"/>
      </g>
     </g>
     <g id="text_23">
      <!-- −0.02 -->
      <g transform="translate(106.354687 502.184107) scale(0.1 -0.1)">
       <use xlink:href="#DejaVuSans-2212"/>
       <use xlink:href="#DejaVuSans-30" x="83.789062"/>
       <use xlink:href="#DejaVuSans-2e" x="147.412109"/>
       <use xlink:href="#DejaVuSans-30" x="179.199219"/>
       <use xlink:href="#DejaVuSans-32" x="242.822266"/>
      </g>
     </g>
    </g>
    <g id="ytick_9">
     <g id="line2d_25">
      <g>
       <use xlink:href="#m9e6a793495" x="144" y="469.201636" style="stroke: #000000; stroke-width: 0.8"/>
      </g>
     </g>
     <g id="text_24">
      <!-- −0.01 -->
      <g transform="translate(106.354687 473.000854) scale(0.1 -0.1)">
       <use xlink:href="#DejaVuSans-2212"/>
       <use xlink:href="#DejaVuSans-30" x="83.789062"/>
       <use xlink:href="#DejaVuSans-2e" x="147.412109"/>
       <use xlink:href="#DejaVuSans-30" x="179.199219"/>
       <use xlink:href="#DejaVuSans-31" x="242.822266"/>
      </g>
     </g>
    </g>
    <g id="ytick_10">
     <g id="line2d_26">
      <g>
       <use xlink:href="#m9e6a793495" x="144" y="440.018383" style="stroke: #000000; stroke-width: 0.8"/>
      </g>
     </g>
     <g id="text_25">
      <!-- 0.00 -->
      <g transform="translate(114.734375 443.817601) scale(0.1 -0.1)">
       <use xlink:href="#DejaVuSans-30"/>
       <use xlink:href="#DejaVuSans-2e" x="63.623047"/>
       <use xlink:href="#DejaVuSans-30" x="95.410156"/>
       <use xlink:href="#DejaVuSans-30" x="159.033203"/>
      </g>
     </g>
    </g>
    <g id="ytick_11">
     <g id="line2d_27">
      <g>
       <use xlink:href="#m9e6a793495" x="144" y="410.83513" style="stroke: #000000; stroke-width: 0.8"/>
      </g>
     </g>
     <g id="text_26">
      <!-- 0.01 -->
      <g transform="translate(114.734375 414.634349) scale(0.1 -0.1)">
       <use xlink:href="#DejaVuSans-30"/>
       <use xlink:href="#DejaVuSans-2e" x="63.623047"/>
       <use xlink:href="#DejaVuSans-30" x="95.410156"/>
       <use xlink:href="#DejaVuSans-31" x="159.033203"/>
      </g>
     </g>
    </g>
    <g id="ytick_12">
     <g id="line2d_28">
      <g>
       <use xlink:href="#m9e6a793495" x="144" y="381.651877" style="stroke: #000000; stroke-width: 0.8"/>
      </g>
     </g>
     <g id="text_27">
      <!-- 0.02 -->
      <g transform="translate(114.734375 385.451096) scale(0.1 -0.1)">
       <use xlink:href="#DejaVuSans-30"/>
       <use xlink:href="#DejaVuSans-2e" x="63.623047"/>
       <use xlink:href="#DejaVuSans-30" x="95.410156"/>
       <use xlink:href="#DejaVuSans-32" x="159.033203"/>
      </g>
     </g>
    </g>
    <g id="ytick_13">
     <g id="line2d_29">
      <g>
       <use xlink:href="#m9e6a793495" x="144" y="352.468624" style="stroke: #000000; stroke-width: 0.8"/>
      </g>
     </g>
     <g id="text_28">
      <!-- 0.03 -->
      <g transform="translate(114.734375 356.267843) scale(0.1 -0.1)">
       <use xlink:href="#DejaVuSans-30"/>
       <use xlink:href="#DejaVuSans-2e" x="63.623047"/>
       <use xlink:href="#DejaVuSans-30" x="95.410156"/>
       <use xlink:href="#DejaVuSans-33" x="159.033203"/>
      </g>
     </g>
    </g>
   </g>
   <g id="line2d_30">
    <path d="M 144 403.816924 
L 173.769923 412.789912 
L 203.539847 409.794111 
L 233.30977 405.098387 
L 263.079693 400.727267 
L 292.849617 396.56928 
L 322.61954 393.121452 
L 352.389463 390.059032 
L 382.159386 387.133506 
L 411.92931 384.46803 
L 441.699233 382.504572 
L 501.23908 378.423414 
L 560.778926 374.833368 
L 620.318773 371.92611 
L 679.85862 369.319236 
L 739.398466 367.1282 
L 858.478159 363.418055 
L 918.018006 361.994678 
L 977.557853 361.128701 
L 1037.097699 360.478122 
L 1096.637546 360.229091 
L 1153 360.369126 
L 1153 360.369126 
" clip-path="url(#pbf0511e30e)" style="fill: none; stroke: #1f77b4; stroke-width: 1.5; stroke-linecap: square"/>
   </g>
   <g id="patch_10">
    <path d="M 144 576.72 
L 144 349.92 
" style="fill: none; stroke: #000000; stroke-width: 0.8; stroke-linejoin: miter; stroke-linecap: square"/>
   </g>
   <g id="patch_11">
    <path d="M 1036.8 576.72 
L 1036.8 349.92 
" style="fill: none; stroke: #000000; stroke-width: 0.8; stroke-linejoin: miter; stroke-linecap: square"/>
   </g>
   <g id="patch_12">
    <path d="M 144 576.72 
L 1036.8 576.72 
" style="fill: none; stroke: #000000; stroke-width: 0.8; stroke-linejoin: miter; stroke-linecap: square"/>
   </g>
   <g id="patch_13">
    <path d="M 144 349.92 
L 1036.8 349.92 
" style="fill: none; stroke: #000000; stroke-width: 0.8; stroke-linejoin: miter; stroke-linecap: square"/>
   </g>
   <g id="legend_2">
    <g id="patch_14">
     <path d="M 151 372.598125 
L 260.221875 372.598125 
Q 262.221875 372.598125 262.221875 370.598125 
L 262.221875 356.92 
Q 262.221875 354.92 260.221875 354.92 
L 151 354.92 
Q 149 354.92 149 356.92 
L 149 370.598125 
Q 149 372.598125 151 372.598125 
z
" style="fill: #ffffff; opacity: 0.8; stroke: #cccccc; stroke-linejoin: miter"/>
    </g>
    <g id="line2d_31">
     <path d="M 153 363.018437 
L 163 363.018437 
L 173 363.018437 
" style="fill: none; stroke: #1f77b4; stroke-width: 1.5; stroke-linecap: square"/>
    </g>
    <g id="text_29">
     <!-- Prediction Error -->
     <g transform="translate(181 366.518437) scale(0.1 -0.1)">
      <defs>
       <path id="DejaVuSans-45" d="M 628 4666 
L 3578 4666 
L 3578 4134 
L 1259 4134 
L 1259 2753 
L 3481 2753 
L 3481 2222 
L 1259 2222 
L 1259 531 
L 3634 531 
L 3634 0 
L 628 0 
L 628 4666 
z
" transform="scale(0.015625)"/>
      </defs>
      <use xlink:href="#DejaVuSans-50"/>
      <use xlink:href="#DejaVuSans-72" x="58.552734"/>
      <use xlink:href="#DejaVuSans-65" x="97.416016"/>
      <use xlink:href="#DejaVuSans-64" x="158.939453"/>
      <use xlink:href="#DejaVuSans-69" x="222.416016"/>
      <use xlink:href="#DejaVuSans-63" x="250.199219"/>
      <use xlink:href="#DejaVuSans-74" x="305.179688"/>
      <use xlink:href="#DejaVuSans-69" x="344.388672"/>
      <use xlink:href="#DejaVuSans-6f" x="372.171875"/>
      <use xlink:href="#DejaVuSans-6e" x="433.353516"/>
      <use xlink:href="#DejaVuSans-20" x="496.732422"/>
      <use xlink:href="#DejaVuSans-45" x="528.519531"/>
      <use xlink:href="#DejaVuSans-72" x="591.703125"/>
      <use xlink:href="#DejaVuSans-72" x="631.066406"/>
      <use xlink:href="#DejaVuSans-6f" x="669.929688"/>
      <use xlink:href="#DejaVuSans-72" x="731.111328"/>
     </g>
    </g>
   </g>
  </g>
  <g id="text_30">
   <!-- $y$-Position Prediction -->
   <g transform="translate(514.74 22.08) scale(0.12 -0.12)">
    <defs>
     <path id="DejaVuSans-2d" d="M 313 2009 
L 1997 2009 
L 1997 1497 
L 313 1497 
L 313 2009 
z
" transform="scale(0.015625)"/>
    </defs>
    <use xlink:href="#DejaVuSans-Oblique-79" transform="translate(0 0.015625)"/>
    <use xlink:href="#DejaVuSans-2d" transform="translate(59.179688 0.015625)"/>
    <use xlink:href="#DejaVuSans-50" transform="translate(95.263672 0.015625)"/>
    <use xlink:href="#DejaVuSans-6f" transform="translate(155.566406 0.015625)"/>
    <use xlink:href="#DejaVuSans-73" transform="translate(216.748047 0.015625)"/>
    <use xlink:href="#DejaVuSans-69" transform="translate(268.847656 0.015625)"/>
    <use xlink:href="#DejaVuSans-74" transform="translate(296.630859 0.015625)"/>
    <use xlink:href="#DejaVuSans-69" transform="translate(335.839844 0.015625)"/>
    <use xlink:href="#DejaVuSans-6f" transform="translate(363.623047 0.015625)"/>
    <use xlink:href="#DejaVuSans-6e" transform="translate(424.804688 0.015625)"/>
    <use xlink:href="#DejaVuSans-20" transform="translate(488.183594 0.015625)"/>
    <use xlink:href="#DejaVuSans-50" transform="translate(519.970703 0.015625)"/>
    <use xlink:href="#DejaVuSans-72" transform="translate(580.273438 0.015625)"/>
    <use xlink:href="#DejaVuSans-65" transform="translate(621.386719 0.015625)"/>
    <use xlink:href="#DejaVuSans-64" transform="translate(682.910156 0.015625)"/>
    <use xlink:href="#DejaVuSans-69" transform="translate(746.386719 0.015625)"/>
    <use xlink:href="#DejaVuSans-63" transform="translate(774.169922 0.015625)"/>
    <use xlink:href="#DejaVuSans-74" transform="translate(829.150391 0.015625)"/>
    <use xlink:href="#DejaVuSans-69" transform="translate(868.359375 0.015625)"/>
    <use xlink:href="#DejaVuSans-6f" transform="translate(896.142578 0.015625)"/>
    <use xlink:href="#DejaVuSans-6e" transform="translate(957.324219 0.015625)"/>
   </g>
  </g>
 </g>
 <defs>
  <clipPath id="pb7a1844589">
   <rect x="144" y="77.76" width="892.8" height="226.8"/>
  </clipPath>
  <clipPath id="pbf0511e30e">
   <rect x="144" y="349.92" width="892.8" height="226.8"/>
  </clipPath>
 </defs>
</svg>
