<?xml version="1.0" encoding="utf-8" standalone="no"?>
<!DOCTYPE svg PUBLIC "-//W3C//DTD SVG 1.1//EN"
  "http://www.w3.org/Graphics/SVG/1.1/DTD/svg11.dtd">
<svg xmlns:xlink="http://www.w3.org/1999/xlink" width="1152pt" height="648pt" viewBox="0 0 1152 648" xmlns="http://www.w3.org/2000/svg" version="1.1">
 <metadata>
  <rdf:RDF xmlns:dc="http://purl.org/dc/elements/1.1/" xmlns:cc="http://creativecommons.org/ns#" xmlns:rdf="http://www.w3.org/1999/02/22-rdf-syntax-ns#">
   <cc:Work>
    <dc:type rdf:resource="http://purl.org/dc/dcmitype/StillImage"/>
    <dc:date>2024-06-19T20:45:53.350080</dc:date>
    <dc:format>image/svg+xml</dc:format>
    <dc:creator>
     <cc:Agent>
      <dc:title>Matplotlib v3.9.0, https://matplotlib.org/</dc:title>
     </cc:Agent>
    </dc:creator>
   </cc:Work>
  </rdf:RDF>
 </metadata>
 <defs>
  <style type="text/css">*{stroke-linejoin: round; stroke-linecap: butt}</style>
 </defs>
 <g id="figure_1">
  <g id="patch_1">
   <path d="M 0 648 
L 1152 648 
L 1152 0 
L 0 0 
z
" style="fill: #ffffff"/>
  </g>
  <g id="axes_1">
   <g id="patch_2">
    <path d="M 144 304.56 
L 1036.8 304.56 
L 1036.8 77.76 
L 144 77.76 
z
" style="fill: #ffffff"/>
   </g>
   <g id="PolyCollection_1">
    <defs>
     <path id="mbcbb9660b1" d="M 292.849617 -533.948954 
L 292.849617 -526.9767 
L 295.826609 -526.817613 
L 298.803601 -526.635758 
L 301.780594 -526.200876 
L 304.757586 -525.494216 
L 307.734578 -524.570847 
L 310.711571 -523.458644 
L 313.688563 -522.192513 
L 316.665555 -520.811528 
L 319.642548 -519.324852 
L 322.61954 -517.775985 
L 325.596532 -516.158414 
L 328.573525 -514.47877 
L 331.550517 -512.767433 
L 334.527509 -511.041883 
L 337.504502 -509.308877 
L 340.481494 -507.585167 
L 343.458486 -505.860036 
L 346.435478 -504.143551 
L 349.412471 -502.415622 
L 352.389463 -500.679984 
L 355.366455 -498.971724 
L 358.343448 -497.257089 
L 361.32044 -495.539247 
L 364.297432 -493.845819 
L 367.274425 -492.147075 
L 370.251417 -490.457584 
L 373.228409 -488.790034 
L 376.205402 -487.127062 
L 379.182394 -485.486031 
L 382.159386 -483.857463 
L 385.136379 -482.245316 
L 388.113371 -480.641226 
L 391.090363 -479.046658 
L 394.067356 -477.46685 
L 397.044348 -475.902608 
L 400.02134 -474.355184 
L 402.998333 -472.80932 
L 405.975325 -471.269629 
L 408.952317 -469.748822 
L 411.92931 -468.231152 
L 414.906302 -466.722691 
L 417.883294 -465.219136 
L 420.860287 -463.726207 
L 423.837279 -462.234068 
L 426.814271 -460.745389 
L 429.791264 -459.246644 
L 432.768256 -457.73806 
L 435.745248 -456.216307 
L 438.722241 -454.683515 
L 441.699233 -453.129366 
L 444.676225 -451.560623 
L 447.653218 -449.99447 
L 450.63021 -448.429682 
L 453.607202 -446.855024 
L 456.584195 -445.263555 
L 459.561187 -443.647569 
L 462.538179 -442.025318 
L 465.515172 -440.379671 
L 468.492164 -438.707305 
L 471.469156 -436.999767 
L 474.446149 -435.258269 
L 477.423141 -433.475853 
L 480.400133 -431.657829 
L 483.377126 -429.79349 
L 486.354118 -427.886122 
L 489.33111 -425.932731 
L 492.308103 -423.929685 
L 495.285095 -421.866321 
L 498.262087 -419.74163 
L 501.23908 -417.554984 
L 504.216072 -415.307939 
L 507.193064 -413.004627 
L 510.170057 -410.642268 
L 513.147049 -408.224426 
L 516.124041 -405.744946 
L 519.101034 -403.205495 
L 522.078026 -400.612631 
L 525.055018 -397.968818 
L 528.032011 -395.275292 
L 531.009003 -392.541088 
L 533.985995 -389.779126 
L 536.962988 -386.997344 
L 539.93998 -384.204026 
L 542.916972 -381.41757 
L 545.893965 -378.645498 
L 548.870957 -375.9074 
L 551.847949 -373.227037 
L 554.824942 -370.617262 
L 557.801934 -368.109148 
L 560.778926 -365.725016 
L 563.755919 -363.493105 
L 566.732911 -361.435461 
L 569.709903 -359.580785 
L 572.686896 -357.941633 
L 575.663888 -356.545343 
L 578.64088 -355.411646 
L 581.617873 -354.559479 
L 584.594865 -354.001894 
L 587.571857 -353.749091 
L 590.54885 -353.811131 
L 593.525842 -354.177377 
L 596.502834 -354.846077 
L 599.479827 -355.810666 
L 602.456819 -357.062635 
L 605.433811 -358.578406 
L 608.410804 -360.340494 
L 611.387796 -362.324253 
L 614.364788 -364.507247 
L 617.341781 -366.859905 
L 620.318773 -369.3577 
L 623.295765 -371.972687 
L 626.272758 -374.687798 
L 629.24975 -377.472362 
L 632.226742 -380.303609 
L 635.203735 -383.164189 
L 638.180727 -386.031478 
L 641.157719 -388.893005 
L 644.134712 -391.7392 
L 647.111704 -394.55484 
L 650.088696 -397.330946 
L 653.065689 -400.054354 
L 656.042681 -402.720333 
L 659.019673 -405.329363 
L 661.996666 -407.874444 
L 664.973658 -410.355835 
L 667.95065 -412.768432 
L 670.927643 -415.114562 
L 673.904635 -417.391223 
L 676.881627 -419.608179 
L 679.85862 -421.757687 
L 682.835612 -423.845574 
L 685.812604 -425.881708 
L 688.789597 -427.861715 
L 691.766589 -429.786898 
L 694.743581 -431.661448 
L 697.720574 -433.495094 
L 700.697566 -435.290783 
L 703.674558 -437.046477 
L 706.651551 -438.768076 
L 709.628543 -440.450896 
L 712.605535 -442.105602 
L 715.582528 -443.733093 
L 718.55952 -445.333228 
L 721.536512 -446.920265 
L 724.513505 -448.489826 
L 727.490497 -450.050745 
L 730.467489 -451.604992 
L 733.444481 -453.140729 
L 736.421474 -454.678385 
L 739.398466 -456.210892 
L 742.375458 -457.731875 
L 745.352451 -459.25004 
L 748.329443 -460.767668 
L 751.306435 -462.281235 
L 754.283428 -463.791103 
L 757.26042 -465.30149 
L 760.237412 -466.8168 
L 763.214405 -468.333646 
L 766.191397 -469.84867 
L 769.168389 -471.372916 
L 772.145382 -472.900272 
L 775.122374 -474.444729 
L 778.099366 -475.990894 
L 781.076359 -477.552602 
L 784.053351 -479.120047 
L 787.030343 -480.69883 
L 790.007336 -482.28409 
L 792.984328 -483.885025 
L 795.96132 -485.498626 
L 798.938313 -487.12963 
L 801.915305 -488.769407 
L 804.892297 -490.424082 
L 807.86929 -492.091894 
L 810.846282 -493.763628 
L 813.823274 -495.453094 
L 816.800267 -497.152879 
L 819.777259 -498.865366 
L 822.754251 -500.584679 
L 825.731244 -502.31594 
L 828.708236 -504.054472 
L 831.685228 -505.793552 
L 834.662221 -507.535275 
L 837.639213 -509.275096 
L 840.616205 -511.006714 
L 843.593198 -512.729466 
L 846.57019 -514.43338 
L 849.547182 -516.117792 
L 852.524175 -517.803146 
L 855.501167 -519.45633 
L 858.478159 -521.101633 
L 861.455152 -522.711973 
L 864.432144 -524.295155 
L 867.409136 -525.840333 
L 870.386129 -527.359932 
L 873.363121 -528.843202 
L 876.340113 -530.28613 
L 879.317106 -531.700989 
L 882.294098 -533.07675 
L 885.27109 -534.403583 
L 888.248083 -535.677482 
L 891.225075 -536.903077 
L 894.202067 -538.103396 
L 897.17906 -539.241723 
L 900.156052 -540.368009 
L 903.133044 -541.419047 
L 906.110037 -542.429849 
L 909.087029 -543.393311 
L 912.064021 -544.302806 
L 915.041014 -545.167521 
L 918.018006 -545.987042 
L 920.994998 -546.762669 
L 923.971991 -547.494177 
L 926.948983 -548.173299 
L 929.925975 -548.812637 
L 932.902968 -549.405091 
L 935.87996 -549.973731 
L 938.856952 -550.479463 
L 941.833945 -550.946432 
L 944.810937 -551.367499 
L 947.787929 -551.760917 
L 950.764922 -552.109891 
L 953.741914 -552.42641 
L 956.718906 -552.732994 
L 959.695899 -553.00566 
L 962.672891 -553.236388 
L 965.649883 -553.450827 
L 968.626876 -553.668772 
L 971.603868 -553.863004 
L 974.58086 -554.031432 
L 977.557853 -554.185187 
L 980.534845 -554.331189 
L 983.511837 -554.43376 
L 986.48883 -554.539684 
L 989.465822 -554.626775 
L 992.442814 -554.70846 
L 995.419807 -554.779334 
L 998.396799 -554.845434 
L 1001.373791 -554.90359 
L 1004.350784 -554.958159 
L 1007.327776 -555.014675 
L 1010.304768 -555.072435 
L 1013.281761 -555.14063 
L 1016.258753 -555.189032 
L 1019.235745 -555.232064 
L 1022.212738 -555.27436 
L 1025.18973 -555.346051 
L 1028.166722 -555.397867 
L 1031.143715 -555.455256 
L 1034.120707 -555.51575 
L 1034.120707 -559.419609 
L 1034.120707 -559.419609 
L 1031.143715 -559.466497 
L 1028.166722 -559.514797 
L 1025.18973 -559.566227 
L 1022.212738 -559.594844 
L 1019.235745 -559.649728 
L 1016.258753 -559.702353 
L 1013.281761 -559.748295 
L 1010.304768 -559.772608 
L 1007.327776 -559.805283 
L 1004.350784 -559.837316 
L 1001.373791 -559.869918 
L 998.396799 -559.897651 
L 995.419807 -559.916587 
L 992.442814 -559.929583 
L 989.465822 -559.930909 
L 986.48883 -559.925466 
L 983.511837 -559.900744 
L 980.534845 -559.87913 
L 977.557853 -559.811462 
L 974.58086 -559.73553 
L 971.603868 -559.643882 
L 968.626876 -559.523489 
L 965.649883 -559.377703 
L 962.672891 -559.236324 
L 959.695899 -559.077927 
L 956.718906 -558.873668 
L 953.741914 -558.634833 
L 950.764922 -558.38801 
L 947.787929 -558.105888 
L 944.810937 -557.778206 
L 941.833945 -557.42261 
L 938.856952 -557.019012 
L 935.87996 -556.571867 
L 932.902968 -556.058922 
L 929.925975 -555.523747 
L 926.948983 -554.939435 
L 923.971991 -554.312392 
L 920.994998 -553.629024 
L 918.018006 -552.902006 
L 915.041014 -552.129618 
L 912.064021 -551.310416 
L 909.087029 -550.444227 
L 906.110037 -549.519446 
L 903.133044 -548.547567 
L 900.156052 -547.527808 
L 897.17906 -546.428373 
L 894.202067 -545.323571 
L 891.225075 -544.155904 
L 888.248083 -542.967594 
L 885.27109 -541.725299 
L 882.294098 -540.425118 
L 879.317106 -539.072133 
L 876.340113 -537.683246 
L 873.363121 -536.265734 
L 870.386129 -534.807731 
L 867.409136 -533.315256 
L 864.432144 -531.795309 
L 861.455152 -530.233394 
L 858.478159 -528.640449 
L 855.501167 -527.012177 
L 852.524175 -525.373762 
L 849.547182 -523.707641 
L 846.57019 -522.044946 
L 843.593198 -520.353626 
L 840.616205 -518.638723 
L 837.639213 -516.911718 
L 834.662221 -515.174738 
L 831.685228 -513.435868 
L 828.708236 -511.696477 
L 825.731244 -509.958082 
L 822.754251 -508.228334 
L 819.777259 -506.513982 
L 816.800267 -504.807392 
L 813.823274 -503.115664 
L 810.846282 -501.436848 
L 807.86929 -499.774955 
L 804.892297 -498.116534 
L 801.915305 -496.472686 
L 798.938313 -494.844519 
L 795.96132 -493.22748 
L 792.984328 -491.630471 
L 790.007336 -490.047465 
L 787.030343 -488.480425 
L 784.053351 -486.919326 
L 781.076359 -485.370962 
L 778.099366 -483.82987 
L 775.122374 -482.30603 
L 772.145382 -480.786507 
L 769.168389 -479.285979 
L 766.191397 -477.789753 
L 763.214405 -476.304006 
L 760.237412 -474.816906 
L 757.26042 -473.332858 
L 754.283428 -471.854204 
L 751.306435 -470.374787 
L 748.329443 -468.889247 
L 745.352451 -467.39615 
L 742.375458 -465.896091 
L 739.398466 -464.388992 
L 736.421474 -462.872143 
L 733.444481 -461.352569 
L 730.467489 -459.836363 
L 727.490497 -458.304119 
L 724.513505 -456.767624 
L 721.536512 -455.224993 
L 718.55952 -453.667176 
L 715.582528 -452.097783 
L 712.605535 -450.502457 
L 709.628543 -448.881038 
L 706.651551 -447.231816 
L 703.674558 -445.543857 
L 700.697566 -443.822223 
L 697.720574 -442.061323 
L 694.743581 -440.263607 
L 691.766589 -438.425568 
L 688.789597 -436.536131 
L 685.812604 -434.591923 
L 682.835612 -432.593367 
L 679.85862 -430.544574 
L 676.881627 -428.434254 
L 673.904635 -426.259497 
L 670.927643 -424.027809 
L 667.95065 -421.728196 
L 664.973658 -419.364763 
L 661.996666 -416.936465 
L 659.019673 -414.448122 
L 656.042681 -411.900364 
L 653.065689 -409.299538 
L 650.088696 -406.642358 
L 647.111704 -403.934511 
L 644.134712 -401.190452 
L 641.157719 -398.419479 
L 638.180727 -395.635404 
L 635.203735 -392.843252 
L 632.226742 -390.054939 
L 629.24975 -387.290917 
L 626.272758 -384.568424 
L 623.295765 -381.91231 
L 620.318773 -379.351626 
L 617.341781 -376.899996 
L 614.364788 -374.585635 
L 611.387796 -372.432765 
L 608.410804 -370.471507 
L 605.433811 -368.723723 
L 602.456819 -367.216012 
L 599.479827 -365.968564 
L 596.502834 -365.006235 
L 593.525842 -364.332091 
L 590.54885 -363.951852 
L 587.571857 -363.870243 
L 584.594865 -364.102195 
L 581.617873 -364.632027 
L 578.64088 -365.450109 
L 575.663888 -366.543908 
L 572.686896 -367.894724 
L 569.709903 -369.482297 
L 566.732911 -371.280539 
L 563.755919 -373.278004 
L 560.778926 -375.446046 
L 557.801934 -377.762595 
L 554.824942 -380.200469 
L 551.847949 -382.737724 
L 548.870957 -385.343982 
L 545.893965 -388.007889 
L 542.916972 -390.706719 
L 539.93998 -393.420155 
L 536.962988 -396.140664 
L 533.985995 -398.851656 
L 531.009003 -401.544097 
L 528.032011 -404.209028 
L 525.055018 -406.83659 
L 522.078026 -409.417809 
L 519.101034 -411.950533 
L 516.124041 -414.432062 
L 513.147049 -416.85848 
L 510.170057 -419.225064 
L 507.193064 -421.537512 
L 504.216072 -423.791881 
L 501.23908 -425.990768 
L 498.262087 -428.134288 
L 495.285095 -430.220548 
L 492.308103 -432.25084 
L 489.33111 -434.225862 
L 486.354118 -436.152211 
L 483.377126 -438.034218 
L 480.400133 -439.87613 
L 477.423141 -441.674987 
L 474.446149 -443.441809 
L 471.469156 -445.169731 
L 468.492164 -446.868516 
L 465.515172 -448.535845 
L 462.538179 -450.178645 
L 459.561187 -451.79608 
L 456.584195 -453.405046 
L 453.607202 -454.991947 
L 450.63021 -456.561431 
L 447.653218 -458.115666 
L 444.676225 -459.660755 
L 441.699233 -461.202716 
L 438.722241 -462.734425 
L 435.745248 -464.247041 
L 432.768256 -465.7503 
L 429.791264 -467.243184 
L 426.814271 -468.73028 
L 423.837279 -470.209551 
L 420.860287 -471.692866 
L 417.883294 -473.177664 
L 414.906302 -474.671507 
L 411.92931 -476.170099 
L 408.952317 -477.680224 
L 405.975325 -479.191516 
L 402.998333 -480.718505 
L 400.02134 -482.253777 
L 397.044348 -483.792479 
L 394.067356 -485.344531 
L 391.090363 -486.910192 
L 388.113371 -488.490084 
L 385.136379 -490.08316 
L 382.159386 -491.685165 
L 379.182394 -493.305832 
L 376.205402 -494.939927 
L 373.228409 -496.597874 
L 370.251417 -498.264326 
L 367.274425 -499.953171 
L 364.297432 -501.658864 
L 361.32044 -503.362096 
L 358.343448 -505.087245 
L 355.366455 -506.814942 
L 352.389463 -508.529581 
L 349.412471 -510.255961 
L 346.435478 -511.969054 
L 343.458486 -513.653364 
L 340.481494 -515.319401 
L 337.504502 -516.94924 
L 334.527509 -518.550508 
L 331.550517 -520.107227 
L 328.573525 -521.616314 
L 325.596532 -523.077109 
L 322.61954 -524.473686 
L 319.642548 -525.806337 
L 316.665555 -527.096029 
L 313.688563 -528.317783 
L 310.711571 -529.476148 
L 307.734578 -530.548291 
L 304.757586 -531.510371 
L 301.780594 -532.354416 
L 298.803601 -533.050389 
L 295.826609 -533.615989 
L 292.849617 -533.948954 
z
" style="stroke: #00ffff; stroke-opacity: 0.5"/>
    </defs>
    <g clip-path="url(#p33fdc9a21f)">
     <use xlink:href="#mbcbb9660b1" x="0" y="648" style="fill: #00ffff; fill-opacity: 0.5; stroke: #00ffff; stroke-opacity: 0.5"/>
    </g>
   </g>
   <g id="matplotlib.axis_1">
    <g id="xtick_1">
     <g id="line2d_1">
      <defs>
       <path id="m30f89b49e2" d="M 0 0 
L 0 3.5 
" style="stroke: #000000; stroke-width: 0.8"/>
      </defs>
      <g>
       <use xlink:href="#m30f89b49e2" x="144" y="304.56" style="stroke: #000000; stroke-width: 0.8"/>
      </g>
     </g>
     <g id="text_1">
      <!-- 0 -->
      <g transform="translate(140.81875 319.158437) scale(0.1 -0.1)">
       <defs>
        <path id="DejaVuSans-30" d="M 2034 4250 
Q 1547 4250 1301 3770 
Q 1056 3291 1056 2328 
Q 1056 1369 1301 889 
Q 1547 409 2034 409 
Q 2525 409 2770 889 
Q 3016 1369 3016 2328 
Q 3016 3291 2770 3770 
Q 2525 4250 2034 4250 
z
M 2034 4750 
Q 2819 4750 3233 4129 
Q 3647 3509 3647 2328 
Q 3647 1150 3233 529 
Q 2819 -91 2034 -91 
Q 1250 -91 836 529 
Q 422 1150 422 2328 
Q 422 3509 836 4129 
Q 1250 4750 2034 4750 
z
" transform="scale(0.015625)"/>
       </defs>
       <use xlink:href="#DejaVuSans-30"/>
      </g>
     </g>
    </g>
    <g id="xtick_2">
     <g id="line2d_2">
      <g>
       <use xlink:href="#m30f89b49e2" x="292.849617" y="304.56" style="stroke: #000000; stroke-width: 0.8"/>
      </g>
     </g>
     <g id="text_2">
      <!-- 5 -->
      <g transform="translate(289.668367 319.158437) scale(0.1 -0.1)">
       <defs>
        <path id="DejaVuSans-35" d="M 691 4666 
L 3169 4666 
L 3169 4134 
L 1269 4134 
L 1269 2991 
Q 1406 3038 1543 3061 
Q 1681 3084 1819 3084 
Q 2600 3084 3056 2656 
Q 3513 2228 3513 1497 
Q 3513 744 3044 326 
Q 2575 -91 1722 -91 
Q 1428 -91 1123 -41 
Q 819 9 494 109 
L 494 744 
Q 775 591 1075 516 
Q 1375 441 1709 441 
Q 2250 441 2565 725 
Q 2881 1009 2881 1497 
Q 2881 1984 2565 2268 
Q 2250 2553 1709 2553 
Q 1456 2553 1204 2497 
Q 953 2441 691 2322 
L 691 4666 
z
" transform="scale(0.015625)"/>
       </defs>
       <use xlink:href="#DejaVuSans-35"/>
      </g>
     </g>
    </g>
    <g id="xtick_3">
     <g id="line2d_3">
      <g>
       <use xlink:href="#m30f89b49e2" x="441.699233" y="304.56" style="stroke: #000000; stroke-width: 0.8"/>
      </g>
     </g>
     <g id="text_3">
      <!-- 10 -->
      <g transform="translate(435.336733 319.158437) scale(0.1 -0.1)">
       <defs>
        <path id="DejaVuSans-31" d="M 794 531 
L 1825 531 
L 1825 4091 
L 703 3866 
L 703 4441 
L 1819 4666 
L 2450 4666 
L 2450 531 
L 3481 531 
L 3481 0 
L 794 0 
L 794 531 
z
" transform="scale(0.015625)"/>
       </defs>
       <use xlink:href="#DejaVuSans-31"/>
       <use xlink:href="#DejaVuSans-30" x="63.623047"/>
      </g>
     </g>
    </g>
    <g id="xtick_4">
     <g id="line2d_4">
      <g>
       <use xlink:href="#m30f89b49e2" x="590.54885" y="304.56" style="stroke: #000000; stroke-width: 0.8"/>
      </g>
     </g>
     <g id="text_4">
      <!-- 15 -->
      <g transform="translate(584.18635 319.158437) scale(0.1 -0.1)">
       <use xlink:href="#DejaVuSans-31"/>
       <use xlink:href="#DejaVuSans-35" x="63.623047"/>
      </g>
     </g>
    </g>
    <g id="xtick_5">
     <g id="line2d_5">
      <g>
       <use xlink:href="#m30f89b49e2" x="739.398466" y="304.56" style="stroke: #000000; stroke-width: 0.8"/>
      </g>
     </g>
     <g id="text_5">
      <!-- 20 -->
      <g transform="translate(733.035966 319.158437) scale(0.1 -0.1)">
       <defs>
        <path id="DejaVuSans-32" d="M 1228 531 
L 3431 531 
L 3431 0 
L 469 0 
L 469 531 
Q 828 903 1448 1529 
Q 2069 2156 2228 2338 
Q 2531 2678 2651 2914 
Q 2772 3150 2772 3378 
Q 2772 3750 2511 3984 
Q 2250 4219 1831 4219 
Q 1534 4219 1204 4116 
Q 875 4013 500 3803 
L 500 4441 
Q 881 4594 1212 4672 
Q 1544 4750 1819 4750 
Q 2544 4750 2975 4387 
Q 3406 4025 3406 3419 
Q 3406 3131 3298 2873 
Q 3191 2616 2906 2266 
Q 2828 2175 2409 1742 
Q 1991 1309 1228 531 
z
" transform="scale(0.015625)"/>
       </defs>
       <use xlink:href="#DejaVuSans-32"/>
       <use xlink:href="#DejaVuSans-30" x="63.623047"/>
      </g>
     </g>
    </g>
    <g id="xtick_6">
     <g id="line2d_6">
      <g>
       <use xlink:href="#m30f89b49e2" x="888.248083" y="304.56" style="stroke: #000000; stroke-width: 0.8"/>
      </g>
     </g>
     <g id="text_6">
      <!-- 25 -->
      <g transform="translate(881.885583 319.158437) scale(0.1 -0.1)">
       <use xlink:href="#DejaVuSans-32"/>
       <use xlink:href="#DejaVuSans-35" x="63.623047"/>
      </g>
     </g>
    </g>
   </g>
   <g id="matplotlib.axis_2">
    <g id="ytick_1">
     <g id="line2d_7">
      <defs>
       <path id="mf76d34e926" d="M 0 0 
L -3.5 0 
" style="stroke: #000000; stroke-width: 0.8"/>
      </defs>
      <g>
       <use xlink:href="#mf76d34e926" x="144" y="287.941162" style="stroke: #000000; stroke-width: 0.8"/>
      </g>
     </g>
     <g id="text_7">
      <!-- 0.5 -->
      <g transform="translate(121.096875 291.740381) scale(0.1 -0.1)">
       <defs>
        <path id="DejaVuSans-2e" d="M 684 794 
L 1344 794 
L 1344 0 
L 684 0 
L 684 794 
z
" transform="scale(0.015625)"/>
       </defs>
       <use xlink:href="#DejaVuSans-30"/>
       <use xlink:href="#DejaVuSans-2e" x="63.623047"/>
       <use xlink:href="#DejaVuSans-35" x="95.410156"/>
      </g>
     </g>
    </g>
    <g id="ytick_2">
     <g id="line2d_8">
      <g>
       <use xlink:href="#mf76d34e926" x="144" y="255.172777" style="stroke: #000000; stroke-width: 0.8"/>
      </g>
     </g>
     <g id="text_8">
      <!-- 1.0 -->
      <g transform="translate(121.096875 258.971995) scale(0.1 -0.1)">
       <use xlink:href="#DejaVuSans-31"/>
       <use xlink:href="#DejaVuSans-2e" x="63.623047"/>
       <use xlink:href="#DejaVuSans-30" x="95.410156"/>
      </g>
     </g>
    </g>
    <g id="ytick_3">
     <g id="line2d_9">
      <g>
       <use xlink:href="#mf76d34e926" x="144" y="222.404391" style="stroke: #000000; stroke-width: 0.8"/>
      </g>
     </g>
     <g id="text_9">
      <!-- 1.5 -->
      <g transform="translate(121.096875 226.20361) scale(0.1 -0.1)">
       <use xlink:href="#DejaVuSans-31"/>
       <use xlink:href="#DejaVuSans-2e" x="63.623047"/>
       <use xlink:href="#DejaVuSans-35" x="95.410156"/>
      </g>
     </g>
    </g>
    <g id="ytick_4">
     <g id="line2d_10">
      <g>
       <use xlink:href="#mf76d34e926" x="144" y="189.636006" style="stroke: #000000; stroke-width: 0.8"/>
      </g>
     </g>
     <g id="text_10">
      <!-- 2.0 -->
      <g transform="translate(121.096875 193.435225) scale(0.1 -0.1)">
       <use xlink:href="#DejaVuSans-32"/>
       <use xlink:href="#DejaVuSans-2e" x="63.623047"/>
       <use xlink:href="#DejaVuSans-30" x="95.410156"/>
      </g>
     </g>
    </g>
    <g id="ytick_5">
     <g id="line2d_11">
      <g>
       <use xlink:href="#mf76d34e926" x="144" y="156.867621" style="stroke: #000000; stroke-width: 0.8"/>
      </g>
     </g>
     <g id="text_11">
      <!-- 2.5 -->
      <g transform="translate(121.096875 160.666839) scale(0.1 -0.1)">
       <use xlink:href="#DejaVuSans-32"/>
       <use xlink:href="#DejaVuSans-2e" x="63.623047"/>
       <use xlink:href="#DejaVuSans-35" x="95.410156"/>
      </g>
     </g>
    </g>
    <g id="ytick_6">
     <g id="line2d_12">
      <g>
       <use xlink:href="#mf76d34e926" x="144" y="124.099235" style="stroke: #000000; stroke-width: 0.8"/>
      </g>
     </g>
     <g id="text_12">
      <!-- 3.0 -->
      <g transform="translate(121.096875 127.898454) scale(0.1 -0.1)">
       <defs>
        <path id="DejaVuSans-33" d="M 2597 2516 
Q 3050 2419 3304 2112 
Q 3559 1806 3559 1356 
Q 3559 666 3084 287 
Q 2609 -91 1734 -91 
Q 1441 -91 1130 -33 
Q 819 25 488 141 
L 488 750 
Q 750 597 1062 519 
Q 1375 441 1716 441 
Q 2309 441 2620 675 
Q 2931 909 2931 1356 
Q 2931 1769 2642 2001 
Q 2353 2234 1838 2234 
L 1294 2234 
L 1294 2753 
L 1863 2753 
Q 2328 2753 2575 2939 
Q 2822 3125 2822 3475 
Q 2822 3834 2567 4026 
Q 2313 4219 1838 4219 
Q 1578 4219 1281 4162 
Q 984 4106 628 3988 
L 628 4550 
Q 988 4650 1302 4700 
Q 1616 4750 1894 4750 
Q 2613 4750 3031 4423 
Q 3450 4097 3450 3541 
Q 3450 3153 3228 2886 
Q 3006 2619 2597 2516 
z
" transform="scale(0.015625)"/>
       </defs>
       <use xlink:href="#DejaVuSans-33"/>
       <use xlink:href="#DejaVuSans-2e" x="63.623047"/>
       <use xlink:href="#DejaVuSans-30" x="95.410156"/>
      </g>
     </g>
    </g>
    <g id="ytick_7">
     <g id="line2d_13">
      <g>
       <use xlink:href="#mf76d34e926" x="144" y="91.33085" style="stroke: #000000; stroke-width: 0.8"/>
      </g>
     </g>
     <g id="text_13">
      <!-- 3.5 -->
      <g transform="translate(121.096875 95.130069) scale(0.1 -0.1)">
       <use xlink:href="#DejaVuSans-33"/>
       <use xlink:href="#DejaVuSans-2e" x="63.623047"/>
       <use xlink:href="#DejaVuSans-35" x="95.410156"/>
      </g>
     </g>
    </g>
   </g>
   <g id="line2d_14">
    <path d="M 144 91.33085 
L 145.190797 91.454968 
L 146.381594 91.830006 
L 148.167789 92.734978 
L 152.633278 94.979917 
L 155.312571 96.056039 
L 158.289563 97.002043 
L 161.564255 97.795577 
L 165.434345 98.48845 
L 169.899833 99.051841 
L 175.258419 99.504705 
L 182.7009 99.887005 
L 196.395065 100.354556 
L 214.852417 101.151655 
L 224.974191 101.885414 
L 233.607469 102.723245 
L 241.347649 103.714261 
L 248.492431 104.816503 
L 255.339513 106.097863 
L 261.888896 107.550077 
L 268.438279 109.202997 
L 275.285362 111.166866 
L 282.430143 113.467456 
L 288.979527 115.821131 
L 294.635812 117.862496 
L 296.124308 118.052515 
L 301.185195 118.551442 
L 304.162187 119.074331 
L 307.436879 119.887882 
L 311.00927 121.016111 
L 315.177059 122.588818 
L 319.940247 124.631651 
L 325.894231 127.449942 
L 331.848216 130.526212 
L 340.183795 135.089382 
L 352.091764 141.847854 
L 373.228409 153.937301 
L 386.029476 160.985083 
L 400.31904 168.554912 
L 417.585595 177.382928 
L 450.63021 194.136197 
L 462.835879 200.618177 
L 472.362254 205.890396 
L 480.697833 210.765133 
L 488.140313 215.375492 
L 495.285095 220.060301 
L 501.536779 224.420565 
L 508.086162 229.267493 
L 514.635545 234.387191 
L 521.184928 239.790375 
L 528.32971 245.983319 
L 536.962988 253.796798 
L 555.718039 270.899976 
L 560.778926 275.161844 
L 564.946716 278.408969 
L 568.816806 281.145016 
L 572.389196 283.38547 
L 575.663888 285.170596 
L 578.64088 286.544084 
L 581.320173 287.557573 
L 583.999466 288.347966 
L 586.67876 288.905257 
L 589.358053 289.21806 
L 592.037346 289.278703 
L 594.716639 289.092842 
L 597.395932 288.663594 
L 600.075225 287.994433 
L 602.754518 287.085965 
L 605.433811 285.949695 
L 608.410804 284.436977 
L 611.685495 282.495707 
L 614.960187 280.292844 
L 618.532578 277.631817 
L 622.700367 274.246779 
L 627.463555 270.090139 
L 633.715238 264.325006 
L 656.935779 242.649244 
L 663.782861 236.71984 
L 670.034545 231.591772 
L 675.98853 226.982748 
L 682.240213 222.414466 
L 688.789597 217.910989 
L 695.33898 213.67588 
L 703.07916 208.956326 
L 711.117039 204.332072 
L 720.048016 199.469667 
L 733.444481 192.469523 
L 757.26042 180.393576 
L 779.587863 169.102965 
L 794.472824 161.304054 
L 806.976192 154.512155 
L 821.563454 146.320365 
L 836.150717 137.873713 
L 851.333378 129.164039 
L 862.943648 122.770257 
L 870.683828 118.747188 
L 878.424008 114.946803 
L 886.164188 111.389556 
L 892.415872 108.759105 
L 899.858353 105.85733 
L 905.514638 103.835086 
L 912.064021 101.722083 
L 918.613404 99.851524 
L 925.460487 98.127409 
L 932.00987 96.716933 
L 939.452351 95.351603 
L 946.001734 94.396261 
L 953.444215 93.541038 
L 962.97059 92.712276 
L 975.176259 91.996756 
L 986.19113 91.619528 
L 998.694498 91.43522 
L 1030.548316 91.332853 
L 1036.8 91.323821 
L 1036.8 91.323821 
" clip-path="url(#p33fdc9a21f)" style="fill: none; stroke-dasharray: 5.55,2.4; stroke-dashoffset: 0; stroke: #ffa500; stroke-width: 1.5"/>
   </g>
   <g id="line2d_15">
    <path d="M 292.849617 117.537173 
L 295.826609 117.783199 
L 298.803601 118.156927 
L 301.780594 118.722354 
L 304.757586 119.497706 
L 307.734578 120.440431 
L 310.711571 121.532604 
L 316.665555 124.046222 
L 322.61954 126.875164 
L 328.573525 129.952458 
L 337.504502 134.870941 
L 349.412471 141.664209 
L 367.274425 151.949877 
L 379.182394 158.604068 
L 391.090363 165.021575 
L 405.975325 172.769428 
L 426.814271 183.262166 
L 441.699233 190.833959 
L 459.561187 200.278175 
L 468.492164 205.21209 
L 477.423141 210.42458 
L 483.377126 214.086146 
L 489.33111 217.920704 
L 495.285095 221.956565 
L 501.23908 226.227124 
L 507.193064 230.728931 
L 513.147049 235.458547 
L 519.101034 240.421986 
L 525.055018 245.597296 
L 533.985995 253.684609 
L 551.847949 270.01762 
L 557.801934 275.064128 
L 560.778926 277.414469 
L 563.755919 279.614445 
L 566.732911 281.642 
L 569.709903 283.468459 
L 572.686896 285.081822 
L 575.663888 286.455374 
L 578.64088 287.569122 
L 581.617873 288.404247 
L 584.594865 288.947956 
L 587.571857 289.190333 
L 590.54885 289.118509 
L 593.525842 288.745266 
L 596.502834 288.073844 
L 599.479827 287.110385 
L 602.456819 285.860676 
L 605.433811 284.348936 
L 608.410804 282.593999 
L 611.387796 280.621491 
L 614.364788 278.453559 
L 617.341781 276.120049 
L 623.295765 271.057502 
L 629.24975 265.618361 
L 653.065689 243.323054 
L 659.019673 238.111258 
L 664.973658 233.139701 
L 670.927643 228.428814 
L 676.881627 223.978783 
L 682.835612 219.78053 
L 688.789597 215.801077 
L 694.743581 212.037472 
L 703.674558 206.704833 
L 712.605535 201.695971 
L 724.513505 195.371275 
L 742.375458 186.186017 
L 784.053351 164.980313 
L 798.938313 157.012926 
L 810.846282 150.399762 
L 825.731244 141.862989 
L 846.57019 129.760837 
L 858.478159 123.128959 
L 867.409136 118.422205 
L 876.340113 114.015312 
L 882.294098 111.249066 
L 888.248083 108.677462 
L 897.17906 105.164952 
L 903.133044 103.016693 
L 909.087029 101.081231 
L 915.041014 99.35143 
L 920.994998 97.804153 
L 926.948983 96.443633 
L 932.902968 95.267993 
L 938.856952 94.250763 
L 944.810937 93.427147 
L 950.764922 92.75105 
L 959.695899 91.958207 
L 971.603868 91.246557 
L 983.511837 90.832748 
L 995.419807 90.65204 
L 1019.235745 90.559104 
L 1034.120707 90.532321 
L 1034.120707 90.532321 
" clip-path="url(#p33fdc9a21f)" style="fill: none; stroke: #0000ff; stroke-opacity: 0.5; stroke-width: 1.5; stroke-linecap: square"/>
   </g>
   <g id="patch_3">
    <path d="M 144 304.56 
L 144 77.76 
" style="fill: none; stroke: #000000; stroke-width: 0.8; stroke-linejoin: miter; stroke-linecap: square"/>
   </g>
   <g id="patch_4">
    <path d="M 1036.8 304.56 
L 1036.8 77.76 
" style="fill: none; stroke: #000000; stroke-width: 0.8; stroke-linejoin: miter; stroke-linecap: square"/>
   </g>
   <g id="patch_5">
    <path d="M 144 304.56 
L 1036.8 304.56 
" style="fill: none; stroke: #000000; stroke-width: 0.8; stroke-linejoin: miter; stroke-linecap: square"/>
   </g>
   <g id="patch_6">
    <path d="M 144 77.76 
L 1036.8 77.76 
" style="fill: none; stroke: #000000; stroke-width: 0.8; stroke-linejoin: miter; stroke-linecap: square"/>
   </g>
   <g id="legend_1">
    <g id="patch_7">
     <path d="M 151 299.56 
L 256.6 299.56 
Q 258.6 299.56 258.6 297.56 
L 258.6 254.481875 
Q 258.6 252.481875 256.6 252.481875 
L 151 252.481875 
Q 149 252.481875 149 254.481875 
L 149 297.56 
Q 149 299.56 151 299.56 
z
" style="fill: #ffffff; opacity: 0.8; stroke: #cccccc; stroke-linejoin: miter"/>
    </g>
    <g id="line2d_16">
     <path d="M 153 260.581875 
L 163 260.581875 
L 173 260.581875 
" style="fill: none; stroke-dasharray: 5.55,2.4; stroke-dashoffset: 0; stroke: #ffa500; stroke-width: 1.5"/>
    </g>
    <g id="text_14">
     <!-- Real $y$ Position -->
     <g transform="translate(181 264.081875) scale(0.1 -0.1)">
      <defs>
       <path id="DejaVuSans-52" d="M 2841 2188 
Q 3044 2119 3236 1894 
Q 3428 1669 3622 1275 
L 4263 0 
L 3584 0 
L 2988 1197 
Q 2756 1666 2539 1819 
Q 2322 1972 1947 1972 
L 1259 1972 
L 1259 0 
L 628 0 
L 628 4666 
L 2053 4666 
Q 2853 4666 3247 4331 
Q 3641 3997 3641 3322 
Q 3641 2881 3436 2590 
Q 3231 2300 2841 2188 
z
M 1259 4147 
L 1259 2491 
L 2053 2491 
Q 2509 2491 2742 2702 
Q 2975 2913 2975 3322 
Q 2975 3731 2742 3939 
Q 2509 4147 2053 4147 
L 1259 4147 
z
" transform="scale(0.015625)"/>
       <path id="DejaVuSans-65" d="M 3597 1894 
L 3597 1613 
L 953 1613 
Q 991 1019 1311 708 
Q 1631 397 2203 397 
Q 2534 397 2845 478 
Q 3156 559 3463 722 
L 3463 178 
Q 3153 47 2828 -22 
Q 2503 -91 2169 -91 
Q 1331 -91 842 396 
Q 353 884 353 1716 
Q 353 2575 817 3079 
Q 1281 3584 2069 3584 
Q 2775 3584 3186 3129 
Q 3597 2675 3597 1894 
z
M 3022 2063 
Q 3016 2534 2758 2815 
Q 2500 3097 2075 3097 
Q 1594 3097 1305 2825 
Q 1016 2553 972 2059 
L 3022 2063 
z
" transform="scale(0.015625)"/>
       <path id="DejaVuSans-61" d="M 2194 1759 
Q 1497 1759 1228 1600 
Q 959 1441 959 1056 
Q 959 750 1161 570 
Q 1363 391 1709 391 
Q 2188 391 2477 730 
Q 2766 1069 2766 1631 
L 2766 1759 
L 2194 1759 
z
M 3341 1997 
L 3341 0 
L 2766 0 
L 2766 531 
Q 2569 213 2275 61 
Q 1981 -91 1556 -91 
Q 1019 -91 701 211 
Q 384 513 384 1019 
Q 384 1609 779 1909 
Q 1175 2209 1959 2209 
L 2766 2209 
L 2766 2266 
Q 2766 2663 2505 2880 
Q 2244 3097 1772 3097 
Q 1472 3097 1187 3025 
Q 903 2953 641 2809 
L 641 3341 
Q 956 3463 1253 3523 
Q 1550 3584 1831 3584 
Q 2591 3584 2966 3190 
Q 3341 2797 3341 1997 
z
" transform="scale(0.015625)"/>
       <path id="DejaVuSans-6c" d="M 603 4863 
L 1178 4863 
L 1178 0 
L 603 0 
L 603 4863 
z
" transform="scale(0.015625)"/>
       <path id="DejaVuSans-20" transform="scale(0.015625)"/>
       <path id="DejaVuSans-Oblique-79" d="M 1588 -325 
Q 1188 -997 936 -1164 
Q 684 -1331 294 -1331 
L -159 -1331 
L -63 -850 
L 269 -850 
Q 509 -850 678 -719 
Q 847 -588 1056 -206 
L 1234 128 
L 459 3500 
L 1069 3500 
L 1650 819 
L 3256 3500 
L 3859 3500 
L 1588 -325 
z
" transform="scale(0.015625)"/>
       <path id="DejaVuSans-50" d="M 1259 4147 
L 1259 2394 
L 2053 2394 
Q 2494 2394 2734 2622 
Q 2975 2850 2975 3272 
Q 2975 3691 2734 3919 
Q 2494 4147 2053 4147 
L 1259 4147 
z
M 628 4666 
L 2053 4666 
Q 2838 4666 3239 4311 
Q 3641 3956 3641 3272 
Q 3641 2581 3239 2228 
Q 2838 1875 2053 1875 
L 1259 1875 
L 1259 0 
L 628 0 
L 628 4666 
z
" transform="scale(0.015625)"/>
       <path id="DejaVuSans-6f" d="M 1959 3097 
Q 1497 3097 1228 2736 
Q 959 2375 959 1747 
Q 959 1119 1226 758 
Q 1494 397 1959 397 
Q 2419 397 2687 759 
Q 2956 1122 2956 1747 
Q 2956 2369 2687 2733 
Q 2419 3097 1959 3097 
z
M 1959 3584 
Q 2709 3584 3137 3096 
Q 3566 2609 3566 1747 
Q 3566 888 3137 398 
Q 2709 -91 1959 -91 
Q 1206 -91 779 398 
Q 353 888 353 1747 
Q 353 2609 779 3096 
Q 1206 3584 1959 3584 
z
" transform="scale(0.015625)"/>
       <path id="DejaVuSans-73" d="M 2834 3397 
L 2834 2853 
Q 2591 2978 2328 3040 
Q 2066 3103 1784 3103 
Q 1356 3103 1142 2972 
Q 928 2841 928 2578 
Q 928 2378 1081 2264 
Q 1234 2150 1697 2047 
L 1894 2003 
Q 2506 1872 2764 1633 
Q 3022 1394 3022 966 
Q 3022 478 2636 193 
Q 2250 -91 1575 -91 
Q 1294 -91 989 -36 
Q 684 19 347 128 
L 347 722 
Q 666 556 975 473 
Q 1284 391 1588 391 
Q 1994 391 2212 530 
Q 2431 669 2431 922 
Q 2431 1156 2273 1281 
Q 2116 1406 1581 1522 
L 1381 1569 
Q 847 1681 609 1914 
Q 372 2147 372 2553 
Q 372 3047 722 3315 
Q 1072 3584 1716 3584 
Q 2034 3584 2315 3537 
Q 2597 3491 2834 3397 
z
" transform="scale(0.015625)"/>
       <path id="DejaVuSans-69" d="M 603 3500 
L 1178 3500 
L 1178 0 
L 603 0 
L 603 3500 
z
M 603 4863 
L 1178 4863 
L 1178 4134 
L 603 4134 
L 603 4863 
z
" transform="scale(0.015625)"/>
       <path id="DejaVuSans-74" d="M 1172 4494 
L 1172 3500 
L 2356 3500 
L 2356 3053 
L 1172 3053 
L 1172 1153 
Q 1172 725 1289 603 
Q 1406 481 1766 481 
L 2356 481 
L 2356 0 
L 1766 0 
Q 1100 0 847 248 
Q 594 497 594 1153 
L 594 3053 
L 172 3053 
L 172 3500 
L 594 3500 
L 594 4494 
L 1172 4494 
z
" transform="scale(0.015625)"/>
       <path id="DejaVuSans-6e" d="M 3513 2113 
L 3513 0 
L 2938 0 
L 2938 2094 
Q 2938 2591 2744 2837 
Q 2550 3084 2163 3084 
Q 1697 3084 1428 2787 
Q 1159 2491 1159 1978 
L 1159 0 
L 581 0 
L 581 3500 
L 1159 3500 
L 1159 2956 
Q 1366 3272 1645 3428 
Q 1925 3584 2291 3584 
Q 2894 3584 3203 3211 
Q 3513 2838 3513 2113 
z
" transform="scale(0.015625)"/>
      </defs>
      <use xlink:href="#DejaVuSans-52" transform="translate(0 0.015625)"/>
      <use xlink:href="#DejaVuSans-65" transform="translate(69.482422 0.015625)"/>
      <use xlink:href="#DejaVuSans-61" transform="translate(131.005859 0.015625)"/>
      <use xlink:href="#DejaVuSans-6c" transform="translate(192.285156 0.015625)"/>
      <use xlink:href="#DejaVuSans-20" transform="translate(220.068359 0.015625)"/>
      <use xlink:href="#DejaVuSans-Oblique-79" transform="translate(251.855469 0.015625)"/>
      <use xlink:href="#DejaVuSans-20" transform="translate(311.035156 0.015625)"/>
      <use xlink:href="#DejaVuSans-50" transform="translate(342.822266 0.015625)"/>
      <use xlink:href="#DejaVuSans-6f" transform="translate(403.125 0.015625)"/>
      <use xlink:href="#DejaVuSans-73" transform="translate(464.306641 0.015625)"/>
      <use xlink:href="#DejaVuSans-69" transform="translate(516.40625 0.015625)"/>
      <use xlink:href="#DejaVuSans-74" transform="translate(544.189453 0.015625)"/>
      <use xlink:href="#DejaVuSans-69" transform="translate(583.398438 0.015625)"/>
      <use xlink:href="#DejaVuSans-6f" transform="translate(611.181641 0.015625)"/>
      <use xlink:href="#DejaVuSans-6e" transform="translate(672.363281 0.015625)"/>
     </g>
    </g>
    <g id="line2d_17">
     <path d="M 153 275.281875 
L 163 275.281875 
L 173 275.281875 
" style="fill: none; stroke: #0000ff; stroke-opacity: 0.5; stroke-width: 1.5; stroke-linecap: square"/>
    </g>
    <g id="text_15">
     <!-- Prediction $y$ -->
     <g transform="translate(181 278.781875) scale(0.1 -0.1)">
      <defs>
       <path id="DejaVuSans-72" d="M 2631 2963 
Q 2534 3019 2420 3045 
Q 2306 3072 2169 3072 
Q 1681 3072 1420 2755 
Q 1159 2438 1159 1844 
L 1159 0 
L 581 0 
L 581 3500 
L 1159 3500 
L 1159 2956 
Q 1341 3275 1631 3429 
Q 1922 3584 2338 3584 
Q 2397 3584 2469 3576 
Q 2541 3569 2628 3553 
L 2631 2963 
z
" transform="scale(0.015625)"/>
       <path id="DejaVuSans-64" d="M 2906 2969 
L 2906 4863 
L 3481 4863 
L 3481 0 
L 2906 0 
L 2906 525 
Q 2725 213 2448 61 
Q 2172 -91 1784 -91 
Q 1150 -91 751 415 
Q 353 922 353 1747 
Q 353 2572 751 3078 
Q 1150 3584 1784 3584 
Q 2172 3584 2448 3432 
Q 2725 3281 2906 2969 
z
M 947 1747 
Q 947 1113 1208 752 
Q 1469 391 1925 391 
Q 2381 391 2643 752 
Q 2906 1113 2906 1747 
Q 2906 2381 2643 2742 
Q 2381 3103 1925 3103 
Q 1469 3103 1208 2742 
Q 947 2381 947 1747 
z
" transform="scale(0.015625)"/>
       <path id="DejaVuSans-63" d="M 3122 3366 
L 3122 2828 
Q 2878 2963 2633 3030 
Q 2388 3097 2138 3097 
Q 1578 3097 1268 2742 
Q 959 2388 959 1747 
Q 959 1106 1268 751 
Q 1578 397 2138 397 
Q 2388 397 2633 464 
Q 2878 531 3122 666 
L 3122 134 
Q 2881 22 2623 -34 
Q 2366 -91 2075 -91 
Q 1284 -91 818 406 
Q 353 903 353 1747 
Q 353 2603 823 3093 
Q 1294 3584 2113 3584 
Q 2378 3584 2631 3529 
Q 2884 3475 3122 3366 
z
" transform="scale(0.015625)"/>
      </defs>
      <use xlink:href="#DejaVuSans-50" transform="translate(0 0.015625)"/>
      <use xlink:href="#DejaVuSans-72" transform="translate(60.302734 0.015625)"/>
      <use xlink:href="#DejaVuSans-65" transform="translate(101.416016 0.015625)"/>
      <use xlink:href="#DejaVuSans-64" transform="translate(162.939453 0.015625)"/>
      <use xlink:href="#DejaVuSans-69" transform="translate(226.416016 0.015625)"/>
      <use xlink:href="#DejaVuSans-63" transform="translate(254.199219 0.015625)"/>
      <use xlink:href="#DejaVuSans-74" transform="translate(309.179688 0.015625)"/>
      <use xlink:href="#DejaVuSans-69" transform="translate(348.388672 0.015625)"/>
      <use xlink:href="#DejaVuSans-6f" transform="translate(376.171875 0.015625)"/>
      <use xlink:href="#DejaVuSans-6e" transform="translate(437.353516 0.015625)"/>
      <use xlink:href="#DejaVuSans-20" transform="translate(500.732422 0.015625)"/>
      <use xlink:href="#DejaVuSans-Oblique-79" transform="translate(532.519531 0.015625)"/>
     </g>
    </g>
    <g id="patch_8">
     <path d="M 153 293.480313 
L 173 293.480313 
L 173 286.480313 
L 153 286.480313 
z
" style="fill: #00ffff; fill-opacity: 0.5; stroke: #00ffff; stroke-opacity: 0.5; stroke-linejoin: miter"/>
    </g>
    <g id="text_16">
     <!-- Confidence -->
     <g transform="translate(181 293.480313) scale(0.1 -0.1)">
      <defs>
       <path id="DejaVuSans-43" d="M 4122 4306 
L 4122 3641 
Q 3803 3938 3442 4084 
Q 3081 4231 2675 4231 
Q 1875 4231 1450 3742 
Q 1025 3253 1025 2328 
Q 1025 1406 1450 917 
Q 1875 428 2675 428 
Q 3081 428 3442 575 
Q 3803 722 4122 1019 
L 4122 359 
Q 3791 134 3420 21 
Q 3050 -91 2638 -91 
Q 1578 -91 968 557 
Q 359 1206 359 2328 
Q 359 3453 968 4101 
Q 1578 4750 2638 4750 
Q 3056 4750 3426 4639 
Q 3797 4528 4122 4306 
z
" transform="scale(0.015625)"/>
       <path id="DejaVuSans-66" d="M 2375 4863 
L 2375 4384 
L 1825 4384 
Q 1516 4384 1395 4259 
Q 1275 4134 1275 3809 
L 1275 3500 
L 2222 3500 
L 2222 3053 
L 1275 3053 
L 1275 0 
L 697 0 
L 697 3053 
L 147 3053 
L 147 3500 
L 697 3500 
L 697 3744 
Q 697 4328 969 4595 
Q 1241 4863 1831 4863 
L 2375 4863 
z
" transform="scale(0.015625)"/>
      </defs>
      <use xlink:href="#DejaVuSans-43"/>
      <use xlink:href="#DejaVuSans-6f" x="69.824219"/>
      <use xlink:href="#DejaVuSans-6e" x="131.005859"/>
      <use xlink:href="#DejaVuSans-66" x="194.384766"/>
      <use xlink:href="#DejaVuSans-69" x="229.589844"/>
      <use xlink:href="#DejaVuSans-64" x="257.373047"/>
      <use xlink:href="#DejaVuSans-65" x="320.849609"/>
      <use xlink:href="#DejaVuSans-6e" x="382.373047"/>
      <use xlink:href="#DejaVuSans-63" x="445.751953"/>
      <use xlink:href="#DejaVuSans-65" x="500.732422"/>
     </g>
    </g>
   </g>
  </g>
  <g id="axes_2">
   <g id="patch_9">
    <path d="M 144 576.72 
L 1036.8 576.72 
L 1036.8 349.92 
L 144 349.92 
z
" style="fill: #ffffff"/>
   </g>
   <g id="matplotlib.axis_3">
    <g id="xtick_7">
     <g id="line2d_18">
      <g>
       <use xlink:href="#m30f89b49e2" x="144" y="576.72" style="stroke: #000000; stroke-width: 0.8"/>
      </g>
     </g>
     <g id="text_17">
      <!-- 0 -->
      <g transform="translate(140.81875 591.318438) scale(0.1 -0.1)">
       <use xlink:href="#DejaVuSans-30"/>
      </g>
     </g>
    </g>
    <g id="xtick_8">
     <g id="line2d_19">
      <g>
       <use xlink:href="#m30f89b49e2" x="292.849617" y="576.72" style="stroke: #000000; stroke-width: 0.8"/>
      </g>
     </g>
     <g id="text_18">
      <!-- 5 -->
      <g transform="translate(289.668367 591.318438) scale(0.1 -0.1)">
       <use xlink:href="#DejaVuSans-35"/>
      </g>
     </g>
    </g>
    <g id="xtick_9">
     <g id="line2d_20">
      <g>
       <use xlink:href="#m30f89b49e2" x="441.699233" y="576.72" style="stroke: #000000; stroke-width: 0.8"/>
      </g>
     </g>
     <g id="text_19">
      <!-- 10 -->
      <g transform="translate(435.336733 591.318438) scale(0.1 -0.1)">
       <use xlink:href="#DejaVuSans-31"/>
       <use xlink:href="#DejaVuSans-30" x="63.623047"/>
      </g>
     </g>
    </g>
    <g id="xtick_10">
     <g id="line2d_21">
      <g>
       <use xlink:href="#m30f89b49e2" x="590.54885" y="576.72" style="stroke: #000000; stroke-width: 0.8"/>
      </g>
     </g>
     <g id="text_20">
      <!-- 15 -->
      <g transform="translate(584.18635 591.318438) scale(0.1 -0.1)">
       <use xlink:href="#DejaVuSans-31"/>
       <use xlink:href="#DejaVuSans-35" x="63.623047"/>
      </g>
     </g>
    </g>
    <g id="xtick_11">
     <g id="line2d_22">
      <g>
       <use xlink:href="#m30f89b49e2" x="739.398466" y="576.72" style="stroke: #000000; stroke-width: 0.8"/>
      </g>
     </g>
     <g id="text_21">
      <!-- 20 -->
      <g transform="translate(733.035966 591.318438) scale(0.1 -0.1)">
       <use xlink:href="#DejaVuSans-32"/>
       <use xlink:href="#DejaVuSans-30" x="63.623047"/>
      </g>
     </g>
    </g>
    <g id="xtick_12">
     <g id="line2d_23">
      <g>
       <use xlink:href="#m30f89b49e2" x="888.248083" y="576.72" style="stroke: #000000; stroke-width: 0.8"/>
      </g>
     </g>
     <g id="text_22">
      <!-- 25 -->
      <g transform="translate(881.885583 591.318438) scale(0.1 -0.1)">
       <use xlink:href="#DejaVuSans-32"/>
       <use xlink:href="#DejaVuSans-35" x="63.623047"/>
      </g>
     </g>
    </g>
   </g>
   <g id="matplotlib.axis_4">
    <g id="ytick_8">
     <g id="line2d_24">
      <g>
       <use xlink:href="#mf76d34e926" x="144" y="554.810201" style="stroke: #000000; stroke-width: 0.8"/>
      </g>
     </g>
     <g id="text_23">
      <!-- −0.04 -->
      <g transform="translate(106.354687 558.60942) scale(0.1 -0.1)">
       <defs>
        <path id="DejaVuSans-2212" d="M 678 2272 
L 4684 2272 
L 4684 1741 
L 678 1741 
L 678 2272 
z
" transform="scale(0.015625)"/>
        <path id="DejaVuSans-34" d="M 2419 4116 
L 825 1625 
L 2419 1625 
L 2419 4116 
z
M 2253 4666 
L 3047 4666 
L 3047 1625 
L 3713 1625 
L 3713 1100 
L 3047 1100 
L 3047 0 
L 2419 0 
L 2419 1100 
L 313 1100 
L 313 1709 
L 2253 4666 
z
" transform="scale(0.015625)"/>
       </defs>
       <use xlink:href="#DejaVuSans-2212"/>
       <use xlink:href="#DejaVuSans-30" x="83.789062"/>
       <use xlink:href="#DejaVuSans-2e" x="147.412109"/>
       <use xlink:href="#DejaVuSans-30" x="179.199219"/>
       <use xlink:href="#DejaVuSans-34" x="242.822266"/>
      </g>
     </g>
    </g>
    <g id="ytick_9">
     <g id="line2d_25">
      <g>
       <use xlink:href="#mf76d34e926" x="144" y="506.382981" style="stroke: #000000; stroke-width: 0.8"/>
      </g>
     </g>
     <g id="text_24">
      <!-- −0.02 -->
      <g transform="translate(106.354687 510.182199) scale(0.1 -0.1)">
       <use xlink:href="#DejaVuSans-2212"/>
       <use xlink:href="#DejaVuSans-30" x="83.789062"/>
       <use xlink:href="#DejaVuSans-2e" x="147.412109"/>
       <use xlink:href="#DejaVuSans-30" x="179.199219"/>
       <use xlink:href="#DejaVuSans-32" x="242.822266"/>
      </g>
     </g>
    </g>
    <g id="ytick_10">
     <g id="line2d_26">
      <g>
       <use xlink:href="#mf76d34e926" x="144" y="457.95576" style="stroke: #000000; stroke-width: 0.8"/>
      </g>
     </g>
     <g id="text_25">
      <!-- 0.00 -->
      <g transform="translate(114.734375 461.754979) scale(0.1 -0.1)">
       <use xlink:href="#DejaVuSans-30"/>
       <use xlink:href="#DejaVuSans-2e" x="63.623047"/>
       <use xlink:href="#DejaVuSans-30" x="95.410156"/>
       <use xlink:href="#DejaVuSans-30" x="159.033203"/>
      </g>
     </g>
    </g>
    <g id="ytick_11">
     <g id="line2d_27">
      <g>
       <use xlink:href="#mf76d34e926" x="144" y="409.528539" style="stroke: #000000; stroke-width: 0.8"/>
      </g>
     </g>
     <g id="text_26">
      <!-- 0.02 -->
      <g transform="translate(114.734375 413.327758) scale(0.1 -0.1)">
       <use xlink:href="#DejaVuSans-30"/>
       <use xlink:href="#DejaVuSans-2e" x="63.623047"/>
       <use xlink:href="#DejaVuSans-30" x="95.410156"/>
       <use xlink:href="#DejaVuSans-32" x="159.033203"/>
      </g>
     </g>
    </g>
    <g id="ytick_12">
     <g id="line2d_28">
      <g>
       <use xlink:href="#mf76d34e926" x="144" y="361.101319" style="stroke: #000000; stroke-width: 0.8"/>
      </g>
     </g>
     <g id="text_27">
      <!-- 0.04 -->
      <g transform="translate(114.734375 364.900537) scale(0.1 -0.1)">
       <use xlink:href="#DejaVuSans-30"/>
       <use xlink:href="#DejaVuSans-2e" x="63.623047"/>
       <use xlink:href="#DejaVuSans-30" x="95.410156"/>
       <use xlink:href="#DejaVuSans-34" x="159.033203"/>
      </g>
     </g>
    </g>
   </g>
   <g id="line2d_29">
    <path d="M 144 450.020513 
L 173.769923 467.067496 
L 203.539847 462.396688 
L 233.30977 454.883566 
L 263.079693 447.149311 
L 292.849617 440.685839 
L 322.61954 435.073389 
L 352.389463 430.458875 
L 382.159386 426.749986 
L 411.92931 423.328592 
L 471.469156 418.077858 
L 501.23908 415.610511 
L 531.009003 413.814457 
L 560.778926 412.315817 
L 590.54885 411.019269 
L 620.318773 410.204053 
L 650.088696 409.231729 
L 679.85862 408.542769 
L 709.628543 407.628788 
L 739.398466 407.142212 
L 769.168389 407.190496 
L 798.938313 406.70165 
L 828.708236 406.534135 
L 858.478159 406.844528 
L 888.248083 406.68797 
L 918.018006 406.926507 
L 947.787929 407.385298 
L 977.557853 407.597464 
L 1007.327776 408.054347 
L 1037.097699 408.342261 
L 1066.867623 408.741552 
L 1096.637546 408.895066 
L 1153 409.494741 
L 1153 409.494741 
" clip-path="url(#p8db0fb8be0)" style="fill: none; stroke: #1f77b4; stroke-width: 1.5; stroke-linecap: square"/>
   </g>
   <g id="patch_10">
    <path d="M 144 576.72 
L 144 349.92 
" style="fill: none; stroke: #000000; stroke-width: 0.8; stroke-linejoin: miter; stroke-linecap: square"/>
   </g>
   <g id="patch_11">
    <path d="M 1036.8 576.72 
L 1036.8 349.92 
" style="fill: none; stroke: #000000; stroke-width: 0.8; stroke-linejoin: miter; stroke-linecap: square"/>
   </g>
   <g id="patch_12">
    <path d="M 144 576.72 
L 1036.8 576.72 
" style="fill: none; stroke: #000000; stroke-width: 0.8; stroke-linejoin: miter; stroke-linecap: square"/>
   </g>
   <g id="patch_13">
    <path d="M 144 349.92 
L 1036.8 349.92 
" style="fill: none; stroke: #000000; stroke-width: 0.8; stroke-linejoin: miter; stroke-linecap: square"/>
   </g>
   <g id="legend_2">
    <g id="patch_14">
     <path d="M 920.578125 372.598125 
L 1029.8 372.598125 
Q 1031.8 372.598125 1031.8 370.598125 
L 1031.8 356.92 
Q 1031.8 354.92 1029.8 354.92 
L 920.578125 354.92 
Q 918.578125 354.92 918.578125 356.92 
L 918.578125 370.598125 
Q 918.578125 372.598125 920.578125 372.598125 
z
" style="fill: #ffffff; opacity: 0.8; stroke: #cccccc; stroke-linejoin: miter"/>
    </g>
    <g id="line2d_30">
     <path d="M 922.578125 363.018437 
L 932.578125 363.018437 
L 942.578125 363.018437 
" style="fill: none; stroke: #1f77b4; stroke-width: 1.5; stroke-linecap: square"/>
    </g>
    <g id="text_28">
     <!-- Prediction Error -->
     <g transform="translate(950.578125 366.518437) scale(0.1 -0.1)">
      <defs>
       <path id="DejaVuSans-45" d="M 628 4666 
L 3578 4666 
L 3578 4134 
L 1259 4134 
L 1259 2753 
L 3481 2753 
L 3481 2222 
L 1259 2222 
L 1259 531 
L 3634 531 
L 3634 0 
L 628 0 
L 628 4666 
z
" transform="scale(0.015625)"/>
      </defs>
      <use xlink:href="#DejaVuSans-50"/>
      <use xlink:href="#DejaVuSans-72" x="58.552734"/>
      <use xlink:href="#DejaVuSans-65" x="97.416016"/>
      <use xlink:href="#DejaVuSans-64" x="158.939453"/>
      <use xlink:href="#DejaVuSans-69" x="222.416016"/>
      <use xlink:href="#DejaVuSans-63" x="250.199219"/>
      <use xlink:href="#DejaVuSans-74" x="305.179688"/>
      <use xlink:href="#DejaVuSans-69" x="344.388672"/>
      <use xlink:href="#DejaVuSans-6f" x="372.171875"/>
      <use xlink:href="#DejaVuSans-6e" x="433.353516"/>
      <use xlink:href="#DejaVuSans-20" x="496.732422"/>
      <use xlink:href="#DejaVuSans-45" x="528.519531"/>
      <use xlink:href="#DejaVuSans-72" x="591.703125"/>
      <use xlink:href="#DejaVuSans-72" x="631.066406"/>
      <use xlink:href="#DejaVuSans-6f" x="669.929688"/>
      <use xlink:href="#DejaVuSans-72" x="731.111328"/>
     </g>
    </g>
   </g>
  </g>
  <g id="text_29">
   <!-- $y$-Position Prediction -->
   <g transform="translate(514.74 22.08) scale(0.12 -0.12)">
    <defs>
     <path id="DejaVuSans-2d" d="M 313 2009 
L 1997 2009 
L 1997 1497 
L 313 1497 
L 313 2009 
z
" transform="scale(0.015625)"/>
    </defs>
    <use xlink:href="#DejaVuSans-Oblique-79" transform="translate(0 0.015625)"/>
    <use xlink:href="#DejaVuSans-2d" transform="translate(59.179688 0.015625)"/>
    <use xlink:href="#DejaVuSans-50" transform="translate(95.263672 0.015625)"/>
    <use xlink:href="#DejaVuSans-6f" transform="translate(155.566406 0.015625)"/>
    <use xlink:href="#DejaVuSans-73" transform="translate(216.748047 0.015625)"/>
    <use xlink:href="#DejaVuSans-69" transform="translate(268.847656 0.015625)"/>
    <use xlink:href="#DejaVuSans-74" transform="translate(296.630859 0.015625)"/>
    <use xlink:href="#DejaVuSans-69" transform="translate(335.839844 0.015625)"/>
    <use xlink:href="#DejaVuSans-6f" transform="translate(363.623047 0.015625)"/>
    <use xlink:href="#DejaVuSans-6e" transform="translate(424.804688 0.015625)"/>
    <use xlink:href="#DejaVuSans-20" transform="translate(488.183594 0.015625)"/>
    <use xlink:href="#DejaVuSans-50" transform="translate(519.970703 0.015625)"/>
    <use xlink:href="#DejaVuSans-72" transform="translate(580.273438 0.015625)"/>
    <use xlink:href="#DejaVuSans-65" transform="translate(621.386719 0.015625)"/>
    <use xlink:href="#DejaVuSans-64" transform="translate(682.910156 0.015625)"/>
    <use xlink:href="#DejaVuSans-69" transform="translate(746.386719 0.015625)"/>
    <use xlink:href="#DejaVuSans-63" transform="translate(774.169922 0.015625)"/>
    <use xlink:href="#DejaVuSans-74" transform="translate(829.150391 0.015625)"/>
    <use xlink:href="#DejaVuSans-69" transform="translate(868.359375 0.015625)"/>
    <use xlink:href="#DejaVuSans-6f" transform="translate(896.142578 0.015625)"/>
    <use xlink:href="#DejaVuSans-6e" transform="translate(957.324219 0.015625)"/>
   </g>
  </g>
 </g>
 <defs>
  <clipPath id="p33fdc9a21f">
   <rect x="144" y="77.76" width="892.8" height="226.8"/>
  </clipPath>
  <clipPath id="p8db0fb8be0">
   <rect x="144" y="349.92" width="892.8" height="226.8"/>
  </clipPath>
 </defs>
</svg>
