<?xml version="1.0" encoding="utf-8" standalone="no"?>
<!DOCTYPE svg PUBLIC "-//W3C//DTD SVG 1.1//EN"
  "http://www.w3.org/Graphics/SVG/1.1/DTD/svg11.dtd">
<svg xmlns:xlink="http://www.w3.org/1999/xlink" width="1152pt" height="648pt" viewBox="0 0 1152 648" xmlns="http://www.w3.org/2000/svg" version="1.1">
 <metadata>
  <rdf:RDF xmlns:dc="http://purl.org/dc/elements/1.1/" xmlns:cc="http://creativecommons.org/ns#" xmlns:rdf="http://www.w3.org/1999/02/22-rdf-syntax-ns#">
   <cc:Work>
    <dc:type rdf:resource="http://purl.org/dc/dcmitype/StillImage"/>
    <dc:date>2024-06-20T12:47:17.429518</dc:date>
    <dc:format>image/svg+xml</dc:format>
    <dc:creator>
     <cc:Agent>
      <dc:title>Matplotlib v3.9.0, https://matplotlib.org/</dc:title>
     </cc:Agent>
    </dc:creator>
   </cc:Work>
  </rdf:RDF>
 </metadata>
 <defs>
  <style type="text/css">*{stroke-linejoin: round; stroke-linecap: butt}</style>
 </defs>
 <g id="figure_1">
  <g id="patch_1">
   <path d="M 0 648 
L 1152 648 
L 1152 0 
L 0 0 
z
" style="fill: #ffffff"/>
  </g>
  <g id="axes_1">
   <g id="patch_2">
    <path d="M 144 304.56 
L 1036.8 304.56 
L 1036.8 77.76 
L 144 77.76 
z
" style="fill: #ffffff"/>
   </g>
   <g id="PolyCollection_1">
    <defs>
     <path id="m8594734c0a" d="M 292.849617 -536.975723 
L 292.849617 -518.50264 
L 295.826609 -521.303593 
L 298.803601 -523.876475 
L 301.780594 -526.176868 
L 304.757586 -528.195031 
L 307.734578 -529.933478 
L 310.711571 -531.433994 
L 313.688563 -532.724347 
L 316.665555 -533.777197 
L 319.642548 -534.603249 
L 322.61954 -535.183132 
L 325.596532 -535.558333 
L 328.573525 -535.73309 
L 331.550517 -535.730138 
L 334.527509 -535.51909 
L 337.504502 -535.113813 
L 340.481494 -534.540535 
L 343.458486 -533.825588 
L 346.435478 -532.940374 
L 349.412471 -531.87741 
L 352.389463 -530.665895 
L 355.366455 -529.283426 
L 358.343448 -527.779164 
L 361.32044 -526.13505 
L 364.297432 -524.349833 
L 367.274425 -522.438829 
L 370.251417 -520.405412 
L 373.228409 -518.247761 
L 376.205402 -515.975305 
L 379.182394 -513.576585 
L 382.159386 -511.048649 
L 385.136379 -508.393328 
L 388.113371 -505.632109 
L 391.090363 -502.76145 
L 394.067356 -499.803669 
L 397.044348 -496.735397 
L 400.02134 -493.576209 
L 402.998333 -490.359303 
L 405.975325 -487.032573 
L 408.952317 -483.651022 
L 411.92931 -480.168693 
L 414.906302 -476.626566 
L 417.883294 -473.004358 
L 420.860287 -469.33195 
L 423.837279 -465.594526 
L 426.814271 -461.808516 
L 429.791264 -457.939648 
L 432.768256 -454.032582 
L 435.745248 -450.061054 
L 438.722241 -446.064617 
L 441.699233 -442.01559 
L 444.676225 -437.957075 
L 447.653218 -433.923017 
L 450.63021 -429.93732 
L 453.607202 -425.985182 
L 456.584195 -422.049823 
L 459.561187 -418.136947 
L 462.538179 -414.267736 
L 465.515172 -410.413417 
L 468.492164 -406.578169 
L 471.469156 -402.790206 
L 474.446149 -399.079202 
L 477.423141 -395.414666 
L 480.400133 -391.817007 
L 483.377126 -388.291884 
L 486.354118 -384.850201 
L 489.33111 -381.530588 
L 492.308103 -378.309816 
L 495.285095 -375.197847 
L 498.262087 -372.20894 
L 501.23908 -369.388889 
L 504.216072 -366.748749 
L 507.193064 -364.27503 
L 510.170057 -361.98137 
L 513.147049 -359.935487 
L 516.124041 -358.138548 
L 519.101034 -356.629153 
L 522.078026 -355.401427 
L 525.055018 -354.47601 
L 528.032011 -353.927272 
L 531.009003 -353.749091 
L 533.985995 -353.978879 
L 536.962988 -354.635085 
L 539.93998 -355.755513 
L 542.916972 -357.361109 
L 545.893965 -359.475224 
L 548.870957 -362.092661 
L 551.847949 -365.245453 
L 554.824942 -368.993358 
L 557.801934 -373.277935 
L 560.778926 -378.098453 
L 563.755919 -383.462483 
L 566.732911 -389.357335 
L 569.709903 -395.739003 
L 572.686896 -402.539403 
L 575.663888 -409.759339 
L 578.64088 -417.339131 
L 581.617873 -425.199082 
L 584.594865 -433.261073 
L 587.571857 -441.44733 
L 590.54885 -449.678333 
L 593.525842 -457.844157 
L 596.502834 -465.878419 
L 599.479827 -473.707725 
L 602.456819 -481.263013 
L 605.433811 -488.471935 
L 608.410804 -495.273855 
L 611.387796 -501.625526 
L 614.364788 -507.468273 
L 617.341781 -512.790461 
L 620.318773 -517.564954 
L 623.295765 -521.766841 
L 626.272758 -525.392466 
L 629.24975 -528.442215 
L 632.226742 -530.933313 
L 635.203735 -532.896256 
L 638.180727 -534.315018 
L 641.157719 -535.290137 
L 644.134712 -535.804149 
L 647.111704 -535.888811 
L 650.088696 -535.546927 
L 653.065689 -534.848289 
L 656.042681 -533.791128 
L 659.019673 -532.379493 
L 661.996666 -530.698004 
L 664.973658 -528.757992 
L 667.95065 -526.593245 
L 670.927643 -524.193568 
L 673.904635 -521.575802 
L 676.881627 -518.778456 
L 679.85862 -515.850924 
L 682.835612 -512.768127 
L 685.812604 -509.562936 
L 688.789597 -506.267592 
L 691.766589 -502.874088 
L 694.743581 -499.374859 
L 697.720574 -495.819546 
L 700.697566 -492.18719 
L 703.674558 -488.503719 
L 706.651551 -484.744199 
L 709.628543 -480.942811 
L 712.605535 -477.108626 
L 715.582528 -473.262176 
L 718.55952 -469.371585 
L 721.536512 -465.448331 
L 724.513505 -461.523449 
L 727.490497 -457.58402 
L 730.467489 -453.605198 
L 733.444481 -449.608129 
L 736.421474 -445.600945 
L 739.398466 -441.604118 
L 742.375458 -437.628514 
L 745.352451 -433.730773 
L 748.329443 -429.890896 
L 751.306435 -426.132555 
L 754.283428 -422.44502 
L 757.26042 -418.824357 
L 760.237412 -415.266886 
L 763.214405 -411.775383 
L 766.191397 -408.351805 
L 769.168389 -404.99486 
L 772.145382 -401.726313 
L 775.122374 -398.53104 
L 778.099366 -395.432489 
L 781.076359 -392.418979 
L 784.053351 -389.501417 
L 787.030343 -386.665515 
L 790.007336 -383.927835 
L 792.984328 -381.299489 
L 795.96132 -378.79653 
L 798.938313 -376.397948 
L 801.915305 -374.105061 
L 804.892297 -371.93951 
L 807.86929 -369.887212 
L 810.846282 -367.960518 
L 813.823274 -366.176051 
L 816.800267 -364.526426 
L 819.777259 -363.025043 
L 822.754251 -361.666389 
L 825.731244 -360.453669 
L 828.708236 -359.371208 
L 831.685228 -358.446604 
L 834.662221 -357.664049 
L 837.639213 -357.048649 
L 840.616205 -356.583979 
L 843.593198 -356.292328 
L 846.57019 -356.160459 
L 849.547182 -356.188623 
L 852.524175 -356.370791 
L 855.501167 -356.709346 
L 858.478159 -357.207428 
L 861.455152 -357.865261 
L 864.432144 -358.656825 
L 867.409136 -359.603563 
L 870.386129 -360.684113 
L 873.363121 -361.915954 
L 876.340113 -363.268864 
L 879.317106 -364.746185 
L 882.294098 -366.344886 
L 885.27109 -368.048517 
L 888.248083 -369.865262 
L 891.225075 -371.768293 
L 894.202067 -373.771371 
L 897.17906 -375.839291 
L 900.156052 -377.983703 
L 903.133044 -380.20011 
L 906.110037 -382.466332 
L 909.087029 -384.770637 
L 912.064021 -387.121102 
L 915.041014 -389.494621 
L 918.018006 -391.891745 
L 920.994998 -394.31222 
L 923.971991 -396.753774 
L 926.948983 -399.178368 
L 929.925975 -401.597131 
L 932.902968 -403.994021 
L 935.87996 -406.37987 
L 938.856952 -408.728136 
L 941.833945 -411.049437 
L 944.810937 -413.33801 
L 947.787929 -415.592653 
L 950.764922 -417.778801 
L 953.741914 -419.931913 
L 956.718906 -422.023399 
L 959.695899 -424.05883 
L 962.672891 -426.030788 
L 965.649883 -427.921867 
L 968.626876 -429.762739 
L 971.603868 -431.533001 
L 974.58086 -433.237866 
L 977.557853 -434.86134 
L 980.534845 -436.421659 
L 983.511837 -437.907827 
L 986.48883 -439.316366 
L 989.465822 -440.648243 
L 992.442814 -441.891352 
L 995.419807 -443.06392 
L 998.396799 -444.161292 
L 1001.373791 -445.188604 
L 1004.350784 -446.122315 
L 1007.327776 -447.000574 
L 1010.304768 -447.789634 
L 1013.281761 -448.510283 
L 1016.258753 -449.139918 
L 1019.235745 -449.691743 
L 1022.212738 -450.191146 
L 1025.18973 -450.594575 
L 1028.166722 -450.92671 
L 1031.143715 -451.182957 
L 1034.120707 -451.360364 
L 1034.120707 -461.387302 
L 1034.120707 -461.387302 
L 1031.143715 -461.481415 
L 1028.166722 -461.490076 
L 1025.18973 -461.417021 
L 1022.212738 -461.265495 
L 1019.235745 -461.012874 
L 1016.258753 -460.706559 
L 1013.281761 -460.314982 
L 1010.304768 -459.82707 
L 1007.327776 -459.26759 
L 1004.350784 -458.618336 
L 1001.373791 -457.909386 
L 998.396799 -457.103195 
L 995.419807 -456.226753 
L 992.442814 -455.275055 
L 989.465822 -454.249069 
L 986.48883 -453.127681 
L 983.511837 -451.926543 
L 980.534845 -450.644194 
L 977.557853 -449.287638 
L 974.58086 -447.864938 
L 971.603868 -446.357258 
L 968.626876 -444.783936 
L 965.649883 -443.139387 
L 962.672891 -441.440767 
L 959.695899 -439.652604 
L 956.718906 -437.796725 
L 953.741914 -435.878857 
L 950.764922 -433.898404 
L 947.787929 -431.880849 
L 944.810937 -429.784536 
L 941.833945 -427.655332 
L 938.856952 -425.494947 
L 935.87996 -423.300796 
L 932.902968 -421.064869 
L 929.925975 -418.812072 
L 926.948983 -416.53026 
L 923.971991 -414.230252 
L 920.994998 -411.908991 
L 918.018006 -409.615613 
L 915.041014 -407.342005 
L 912.064021 -405.086225 
L 909.087029 -402.85158 
L 906.110037 -400.656682 
L 903.133044 -398.490245 
L 900.156052 -396.372781 
L 897.17906 -394.327625 
L 894.202067 -392.34956 
L 891.225075 -390.429197 
L 888.248083 -388.606658 
L 885.27109 -386.864193 
L 882.294098 -385.232183 
L 879.317106 -383.700293 
L 876.340113 -382.285317 
L 873.363121 -380.988627 
L 870.386129 -379.808298 
L 867.409136 -378.781033 
L 864.432144 -377.882529 
L 861.455152 -377.136426 
L 858.478159 -376.514801 
L 855.501167 -376.055602 
L 852.524175 -375.754176 
L 849.547182 -375.605046 
L 846.57019 -375.606437 
L 843.593198 -375.765523 
L 840.616205 -376.085401 
L 837.639213 -376.57976 
L 834.662221 -377.224562 
L 831.685228 -378.034737 
L 828.708236 -378.985009 
L 825.731244 -380.090537 
L 822.754251 -381.322897 
L 819.777259 -382.699268 
L 816.800267 -384.22124 
L 813.823274 -385.892798 
L 810.846282 -387.700079 
L 807.86929 -389.652641 
L 804.892297 -391.72978 
L 801.915305 -393.921079 
L 798.938313 -396.242989 
L 795.96132 -398.670128 
L 792.984328 -401.204052 
L 790.007336 -403.86902 
L 787.030343 -406.648053 
L 784.053351 -409.528016 
L 781.076359 -412.492855 
L 778.099366 -415.557602 
L 775.122374 -418.712341 
L 772.145382 -421.968707 
L 769.168389 -425.303089 
L 766.191397 -428.73145 
L 763.214405 -432.231687 
L 760.237412 -435.805241 
L 757.26042 -439.44863 
L 754.283428 -443.157077 
L 751.306435 -446.930247 
L 748.329443 -450.766109 
L 745.352451 -454.67101 
L 742.375458 -458.613521 
L 739.398466 -462.621266 
L 736.421474 -466.653419 
L 733.444481 -470.700719 
L 730.467489 -474.744928 
L 727.490497 -478.782136 
L 724.513505 -482.787203 
L 721.536512 -486.77889 
L 718.55952 -490.774465 
L 715.582528 -494.743381 
L 712.605535 -498.670547 
L 709.628543 -502.584164 
L 706.651551 -506.466671 
L 703.674558 -510.310999 
L 700.697566 -514.081741 
L 697.720574 -517.802727 
L 694.743581 -521.445872 
L 691.766589 -525.035449 
L 688.789597 -528.518837 
L 685.812604 -531.901658 
L 682.835612 -535.196127 
L 679.85862 -538.369297 
L 676.881627 -541.387055 
L 673.904635 -544.282927 
L 670.927643 -547.006718 
L 667.95065 -549.516305 
L 664.973658 -551.797568 
L 661.996666 -553.863222 
L 659.019673 -555.686589 
L 656.042681 -557.252499 
L 653.065689 -558.463143 
L 650.088696 -559.326477 
L 647.111704 -559.843195 
L 644.134712 -559.930909 
L 641.157719 -559.580597 
L 638.180727 -558.785168 
L 635.203735 -557.558297 
L 632.226742 -555.771418 
L 629.24975 -553.468179 
L 626.272758 -550.594345 
L 623.295765 -547.132654 
L 620.318773 -543.089232 
L 617.341781 -538.441615 
L 614.364788 -533.235748 
L 611.387796 -527.486154 
L 608.410804 -521.219118 
L 605.433811 -514.484403 
L 602.456819 -507.330274 
L 599.479827 -499.82145 
L 596.502834 -492.034233 
L 593.525842 -484.01115 
L 590.54885 -475.803115 
L 587.571857 -467.494612 
L 584.594865 -459.211406 
L 581.617873 -451.027199 
L 578.64088 -443.029469 
L 575.663888 -435.305903 
L 572.686896 -427.942998 
L 569.709903 -420.982894 
L 566.732911 -414.433922 
L 563.755919 -408.371468 
L 560.778926 -402.83578 
L 557.801934 -397.837138 
L 554.824942 -393.379591 
L 551.847949 -389.464113 
L 548.870957 -386.132962 
L 545.893965 -383.338712 
L 542.916972 -381.052328 
L 539.93998 -379.276104 
L 536.962988 -377.984984 
L 533.985995 -377.158791 
L 531.009003 -376.764004 
L 528.032011 -376.783073 
L 525.055018 -377.172482 
L 522.078026 -377.93902 
L 519.101034 -379.022527 
L 516.124041 -380.396772 
L 513.147049 -382.060053 
L 510.170057 -383.973937 
L 507.193064 -386.135307 
L 504.216072 -388.495663 
L 501.23908 -391.035065 
L 498.262087 -393.752541 
L 495.285095 -396.640531 
L 492.308103 -399.663281 
L 489.33111 -402.810576 
L 486.354118 -406.065231 
L 483.377126 -409.437865 
L 480.400133 -412.905119 
L 477.423141 -416.453133 
L 474.446149 -420.077002 
L 471.469156 -423.755255 
L 468.492164 -427.506767 
L 465.515172 -431.312313 
L 462.538179 -435.153329 
L 459.561187 -439.017425 
L 456.584195 -442.921891 
L 453.607202 -446.854859 
L 450.63021 -450.800304 
L 447.653218 -454.764432 
L 444.676225 -458.750184 
L 441.699233 -462.747855 
L 438.722241 -466.742353 
L 435.745248 -470.689278 
L 432.768256 -474.61011 
L 429.791264 -478.473197 
L 426.814271 -482.303026 
L 423.837279 -486.06279 
L 420.860287 -489.771098 
L 417.883294 -493.414382 
L 414.906302 -497.006649 
L 411.92931 -500.517096 
L 408.952317 -503.973999 
L 405.975325 -507.329637 
L 402.998333 -510.63181 
L 400.02134 -513.825802 
L 397.044348 -516.953841 
L 394.067356 -519.997358 
L 391.090363 -522.932492 
L 388.113371 -525.779038 
L 385.136379 -528.520172 
L 382.159386 -531.159738 
L 379.182394 -533.682625 
L 376.205402 -536.08555 
L 373.228409 -538.364119 
L 370.251417 -540.527269 
L 367.274425 -542.562631 
L 364.297432 -544.468975 
L 361.32044 -546.244733 
L 358.343448 -547.871335 
L 355.366455 -549.345576 
L 352.389463 -550.681583 
L 349.412471 -551.839531 
L 346.435478 -552.837945 
L 343.458486 -553.656018 
L 340.481494 -554.290525 
L 337.504502 -554.769821 
L 334.527509 -555.079254 
L 331.550517 -555.204284 
L 328.573525 -555.135716 
L 325.596532 -554.901261 
L 322.61954 -554.485942 
L 319.642548 -553.891627 
L 316.665555 -553.07341 
L 313.688563 -552.040958 
L 310.711571 -550.77083 
L 307.734578 -549.268976 
L 304.757586 -547.486395 
L 301.780594 -545.360517 
L 298.803601 -542.874043 
L 295.826609 -540.014965 
L 292.849617 -536.975723 
z
" style="stroke: #00ffff; stroke-opacity: 0.5"/>
    </defs>
    <g clip-path="url(#p3af66977ef)">
     <use xlink:href="#m8594734c0a" x="0" y="648" style="fill: #00ffff; fill-opacity: 0.5; stroke: #00ffff; stroke-opacity: 0.5"/>
    </g>
   </g>
   <g id="matplotlib.axis_1">
    <g id="xtick_1">
     <g id="line2d_1">
      <defs>
       <path id="mee1c1fbe9c" d="M 0 0 
L 0 3.5 
" style="stroke: #000000; stroke-width: 0.8"/>
      </defs>
      <g>
       <use xlink:href="#mee1c1fbe9c" x="144" y="304.56" style="stroke: #000000; stroke-width: 0.8"/>
      </g>
     </g>
     <g id="text_1">
      <!-- 0 -->
      <g transform="translate(140.81875 319.158437) scale(0.1 -0.1)">
       <defs>
        <path id="DejaVuSans-30" d="M 2034 4250 
Q 1547 4250 1301 3770 
Q 1056 3291 1056 2328 
Q 1056 1369 1301 889 
Q 1547 409 2034 409 
Q 2525 409 2770 889 
Q 3016 1369 3016 2328 
Q 3016 3291 2770 3770 
Q 2525 4250 2034 4250 
z
M 2034 4750 
Q 2819 4750 3233 4129 
Q 3647 3509 3647 2328 
Q 3647 1150 3233 529 
Q 2819 -91 2034 -91 
Q 1250 -91 836 529 
Q 422 1150 422 2328 
Q 422 3509 836 4129 
Q 1250 4750 2034 4750 
z
" transform="scale(0.015625)"/>
       </defs>
       <use xlink:href="#DejaVuSans-30"/>
      </g>
     </g>
    </g>
    <g id="xtick_2">
     <g id="line2d_2">
      <g>
       <use xlink:href="#mee1c1fbe9c" x="292.849617" y="304.56" style="stroke: #000000; stroke-width: 0.8"/>
      </g>
     </g>
     <g id="text_2">
      <!-- 5 -->
      <g transform="translate(289.668367 319.158437) scale(0.1 -0.1)">
       <defs>
        <path id="DejaVuSans-35" d="M 691 4666 
L 3169 4666 
L 3169 4134 
L 1269 4134 
L 1269 2991 
Q 1406 3038 1543 3061 
Q 1681 3084 1819 3084 
Q 2600 3084 3056 2656 
Q 3513 2228 3513 1497 
Q 3513 744 3044 326 
Q 2575 -91 1722 -91 
Q 1428 -91 1123 -41 
Q 819 9 494 109 
L 494 744 
Q 775 591 1075 516 
Q 1375 441 1709 441 
Q 2250 441 2565 725 
Q 2881 1009 2881 1497 
Q 2881 1984 2565 2268 
Q 2250 2553 1709 2553 
Q 1456 2553 1204 2497 
Q 953 2441 691 2322 
L 691 4666 
z
" transform="scale(0.015625)"/>
       </defs>
       <use xlink:href="#DejaVuSans-35"/>
      </g>
     </g>
    </g>
    <g id="xtick_3">
     <g id="line2d_3">
      <g>
       <use xlink:href="#mee1c1fbe9c" x="441.699233" y="304.56" style="stroke: #000000; stroke-width: 0.8"/>
      </g>
     </g>
     <g id="text_3">
      <!-- 10 -->
      <g transform="translate(435.336733 319.158437) scale(0.1 -0.1)">
       <defs>
        <path id="DejaVuSans-31" d="M 794 531 
L 1825 531 
L 1825 4091 
L 703 3866 
L 703 4441 
L 1819 4666 
L 2450 4666 
L 2450 531 
L 3481 531 
L 3481 0 
L 794 0 
L 794 531 
z
" transform="scale(0.015625)"/>
       </defs>
       <use xlink:href="#DejaVuSans-31"/>
       <use xlink:href="#DejaVuSans-30" x="63.623047"/>
      </g>
     </g>
    </g>
    <g id="xtick_4">
     <g id="line2d_4">
      <g>
       <use xlink:href="#mee1c1fbe9c" x="590.54885" y="304.56" style="stroke: #000000; stroke-width: 0.8"/>
      </g>
     </g>
     <g id="text_4">
      <!-- 15 -->
      <g transform="translate(584.18635 319.158437) scale(0.1 -0.1)">
       <use xlink:href="#DejaVuSans-31"/>
       <use xlink:href="#DejaVuSans-35" x="63.623047"/>
      </g>
     </g>
    </g>
    <g id="xtick_5">
     <g id="line2d_5">
      <g>
       <use xlink:href="#mee1c1fbe9c" x="739.398466" y="304.56" style="stroke: #000000; stroke-width: 0.8"/>
      </g>
     </g>
     <g id="text_5">
      <!-- 20 -->
      <g transform="translate(733.035966 319.158437) scale(0.1 -0.1)">
       <defs>
        <path id="DejaVuSans-32" d="M 1228 531 
L 3431 531 
L 3431 0 
L 469 0 
L 469 531 
Q 828 903 1448 1529 
Q 2069 2156 2228 2338 
Q 2531 2678 2651 2914 
Q 2772 3150 2772 3378 
Q 2772 3750 2511 3984 
Q 2250 4219 1831 4219 
Q 1534 4219 1204 4116 
Q 875 4013 500 3803 
L 500 4441 
Q 881 4594 1212 4672 
Q 1544 4750 1819 4750 
Q 2544 4750 2975 4387 
Q 3406 4025 3406 3419 
Q 3406 3131 3298 2873 
Q 3191 2616 2906 2266 
Q 2828 2175 2409 1742 
Q 1991 1309 1228 531 
z
" transform="scale(0.015625)"/>
       </defs>
       <use xlink:href="#DejaVuSans-32"/>
       <use xlink:href="#DejaVuSans-30" x="63.623047"/>
      </g>
     </g>
    </g>
    <g id="xtick_6">
     <g id="line2d_6">
      <g>
       <use xlink:href="#mee1c1fbe9c" x="888.248083" y="304.56" style="stroke: #000000; stroke-width: 0.8"/>
      </g>
     </g>
     <g id="text_6">
      <!-- 25 -->
      <g transform="translate(881.885583 319.158437) scale(0.1 -0.1)">
       <use xlink:href="#DejaVuSans-32"/>
       <use xlink:href="#DejaVuSans-35" x="63.623047"/>
      </g>
     </g>
    </g>
   </g>
   <g id="matplotlib.axis_2">
    <g id="ytick_1">
     <g id="line2d_7">
      <defs>
       <path id="m743489b7fe" d="M 0 0 
L -3.5 0 
" style="stroke: #000000; stroke-width: 0.8"/>
      </defs>
      <g>
       <use xlink:href="#m743489b7fe" x="144" y="293.405636" style="stroke: #000000; stroke-width: 0.8"/>
      </g>
     </g>
     <g id="text_7">
      <!-- 1.4 -->
      <g transform="translate(121.096875 297.204855) scale(0.1 -0.1)">
       <defs>
        <path id="DejaVuSans-2e" d="M 684 794 
L 1344 794 
L 1344 0 
L 684 0 
L 684 794 
z
" transform="scale(0.015625)"/>
        <path id="DejaVuSans-34" d="M 2419 4116 
L 825 1625 
L 2419 1625 
L 2419 4116 
z
M 2253 4666 
L 3047 4666 
L 3047 1625 
L 3713 1625 
L 3713 1100 
L 3047 1100 
L 3047 0 
L 2419 0 
L 2419 1100 
L 313 1100 
L 313 1709 
L 2253 4666 
z
" transform="scale(0.015625)"/>
       </defs>
       <use xlink:href="#DejaVuSans-31"/>
       <use xlink:href="#DejaVuSans-2e" x="63.623047"/>
       <use xlink:href="#DejaVuSans-34" x="95.410156"/>
      </g>
     </g>
    </g>
    <g id="ytick_2">
     <g id="line2d_8">
      <g>
       <use xlink:href="#m743489b7fe" x="144" y="259.824125" style="stroke: #000000; stroke-width: 0.8"/>
      </g>
     </g>
     <g id="text_8">
      <!-- 1.6 -->
      <g transform="translate(121.096875 263.623344) scale(0.1 -0.1)">
       <defs>
        <path id="DejaVuSans-36" d="M 2113 2584 
Q 1688 2584 1439 2293 
Q 1191 2003 1191 1497 
Q 1191 994 1439 701 
Q 1688 409 2113 409 
Q 2538 409 2786 701 
Q 3034 994 3034 1497 
Q 3034 2003 2786 2293 
Q 2538 2584 2113 2584 
z
M 3366 4563 
L 3366 3988 
Q 3128 4100 2886 4159 
Q 2644 4219 2406 4219 
Q 1781 4219 1451 3797 
Q 1122 3375 1075 2522 
Q 1259 2794 1537 2939 
Q 1816 3084 2150 3084 
Q 2853 3084 3261 2657 
Q 3669 2231 3669 1497 
Q 3669 778 3244 343 
Q 2819 -91 2113 -91 
Q 1303 -91 875 529 
Q 447 1150 447 2328 
Q 447 3434 972 4092 
Q 1497 4750 2381 4750 
Q 2619 4750 2861 4703 
Q 3103 4656 3366 4563 
z
" transform="scale(0.015625)"/>
       </defs>
       <use xlink:href="#DejaVuSans-31"/>
       <use xlink:href="#DejaVuSans-2e" x="63.623047"/>
       <use xlink:href="#DejaVuSans-36" x="95.410156"/>
      </g>
     </g>
    </g>
    <g id="ytick_3">
     <g id="line2d_9">
      <g>
       <use xlink:href="#m743489b7fe" x="144" y="226.242614" style="stroke: #000000; stroke-width: 0.8"/>
      </g>
     </g>
     <g id="text_9">
      <!-- 1.8 -->
      <g transform="translate(121.096875 230.041832) scale(0.1 -0.1)">
       <defs>
        <path id="DejaVuSans-38" d="M 2034 2216 
Q 1584 2216 1326 1975 
Q 1069 1734 1069 1313 
Q 1069 891 1326 650 
Q 1584 409 2034 409 
Q 2484 409 2743 651 
Q 3003 894 3003 1313 
Q 3003 1734 2745 1975 
Q 2488 2216 2034 2216 
z
M 1403 2484 
Q 997 2584 770 2862 
Q 544 3141 544 3541 
Q 544 4100 942 4425 
Q 1341 4750 2034 4750 
Q 2731 4750 3128 4425 
Q 3525 4100 3525 3541 
Q 3525 3141 3298 2862 
Q 3072 2584 2669 2484 
Q 3125 2378 3379 2068 
Q 3634 1759 3634 1313 
Q 3634 634 3220 271 
Q 2806 -91 2034 -91 
Q 1263 -91 848 271 
Q 434 634 434 1313 
Q 434 1759 690 2068 
Q 947 2378 1403 2484 
z
M 1172 3481 
Q 1172 3119 1398 2916 
Q 1625 2713 2034 2713 
Q 2441 2713 2670 2916 
Q 2900 3119 2900 3481 
Q 2900 3844 2670 4047 
Q 2441 4250 2034 4250 
Q 1625 4250 1398 4047 
Q 1172 3844 1172 3481 
z
" transform="scale(0.015625)"/>
       </defs>
       <use xlink:href="#DejaVuSans-31"/>
       <use xlink:href="#DejaVuSans-2e" x="63.623047"/>
       <use xlink:href="#DejaVuSans-38" x="95.410156"/>
      </g>
     </g>
    </g>
    <g id="ytick_4">
     <g id="line2d_10">
      <g>
       <use xlink:href="#m743489b7fe" x="144" y="192.661102" style="stroke: #000000; stroke-width: 0.8"/>
      </g>
     </g>
     <g id="text_10">
      <!-- 2.0 -->
      <g transform="translate(121.096875 196.460321) scale(0.1 -0.1)">
       <use xlink:href="#DejaVuSans-32"/>
       <use xlink:href="#DejaVuSans-2e" x="63.623047"/>
       <use xlink:href="#DejaVuSans-30" x="95.410156"/>
      </g>
     </g>
    </g>
    <g id="ytick_5">
     <g id="line2d_11">
      <g>
       <use xlink:href="#m743489b7fe" x="144" y="159.079591" style="stroke: #000000; stroke-width: 0.8"/>
      </g>
     </g>
     <g id="text_11">
      <!-- 2.2 -->
      <g transform="translate(121.096875 162.87881) scale(0.1 -0.1)">
       <use xlink:href="#DejaVuSans-32"/>
       <use xlink:href="#DejaVuSans-2e" x="63.623047"/>
       <use xlink:href="#DejaVuSans-32" x="95.410156"/>
      </g>
     </g>
    </g>
    <g id="ytick_6">
     <g id="line2d_12">
      <g>
       <use xlink:href="#m743489b7fe" x="144" y="125.498079" style="stroke: #000000; stroke-width: 0.8"/>
      </g>
     </g>
     <g id="text_12">
      <!-- 2.4 -->
      <g transform="translate(121.096875 129.297298) scale(0.1 -0.1)">
       <use xlink:href="#DejaVuSans-32"/>
       <use xlink:href="#DejaVuSans-2e" x="63.623047"/>
       <use xlink:href="#DejaVuSans-34" x="95.410156"/>
      </g>
     </g>
    </g>
    <g id="ytick_7">
     <g id="line2d_13">
      <g>
       <use xlink:href="#m743489b7fe" x="144" y="91.916568" style="stroke: #000000; stroke-width: 0.8"/>
      </g>
     </g>
     <g id="text_13">
      <!-- 2.6 -->
      <g transform="translate(121.096875 95.715787) scale(0.1 -0.1)">
       <use xlink:href="#DejaVuSans-32"/>
       <use xlink:href="#DejaVuSans-2e" x="63.623047"/>
       <use xlink:href="#DejaVuSans-36" x="95.410156"/>
      </g>
     </g>
    </g>
   </g>
   <g id="line2d_14">
    <path d="M 144 192.661102 
L 145.488496 192.787172 
L 146.976992 193.16726 
L 151.74018 194.684835 
L 154.717172 195.367296 
L 157.694165 195.810001 
L 160.671157 196.023889 
L 163.945849 196.034041 
L 167.518239 195.802431 
L 171.09063 195.349982 
L 175.258419 194.59281 
L 179.12851 193.684971 
L 183.593998 192.396534 
L 188.059486 190.882204 
L 193.120373 188.938536 
L 198.18126 186.73641 
L 203.242147 184.291319 
L 208.898433 181.307728 
L 214.554718 178.06481 
L 220.508703 174.419935 
L 227.058086 170.127045 
L 233.905168 165.381114 
L 243.133845 158.641798 
L 253.851017 150.504857 
L 268.438279 139.46097 
L 277.071557 133.237018 
L 283.025542 129.215204 
L 288.384128 125.847844 
L 294.933511 121.762064 
L 296.719707 120.055089 
L 300.887496 116.101193 
L 303.864488 113.613218 
L 306.543781 111.664525 
L 309.520774 109.796101 
L 312.497766 108.1939 
L 315.474758 106.826069 
L 318.451751 105.695591 
L 321.428743 104.79131 
L 324.405735 104.121655 
L 327.680427 103.619272 
L 331.252818 103.320137 
L 334.527509 103.283949 
L 337.802201 103.483334 
L 341.076892 103.899422 
L 344.649283 104.569655 
L 347.923975 105.399492 
L 351.496365 106.550083 
L 355.068756 107.942084 
L 358.938846 109.698873 
L 362.808936 111.700619 
L 366.679026 113.944615 
L 370.846816 116.60756 
L 375.014605 119.515396 
L 379.480093 122.888701 
L 383.945582 126.546318 
L 388.70877 130.747994 
L 393.769657 135.510251 
L 398.830544 140.559268 
L 404.784528 146.827549 
L 410.738513 153.430529 
L 416.692497 160.353715 
L 423.837279 169.015333 
L 430.982061 178.020656 
L 439.317639 188.932358 
L 451.523308 205.334107 
L 463.133578 220.651004 
L 474.148449 234.7865 
L 481.59093 243.924649 
L 487.842614 251.261166 
L 493.2012 257.194326 
L 498.262087 262.481058 
L 502.429877 266.532209 
L 506.299967 269.998013 
L 510.170057 273.18152 
L 513.444748 275.606267 
L 516.71944 277.744179 
L 519.696432 279.406518 
L 522.673424 280.795349 
L 525.352718 281.799451 
L 527.734311 282.47086 
L 530.115905 282.908619 
L 532.497499 283.108625 
L 534.879093 283.056662 
L 536.962988 282.798722 
L 539.046882 282.325931 
L 541.130777 281.629123 
L 543.214672 280.701147 
L 545.298566 279.534985 
L 547.382461 278.123384 
L 549.466355 276.469659 
L 551.847949 274.268896 
L 553.931844 272.050757 
L 556.313438 269.169639 
L 558.695032 265.942329 
L 561.076626 262.366371 
L 563.755919 257.925172 
L 566.435212 253.046735 
L 569.412204 247.127371 
L 572.686896 240.06513 
L 575.961587 232.483279 
L 579.533978 223.640519 
L 583.999466 211.946295 
L 590.25115 194.837019 
L 598.884428 171.18167 
L 603.647616 158.755801 
L 607.517706 149.231061 
L 611.090097 141.028816 
L 614.364788 134.078782 
L 617.341781 128.29491 
L 620.021074 123.543532 
L 622.700367 119.253856 
L 625.37966 115.423351 
L 627.761254 112.413303 
L 630.142848 109.776631 
L 632.524441 107.512458 
L 634.608336 105.811814 
L 636.692231 104.385443 
L 638.776125 103.22859 
L 640.86002 102.307323 
L 642.943915 101.609098 
L 645.027809 101.136102 
L 647.111704 100.884688 
L 649.195599 100.849473 
L 651.577192 101.059533 
L 653.958786 101.509194 
L 656.34038 102.190071 
L 658.721974 103.107525 
L 661.401267 104.399181 
L 664.378259 106.095525 
L 667.652951 108.243255 
L 670.927643 110.668652 
L 674.202334 113.379742 
L 678.072424 116.903281 
L 682.240213 120.981144 
L 686.705702 125.668073 
L 692.361987 131.952591 
L 698.018273 138.591803 
L 704.269957 146.221198 
L 711.414738 155.296912 
L 722.131911 169.283685 
L 738.505368 191.177824 
L 749.222541 205.460727 
L 755.771924 213.813114 
L 762.619006 222.204298 
L 769.466089 230.247362 
L 775.420073 236.912976 
L 781.076359 242.925638 
L 786.732644 248.612386 
L 792.09123 253.699999 
L 796.854418 257.911911 
L 801.915305 262.074834 
L 806.380794 265.478881 
L 810.846282 268.619406 
L 815.014071 271.286874 
L 819.181861 273.683401 
L 823.051951 275.651521 
L 826.922041 277.379038 
L 830.792131 278.878018 
L 834.662221 280.131651 
L 838.234612 281.061935 
L 841.807002 281.766889 
L 845.379393 282.232376 
L 848.951784 282.464136 
L 852.524175 282.469427 
L 856.096566 282.253813 
L 859.668956 281.809766 
L 863.241347 281.138807 
L 866.813738 280.262998 
L 870.683828 279.081719 
L 874.553918 277.653058 
L 878.721707 275.869403 
L 882.889496 273.845643 
L 887.354985 271.430871 
L 892.415872 268.410526 
L 897.774458 264.928658 
L 903.430744 260.996683 
L 910.575525 255.721117 
L 919.506502 248.828451 
L 945.406335 228.641293 
L 952.551117 223.445851 
L 959.398199 218.740066 
L 965.352184 214.916799 
L 971.603868 211.199055 
L 977.260153 208.084942 
L 982.916439 205.231173 
L 988.275025 202.773056 
L 993.038213 200.812185 
L 998.396799 198.848375 
L 1003.755385 197.123221 
L 1009.113971 195.659667 
L 1014.174858 194.500949 
L 1018.938046 193.634122 
L 1024.594331 192.846793 
L 1029.357519 192.408867 
L 1034.418406 192.16385 
L 1036.8 192.134975 
L 1036.8 192.134975 
" clip-path="url(#p3af66977ef)" style="fill: none; stroke-dasharray: 5.55,2.4; stroke-dashoffset: 0; stroke: #ffa500; stroke-width: 1.5"/>
   </g>
   <g id="line2d_15">
    <path d="M 292.849617 120.260818 
L 295.826609 117.340721 
L 298.803601 114.624741 
L 301.780594 112.231308 
L 304.757586 110.159287 
L 307.734578 108.398773 
L 310.711571 106.897588 
L 313.688563 105.617348 
L 316.665555 104.574696 
L 319.642548 103.752562 
L 322.61954 103.165463 
L 325.596532 102.770203 
L 328.573525 102.565597 
L 331.550517 102.532789 
L 334.527509 102.700828 
L 337.504502 103.058183 
L 340.481494 103.58447 
L 343.458486 104.259197 
L 346.435478 105.110841 
L 349.412471 106.141529 
L 352.389463 107.326261 
L 355.366455 108.685499 
L 358.343448 110.17475 
L 361.32044 111.810109 
L 367.274425 115.49927 
L 373.228409 119.69406 
L 379.182394 124.370395 
L 385.136379 129.54325 
L 391.090363 135.153029 
L 397.044348 141.155381 
L 402.998333 147.504443 
L 408.952317 154.18749 
L 414.906302 161.183392 
L 423.837279 172.171342 
L 429.791264 179.793578 
L 438.722241 191.596515 
L 453.607202 211.579979 
L 465.515172 227.137135 
L 474.446149 238.421898 
L 480.400133 245.638937 
L 486.354118 252.542284 
L 492.308103 259.013451 
L 498.262087 265.01926 
L 501.23908 267.788023 
L 504.216072 270.377794 
L 507.193064 272.794832 
L 510.170057 275.022347 
L 513.147049 277.00223 
L 516.124041 278.73234 
L 519.101034 280.17416 
L 522.078026 281.329776 
L 525.055018 282.175754 
L 528.032011 282.644828 
L 531.009003 282.743452 
L 533.985995 282.431165 
L 536.962988 281.689965 
L 539.93998 280.484192 
L 542.916972 278.793282 
L 545.893965 276.593032 
L 548.870957 273.887189 
L 551.847949 270.645217 
L 554.824942 266.813525 
L 557.801934 262.442463 
L 560.778926 257.532884 
L 563.755919 252.083024 
L 566.732911 246.104372 
L 569.709903 239.639052 
L 572.686896 232.7588 
L 575.663888 225.467379 
L 581.617873 209.88686 
L 599.479827 161.235413 
L 602.456819 153.703356 
L 605.433811 146.521831 
L 608.410804 139.753514 
L 611.387796 133.44416 
L 614.364788 127.64799 
L 617.341781 122.383962 
L 620.318773 117.672907 
L 623.295765 113.550253 
L 626.272758 110.006594 
L 629.24975 107.044803 
L 632.226742 104.647635 
L 635.203735 102.772723 
L 638.180727 101.449907 
L 641.157719 100.564633 
L 644.134712 100.132471 
L 647.111704 100.133997 
L 650.088696 100.563298 
L 653.065689 101.344284 
L 656.042681 102.478187 
L 659.019673 103.966959 
L 661.996666 105.719387 
L 664.973658 107.72222 
L 667.95065 109.945225 
L 670.927643 112.399857 
L 673.904635 115.070635 
L 679.85862 120.889889 
L 685.812604 127.267703 
L 691.766589 134.045231 
L 697.720574 141.188864 
L 706.651551 152.394565 
L 718.55952 167.926975 
L 733.444481 187.845576 
L 745.352451 203.799108 
L 751.306435 211.468599 
L 757.26042 218.863506 
L 763.214405 225.996465 
L 769.168389 232.851025 
L 775.122374 239.378309 
L 781.076359 245.544083 
L 787.030343 251.343216 
L 792.984328 256.74823 
L 798.938313 261.679532 
L 804.892297 266.165355 
L 810.846282 270.169702 
L 813.823274 271.965575 
L 816.800267 273.626167 
L 819.777259 275.137845 
L 822.754251 276.505357 
L 825.731244 277.727897 
L 828.708236 278.821891 
L 831.685228 279.759329 
L 834.662221 280.555695 
L 837.639213 281.185796 
L 840.616205 281.66531 
L 843.593198 281.971075 
L 846.57019 282.116552 
L 849.547182 282.103166 
L 852.524175 281.937516 
L 855.501167 281.617526 
L 858.478159 281.138885 
L 861.455152 280.499157 
L 864.432144 279.730323 
L 867.409136 278.807702 
L 870.386129 277.753794 
L 876.340113 275.222909 
L 882.294098 272.211465 
L 888.248083 268.76404 
L 894.202067 264.939534 
L 900.156052 260.821758 
L 909.087029 254.188892 
L 920.994998 244.889395 
L 932.902968 235.470555 
L 941.833945 228.647616 
L 947.787929 224.263249 
L 956.718906 218.089938 
L 962.672891 214.264223 
L 968.626876 210.726663 
L 974.58086 207.448598 
L 980.534845 204.467074 
L 986.48883 201.777977 
L 992.442814 199.416797 
L 998.396799 197.367756 
L 1004.350784 195.629675 
L 1010.304768 194.191648 
L 1016.258753 193.076761 
L 1022.212738 192.271679 
L 1028.166722 191.791607 
L 1034.120707 191.626167 
L 1034.120707 191.626167 
" clip-path="url(#p3af66977ef)" style="fill: none; stroke: #0000ff; stroke-opacity: 0.5; stroke-width: 1.5; stroke-linecap: square"/>
   </g>
   <g id="patch_3">
    <path d="M 144 304.56 
L 144 77.76 
" style="fill: none; stroke: #000000; stroke-width: 0.8; stroke-linejoin: miter; stroke-linecap: square"/>
   </g>
   <g id="patch_4">
    <path d="M 1036.8 304.56 
L 1036.8 77.76 
" style="fill: none; stroke: #000000; stroke-width: 0.8; stroke-linejoin: miter; stroke-linecap: square"/>
   </g>
   <g id="patch_5">
    <path d="M 144 304.56 
L 1036.8 304.56 
" style="fill: none; stroke: #000000; stroke-width: 0.8; stroke-linejoin: miter; stroke-linecap: square"/>
   </g>
   <g id="patch_6">
    <path d="M 144 77.76 
L 1036.8 77.76 
" style="fill: none; stroke: #000000; stroke-width: 0.8; stroke-linejoin: miter; stroke-linecap: square"/>
   </g>
   <g id="legend_1">
    <g id="patch_7">
     <path d="M 924.2 129.838125 
L 1029.8 129.838125 
Q 1031.8 129.838125 1031.8 127.838125 
L 1031.8 84.76 
Q 1031.8 82.76 1029.8 82.76 
L 924.2 82.76 
Q 922.2 82.76 922.2 84.76 
L 922.2 127.838125 
Q 922.2 129.838125 924.2 129.838125 
z
" style="fill: #ffffff; opacity: 0.8; stroke: #cccccc; stroke-linejoin: miter"/>
    </g>
    <g id="line2d_16">
     <path d="M 926.2 90.86 
L 936.2 90.86 
L 946.2 90.86 
" style="fill: none; stroke-dasharray: 5.55,2.4; stroke-dashoffset: 0; stroke: #ffa500; stroke-width: 1.5"/>
    </g>
    <g id="text_14">
     <!-- Real $y$ Position -->
     <g transform="translate(954.2 94.36) scale(0.1 -0.1)">
      <defs>
       <path id="DejaVuSans-52" d="M 2841 2188 
Q 3044 2119 3236 1894 
Q 3428 1669 3622 1275 
L 4263 0 
L 3584 0 
L 2988 1197 
Q 2756 1666 2539 1819 
Q 2322 1972 1947 1972 
L 1259 1972 
L 1259 0 
L 628 0 
L 628 4666 
L 2053 4666 
Q 2853 4666 3247 4331 
Q 3641 3997 3641 3322 
Q 3641 2881 3436 2590 
Q 3231 2300 2841 2188 
z
M 1259 4147 
L 1259 2491 
L 2053 2491 
Q 2509 2491 2742 2702 
Q 2975 2913 2975 3322 
Q 2975 3731 2742 3939 
Q 2509 4147 2053 4147 
L 1259 4147 
z
" transform="scale(0.015625)"/>
       <path id="DejaVuSans-65" d="M 3597 1894 
L 3597 1613 
L 953 1613 
Q 991 1019 1311 708 
Q 1631 397 2203 397 
Q 2534 397 2845 478 
Q 3156 559 3463 722 
L 3463 178 
Q 3153 47 2828 -22 
Q 2503 -91 2169 -91 
Q 1331 -91 842 396 
Q 353 884 353 1716 
Q 353 2575 817 3079 
Q 1281 3584 2069 3584 
Q 2775 3584 3186 3129 
Q 3597 2675 3597 1894 
z
M 3022 2063 
Q 3016 2534 2758 2815 
Q 2500 3097 2075 3097 
Q 1594 3097 1305 2825 
Q 1016 2553 972 2059 
L 3022 2063 
z
" transform="scale(0.015625)"/>
       <path id="DejaVuSans-61" d="M 2194 1759 
Q 1497 1759 1228 1600 
Q 959 1441 959 1056 
Q 959 750 1161 570 
Q 1363 391 1709 391 
Q 2188 391 2477 730 
Q 2766 1069 2766 1631 
L 2766 1759 
L 2194 1759 
z
M 3341 1997 
L 3341 0 
L 2766 0 
L 2766 531 
Q 2569 213 2275 61 
Q 1981 -91 1556 -91 
Q 1019 -91 701 211 
Q 384 513 384 1019 
Q 384 1609 779 1909 
Q 1175 2209 1959 2209 
L 2766 2209 
L 2766 2266 
Q 2766 2663 2505 2880 
Q 2244 3097 1772 3097 
Q 1472 3097 1187 3025 
Q 903 2953 641 2809 
L 641 3341 
Q 956 3463 1253 3523 
Q 1550 3584 1831 3584 
Q 2591 3584 2966 3190 
Q 3341 2797 3341 1997 
z
" transform="scale(0.015625)"/>
       <path id="DejaVuSans-6c" d="M 603 4863 
L 1178 4863 
L 1178 0 
L 603 0 
L 603 4863 
z
" transform="scale(0.015625)"/>
       <path id="DejaVuSans-20" transform="scale(0.015625)"/>
       <path id="DejaVuSans-Oblique-79" d="M 1588 -325 
Q 1188 -997 936 -1164 
Q 684 -1331 294 -1331 
L -159 -1331 
L -63 -850 
L 269 -850 
Q 509 -850 678 -719 
Q 847 -588 1056 -206 
L 1234 128 
L 459 3500 
L 1069 3500 
L 1650 819 
L 3256 3500 
L 3859 3500 
L 1588 -325 
z
" transform="scale(0.015625)"/>
       <path id="DejaVuSans-50" d="M 1259 4147 
L 1259 2394 
L 2053 2394 
Q 2494 2394 2734 2622 
Q 2975 2850 2975 3272 
Q 2975 3691 2734 3919 
Q 2494 4147 2053 4147 
L 1259 4147 
z
M 628 4666 
L 2053 4666 
Q 2838 4666 3239 4311 
Q 3641 3956 3641 3272 
Q 3641 2581 3239 2228 
Q 2838 1875 2053 1875 
L 1259 1875 
L 1259 0 
L 628 0 
L 628 4666 
z
" transform="scale(0.015625)"/>
       <path id="DejaVuSans-6f" d="M 1959 3097 
Q 1497 3097 1228 2736 
Q 959 2375 959 1747 
Q 959 1119 1226 758 
Q 1494 397 1959 397 
Q 2419 397 2687 759 
Q 2956 1122 2956 1747 
Q 2956 2369 2687 2733 
Q 2419 3097 1959 3097 
z
M 1959 3584 
Q 2709 3584 3137 3096 
Q 3566 2609 3566 1747 
Q 3566 888 3137 398 
Q 2709 -91 1959 -91 
Q 1206 -91 779 398 
Q 353 888 353 1747 
Q 353 2609 779 3096 
Q 1206 3584 1959 3584 
z
" transform="scale(0.015625)"/>
       <path id="DejaVuSans-73" d="M 2834 3397 
L 2834 2853 
Q 2591 2978 2328 3040 
Q 2066 3103 1784 3103 
Q 1356 3103 1142 2972 
Q 928 2841 928 2578 
Q 928 2378 1081 2264 
Q 1234 2150 1697 2047 
L 1894 2003 
Q 2506 1872 2764 1633 
Q 3022 1394 3022 966 
Q 3022 478 2636 193 
Q 2250 -91 1575 -91 
Q 1294 -91 989 -36 
Q 684 19 347 128 
L 347 722 
Q 666 556 975 473 
Q 1284 391 1588 391 
Q 1994 391 2212 530 
Q 2431 669 2431 922 
Q 2431 1156 2273 1281 
Q 2116 1406 1581 1522 
L 1381 1569 
Q 847 1681 609 1914 
Q 372 2147 372 2553 
Q 372 3047 722 3315 
Q 1072 3584 1716 3584 
Q 2034 3584 2315 3537 
Q 2597 3491 2834 3397 
z
" transform="scale(0.015625)"/>
       <path id="DejaVuSans-69" d="M 603 3500 
L 1178 3500 
L 1178 0 
L 603 0 
L 603 3500 
z
M 603 4863 
L 1178 4863 
L 1178 4134 
L 603 4134 
L 603 4863 
z
" transform="scale(0.015625)"/>
       <path id="DejaVuSans-74" d="M 1172 4494 
L 1172 3500 
L 2356 3500 
L 2356 3053 
L 1172 3053 
L 1172 1153 
Q 1172 725 1289 603 
Q 1406 481 1766 481 
L 2356 481 
L 2356 0 
L 1766 0 
Q 1100 0 847 248 
Q 594 497 594 1153 
L 594 3053 
L 172 3053 
L 172 3500 
L 594 3500 
L 594 4494 
L 1172 4494 
z
" transform="scale(0.015625)"/>
       <path id="DejaVuSans-6e" d="M 3513 2113 
L 3513 0 
L 2938 0 
L 2938 2094 
Q 2938 2591 2744 2837 
Q 2550 3084 2163 3084 
Q 1697 3084 1428 2787 
Q 1159 2491 1159 1978 
L 1159 0 
L 581 0 
L 581 3500 
L 1159 3500 
L 1159 2956 
Q 1366 3272 1645 3428 
Q 1925 3584 2291 3584 
Q 2894 3584 3203 3211 
Q 3513 2838 3513 2113 
z
" transform="scale(0.015625)"/>
      </defs>
      <use xlink:href="#DejaVuSans-52" transform="translate(0 0.015625)"/>
      <use xlink:href="#DejaVuSans-65" transform="translate(69.482422 0.015625)"/>
      <use xlink:href="#DejaVuSans-61" transform="translate(131.005859 0.015625)"/>
      <use xlink:href="#DejaVuSans-6c" transform="translate(192.285156 0.015625)"/>
      <use xlink:href="#DejaVuSans-20" transform="translate(220.068359 0.015625)"/>
      <use xlink:href="#DejaVuSans-Oblique-79" transform="translate(251.855469 0.015625)"/>
      <use xlink:href="#DejaVuSans-20" transform="translate(311.035156 0.015625)"/>
      <use xlink:href="#DejaVuSans-50" transform="translate(342.822266 0.015625)"/>
      <use xlink:href="#DejaVuSans-6f" transform="translate(403.125 0.015625)"/>
      <use xlink:href="#DejaVuSans-73" transform="translate(464.306641 0.015625)"/>
      <use xlink:href="#DejaVuSans-69" transform="translate(516.40625 0.015625)"/>
      <use xlink:href="#DejaVuSans-74" transform="translate(544.189453 0.015625)"/>
      <use xlink:href="#DejaVuSans-69" transform="translate(583.398438 0.015625)"/>
      <use xlink:href="#DejaVuSans-6f" transform="translate(611.181641 0.015625)"/>
      <use xlink:href="#DejaVuSans-6e" transform="translate(672.363281 0.015625)"/>
     </g>
    </g>
    <g id="line2d_17">
     <path d="M 926.2 105.56 
L 936.2 105.56 
L 946.2 105.56 
" style="fill: none; stroke: #0000ff; stroke-opacity: 0.5; stroke-width: 1.5; stroke-linecap: square"/>
    </g>
    <g id="text_15">
     <!-- Prediction $y$ -->
     <g transform="translate(954.2 109.06) scale(0.1 -0.1)">
      <defs>
       <path id="DejaVuSans-72" d="M 2631 2963 
Q 2534 3019 2420 3045 
Q 2306 3072 2169 3072 
Q 1681 3072 1420 2755 
Q 1159 2438 1159 1844 
L 1159 0 
L 581 0 
L 581 3500 
L 1159 3500 
L 1159 2956 
Q 1341 3275 1631 3429 
Q 1922 3584 2338 3584 
Q 2397 3584 2469 3576 
Q 2541 3569 2628 3553 
L 2631 2963 
z
" transform="scale(0.015625)"/>
       <path id="DejaVuSans-64" d="M 2906 2969 
L 2906 4863 
L 3481 4863 
L 3481 0 
L 2906 0 
L 2906 525 
Q 2725 213 2448 61 
Q 2172 -91 1784 -91 
Q 1150 -91 751 415 
Q 353 922 353 1747 
Q 353 2572 751 3078 
Q 1150 3584 1784 3584 
Q 2172 3584 2448 3432 
Q 2725 3281 2906 2969 
z
M 947 1747 
Q 947 1113 1208 752 
Q 1469 391 1925 391 
Q 2381 391 2643 752 
Q 2906 1113 2906 1747 
Q 2906 2381 2643 2742 
Q 2381 3103 1925 3103 
Q 1469 3103 1208 2742 
Q 947 2381 947 1747 
z
" transform="scale(0.015625)"/>
       <path id="DejaVuSans-63" d="M 3122 3366 
L 3122 2828 
Q 2878 2963 2633 3030 
Q 2388 3097 2138 3097 
Q 1578 3097 1268 2742 
Q 959 2388 959 1747 
Q 959 1106 1268 751 
Q 1578 397 2138 397 
Q 2388 397 2633 464 
Q 2878 531 3122 666 
L 3122 134 
Q 2881 22 2623 -34 
Q 2366 -91 2075 -91 
Q 1284 -91 818 406 
Q 353 903 353 1747 
Q 353 2603 823 3093 
Q 1294 3584 2113 3584 
Q 2378 3584 2631 3529 
Q 2884 3475 3122 3366 
z
" transform="scale(0.015625)"/>
      </defs>
      <use xlink:href="#DejaVuSans-50" transform="translate(0 0.015625)"/>
      <use xlink:href="#DejaVuSans-72" transform="translate(60.302734 0.015625)"/>
      <use xlink:href="#DejaVuSans-65" transform="translate(101.416016 0.015625)"/>
      <use xlink:href="#DejaVuSans-64" transform="translate(162.939453 0.015625)"/>
      <use xlink:href="#DejaVuSans-69" transform="translate(226.416016 0.015625)"/>
      <use xlink:href="#DejaVuSans-63" transform="translate(254.199219 0.015625)"/>
      <use xlink:href="#DejaVuSans-74" transform="translate(309.179688 0.015625)"/>
      <use xlink:href="#DejaVuSans-69" transform="translate(348.388672 0.015625)"/>
      <use xlink:href="#DejaVuSans-6f" transform="translate(376.171875 0.015625)"/>
      <use xlink:href="#DejaVuSans-6e" transform="translate(437.353516 0.015625)"/>
      <use xlink:href="#DejaVuSans-20" transform="translate(500.732422 0.015625)"/>
      <use xlink:href="#DejaVuSans-Oblique-79" transform="translate(532.519531 0.015625)"/>
     </g>
    </g>
    <g id="patch_8">
     <path d="M 926.2 123.758438 
L 946.2 123.758438 
L 946.2 116.758438 
L 926.2 116.758438 
z
" style="fill: #00ffff; fill-opacity: 0.5; stroke: #00ffff; stroke-opacity: 0.5; stroke-linejoin: miter"/>
    </g>
    <g id="text_16">
     <!-- Confidence -->
     <g transform="translate(954.2 123.758438) scale(0.1 -0.1)">
      <defs>
       <path id="DejaVuSans-43" d="M 4122 4306 
L 4122 3641 
Q 3803 3938 3442 4084 
Q 3081 4231 2675 4231 
Q 1875 4231 1450 3742 
Q 1025 3253 1025 2328 
Q 1025 1406 1450 917 
Q 1875 428 2675 428 
Q 3081 428 3442 575 
Q 3803 722 4122 1019 
L 4122 359 
Q 3791 134 3420 21 
Q 3050 -91 2638 -91 
Q 1578 -91 968 557 
Q 359 1206 359 2328 
Q 359 3453 968 4101 
Q 1578 4750 2638 4750 
Q 3056 4750 3426 4639 
Q 3797 4528 4122 4306 
z
" transform="scale(0.015625)"/>
       <path id="DejaVuSans-66" d="M 2375 4863 
L 2375 4384 
L 1825 4384 
Q 1516 4384 1395 4259 
Q 1275 4134 1275 3809 
L 1275 3500 
L 2222 3500 
L 2222 3053 
L 1275 3053 
L 1275 0 
L 697 0 
L 697 3053 
L 147 3053 
L 147 3500 
L 697 3500 
L 697 3744 
Q 697 4328 969 4595 
Q 1241 4863 1831 4863 
L 2375 4863 
z
" transform="scale(0.015625)"/>
      </defs>
      <use xlink:href="#DejaVuSans-43"/>
      <use xlink:href="#DejaVuSans-6f" x="69.824219"/>
      <use xlink:href="#DejaVuSans-6e" x="131.005859"/>
      <use xlink:href="#DejaVuSans-66" x="194.384766"/>
      <use xlink:href="#DejaVuSans-69" x="229.589844"/>
      <use xlink:href="#DejaVuSans-64" x="257.373047"/>
      <use xlink:href="#DejaVuSans-65" x="320.849609"/>
      <use xlink:href="#DejaVuSans-6e" x="382.373047"/>
      <use xlink:href="#DejaVuSans-63" x="445.751953"/>
      <use xlink:href="#DejaVuSans-65" x="500.732422"/>
     </g>
    </g>
   </g>
  </g>
  <g id="axes_2">
   <g id="patch_9">
    <path d="M 144 576.72 
L 1036.8 576.72 
L 1036.8 349.92 
L 144 349.92 
z
" style="fill: #ffffff"/>
   </g>
   <g id="matplotlib.axis_3">
    <g id="xtick_7">
     <g id="line2d_18">
      <g>
       <use xlink:href="#mee1c1fbe9c" x="144" y="576.72" style="stroke: #000000; stroke-width: 0.8"/>
      </g>
     </g>
     <g id="text_17">
      <!-- 0 -->
      <g transform="translate(140.81875 591.318438) scale(0.1 -0.1)">
       <use xlink:href="#DejaVuSans-30"/>
      </g>
     </g>
    </g>
    <g id="xtick_8">
     <g id="line2d_19">
      <g>
       <use xlink:href="#mee1c1fbe9c" x="292.849617" y="576.72" style="stroke: #000000; stroke-width: 0.8"/>
      </g>
     </g>
     <g id="text_18">
      <!-- 5 -->
      <g transform="translate(289.668367 591.318438) scale(0.1 -0.1)">
       <use xlink:href="#DejaVuSans-35"/>
      </g>
     </g>
    </g>
    <g id="xtick_9">
     <g id="line2d_20">
      <g>
       <use xlink:href="#mee1c1fbe9c" x="441.699233" y="576.72" style="stroke: #000000; stroke-width: 0.8"/>
      </g>
     </g>
     <g id="text_19">
      <!-- 10 -->
      <g transform="translate(435.336733 591.318438) scale(0.1 -0.1)">
       <use xlink:href="#DejaVuSans-31"/>
       <use xlink:href="#DejaVuSans-30" x="63.623047"/>
      </g>
     </g>
    </g>
    <g id="xtick_10">
     <g id="line2d_21">
      <g>
       <use xlink:href="#mee1c1fbe9c" x="590.54885" y="576.72" style="stroke: #000000; stroke-width: 0.8"/>
      </g>
     </g>
     <g id="text_20">
      <!-- 15 -->
      <g transform="translate(584.18635 591.318438) scale(0.1 -0.1)">
       <use xlink:href="#DejaVuSans-31"/>
       <use xlink:href="#DejaVuSans-35" x="63.623047"/>
      </g>
     </g>
    </g>
    <g id="xtick_11">
     <g id="line2d_22">
      <g>
       <use xlink:href="#mee1c1fbe9c" x="739.398466" y="576.72" style="stroke: #000000; stroke-width: 0.8"/>
      </g>
     </g>
     <g id="text_21">
      <!-- 20 -->
      <g transform="translate(733.035966 591.318438) scale(0.1 -0.1)">
       <use xlink:href="#DejaVuSans-32"/>
       <use xlink:href="#DejaVuSans-30" x="63.623047"/>
      </g>
     </g>
    </g>
    <g id="xtick_12">
     <g id="line2d_23">
      <g>
       <use xlink:href="#mee1c1fbe9c" x="888.248083" y="576.72" style="stroke: #000000; stroke-width: 0.8"/>
      </g>
     </g>
     <g id="text_22">
      <!-- 25 -->
      <g transform="translate(881.885583 591.318438) scale(0.1 -0.1)">
       <use xlink:href="#DejaVuSans-32"/>
       <use xlink:href="#DejaVuSans-35" x="63.623047"/>
      </g>
     </g>
    </g>
   </g>
   <g id="matplotlib.axis_4">
    <g id="ytick_8">
     <g id="line2d_24">
      <g>
       <use xlink:href="#m743489b7fe" x="144" y="560.425239" style="stroke: #000000; stroke-width: 0.8"/>
      </g>
     </g>
     <g id="text_23">
      <!-- −0.05 -->
      <g transform="translate(106.354687 564.224458) scale(0.1 -0.1)">
       <defs>
        <path id="DejaVuSans-2212" d="M 678 2272 
L 4684 2272 
L 4684 1741 
L 678 1741 
L 678 2272 
z
" transform="scale(0.015625)"/>
       </defs>
       <use xlink:href="#DejaVuSans-2212"/>
       <use xlink:href="#DejaVuSans-30" x="83.789062"/>
       <use xlink:href="#DejaVuSans-2e" x="147.412109"/>
       <use xlink:href="#DejaVuSans-30" x="179.199219"/>
       <use xlink:href="#DejaVuSans-35" x="242.822266"/>
      </g>
     </g>
    </g>
    <g id="ytick_9">
     <g id="line2d_25">
      <g>
       <use xlink:href="#m743489b7fe" x="144" y="532.221219" style="stroke: #000000; stroke-width: 0.8"/>
      </g>
     </g>
     <g id="text_24">
      <!-- −0.04 -->
      <g transform="translate(106.354687 536.020438) scale(0.1 -0.1)">
       <use xlink:href="#DejaVuSans-2212"/>
       <use xlink:href="#DejaVuSans-30" x="83.789062"/>
       <use xlink:href="#DejaVuSans-2e" x="147.412109"/>
       <use xlink:href="#DejaVuSans-30" x="179.199219"/>
       <use xlink:href="#DejaVuSans-34" x="242.822266"/>
      </g>
     </g>
    </g>
    <g id="ytick_10">
     <g id="line2d_26">
      <g>
       <use xlink:href="#m743489b7fe" x="144" y="504.017199" style="stroke: #000000; stroke-width: 0.8"/>
      </g>
     </g>
     <g id="text_25">
      <!-- −0.03 -->
      <g transform="translate(106.354687 507.816418) scale(0.1 -0.1)">
       <defs>
        <path id="DejaVuSans-33" d="M 2597 2516 
Q 3050 2419 3304 2112 
Q 3559 1806 3559 1356 
Q 3559 666 3084 287 
Q 2609 -91 1734 -91 
Q 1441 -91 1130 -33 
Q 819 25 488 141 
L 488 750 
Q 750 597 1062 519 
Q 1375 441 1716 441 
Q 2309 441 2620 675 
Q 2931 909 2931 1356 
Q 2931 1769 2642 2001 
Q 2353 2234 1838 2234 
L 1294 2234 
L 1294 2753 
L 1863 2753 
Q 2328 2753 2575 2939 
Q 2822 3125 2822 3475 
Q 2822 3834 2567 4026 
Q 2313 4219 1838 4219 
Q 1578 4219 1281 4162 
Q 984 4106 628 3988 
L 628 4550 
Q 988 4650 1302 4700 
Q 1616 4750 1894 4750 
Q 2613 4750 3031 4423 
Q 3450 4097 3450 3541 
Q 3450 3153 3228 2886 
Q 3006 2619 2597 2516 
z
" transform="scale(0.015625)"/>
       </defs>
       <use xlink:href="#DejaVuSans-2212"/>
       <use xlink:href="#DejaVuSans-30" x="83.789062"/>
       <use xlink:href="#DejaVuSans-2e" x="147.412109"/>
       <use xlink:href="#DejaVuSans-30" x="179.199219"/>
       <use xlink:href="#DejaVuSans-33" x="242.822266"/>
      </g>
     </g>
    </g>
    <g id="ytick_11">
     <g id="line2d_27">
      <g>
       <use xlink:href="#m743489b7fe" x="144" y="475.813179" style="stroke: #000000; stroke-width: 0.8"/>
      </g>
     </g>
     <g id="text_26">
      <!-- −0.02 -->
      <g transform="translate(106.354687 479.612397) scale(0.1 -0.1)">
       <use xlink:href="#DejaVuSans-2212"/>
       <use xlink:href="#DejaVuSans-30" x="83.789062"/>
       <use xlink:href="#DejaVuSans-2e" x="147.412109"/>
       <use xlink:href="#DejaVuSans-30" x="179.199219"/>
       <use xlink:href="#DejaVuSans-32" x="242.822266"/>
      </g>
     </g>
    </g>
    <g id="ytick_12">
     <g id="line2d_28">
      <g>
       <use xlink:href="#m743489b7fe" x="144" y="447.609158" style="stroke: #000000; stroke-width: 0.8"/>
      </g>
     </g>
     <g id="text_27">
      <!-- −0.01 -->
      <g transform="translate(106.354687 451.408377) scale(0.1 -0.1)">
       <use xlink:href="#DejaVuSans-2212"/>
       <use xlink:href="#DejaVuSans-30" x="83.789062"/>
       <use xlink:href="#DejaVuSans-2e" x="147.412109"/>
       <use xlink:href="#DejaVuSans-30" x="179.199219"/>
       <use xlink:href="#DejaVuSans-31" x="242.822266"/>
      </g>
     </g>
    </g>
    <g id="ytick_13">
     <g id="line2d_29">
      <g>
       <use xlink:href="#m743489b7fe" x="144" y="419.405138" style="stroke: #000000; stroke-width: 0.8"/>
      </g>
     </g>
     <g id="text_28">
      <!-- 0.00 -->
      <g transform="translate(114.734375 423.204357) scale(0.1 -0.1)">
       <use xlink:href="#DejaVuSans-30"/>
       <use xlink:href="#DejaVuSans-2e" x="63.623047"/>
       <use xlink:href="#DejaVuSans-30" x="95.410156"/>
       <use xlink:href="#DejaVuSans-30" x="159.033203"/>
      </g>
     </g>
    </g>
    <g id="ytick_14">
     <g id="line2d_30">
      <g>
       <use xlink:href="#m743489b7fe" x="144" y="391.201118" style="stroke: #000000; stroke-width: 0.8"/>
      </g>
     </g>
     <g id="text_29">
      <!-- 0.01 -->
      <g transform="translate(114.734375 395.000337) scale(0.1 -0.1)">
       <use xlink:href="#DejaVuSans-30"/>
       <use xlink:href="#DejaVuSans-2e" x="63.623047"/>
       <use xlink:href="#DejaVuSans-30" x="95.410156"/>
       <use xlink:href="#DejaVuSans-31" x="159.033203"/>
      </g>
     </g>
    </g>
    <g id="ytick_15">
     <g id="line2d_31">
      <g>
       <use xlink:href="#m743489b7fe" x="144" y="362.997098" style="stroke: #000000; stroke-width: 0.8"/>
      </g>
     </g>
     <g id="text_30">
      <!-- 0.02 -->
      <g transform="translate(114.734375 366.796317) scale(0.1 -0.1)">
       <use xlink:href="#DejaVuSans-30"/>
       <use xlink:href="#DejaVuSans-2e" x="63.623047"/>
       <use xlink:href="#DejaVuSans-30" x="95.410156"/>
       <use xlink:href="#DejaVuSans-32" x="159.033203"/>
      </g>
     </g>
    </g>
   </g>
   <g id="line2d_32">
    <path d="M 144 469.488543 
L 173.769923 479.79169 
L 203.539847 476.591821 
L 263.079693 465.984746 
L 292.849617 461.119659 
L 322.61954 456.810435 
L 411.92931 445.495638 
L 441.699233 441.763744 
L 501.23908 435.473972 
L 531.009003 432.408806 
L 590.54885 426.087456 
L 620.318773 423.177116 
L 650.088696 420.470441 
L 709.628543 414.511336 
L 769.168389 409.050798 
L 858.478159 401.683896 
L 947.787929 394.976252 
L 1007.327776 390.589505 
L 1037.097699 388.370679 
L 1066.867623 386.264959 
L 1126.407469 382.473686 
L 1153 380.941421 
L 1153 380.941421 
" clip-path="url(#paac52f4cc9)" style="fill: none; stroke: #1f77b4; stroke-width: 1.5; stroke-linecap: square"/>
   </g>
   <g id="patch_10">
    <path d="M 144 576.72 
L 144 349.92 
" style="fill: none; stroke: #000000; stroke-width: 0.8; stroke-linejoin: miter; stroke-linecap: square"/>
   </g>
   <g id="patch_11">
    <path d="M 1036.8 576.72 
L 1036.8 349.92 
" style="fill: none; stroke: #000000; stroke-width: 0.8; stroke-linejoin: miter; stroke-linecap: square"/>
   </g>
   <g id="patch_12">
    <path d="M 144 576.72 
L 1036.8 576.72 
" style="fill: none; stroke: #000000; stroke-width: 0.8; stroke-linejoin: miter; stroke-linecap: square"/>
   </g>
   <g id="patch_13">
    <path d="M 144 349.92 
L 1036.8 349.92 
" style="fill: none; stroke: #000000; stroke-width: 0.8; stroke-linejoin: miter; stroke-linecap: square"/>
   </g>
   <g id="legend_2">
    <g id="patch_14">
     <path d="M 920.578125 372.598125 
L 1029.8 372.598125 
Q 1031.8 372.598125 1031.8 370.598125 
L 1031.8 356.92 
Q 1031.8 354.92 1029.8 354.92 
L 920.578125 354.92 
Q 918.578125 354.92 918.578125 356.92 
L 918.578125 370.598125 
Q 918.578125 372.598125 920.578125 372.598125 
z
" style="fill: #ffffff; opacity: 0.8; stroke: #cccccc; stroke-linejoin: miter"/>
    </g>
    <g id="line2d_33">
     <path d="M 922.578125 363.018437 
L 932.578125 363.018437 
L 942.578125 363.018437 
" style="fill: none; stroke: #1f77b4; stroke-width: 1.5; stroke-linecap: square"/>
    </g>
    <g id="text_31">
     <!-- Prediction Error -->
     <g transform="translate(950.578125 366.518437) scale(0.1 -0.1)">
      <defs>
       <path id="DejaVuSans-45" d="M 628 4666 
L 3578 4666 
L 3578 4134 
L 1259 4134 
L 1259 2753 
L 3481 2753 
L 3481 2222 
L 1259 2222 
L 1259 531 
L 3634 531 
L 3634 0 
L 628 0 
L 628 4666 
z
" transform="scale(0.015625)"/>
      </defs>
      <use xlink:href="#DejaVuSans-50"/>
      <use xlink:href="#DejaVuSans-72" x="58.552734"/>
      <use xlink:href="#DejaVuSans-65" x="97.416016"/>
      <use xlink:href="#DejaVuSans-64" x="158.939453"/>
      <use xlink:href="#DejaVuSans-69" x="222.416016"/>
      <use xlink:href="#DejaVuSans-63" x="250.199219"/>
      <use xlink:href="#DejaVuSans-74" x="305.179688"/>
      <use xlink:href="#DejaVuSans-69" x="344.388672"/>
      <use xlink:href="#DejaVuSans-6f" x="372.171875"/>
      <use xlink:href="#DejaVuSans-6e" x="433.353516"/>
      <use xlink:href="#DejaVuSans-20" x="496.732422"/>
      <use xlink:href="#DejaVuSans-45" x="528.519531"/>
      <use xlink:href="#DejaVuSans-72" x="591.703125"/>
      <use xlink:href="#DejaVuSans-72" x="631.066406"/>
      <use xlink:href="#DejaVuSans-6f" x="669.929688"/>
      <use xlink:href="#DejaVuSans-72" x="731.111328"/>
     </g>
    </g>
   </g>
  </g>
  <g id="text_32">
   <!-- $y$-Position Prediction -->
   <g transform="translate(514.74 22.08) scale(0.12 -0.12)">
    <defs>
     <path id="DejaVuSans-2d" d="M 313 2009 
L 1997 2009 
L 1997 1497 
L 313 1497 
L 313 2009 
z
" transform="scale(0.015625)"/>
    </defs>
    <use xlink:href="#DejaVuSans-Oblique-79" transform="translate(0 0.015625)"/>
    <use xlink:href="#DejaVuSans-2d" transform="translate(59.179688 0.015625)"/>
    <use xlink:href="#DejaVuSans-50" transform="translate(95.263672 0.015625)"/>
    <use xlink:href="#DejaVuSans-6f" transform="translate(155.566406 0.015625)"/>
    <use xlink:href="#DejaVuSans-73" transform="translate(216.748047 0.015625)"/>
    <use xlink:href="#DejaVuSans-69" transform="translate(268.847656 0.015625)"/>
    <use xlink:href="#DejaVuSans-74" transform="translate(296.630859 0.015625)"/>
    <use xlink:href="#DejaVuSans-69" transform="translate(335.839844 0.015625)"/>
    <use xlink:href="#DejaVuSans-6f" transform="translate(363.623047 0.015625)"/>
    <use xlink:href="#DejaVuSans-6e" transform="translate(424.804688 0.015625)"/>
    <use xlink:href="#DejaVuSans-20" transform="translate(488.183594 0.015625)"/>
    <use xlink:href="#DejaVuSans-50" transform="translate(519.970703 0.015625)"/>
    <use xlink:href="#DejaVuSans-72" transform="translate(580.273438 0.015625)"/>
    <use xlink:href="#DejaVuSans-65" transform="translate(621.386719 0.015625)"/>
    <use xlink:href="#DejaVuSans-64" transform="translate(682.910156 0.015625)"/>
    <use xlink:href="#DejaVuSans-69" transform="translate(746.386719 0.015625)"/>
    <use xlink:href="#DejaVuSans-63" transform="translate(774.169922 0.015625)"/>
    <use xlink:href="#DejaVuSans-74" transform="translate(829.150391 0.015625)"/>
    <use xlink:href="#DejaVuSans-69" transform="translate(868.359375 0.015625)"/>
    <use xlink:href="#DejaVuSans-6f" transform="translate(896.142578 0.015625)"/>
    <use xlink:href="#DejaVuSans-6e" transform="translate(957.324219 0.015625)"/>
   </g>
  </g>
 </g>
 <defs>
  <clipPath id="p3af66977ef">
   <rect x="144" y="77.76" width="892.8" height="226.8"/>
  </clipPath>
  <clipPath id="paac52f4cc9">
   <rect x="144" y="349.92" width="892.8" height="226.8"/>
  </clipPath>
 </defs>
</svg>
