<?xml version="1.0" encoding="utf-8" standalone="no"?>
<!DOCTYPE svg PUBLIC "-//W3C//DTD SVG 1.1//EN"
  "http://www.w3.org/Graphics/SVG/1.1/DTD/svg11.dtd">
<svg xmlns:xlink="http://www.w3.org/1999/xlink" width="1152pt" height="648pt" viewBox="0 0 1152 648" xmlns="http://www.w3.org/2000/svg" version="1.1">
 <metadata>
  <rdf:RDF xmlns:dc="http://purl.org/dc/elements/1.1/" xmlns:cc="http://creativecommons.org/ns#" xmlns:rdf="http://www.w3.org/1999/02/22-rdf-syntax-ns#">
   <cc:Work>
    <dc:type rdf:resource="http://purl.org/dc/dcmitype/StillImage"/>
    <dc:date>2024-06-19T20:46:20.477541</dc:date>
    <dc:format>image/svg+xml</dc:format>
    <dc:creator>
     <cc:Agent>
      <dc:title>Matplotlib v3.9.0, https://matplotlib.org/</dc:title>
     </cc:Agent>
    </dc:creator>
   </cc:Work>
  </rdf:RDF>
 </metadata>
 <defs>
  <style type="text/css">*{stroke-linejoin: round; stroke-linecap: butt}</style>
 </defs>
 <g id="figure_1">
  <g id="patch_1">
   <path d="M 0 648 
L 1152 648 
L 1152 0 
L 0 0 
z
" style="fill: #ffffff"/>
  </g>
  <g id="axes_1">
   <g id="patch_2">
    <path d="M 144 304.56 
L 1036.8 304.56 
L 1036.8 77.76 
L 144 77.76 
z
" style="fill: #ffffff"/>
   </g>
   <g id="PolyCollection_1">
    <defs>
     <path id="m4fcf6a06b5" d="M 292.849617 -536.960067 
L 292.849617 -518.481001 
L 295.826609 -521.263049 
L 298.803601 -523.851289 
L 301.780594 -526.166028 
L 304.757586 -528.186787 
L 307.734578 -529.943177 
L 310.711571 -531.450368 
L 313.688563 -532.698806 
L 316.665555 -533.749519 
L 319.642548 -534.587602 
L 322.61954 -535.176455 
L 325.596532 -535.586464 
L 328.573525 -535.754909 
L 331.550517 -535.724505 
L 334.527509 -535.508171 
L 337.504502 -535.107681 
L 340.481494 -534.523384 
L 343.458486 -533.77522 
L 346.435478 -532.861227 
L 349.412471 -531.802987 
L 352.389463 -530.55815 
L 355.366455 -529.185803 
L 358.343448 -527.697141 
L 361.32044 -526.050319 
L 364.297432 -524.270116 
L 367.274425 -522.332228 
L 370.251417 -520.295829 
L 373.228409 -518.109197 
L 376.205402 -515.797501 
L 379.182394 -513.367116 
L 382.159386 -510.828993 
L 385.136379 -508.194129 
L 388.113371 -505.423901 
L 391.090363 -502.560302 
L 394.067356 -499.578674 
L 397.044348 -496.520059 
L 400.02134 -493.376258 
L 402.998333 -490.156848 
L 405.975325 -486.897559 
L 408.952317 -483.523739 
L 411.92931 -480.067389 
L 414.906302 -476.543934 
L 417.883294 -472.963418 
L 420.860287 -469.286648 
L 423.837279 -465.585303 
L 426.814271 -461.818572 
L 429.791264 -457.984059 
L 432.768256 -454.070087 
L 435.745248 -450.118569 
L 438.722241 -446.127678 
L 441.699233 -442.061471 
L 444.676225 -437.997814 
L 447.653218 -433.965086 
L 450.63021 -429.95805 
L 453.607202 -425.973859 
L 456.584195 -422.018302 
L 459.561187 -418.111693 
L 462.538179 -414.221575 
L 465.515172 -410.361298 
L 468.492164 -406.513627 
L 471.469156 -402.736973 
L 474.446149 -399.022287 
L 477.423141 -395.378643 
L 480.400133 -391.806024 
L 483.377126 -388.291257 
L 486.354118 -384.863815 
L 489.33111 -381.518558 
L 492.308103 -378.285392 
L 495.285095 -375.17923 
L 498.262087 -372.202817 
L 501.23908 -369.377148 
L 504.216072 -366.715189 
L 507.193064 -364.245482 
L 510.170057 -361.975691 
L 513.147049 -359.945994 
L 516.124041 -358.176907 
L 519.101034 -356.6536 
L 522.078026 -355.400079 
L 525.055018 -354.479056 
L 528.032011 -353.924645 
L 531.009003 -353.749091 
L 533.985995 -353.961564 
L 536.962988 -354.606557 
L 539.93998 -355.717897 
L 542.916972 -357.305482 
L 545.893965 -359.404179 
L 548.870957 -362.04567 
L 551.847949 -365.225057 
L 554.824942 -368.944139 
L 557.801934 -373.24378 
L 560.778926 -378.096014 
L 563.755919 -383.479461 
L 566.732911 -389.364544 
L 569.709903 -395.724779 
L 572.686896 -402.539301 
L 575.663888 -409.756318 
L 578.64088 -417.321549 
L 581.617873 -425.185675 
L 584.594865 -433.233295 
L 587.571857 -441.406303 
L 590.54885 -449.610736 
L 593.525842 -457.749907 
L 596.502834 -465.808109 
L 599.479827 -473.632608 
L 602.456819 -481.180976 
L 605.433811 -488.382754 
L 608.410804 -495.181655 
L 611.387796 -501.538444 
L 614.364788 -507.404169 
L 617.341781 -512.720487 
L 620.318773 -517.488419 
L 623.295765 -521.693374 
L 626.272758 -525.358485 
L 629.24975 -528.418089 
L 632.226742 -530.92657 
L 635.203735 -532.897965 
L 638.180727 -534.337468 
L 641.157719 -535.304945 
L 644.134712 -535.824156 
L 647.111704 -535.928335 
L 650.088696 -535.626632 
L 653.065689 -534.922928 
L 656.042681 -533.865208 
L 659.019673 -532.472639 
L 661.996666 -530.788156 
L 664.973658 -528.857648 
L 667.95065 -526.69664 
L 670.927643 -524.280816 
L 673.904635 -521.660717 
L 676.881627 -518.879562 
L 679.85862 -515.94642 
L 682.835612 -512.84205 
L 685.812604 -509.619438 
L 688.789597 -506.30172 
L 691.766589 -502.888088 
L 694.743581 -499.365955 
L 697.720574 -495.777527 
L 700.697566 -492.112189 
L 703.674558 -488.38741 
L 706.651551 -484.614403 
L 709.628543 -480.788427 
L 712.605535 -476.930388 
L 715.582528 -473.05975 
L 718.55952 -469.157727 
L 721.536512 -465.222829 
L 724.513505 -461.275458 
L 727.490497 -457.335334 
L 730.467489 -453.385721 
L 733.444481 -449.409547 
L 736.421474 -445.462116 
L 739.398466 -441.506491 
L 742.375458 -437.573743 
L 745.352451 -433.697019 
L 748.329443 -429.873289 
L 751.306435 -426.09809 
L 754.283428 -422.382807 
L 757.26042 -418.749627 
L 760.237412 -415.188199 
L 763.214405 -411.712161 
L 766.191397 -408.30074 
L 769.168389 -404.952996 
L 772.145382 -401.685112 
L 775.122374 -398.51015 
L 778.099366 -395.424671 
L 781.076359 -392.405717 
L 784.053351 -389.481319 
L 787.030343 -386.658795 
L 790.007336 -383.935195 
L 792.984328 -381.310572 
L 795.96132 -378.790806 
L 798.938313 -376.379717 
L 801.915305 -374.105602 
L 804.892297 -371.939652 
L 807.86929 -369.893 
L 810.846282 -367.957203 
L 813.823274 -366.175435 
L 816.800267 -364.529086 
L 819.777259 -363.017523 
L 822.754251 -361.649018 
L 825.731244 -360.420946 
L 828.708236 -359.361996 
L 831.685228 -358.456224 
L 834.662221 -357.695214 
L 837.639213 -357.094948 
L 840.616205 -356.642294 
L 843.593198 -356.332838 
L 846.57019 -356.198926 
L 849.547182 -356.227738 
L 852.524175 -356.420853 
L 855.501167 -356.766761 
L 858.478159 -357.262195 
L 861.455152 -357.906025 
L 864.432144 -358.698153 
L 867.409136 -359.651768 
L 870.386129 -360.739559 
L 873.363121 -361.965625 
L 876.340113 -363.329303 
L 879.317106 -364.815031 
L 882.294098 -366.403171 
L 885.27109 -368.11407 
L 888.248083 -369.933583 
L 891.225075 -371.833861 
L 894.202067 -373.826941 
L 897.17906 -375.90765 
L 900.156052 -378.066542 
L 903.133044 -380.268822 
L 906.110037 -382.533864 
L 909.087029 -384.844127 
L 912.064021 -387.19234 
L 915.041014 -389.569576 
L 918.018006 -391.966654 
L 920.994998 -394.376372 
L 923.971991 -396.787997 
L 926.948983 -399.204532 
L 929.925975 -401.620522 
L 932.902968 -404.013004 
L 935.87996 -406.393198 
L 938.856952 -408.748012 
L 941.833945 -411.062115 
L 944.810937 -413.342401 
L 947.787929 -415.57941 
L 950.764922 -417.773003 
L 953.741914 -419.910784 
L 956.718906 -421.99231 
L 959.695899 -424.021669 
L 962.672891 -425.977432 
L 965.649883 -427.889532 
L 968.626876 -429.719735 
L 971.603868 -431.494546 
L 974.58086 -433.195465 
L 977.557853 -434.83169 
L 980.534845 -436.390947 
L 983.511837 -437.880522 
L 986.48883 -439.285743 
L 989.465822 -440.638967 
L 992.442814 -441.879058 
L 995.419807 -443.077074 
L 998.396799 -444.174305 
L 1001.373791 -445.183912 
L 1004.350784 -446.129019 
L 1007.327776 -447.00212 
L 1010.304768 -447.788332 
L 1013.281761 -448.502588 
L 1016.258753 -449.137454 
L 1019.235745 -449.695833 
L 1022.212738 -450.161575 
L 1025.18973 -450.569432 
L 1028.166722 -450.901057 
L 1031.143715 -451.149601 
L 1034.120707 -451.322429 
L 1034.120707 -461.339369 
L 1034.120707 -461.339369 
L 1031.143715 -461.440178 
L 1028.166722 -461.459008 
L 1025.18973 -461.387907 
L 1022.212738 -461.237144 
L 1019.235745 -461.023214 
L 1016.258753 -460.708988 
L 1013.281761 -460.31322 
L 1010.304768 -459.835067 
L 1007.327776 -459.279752 
L 1004.350784 -458.633941 
L 1001.373791 -457.91934 
L 998.396799 -457.13596 
L 995.419807 -456.255176 
L 992.442814 -455.272967 
L 989.465822 -454.245152 
L 986.48883 -453.098668 
L 983.511837 -451.900622 
L 980.534845 -450.61401 
L 977.557853 -449.254999 
L 974.58086 -447.816505 
L 971.603868 -446.310693 
L 968.626876 -444.729755 
L 965.649883 -443.090112 
L 962.672891 -441.364848 
L 959.695899 -439.594687 
L 956.718906 -437.745961 
L 953.741914 -435.842474 
L 950.764922 -433.876383 
L 947.787929 -431.850173 
L 944.810937 -429.777627 
L 941.833945 -427.657778 
L 938.856952 -425.49778 
L 935.87996 -423.290432 
L 932.902968 -421.054766 
L 929.925975 -418.803335 
L 926.948983 -416.525284 
L 923.971991 -414.249005 
L 920.994998 -411.973296 
L 918.018006 -409.692869 
L 915.041014 -407.417689 
L 912.064021 -405.157464 
L 909.087029 -402.923307 
L 906.110037 -400.722329 
L 903.133044 -398.564908 
L 900.156052 -396.458669 
L 897.17906 -394.387188 
L 894.202067 -392.394712 
L 891.225075 -390.49046 
L 888.248083 -388.672265 
L 885.27109 -386.926704 
L 882.294098 -385.288999 
L 879.317106 -383.767435 
L 876.340113 -382.338894 
L 873.363121 -381.031305 
L 870.386129 -379.859804 
L 867.409136 -378.821596 
L 864.432144 -377.916345 
L 861.455152 -377.173268 
L 858.478159 -376.57369 
L 855.501167 -376.116991 
L 852.524175 -375.804125 
L 849.547182 -375.642863 
L 846.57019 -375.644442 
L 843.593198 -375.811872 
L 840.616205 -376.152836 
L 837.639213 -376.63049 
L 834.662221 -377.252771 
L 831.685228 -378.036771 
L 828.708236 -378.961644 
L 825.731244 -380.042171 
L 822.754251 -381.293577 
L 819.777259 -382.685098 
L 816.800267 -384.218486 
L 813.823274 -385.885234 
L 810.846282 -387.689895 
L 807.86929 -389.651272 
L 804.892297 -391.723085 
L 801.915305 -393.914198 
L 798.938313 -396.214996 
L 795.96132 -398.657235 
L 792.984328 -401.210988 
L 790.007336 -403.872183 
L 787.030343 -406.635007 
L 784.053351 -409.499801 
L 781.076359 -412.471764 
L 778.099366 -415.543494 
L 775.122374 -418.686157 
L 772.145382 -421.923169 
L 769.168389 -425.257887 
L 766.191397 -428.678751 
L 763.214405 -432.168722 
L 760.237412 -435.72631 
L 757.26042 -439.369178 
L 754.283428 -443.081771 
L 751.306435 -446.873364 
L 748.329443 -450.720395 
L 745.352451 -454.606511 
L 742.375458 -458.528694 
L 739.398466 -462.500293 
L 736.421474 -466.500643 
L 733.444481 -470.497362 
L 730.467489 -474.528774 
L 727.490497 -478.542065 
L 724.513505 -482.548614 
L 721.536512 -486.564822 
L 718.55952 -490.574406 
L 715.582528 -494.556072 
L 712.605535 -498.507415 
L 709.628543 -502.445703 
L 706.651551 -506.354172 
L 703.674558 -510.210627 
L 700.697566 -514.019318 
L 697.720574 -517.768951 
L 694.743581 -521.44279 
L 691.766589 -525.050778 
L 688.789597 -528.550165 
L 685.812604 -531.951191 
L 682.835612 -535.259157 
L 679.85862 -538.453255 
L 676.881627 -541.47714 
L 673.904635 -544.353252 
L 670.927643 -547.078323 
L 667.95065 -549.607197 
L 664.973658 -551.884589 
L 661.996666 -553.941765 
L 659.019673 -555.76541 
L 656.042681 -557.306963 
L 653.065689 -558.523409 
L 650.088696 -559.394457 
L 647.111704 -559.862807 
L 644.134712 -559.930909 
L 641.157719 -559.593941 
L 638.180727 -558.822075 
L 635.203735 -557.577618 
L 632.226742 -555.792224 
L 629.24975 -553.474637 
L 626.272758 -550.588287 
L 623.295765 -547.08094 
L 620.318773 -543.039568 
L 617.341781 -538.418549 
L 614.364788 -533.20705 
L 611.387796 -527.422207 
L 608.410804 -521.154542 
L 605.433811 -514.432304 
L 602.456819 -507.294418 
L 599.479827 -499.778851 
L 596.502834 -491.950504 
L 593.525842 -483.885556 
L 590.54885 -475.723112 
L 587.571857 -467.442467 
L 584.594865 -459.171986 
L 581.617873 -451.000989 
L 578.64088 -443.000226 
L 575.663888 -435.301957 
L 572.686896 -427.946482 
L 569.709903 -420.987619 
L 566.732911 -414.469124 
L 563.755919 -408.413639 
L 560.778926 -402.853581 
L 557.801934 -397.825342 
L 554.824942 -393.350475 
L 551.847949 -389.452519 
L 548.870957 -386.096305 
L 545.893965 -383.280805 
L 542.916972 -381.006691 
L 539.93998 -379.245937 
L 536.962988 -377.964697 
L 533.985995 -377.149055 
L 531.009003 -376.77048 
L 528.032011 -376.789209 
L 525.055018 -377.189937 
L 522.078026 -377.952697 
L 519.101034 -379.049944 
L 516.124041 -380.431201 
L 513.147049 -382.072423 
L 510.170057 -383.972811 
L 507.193064 -386.119801 
L 504.216072 -388.471983 
L 501.23908 -391.024931 
L 498.262087 -393.748345 
L 495.285095 -396.631586 
L 492.308103 -399.650246 
L 489.33111 -402.798593 
L 486.354118 -406.067107 
L 483.377126 -409.42963 
L 480.400133 -412.888406 
L 477.423141 -416.418676 
L 474.446149 -420.0243 
L 471.469156 -423.706987 
L 468.492164 -427.450207 
L 465.515172 -431.268322 
L 462.538179 -435.112748 
L 459.561187 -438.999166 
L 456.584195 -442.903843 
L 453.607202 -446.848549 
L 450.63021 -450.816912 
L 447.653218 -454.797364 
L 444.676225 -458.78031 
L 441.699233 -462.77505 
L 438.722241 -466.777181 
L 435.745248 -470.717649 
L 432.768256 -474.616201 
L 429.791264 -478.48325 
L 426.814271 -482.281286 
L 423.837279 -486.022288 
L 420.860287 -489.694675 
L 417.883294 -493.337247 
L 414.906302 -496.89396 
L 411.92931 -500.390683 
L 408.952317 -503.819935 
L 405.975325 -507.18119 
L 402.998333 -510.432069 
L 400.02134 -513.629781 
L 397.044348 -516.749843 
L 394.067356 -519.781955 
L 391.090363 -522.738418 
L 388.113371 -525.583162 
L 385.136379 -528.338331 
L 382.159386 -530.969862 
L 379.182394 -533.502143 
L 376.205402 -535.925592 
L 373.228409 -538.231841 
L 370.251417 -540.42006 
L 367.274425 -542.456782 
L 364.297432 -544.386861 
L 361.32044 -546.160608 
L 358.343448 -547.79856 
L 355.366455 -549.269274 
L 352.389463 -550.598375 
L 349.412471 -551.786979 
L 346.435478 -552.778829 
L 343.458486 -553.615293 
L 340.481494 -554.272896 
L 337.504502 -554.75921 
L 334.527509 -555.062219 
L 331.550517 -555.184985 
L 328.573525 -555.132531 
L 325.596532 -554.901444 
L 322.61954 -554.449481 
L 319.642548 -553.839431 
L 316.665555 -553.001597 
L 313.688563 -551.960925 
L 310.711571 -550.720809 
L 307.734578 -549.205764 
L 304.757586 -547.402025 
L 301.780594 -545.27489 
L 298.803601 -542.788768 
L 295.826609 -539.953107 
L 292.849617 -536.960067 
z
" style="stroke: #00ffff; stroke-opacity: 0.5"/>
    </defs>
    <g clip-path="url(#pc21acab223)">
     <use xlink:href="#m4fcf6a06b5" x="0" y="648" style="fill: #00ffff; fill-opacity: 0.5; stroke: #00ffff; stroke-opacity: 0.5"/>
    </g>
   </g>
   <g id="matplotlib.axis_1">
    <g id="xtick_1">
     <g id="line2d_1">
      <defs>
       <path id="ma1f1f06658" d="M 0 0 
L 0 3.5 
" style="stroke: #000000; stroke-width: 0.8"/>
      </defs>
      <g>
       <use xlink:href="#ma1f1f06658" x="144" y="304.56" style="stroke: #000000; stroke-width: 0.8"/>
      </g>
     </g>
     <g id="text_1">
      <!-- 0 -->
      <g transform="translate(140.81875 319.158437) scale(0.1 -0.1)">
       <defs>
        <path id="DejaVuSans-30" d="M 2034 4250 
Q 1547 4250 1301 3770 
Q 1056 3291 1056 2328 
Q 1056 1369 1301 889 
Q 1547 409 2034 409 
Q 2525 409 2770 889 
Q 3016 1369 3016 2328 
Q 3016 3291 2770 3770 
Q 2525 4250 2034 4250 
z
M 2034 4750 
Q 2819 4750 3233 4129 
Q 3647 3509 3647 2328 
Q 3647 1150 3233 529 
Q 2819 -91 2034 -91 
Q 1250 -91 836 529 
Q 422 1150 422 2328 
Q 422 3509 836 4129 
Q 1250 4750 2034 4750 
z
" transform="scale(0.015625)"/>
       </defs>
       <use xlink:href="#DejaVuSans-30"/>
      </g>
     </g>
    </g>
    <g id="xtick_2">
     <g id="line2d_2">
      <g>
       <use xlink:href="#ma1f1f06658" x="292.849617" y="304.56" style="stroke: #000000; stroke-width: 0.8"/>
      </g>
     </g>
     <g id="text_2">
      <!-- 5 -->
      <g transform="translate(289.668367 319.158437) scale(0.1 -0.1)">
       <defs>
        <path id="DejaVuSans-35" d="M 691 4666 
L 3169 4666 
L 3169 4134 
L 1269 4134 
L 1269 2991 
Q 1406 3038 1543 3061 
Q 1681 3084 1819 3084 
Q 2600 3084 3056 2656 
Q 3513 2228 3513 1497 
Q 3513 744 3044 326 
Q 2575 -91 1722 -91 
Q 1428 -91 1123 -41 
Q 819 9 494 109 
L 494 744 
Q 775 591 1075 516 
Q 1375 441 1709 441 
Q 2250 441 2565 725 
Q 2881 1009 2881 1497 
Q 2881 1984 2565 2268 
Q 2250 2553 1709 2553 
Q 1456 2553 1204 2497 
Q 953 2441 691 2322 
L 691 4666 
z
" transform="scale(0.015625)"/>
       </defs>
       <use xlink:href="#DejaVuSans-35"/>
      </g>
     </g>
    </g>
    <g id="xtick_3">
     <g id="line2d_3">
      <g>
       <use xlink:href="#ma1f1f06658" x="441.699233" y="304.56" style="stroke: #000000; stroke-width: 0.8"/>
      </g>
     </g>
     <g id="text_3">
      <!-- 10 -->
      <g transform="translate(435.336733 319.158437) scale(0.1 -0.1)">
       <defs>
        <path id="DejaVuSans-31" d="M 794 531 
L 1825 531 
L 1825 4091 
L 703 3866 
L 703 4441 
L 1819 4666 
L 2450 4666 
L 2450 531 
L 3481 531 
L 3481 0 
L 794 0 
L 794 531 
z
" transform="scale(0.015625)"/>
       </defs>
       <use xlink:href="#DejaVuSans-31"/>
       <use xlink:href="#DejaVuSans-30" x="63.623047"/>
      </g>
     </g>
    </g>
    <g id="xtick_4">
     <g id="line2d_4">
      <g>
       <use xlink:href="#ma1f1f06658" x="590.54885" y="304.56" style="stroke: #000000; stroke-width: 0.8"/>
      </g>
     </g>
     <g id="text_4">
      <!-- 15 -->
      <g transform="translate(584.18635 319.158437) scale(0.1 -0.1)">
       <use xlink:href="#DejaVuSans-31"/>
       <use xlink:href="#DejaVuSans-35" x="63.623047"/>
      </g>
     </g>
    </g>
    <g id="xtick_5">
     <g id="line2d_5">
      <g>
       <use xlink:href="#ma1f1f06658" x="739.398466" y="304.56" style="stroke: #000000; stroke-width: 0.8"/>
      </g>
     </g>
     <g id="text_5">
      <!-- 20 -->
      <g transform="translate(733.035966 319.158437) scale(0.1 -0.1)">
       <defs>
        <path id="DejaVuSans-32" d="M 1228 531 
L 3431 531 
L 3431 0 
L 469 0 
L 469 531 
Q 828 903 1448 1529 
Q 2069 2156 2228 2338 
Q 2531 2678 2651 2914 
Q 2772 3150 2772 3378 
Q 2772 3750 2511 3984 
Q 2250 4219 1831 4219 
Q 1534 4219 1204 4116 
Q 875 4013 500 3803 
L 500 4441 
Q 881 4594 1212 4672 
Q 1544 4750 1819 4750 
Q 2544 4750 2975 4387 
Q 3406 4025 3406 3419 
Q 3406 3131 3298 2873 
Q 3191 2616 2906 2266 
Q 2828 2175 2409 1742 
Q 1991 1309 1228 531 
z
" transform="scale(0.015625)"/>
       </defs>
       <use xlink:href="#DejaVuSans-32"/>
       <use xlink:href="#DejaVuSans-30" x="63.623047"/>
      </g>
     </g>
    </g>
    <g id="xtick_6">
     <g id="line2d_6">
      <g>
       <use xlink:href="#ma1f1f06658" x="888.248083" y="304.56" style="stroke: #000000; stroke-width: 0.8"/>
      </g>
     </g>
     <g id="text_6">
      <!-- 25 -->
      <g transform="translate(881.885583 319.158437) scale(0.1 -0.1)">
       <use xlink:href="#DejaVuSans-32"/>
       <use xlink:href="#DejaVuSans-35" x="63.623047"/>
      </g>
     </g>
    </g>
   </g>
   <g id="matplotlib.axis_2">
    <g id="ytick_1">
     <g id="line2d_7">
      <defs>
       <path id="ma7ad5e9b2d" d="M 0 0 
L -3.5 0 
" style="stroke: #000000; stroke-width: 0.8"/>
      </defs>
      <g>
       <use xlink:href="#ma7ad5e9b2d" x="144" y="293.395833" style="stroke: #000000; stroke-width: 0.8"/>
      </g>
     </g>
     <g id="text_7">
      <!-- 1.4 -->
      <g transform="translate(121.096875 297.195051) scale(0.1 -0.1)">
       <defs>
        <path id="DejaVuSans-2e" d="M 684 794 
L 1344 794 
L 1344 0 
L 684 0 
L 684 794 
z
" transform="scale(0.015625)"/>
        <path id="DejaVuSans-34" d="M 2419 4116 
L 825 1625 
L 2419 1625 
L 2419 4116 
z
M 2253 4666 
L 3047 4666 
L 3047 1625 
L 3713 1625 
L 3713 1100 
L 3047 1100 
L 3047 0 
L 2419 0 
L 2419 1100 
L 313 1100 
L 313 1709 
L 2253 4666 
z
" transform="scale(0.015625)"/>
       </defs>
       <use xlink:href="#DejaVuSans-31"/>
       <use xlink:href="#DejaVuSans-2e" x="63.623047"/>
       <use xlink:href="#DejaVuSans-34" x="95.410156"/>
      </g>
     </g>
    </g>
    <g id="ytick_2">
     <g id="line2d_8">
      <g>
       <use xlink:href="#ma7ad5e9b2d" x="144" y="259.821503" style="stroke: #000000; stroke-width: 0.8"/>
      </g>
     </g>
     <g id="text_8">
      <!-- 1.6 -->
      <g transform="translate(121.096875 263.620722) scale(0.1 -0.1)">
       <defs>
        <path id="DejaVuSans-36" d="M 2113 2584 
Q 1688 2584 1439 2293 
Q 1191 2003 1191 1497 
Q 1191 994 1439 701 
Q 1688 409 2113 409 
Q 2538 409 2786 701 
Q 3034 994 3034 1497 
Q 3034 2003 2786 2293 
Q 2538 2584 2113 2584 
z
M 3366 4563 
L 3366 3988 
Q 3128 4100 2886 4159 
Q 2644 4219 2406 4219 
Q 1781 4219 1451 3797 
Q 1122 3375 1075 2522 
Q 1259 2794 1537 2939 
Q 1816 3084 2150 3084 
Q 2853 3084 3261 2657 
Q 3669 2231 3669 1497 
Q 3669 778 3244 343 
Q 2819 -91 2113 -91 
Q 1303 -91 875 529 
Q 447 1150 447 2328 
Q 447 3434 972 4092 
Q 1497 4750 2381 4750 
Q 2619 4750 2861 4703 
Q 3103 4656 3366 4563 
z
" transform="scale(0.015625)"/>
       </defs>
       <use xlink:href="#DejaVuSans-31"/>
       <use xlink:href="#DejaVuSans-2e" x="63.623047"/>
       <use xlink:href="#DejaVuSans-36" x="95.410156"/>
      </g>
     </g>
    </g>
    <g id="ytick_3">
     <g id="line2d_9">
      <g>
       <use xlink:href="#ma7ad5e9b2d" x="144" y="226.247174" style="stroke: #000000; stroke-width: 0.8"/>
      </g>
     </g>
     <g id="text_9">
      <!-- 1.8 -->
      <g transform="translate(121.096875 230.046393) scale(0.1 -0.1)">
       <defs>
        <path id="DejaVuSans-38" d="M 2034 2216 
Q 1584 2216 1326 1975 
Q 1069 1734 1069 1313 
Q 1069 891 1326 650 
Q 1584 409 2034 409 
Q 2484 409 2743 651 
Q 3003 894 3003 1313 
Q 3003 1734 2745 1975 
Q 2488 2216 2034 2216 
z
M 1403 2484 
Q 997 2584 770 2862 
Q 544 3141 544 3541 
Q 544 4100 942 4425 
Q 1341 4750 2034 4750 
Q 2731 4750 3128 4425 
Q 3525 4100 3525 3541 
Q 3525 3141 3298 2862 
Q 3072 2584 2669 2484 
Q 3125 2378 3379 2068 
Q 3634 1759 3634 1313 
Q 3634 634 3220 271 
Q 2806 -91 2034 -91 
Q 1263 -91 848 271 
Q 434 634 434 1313 
Q 434 1759 690 2068 
Q 947 2378 1403 2484 
z
M 1172 3481 
Q 1172 3119 1398 2916 
Q 1625 2713 2034 2713 
Q 2441 2713 2670 2916 
Q 2900 3119 2900 3481 
Q 2900 3844 2670 4047 
Q 2441 4250 2034 4250 
Q 1625 4250 1398 4047 
Q 1172 3844 1172 3481 
z
" transform="scale(0.015625)"/>
       </defs>
       <use xlink:href="#DejaVuSans-31"/>
       <use xlink:href="#DejaVuSans-2e" x="63.623047"/>
       <use xlink:href="#DejaVuSans-38" x="95.410156"/>
      </g>
     </g>
    </g>
    <g id="ytick_4">
     <g id="line2d_10">
      <g>
       <use xlink:href="#ma7ad5e9b2d" x="144" y="192.672844" style="stroke: #000000; stroke-width: 0.8"/>
      </g>
     </g>
     <g id="text_10">
      <!-- 2.0 -->
      <g transform="translate(121.096875 196.472063) scale(0.1 -0.1)">
       <use xlink:href="#DejaVuSans-32"/>
       <use xlink:href="#DejaVuSans-2e" x="63.623047"/>
       <use xlink:href="#DejaVuSans-30" x="95.410156"/>
      </g>
     </g>
    </g>
    <g id="ytick_5">
     <g id="line2d_11">
      <g>
       <use xlink:href="#ma7ad5e9b2d" x="144" y="159.098515" style="stroke: #000000; stroke-width: 0.8"/>
      </g>
     </g>
     <g id="text_11">
      <!-- 2.2 -->
      <g transform="translate(121.096875 162.897734) scale(0.1 -0.1)">
       <use xlink:href="#DejaVuSans-32"/>
       <use xlink:href="#DejaVuSans-2e" x="63.623047"/>
       <use xlink:href="#DejaVuSans-32" x="95.410156"/>
      </g>
     </g>
    </g>
    <g id="ytick_6">
     <g id="line2d_12">
      <g>
       <use xlink:href="#ma7ad5e9b2d" x="144" y="125.524185" style="stroke: #000000; stroke-width: 0.8"/>
      </g>
     </g>
     <g id="text_12">
      <!-- 2.4 -->
      <g transform="translate(121.096875 129.323404) scale(0.1 -0.1)">
       <use xlink:href="#DejaVuSans-32"/>
       <use xlink:href="#DejaVuSans-2e" x="63.623047"/>
       <use xlink:href="#DejaVuSans-34" x="95.410156"/>
      </g>
     </g>
    </g>
    <g id="ytick_7">
     <g id="line2d_13">
      <g>
       <use xlink:href="#ma7ad5e9b2d" x="144" y="91.949856" style="stroke: #000000; stroke-width: 0.8"/>
      </g>
     </g>
     <g id="text_13">
      <!-- 2.6 -->
      <g transform="translate(121.096875 95.749075) scale(0.1 -0.1)">
       <use xlink:href="#DejaVuSans-32"/>
       <use xlink:href="#DejaVuSans-2e" x="63.623047"/>
       <use xlink:href="#DejaVuSans-36" x="95.410156"/>
      </g>
     </g>
    </g>
   </g>
   <g id="line2d_14">
    <path d="M 144 192.672844 
L 145.488496 192.801061 
L 146.976992 193.182842 
L 151.74018 194.701719 
L 154.717172 195.396691 
L 157.396465 195.806197 
L 160.373458 196.032341 
L 163.648149 196.060134 
L 166.922841 195.874101 
L 170.792931 195.419446 
L 174.663021 194.734002 
L 178.83081 193.764261 
L 183.296299 192.491554 
L 187.761787 191.000234 
L 192.524975 189.180346 
L 197.585862 187.006288 
L 202.944448 184.453 
L 208.303034 181.655827 
L 213.95932 178.465078 
L 219.913304 174.828821 
L 226.164988 170.764982 
L 233.012071 166.022335 
L 240.752251 160.393235 
L 251.469423 152.337593 
L 272.01067 136.82932 
L 280.04855 131.178675 
L 285.704835 127.483711 
L 290.765722 124.429625 
L 294.338113 122.26539 
L 295.826609 120.967429 
L 300.887496 116.156115 
L 303.864488 113.668968 
L 306.543781 111.711448 
L 309.520774 109.821461 
L 312.497766 108.216015 
L 315.474758 106.87536 
L 318.74945 105.6452 
L 321.726442 104.749603 
L 325.001134 104.026828 
L 327.978126 103.568774 
L 331.252818 103.309692 
L 334.527509 103.287663 
L 337.802201 103.484989 
L 341.076892 103.90501 
L 344.649283 104.601616 
L 347.923975 105.459361 
L 351.496365 106.621274 
L 355.068756 108.029246 
L 359.236546 109.916795 
L 362.808936 111.769441 
L 366.679026 114.020121 
L 371.144515 116.899625 
L 375.312304 119.856847 
L 379.777793 123.302076 
L 384.54098 127.248451 
L 389.006469 131.21371 
L 394.067356 136.003822 
L 399.723641 141.69394 
L 405.975325 148.306237 
L 411.333911 154.247136 
L 417.883294 161.856884 
L 424.432678 169.797544 
L 431.27976 178.393098 
L 439.01994 188.492491 
L 447.950917 200.509094 
L 461.049683 217.95065 
L 472.659953 232.96893 
L 479.507036 241.446629 
L 486.354118 249.551017 
L 492.308103 256.249012 
L 497.07129 261.280438 
L 501.536779 265.695755 
L 505.704568 269.509386 
L 509.276959 272.496362 
L 512.84935 275.192105 
L 515.826342 277.172013 
L 519.101034 279.066684 
L 522.078026 280.524816 
L 524.757319 281.591803 
L 527.138913 282.31498 
L 529.520507 282.8099 
L 531.902101 283.070648 
L 534.283695 283.092552 
L 536.367589 282.901151 
L 538.451484 282.498699 
L 540.535378 281.875419 
L 542.619273 281.025793 
L 544.703168 279.942337 
L 546.787062 278.616069 
L 548.870957 277.027942 
L 550.954852 275.177039 
L 553.336445 272.741412 
L 555.718039 269.963764 
L 558.099633 266.819546 
L 560.481227 263.31044 
L 563.16052 258.94617 
L 565.839813 254.146089 
L 568.816806 248.332106 
L 571.793798 242.045238 
L 575.068489 234.601058 
L 578.64088 225.918047 
L 582.51097 215.930977 
L 587.869557 201.456199 
L 600.968323 165.726664 
L 605.136112 155.085846 
L 608.708503 146.507844 
L 612.280894 138.518786 
L 615.555585 131.760754 
L 618.234878 126.710289 
L 620.914171 122.117805 
L 623.593464 117.988654 
L 626.272758 114.299304 
L 628.654351 111.406497 
L 631.035945 108.89291 
L 633.11984 106.99486 
L 635.203735 105.363068 
L 637.287629 104.002785 
L 639.371524 102.915874 
L 641.455418 102.067821 
L 643.539313 101.447569 
L 645.623208 101.043732 
L 647.707102 100.841533 
L 649.790997 100.841359 
L 651.874892 101.04486 
L 654.256485 101.518898 
L 656.638079 102.229778 
L 659.019673 103.165944 
L 661.698966 104.469956 
L 664.675959 106.18804 
L 667.95065 108.352512 
L 670.927643 110.583434 
L 674.202334 113.305646 
L 678.072424 116.812613 
L 682.240213 120.896438 
L 686.705702 125.603008 
L 692.064288 131.572892 
L 697.422874 137.875819 
L 703.674558 145.5561 
L 711.414738 155.431236 
L 722.727309 170.285906 
L 751.901834 208.952511 
L 759.046616 217.946204 
L 765.298299 225.459701 
L 772.145382 233.337913 
L 777.801667 239.504567 
L 784.053351 245.978585 
L 789.411937 251.200456 
L 794.770524 256.098117 
L 799.83141 260.415735 
L 804.296899 263.929153 
L 809.060087 267.392059 
L 813.525575 270.367473 
L 817.693364 272.856437 
L 821.861154 275.083077 
L 825.731244 276.906808 
L 829.303635 278.364027 
L 832.876025 279.591689 
L 836.448416 280.602482 
L 840.020807 281.391876 
L 843.890897 282.012642 
L 847.165589 282.334991 
L 850.737979 282.455822 
L 854.31037 282.338963 
L 857.882761 281.999719 
L 861.752851 281.392706 
L 865.325242 280.6146 
L 868.897633 279.612521 
L 872.767723 278.294482 
L 876.637813 276.743459 
L 880.805602 274.822888 
L 885.27109 272.526461 
L 889.736579 269.978781 
L 894.797466 266.84127 
L 899.858353 263.441311 
L 906.705435 258.538476 
L 914.445615 252.685697 
L 927.246682 242.667409 
L 941.833945 231.31176 
L 949.871824 225.368845 
L 956.421207 220.778611 
L 962.97059 216.466209 
L 969.222274 212.627077 
L 975.176259 209.243857 
L 980.832544 206.286971 
L 986.48883 203.597199 
L 992.145115 201.173052 
L 998.0991 198.930384 
L 1002.862287 197.390431 
L 1008.518573 195.802674 
L 1013.281761 194.690743 
L 1018.342648 193.726374 
L 1023.105835 193.04138 
L 1028.464421 192.502067 
L 1033.525308 192.230606 
L 1036.8 192.175125 
L 1036.8 192.175125 
" clip-path="url(#pc21acab223)" style="fill: none; stroke-dasharray: 5.55,2.4; stroke-dashoffset: 0; stroke: #ffa500; stroke-width: 1.5"/>
   </g>
   <g id="line2d_15">
    <path d="M 292.849617 120.279466 
L 295.826609 117.391922 
L 298.803601 114.679971 
L 301.780594 112.279541 
L 304.757586 110.205594 
L 307.734578 108.42553 
L 310.711571 106.914412 
L 313.688563 105.670134 
L 316.665555 104.624442 
L 319.642548 103.786483 
L 322.61954 103.187032 
L 325.596532 102.756046 
L 328.573525 102.55628 
L 331.550517 102.545255 
L 334.527509 102.714805 
L 337.504502 103.066555 
L 340.481494 103.60186 
L 343.458486 104.304743 
L 346.435478 105.179972 
L 349.412471 106.205017 
L 352.389463 107.421737 
L 355.366455 108.772461 
L 358.343448 110.25215 
L 361.32044 111.894537 
L 364.297432 113.671512 
L 370.251417 117.642056 
L 376.205402 122.138453 
L 382.159386 127.100573 
L 388.113371 132.496469 
L 394.067356 138.319686 
L 400.02134 144.49698 
L 405.975325 150.960626 
L 411.92931 157.770964 
L 417.883294 164.849667 
L 426.814271 175.950071 
L 432.768256 183.656856 
L 441.699233 195.581739 
L 453.607202 211.588796 
L 462.538179 223.332838 
L 471.469156 234.77802 
L 477.423141 242.101341 
L 483.377126 249.139557 
L 489.33111 255.841424 
L 495.285095 262.094592 
L 501.23908 267.79896 
L 504.216072 270.406414 
L 507.193064 272.817359 
L 510.170057 275.025749 
L 513.147049 276.990792 
L 516.124041 278.695946 
L 519.101034 280.148228 
L 522.078026 281.323612 
L 525.055018 282.165504 
L 528.032011 282.643073 
L 531.009003 282.740215 
L 533.985995 282.444691 
L 536.962988 281.714373 
L 539.93998 280.518083 
L 542.916972 278.843914 
L 545.893965 276.657508 
L 548.870957 273.929012 
L 551.847949 270.661212 
L 554.824942 266.852693 
L 557.801934 262.465439 
L 560.778926 257.525203 
L 563.755919 252.05345 
L 566.732911 246.083166 
L 569.709903 239.643801 
L 572.686896 232.757109 
L 575.663888 225.470862 
L 581.617873 209.906668 
L 599.479827 161.294271 
L 602.456819 153.762303 
L 605.433811 146.592471 
L 608.410804 139.831902 
L 611.387796 133.519675 
L 614.364788 127.694391 
L 617.341781 122.430482 
L 620.318773 117.736007 
L 623.295765 113.612843 
L 626.272758 110.026614 
L 629.24975 107.053637 
L 632.226742 104.640603 
L 635.203735 102.762208 
L 638.180727 101.420228 
L 641.157719 100.550557 
L 644.134712 100.122468 
L 647.111704 100.104429 
L 650.088696 100.489455 
L 653.065689 101.276831 
L 656.042681 102.413915 
L 659.019673 103.880976 
L 661.996666 105.635039 
L 664.973658 107.628882 
L 667.95065 109.848081 
L 670.927643 112.32043 
L 673.904635 114.993015 
L 679.85862 120.800162 
L 685.812604 127.214686 
L 691.766589 134.030567 
L 697.720574 141.226761 
L 706.651551 152.515712 
L 718.55952 168.133933 
L 748.329443 207.703158 
L 754.283428 215.267711 
L 760.237412 222.542746 
L 766.191397 229.510254 
L 772.145382 236.19586 
L 778.099366 242.515918 
L 784.053351 248.50944 
L 790.007336 254.096311 
L 795.96132 259.27598 
L 801.915305 263.9901 
L 807.86929 268.227864 
L 810.846282 270.176451 
L 813.823274 271.969665 
L 816.800267 273.626214 
L 819.777259 275.148689 
L 822.754251 276.528702 
L 825.731244 277.768441 
L 828.708236 278.83818 
L 831.685228 279.753503 
L 834.662221 280.526008 
L 837.639213 281.137281 
L 840.616205 281.602435 
L 843.593198 281.927645 
L 846.57019 282.078316 
L 849.547182 282.064699 
L 852.524175 281.887511 
L 855.501167 281.558124 
L 858.478159 281.082058 
L 861.455152 280.460354 
L 864.432144 279.692751 
L 867.409136 278.763318 
L 870.386129 277.700318 
L 873.363121 276.501535 
L 879.317106 273.708767 
L 885.27109 270.479613 
L 891.225075 266.837839 
L 897.17906 262.852581 
L 906.110037 256.371903 
L 915.041014 249.506368 
L 938.856952 230.877104 
L 947.787929 224.285209 
L 953.741914 220.123371 
L 959.695899 216.191822 
L 965.649883 212.510178 
L 971.603868 209.09738 
L 977.557853 205.956655 
L 983.511837 203.109428 
L 989.465822 200.557941 
L 995.419807 198.333875 
L 1001.373791 196.448374 
L 1007.327776 194.859064 
L 1013.281761 193.592096 
L 1019.235745 192.640476 
L 1025.18973 192.021331 
L 1031.143715 191.705111 
L 1034.120707 191.669101 
L 1034.120707 191.669101 
" clip-path="url(#pc21acab223)" style="fill: none; stroke: #0000ff; stroke-opacity: 0.5; stroke-width: 1.5; stroke-linecap: square"/>
   </g>
   <g id="patch_3">
    <path d="M 144 304.56 
L 144 77.76 
" style="fill: none; stroke: #000000; stroke-width: 0.8; stroke-linejoin: miter; stroke-linecap: square"/>
   </g>
   <g id="patch_4">
    <path d="M 1036.8 304.56 
L 1036.8 77.76 
" style="fill: none; stroke: #000000; stroke-width: 0.8; stroke-linejoin: miter; stroke-linecap: square"/>
   </g>
   <g id="patch_5">
    <path d="M 144 304.56 
L 1036.8 304.56 
" style="fill: none; stroke: #000000; stroke-width: 0.8; stroke-linejoin: miter; stroke-linecap: square"/>
   </g>
   <g id="patch_6">
    <path d="M 144 77.76 
L 1036.8 77.76 
" style="fill: none; stroke: #000000; stroke-width: 0.8; stroke-linejoin: miter; stroke-linecap: square"/>
   </g>
   <g id="legend_1">
    <g id="patch_7">
     <path d="M 924.2 129.838125 
L 1029.8 129.838125 
Q 1031.8 129.838125 1031.8 127.838125 
L 1031.8 84.76 
Q 1031.8 82.76 1029.8 82.76 
L 924.2 82.76 
Q 922.2 82.76 922.2 84.76 
L 922.2 127.838125 
Q 922.2 129.838125 924.2 129.838125 
z
" style="fill: #ffffff; opacity: 0.8; stroke: #cccccc; stroke-linejoin: miter"/>
    </g>
    <g id="line2d_16">
     <path d="M 926.2 90.86 
L 936.2 90.86 
L 946.2 90.86 
" style="fill: none; stroke-dasharray: 5.55,2.4; stroke-dashoffset: 0; stroke: #ffa500; stroke-width: 1.5"/>
    </g>
    <g id="text_14">
     <!-- Real $y$ Position -->
     <g transform="translate(954.2 94.36) scale(0.1 -0.1)">
      <defs>
       <path id="DejaVuSans-52" d="M 2841 2188 
Q 3044 2119 3236 1894 
Q 3428 1669 3622 1275 
L 4263 0 
L 3584 0 
L 2988 1197 
Q 2756 1666 2539 1819 
Q 2322 1972 1947 1972 
L 1259 1972 
L 1259 0 
L 628 0 
L 628 4666 
L 2053 4666 
Q 2853 4666 3247 4331 
Q 3641 3997 3641 3322 
Q 3641 2881 3436 2590 
Q 3231 2300 2841 2188 
z
M 1259 4147 
L 1259 2491 
L 2053 2491 
Q 2509 2491 2742 2702 
Q 2975 2913 2975 3322 
Q 2975 3731 2742 3939 
Q 2509 4147 2053 4147 
L 1259 4147 
z
" transform="scale(0.015625)"/>
       <path id="DejaVuSans-65" d="M 3597 1894 
L 3597 1613 
L 953 1613 
Q 991 1019 1311 708 
Q 1631 397 2203 397 
Q 2534 397 2845 478 
Q 3156 559 3463 722 
L 3463 178 
Q 3153 47 2828 -22 
Q 2503 -91 2169 -91 
Q 1331 -91 842 396 
Q 353 884 353 1716 
Q 353 2575 817 3079 
Q 1281 3584 2069 3584 
Q 2775 3584 3186 3129 
Q 3597 2675 3597 1894 
z
M 3022 2063 
Q 3016 2534 2758 2815 
Q 2500 3097 2075 3097 
Q 1594 3097 1305 2825 
Q 1016 2553 972 2059 
L 3022 2063 
z
" transform="scale(0.015625)"/>
       <path id="DejaVuSans-61" d="M 2194 1759 
Q 1497 1759 1228 1600 
Q 959 1441 959 1056 
Q 959 750 1161 570 
Q 1363 391 1709 391 
Q 2188 391 2477 730 
Q 2766 1069 2766 1631 
L 2766 1759 
L 2194 1759 
z
M 3341 1997 
L 3341 0 
L 2766 0 
L 2766 531 
Q 2569 213 2275 61 
Q 1981 -91 1556 -91 
Q 1019 -91 701 211 
Q 384 513 384 1019 
Q 384 1609 779 1909 
Q 1175 2209 1959 2209 
L 2766 2209 
L 2766 2266 
Q 2766 2663 2505 2880 
Q 2244 3097 1772 3097 
Q 1472 3097 1187 3025 
Q 903 2953 641 2809 
L 641 3341 
Q 956 3463 1253 3523 
Q 1550 3584 1831 3584 
Q 2591 3584 2966 3190 
Q 3341 2797 3341 1997 
z
" transform="scale(0.015625)"/>
       <path id="DejaVuSans-6c" d="M 603 4863 
L 1178 4863 
L 1178 0 
L 603 0 
L 603 4863 
z
" transform="scale(0.015625)"/>
       <path id="DejaVuSans-20" transform="scale(0.015625)"/>
       <path id="DejaVuSans-Oblique-79" d="M 1588 -325 
Q 1188 -997 936 -1164 
Q 684 -1331 294 -1331 
L -159 -1331 
L -63 -850 
L 269 -850 
Q 509 -850 678 -719 
Q 847 -588 1056 -206 
L 1234 128 
L 459 3500 
L 1069 3500 
L 1650 819 
L 3256 3500 
L 3859 3500 
L 1588 -325 
z
" transform="scale(0.015625)"/>
       <path id="DejaVuSans-50" d="M 1259 4147 
L 1259 2394 
L 2053 2394 
Q 2494 2394 2734 2622 
Q 2975 2850 2975 3272 
Q 2975 3691 2734 3919 
Q 2494 4147 2053 4147 
L 1259 4147 
z
M 628 4666 
L 2053 4666 
Q 2838 4666 3239 4311 
Q 3641 3956 3641 3272 
Q 3641 2581 3239 2228 
Q 2838 1875 2053 1875 
L 1259 1875 
L 1259 0 
L 628 0 
L 628 4666 
z
" transform="scale(0.015625)"/>
       <path id="DejaVuSans-6f" d="M 1959 3097 
Q 1497 3097 1228 2736 
Q 959 2375 959 1747 
Q 959 1119 1226 758 
Q 1494 397 1959 397 
Q 2419 397 2687 759 
Q 2956 1122 2956 1747 
Q 2956 2369 2687 2733 
Q 2419 3097 1959 3097 
z
M 1959 3584 
Q 2709 3584 3137 3096 
Q 3566 2609 3566 1747 
Q 3566 888 3137 398 
Q 2709 -91 1959 -91 
Q 1206 -91 779 398 
Q 353 888 353 1747 
Q 353 2609 779 3096 
Q 1206 3584 1959 3584 
z
" transform="scale(0.015625)"/>
       <path id="DejaVuSans-73" d="M 2834 3397 
L 2834 2853 
Q 2591 2978 2328 3040 
Q 2066 3103 1784 3103 
Q 1356 3103 1142 2972 
Q 928 2841 928 2578 
Q 928 2378 1081 2264 
Q 1234 2150 1697 2047 
L 1894 2003 
Q 2506 1872 2764 1633 
Q 3022 1394 3022 966 
Q 3022 478 2636 193 
Q 2250 -91 1575 -91 
Q 1294 -91 989 -36 
Q 684 19 347 128 
L 347 722 
Q 666 556 975 473 
Q 1284 391 1588 391 
Q 1994 391 2212 530 
Q 2431 669 2431 922 
Q 2431 1156 2273 1281 
Q 2116 1406 1581 1522 
L 1381 1569 
Q 847 1681 609 1914 
Q 372 2147 372 2553 
Q 372 3047 722 3315 
Q 1072 3584 1716 3584 
Q 2034 3584 2315 3537 
Q 2597 3491 2834 3397 
z
" transform="scale(0.015625)"/>
       <path id="DejaVuSans-69" d="M 603 3500 
L 1178 3500 
L 1178 0 
L 603 0 
L 603 3500 
z
M 603 4863 
L 1178 4863 
L 1178 4134 
L 603 4134 
L 603 4863 
z
" transform="scale(0.015625)"/>
       <path id="DejaVuSans-74" d="M 1172 4494 
L 1172 3500 
L 2356 3500 
L 2356 3053 
L 1172 3053 
L 1172 1153 
Q 1172 725 1289 603 
Q 1406 481 1766 481 
L 2356 481 
L 2356 0 
L 1766 0 
Q 1100 0 847 248 
Q 594 497 594 1153 
L 594 3053 
L 172 3053 
L 172 3500 
L 594 3500 
L 594 4494 
L 1172 4494 
z
" transform="scale(0.015625)"/>
       <path id="DejaVuSans-6e" d="M 3513 2113 
L 3513 0 
L 2938 0 
L 2938 2094 
Q 2938 2591 2744 2837 
Q 2550 3084 2163 3084 
Q 1697 3084 1428 2787 
Q 1159 2491 1159 1978 
L 1159 0 
L 581 0 
L 581 3500 
L 1159 3500 
L 1159 2956 
Q 1366 3272 1645 3428 
Q 1925 3584 2291 3584 
Q 2894 3584 3203 3211 
Q 3513 2838 3513 2113 
z
" transform="scale(0.015625)"/>
      </defs>
      <use xlink:href="#DejaVuSans-52" transform="translate(0 0.015625)"/>
      <use xlink:href="#DejaVuSans-65" transform="translate(69.482422 0.015625)"/>
      <use xlink:href="#DejaVuSans-61" transform="translate(131.005859 0.015625)"/>
      <use xlink:href="#DejaVuSans-6c" transform="translate(192.285156 0.015625)"/>
      <use xlink:href="#DejaVuSans-20" transform="translate(220.068359 0.015625)"/>
      <use xlink:href="#DejaVuSans-Oblique-79" transform="translate(251.855469 0.015625)"/>
      <use xlink:href="#DejaVuSans-20" transform="translate(311.035156 0.015625)"/>
      <use xlink:href="#DejaVuSans-50" transform="translate(342.822266 0.015625)"/>
      <use xlink:href="#DejaVuSans-6f" transform="translate(403.125 0.015625)"/>
      <use xlink:href="#DejaVuSans-73" transform="translate(464.306641 0.015625)"/>
      <use xlink:href="#DejaVuSans-69" transform="translate(516.40625 0.015625)"/>
      <use xlink:href="#DejaVuSans-74" transform="translate(544.189453 0.015625)"/>
      <use xlink:href="#DejaVuSans-69" transform="translate(583.398438 0.015625)"/>
      <use xlink:href="#DejaVuSans-6f" transform="translate(611.181641 0.015625)"/>
      <use xlink:href="#DejaVuSans-6e" transform="translate(672.363281 0.015625)"/>
     </g>
    </g>
    <g id="line2d_17">
     <path d="M 926.2 105.56 
L 936.2 105.56 
L 946.2 105.56 
" style="fill: none; stroke: #0000ff; stroke-opacity: 0.5; stroke-width: 1.5; stroke-linecap: square"/>
    </g>
    <g id="text_15">
     <!-- Prediction $y$ -->
     <g transform="translate(954.2 109.06) scale(0.1 -0.1)">
      <defs>
       <path id="DejaVuSans-72" d="M 2631 2963 
Q 2534 3019 2420 3045 
Q 2306 3072 2169 3072 
Q 1681 3072 1420 2755 
Q 1159 2438 1159 1844 
L 1159 0 
L 581 0 
L 581 3500 
L 1159 3500 
L 1159 2956 
Q 1341 3275 1631 3429 
Q 1922 3584 2338 3584 
Q 2397 3584 2469 3576 
Q 2541 3569 2628 3553 
L 2631 2963 
z
" transform="scale(0.015625)"/>
       <path id="DejaVuSans-64" d="M 2906 2969 
L 2906 4863 
L 3481 4863 
L 3481 0 
L 2906 0 
L 2906 525 
Q 2725 213 2448 61 
Q 2172 -91 1784 -91 
Q 1150 -91 751 415 
Q 353 922 353 1747 
Q 353 2572 751 3078 
Q 1150 3584 1784 3584 
Q 2172 3584 2448 3432 
Q 2725 3281 2906 2969 
z
M 947 1747 
Q 947 1113 1208 752 
Q 1469 391 1925 391 
Q 2381 391 2643 752 
Q 2906 1113 2906 1747 
Q 2906 2381 2643 2742 
Q 2381 3103 1925 3103 
Q 1469 3103 1208 2742 
Q 947 2381 947 1747 
z
" transform="scale(0.015625)"/>
       <path id="DejaVuSans-63" d="M 3122 3366 
L 3122 2828 
Q 2878 2963 2633 3030 
Q 2388 3097 2138 3097 
Q 1578 3097 1268 2742 
Q 959 2388 959 1747 
Q 959 1106 1268 751 
Q 1578 397 2138 397 
Q 2388 397 2633 464 
Q 2878 531 3122 666 
L 3122 134 
Q 2881 22 2623 -34 
Q 2366 -91 2075 -91 
Q 1284 -91 818 406 
Q 353 903 353 1747 
Q 353 2603 823 3093 
Q 1294 3584 2113 3584 
Q 2378 3584 2631 3529 
Q 2884 3475 3122 3366 
z
" transform="scale(0.015625)"/>
      </defs>
      <use xlink:href="#DejaVuSans-50" transform="translate(0 0.015625)"/>
      <use xlink:href="#DejaVuSans-72" transform="translate(60.302734 0.015625)"/>
      <use xlink:href="#DejaVuSans-65" transform="translate(101.416016 0.015625)"/>
      <use xlink:href="#DejaVuSans-64" transform="translate(162.939453 0.015625)"/>
      <use xlink:href="#DejaVuSans-69" transform="translate(226.416016 0.015625)"/>
      <use xlink:href="#DejaVuSans-63" transform="translate(254.199219 0.015625)"/>
      <use xlink:href="#DejaVuSans-74" transform="translate(309.179688 0.015625)"/>
      <use xlink:href="#DejaVuSans-69" transform="translate(348.388672 0.015625)"/>
      <use xlink:href="#DejaVuSans-6f" transform="translate(376.171875 0.015625)"/>
      <use xlink:href="#DejaVuSans-6e" transform="translate(437.353516 0.015625)"/>
      <use xlink:href="#DejaVuSans-20" transform="translate(500.732422 0.015625)"/>
      <use xlink:href="#DejaVuSans-Oblique-79" transform="translate(532.519531 0.015625)"/>
     </g>
    </g>
    <g id="patch_8">
     <path d="M 926.2 123.758438 
L 946.2 123.758438 
L 946.2 116.758438 
L 926.2 116.758438 
z
" style="fill: #00ffff; fill-opacity: 0.5; stroke: #00ffff; stroke-opacity: 0.5; stroke-linejoin: miter"/>
    </g>
    <g id="text_16">
     <!-- Confidence -->
     <g transform="translate(954.2 123.758438) scale(0.1 -0.1)">
      <defs>
       <path id="DejaVuSans-43" d="M 4122 4306 
L 4122 3641 
Q 3803 3938 3442 4084 
Q 3081 4231 2675 4231 
Q 1875 4231 1450 3742 
Q 1025 3253 1025 2328 
Q 1025 1406 1450 917 
Q 1875 428 2675 428 
Q 3081 428 3442 575 
Q 3803 722 4122 1019 
L 4122 359 
Q 3791 134 3420 21 
Q 3050 -91 2638 -91 
Q 1578 -91 968 557 
Q 359 1206 359 2328 
Q 359 3453 968 4101 
Q 1578 4750 2638 4750 
Q 3056 4750 3426 4639 
Q 3797 4528 4122 4306 
z
" transform="scale(0.015625)"/>
       <path id="DejaVuSans-66" d="M 2375 4863 
L 2375 4384 
L 1825 4384 
Q 1516 4384 1395 4259 
Q 1275 4134 1275 3809 
L 1275 3500 
L 2222 3500 
L 2222 3053 
L 1275 3053 
L 1275 0 
L 697 0 
L 697 3053 
L 147 3053 
L 147 3500 
L 697 3500 
L 697 3744 
Q 697 4328 969 4595 
Q 1241 4863 1831 4863 
L 2375 4863 
z
" transform="scale(0.015625)"/>
      </defs>
      <use xlink:href="#DejaVuSans-43"/>
      <use xlink:href="#DejaVuSans-6f" x="69.824219"/>
      <use xlink:href="#DejaVuSans-6e" x="131.005859"/>
      <use xlink:href="#DejaVuSans-66" x="194.384766"/>
      <use xlink:href="#DejaVuSans-69" x="229.589844"/>
      <use xlink:href="#DejaVuSans-64" x="257.373047"/>
      <use xlink:href="#DejaVuSans-65" x="320.849609"/>
      <use xlink:href="#DejaVuSans-6e" x="382.373047"/>
      <use xlink:href="#DejaVuSans-63" x="445.751953"/>
      <use xlink:href="#DejaVuSans-65" x="500.732422"/>
     </g>
    </g>
   </g>
  </g>
  <g id="axes_2">
   <g id="patch_9">
    <path d="M 144 576.72 
L 1036.8 576.72 
L 1036.8 349.92 
L 144 349.92 
z
" style="fill: #ffffff"/>
   </g>
   <g id="matplotlib.axis_3">
    <g id="xtick_7">
     <g id="line2d_18">
      <g>
       <use xlink:href="#ma1f1f06658" x="144" y="576.72" style="stroke: #000000; stroke-width: 0.8"/>
      </g>
     </g>
     <g id="text_17">
      <!-- 0 -->
      <g transform="translate(140.81875 591.318438) scale(0.1 -0.1)">
       <use xlink:href="#DejaVuSans-30"/>
      </g>
     </g>
    </g>
    <g id="xtick_8">
     <g id="line2d_19">
      <g>
       <use xlink:href="#ma1f1f06658" x="292.849617" y="576.72" style="stroke: #000000; stroke-width: 0.8"/>
      </g>
     </g>
     <g id="text_18">
      <!-- 5 -->
      <g transform="translate(289.668367 591.318438) scale(0.1 -0.1)">
       <use xlink:href="#DejaVuSans-35"/>
      </g>
     </g>
    </g>
    <g id="xtick_9">
     <g id="line2d_20">
      <g>
       <use xlink:href="#ma1f1f06658" x="441.699233" y="576.72" style="stroke: #000000; stroke-width: 0.8"/>
      </g>
     </g>
     <g id="text_19">
      <!-- 10 -->
      <g transform="translate(435.336733 591.318438) scale(0.1 -0.1)">
       <use xlink:href="#DejaVuSans-31"/>
       <use xlink:href="#DejaVuSans-30" x="63.623047"/>
      </g>
     </g>
    </g>
    <g id="xtick_10">
     <g id="line2d_21">
      <g>
       <use xlink:href="#ma1f1f06658" x="590.54885" y="576.72" style="stroke: #000000; stroke-width: 0.8"/>
      </g>
     </g>
     <g id="text_20">
      <!-- 15 -->
      <g transform="translate(584.18635 591.318438) scale(0.1 -0.1)">
       <use xlink:href="#DejaVuSans-31"/>
       <use xlink:href="#DejaVuSans-35" x="63.623047"/>
      </g>
     </g>
    </g>
    <g id="xtick_11">
     <g id="line2d_22">
      <g>
       <use xlink:href="#ma1f1f06658" x="739.398466" y="576.72" style="stroke: #000000; stroke-width: 0.8"/>
      </g>
     </g>
     <g id="text_21">
      <!-- 20 -->
      <g transform="translate(733.035966 591.318438) scale(0.1 -0.1)">
       <use xlink:href="#DejaVuSans-32"/>
       <use xlink:href="#DejaVuSans-30" x="63.623047"/>
      </g>
     </g>
    </g>
    <g id="xtick_12">
     <g id="line2d_23">
      <g>
       <use xlink:href="#ma1f1f06658" x="888.248083" y="576.72" style="stroke: #000000; stroke-width: 0.8"/>
      </g>
     </g>
     <g id="text_22">
      <!-- 25 -->
      <g transform="translate(881.885583 591.318438) scale(0.1 -0.1)">
       <use xlink:href="#DejaVuSans-32"/>
       <use xlink:href="#DejaVuSans-35" x="63.623047"/>
      </g>
     </g>
    </g>
   </g>
   <g id="matplotlib.axis_4">
    <g id="ytick_8">
     <g id="line2d_24">
      <g>
       <use xlink:href="#ma7ad5e9b2d" x="144" y="560.790764" style="stroke: #000000; stroke-width: 0.8"/>
      </g>
     </g>
     <g id="text_23">
      <!-- −0.05 -->
      <g transform="translate(106.354687 564.589983) scale(0.1 -0.1)">
       <defs>
        <path id="DejaVuSans-2212" d="M 678 2272 
L 4684 2272 
L 4684 1741 
L 678 1741 
L 678 2272 
z
" transform="scale(0.015625)"/>
       </defs>
       <use xlink:href="#DejaVuSans-2212"/>
       <use xlink:href="#DejaVuSans-30" x="83.789062"/>
       <use xlink:href="#DejaVuSans-2e" x="147.412109"/>
       <use xlink:href="#DejaVuSans-30" x="179.199219"/>
       <use xlink:href="#DejaVuSans-35" x="242.822266"/>
      </g>
     </g>
    </g>
    <g id="ytick_9">
     <g id="line2d_25">
      <g>
       <use xlink:href="#ma7ad5e9b2d" x="144" y="532.53537" style="stroke: #000000; stroke-width: 0.8"/>
      </g>
     </g>
     <g id="text_24">
      <!-- −0.04 -->
      <g transform="translate(106.354687 536.334589) scale(0.1 -0.1)">
       <use xlink:href="#DejaVuSans-2212"/>
       <use xlink:href="#DejaVuSans-30" x="83.789062"/>
       <use xlink:href="#DejaVuSans-2e" x="147.412109"/>
       <use xlink:href="#DejaVuSans-30" x="179.199219"/>
       <use xlink:href="#DejaVuSans-34" x="242.822266"/>
      </g>
     </g>
    </g>
    <g id="ytick_10">
     <g id="line2d_26">
      <g>
       <use xlink:href="#ma7ad5e9b2d" x="144" y="504.279976" style="stroke: #000000; stroke-width: 0.8"/>
      </g>
     </g>
     <g id="text_25">
      <!-- −0.03 -->
      <g transform="translate(106.354687 508.079195) scale(0.1 -0.1)">
       <defs>
        <path id="DejaVuSans-33" d="M 2597 2516 
Q 3050 2419 3304 2112 
Q 3559 1806 3559 1356 
Q 3559 666 3084 287 
Q 2609 -91 1734 -91 
Q 1441 -91 1130 -33 
Q 819 25 488 141 
L 488 750 
Q 750 597 1062 519 
Q 1375 441 1716 441 
Q 2309 441 2620 675 
Q 2931 909 2931 1356 
Q 2931 1769 2642 2001 
Q 2353 2234 1838 2234 
L 1294 2234 
L 1294 2753 
L 1863 2753 
Q 2328 2753 2575 2939 
Q 2822 3125 2822 3475 
Q 2822 3834 2567 4026 
Q 2313 4219 1838 4219 
Q 1578 4219 1281 4162 
Q 984 4106 628 3988 
L 628 4550 
Q 988 4650 1302 4700 
Q 1616 4750 1894 4750 
Q 2613 4750 3031 4423 
Q 3450 4097 3450 3541 
Q 3450 3153 3228 2886 
Q 3006 2619 2597 2516 
z
" transform="scale(0.015625)"/>
       </defs>
       <use xlink:href="#DejaVuSans-2212"/>
       <use xlink:href="#DejaVuSans-30" x="83.789062"/>
       <use xlink:href="#DejaVuSans-2e" x="147.412109"/>
       <use xlink:href="#DejaVuSans-30" x="179.199219"/>
       <use xlink:href="#DejaVuSans-33" x="242.822266"/>
      </g>
     </g>
    </g>
    <g id="ytick_11">
     <g id="line2d_27">
      <g>
       <use xlink:href="#ma7ad5e9b2d" x="144" y="476.024582" style="stroke: #000000; stroke-width: 0.8"/>
      </g>
     </g>
     <g id="text_26">
      <!-- −0.02 -->
      <g transform="translate(106.354687 479.823801) scale(0.1 -0.1)">
       <use xlink:href="#DejaVuSans-2212"/>
       <use xlink:href="#DejaVuSans-30" x="83.789062"/>
       <use xlink:href="#DejaVuSans-2e" x="147.412109"/>
       <use xlink:href="#DejaVuSans-30" x="179.199219"/>
       <use xlink:href="#DejaVuSans-32" x="242.822266"/>
      </g>
     </g>
    </g>
    <g id="ytick_12">
     <g id="line2d_28">
      <g>
       <use xlink:href="#ma7ad5e9b2d" x="144" y="447.769188" style="stroke: #000000; stroke-width: 0.8"/>
      </g>
     </g>
     <g id="text_27">
      <!-- −0.01 -->
      <g transform="translate(106.354687 451.568407) scale(0.1 -0.1)">
       <use xlink:href="#DejaVuSans-2212"/>
       <use xlink:href="#DejaVuSans-30" x="83.789062"/>
       <use xlink:href="#DejaVuSans-2e" x="147.412109"/>
       <use xlink:href="#DejaVuSans-30" x="179.199219"/>
       <use xlink:href="#DejaVuSans-31" x="242.822266"/>
      </g>
     </g>
    </g>
    <g id="ytick_13">
     <g id="line2d_29">
      <g>
       <use xlink:href="#ma7ad5e9b2d" x="144" y="419.513794" style="stroke: #000000; stroke-width: 0.8"/>
      </g>
     </g>
     <g id="text_28">
      <!-- 0.00 -->
      <g transform="translate(114.734375 423.313013) scale(0.1 -0.1)">
       <use xlink:href="#DejaVuSans-30"/>
       <use xlink:href="#DejaVuSans-2e" x="63.623047"/>
       <use xlink:href="#DejaVuSans-30" x="95.410156"/>
       <use xlink:href="#DejaVuSans-30" x="159.033203"/>
      </g>
     </g>
    </g>
    <g id="ytick_14">
     <g id="line2d_30">
      <g>
       <use xlink:href="#ma7ad5e9b2d" x="144" y="391.2584" style="stroke: #000000; stroke-width: 0.8"/>
      </g>
     </g>
     <g id="text_29">
      <!-- 0.01 -->
      <g transform="translate(114.734375 395.057618) scale(0.1 -0.1)">
       <use xlink:href="#DejaVuSans-30"/>
       <use xlink:href="#DejaVuSans-2e" x="63.623047"/>
       <use xlink:href="#DejaVuSans-30" x="95.410156"/>
       <use xlink:href="#DejaVuSans-31" x="159.033203"/>
      </g>
     </g>
    </g>
    <g id="ytick_15">
     <g id="line2d_31">
      <g>
       <use xlink:href="#ma7ad5e9b2d" x="144" y="363.003006" style="stroke: #000000; stroke-width: 0.8"/>
      </g>
     </g>
     <g id="text_30">
      <!-- 0.02 -->
      <g transform="translate(114.734375 366.802224) scale(0.1 -0.1)">
       <use xlink:href="#DejaVuSans-30"/>
       <use xlink:href="#DejaVuSans-2e" x="63.623047"/>
       <use xlink:href="#DejaVuSans-30" x="95.410156"/>
       <use xlink:href="#DejaVuSans-32" x="159.033203"/>
      </g>
     </g>
    </g>
   </g>
   <g id="line2d_32">
    <path d="M 144 469.502862 
L 173.769923 479.695105 
L 203.539847 476.786762 
L 233.30977 471.634839 
L 263.079693 466.354359 
L 292.849617 461.527808 
L 322.61954 457.060045 
L 352.389463 452.879459 
L 411.92931 445.875181 
L 441.699233 442.11668 
L 471.469156 439.059818 
L 501.23908 435.471433 
L 531.009003 432.192497 
L 620.318773 423.067982 
L 679.85862 417.199015 
L 709.628543 414.592273 
L 739.398466 411.626543 
L 798.938313 406.688084 
L 828.708236 403.958032 
L 888.248083 399.052264 
L 918.018006 396.977804 
L 947.787929 394.525993 
L 1007.327776 390.275285 
L 1096.637546 384.217809 
L 1153 380.735561 
L 1153 380.735561 
" clip-path="url(#pa295efc283)" style="fill: none; stroke: #1f77b4; stroke-width: 1.5; stroke-linecap: square"/>
   </g>
   <g id="patch_10">
    <path d="M 144 576.72 
L 144 349.92 
" style="fill: none; stroke: #000000; stroke-width: 0.8; stroke-linejoin: miter; stroke-linecap: square"/>
   </g>
   <g id="patch_11">
    <path d="M 1036.8 576.72 
L 1036.8 349.92 
" style="fill: none; stroke: #000000; stroke-width: 0.8; stroke-linejoin: miter; stroke-linecap: square"/>
   </g>
   <g id="patch_12">
    <path d="M 144 576.72 
L 1036.8 576.72 
" style="fill: none; stroke: #000000; stroke-width: 0.8; stroke-linejoin: miter; stroke-linecap: square"/>
   </g>
   <g id="patch_13">
    <path d="M 144 349.92 
L 1036.8 349.92 
" style="fill: none; stroke: #000000; stroke-width: 0.8; stroke-linejoin: miter; stroke-linecap: square"/>
   </g>
   <g id="legend_2">
    <g id="patch_14">
     <path d="M 920.578125 372.598125 
L 1029.8 372.598125 
Q 1031.8 372.598125 1031.8 370.598125 
L 1031.8 356.92 
Q 1031.8 354.92 1029.8 354.92 
L 920.578125 354.92 
Q 918.578125 354.92 918.578125 356.92 
L 918.578125 370.598125 
Q 918.578125 372.598125 920.578125 372.598125 
z
" style="fill: #ffffff; opacity: 0.8; stroke: #cccccc; stroke-linejoin: miter"/>
    </g>
    <g id="line2d_33">
     <path d="M 922.578125 363.018437 
L 932.578125 363.018437 
L 942.578125 363.018437 
" style="fill: none; stroke: #1f77b4; stroke-width: 1.5; stroke-linecap: square"/>
    </g>
    <g id="text_31">
     <!-- Prediction Error -->
     <g transform="translate(950.578125 366.518437) scale(0.1 -0.1)">
      <defs>
       <path id="DejaVuSans-45" d="M 628 4666 
L 3578 4666 
L 3578 4134 
L 1259 4134 
L 1259 2753 
L 3481 2753 
L 3481 2222 
L 1259 2222 
L 1259 531 
L 3634 531 
L 3634 0 
L 628 0 
L 628 4666 
z
" transform="scale(0.015625)"/>
      </defs>
      <use xlink:href="#DejaVuSans-50"/>
      <use xlink:href="#DejaVuSans-72" x="58.552734"/>
      <use xlink:href="#DejaVuSans-65" x="97.416016"/>
      <use xlink:href="#DejaVuSans-64" x="158.939453"/>
      <use xlink:href="#DejaVuSans-69" x="222.416016"/>
      <use xlink:href="#DejaVuSans-63" x="250.199219"/>
      <use xlink:href="#DejaVuSans-74" x="305.179688"/>
      <use xlink:href="#DejaVuSans-69" x="344.388672"/>
      <use xlink:href="#DejaVuSans-6f" x="372.171875"/>
      <use xlink:href="#DejaVuSans-6e" x="433.353516"/>
      <use xlink:href="#DejaVuSans-20" x="496.732422"/>
      <use xlink:href="#DejaVuSans-45" x="528.519531"/>
      <use xlink:href="#DejaVuSans-72" x="591.703125"/>
      <use xlink:href="#DejaVuSans-72" x="631.066406"/>
      <use xlink:href="#DejaVuSans-6f" x="669.929688"/>
      <use xlink:href="#DejaVuSans-72" x="731.111328"/>
     </g>
    </g>
   </g>
  </g>
  <g id="text_32">
   <!-- $y$-Position Prediction -->
   <g transform="translate(514.74 22.08) scale(0.12 -0.12)">
    <defs>
     <path id="DejaVuSans-2d" d="M 313 2009 
L 1997 2009 
L 1997 1497 
L 313 1497 
L 313 2009 
z
" transform="scale(0.015625)"/>
    </defs>
    <use xlink:href="#DejaVuSans-Oblique-79" transform="translate(0 0.015625)"/>
    <use xlink:href="#DejaVuSans-2d" transform="translate(59.179688 0.015625)"/>
    <use xlink:href="#DejaVuSans-50" transform="translate(95.263672 0.015625)"/>
    <use xlink:href="#DejaVuSans-6f" transform="translate(155.566406 0.015625)"/>
    <use xlink:href="#DejaVuSans-73" transform="translate(216.748047 0.015625)"/>
    <use xlink:href="#DejaVuSans-69" transform="translate(268.847656 0.015625)"/>
    <use xlink:href="#DejaVuSans-74" transform="translate(296.630859 0.015625)"/>
    <use xlink:href="#DejaVuSans-69" transform="translate(335.839844 0.015625)"/>
    <use xlink:href="#DejaVuSans-6f" transform="translate(363.623047 0.015625)"/>
    <use xlink:href="#DejaVuSans-6e" transform="translate(424.804688 0.015625)"/>
    <use xlink:href="#DejaVuSans-20" transform="translate(488.183594 0.015625)"/>
    <use xlink:href="#DejaVuSans-50" transform="translate(519.970703 0.015625)"/>
    <use xlink:href="#DejaVuSans-72" transform="translate(580.273438 0.015625)"/>
    <use xlink:href="#DejaVuSans-65" transform="translate(621.386719 0.015625)"/>
    <use xlink:href="#DejaVuSans-64" transform="translate(682.910156 0.015625)"/>
    <use xlink:href="#DejaVuSans-69" transform="translate(746.386719 0.015625)"/>
    <use xlink:href="#DejaVuSans-63" transform="translate(774.169922 0.015625)"/>
    <use xlink:href="#DejaVuSans-74" transform="translate(829.150391 0.015625)"/>
    <use xlink:href="#DejaVuSans-69" transform="translate(868.359375 0.015625)"/>
    <use xlink:href="#DejaVuSans-6f" transform="translate(896.142578 0.015625)"/>
    <use xlink:href="#DejaVuSans-6e" transform="translate(957.324219 0.015625)"/>
   </g>
  </g>
 </g>
 <defs>
  <clipPath id="pc21acab223">
   <rect x="144" y="77.76" width="892.8" height="226.8"/>
  </clipPath>
  <clipPath id="pa295efc283">
   <rect x="144" y="349.92" width="892.8" height="226.8"/>
  </clipPath>
 </defs>
</svg>
