<?xml version="1.0" encoding="utf-8" standalone="no"?>
<!DOCTYPE svg PUBLIC "-//W3C//DTD SVG 1.1//EN"
  "http://www.w3.org/Graphics/SVG/1.1/DTD/svg11.dtd">
<svg xmlns:xlink="http://www.w3.org/1999/xlink" width="1152pt" height="648pt" viewBox="0 0 1152 648" xmlns="http://www.w3.org/2000/svg" version="1.1">
 <metadata>
  <rdf:RDF xmlns:dc="http://purl.org/dc/elements/1.1/" xmlns:cc="http://creativecommons.org/ns#" xmlns:rdf="http://www.w3.org/1999/02/22-rdf-syntax-ns#">
   <cc:Work>
    <dc:type rdf:resource="http://purl.org/dc/dcmitype/StillImage"/>
    <dc:date>2024-06-20T12:46:08.777032</dc:date>
    <dc:format>image/svg+xml</dc:format>
    <dc:creator>
     <cc:Agent>
      <dc:title>Matplotlib v3.9.0, https://matplotlib.org/</dc:title>
     </cc:Agent>
    </dc:creator>
   </cc:Work>
  </rdf:RDF>
 </metadata>
 <defs>
  <style type="text/css">*{stroke-linejoin: round; stroke-linecap: butt}</style>
 </defs>
 <g id="figure_1">
  <g id="patch_1">
   <path d="M 0 648 
L 1152 648 
L 1152 0 
L 0 0 
z
" style="fill: #ffffff"/>
  </g>
  <g id="axes_1">
   <g id="patch_2">
    <path d="M 144 304.56 
L 1036.8 304.56 
L 1036.8 77.76 
L 144 77.76 
z
" style="fill: #ffffff"/>
   </g>
   <g id="PolyCollection_1">
    <defs>
     <path id="m65fb27247c" d="M 292.849617 -416.866478 
L 292.849617 -408.081131 
L 295.826609 -410.039101 
L 298.803601 -411.945704 
L 301.780594 -413.835839 
L 304.757586 -415.699902 
L 307.734578 -417.531493 
L 310.711571 -419.327594 
L 313.688563 -421.082084 
L 316.665555 -422.79379 
L 319.642548 -424.46511 
L 322.61954 -426.08715 
L 325.596532 -427.650424 
L 328.573525 -429.166564 
L 331.550517 -430.625549 
L 334.527509 -432.027465 
L 337.504502 -433.378095 
L 340.481494 -434.675443 
L 343.458486 -435.918401 
L 346.435478 -437.106975 
L 349.412471 -438.247044 
L 352.389463 -439.336406 
L 355.366455 -440.364094 
L 358.343448 -441.347374 
L 361.32044 -442.270167 
L 364.297432 -443.131207 
L 367.274425 -443.940089 
L 370.251417 -444.699149 
L 373.228409 -445.410495 
L 376.205402 -446.055544 
L 379.182394 -446.656047 
L 382.159386 -447.211969 
L 385.136379 -447.708213 
L 388.113371 -448.152986 
L 391.090363 -448.554916 
L 394.067356 -448.901946 
L 397.044348 -449.21753 
L 400.02134 -449.491032 
L 402.998333 -449.727213 
L 405.975325 -449.924088 
L 408.952317 -450.083167 
L 411.92931 -450.22544 
L 414.906302 -450.32518 
L 417.883294 -450.405159 
L 420.860287 -450.455175 
L 423.837279 -450.492637 
L 426.814271 -450.501604 
L 429.791264 -450.496725 
L 432.768256 -450.478103 
L 435.745248 -450.450736 
L 438.722241 -450.422598 
L 441.699233 -450.387934 
L 444.676225 -450.360025 
L 447.653218 -450.348239 
L 450.63021 -450.357076 
L 453.607202 -450.38012 
L 456.584195 -450.415407 
L 459.561187 -450.470463 
L 462.538179 -450.561851 
L 465.515172 -450.685995 
L 468.492164 -450.849052 
L 471.469156 -451.051253 
L 474.446149 -451.287475 
L 477.423141 -451.570809 
L 480.400133 -451.916645 
L 483.377126 -452.317024 
L 486.354118 -452.765119 
L 489.33111 -453.297804 
L 492.308103 -453.932605 
L 495.285095 -454.646918 
L 498.262087 -455.45191 
L 501.23908 -456.356294 
L 504.216072 -457.358672 
L 507.193064 -458.462968 
L 510.170057 -459.693284 
L 513.147049 -461.051804 
L 516.124041 -462.533739 
L 519.101034 -464.174591 
L 522.078026 -465.960538 
L 525.055018 -467.896536 
L 528.032011 -469.987947 
L 531.009003 -472.256638 
L 533.985995 -474.681198 
L 536.962988 -477.260422 
L 539.93998 -480.009395 
L 542.916972 -482.904064 
L 545.893965 -485.95025 
L 548.870957 -489.162537 
L 551.847949 -492.491029 
L 554.824942 -495.939805 
L 557.801934 -499.483664 
L 560.778926 -503.12176 
L 563.755919 -506.805488 
L 566.732911 -510.513833 
L 569.709903 -514.223122 
L 572.686896 -517.902912 
L 575.663888 -521.51679 
L 578.64088 -525.016728 
L 581.617873 -528.34877 
L 584.594865 -531.514615 
L 587.571857 -534.467338 
L 590.54885 -537.16508 
L 593.525842 -539.589174 
L 596.502834 -541.727543 
L 599.479827 -543.546225 
L 602.456819 -545.048972 
L 605.433811 -546.191851 
L 608.410804 -547.015874 
L 611.387796 -547.510171 
L 614.364788 -547.658337 
L 617.341781 -547.498268 
L 620.318773 -547.038585 
L 623.295765 -546.293104 
L 626.272758 -545.24924 
L 629.24975 -543.94422 
L 632.226742 -542.433462 
L 635.203735 -540.706915 
L 638.180727 -538.778671 
L 641.157719 -536.685144 
L 644.134712 -534.457046 
L 647.111704 -532.094891 
L 650.088696 -529.61887 
L 653.065689 -527.031076 
L 656.042681 -524.371494 
L 659.019673 -521.660015 
L 661.996666 -518.903586 
L 664.973658 -516.119469 
L 667.95065 -513.322366 
L 670.927643 -510.488236 
L 673.904635 -507.646039 
L 676.881627 -504.810221 
L 679.85862 -501.977748 
L 682.835612 -499.1417 
L 685.812604 -496.314698 
L 688.789597 -493.503422 
L 691.766589 -490.700462 
L 694.743581 -487.905671 
L 697.720574 -485.122021 
L 700.697566 -482.361885 
L 703.674558 -479.606678 
L 706.651551 -476.869725 
L 709.628543 -474.1459 
L 712.605535 -471.450498 
L 715.582528 -468.772961 
L 718.55952 -466.099845 
L 721.536512 -463.424601 
L 724.513505 -460.758817 
L 727.490497 -458.099068 
L 730.467489 -455.447177 
L 733.444481 -452.7962 
L 736.421474 -450.146703 
L 739.398466 -447.497405 
L 742.375458 -444.852121 
L 745.352451 -442.244378 
L 748.329443 -439.666724 
L 751.306435 -437.117966 
L 754.283428 -434.591754 
L 757.26042 -432.088359 
L 760.237412 -429.614172 
L 763.214405 -427.149608 
L 766.191397 -424.707447 
L 769.168389 -422.284624 
L 772.145382 -419.880578 
L 775.122374 -417.489029 
L 778.099366 -415.108739 
L 781.076359 -412.748424 
L 784.053351 -410.407627 
L 787.030343 -408.084207 
L 790.007336 -405.791517 
L 792.984328 -403.517249 
L 795.96132 -401.271656 
L 798.938313 -399.052597 
L 801.915305 -396.863762 
L 804.892297 -394.697943 
L 807.86929 -392.566995 
L 810.846282 -390.471442 
L 813.823274 -388.408025 
L 816.800267 -386.386549 
L 819.777259 -384.402027 
L 822.754251 -382.459137 
L 825.731244 -380.56362 
L 828.708236 -378.715684 
L 831.685228 -376.917007 
L 834.662221 -375.17391 
L 837.639213 -373.480029 
L 840.616205 -371.849092 
L 843.593198 -370.278609 
L 846.57019 -368.769896 
L 849.547182 -367.326939 
L 852.524175 -365.950341 
L 855.501167 -364.640337 
L 858.478159 -363.400814 
L 861.455152 -362.240934 
L 864.432144 -361.152551 
L 867.409136 -360.141266 
L 870.386129 -359.205406 
L 873.363121 -358.344084 
L 876.340113 -357.562367 
L 879.317106 -356.85301 
L 882.294098 -356.222034 
L 885.27109 -355.667112 
L 888.248083 -355.184071 
L 891.225075 -354.776363 
L 894.202067 -354.43954 
L 897.17906 -354.167666 
L 900.156052 -353.964906 
L 903.133044 -353.831027 
L 906.110037 -353.760735 
L 909.087029 -353.749091 
L 912.064021 -353.796248 
L 915.041014 -353.895108 
L 918.018006 -354.042972 
L 920.994998 -354.237737 
L 923.971991 -354.479059 
L 926.948983 -354.761166 
L 929.925975 -355.082712 
L 932.902968 -355.433021 
L 935.87996 -355.811605 
L 938.856952 -356.214963 
L 941.833945 -356.643836 
L 944.810937 -357.092547 
L 947.787929 -357.562067 
L 950.764922 -358.039942 
L 953.741914 -358.529881 
L 956.718906 -359.026507 
L 959.695899 -359.526185 
L 962.672891 -360.030325 
L 965.649883 -360.535505 
L 968.626876 -361.039681 
L 971.603868 -361.533418 
L 974.58086 -362.023049 
L 977.557853 -362.502213 
L 980.534845 -362.972224 
L 983.511837 -363.424524 
L 986.48883 -363.865227 
L 989.465822 -364.288385 
L 992.442814 -364.693381 
L 995.419807 -365.080313 
L 998.396799 -365.449169 
L 1001.373791 -365.79653 
L 1004.350784 -366.117907 
L 1007.327776 -366.417456 
L 1010.304768 -366.695491 
L 1013.281761 -366.951102 
L 1016.258753 -367.179753 
L 1019.235745 -367.383921 
L 1022.212738 -367.56539 
L 1025.18973 -367.720802 
L 1028.166722 -367.851058 
L 1031.143715 -367.957499 
L 1034.120707 -368.036872 
L 1034.120707 -372.809523 
L 1034.120707 -372.809523 
L 1031.143715 -372.860032 
L 1028.166722 -372.879892 
L 1025.18973 -372.873582 
L 1022.212738 -372.839405 
L 1019.235745 -372.776649 
L 1016.258753 -372.689762 
L 1013.281761 -372.575584 
L 1010.304768 -372.43184 
L 1007.327776 -372.264984 
L 1004.350784 -372.076179 
L 1001.373791 -371.862555 
L 998.396799 -371.620114 
L 995.419807 -371.355105 
L 992.442814 -371.071635 
L 989.465822 -370.769564 
L 986.48883 -370.447199 
L 983.511837 -370.106463 
L 980.534845 -369.75228 
L 977.557853 -369.377383 
L 974.58086 -368.992997 
L 971.603868 -368.597476 
L 968.626876 -368.194914 
L 965.649883 -367.779348 
L 962.672891 -367.362668 
L 959.695899 -366.946771 
L 956.718906 -366.533348 
L 953.741914 -366.120154 
L 950.764922 -365.711591 
L 947.787929 -365.312883 
L 944.810937 -364.919427 
L 941.833945 -364.547427 
L 938.856952 -364.194208 
L 935.87996 -363.865251 
L 932.902968 -363.55787 
L 929.925975 -363.273484 
L 926.948983 -363.014547 
L 923.971991 -362.794379 
L 920.994998 -362.615118 
L 918.018006 -362.481106 
L 915.041014 -362.391502 
L 912.064021 -362.347036 
L 909.087029 -362.352367 
L 906.110037 -362.414116 
L 903.133044 -362.53283 
L 900.156052 -362.71392 
L 897.17906 -362.963768 
L 894.202067 -363.280772 
L 891.225075 -363.658095 
L 888.248083 -364.10505 
L 885.27109 -364.625379 
L 882.294098 -365.213804 
L 879.317106 -365.878411 
L 876.340113 -366.61926 
L 873.363121 -367.429581 
L 870.386129 -368.318286 
L 867.409136 -369.279189 
L 864.432144 -370.314526 
L 861.455152 -371.424851 
L 858.478159 -372.604761 
L 855.501167 -373.863755 
L 852.524175 -375.191512 
L 849.547182 -376.583617 
L 846.57019 -378.04104 
L 843.593198 -379.563442 
L 840.616205 -381.146245 
L 837.639213 -382.789193 
L 834.662221 -384.494572 
L 831.685228 -386.248064 
L 828.708236 -388.057105 
L 825.731244 -389.914802 
L 822.754251 -391.819378 
L 819.777259 -393.771711 
L 816.800267 -395.766352 
L 813.823274 -397.798465 
L 810.846282 -399.873097 
L 807.86929 -401.979828 
L 804.892297 -404.122684 
L 801.915305 -406.302133 
L 798.938313 -408.505708 
L 795.96132 -410.74028 
L 792.984328 -413.001557 
L 790.007336 -415.292914 
L 787.030343 -417.603339 
L 784.053351 -419.944555 
L 781.076359 -422.305815 
L 778.099366 -424.687721 
L 775.122374 -427.091875 
L 772.145382 -429.512054 
L 769.168389 -431.948198 
L 766.191397 -434.404347 
L 763.214405 -436.88194 
L 760.237412 -439.384912 
L 757.26042 -441.899281 
L 754.283428 -444.441264 
L 751.306435 -447.004744 
L 748.329443 -449.588687 
L 745.352451 -452.194888 
L 742.375458 -454.821686 
L 739.398466 -457.481774 
L 736.421474 -460.151176 
L 733.444481 -462.823714 
L 730.467489 -465.501473 
L 727.490497 -468.182943 
L 724.513505 -470.873237 
L 721.536512 -473.572304 
L 718.55952 -476.284398 
L 715.582528 -479.001878 
L 712.605535 -481.726533 
L 709.628543 -484.464817 
L 706.651551 -487.228214 
L 703.674558 -490.0054 
L 700.697566 -492.80346 
L 697.720574 -495.605518 
L 694.743581 -498.430343 
L 691.766589 -501.266115 
L 688.789597 -504.112854 
L 685.812604 -506.970158 
L 682.835612 -509.841044 
L 679.85862 -512.724113 
L 676.881627 -515.608091 
L 673.904635 -518.492742 
L 670.927643 -521.384282 
L 667.95065 -524.275606 
L 664.973658 -527.135982 
L 661.996666 -529.98069 
L 659.019673 -532.799334 
L 656.042681 -535.573807 
L 653.065689 -538.298675 
L 650.088696 -540.957488 
L 647.111704 -543.511297 
L 644.134712 -545.955398 
L 641.157719 -548.266048 
L 638.180727 -550.441744 
L 635.203735 -552.45649 
L 632.226742 -554.268516 
L 629.24975 -555.860959 
L 626.272758 -557.248854 
L 623.295765 -558.372149 
L 620.318773 -559.188638 
L 617.341781 -559.71098 
L 614.364788 -559.930909 
L 611.387796 -559.834258 
L 608.410804 -559.37622 
L 605.433811 -558.581895 
L 602.456819 -557.459409 
L 599.479827 -555.956767 
L 596.502834 -554.136707 
L 593.525842 -551.991467 
L 590.54885 -549.552415 
L 587.571857 -546.832241 
L 584.594865 -543.844734 
L 581.617873 -540.654314 
L 578.64088 -537.275954 
L 575.663888 -533.706853 
L 572.686896 -530.019999 
L 569.709903 -526.270186 
L 566.732911 -522.491047 
L 563.755919 -518.708717 
L 560.778926 -514.937985 
L 557.801934 -511.215201 
L 554.824942 -507.589216 
L 551.847949 -504.056345 
L 548.870957 -500.638162 
L 545.893965 -497.336623 
L 542.916972 -494.208954 
L 539.93998 -491.229648 
L 536.962988 -488.394187 
L 533.985995 -485.726185 
L 531.009003 -483.213407 
L 528.032011 -480.861617 
L 525.055018 -478.691326 
L 522.078026 -476.67827 
L 519.101034 -474.819534 
L 516.124041 -473.110979 
L 513.147049 -471.564333 
L 510.170057 -470.145613 
L 507.193064 -468.857889 
L 504.216072 -467.697482 
L 501.23908 -466.642783 
L 498.262087 -465.690163 
L 495.285095 -464.839527 
L 492.308103 -464.085538 
L 489.33111 -463.416446 
L 486.354118 -462.848374 
L 483.377126 -462.366703 
L 480.400133 -461.939623 
L 477.423141 -461.571364 
L 474.446149 -461.266409 
L 471.469156 -461.01431 
L 468.492164 -460.800824 
L 465.515172 -460.63035 
L 462.538179 -460.501168 
L 459.561187 -460.405082 
L 456.584195 -460.344666 
L 453.607202 -460.30486 
L 450.63021 -460.277063 
L 447.653218 -460.258958 
L 444.676225 -460.248933 
L 441.699233 -460.248196 
L 438.722241 -460.255533 
L 435.745248 -460.259935 
L 432.768256 -460.264974 
L 429.791264 -460.26297 
L 426.814271 -460.248028 
L 423.837279 -460.222759 
L 420.860287 -460.17033 
L 417.883294 -460.105816 
L 414.906302 -460.011733 
L 411.92931 -459.89958 
L 408.952317 -459.746689 
L 405.975325 -459.574017 
L 402.998333 -459.365557 
L 400.02134 -459.1186 
L 397.044348 -458.836018 
L 394.067356 -458.510079 
L 391.090363 -458.152186 
L 388.113371 -457.740596 
L 385.136379 -457.28556 
L 382.159386 -456.780474 
L 379.182394 -456.217329 
L 376.205402 -455.606431 
L 373.228409 -454.95003 
L 370.251417 -454.22856 
L 367.274425 -453.456474 
L 364.297432 -452.632076 
L 361.32044 -451.753702 
L 358.343448 -450.813517 
L 355.366455 -449.810834 
L 352.389463 -448.761498 
L 349.412471 -447.650668 
L 346.435478 -446.488752 
L 343.458486 -445.279043 
L 340.481494 -444.017231 
L 337.504502 -442.704988 
L 334.527509 -441.344597 
L 331.550517 -439.938652 
L 328.573525 -438.482675 
L 325.596532 -436.976402 
L 322.61954 -435.429167 
L 319.642548 -433.82839 
L 316.665555 -432.181188 
L 313.688563 -430.492373 
L 310.711571 -428.752791 
L 307.734578 -426.953854 
L 304.757586 -425.088168 
L 301.780594 -423.142305 
L 298.803601 -421.106403 
L 295.826609 -418.981014 
L 292.849617 -416.866478 
z
" style="stroke: #00ffff; stroke-opacity: 0.5"/>
    </defs>
    <g clip-path="url(#pf24bb4747e)">
     <use xlink:href="#m65fb27247c" x="0" y="648" style="fill: #00ffff; fill-opacity: 0.5; stroke: #00ffff; stroke-opacity: 0.5"/>
    </g>
   </g>
   <g id="matplotlib.axis_1">
    <g id="xtick_1">
     <g id="line2d_1">
      <defs>
       <path id="mef32df80b3" d="M 0 0 
L 0 3.5 
" style="stroke: #000000; stroke-width: 0.8"/>
      </defs>
      <g>
       <use xlink:href="#mef32df80b3" x="144" y="304.56" style="stroke: #000000; stroke-width: 0.8"/>
      </g>
     </g>
     <g id="text_1">
      <!-- 0 -->
      <g transform="translate(140.81875 319.158437) scale(0.1 -0.1)">
       <defs>
        <path id="DejaVuSans-30" d="M 2034 4250 
Q 1547 4250 1301 3770 
Q 1056 3291 1056 2328 
Q 1056 1369 1301 889 
Q 1547 409 2034 409 
Q 2525 409 2770 889 
Q 3016 1369 3016 2328 
Q 3016 3291 2770 3770 
Q 2525 4250 2034 4250 
z
M 2034 4750 
Q 2819 4750 3233 4129 
Q 3647 3509 3647 2328 
Q 3647 1150 3233 529 
Q 2819 -91 2034 -91 
Q 1250 -91 836 529 
Q 422 1150 422 2328 
Q 422 3509 836 4129 
Q 1250 4750 2034 4750 
z
" transform="scale(0.015625)"/>
       </defs>
       <use xlink:href="#DejaVuSans-30"/>
      </g>
     </g>
    </g>
    <g id="xtick_2">
     <g id="line2d_2">
      <g>
       <use xlink:href="#mef32df80b3" x="292.849617" y="304.56" style="stroke: #000000; stroke-width: 0.8"/>
      </g>
     </g>
     <g id="text_2">
      <!-- 5 -->
      <g transform="translate(289.668367 319.158437) scale(0.1 -0.1)">
       <defs>
        <path id="DejaVuSans-35" d="M 691 4666 
L 3169 4666 
L 3169 4134 
L 1269 4134 
L 1269 2991 
Q 1406 3038 1543 3061 
Q 1681 3084 1819 3084 
Q 2600 3084 3056 2656 
Q 3513 2228 3513 1497 
Q 3513 744 3044 326 
Q 2575 -91 1722 -91 
Q 1428 -91 1123 -41 
Q 819 9 494 109 
L 494 744 
Q 775 591 1075 516 
Q 1375 441 1709 441 
Q 2250 441 2565 725 
Q 2881 1009 2881 1497 
Q 2881 1984 2565 2268 
Q 2250 2553 1709 2553 
Q 1456 2553 1204 2497 
Q 953 2441 691 2322 
L 691 4666 
z
" transform="scale(0.015625)"/>
       </defs>
       <use xlink:href="#DejaVuSans-35"/>
      </g>
     </g>
    </g>
    <g id="xtick_3">
     <g id="line2d_3">
      <g>
       <use xlink:href="#mef32df80b3" x="441.699233" y="304.56" style="stroke: #000000; stroke-width: 0.8"/>
      </g>
     </g>
     <g id="text_3">
      <!-- 10 -->
      <g transform="translate(435.336733 319.158437) scale(0.1 -0.1)">
       <defs>
        <path id="DejaVuSans-31" d="M 794 531 
L 1825 531 
L 1825 4091 
L 703 3866 
L 703 4441 
L 1819 4666 
L 2450 4666 
L 2450 531 
L 3481 531 
L 3481 0 
L 794 0 
L 794 531 
z
" transform="scale(0.015625)"/>
       </defs>
       <use xlink:href="#DejaVuSans-31"/>
       <use xlink:href="#DejaVuSans-30" x="63.623047"/>
      </g>
     </g>
    </g>
    <g id="xtick_4">
     <g id="line2d_4">
      <g>
       <use xlink:href="#mef32df80b3" x="590.54885" y="304.56" style="stroke: #000000; stroke-width: 0.8"/>
      </g>
     </g>
     <g id="text_4">
      <!-- 15 -->
      <g transform="translate(584.18635 319.158437) scale(0.1 -0.1)">
       <use xlink:href="#DejaVuSans-31"/>
       <use xlink:href="#DejaVuSans-35" x="63.623047"/>
      </g>
     </g>
    </g>
    <g id="xtick_5">
     <g id="line2d_5">
      <g>
       <use xlink:href="#mef32df80b3" x="739.398466" y="304.56" style="stroke: #000000; stroke-width: 0.8"/>
      </g>
     </g>
     <g id="text_5">
      <!-- 20 -->
      <g transform="translate(733.035966 319.158437) scale(0.1 -0.1)">
       <defs>
        <path id="DejaVuSans-32" d="M 1228 531 
L 3431 531 
L 3431 0 
L 469 0 
L 469 531 
Q 828 903 1448 1529 
Q 2069 2156 2228 2338 
Q 2531 2678 2651 2914 
Q 2772 3150 2772 3378 
Q 2772 3750 2511 3984 
Q 2250 4219 1831 4219 
Q 1534 4219 1204 4116 
Q 875 4013 500 3803 
L 500 4441 
Q 881 4594 1212 4672 
Q 1544 4750 1819 4750 
Q 2544 4750 2975 4387 
Q 3406 4025 3406 3419 
Q 3406 3131 3298 2873 
Q 3191 2616 2906 2266 
Q 2828 2175 2409 1742 
Q 1991 1309 1228 531 
z
" transform="scale(0.015625)"/>
       </defs>
       <use xlink:href="#DejaVuSans-32"/>
       <use xlink:href="#DejaVuSans-30" x="63.623047"/>
      </g>
     </g>
    </g>
    <g id="xtick_6">
     <g id="line2d_6">
      <g>
       <use xlink:href="#mef32df80b3" x="888.248083" y="304.56" style="stroke: #000000; stroke-width: 0.8"/>
      </g>
     </g>
     <g id="text_6">
      <!-- 25 -->
      <g transform="translate(881.885583 319.158437) scale(0.1 -0.1)">
       <use xlink:href="#DejaVuSans-32"/>
       <use xlink:href="#DejaVuSans-35" x="63.623047"/>
      </g>
     </g>
    </g>
   </g>
   <g id="matplotlib.axis_2">
    <g id="ytick_1">
     <g id="line2d_7">
      <defs>
       <path id="m968f1cff0e" d="M 0 0 
L -3.5 0 
" style="stroke: #000000; stroke-width: 0.8"/>
      </defs>
      <g>
       <use xlink:href="#m968f1cff0e" x="144" y="273.047736" style="stroke: #000000; stroke-width: 0.8"/>
      </g>
     </g>
     <g id="text_7">
      <!-- 1.0 -->
      <g transform="translate(121.096875 276.846955) scale(0.1 -0.1)">
       <defs>
        <path id="DejaVuSans-2e" d="M 684 794 
L 1344 794 
L 1344 0 
L 684 0 
L 684 794 
z
" transform="scale(0.015625)"/>
       </defs>
       <use xlink:href="#DejaVuSans-31"/>
       <use xlink:href="#DejaVuSans-2e" x="63.623047"/>
       <use xlink:href="#DejaVuSans-30" x="95.410156"/>
      </g>
     </g>
    </g>
    <g id="ytick_2">
     <g id="line2d_8">
      <g>
       <use xlink:href="#m968f1cff0e" x="144" y="233.062414" style="stroke: #000000; stroke-width: 0.8"/>
      </g>
     </g>
     <g id="text_8">
      <!-- 1.5 -->
      <g transform="translate(121.096875 236.861632) scale(0.1 -0.1)">
       <use xlink:href="#DejaVuSans-31"/>
       <use xlink:href="#DejaVuSans-2e" x="63.623047"/>
       <use xlink:href="#DejaVuSans-35" x="95.410156"/>
      </g>
     </g>
    </g>
    <g id="ytick_3">
     <g id="line2d_9">
      <g>
       <use xlink:href="#m968f1cff0e" x="144" y="193.077091" style="stroke: #000000; stroke-width: 0.8"/>
      </g>
     </g>
     <g id="text_9">
      <!-- 2.0 -->
      <g transform="translate(121.096875 196.87631) scale(0.1 -0.1)">
       <use xlink:href="#DejaVuSans-32"/>
       <use xlink:href="#DejaVuSans-2e" x="63.623047"/>
       <use xlink:href="#DejaVuSans-30" x="95.410156"/>
      </g>
     </g>
    </g>
    <g id="ytick_4">
     <g id="line2d_10">
      <g>
       <use xlink:href="#m968f1cff0e" x="144" y="153.091768" style="stroke: #000000; stroke-width: 0.8"/>
      </g>
     </g>
     <g id="text_10">
      <!-- 2.5 -->
      <g transform="translate(121.096875 156.890987) scale(0.1 -0.1)">
       <use xlink:href="#DejaVuSans-32"/>
       <use xlink:href="#DejaVuSans-2e" x="63.623047"/>
       <use xlink:href="#DejaVuSans-35" x="95.410156"/>
      </g>
     </g>
    </g>
    <g id="ytick_5">
     <g id="line2d_11">
      <g>
       <use xlink:href="#m968f1cff0e" x="144" y="113.106445" style="stroke: #000000; stroke-width: 0.8"/>
      </g>
     </g>
     <g id="text_11">
      <!-- 3.0 -->
      <g transform="translate(121.096875 116.905664) scale(0.1 -0.1)">
       <defs>
        <path id="DejaVuSans-33" d="M 2597 2516 
Q 3050 2419 3304 2112 
Q 3559 1806 3559 1356 
Q 3559 666 3084 287 
Q 2609 -91 1734 -91 
Q 1441 -91 1130 -33 
Q 819 25 488 141 
L 488 750 
Q 750 597 1062 519 
Q 1375 441 1716 441 
Q 2309 441 2620 675 
Q 2931 909 2931 1356 
Q 2931 1769 2642 2001 
Q 2353 2234 1838 2234 
L 1294 2234 
L 1294 2753 
L 1863 2753 
Q 2328 2753 2575 2939 
Q 2822 3125 2822 3475 
Q 2822 3834 2567 4026 
Q 2313 4219 1838 4219 
Q 1578 4219 1281 4162 
Q 984 4106 628 3988 
L 628 4550 
Q 988 4650 1302 4700 
Q 1616 4750 1894 4750 
Q 2613 4750 3031 4423 
Q 3450 4097 3450 3541 
Q 3450 3153 3228 2886 
Q 3006 2619 2597 2516 
z
" transform="scale(0.015625)"/>
       </defs>
       <use xlink:href="#DejaVuSans-33"/>
       <use xlink:href="#DejaVuSans-2e" x="63.623047"/>
       <use xlink:href="#DejaVuSans-30" x="95.410156"/>
      </g>
     </g>
    </g>
   </g>
   <g id="line2d_12">
    <path d="M 144 277.898769 
L 146.679293 278.005267 
L 154.717172 278.586764 
L 160.075759 278.706802 
L 165.732044 278.618533 
L 172.281427 278.291944 
L 179.12851 277.735695 
L 186.273291 276.92844 
L 193.418073 275.89916 
L 200.562854 274.647924 
L 207.707636 273.174801 
L 214.852417 271.467126 
L 221.6995 269.60566 
L 228.546582 267.510747 
L 235.393665 265.179404 
L 242.240747 262.61309 
L 249.385529 259.692917 
L 256.53031 256.52362 
L 264.27049 252.832353 
L 272.606069 248.599001 
L 281.834745 243.657793 
L 293.742714 237.030066 
L 296.422007 235.293076 
L 305.948383 228.921932 
L 312.497766 224.859873 
L 319.642548 220.701949 
L 326.48963 216.96927 
L 333.336712 213.498191 
L 339.886095 210.435206 
L 346.435478 207.615955 
L 352.984862 205.042638 
L 359.236546 202.826752 
L 365.19053 200.947355 
L 371.442214 199.217588 
L 377.396199 197.788141 
L 383.945582 196.454023 
L 390.197266 195.42 
L 396.44895 194.598868 
L 403.593731 193.881985 
L 410.738513 193.38899 
L 418.478693 193.050847 
L 427.40967 192.878109 
L 440.508436 192.896025 
L 456.286495 192.902354 
L 465.515172 192.711272 
L 472.659953 192.335629 
L 479.804735 191.732487 
L 486.056419 190.951975 
L 491.117306 190.12081 
L 495.880493 189.099309 
L 500.643681 187.848652 
L 505.10917 186.452921 
L 509.574658 184.829142 
L 513.742447 183.071445 
L 517.910237 181.071468 
L 521.780327 178.948265 
L 525.650417 176.577089 
L 529.520507 173.946256 
L 533.390597 171.02604 
L 537.260687 167.835117 
L 541.130777 164.376504 
L 545.298566 160.365929 
L 549.168656 156.357436 
L 553.931844 151.098412 
L 559.29043 144.823547 
L 565.839813 136.763146 
L 580.427076 118.738064 
L 584.594865 114.024393 
L 588.464955 109.953787 
L 591.739647 106.813838 
L 594.716639 104.234102 
L 597.693631 101.938216 
L 600.670624 99.94075 
L 603.349917 98.405661 
L 605.731511 97.286309 
L 608.410804 96.279901 
L 610.792397 95.613695 
L 613.173991 95.162101 
L 615.555585 94.934989 
L 618.234878 94.918951 
L 620.616472 95.111965 
L 623.295765 95.560251 
L 625.975058 96.253411 
L 628.654351 97.192689 
L 631.631344 98.477163 
L 634.906035 100.138993 
L 638.180727 102.057781 
L 641.753118 104.426027 
L 645.920907 107.459789 
L 650.386395 111.008481 
L 655.149583 115.082748 
L 661.698966 121.000529 
L 671.225342 129.942977 
L 702.483761 159.635891 
L 715.880227 171.975317 
L 737.314572 191.236317 
L 752.497232 204.627102 
L 762.619006 213.21213 
L 773.633878 222.287363 
L 786.434945 232.536098 
L 796.25902 240.137881 
L 805.785395 247.23558 
L 814.120974 253.193853 
L 821.861154 258.469601 
L 829.303635 263.280521 
L 836.150717 267.439686 
L 842.402401 270.993756 
L 848.356385 274.131293 
L 854.31037 277.016465 
L 859.966656 279.514102 
L 865.325242 281.635111 
L 870.683828 283.515387 
L 876.042414 285.154252 
L 881.401 286.550769 
L 886.461887 287.642452 
L 891.820473 288.569484 
L 897.17906 289.265226 
L 902.537646 289.743714 
L 908.193931 290.013263 
L 914.147916 290.062354 
L 920.3996 289.889625 
L 926.948983 289.486337 
L 934.391464 288.789665 
L 943.322441 287.727382 
L 953.741914 286.2483 
L 991.252017 280.748299 
L 1001.96919 279.533888 
L 1010.900167 278.743645 
L 1019.831144 278.166777 
L 1028.464421 277.826818 
L 1036.8 277.708967 
L 1036.8 277.708967 
" clip-path="url(#pf24bb4747e)" style="fill: none; stroke-dasharray: 5.55,2.4; stroke-dashoffset: 0; stroke: #ffa500; stroke-width: 1.5"/>
   </g>
   <g id="line2d_13">
    <path d="M 292.849617 235.526195 
L 301.780594 229.510928 
L 307.734578 225.757327 
L 313.688563 222.212771 
L 319.642548 218.85325 
L 325.596532 215.686587 
L 331.550517 212.717899 
L 337.504502 209.958459 
L 343.458486 207.401278 
L 349.412471 205.051144 
L 355.366455 202.912536 
L 361.32044 200.988065 
L 367.274425 199.301718 
L 373.228409 197.819738 
L 379.182394 196.563312 
L 385.136379 195.503113 
L 391.090363 194.646449 
L 400.02134 193.695184 
L 405.975325 193.250948 
L 414.906302 192.831543 
L 423.837279 192.642302 
L 438.722241 192.660934 
L 453.607202 192.65751 
L 462.538179 192.468491 
L 468.492164 192.175062 
L 474.446149 191.723058 
L 480.400133 191.071866 
L 486.354118 190.193253 
L 492.308103 188.990929 
L 498.262087 187.428964 
L 504.216072 185.471923 
L 507.193064 184.339572 
L 510.170057 183.080551 
L 513.147049 181.691931 
L 516.124041 180.177641 
L 519.101034 178.502938 
L 522.078026 176.680596 
L 525.055018 174.706069 
L 528.032011 172.575218 
L 531.009003 170.264977 
L 533.985995 167.796309 
L 536.962988 165.172696 
L 542.916972 159.443491 
L 545.893965 156.356564 
L 551.847949 149.726313 
L 557.801934 142.650568 
L 569.709903 127.753346 
L 575.663888 120.388178 
L 578.64088 116.853659 
L 581.617873 113.498458 
L 584.594865 110.320326 
L 587.571857 107.350211 
L 590.54885 104.641252 
L 593.525842 102.20968 
L 596.502834 100.067875 
L 599.479827 98.248504 
L 602.456819 96.745809 
L 605.433811 95.613127 
L 608.410804 94.803953 
L 611.387796 94.327785 
L 614.364788 94.205377 
L 617.341781 94.395376 
L 620.318773 94.886388 
L 623.295765 95.667373 
L 626.272758 96.750953 
L 629.24975 98.097411 
L 632.226742 99.649011 
L 635.203735 101.418298 
L 638.180727 103.389793 
L 644.134712 107.793778 
L 650.088696 112.711821 
L 656.042681 118.027349 
L 664.973658 126.372274 
L 679.85862 140.649069 
L 694.743581 154.831993 
L 706.651551 165.951031 
L 718.55952 176.807879 
L 736.421474 192.851061 
L 748.329443 203.372295 
L 760.237412 213.500458 
L 772.145382 223.303684 
L 784.053351 232.823909 
L 792.984328 239.740597 
L 801.915305 246.417053 
L 810.846282 252.827731 
L 819.777259 258.913131 
L 825.731244 262.760789 
L 831.685228 266.417465 
L 837.639213 269.865389 
L 843.593198 273.078975 
L 849.547182 276.044722 
L 855.501167 278.747954 
L 861.455152 281.167107 
L 867.409136 283.289772 
L 873.363121 285.113167 
L 879.317106 286.63429 
L 885.27109 287.853754 
L 891.225075 288.782771 
L 897.17906 289.434283 
L 903.133044 289.818072 
L 909.087029 289.949271 
L 915.041014 289.856695 
L 920.994998 289.573572 
L 926.948983 289.112143 
L 935.87996 288.161572 
L 944.810937 286.994013 
L 962.672891 284.303504 
L 980.534845 281.637748 
L 992.442814 280.117492 
L 1001.373791 279.170458 
L 1010.304768 278.436334 
L 1019.235745 277.919715 
L 1028.166722 277.634525 
L 1034.120707 277.576803 
L 1034.120707 277.576803 
" clip-path="url(#pf24bb4747e)" style="fill: none; stroke: #0000ff; stroke-opacity: 0.5; stroke-width: 1.5; stroke-linecap: square"/>
   </g>
   <g id="patch_3">
    <path d="M 144 304.56 
L 144 77.76 
" style="fill: none; stroke: #000000; stroke-width: 0.8; stroke-linejoin: miter; stroke-linecap: square"/>
   </g>
   <g id="patch_4">
    <path d="M 1036.8 304.56 
L 1036.8 77.76 
" style="fill: none; stroke: #000000; stroke-width: 0.8; stroke-linejoin: miter; stroke-linecap: square"/>
   </g>
   <g id="patch_5">
    <path d="M 144 304.56 
L 1036.8 304.56 
" style="fill: none; stroke: #000000; stroke-width: 0.8; stroke-linejoin: miter; stroke-linecap: square"/>
   </g>
   <g id="patch_6">
    <path d="M 144 77.76 
L 1036.8 77.76 
" style="fill: none; stroke: #000000; stroke-width: 0.8; stroke-linejoin: miter; stroke-linecap: square"/>
   </g>
   <g id="legend_1">
    <g id="patch_7">
     <path d="M 924.2 129.838125 
L 1029.8 129.838125 
Q 1031.8 129.838125 1031.8 127.838125 
L 1031.8 84.76 
Q 1031.8 82.76 1029.8 82.76 
L 924.2 82.76 
Q 922.2 82.76 922.2 84.76 
L 922.2 127.838125 
Q 922.2 129.838125 924.2 129.838125 
z
" style="fill: #ffffff; opacity: 0.8; stroke: #cccccc; stroke-linejoin: miter"/>
    </g>
    <g id="line2d_14">
     <path d="M 926.2 90.86 
L 936.2 90.86 
L 946.2 90.86 
" style="fill: none; stroke-dasharray: 5.55,2.4; stroke-dashoffset: 0; stroke: #ffa500; stroke-width: 1.5"/>
    </g>
    <g id="text_12">
     <!-- Real $y$ Position -->
     <g transform="translate(954.2 94.36) scale(0.1 -0.1)">
      <defs>
       <path id="DejaVuSans-52" d="M 2841 2188 
Q 3044 2119 3236 1894 
Q 3428 1669 3622 1275 
L 4263 0 
L 3584 0 
L 2988 1197 
Q 2756 1666 2539 1819 
Q 2322 1972 1947 1972 
L 1259 1972 
L 1259 0 
L 628 0 
L 628 4666 
L 2053 4666 
Q 2853 4666 3247 4331 
Q 3641 3997 3641 3322 
Q 3641 2881 3436 2590 
Q 3231 2300 2841 2188 
z
M 1259 4147 
L 1259 2491 
L 2053 2491 
Q 2509 2491 2742 2702 
Q 2975 2913 2975 3322 
Q 2975 3731 2742 3939 
Q 2509 4147 2053 4147 
L 1259 4147 
z
" transform="scale(0.015625)"/>
       <path id="DejaVuSans-65" d="M 3597 1894 
L 3597 1613 
L 953 1613 
Q 991 1019 1311 708 
Q 1631 397 2203 397 
Q 2534 397 2845 478 
Q 3156 559 3463 722 
L 3463 178 
Q 3153 47 2828 -22 
Q 2503 -91 2169 -91 
Q 1331 -91 842 396 
Q 353 884 353 1716 
Q 353 2575 817 3079 
Q 1281 3584 2069 3584 
Q 2775 3584 3186 3129 
Q 3597 2675 3597 1894 
z
M 3022 2063 
Q 3016 2534 2758 2815 
Q 2500 3097 2075 3097 
Q 1594 3097 1305 2825 
Q 1016 2553 972 2059 
L 3022 2063 
z
" transform="scale(0.015625)"/>
       <path id="DejaVuSans-61" d="M 2194 1759 
Q 1497 1759 1228 1600 
Q 959 1441 959 1056 
Q 959 750 1161 570 
Q 1363 391 1709 391 
Q 2188 391 2477 730 
Q 2766 1069 2766 1631 
L 2766 1759 
L 2194 1759 
z
M 3341 1997 
L 3341 0 
L 2766 0 
L 2766 531 
Q 2569 213 2275 61 
Q 1981 -91 1556 -91 
Q 1019 -91 701 211 
Q 384 513 384 1019 
Q 384 1609 779 1909 
Q 1175 2209 1959 2209 
L 2766 2209 
L 2766 2266 
Q 2766 2663 2505 2880 
Q 2244 3097 1772 3097 
Q 1472 3097 1187 3025 
Q 903 2953 641 2809 
L 641 3341 
Q 956 3463 1253 3523 
Q 1550 3584 1831 3584 
Q 2591 3584 2966 3190 
Q 3341 2797 3341 1997 
z
" transform="scale(0.015625)"/>
       <path id="DejaVuSans-6c" d="M 603 4863 
L 1178 4863 
L 1178 0 
L 603 0 
L 603 4863 
z
" transform="scale(0.015625)"/>
       <path id="DejaVuSans-20" transform="scale(0.015625)"/>
       <path id="DejaVuSans-Oblique-79" d="M 1588 -325 
Q 1188 -997 936 -1164 
Q 684 -1331 294 -1331 
L -159 -1331 
L -63 -850 
L 269 -850 
Q 509 -850 678 -719 
Q 847 -588 1056 -206 
L 1234 128 
L 459 3500 
L 1069 3500 
L 1650 819 
L 3256 3500 
L 3859 3500 
L 1588 -325 
z
" transform="scale(0.015625)"/>
       <path id="DejaVuSans-50" d="M 1259 4147 
L 1259 2394 
L 2053 2394 
Q 2494 2394 2734 2622 
Q 2975 2850 2975 3272 
Q 2975 3691 2734 3919 
Q 2494 4147 2053 4147 
L 1259 4147 
z
M 628 4666 
L 2053 4666 
Q 2838 4666 3239 4311 
Q 3641 3956 3641 3272 
Q 3641 2581 3239 2228 
Q 2838 1875 2053 1875 
L 1259 1875 
L 1259 0 
L 628 0 
L 628 4666 
z
" transform="scale(0.015625)"/>
       <path id="DejaVuSans-6f" d="M 1959 3097 
Q 1497 3097 1228 2736 
Q 959 2375 959 1747 
Q 959 1119 1226 758 
Q 1494 397 1959 397 
Q 2419 397 2687 759 
Q 2956 1122 2956 1747 
Q 2956 2369 2687 2733 
Q 2419 3097 1959 3097 
z
M 1959 3584 
Q 2709 3584 3137 3096 
Q 3566 2609 3566 1747 
Q 3566 888 3137 398 
Q 2709 -91 1959 -91 
Q 1206 -91 779 398 
Q 353 888 353 1747 
Q 353 2609 779 3096 
Q 1206 3584 1959 3584 
z
" transform="scale(0.015625)"/>
       <path id="DejaVuSans-73" d="M 2834 3397 
L 2834 2853 
Q 2591 2978 2328 3040 
Q 2066 3103 1784 3103 
Q 1356 3103 1142 2972 
Q 928 2841 928 2578 
Q 928 2378 1081 2264 
Q 1234 2150 1697 2047 
L 1894 2003 
Q 2506 1872 2764 1633 
Q 3022 1394 3022 966 
Q 3022 478 2636 193 
Q 2250 -91 1575 -91 
Q 1294 -91 989 -36 
Q 684 19 347 128 
L 347 722 
Q 666 556 975 473 
Q 1284 391 1588 391 
Q 1994 391 2212 530 
Q 2431 669 2431 922 
Q 2431 1156 2273 1281 
Q 2116 1406 1581 1522 
L 1381 1569 
Q 847 1681 609 1914 
Q 372 2147 372 2553 
Q 372 3047 722 3315 
Q 1072 3584 1716 3584 
Q 2034 3584 2315 3537 
Q 2597 3491 2834 3397 
z
" transform="scale(0.015625)"/>
       <path id="DejaVuSans-69" d="M 603 3500 
L 1178 3500 
L 1178 0 
L 603 0 
L 603 3500 
z
M 603 4863 
L 1178 4863 
L 1178 4134 
L 603 4134 
L 603 4863 
z
" transform="scale(0.015625)"/>
       <path id="DejaVuSans-74" d="M 1172 4494 
L 1172 3500 
L 2356 3500 
L 2356 3053 
L 1172 3053 
L 1172 1153 
Q 1172 725 1289 603 
Q 1406 481 1766 481 
L 2356 481 
L 2356 0 
L 1766 0 
Q 1100 0 847 248 
Q 594 497 594 1153 
L 594 3053 
L 172 3053 
L 172 3500 
L 594 3500 
L 594 4494 
L 1172 4494 
z
" transform="scale(0.015625)"/>
       <path id="DejaVuSans-6e" d="M 3513 2113 
L 3513 0 
L 2938 0 
L 2938 2094 
Q 2938 2591 2744 2837 
Q 2550 3084 2163 3084 
Q 1697 3084 1428 2787 
Q 1159 2491 1159 1978 
L 1159 0 
L 581 0 
L 581 3500 
L 1159 3500 
L 1159 2956 
Q 1366 3272 1645 3428 
Q 1925 3584 2291 3584 
Q 2894 3584 3203 3211 
Q 3513 2838 3513 2113 
z
" transform="scale(0.015625)"/>
      </defs>
      <use xlink:href="#DejaVuSans-52" transform="translate(0 0.015625)"/>
      <use xlink:href="#DejaVuSans-65" transform="translate(69.482422 0.015625)"/>
      <use xlink:href="#DejaVuSans-61" transform="translate(131.005859 0.015625)"/>
      <use xlink:href="#DejaVuSans-6c" transform="translate(192.285156 0.015625)"/>
      <use xlink:href="#DejaVuSans-20" transform="translate(220.068359 0.015625)"/>
      <use xlink:href="#DejaVuSans-Oblique-79" transform="translate(251.855469 0.015625)"/>
      <use xlink:href="#DejaVuSans-20" transform="translate(311.035156 0.015625)"/>
      <use xlink:href="#DejaVuSans-50" transform="translate(342.822266 0.015625)"/>
      <use xlink:href="#DejaVuSans-6f" transform="translate(403.125 0.015625)"/>
      <use xlink:href="#DejaVuSans-73" transform="translate(464.306641 0.015625)"/>
      <use xlink:href="#DejaVuSans-69" transform="translate(516.40625 0.015625)"/>
      <use xlink:href="#DejaVuSans-74" transform="translate(544.189453 0.015625)"/>
      <use xlink:href="#DejaVuSans-69" transform="translate(583.398438 0.015625)"/>
      <use xlink:href="#DejaVuSans-6f" transform="translate(611.181641 0.015625)"/>
      <use xlink:href="#DejaVuSans-6e" transform="translate(672.363281 0.015625)"/>
     </g>
    </g>
    <g id="line2d_15">
     <path d="M 926.2 105.56 
L 936.2 105.56 
L 946.2 105.56 
" style="fill: none; stroke: #0000ff; stroke-opacity: 0.5; stroke-width: 1.5; stroke-linecap: square"/>
    </g>
    <g id="text_13">
     <!-- Prediction $y$ -->
     <g transform="translate(954.2 109.06) scale(0.1 -0.1)">
      <defs>
       <path id="DejaVuSans-72" d="M 2631 2963 
Q 2534 3019 2420 3045 
Q 2306 3072 2169 3072 
Q 1681 3072 1420 2755 
Q 1159 2438 1159 1844 
L 1159 0 
L 581 0 
L 581 3500 
L 1159 3500 
L 1159 2956 
Q 1341 3275 1631 3429 
Q 1922 3584 2338 3584 
Q 2397 3584 2469 3576 
Q 2541 3569 2628 3553 
L 2631 2963 
z
" transform="scale(0.015625)"/>
       <path id="DejaVuSans-64" d="M 2906 2969 
L 2906 4863 
L 3481 4863 
L 3481 0 
L 2906 0 
L 2906 525 
Q 2725 213 2448 61 
Q 2172 -91 1784 -91 
Q 1150 -91 751 415 
Q 353 922 353 1747 
Q 353 2572 751 3078 
Q 1150 3584 1784 3584 
Q 2172 3584 2448 3432 
Q 2725 3281 2906 2969 
z
M 947 1747 
Q 947 1113 1208 752 
Q 1469 391 1925 391 
Q 2381 391 2643 752 
Q 2906 1113 2906 1747 
Q 2906 2381 2643 2742 
Q 2381 3103 1925 3103 
Q 1469 3103 1208 2742 
Q 947 2381 947 1747 
z
" transform="scale(0.015625)"/>
       <path id="DejaVuSans-63" d="M 3122 3366 
L 3122 2828 
Q 2878 2963 2633 3030 
Q 2388 3097 2138 3097 
Q 1578 3097 1268 2742 
Q 959 2388 959 1747 
Q 959 1106 1268 751 
Q 1578 397 2138 397 
Q 2388 397 2633 464 
Q 2878 531 3122 666 
L 3122 134 
Q 2881 22 2623 -34 
Q 2366 -91 2075 -91 
Q 1284 -91 818 406 
Q 353 903 353 1747 
Q 353 2603 823 3093 
Q 1294 3584 2113 3584 
Q 2378 3584 2631 3529 
Q 2884 3475 3122 3366 
z
" transform="scale(0.015625)"/>
      </defs>
      <use xlink:href="#DejaVuSans-50" transform="translate(0 0.015625)"/>
      <use xlink:href="#DejaVuSans-72" transform="translate(60.302734 0.015625)"/>
      <use xlink:href="#DejaVuSans-65" transform="translate(101.416016 0.015625)"/>
      <use xlink:href="#DejaVuSans-64" transform="translate(162.939453 0.015625)"/>
      <use xlink:href="#DejaVuSans-69" transform="translate(226.416016 0.015625)"/>
      <use xlink:href="#DejaVuSans-63" transform="translate(254.199219 0.015625)"/>
      <use xlink:href="#DejaVuSans-74" transform="translate(309.179688 0.015625)"/>
      <use xlink:href="#DejaVuSans-69" transform="translate(348.388672 0.015625)"/>
      <use xlink:href="#DejaVuSans-6f" transform="translate(376.171875 0.015625)"/>
      <use xlink:href="#DejaVuSans-6e" transform="translate(437.353516 0.015625)"/>
      <use xlink:href="#DejaVuSans-20" transform="translate(500.732422 0.015625)"/>
      <use xlink:href="#DejaVuSans-Oblique-79" transform="translate(532.519531 0.015625)"/>
     </g>
    </g>
    <g id="patch_8">
     <path d="M 926.2 123.758438 
L 946.2 123.758438 
L 946.2 116.758438 
L 926.2 116.758438 
z
" style="fill: #00ffff; fill-opacity: 0.5; stroke: #00ffff; stroke-opacity: 0.5; stroke-linejoin: miter"/>
    </g>
    <g id="text_14">
     <!-- Confidence -->
     <g transform="translate(954.2 123.758438) scale(0.1 -0.1)">
      <defs>
       <path id="DejaVuSans-43" d="M 4122 4306 
L 4122 3641 
Q 3803 3938 3442 4084 
Q 3081 4231 2675 4231 
Q 1875 4231 1450 3742 
Q 1025 3253 1025 2328 
Q 1025 1406 1450 917 
Q 1875 428 2675 428 
Q 3081 428 3442 575 
Q 3803 722 4122 1019 
L 4122 359 
Q 3791 134 3420 21 
Q 3050 -91 2638 -91 
Q 1578 -91 968 557 
Q 359 1206 359 2328 
Q 359 3453 968 4101 
Q 1578 4750 2638 4750 
Q 3056 4750 3426 4639 
Q 3797 4528 4122 4306 
z
" transform="scale(0.015625)"/>
       <path id="DejaVuSans-66" d="M 2375 4863 
L 2375 4384 
L 1825 4384 
Q 1516 4384 1395 4259 
Q 1275 4134 1275 3809 
L 1275 3500 
L 2222 3500 
L 2222 3053 
L 1275 3053 
L 1275 0 
L 697 0 
L 697 3053 
L 147 3053 
L 147 3500 
L 697 3500 
L 697 3744 
Q 697 4328 969 4595 
Q 1241 4863 1831 4863 
L 2375 4863 
z
" transform="scale(0.015625)"/>
      </defs>
      <use xlink:href="#DejaVuSans-43"/>
      <use xlink:href="#DejaVuSans-6f" x="69.824219"/>
      <use xlink:href="#DejaVuSans-6e" x="131.005859"/>
      <use xlink:href="#DejaVuSans-66" x="194.384766"/>
      <use xlink:href="#DejaVuSans-69" x="229.589844"/>
      <use xlink:href="#DejaVuSans-64" x="257.373047"/>
      <use xlink:href="#DejaVuSans-65" x="320.849609"/>
      <use xlink:href="#DejaVuSans-6e" x="382.373047"/>
      <use xlink:href="#DejaVuSans-63" x="445.751953"/>
      <use xlink:href="#DejaVuSans-65" x="500.732422"/>
     </g>
    </g>
   </g>
  </g>
  <g id="axes_2">
   <g id="patch_9">
    <path d="M 144 576.72 
L 1036.8 576.72 
L 1036.8 349.92 
L 144 349.92 
z
" style="fill: #ffffff"/>
   </g>
   <g id="matplotlib.axis_3">
    <g id="xtick_7">
     <g id="line2d_16">
      <g>
       <use xlink:href="#mef32df80b3" x="144" y="576.72" style="stroke: #000000; stroke-width: 0.8"/>
      </g>
     </g>
     <g id="text_15">
      <!-- 0 -->
      <g transform="translate(140.81875 591.318438) scale(0.1 -0.1)">
       <use xlink:href="#DejaVuSans-30"/>
      </g>
     </g>
    </g>
    <g id="xtick_8">
     <g id="line2d_17">
      <g>
       <use xlink:href="#mef32df80b3" x="292.849617" y="576.72" style="stroke: #000000; stroke-width: 0.8"/>
      </g>
     </g>
     <g id="text_16">
      <!-- 5 -->
      <g transform="translate(289.668367 591.318438) scale(0.1 -0.1)">
       <use xlink:href="#DejaVuSans-35"/>
      </g>
     </g>
    </g>
    <g id="xtick_9">
     <g id="line2d_18">
      <g>
       <use xlink:href="#mef32df80b3" x="441.699233" y="576.72" style="stroke: #000000; stroke-width: 0.8"/>
      </g>
     </g>
     <g id="text_17">
      <!-- 10 -->
      <g transform="translate(435.336733 591.318438) scale(0.1 -0.1)">
       <use xlink:href="#DejaVuSans-31"/>
       <use xlink:href="#DejaVuSans-30" x="63.623047"/>
      </g>
     </g>
    </g>
    <g id="xtick_10">
     <g id="line2d_19">
      <g>
       <use xlink:href="#mef32df80b3" x="590.54885" y="576.72" style="stroke: #000000; stroke-width: 0.8"/>
      </g>
     </g>
     <g id="text_18">
      <!-- 15 -->
      <g transform="translate(584.18635 591.318438) scale(0.1 -0.1)">
       <use xlink:href="#DejaVuSans-31"/>
       <use xlink:href="#DejaVuSans-35" x="63.623047"/>
      </g>
     </g>
    </g>
    <g id="xtick_11">
     <g id="line2d_20">
      <g>
       <use xlink:href="#mef32df80b3" x="739.398466" y="576.72" style="stroke: #000000; stroke-width: 0.8"/>
      </g>
     </g>
     <g id="text_19">
      <!-- 20 -->
      <g transform="translate(733.035966 591.318438) scale(0.1 -0.1)">
       <use xlink:href="#DejaVuSans-32"/>
       <use xlink:href="#DejaVuSans-30" x="63.623047"/>
      </g>
     </g>
    </g>
    <g id="xtick_12">
     <g id="line2d_21">
      <g>
       <use xlink:href="#mef32df80b3" x="888.248083" y="576.72" style="stroke: #000000; stroke-width: 0.8"/>
      </g>
     </g>
     <g id="text_20">
      <!-- 25 -->
      <g transform="translate(881.885583 591.318438) scale(0.1 -0.1)">
       <use xlink:href="#DejaVuSans-32"/>
       <use xlink:href="#DejaVuSans-35" x="63.623047"/>
      </g>
     </g>
    </g>
   </g>
   <g id="matplotlib.axis_4">
    <g id="ytick_6">
     <g id="line2d_22">
      <g>
       <use xlink:href="#m968f1cff0e" x="144" y="536.28181" style="stroke: #000000; stroke-width: 0.8"/>
      </g>
     </g>
     <g id="text_21">
      <!-- −0.04 -->
      <g transform="translate(106.354687 540.081028) scale(0.1 -0.1)">
       <defs>
        <path id="DejaVuSans-2212" d="M 678 2272 
L 4684 2272 
L 4684 1741 
L 678 1741 
L 678 2272 
z
" transform="scale(0.015625)"/>
        <path id="DejaVuSans-34" d="M 2419 4116 
L 825 1625 
L 2419 1625 
L 2419 4116 
z
M 2253 4666 
L 3047 4666 
L 3047 1625 
L 3713 1625 
L 3713 1100 
L 3047 1100 
L 3047 0 
L 2419 0 
L 2419 1100 
L 313 1100 
L 313 1709 
L 2253 4666 
z
" transform="scale(0.015625)"/>
       </defs>
       <use xlink:href="#DejaVuSans-2212"/>
       <use xlink:href="#DejaVuSans-30" x="83.789062"/>
       <use xlink:href="#DejaVuSans-2e" x="147.412109"/>
       <use xlink:href="#DejaVuSans-30" x="179.199219"/>
       <use xlink:href="#DejaVuSans-34" x="242.822266"/>
      </g>
     </g>
    </g>
    <g id="ytick_7">
     <g id="line2d_23">
      <g>
       <use xlink:href="#m968f1cff0e" x="144" y="486.525672" style="stroke: #000000; stroke-width: 0.8"/>
      </g>
     </g>
     <g id="text_22">
      <!-- −0.02 -->
      <g transform="translate(106.354687 490.324891) scale(0.1 -0.1)">
       <use xlink:href="#DejaVuSans-2212"/>
       <use xlink:href="#DejaVuSans-30" x="83.789062"/>
       <use xlink:href="#DejaVuSans-2e" x="147.412109"/>
       <use xlink:href="#DejaVuSans-30" x="179.199219"/>
       <use xlink:href="#DejaVuSans-32" x="242.822266"/>
      </g>
     </g>
    </g>
    <g id="ytick_8">
     <g id="line2d_24">
      <g>
       <use xlink:href="#m968f1cff0e" x="144" y="436.769535" style="stroke: #000000; stroke-width: 0.8"/>
      </g>
     </g>
     <g id="text_23">
      <!-- 0.00 -->
      <g transform="translate(114.734375 440.568754) scale(0.1 -0.1)">
       <use xlink:href="#DejaVuSans-30"/>
       <use xlink:href="#DejaVuSans-2e" x="63.623047"/>
       <use xlink:href="#DejaVuSans-30" x="95.410156"/>
       <use xlink:href="#DejaVuSans-30" x="159.033203"/>
      </g>
     </g>
    </g>
    <g id="ytick_9">
     <g id="line2d_25">
      <g>
       <use xlink:href="#m968f1cff0e" x="144" y="387.013398" style="stroke: #000000; stroke-width: 0.8"/>
      </g>
     </g>
     <g id="text_24">
      <!-- 0.02 -->
      <g transform="translate(114.734375 390.812617) scale(0.1 -0.1)">
       <use xlink:href="#DejaVuSans-30"/>
       <use xlink:href="#DejaVuSans-2e" x="63.623047"/>
       <use xlink:href="#DejaVuSans-30" x="95.410156"/>
       <use xlink:href="#DejaVuSans-32" x="159.033203"/>
      </g>
     </g>
    </g>
   </g>
   <g id="line2d_26">
    <path d="M 144 499.631934 
L 173.769923 505.486235 
L 203.539847 504.930748 
L 322.61954 498.42171 
L 382.159386 495.616176 
L 441.699233 492.863836 
L 471.469156 491.33069 
L 501.23908 489.939648 
L 560.778926 486.833959 
L 620.318773 483.896624 
L 739.398466 477.686463 
L 769.168389 475.938681 
L 798.938313 474.412389 
L 858.478159 470.834627 
L 947.787929 466.111578 
L 977.557853 464.327816 
L 1037.097699 461.351291 
L 1066.867623 459.675372 
L 1096.637546 458.128423 
L 1126.407469 456.767883 
L 1153 455.406324 
L 1153 455.406324 
" clip-path="url(#p09e4b6bcfc)" style="fill: none; stroke: #1f77b4; stroke-width: 1.5; stroke-linecap: square"/>
   </g>
   <g id="patch_10">
    <path d="M 144 576.72 
L 144 349.92 
" style="fill: none; stroke: #000000; stroke-width: 0.8; stroke-linejoin: miter; stroke-linecap: square"/>
   </g>
   <g id="patch_11">
    <path d="M 1036.8 576.72 
L 1036.8 349.92 
" style="fill: none; stroke: #000000; stroke-width: 0.8; stroke-linejoin: miter; stroke-linecap: square"/>
   </g>
   <g id="patch_12">
    <path d="M 144 576.72 
L 1036.8 576.72 
" style="fill: none; stroke: #000000; stroke-width: 0.8; stroke-linejoin: miter; stroke-linecap: square"/>
   </g>
   <g id="patch_13">
    <path d="M 144 349.92 
L 1036.8 349.92 
" style="fill: none; stroke: #000000; stroke-width: 0.8; stroke-linejoin: miter; stroke-linecap: square"/>
   </g>
   <g id="legend_2">
    <g id="patch_14">
     <path d="M 920.578125 372.598125 
L 1029.8 372.598125 
Q 1031.8 372.598125 1031.8 370.598125 
L 1031.8 356.92 
Q 1031.8 354.92 1029.8 354.92 
L 920.578125 354.92 
Q 918.578125 354.92 918.578125 356.92 
L 918.578125 370.598125 
Q 918.578125 372.598125 920.578125 372.598125 
z
" style="fill: #ffffff; opacity: 0.8; stroke: #cccccc; stroke-linejoin: miter"/>
    </g>
    <g id="line2d_27">
     <path d="M 922.578125 363.018437 
L 932.578125 363.018437 
L 942.578125 363.018437 
" style="fill: none; stroke: #1f77b4; stroke-width: 1.5; stroke-linecap: square"/>
    </g>
    <g id="text_25">
     <!-- Prediction Error -->
     <g transform="translate(950.578125 366.518437) scale(0.1 -0.1)">
      <defs>
       <path id="DejaVuSans-45" d="M 628 4666 
L 3578 4666 
L 3578 4134 
L 1259 4134 
L 1259 2753 
L 3481 2753 
L 3481 2222 
L 1259 2222 
L 1259 531 
L 3634 531 
L 3634 0 
L 628 0 
L 628 4666 
z
" transform="scale(0.015625)"/>
      </defs>
      <use xlink:href="#DejaVuSans-50"/>
      <use xlink:href="#DejaVuSans-72" x="58.552734"/>
      <use xlink:href="#DejaVuSans-65" x="97.416016"/>
      <use xlink:href="#DejaVuSans-64" x="158.939453"/>
      <use xlink:href="#DejaVuSans-69" x="222.416016"/>
      <use xlink:href="#DejaVuSans-63" x="250.199219"/>
      <use xlink:href="#DejaVuSans-74" x="305.179688"/>
      <use xlink:href="#DejaVuSans-69" x="344.388672"/>
      <use xlink:href="#DejaVuSans-6f" x="372.171875"/>
      <use xlink:href="#DejaVuSans-6e" x="433.353516"/>
      <use xlink:href="#DejaVuSans-20" x="496.732422"/>
      <use xlink:href="#DejaVuSans-45" x="528.519531"/>
      <use xlink:href="#DejaVuSans-72" x="591.703125"/>
      <use xlink:href="#DejaVuSans-72" x="631.066406"/>
      <use xlink:href="#DejaVuSans-6f" x="669.929688"/>
      <use xlink:href="#DejaVuSans-72" x="731.111328"/>
     </g>
    </g>
   </g>
  </g>
  <g id="text_26">
   <!-- $y$-Position Prediction -->
   <g transform="translate(514.74 22.08) scale(0.12 -0.12)">
    <defs>
     <path id="DejaVuSans-2d" d="M 313 2009 
L 1997 2009 
L 1997 1497 
L 313 1497 
L 313 2009 
z
" transform="scale(0.015625)"/>
    </defs>
    <use xlink:href="#DejaVuSans-Oblique-79" transform="translate(0 0.015625)"/>
    <use xlink:href="#DejaVuSans-2d" transform="translate(59.179688 0.015625)"/>
    <use xlink:href="#DejaVuSans-50" transform="translate(95.263672 0.015625)"/>
    <use xlink:href="#DejaVuSans-6f" transform="translate(155.566406 0.015625)"/>
    <use xlink:href="#DejaVuSans-73" transform="translate(216.748047 0.015625)"/>
    <use xlink:href="#DejaVuSans-69" transform="translate(268.847656 0.015625)"/>
    <use xlink:href="#DejaVuSans-74" transform="translate(296.630859 0.015625)"/>
    <use xlink:href="#DejaVuSans-69" transform="translate(335.839844 0.015625)"/>
    <use xlink:href="#DejaVuSans-6f" transform="translate(363.623047 0.015625)"/>
    <use xlink:href="#DejaVuSans-6e" transform="translate(424.804688 0.015625)"/>
    <use xlink:href="#DejaVuSans-20" transform="translate(488.183594 0.015625)"/>
    <use xlink:href="#DejaVuSans-50" transform="translate(519.970703 0.015625)"/>
    <use xlink:href="#DejaVuSans-72" transform="translate(580.273438 0.015625)"/>
    <use xlink:href="#DejaVuSans-65" transform="translate(621.386719 0.015625)"/>
    <use xlink:href="#DejaVuSans-64" transform="translate(682.910156 0.015625)"/>
    <use xlink:href="#DejaVuSans-69" transform="translate(746.386719 0.015625)"/>
    <use xlink:href="#DejaVuSans-63" transform="translate(774.169922 0.015625)"/>
    <use xlink:href="#DejaVuSans-74" transform="translate(829.150391 0.015625)"/>
    <use xlink:href="#DejaVuSans-69" transform="translate(868.359375 0.015625)"/>
    <use xlink:href="#DejaVuSans-6f" transform="translate(896.142578 0.015625)"/>
    <use xlink:href="#DejaVuSans-6e" transform="translate(957.324219 0.015625)"/>
   </g>
  </g>
 </g>
 <defs>
  <clipPath id="pf24bb4747e">
   <rect x="144" y="77.76" width="892.8" height="226.8"/>
  </clipPath>
  <clipPath id="p09e4b6bcfc">
   <rect x="144" y="349.92" width="892.8" height="226.8"/>
  </clipPath>
 </defs>
</svg>
