<?xml version="1.0" encoding="utf-8" standalone="no"?>
<!DOCTYPE svg PUBLIC "-//W3C//DTD SVG 1.1//EN"
  "http://www.w3.org/Graphics/SVG/1.1/DTD/svg11.dtd">
<svg xmlns:xlink="http://www.w3.org/1999/xlink" width="1152pt" height="648pt" viewBox="0 0 1152 648" xmlns="http://www.w3.org/2000/svg" version="1.1">
 <metadata>
  <rdf:RDF xmlns:dc="http://purl.org/dc/elements/1.1/" xmlns:cc="http://creativecommons.org/ns#" xmlns:rdf="http://www.w3.org/1999/02/22-rdf-syntax-ns#">
   <cc:Work>
    <dc:type rdf:resource="http://purl.org/dc/dcmitype/StillImage"/>
    <dc:date>2024-06-19T20:45:32.416971</dc:date>
    <dc:format>image/svg+xml</dc:format>
    <dc:creator>
     <cc:Agent>
      <dc:title>Matplotlib v3.9.0, https://matplotlib.org/</dc:title>
     </cc:Agent>
    </dc:creator>
   </cc:Work>
  </rdf:RDF>
 </metadata>
 <defs>
  <style type="text/css">*{stroke-linejoin: round; stroke-linecap: butt}</style>
 </defs>
 <g id="figure_1">
  <g id="patch_1">
   <path d="M 0 648 
L 1152 648 
L 1152 0 
L 0 0 
z
" style="fill: #ffffff"/>
  </g>
  <g id="axes_1">
   <g id="patch_2">
    <path d="M 144 304.56 
L 1036.8 304.56 
L 1036.8 77.76 
L 144 77.76 
z
" style="fill: #ffffff"/>
   </g>
   <g id="PolyCollection_1">
    <defs>
     <path id="m04dc3d9022" d="M 292.849617 -558.783069 
L 292.849617 -549.689243 
L 295.826609 -550.355947 
L 298.803601 -550.901762 
L 301.780594 -551.097815 
L 304.757586 -551.002188 
L 307.734578 -550.671826 
L 310.711571 -550.133345 
L 313.688563 -549.405791 
L 316.665555 -548.524894 
L 319.642548 -547.494585 
L 322.61954 -546.322961 
L 325.596532 -545.022781 
L 328.573525 -543.603008 
L 331.550517 -542.049508 
L 334.527509 -540.406407 
L 337.504502 -538.699822 
L 340.481494 -536.933379 
L 343.458486 -535.104794 
L 346.435478 -533.241872 
L 349.412471 -531.334953 
L 352.389463 -529.36763 
L 355.366455 -527.349739 
L 358.343448 -525.283568 
L 361.32044 -523.161046 
L 364.297432 -521.001596 
L 367.274425 -518.804172 
L 370.251417 -516.54409 
L 373.228409 -514.257507 
L 376.205402 -511.947121 
L 379.182394 -509.581716 
L 382.159386 -507.18176 
L 385.136379 -504.756965 
L 388.113371 -502.307911 
L 391.090363 -499.83726 
L 394.067356 -497.348934 
L 397.044348 -494.832619 
L 400.02134 -492.307393 
L 402.998333 -489.764638 
L 405.975325 -487.209376 
L 408.952317 -484.625268 
L 411.92931 -482.026527 
L 414.906302 -479.414149 
L 417.883294 -476.787779 
L 420.860287 -474.146408 
L 423.837279 -471.480773 
L 426.814271 -468.806796 
L 429.791264 -466.100364 
L 432.768256 -463.365762 
L 435.745248 -460.590342 
L 438.722241 -457.802362 
L 441.699233 -454.989588 
L 444.676225 -452.161095 
L 447.653218 -449.33463 
L 450.63021 -446.516429 
L 453.607202 -443.696753 
L 456.584195 -440.877829 
L 459.561187 -438.045657 
L 462.538179 -435.2037 
L 465.515172 -432.359369 
L 468.492164 -429.513217 
L 471.469156 -426.652156 
L 474.446149 -423.778762 
L 477.423141 -420.880833 
L 480.400133 -417.972927 
L 483.377126 -415.049972 
L 486.354118 -412.117229 
L 489.33111 -409.163526 
L 492.308103 -406.20113 
L 495.285095 -403.232826 
L 498.262087 -400.258279 
L 501.23908 -397.294415 
L 504.216072 -394.340195 
L 507.193064 -391.395869 
L 510.170057 -388.470786 
L 513.147049 -385.570918 
L 516.124041 -382.703508 
L 519.101034 -379.886643 
L 522.078026 -377.1228 
L 525.055018 -374.42529 
L 528.032011 -371.809491 
L 531.009003 -369.293736 
L 533.985995 -366.900315 
L 536.962988 -364.63283 
L 539.93998 -362.518841 
L 542.916972 -360.582621 
L 545.893965 -358.842918 
L 548.870957 -357.3227 
L 551.847949 -356.040083 
L 554.824942 -355.020017 
L 557.801934 -354.283814 
L 560.778926 -353.85162 
L 563.755919 -353.749091 
L 566.732911 -353.981887 
L 569.709903 -354.562269 
L 572.686896 -355.489474 
L 575.663888 -356.781756 
L 578.64088 -358.450863 
L 581.617873 -360.468334 
L 584.594865 -362.813744 
L 587.571857 -365.482783 
L 590.54885 -368.444844 
L 593.525842 -371.669342 
L 596.502834 -375.125779 
L 599.479827 -378.76893 
L 602.456819 -382.570792 
L 605.433811 -386.488853 
L 608.410804 -390.483745 
L 611.387796 -394.51514 
L 614.364788 -398.544029 
L 617.341781 -402.540347 
L 620.318773 -406.469548 
L 623.295765 -410.30966 
L 626.272758 -414.034311 
L 629.24975 -417.624441 
L 632.226742 -421.059794 
L 635.203735 -424.328792 
L 638.180727 -427.409354 
L 641.157719 -430.316761 
L 644.134712 -433.049439 
L 647.111704 -435.601673 
L 650.088696 -437.963416 
L 653.065689 -440.15375 
L 656.042681 -442.168656 
L 659.019673 -444.014719 
L 661.996666 -445.696906 
L 664.973658 -447.225429 
L 667.95065 -448.608253 
L 670.927643 -449.864119 
L 673.904635 -450.992136 
L 676.881627 -452.001153 
L 679.85862 -452.893192 
L 682.835612 -453.676289 
L 685.812604 -454.378891 
L 688.789597 -454.997899 
L 691.766589 -455.535001 
L 694.743581 -456.006874 
L 697.720574 -456.41089 
L 700.697566 -456.73904 
L 703.674558 -457.016073 
L 706.651551 -457.241813 
L 709.628543 -457.418429 
L 712.605535 -457.553485 
L 715.582528 -457.658593 
L 718.55952 -457.728758 
L 721.536512 -457.774857 
L 724.513505 -457.798378 
L 727.490497 -457.807019 
L 730.467489 -457.810493 
L 733.444481 -457.804525 
L 736.421474 -457.784564 
L 739.398466 -457.761375 
L 742.375458 -457.7404 
L 745.352451 -457.722618 
L 748.329443 -457.732811 
L 751.306435 -457.76483 
L 754.283428 -457.823145 
L 757.26042 -457.902065 
L 760.237412 -458.000091 
L 763.214405 -458.127591 
L 766.191397 -458.283449 
L 769.168389 -458.462269 
L 772.145382 -458.689218 
L 775.122374 -458.945515 
L 778.099366 -459.230367 
L 781.076359 -459.566455 
L 784.053351 -459.939398 
L 787.030343 -460.366286 
L 790.007336 -460.83786 
L 792.984328 -461.361219 
L 795.96132 -461.934598 
L 798.938313 -462.5602 
L 801.915305 -463.245376 
L 804.892297 -463.981521 
L 807.86929 -464.772784 
L 810.846282 -465.619203 
L 813.823274 -466.526548 
L 816.800267 -467.482054 
L 819.777259 -468.493482 
L 822.754251 -469.565633 
L 825.731244 -470.693639 
L 828.708236 -471.880882 
L 831.685228 -473.118577 
L 834.662221 -474.40506 
L 837.639213 -475.74709 
L 840.616205 -477.138842 
L 843.593198 -478.583238 
L 846.57019 -480.072443 
L 849.547182 -481.607835 
L 852.524175 -483.184337 
L 855.501167 -484.798457 
L 858.478159 -486.450897 
L 861.455152 -488.126518 
L 864.432144 -489.841518 
L 867.409136 -491.577924 
L 870.386129 -493.33055 
L 873.363121 -495.10487 
L 876.340113 -496.891692 
L 879.317106 -498.688571 
L 882.294098 -500.490002 
L 885.27109 -502.29441 
L 888.248083 -504.090167 
L 891.225075 -505.879108 
L 894.202067 -507.661216 
L 897.17906 -509.414976 
L 900.156052 -511.159747 
L 903.133044 -512.882451 
L 906.110037 -514.577875 
L 909.087029 -516.239047 
L 912.064021 -517.877369 
L 915.041014 -519.471765 
L 918.018006 -521.031357 
L 920.994998 -522.555 
L 923.971991 -524.03958 
L 926.948983 -525.48206 
L 929.925975 -526.884557 
L 932.902968 -528.239984 
L 935.87996 -529.544698 
L 938.856952 -530.802279 
L 941.833945 -532.014985 
L 944.810937 -533.183848 
L 947.787929 -534.299359 
L 950.764922 -535.386839 
L 953.741914 -536.422026 
L 956.718906 -537.405435 
L 959.695899 -538.340828 
L 962.672891 -539.215156 
L 965.649883 -540.06576 
L 968.626876 -540.877864 
L 971.603868 -541.636148 
L 974.58086 -542.357369 
L 977.557853 -543.036336 
L 980.534845 -543.66804 
L 983.511837 -544.262549 
L 986.48883 -544.832053 
L 989.465822 -545.35906 
L 992.442814 -545.849923 
L 995.419807 -546.305762 
L 998.396799 -546.73074 
L 1001.373791 -547.115962 
L 1004.350784 -547.483219 
L 1007.327776 -547.795589 
L 1010.304768 -548.110695 
L 1013.281761 -548.385895 
L 1016.258753 -548.64412 
L 1019.235745 -548.855759 
L 1022.212738 -549.048116 
L 1025.18973 -549.215406 
L 1028.166722 -549.34356 
L 1031.143715 -549.462747 
L 1034.120707 -549.545847 
L 1034.120707 -554.543377 
L 1034.120707 -554.543377 
L 1031.143715 -554.596567 
L 1028.166722 -554.61101 
L 1025.18973 -554.612719 
L 1022.212738 -554.572494 
L 1019.235745 -554.504011 
L 1016.258753 -554.413374 
L 1013.281761 -554.273387 
L 1010.304768 -554.1148 
L 1007.327776 -553.914973 
L 1004.350784 -553.716235 
L 1001.373791 -553.460774 
L 998.396799 -553.186069 
L 995.419807 -552.870067 
L 992.442814 -552.522304 
L 989.465822 -552.137623 
L 986.48883 -551.715728 
L 983.511837 -551.250339 
L 980.534845 -550.759761 
L 977.557853 -550.229986 
L 974.58086 -549.650674 
L 971.603868 -549.028151 
L 968.626876 -548.365323 
L 965.649883 -547.647216 
L 962.672891 -546.892724 
L 959.695899 -546.112751 
L 956.718906 -545.26768 
L 953.741914 -544.369958 
L 950.764922 -543.418031 
L 947.787929 -542.414308 
L 944.810937 -541.382167 
L 941.833945 -540.294372 
L 938.856952 -539.161105 
L 935.87996 -537.981618 
L 932.902968 -536.752239 
L 929.925975 -535.468091 
L 926.948983 -534.134464 
L 923.971991 -532.759781 
L 920.994998 -531.34017 
L 918.018006 -529.880038 
L 915.041014 -528.383987 
L 912.064021 -526.849117 
L 909.087029 -525.267127 
L 906.110037 -523.662345 
L 903.133044 -522.018154 
L 900.156052 -520.342784 
L 897.17906 -518.64932 
L 894.202067 -516.942572 
L 891.225075 -515.200723 
L 888.248083 -513.452868 
L 885.27109 -511.694009 
L 882.294098 -509.921997 
L 879.317106 -508.151995 
L 876.340113 -506.386698 
L 873.363121 -504.629783 
L 870.386129 -502.883327 
L 867.409136 -501.155757 
L 864.432144 -499.439335 
L 861.455152 -497.74702 
L 858.478159 -496.092898 
L 855.501167 -494.457962 
L 852.524175 -492.861527 
L 849.547182 -491.298745 
L 846.57019 -489.776072 
L 843.593198 -488.300468 
L 840.616205 -486.871196 
L 837.639213 -485.494234 
L 834.662221 -484.16658 
L 831.685228 -482.893413 
L 828.708236 -481.665248 
L 825.731244 -480.487151 
L 822.754251 -479.369458 
L 819.777259 -478.309369 
L 816.800267 -477.312216 
L 813.823274 -476.366118 
L 810.846282 -475.467759 
L 807.86929 -474.63231 
L 804.892297 -473.852392 
L 801.915305 -473.126958 
L 798.938313 -472.453075 
L 795.96132 -471.842164 
L 792.984328 -471.284557 
L 790.007336 -470.779367 
L 787.030343 -470.326434 
L 784.053351 -469.921929 
L 781.076359 -469.573728 
L 778.099366 -469.265713 
L 775.122374 -469.011513 
L 772.145382 -468.783988 
L 769.168389 -468.589672 
L 766.191397 -468.448035 
L 763.214405 -468.329583 
L 760.237412 -468.241657 
L 757.26042 -468.185108 
L 754.283428 -468.146507 
L 751.306435 -468.128502 
L 748.329443 -468.135203 
L 745.352451 -468.159868 
L 742.375458 -468.203024 
L 739.398466 -468.241751 
L 736.421474 -468.285766 
L 733.444481 -468.329127 
L 730.467489 -468.359557 
L 727.490497 -468.383335 
L 724.513505 -468.406098 
L 721.536512 -468.415978 
L 718.55952 -468.405907 
L 715.582528 -468.373725 
L 712.605535 -468.307748 
L 709.628543 -468.214177 
L 706.651551 -468.080702 
L 703.674558 -467.898232 
L 700.697566 -467.666247 
L 697.720574 -467.382691 
L 694.743581 -467.018086 
L 691.766589 -466.585706 
L 688.789597 -466.089452 
L 685.812604 -465.510377 
L 682.835612 -464.85228 
L 679.85862 -464.118299 
L 676.881627 -463.272468 
L 673.904635 -462.310112 
L 670.927643 -461.228861 
L 667.95065 -460.028423 
L 664.973658 -458.709846 
L 661.996666 -457.25107 
L 659.019673 -455.641417 
L 656.042681 -453.872422 
L 653.065689 -451.936427 
L 650.088696 -449.832555 
L 647.111704 -447.55937 
L 644.134712 -445.095556 
L 641.157719 -442.46321 
L 638.180727 -439.668398 
L 635.203735 -436.696452 
L 632.226742 -433.524364 
L 629.24975 -430.184057 
L 626.272758 -426.682564 
L 623.295765 -423.041061 
L 620.318773 -419.278943 
L 617.341781 -415.422443 
L 614.364788 -411.484024 
L 611.387796 -407.50065 
L 608.410804 -403.502734 
L 605.433811 -399.528183 
L 602.456819 -395.61958 
L 599.479827 -391.81521 
L 596.502834 -388.157965 
L 593.525842 -384.677406 
L 590.54885 -381.419374 
L 587.571857 -378.417249 
L 584.594865 -375.70265 
L 581.617873 -373.305376 
L 578.64088 -371.236086 
L 575.663888 -369.513761 
L 572.686896 -368.159756 
L 569.709903 -367.166073 
L 566.732911 -366.516816 
L 563.755919 -366.212593 
L 560.778926 -366.239991 
L 557.801934 -366.591481 
L 554.824942 -367.244878 
L 551.847949 -368.18074 
L 548.870957 -369.377071 
L 545.893965 -370.811905 
L 542.916972 -372.463956 
L 539.93998 -374.312112 
L 536.962988 -376.336435 
L 533.985995 -378.516628 
L 531.009003 -380.82642 
L 528.032011 -383.256779 
L 525.055018 -385.789067 
L 522.078026 -388.40636 
L 519.101034 -391.094238 
L 516.124041 -393.838934 
L 513.147049 -396.635109 
L 510.170057 -399.469562 
L 507.193064 -402.331896 
L 504.216072 -405.217169 
L 501.23908 -408.117219 
L 498.262087 -411.02633 
L 495.285095 -413.947296 
L 492.308103 -416.866605 
L 489.33111 -419.782598 
L 486.354118 -422.695821 
L 483.377126 -425.594462 
L 480.400133 -428.486958 
L 477.423141 -431.367638 
L 474.446149 -434.24379 
L 471.469156 -437.1033 
L 468.492164 -439.954656 
L 465.515172 -442.794034 
L 462.538179 -445.62963 
L 459.561187 -448.463611 
L 456.584195 -451.291235 
L 453.607202 -454.105462 
L 450.63021 -456.916493 
L 447.653218 -459.719589 
L 444.676225 -462.521248 
L 441.699233 -465.321623 
L 438.722241 -468.109781 
L 435.745248 -470.871571 
L 432.768256 -473.623303 
L 429.791264 -476.342418 
L 426.814271 -479.037975 
L 423.837279 -481.703524 
L 420.860287 -484.361298 
L 417.883294 -486.996859 
L 414.906302 -489.616852 
L 411.92931 -492.222181 
L 408.952317 -494.811806 
L 405.975325 -497.386394 
L 402.998333 -499.935478 
L 400.02134 -502.469385 
L 397.044348 -504.983506 
L 394.067356 -507.486933 
L 391.090363 -509.963796 
L 388.113371 -512.422035 
L 385.136379 -514.859979 
L 382.159386 -517.274039 
L 379.182394 -519.665961 
L 376.205402 -522.036277 
L 373.228409 -524.359014 
L 370.251417 -526.654277 
L 367.274425 -528.929365 
L 364.297432 -531.149251 
L 361.32044 -533.328167 
L 358.343448 -535.465529 
L 355.366455 -537.542512 
L 352.389463 -539.559191 
L 349.412471 -541.513463 
L 346.435478 -543.38433 
L 343.458486 -545.177919 
L 340.481494 -546.899487 
L 337.504502 -548.532489 
L 334.527509 -550.074147 
L 331.550517 -551.53286 
L 328.573525 -552.903326 
L 325.596532 -554.165177 
L 322.61954 -555.3313 
L 319.642548 -556.402618 
L 316.665555 -557.371085 
L 313.688563 -558.223967 
L 310.711571 -558.948972 
L 307.734578 -559.495782 
L 304.757586 -559.831679 
L 301.780594 -559.930909 
L 298.803601 -559.784205 
L 295.826609 -559.387353 
L 292.849617 -558.783069 
z
" style="stroke: #00ffff; stroke-opacity: 0.5"/>
    </defs>
    <g clip-path="url(#p2d49c0e609)">
     <use xlink:href="#m04dc3d9022" x="0" y="648" style="fill: #00ffff; fill-opacity: 0.5; stroke: #00ffff; stroke-opacity: 0.5"/>
    </g>
   </g>
   <g id="matplotlib.axis_1">
    <g id="xtick_1">
     <g id="line2d_1">
      <defs>
       <path id="m949cc3ada6" d="M 0 0 
L 0 3.5 
" style="stroke: #000000; stroke-width: 0.8"/>
      </defs>
      <g>
       <use xlink:href="#m949cc3ada6" x="144" y="304.56" style="stroke: #000000; stroke-width: 0.8"/>
      </g>
     </g>
     <g id="text_1">
      <!-- 0 -->
      <g transform="translate(140.81875 319.158437) scale(0.1 -0.1)">
       <defs>
        <path id="DejaVuSans-30" d="M 2034 4250 
Q 1547 4250 1301 3770 
Q 1056 3291 1056 2328 
Q 1056 1369 1301 889 
Q 1547 409 2034 409 
Q 2525 409 2770 889 
Q 3016 1369 3016 2328 
Q 3016 3291 2770 3770 
Q 2525 4250 2034 4250 
z
M 2034 4750 
Q 2819 4750 3233 4129 
Q 3647 3509 3647 2328 
Q 3647 1150 3233 529 
Q 2819 -91 2034 -91 
Q 1250 -91 836 529 
Q 422 1150 422 2328 
Q 422 3509 836 4129 
Q 1250 4750 2034 4750 
z
" transform="scale(0.015625)"/>
       </defs>
       <use xlink:href="#DejaVuSans-30"/>
      </g>
     </g>
    </g>
    <g id="xtick_2">
     <g id="line2d_2">
      <g>
       <use xlink:href="#m949cc3ada6" x="292.849617" y="304.56" style="stroke: #000000; stroke-width: 0.8"/>
      </g>
     </g>
     <g id="text_2">
      <!-- 5 -->
      <g transform="translate(289.668367 319.158437) scale(0.1 -0.1)">
       <defs>
        <path id="DejaVuSans-35" d="M 691 4666 
L 3169 4666 
L 3169 4134 
L 1269 4134 
L 1269 2991 
Q 1406 3038 1543 3061 
Q 1681 3084 1819 3084 
Q 2600 3084 3056 2656 
Q 3513 2228 3513 1497 
Q 3513 744 3044 326 
Q 2575 -91 1722 -91 
Q 1428 -91 1123 -41 
Q 819 9 494 109 
L 494 744 
Q 775 591 1075 516 
Q 1375 441 1709 441 
Q 2250 441 2565 725 
Q 2881 1009 2881 1497 
Q 2881 1984 2565 2268 
Q 2250 2553 1709 2553 
Q 1456 2553 1204 2497 
Q 953 2441 691 2322 
L 691 4666 
z
" transform="scale(0.015625)"/>
       </defs>
       <use xlink:href="#DejaVuSans-35"/>
      </g>
     </g>
    </g>
    <g id="xtick_3">
     <g id="line2d_3">
      <g>
       <use xlink:href="#m949cc3ada6" x="441.699233" y="304.56" style="stroke: #000000; stroke-width: 0.8"/>
      </g>
     </g>
     <g id="text_3">
      <!-- 10 -->
      <g transform="translate(435.336733 319.158437) scale(0.1 -0.1)">
       <defs>
        <path id="DejaVuSans-31" d="M 794 531 
L 1825 531 
L 1825 4091 
L 703 3866 
L 703 4441 
L 1819 4666 
L 2450 4666 
L 2450 531 
L 3481 531 
L 3481 0 
L 794 0 
L 794 531 
z
" transform="scale(0.015625)"/>
       </defs>
       <use xlink:href="#DejaVuSans-31"/>
       <use xlink:href="#DejaVuSans-30" x="63.623047"/>
      </g>
     </g>
    </g>
    <g id="xtick_4">
     <g id="line2d_4">
      <g>
       <use xlink:href="#m949cc3ada6" x="590.54885" y="304.56" style="stroke: #000000; stroke-width: 0.8"/>
      </g>
     </g>
     <g id="text_4">
      <!-- 15 -->
      <g transform="translate(584.18635 319.158437) scale(0.1 -0.1)">
       <use xlink:href="#DejaVuSans-31"/>
       <use xlink:href="#DejaVuSans-35" x="63.623047"/>
      </g>
     </g>
    </g>
    <g id="xtick_5">
     <g id="line2d_5">
      <g>
       <use xlink:href="#m949cc3ada6" x="739.398466" y="304.56" style="stroke: #000000; stroke-width: 0.8"/>
      </g>
     </g>
     <g id="text_5">
      <!-- 20 -->
      <g transform="translate(733.035966 319.158437) scale(0.1 -0.1)">
       <defs>
        <path id="DejaVuSans-32" d="M 1228 531 
L 3431 531 
L 3431 0 
L 469 0 
L 469 531 
Q 828 903 1448 1529 
Q 2069 2156 2228 2338 
Q 2531 2678 2651 2914 
Q 2772 3150 2772 3378 
Q 2772 3750 2511 3984 
Q 2250 4219 1831 4219 
Q 1534 4219 1204 4116 
Q 875 4013 500 3803 
L 500 4441 
Q 881 4594 1212 4672 
Q 1544 4750 1819 4750 
Q 2544 4750 2975 4387 
Q 3406 4025 3406 3419 
Q 3406 3131 3298 2873 
Q 3191 2616 2906 2266 
Q 2828 2175 2409 1742 
Q 1991 1309 1228 531 
z
" transform="scale(0.015625)"/>
       </defs>
       <use xlink:href="#DejaVuSans-32"/>
       <use xlink:href="#DejaVuSans-30" x="63.623047"/>
      </g>
     </g>
    </g>
    <g id="xtick_6">
     <g id="line2d_6">
      <g>
       <use xlink:href="#m949cc3ada6" x="888.248083" y="304.56" style="stroke: #000000; stroke-width: 0.8"/>
      </g>
     </g>
     <g id="text_6">
      <!-- 25 -->
      <g transform="translate(881.885583 319.158437) scale(0.1 -0.1)">
       <use xlink:href="#DejaVuSans-32"/>
       <use xlink:href="#DejaVuSans-35" x="63.623047"/>
      </g>
     </g>
    </g>
   </g>
   <g id="matplotlib.axis_2">
    <g id="ytick_1">
     <g id="line2d_7">
      <defs>
       <path id="m4381878895" d="M 0 0 
L -3.5 0 
" style="stroke: #000000; stroke-width: 0.8"/>
      </defs>
      <g>
       <use xlink:href="#m4381878895" x="144" y="269.349287" style="stroke: #000000; stroke-width: 0.8"/>
      </g>
     </g>
     <g id="text_7">
      <!-- 1.0 -->
      <g transform="translate(121.096875 273.148506) scale(0.1 -0.1)">
       <defs>
        <path id="DejaVuSans-2e" d="M 684 794 
L 1344 794 
L 1344 0 
L 684 0 
L 684 794 
z
" transform="scale(0.015625)"/>
       </defs>
       <use xlink:href="#DejaVuSans-31"/>
       <use xlink:href="#DejaVuSans-2e" x="63.623047"/>
       <use xlink:href="#DejaVuSans-30" x="95.410156"/>
      </g>
     </g>
    </g>
    <g id="ytick_2">
     <g id="line2d_8">
      <g>
       <use xlink:href="#m4381878895" x="144" y="227.43082" style="stroke: #000000; stroke-width: 0.8"/>
      </g>
     </g>
     <g id="text_8">
      <!-- 1.5 -->
      <g transform="translate(121.096875 231.230039) scale(0.1 -0.1)">
       <use xlink:href="#DejaVuSans-31"/>
       <use xlink:href="#DejaVuSans-2e" x="63.623047"/>
       <use xlink:href="#DejaVuSans-35" x="95.410156"/>
      </g>
     </g>
    </g>
    <g id="ytick_3">
     <g id="line2d_9">
      <g>
       <use xlink:href="#m4381878895" x="144" y="185.512354" style="stroke: #000000; stroke-width: 0.8"/>
      </g>
     </g>
     <g id="text_9">
      <!-- 2.0 -->
      <g transform="translate(121.096875 189.311573) scale(0.1 -0.1)">
       <use xlink:href="#DejaVuSans-32"/>
       <use xlink:href="#DejaVuSans-2e" x="63.623047"/>
       <use xlink:href="#DejaVuSans-30" x="95.410156"/>
      </g>
     </g>
    </g>
    <g id="ytick_4">
     <g id="line2d_10">
      <g>
       <use xlink:href="#m4381878895" x="144" y="143.593888" style="stroke: #000000; stroke-width: 0.8"/>
      </g>
     </g>
     <g id="text_10">
      <!-- 2.5 -->
      <g transform="translate(121.096875 147.393107) scale(0.1 -0.1)">
       <use xlink:href="#DejaVuSans-32"/>
       <use xlink:href="#DejaVuSans-2e" x="63.623047"/>
       <use xlink:href="#DejaVuSans-35" x="95.410156"/>
      </g>
     </g>
    </g>
    <g id="ytick_5">
     <g id="line2d_11">
      <g>
       <use xlink:href="#m4381878895" x="144" y="101.675422" style="stroke: #000000; stroke-width: 0.8"/>
      </g>
     </g>
     <g id="text_11">
      <!-- 3.0 -->
      <g transform="translate(121.096875 105.47464) scale(0.1 -0.1)">
       <defs>
        <path id="DejaVuSans-33" d="M 2597 2516 
Q 3050 2419 3304 2112 
Q 3559 1806 3559 1356 
Q 3559 666 3084 287 
Q 2609 -91 1734 -91 
Q 1441 -91 1130 -33 
Q 819 25 488 141 
L 488 750 
Q 750 597 1062 519 
Q 1375 441 1716 441 
Q 2309 441 2620 675 
Q 2931 909 2931 1356 
Q 2931 1769 2642 2001 
Q 2353 2234 1838 2234 
L 1294 2234 
L 1294 2753 
L 1863 2753 
Q 2328 2753 2575 2939 
Q 2822 3125 2822 3475 
Q 2822 3834 2567 4026 
Q 2313 4219 1838 4219 
Q 1578 4219 1281 4162 
Q 984 4106 628 3988 
L 628 4550 
Q 988 4650 1302 4700 
Q 1616 4750 1894 4750 
Q 2613 4750 3031 4423 
Q 3450 4097 3450 3541 
Q 3450 3153 3228 2886 
Q 3006 2619 2597 2516 
z
" transform="scale(0.015625)"/>
       </defs>
       <use xlink:href="#DejaVuSans-33"/>
       <use xlink:href="#DejaVuSans-2e" x="63.623047"/>
       <use xlink:href="#DejaVuSans-30" x="95.410156"/>
      </g>
     </g>
    </g>
   </g>
   <g id="line2d_12">
    <path d="M 144 96.589859 
L 145.190797 96.688075 
L 146.381594 96.981215 
L 148.763188 97.927268 
L 152.633278 99.39409 
L 155.61027 100.273251 
L 158.587262 100.933441 
L 161.861954 101.432685 
L 165.732044 101.783289 
L 169.899833 101.943558 
L 174.96072 101.902456 
L 180.914705 101.618514 
L 188.357186 101.000338 
L 196.097366 100.150208 
L 206.814538 98.748507 
L 241.347649 94.019552 
L 249.980927 93.159682 
L 257.423408 92.61654 
L 263.972791 92.372046 
L 269.926776 92.350173 
L 275.583061 92.534376 
L 281.537046 92.943396 
L 286.597933 93.504024 
L 291.956519 94.300959 
L 294.040413 94.568907 
L 295.23121 94.492367 
L 297.612804 93.994765 
L 300.887496 93.395632 
L 303.566789 93.153522 
L 306.246082 93.135314 
L 309.223074 93.353078 
L 312.200067 93.794562 
L 315.474758 94.499903 
L 319.344848 95.57228 
L 323.214938 96.869578 
L 327.680427 98.61146 
L 331.550517 100.337126 
L 336.313705 102.702909 
L 341.672291 105.607834 
L 347.626275 109.111958 
L 353.877959 113.054855 
L 360.129643 117.275121 
L 367.572124 122.596655 
L 374.716906 127.974601 
L 382.754785 134.259016 
L 393.174258 142.730727 
L 404.18913 151.963614 
L 415.204001 161.449837 
L 428.302768 173.021089 
L 438.126842 181.98131 
L 449.737112 192.871471 
L 472.957653 214.897696 
L 486.949517 228.443297 
L 522.375725 262.935266 
L 528.627409 268.561661 
L 533.688296 272.83873 
L 538.153785 276.338862 
L 542.023875 279.118511 
L 545.596265 281.431144 
L 548.870957 283.30379 
L 552.145649 284.915745 
L 555.122641 286.127996 
L 557.801934 286.995585 
L 560.481227 287.635385 
L 562.862821 287.997857 
L 565.244415 288.15368 
L 567.626009 288.10063 
L 570.007603 287.830543 
L 572.389196 287.342071 
L 574.77079 286.631692 
L 577.152384 285.689073 
L 579.533978 284.507101 
L 582.213271 282.903017 
L 584.892564 281.025144 
L 587.571857 278.876916 
L 590.54885 276.185818 
L 593.823541 272.890854 
L 597.395932 268.947742 
L 601.266022 264.333365 
L 606.02921 258.278919 
L 612.876292 249.159708 
L 623.295765 235.300209 
L 628.654351 228.547811 
L 633.11984 223.249738 
L 637.287629 218.628813 
L 641.157719 214.664871 
L 645.325509 210.721636 
L 649.195599 207.362884 
L 653.065689 204.316179 
L 656.935779 201.56259 
L 660.805869 199.098707 
L 664.675959 196.913237 
L 668.546049 194.987247 
L 672.713838 193.16371 
L 676.881627 191.585553 
L 681.049416 190.244676 
L 685.514905 189.052207 
L 690.575792 187.933994 
L 695.934378 186.994734 
L 700.995265 186.322857 
L 706.94925 185.773017 
L 713.498633 185.399971 
L 720.941114 185.1959 
L 731.360587 185.158556 
L 749.817939 185.3198 
L 758.748916 185.240869 
L 767.679893 184.95997 
L 774.824675 184.536705 
L 782.564855 183.851847 
L 789.114238 183.040296 
L 795.663621 181.991565 
L 801.617606 180.817384 
L 807.86929 179.348469 
L 813.823274 177.72222 
L 820.372658 175.682478 
L 826.326642 173.59007 
L 832.280627 171.265766 
L 838.83001 168.475393 
L 845.379393 165.437081 
L 852.226475 162.004154 
L 859.966656 157.869576 
L 868.302234 153.170979 
L 880.507903 146.002606 
L 902.537646 132.988631 
L 911.468623 127.991155 
L 919.208803 123.897824 
L 926.948983 120.05615 
L 934.093765 116.762468 
L 940.940847 113.869958 
L 947.49023 111.334422 
L 955.23041 108.612005 
L 961.482094 106.658494 
L 968.924575 104.607399 
L 975.176259 103.085081 
L 981.725642 101.69792 
L 989.465822 100.30196 
L 996.908303 99.193433 
L 1004.350784 98.300281 
L 1011.793264 97.606334 
L 1020.128843 97.025865 
L 1028.762121 96.679127 
L 1036.8 96.568697 
L 1036.8 96.568697 
" clip-path="url(#p2d49c0e609)" style="fill: none; stroke-dasharray: 5.55,2.4; stroke-dashoffset: 0; stroke: #ffa500; stroke-width: 1.5"/>
   </g>
   <g id="line2d_13">
    <path d="M 292.849617 93.763844 
L 295.826609 93.12835 
L 298.803601 92.657016 
L 301.780594 92.485638 
L 304.757586 92.583066 
L 307.734578 92.916196 
L 310.711571 93.458841 
L 313.688563 94.185121 
L 316.665555 95.05201 
L 319.642548 96.051398 
L 325.596532 98.406021 
L 331.550517 101.208816 
L 337.504502 104.383844 
L 343.458486 107.858644 
L 349.412471 111.575792 
L 355.366455 115.553874 
L 361.32044 119.755393 
L 367.274425 124.133231 
L 376.205402 131.008301 
L 385.136379 138.191528 
L 397.044348 148.091937 
L 408.952317 158.281463 
L 420.860287 168.746147 
L 432.768256 179.505468 
L 447.653218 193.47289 
L 468.492164 213.266063 
L 483.377126 227.677783 
L 516.124041 259.728779 
L 522.078026 265.23542 
L 528.032011 270.466865 
L 533.985995 275.291528 
L 536.962988 277.515367 
L 539.93998 279.584524 
L 542.916972 281.476711 
L 545.893965 283.172588 
L 548.870957 284.650114 
L 551.847949 285.889589 
L 554.824942 286.867552 
L 557.801934 287.562352 
L 560.778926 287.954194 
L 563.755919 288.019158 
L 566.732911 287.750648 
L 569.709903 287.135829 
L 572.686896 286.175385 
L 575.663888 284.852241 
L 578.64088 283.156525 
L 581.617873 281.113145 
L 584.594865 278.741803 
L 587.571857 276.049984 
L 590.54885 273.067891 
L 593.525842 269.826626 
L 596.502834 266.358128 
L 602.456819 258.904814 
L 611.387796 246.992105 
L 620.318773 235.125755 
L 626.272758 227.641563 
L 632.226742 220.707921 
L 635.203735 217.487378 
L 638.180727 214.461124 
L 641.157719 211.610014 
L 644.134712 208.927503 
L 647.111704 206.419478 
L 650.088696 204.102014 
L 653.065689 201.954911 
L 656.042681 199.979461 
L 659.019673 198.171932 
L 661.996666 196.526012 
L 664.973658 195.032362 
L 667.95065 193.681662 
L 670.927643 192.45351 
L 673.904635 191.348876 
L 679.85862 189.494255 
L 685.812604 188.055366 
L 691.766589 186.939647 
L 697.720574 186.10321 
L 703.674558 185.542847 
L 709.628543 185.183697 
L 718.55952 184.932667 
L 730.467489 184.914975 
L 754.283428 185.015174 
L 763.214405 184.771413 
L 772.145382 184.263397 
L 781.076359 183.429909 
L 787.030343 182.65364 
L 792.984328 181.677112 
L 798.938313 180.493362 
L 804.892297 179.083043 
L 810.846282 177.456519 
L 816.800267 175.602865 
L 822.754251 173.532455 
L 828.708236 171.226935 
L 834.662221 168.71418 
L 840.616205 165.994981 
L 846.57019 163.075742 
L 855.501167 158.37179 
L 864.432144 153.359574 
L 876.340113 146.360805 
L 897.17906 133.967852 
L 906.110037 128.87989 
L 915.041014 124.072124 
L 923.971991 119.60032 
L 929.925975 116.823676 
L 935.87996 114.236842 
L 941.833945 111.845321 
L 947.787929 109.643167 
L 953.741914 107.604008 
L 959.695899 105.77321 
L 968.626876 103.378406 
L 974.58086 101.995979 
L 980.534845 100.786099 
L 989.465822 99.251659 
L 998.396799 98.041596 
L 1007.327776 97.144719 
L 1016.258753 96.471253 
L 1025.18973 96.085938 
L 1034.120707 95.955388 
L 1034.120707 95.955388 
" clip-path="url(#p2d49c0e609)" style="fill: none; stroke: #0000ff; stroke-opacity: 0.5; stroke-width: 1.5; stroke-linecap: square"/>
   </g>
   <g id="patch_3">
    <path d="M 144 304.56 
L 144 77.76 
" style="fill: none; stroke: #000000; stroke-width: 0.8; stroke-linejoin: miter; stroke-linecap: square"/>
   </g>
   <g id="patch_4">
    <path d="M 1036.8 304.56 
L 1036.8 77.76 
" style="fill: none; stroke: #000000; stroke-width: 0.8; stroke-linejoin: miter; stroke-linecap: square"/>
   </g>
   <g id="patch_5">
    <path d="M 144 304.56 
L 1036.8 304.56 
" style="fill: none; stroke: #000000; stroke-width: 0.8; stroke-linejoin: miter; stroke-linecap: square"/>
   </g>
   <g id="patch_6">
    <path d="M 144 77.76 
L 1036.8 77.76 
" style="fill: none; stroke: #000000; stroke-width: 0.8; stroke-linejoin: miter; stroke-linecap: square"/>
   </g>
   <g id="legend_1">
    <g id="patch_7">
     <path d="M 151 299.56 
L 256.6 299.56 
Q 258.6 299.56 258.6 297.56 
L 258.6 254.481875 
Q 258.6 252.481875 256.6 252.481875 
L 151 252.481875 
Q 149 252.481875 149 254.481875 
L 149 297.56 
Q 149 299.56 151 299.56 
z
" style="fill: #ffffff; opacity: 0.8; stroke: #cccccc; stroke-linejoin: miter"/>
    </g>
    <g id="line2d_14">
     <path d="M 153 260.581875 
L 163 260.581875 
L 173 260.581875 
" style="fill: none; stroke-dasharray: 5.55,2.4; stroke-dashoffset: 0; stroke: #ffa500; stroke-width: 1.5"/>
    </g>
    <g id="text_12">
     <!-- Real $y$ Position -->
     <g transform="translate(181 264.081875) scale(0.1 -0.1)">
      <defs>
       <path id="DejaVuSans-52" d="M 2841 2188 
Q 3044 2119 3236 1894 
Q 3428 1669 3622 1275 
L 4263 0 
L 3584 0 
L 2988 1197 
Q 2756 1666 2539 1819 
Q 2322 1972 1947 1972 
L 1259 1972 
L 1259 0 
L 628 0 
L 628 4666 
L 2053 4666 
Q 2853 4666 3247 4331 
Q 3641 3997 3641 3322 
Q 3641 2881 3436 2590 
Q 3231 2300 2841 2188 
z
M 1259 4147 
L 1259 2491 
L 2053 2491 
Q 2509 2491 2742 2702 
Q 2975 2913 2975 3322 
Q 2975 3731 2742 3939 
Q 2509 4147 2053 4147 
L 1259 4147 
z
" transform="scale(0.015625)"/>
       <path id="DejaVuSans-65" d="M 3597 1894 
L 3597 1613 
L 953 1613 
Q 991 1019 1311 708 
Q 1631 397 2203 397 
Q 2534 397 2845 478 
Q 3156 559 3463 722 
L 3463 178 
Q 3153 47 2828 -22 
Q 2503 -91 2169 -91 
Q 1331 -91 842 396 
Q 353 884 353 1716 
Q 353 2575 817 3079 
Q 1281 3584 2069 3584 
Q 2775 3584 3186 3129 
Q 3597 2675 3597 1894 
z
M 3022 2063 
Q 3016 2534 2758 2815 
Q 2500 3097 2075 3097 
Q 1594 3097 1305 2825 
Q 1016 2553 972 2059 
L 3022 2063 
z
" transform="scale(0.015625)"/>
       <path id="DejaVuSans-61" d="M 2194 1759 
Q 1497 1759 1228 1600 
Q 959 1441 959 1056 
Q 959 750 1161 570 
Q 1363 391 1709 391 
Q 2188 391 2477 730 
Q 2766 1069 2766 1631 
L 2766 1759 
L 2194 1759 
z
M 3341 1997 
L 3341 0 
L 2766 0 
L 2766 531 
Q 2569 213 2275 61 
Q 1981 -91 1556 -91 
Q 1019 -91 701 211 
Q 384 513 384 1019 
Q 384 1609 779 1909 
Q 1175 2209 1959 2209 
L 2766 2209 
L 2766 2266 
Q 2766 2663 2505 2880 
Q 2244 3097 1772 3097 
Q 1472 3097 1187 3025 
Q 903 2953 641 2809 
L 641 3341 
Q 956 3463 1253 3523 
Q 1550 3584 1831 3584 
Q 2591 3584 2966 3190 
Q 3341 2797 3341 1997 
z
" transform="scale(0.015625)"/>
       <path id="DejaVuSans-6c" d="M 603 4863 
L 1178 4863 
L 1178 0 
L 603 0 
L 603 4863 
z
" transform="scale(0.015625)"/>
       <path id="DejaVuSans-20" transform="scale(0.015625)"/>
       <path id="DejaVuSans-Oblique-79" d="M 1588 -325 
Q 1188 -997 936 -1164 
Q 684 -1331 294 -1331 
L -159 -1331 
L -63 -850 
L 269 -850 
Q 509 -850 678 -719 
Q 847 -588 1056 -206 
L 1234 128 
L 459 3500 
L 1069 3500 
L 1650 819 
L 3256 3500 
L 3859 3500 
L 1588 -325 
z
" transform="scale(0.015625)"/>
       <path id="DejaVuSans-50" d="M 1259 4147 
L 1259 2394 
L 2053 2394 
Q 2494 2394 2734 2622 
Q 2975 2850 2975 3272 
Q 2975 3691 2734 3919 
Q 2494 4147 2053 4147 
L 1259 4147 
z
M 628 4666 
L 2053 4666 
Q 2838 4666 3239 4311 
Q 3641 3956 3641 3272 
Q 3641 2581 3239 2228 
Q 2838 1875 2053 1875 
L 1259 1875 
L 1259 0 
L 628 0 
L 628 4666 
z
" transform="scale(0.015625)"/>
       <path id="DejaVuSans-6f" d="M 1959 3097 
Q 1497 3097 1228 2736 
Q 959 2375 959 1747 
Q 959 1119 1226 758 
Q 1494 397 1959 397 
Q 2419 397 2687 759 
Q 2956 1122 2956 1747 
Q 2956 2369 2687 2733 
Q 2419 3097 1959 3097 
z
M 1959 3584 
Q 2709 3584 3137 3096 
Q 3566 2609 3566 1747 
Q 3566 888 3137 398 
Q 2709 -91 1959 -91 
Q 1206 -91 779 398 
Q 353 888 353 1747 
Q 353 2609 779 3096 
Q 1206 3584 1959 3584 
z
" transform="scale(0.015625)"/>
       <path id="DejaVuSans-73" d="M 2834 3397 
L 2834 2853 
Q 2591 2978 2328 3040 
Q 2066 3103 1784 3103 
Q 1356 3103 1142 2972 
Q 928 2841 928 2578 
Q 928 2378 1081 2264 
Q 1234 2150 1697 2047 
L 1894 2003 
Q 2506 1872 2764 1633 
Q 3022 1394 3022 966 
Q 3022 478 2636 193 
Q 2250 -91 1575 -91 
Q 1294 -91 989 -36 
Q 684 19 347 128 
L 347 722 
Q 666 556 975 473 
Q 1284 391 1588 391 
Q 1994 391 2212 530 
Q 2431 669 2431 922 
Q 2431 1156 2273 1281 
Q 2116 1406 1581 1522 
L 1381 1569 
Q 847 1681 609 1914 
Q 372 2147 372 2553 
Q 372 3047 722 3315 
Q 1072 3584 1716 3584 
Q 2034 3584 2315 3537 
Q 2597 3491 2834 3397 
z
" transform="scale(0.015625)"/>
       <path id="DejaVuSans-69" d="M 603 3500 
L 1178 3500 
L 1178 0 
L 603 0 
L 603 3500 
z
M 603 4863 
L 1178 4863 
L 1178 4134 
L 603 4134 
L 603 4863 
z
" transform="scale(0.015625)"/>
       <path id="DejaVuSans-74" d="M 1172 4494 
L 1172 3500 
L 2356 3500 
L 2356 3053 
L 1172 3053 
L 1172 1153 
Q 1172 725 1289 603 
Q 1406 481 1766 481 
L 2356 481 
L 2356 0 
L 1766 0 
Q 1100 0 847 248 
Q 594 497 594 1153 
L 594 3053 
L 172 3053 
L 172 3500 
L 594 3500 
L 594 4494 
L 1172 4494 
z
" transform="scale(0.015625)"/>
       <path id="DejaVuSans-6e" d="M 3513 2113 
L 3513 0 
L 2938 0 
L 2938 2094 
Q 2938 2591 2744 2837 
Q 2550 3084 2163 3084 
Q 1697 3084 1428 2787 
Q 1159 2491 1159 1978 
L 1159 0 
L 581 0 
L 581 3500 
L 1159 3500 
L 1159 2956 
Q 1366 3272 1645 3428 
Q 1925 3584 2291 3584 
Q 2894 3584 3203 3211 
Q 3513 2838 3513 2113 
z
" transform="scale(0.015625)"/>
      </defs>
      <use xlink:href="#DejaVuSans-52" transform="translate(0 0.015625)"/>
      <use xlink:href="#DejaVuSans-65" transform="translate(69.482422 0.015625)"/>
      <use xlink:href="#DejaVuSans-61" transform="translate(131.005859 0.015625)"/>
      <use xlink:href="#DejaVuSans-6c" transform="translate(192.285156 0.015625)"/>
      <use xlink:href="#DejaVuSans-20" transform="translate(220.068359 0.015625)"/>
      <use xlink:href="#DejaVuSans-Oblique-79" transform="translate(251.855469 0.015625)"/>
      <use xlink:href="#DejaVuSans-20" transform="translate(311.035156 0.015625)"/>
      <use xlink:href="#DejaVuSans-50" transform="translate(342.822266 0.015625)"/>
      <use xlink:href="#DejaVuSans-6f" transform="translate(403.125 0.015625)"/>
      <use xlink:href="#DejaVuSans-73" transform="translate(464.306641 0.015625)"/>
      <use xlink:href="#DejaVuSans-69" transform="translate(516.40625 0.015625)"/>
      <use xlink:href="#DejaVuSans-74" transform="translate(544.189453 0.015625)"/>
      <use xlink:href="#DejaVuSans-69" transform="translate(583.398438 0.015625)"/>
      <use xlink:href="#DejaVuSans-6f" transform="translate(611.181641 0.015625)"/>
      <use xlink:href="#DejaVuSans-6e" transform="translate(672.363281 0.015625)"/>
     </g>
    </g>
    <g id="line2d_15">
     <path d="M 153 275.281875 
L 163 275.281875 
L 173 275.281875 
" style="fill: none; stroke: #0000ff; stroke-opacity: 0.5; stroke-width: 1.5; stroke-linecap: square"/>
    </g>
    <g id="text_13">
     <!-- Prediction $y$ -->
     <g transform="translate(181 278.781875) scale(0.1 -0.1)">
      <defs>
       <path id="DejaVuSans-72" d="M 2631 2963 
Q 2534 3019 2420 3045 
Q 2306 3072 2169 3072 
Q 1681 3072 1420 2755 
Q 1159 2438 1159 1844 
L 1159 0 
L 581 0 
L 581 3500 
L 1159 3500 
L 1159 2956 
Q 1341 3275 1631 3429 
Q 1922 3584 2338 3584 
Q 2397 3584 2469 3576 
Q 2541 3569 2628 3553 
L 2631 2963 
z
" transform="scale(0.015625)"/>
       <path id="DejaVuSans-64" d="M 2906 2969 
L 2906 4863 
L 3481 4863 
L 3481 0 
L 2906 0 
L 2906 525 
Q 2725 213 2448 61 
Q 2172 -91 1784 -91 
Q 1150 -91 751 415 
Q 353 922 353 1747 
Q 353 2572 751 3078 
Q 1150 3584 1784 3584 
Q 2172 3584 2448 3432 
Q 2725 3281 2906 2969 
z
M 947 1747 
Q 947 1113 1208 752 
Q 1469 391 1925 391 
Q 2381 391 2643 752 
Q 2906 1113 2906 1747 
Q 2906 2381 2643 2742 
Q 2381 3103 1925 3103 
Q 1469 3103 1208 2742 
Q 947 2381 947 1747 
z
" transform="scale(0.015625)"/>
       <path id="DejaVuSans-63" d="M 3122 3366 
L 3122 2828 
Q 2878 2963 2633 3030 
Q 2388 3097 2138 3097 
Q 1578 3097 1268 2742 
Q 959 2388 959 1747 
Q 959 1106 1268 751 
Q 1578 397 2138 397 
Q 2388 397 2633 464 
Q 2878 531 3122 666 
L 3122 134 
Q 2881 22 2623 -34 
Q 2366 -91 2075 -91 
Q 1284 -91 818 406 
Q 353 903 353 1747 
Q 353 2603 823 3093 
Q 1294 3584 2113 3584 
Q 2378 3584 2631 3529 
Q 2884 3475 3122 3366 
z
" transform="scale(0.015625)"/>
      </defs>
      <use xlink:href="#DejaVuSans-50" transform="translate(0 0.015625)"/>
      <use xlink:href="#DejaVuSans-72" transform="translate(60.302734 0.015625)"/>
      <use xlink:href="#DejaVuSans-65" transform="translate(101.416016 0.015625)"/>
      <use xlink:href="#DejaVuSans-64" transform="translate(162.939453 0.015625)"/>
      <use xlink:href="#DejaVuSans-69" transform="translate(226.416016 0.015625)"/>
      <use xlink:href="#DejaVuSans-63" transform="translate(254.199219 0.015625)"/>
      <use xlink:href="#DejaVuSans-74" transform="translate(309.179688 0.015625)"/>
      <use xlink:href="#DejaVuSans-69" transform="translate(348.388672 0.015625)"/>
      <use xlink:href="#DejaVuSans-6f" transform="translate(376.171875 0.015625)"/>
      <use xlink:href="#DejaVuSans-6e" transform="translate(437.353516 0.015625)"/>
      <use xlink:href="#DejaVuSans-20" transform="translate(500.732422 0.015625)"/>
      <use xlink:href="#DejaVuSans-Oblique-79" transform="translate(532.519531 0.015625)"/>
     </g>
    </g>
    <g id="patch_8">
     <path d="M 153 293.480313 
L 173 293.480313 
L 173 286.480313 
L 153 286.480313 
z
" style="fill: #00ffff; fill-opacity: 0.5; stroke: #00ffff; stroke-opacity: 0.5; stroke-linejoin: miter"/>
    </g>
    <g id="text_14">
     <!-- Confidence -->
     <g transform="translate(181 293.480313) scale(0.1 -0.1)">
      <defs>
       <path id="DejaVuSans-43" d="M 4122 4306 
L 4122 3641 
Q 3803 3938 3442 4084 
Q 3081 4231 2675 4231 
Q 1875 4231 1450 3742 
Q 1025 3253 1025 2328 
Q 1025 1406 1450 917 
Q 1875 428 2675 428 
Q 3081 428 3442 575 
Q 3803 722 4122 1019 
L 4122 359 
Q 3791 134 3420 21 
Q 3050 -91 2638 -91 
Q 1578 -91 968 557 
Q 359 1206 359 2328 
Q 359 3453 968 4101 
Q 1578 4750 2638 4750 
Q 3056 4750 3426 4639 
Q 3797 4528 4122 4306 
z
" transform="scale(0.015625)"/>
       <path id="DejaVuSans-66" d="M 2375 4863 
L 2375 4384 
L 1825 4384 
Q 1516 4384 1395 4259 
Q 1275 4134 1275 3809 
L 1275 3500 
L 2222 3500 
L 2222 3053 
L 1275 3053 
L 1275 0 
L 697 0 
L 697 3053 
L 147 3053 
L 147 3500 
L 697 3500 
L 697 3744 
Q 697 4328 969 4595 
Q 1241 4863 1831 4863 
L 2375 4863 
z
" transform="scale(0.015625)"/>
      </defs>
      <use xlink:href="#DejaVuSans-43"/>
      <use xlink:href="#DejaVuSans-6f" x="69.824219"/>
      <use xlink:href="#DejaVuSans-6e" x="131.005859"/>
      <use xlink:href="#DejaVuSans-66" x="194.384766"/>
      <use xlink:href="#DejaVuSans-69" x="229.589844"/>
      <use xlink:href="#DejaVuSans-64" x="257.373047"/>
      <use xlink:href="#DejaVuSans-65" x="320.849609"/>
      <use xlink:href="#DejaVuSans-6e" x="382.373047"/>
      <use xlink:href="#DejaVuSans-63" x="445.751953"/>
      <use xlink:href="#DejaVuSans-65" x="500.732422"/>
     </g>
    </g>
   </g>
  </g>
  <g id="axes_2">
   <g id="patch_9">
    <path d="M 144 576.72 
L 1036.8 576.72 
L 1036.8 349.92 
L 144 349.92 
z
" style="fill: #ffffff"/>
   </g>
   <g id="matplotlib.axis_3">
    <g id="xtick_7">
     <g id="line2d_16">
      <g>
       <use xlink:href="#m949cc3ada6" x="144" y="576.72" style="stroke: #000000; stroke-width: 0.8"/>
      </g>
     </g>
     <g id="text_15">
      <!-- 0 -->
      <g transform="translate(140.81875 591.318438) scale(0.1 -0.1)">
       <use xlink:href="#DejaVuSans-30"/>
      </g>
     </g>
    </g>
    <g id="xtick_8">
     <g id="line2d_17">
      <g>
       <use xlink:href="#m949cc3ada6" x="292.849617" y="576.72" style="stroke: #000000; stroke-width: 0.8"/>
      </g>
     </g>
     <g id="text_16">
      <!-- 5 -->
      <g transform="translate(289.668367 591.318438) scale(0.1 -0.1)">
       <use xlink:href="#DejaVuSans-35"/>
      </g>
     </g>
    </g>
    <g id="xtick_9">
     <g id="line2d_18">
      <g>
       <use xlink:href="#m949cc3ada6" x="441.699233" y="576.72" style="stroke: #000000; stroke-width: 0.8"/>
      </g>
     </g>
     <g id="text_17">
      <!-- 10 -->
      <g transform="translate(435.336733 591.318438) scale(0.1 -0.1)">
       <use xlink:href="#DejaVuSans-31"/>
       <use xlink:href="#DejaVuSans-30" x="63.623047"/>
      </g>
     </g>
    </g>
    <g id="xtick_10">
     <g id="line2d_19">
      <g>
       <use xlink:href="#m949cc3ada6" x="590.54885" y="576.72" style="stroke: #000000; stroke-width: 0.8"/>
      </g>
     </g>
     <g id="text_18">
      <!-- 15 -->
      <g transform="translate(584.18635 591.318438) scale(0.1 -0.1)">
       <use xlink:href="#DejaVuSans-31"/>
       <use xlink:href="#DejaVuSans-35" x="63.623047"/>
      </g>
     </g>
    </g>
    <g id="xtick_11">
     <g id="line2d_20">
      <g>
       <use xlink:href="#m949cc3ada6" x="739.398466" y="576.72" style="stroke: #000000; stroke-width: 0.8"/>
      </g>
     </g>
     <g id="text_19">
      <!-- 20 -->
      <g transform="translate(733.035966 591.318438) scale(0.1 -0.1)">
       <use xlink:href="#DejaVuSans-32"/>
       <use xlink:href="#DejaVuSans-30" x="63.623047"/>
      </g>
     </g>
    </g>
    <g id="xtick_12">
     <g id="line2d_21">
      <g>
       <use xlink:href="#m949cc3ada6" x="888.248083" y="576.72" style="stroke: #000000; stroke-width: 0.8"/>
      </g>
     </g>
     <g id="text_20">
      <!-- 25 -->
      <g transform="translate(881.885583 591.318438) scale(0.1 -0.1)">
       <use xlink:href="#DejaVuSans-32"/>
       <use xlink:href="#DejaVuSans-35" x="63.623047"/>
      </g>
     </g>
    </g>
   </g>
   <g id="matplotlib.axis_4">
    <g id="ytick_6">
     <g id="line2d_22">
      <g>
       <use xlink:href="#m4381878895" x="144" y="542.115485" style="stroke: #000000; stroke-width: 0.8"/>
      </g>
     </g>
     <g id="text_21">
      <!-- −0.04 -->
      <g transform="translate(106.354687 545.914704) scale(0.1 -0.1)">
       <defs>
        <path id="DejaVuSans-2212" d="M 678 2272 
L 4684 2272 
L 4684 1741 
L 678 1741 
L 678 2272 
z
" transform="scale(0.015625)"/>
        <path id="DejaVuSans-34" d="M 2419 4116 
L 825 1625 
L 2419 1625 
L 2419 4116 
z
M 2253 4666 
L 3047 4666 
L 3047 1625 
L 3713 1625 
L 3713 1100 
L 3047 1100 
L 3047 0 
L 2419 0 
L 2419 1100 
L 313 1100 
L 313 1709 
L 2253 4666 
z
" transform="scale(0.015625)"/>
       </defs>
       <use xlink:href="#DejaVuSans-2212"/>
       <use xlink:href="#DejaVuSans-30" x="83.789062"/>
       <use xlink:href="#DejaVuSans-2e" x="147.412109"/>
       <use xlink:href="#DejaVuSans-30" x="179.199219"/>
       <use xlink:href="#DejaVuSans-34" x="242.822266"/>
      </g>
     </g>
    </g>
    <g id="ytick_7">
     <g id="line2d_23">
      <g>
       <use xlink:href="#m4381878895" x="144" y="492.338881" style="stroke: #000000; stroke-width: 0.8"/>
      </g>
     </g>
     <g id="text_22">
      <!-- −0.02 -->
      <g transform="translate(106.354687 496.1381) scale(0.1 -0.1)">
       <use xlink:href="#DejaVuSans-2212"/>
       <use xlink:href="#DejaVuSans-30" x="83.789062"/>
       <use xlink:href="#DejaVuSans-2e" x="147.412109"/>
       <use xlink:href="#DejaVuSans-30" x="179.199219"/>
       <use xlink:href="#DejaVuSans-32" x="242.822266"/>
      </g>
     </g>
    </g>
    <g id="ytick_8">
     <g id="line2d_24">
      <g>
       <use xlink:href="#m4381878895" x="144" y="442.562276" style="stroke: #000000; stroke-width: 0.8"/>
      </g>
     </g>
     <g id="text_23">
      <!-- 0.00 -->
      <g transform="translate(114.734375 446.361495) scale(0.1 -0.1)">
       <use xlink:href="#DejaVuSans-30"/>
       <use xlink:href="#DejaVuSans-2e" x="63.623047"/>
       <use xlink:href="#DejaVuSans-30" x="95.410156"/>
       <use xlink:href="#DejaVuSans-30" x="159.033203"/>
      </g>
     </g>
    </g>
    <g id="ytick_9">
     <g id="line2d_25">
      <g>
       <use xlink:href="#m4381878895" x="144" y="392.785672" style="stroke: #000000; stroke-width: 0.8"/>
      </g>
     </g>
     <g id="text_24">
      <!-- 0.02 -->
      <g transform="translate(114.734375 396.58489) scale(0.1 -0.1)">
       <use xlink:href="#DejaVuSans-30"/>
       <use xlink:href="#DejaVuSans-2e" x="63.623047"/>
       <use xlink:href="#DejaVuSans-30" x="95.410156"/>
       <use xlink:href="#DejaVuSans-32" x="159.033203"/>
      </g>
     </g>
    </g>
   </g>
   <g id="line2d_26">
    <path d="M 144 463.067879 
L 173.769923 479.828574 
L 203.539847 474.917307 
L 233.30977 466.390832 
L 263.079693 458.493336 
L 292.849617 451.406375 
L 322.61954 445.204097 
L 352.389463 439.713321 
L 382.159386 435.223046 
L 411.92931 431.070449 
L 441.699233 427.225177 
L 501.23908 420.079783 
L 531.009003 416.684788 
L 560.778926 413.746696 
L 620.318773 408.583965 
L 650.088696 406.20666 
L 709.628543 401.9996 
L 739.398466 399.577372 
L 769.168389 397.515279 
L 828.708236 393.65656 
L 918.018006 388.704128 
L 947.787929 387.586599 
L 977.557853 386.348686 
L 1007.327776 384.665889 
L 1037.097699 383.542084 
L 1126.407469 380.673732 
L 1153 379.908173 
L 1153 379.908173 
" clip-path="url(#p28b8eaf903)" style="fill: none; stroke: #1f77b4; stroke-width: 1.5; stroke-linecap: square"/>
   </g>
   <g id="patch_10">
    <path d="M 144 576.72 
L 144 349.92 
" style="fill: none; stroke: #000000; stroke-width: 0.8; stroke-linejoin: miter; stroke-linecap: square"/>
   </g>
   <g id="patch_11">
    <path d="M 1036.8 576.72 
L 1036.8 349.92 
" style="fill: none; stroke: #000000; stroke-width: 0.8; stroke-linejoin: miter; stroke-linecap: square"/>
   </g>
   <g id="patch_12">
    <path d="M 144 576.72 
L 1036.8 576.72 
" style="fill: none; stroke: #000000; stroke-width: 0.8; stroke-linejoin: miter; stroke-linecap: square"/>
   </g>
   <g id="patch_13">
    <path d="M 144 349.92 
L 1036.8 349.92 
" style="fill: none; stroke: #000000; stroke-width: 0.8; stroke-linejoin: miter; stroke-linecap: square"/>
   </g>
   <g id="legend_2">
    <g id="patch_14">
     <path d="M 920.578125 372.598125 
L 1029.8 372.598125 
Q 1031.8 372.598125 1031.8 370.598125 
L 1031.8 356.92 
Q 1031.8 354.92 1029.8 354.92 
L 920.578125 354.92 
Q 918.578125 354.92 918.578125 356.92 
L 918.578125 370.598125 
Q 918.578125 372.598125 920.578125 372.598125 
z
" style="fill: #ffffff; opacity: 0.8; stroke: #cccccc; stroke-linejoin: miter"/>
    </g>
    <g id="line2d_27">
     <path d="M 922.578125 363.018437 
L 932.578125 363.018437 
L 942.578125 363.018437 
" style="fill: none; stroke: #1f77b4; stroke-width: 1.5; stroke-linecap: square"/>
    </g>
    <g id="text_25">
     <!-- Prediction Error -->
     <g transform="translate(950.578125 366.518437) scale(0.1 -0.1)">
      <defs>
       <path id="DejaVuSans-45" d="M 628 4666 
L 3578 4666 
L 3578 4134 
L 1259 4134 
L 1259 2753 
L 3481 2753 
L 3481 2222 
L 1259 2222 
L 1259 531 
L 3634 531 
L 3634 0 
L 628 0 
L 628 4666 
z
" transform="scale(0.015625)"/>
      </defs>
      <use xlink:href="#DejaVuSans-50"/>
      <use xlink:href="#DejaVuSans-72" x="58.552734"/>
      <use xlink:href="#DejaVuSans-65" x="97.416016"/>
      <use xlink:href="#DejaVuSans-64" x="158.939453"/>
      <use xlink:href="#DejaVuSans-69" x="222.416016"/>
      <use xlink:href="#DejaVuSans-63" x="250.199219"/>
      <use xlink:href="#DejaVuSans-74" x="305.179688"/>
      <use xlink:href="#DejaVuSans-69" x="344.388672"/>
      <use xlink:href="#DejaVuSans-6f" x="372.171875"/>
      <use xlink:href="#DejaVuSans-6e" x="433.353516"/>
      <use xlink:href="#DejaVuSans-20" x="496.732422"/>
      <use xlink:href="#DejaVuSans-45" x="528.519531"/>
      <use xlink:href="#DejaVuSans-72" x="591.703125"/>
      <use xlink:href="#DejaVuSans-72" x="631.066406"/>
      <use xlink:href="#DejaVuSans-6f" x="669.929688"/>
      <use xlink:href="#DejaVuSans-72" x="731.111328"/>
     </g>
    </g>
   </g>
  </g>
  <g id="text_26">
   <!-- $y$-Position Prediction -->
   <g transform="translate(514.74 22.08) scale(0.12 -0.12)">
    <defs>
     <path id="DejaVuSans-2d" d="M 313 2009 
L 1997 2009 
L 1997 1497 
L 313 1497 
L 313 2009 
z
" transform="scale(0.015625)"/>
    </defs>
    <use xlink:href="#DejaVuSans-Oblique-79" transform="translate(0 0.015625)"/>
    <use xlink:href="#DejaVuSans-2d" transform="translate(59.179688 0.015625)"/>
    <use xlink:href="#DejaVuSans-50" transform="translate(95.263672 0.015625)"/>
    <use xlink:href="#DejaVuSans-6f" transform="translate(155.566406 0.015625)"/>
    <use xlink:href="#DejaVuSans-73" transform="translate(216.748047 0.015625)"/>
    <use xlink:href="#DejaVuSans-69" transform="translate(268.847656 0.015625)"/>
    <use xlink:href="#DejaVuSans-74" transform="translate(296.630859 0.015625)"/>
    <use xlink:href="#DejaVuSans-69" transform="translate(335.839844 0.015625)"/>
    <use xlink:href="#DejaVuSans-6f" transform="translate(363.623047 0.015625)"/>
    <use xlink:href="#DejaVuSans-6e" transform="translate(424.804688 0.015625)"/>
    <use xlink:href="#DejaVuSans-20" transform="translate(488.183594 0.015625)"/>
    <use xlink:href="#DejaVuSans-50" transform="translate(519.970703 0.015625)"/>
    <use xlink:href="#DejaVuSans-72" transform="translate(580.273438 0.015625)"/>
    <use xlink:href="#DejaVuSans-65" transform="translate(621.386719 0.015625)"/>
    <use xlink:href="#DejaVuSans-64" transform="translate(682.910156 0.015625)"/>
    <use xlink:href="#DejaVuSans-69" transform="translate(746.386719 0.015625)"/>
    <use xlink:href="#DejaVuSans-63" transform="translate(774.169922 0.015625)"/>
    <use xlink:href="#DejaVuSans-74" transform="translate(829.150391 0.015625)"/>
    <use xlink:href="#DejaVuSans-69" transform="translate(868.359375 0.015625)"/>
    <use xlink:href="#DejaVuSans-6f" transform="translate(896.142578 0.015625)"/>
    <use xlink:href="#DejaVuSans-6e" transform="translate(957.324219 0.015625)"/>
   </g>
  </g>
 </g>
 <defs>
  <clipPath id="p2d49c0e609">
   <rect x="144" y="77.76" width="892.8" height="226.8"/>
  </clipPath>
  <clipPath id="p28b8eaf903">
   <rect x="144" y="349.92" width="892.8" height="226.8"/>
  </clipPath>
 </defs>
</svg>
