<?xml version="1.0" encoding="utf-8" standalone="no"?>
<!DOCTYPE svg PUBLIC "-//W3C//DTD SVG 1.1//EN"
  "http://www.w3.org/Graphics/SVG/1.1/DTD/svg11.dtd">
<svg xmlns:xlink="http://www.w3.org/1999/xlink" width="1152pt" height="648pt" viewBox="0 0 1152 648" xmlns="http://www.w3.org/2000/svg" version="1.1">
 <metadata>
  <rdf:RDF xmlns:dc="http://purl.org/dc/elements/1.1/" xmlns:cc="http://creativecommons.org/ns#" xmlns:rdf="http://www.w3.org/1999/02/22-rdf-syntax-ns#">
   <cc:Work>
    <dc:type rdf:resource="http://purl.org/dc/dcmitype/StillImage"/>
    <dc:date>2024-06-20T12:46:32.998561</dc:date>
    <dc:format>image/svg+xml</dc:format>
    <dc:creator>
     <cc:Agent>
      <dc:title>Matplotlib v3.9.0, https://matplotlib.org/</dc:title>
     </cc:Agent>
    </dc:creator>
   </cc:Work>
  </rdf:RDF>
 </metadata>
 <defs>
  <style type="text/css">*{stroke-linejoin: round; stroke-linecap: butt}</style>
 </defs>
 <g id="figure_1">
  <g id="patch_1">
   <path d="M 0 648 
L 1152 648 
L 1152 0 
L 0 0 
z
" style="fill: #ffffff"/>
  </g>
  <g id="axes_1">
   <g id="patch_2">
    <path d="M 144 304.56 
L 1036.8 304.56 
L 1036.8 77.76 
L 144 77.76 
z
" style="fill: #ffffff"/>
   </g>
   <g id="PolyCollection_1">
    <defs>
     <path id="m24d3461d78" d="M 292.849617 -533.910185 
L 292.849617 -526.938467 
L 295.826609 -526.787848 
L 298.803601 -526.62476 
L 301.780594 -526.189279 
L 304.757586 -525.492727 
L 307.734578 -524.571128 
L 310.711571 -523.457121 
L 313.688563 -522.190033 
L 316.665555 -520.805378 
L 319.642548 -519.320464 
L 322.61954 -517.748003 
L 325.596532 -516.102486 
L 328.573525 -514.42134 
L 331.550517 -512.726109 
L 334.527509 -511.005278 
L 337.504502 -509.285466 
L 340.481494 -507.566105 
L 343.458486 -505.843721 
L 346.435478 -504.122483 
L 349.412471 -502.413479 
L 352.389463 -500.688785 
L 355.366455 -498.966462 
L 358.343448 -497.245624 
L 361.32044 -495.528708 
L 364.297432 -493.837126 
L 367.274425 -492.149746 
L 370.251417 -490.46385 
L 373.228409 -488.78643 
L 376.205402 -487.131883 
L 379.182394 -485.490025 
L 382.159386 -483.861467 
L 385.136379 -482.243206 
L 388.113371 -480.643421 
L 391.090363 -479.052408 
L 394.067356 -477.472643 
L 397.044348 -475.910808 
L 400.02134 -474.35712 
L 402.998333 -472.812126 
L 405.975325 -471.279436 
L 408.952317 -469.752315 
L 411.92931 -468.227834 
L 414.906302 -466.704201 
L 417.883294 -465.198301 
L 420.860287 -463.707725 
L 423.837279 -462.219093 
L 426.814271 -460.719085 
L 429.791264 -459.211094 
L 432.768256 -457.70356 
L 435.745248 -456.173246 
L 438.722241 -454.62964 
L 441.699233 -453.073744 
L 444.676225 -451.508099 
L 447.653218 -449.943307 
L 450.63021 -448.382765 
L 453.607202 -446.812041 
L 456.584195 -445.238582 
L 459.561187 -443.641523 
L 462.538179 -442.028198 
L 465.515172 -440.379833 
L 468.492164 -438.707027 
L 471.469156 -437.002155 
L 474.446149 -435.26309 
L 477.423141 -433.482801 
L 480.400133 -431.665208 
L 483.377126 -429.809195 
L 486.354118 -427.905522 
L 489.33111 -425.940589 
L 492.308103 -423.933157 
L 495.285095 -421.867999 
L 498.262087 -419.754696 
L 501.23908 -417.57463 
L 504.216072 -415.332797 
L 507.193064 -413.033553 
L 510.170057 -410.677536 
L 513.147049 -408.260224 
L 516.124041 -405.782075 
L 519.101034 -403.243138 
L 522.078026 -400.64364 
L 525.055018 -397.998281 
L 528.032011 -395.306449 
L 531.009003 -392.577274 
L 533.985995 -389.810636 
L 536.962988 -387.019139 
L 539.93998 -384.223302 
L 542.916972 -381.431358 
L 545.893965 -378.649861 
L 548.870957 -375.907492 
L 551.847949 -373.219961 
L 554.824942 -370.610366 
L 557.801934 -368.102119 
L 560.778926 -365.718282 
L 563.755919 -363.485755 
L 566.732911 -361.422406 
L 569.709903 -359.556233 
L 572.686896 -357.916805 
L 575.663888 -356.524591 
L 578.64088 -355.395016 
L 581.617873 -354.548904 
L 584.594865 -353.996147 
L 587.571857 -353.749091 
L 590.54885 -353.810145 
L 593.525842 -354.182845 
L 596.502834 -354.85962 
L 599.479827 -355.826991 
L 602.456819 -357.077678 
L 605.433811 -358.59118 
L 608.410804 -360.352543 
L 611.387796 -362.334744 
L 614.364788 -364.515229 
L 617.341781 -366.866919 
L 620.318773 -369.363602 
L 623.295765 -371.978522 
L 626.272758 -374.68874 
L 629.24975 -377.471475 
L 632.226742 -380.301447 
L 635.203735 -383.162142 
L 638.180727 -386.035453 
L 641.157719 -388.900162 
L 644.134712 -391.745283 
L 647.111704 -394.55652 
L 650.088696 -397.328961 
L 653.065689 -400.053156 
L 656.042681 -402.718768 
L 659.019673 -405.321225 
L 661.996666 -407.86372 
L 664.973658 -410.339654 
L 667.95065 -412.746577 
L 670.927643 -415.092571 
L 673.904635 -417.371492 
L 676.881627 -419.583081 
L 679.85862 -421.734658 
L 682.835612 -423.826977 
L 685.812604 -425.863181 
L 688.789597 -427.846175 
L 691.766589 -429.770094 
L 694.743581 -431.649134 
L 697.720574 -433.485802 
L 700.697566 -435.271506 
L 703.674558 -437.024321 
L 706.651551 -438.743224 
L 709.628543 -440.43153 
L 712.605535 -442.087485 
L 715.582528 -443.718376 
L 718.55952 -445.330544 
L 721.536512 -446.919996 
L 724.513505 -448.491247 
L 727.490497 -450.050799 
L 730.467489 -451.602244 
L 733.444481 -453.144883 
L 736.421474 -454.685579 
L 739.398466 -456.223172 
L 742.375458 -457.758664 
L 745.352451 -459.280416 
L 748.329443 -460.794368 
L 751.306435 -462.301946 
L 754.283428 -463.811768 
L 757.26042 -465.311801 
L 760.237412 -466.815829 
L 763.214405 -468.318927 
L 766.191397 -469.839285 
L 769.168389 -471.355836 
L 772.145382 -472.875217 
L 775.122374 -474.40887 
L 778.099366 -475.954551 
L 781.076359 -477.511927 
L 784.053351 -479.081695 
L 787.030343 -480.666922 
L 790.007336 -482.266068 
L 792.984328 -483.874812 
L 795.96132 -485.498976 
L 798.938313 -487.14051 
L 801.915305 -488.789805 
L 804.892297 -490.45207 
L 807.86929 -492.133236 
L 810.846282 -493.819857 
L 813.823274 -495.518698 
L 816.800267 -497.21594 
L 819.777259 -498.936811 
L 822.754251 -500.654781 
L 825.731244 -502.386015 
L 828.708236 -504.110618 
L 831.685228 -505.831356 
L 834.662221 -507.558203 
L 837.639213 -509.284373 
L 840.616205 -511.000315 
L 843.593198 -512.704874 
L 846.57019 -514.407 
L 849.547182 -516.078801 
L 852.524175 -517.746388 
L 855.501167 -519.394284 
L 858.478159 -521.01687 
L 861.455152 -522.626741 
L 864.432144 -524.214284 
L 867.409136 -525.764729 
L 870.386129 -527.292356 
L 873.363121 -528.766161 
L 876.340113 -530.223003 
L 879.317106 -531.643861 
L 882.294098 -533.022003 
L 885.27109 -534.354488 
L 888.248083 -535.654817 
L 891.225075 -536.901141 
L 894.202067 -538.108318 
L 897.17906 -539.254139 
L 900.156052 -540.374486 
L 903.133044 -541.439835 
L 906.110037 -542.446827 
L 909.087029 -543.403997 
L 912.064021 -544.313195 
L 915.041014 -545.189291 
L 918.018006 -546.000056 
L 920.994998 -546.772695 
L 923.971991 -547.486502 
L 926.948983 -548.157396 
L 929.925975 -548.77774 
L 932.902968 -549.363742 
L 935.87996 -549.903165 
L 938.856952 -550.387726 
L 941.833945 -550.837974 
L 944.810937 -551.256206 
L 947.787929 -551.652357 
L 950.764922 -551.991533 
L 953.741914 -552.311517 
L 956.718906 -552.618341 
L 959.695899 -552.894592 
L 962.672891 -553.16301 
L 965.649883 -553.406941 
L 968.626876 -553.621906 
L 971.603868 -553.806699 
L 974.58086 -553.975537 
L 977.557853 -554.131484 
L 980.534845 -554.252229 
L 983.511837 -554.365152 
L 986.48883 -554.478709 
L 989.465822 -554.584615 
L 992.442814 -554.696635 
L 995.419807 -554.797209 
L 998.396799 -554.885678 
L 1001.373791 -554.957178 
L 1004.350784 -555.000219 
L 1007.327776 -555.054852 
L 1010.304768 -555.115699 
L 1013.281761 -555.155596 
L 1016.258753 -555.191437 
L 1019.235745 -555.250517 
L 1022.212738 -555.296904 
L 1025.18973 -555.351162 
L 1028.166722 -555.411088 
L 1031.143715 -555.437331 
L 1034.120707 -555.491186 
L 1034.120707 -559.394716 
L 1034.120707 -559.394716 
L 1031.143715 -559.446623 
L 1028.166722 -559.524923 
L 1025.18973 -559.566749 
L 1022.212738 -559.612516 
L 1019.235745 -559.663298 
L 1016.258753 -559.698264 
L 1013.281761 -559.755291 
L 1010.304768 -559.807063 
L 1007.327776 -559.835585 
L 1004.350784 -559.869437 
L 1001.373791 -559.915076 
L 998.396799 -559.930909 
L 995.419807 -559.928752 
L 992.442814 -559.91229 
L 989.465822 -559.882956 
L 986.48883 -559.85867 
L 983.511837 -559.825646 
L 980.534845 -559.793852 
L 977.557853 -559.752965 
L 974.58086 -559.674984 
L 971.603868 -559.583473 
L 968.626876 -559.474801 
L 965.649883 -559.334385 
L 962.672891 -559.160907 
L 959.695899 -558.962548 
L 956.718906 -558.755413 
L 953.741914 -558.514899 
L 950.764922 -558.263877 
L 947.787929 -557.992019 
L 944.810937 -557.657228 
L 941.833945 -557.303062 
L 938.856952 -556.916956 
L 935.87996 -556.494811 
L 932.902968 -556.013017 
L 929.925975 -555.483155 
L 926.948983 -554.918215 
L 923.971991 -554.303276 
L 920.994998 -553.640741 
L 918.018006 -552.917637 
L 915.041014 -552.153854 
L 912.064021 -551.32132 
L 909.087029 -550.458541 
L 906.110037 -549.546341 
L 903.133044 -548.581961 
L 900.156052 -547.549005 
L 897.17906 -546.463569 
L 894.202067 -545.353809 
L 891.225075 -544.177075 
L 888.248083 -542.959068 
L 885.27109 -541.683786 
L 882.294098 -540.380493 
L 879.317106 -539.025139 
L 876.340113 -537.626463 
L 873.363121 -536.196306 
L 870.386129 -534.744343 
L 867.409136 -533.232957 
L 864.432144 -531.69592 
L 861.455152 -530.119161 
L 858.478159 -528.525045 
L 855.501167 -526.922166 
L 852.524175 -525.289313 
L 849.547182 -523.640476 
L 846.57019 -521.984474 
L 843.593198 -520.29307 
L 840.616205 -518.599367 
L 837.639213 -516.891072 
L 834.662221 -515.173973 
L 831.685228 -513.45934 
L 828.708236 -511.752439 
L 825.731244 -510.034586 
L 822.754251 -508.311294 
L 819.777259 -506.601402 
L 816.800267 -504.890377 
L 813.823274 -503.204678 
L 810.846282 -501.513851 
L 807.86929 -499.834266 
L 804.892297 -498.162058 
L 801.915305 -496.509541 
L 798.938313 -494.869577 
L 795.96132 -493.238128 
L 792.984328 -491.625999 
L 790.007336 -490.030002 
L 787.030343 -488.443992 
L 784.053351 -486.874195 
L 781.076359 -485.321603 
L 778.099366 -483.783989 
L 775.122374 -482.260672 
L 772.145382 -480.752795 
L 769.168389 -479.260049 
L 766.191397 -477.771324 
L 763.214405 -476.281561 
L 760.237412 -474.811365 
L 757.26042 -473.340974 
L 754.283428 -471.874185 
L 751.306435 -470.396512 
L 748.329443 -468.918372 
L 745.352451 -467.428775 
L 742.375458 -465.923819 
L 739.398466 -464.401423 
L 736.421474 -462.879018 
L 733.444481 -461.355861 
L 730.467489 -459.833038 
L 727.490497 -458.304 
L 724.513505 -456.768916 
L 721.536512 -455.223875 
L 718.55952 -453.662633 
L 715.582528 -452.080872 
L 712.605535 -450.481692 
L 709.628543 -448.858417 
L 706.651551 -447.203688 
L 703.674558 -445.51957 
L 700.697566 -443.80218 
L 697.720574 -442.051814 
L 694.743581 -440.251046 
L 691.766589 -438.408131 
L 688.789597 -436.519972 
L 685.812604 -434.572408 
L 682.835612 -432.572779 
L 679.85862 -430.517884 
L 676.881627 -428.405788 
L 673.904635 -426.235265 
L 670.927643 -423.999001 
L 667.95065 -421.699608 
L 664.973658 -419.343145 
L 661.996666 -416.92086 
L 659.019673 -414.436009 
L 656.042681 -411.895326 
L 653.065689 -409.294603 
L 650.088696 -406.638213 
L 647.111704 -403.937922 
L 644.134712 -401.201629 
L 641.157719 -398.430582 
L 638.180727 -395.639394 
L 635.203735 -392.838334 
L 632.226742 -390.048876 
L 629.24975 -387.28655 
L 626.272758 -384.56698 
L 623.295765 -381.916126 
L 620.318773 -379.353004 
L 617.341781 -376.90083 
L 614.364788 -374.586169 
L 611.387796 -372.435245 
L 608.410804 -370.476633 
L 605.433811 -368.734301 
L 602.456819 -367.235666 
L 599.479827 -365.993018 
L 596.502834 -365.025873 
L 593.525842 -364.340454 
L 590.54885 -363.95491 
L 587.571857 -363.877109 
L 584.594865 -364.100782 
L 581.617873 -364.623104 
L 578.64088 -365.432159 
L 575.663888 -366.519891 
L 572.686896 -367.864072 
L 569.709903 -369.452784 
L 566.732911 -371.265199 
L 563.755919 -373.26856 
L 560.778926 -375.43732 
L 557.801934 -377.755012 
L 554.824942 -380.194376 
L 551.847949 -382.732533 
L 548.870957 -385.346535 
L 545.893965 -388.014624 
L 542.916972 -390.722312 
L 539.93998 -393.441191 
L 536.962988 -396.163648 
L 533.985995 -398.88203 
L 531.009003 -401.578516 
L 528.032011 -404.240171 
L 525.055018 -406.865796 
L 522.078026 -409.446597 
L 519.101034 -411.98317 
L 516.124041 -414.4641 
L 513.147049 -416.888013 
L 510.170057 -419.253862 
L 507.193064 -421.560602 
L 504.216072 -423.811766 
L 501.23908 -426.007241 
L 498.262087 -428.14724 
L 495.285095 -430.224979 
L 492.308103 -432.255251 
L 489.33111 -434.229604 
L 486.354118 -436.163555 
L 483.377126 -438.044747 
L 480.400133 -439.879391 
L 477.423141 -441.676405 
L 474.446149 -443.438682 
L 471.469156 -445.163791 
L 468.492164 -446.859125 
L 465.515172 -448.523477 
L 462.538179 -450.1664 
L 459.561187 -451.778456 
L 456.584195 -453.376231 
L 453.607202 -454.950492 
L 450.63021 -456.516591 
L 447.653218 -458.068259 
L 444.676225 -459.614033 
L 441.699233 -461.156124 
L 438.722241 -462.688288 
L 435.745248 -464.207994 
L 432.768256 -465.718838 
L 429.791264 -467.212289 
L 426.814271 -468.705121 
L 423.837279 -470.194326 
L 420.860287 -471.677149 
L 417.883294 -473.162275 
L 414.906302 -474.656697 
L 411.92931 -476.166338 
L 408.952317 -477.678872 
L 405.975325 -479.196693 
L 402.998333 -480.718775 
L 400.02134 -482.252285 
L 397.044348 -483.794865 
L 394.067356 -485.345525 
L 391.090363 -486.911453 
L 388.113371 -488.490154 
L 385.136379 -490.078327 
L 382.159386 -491.684989 
L 379.182394 -493.303854 
L 376.205402 -494.938835 
L 373.228409 -496.587748 
L 370.251417 -498.259811 
L 367.274425 -499.946132 
L 364.297432 -501.641829 
L 361.32044 -503.342281 
L 358.343448 -505.064763 
L 355.366455 -506.790826 
L 352.389463 -508.514531 
L 349.412471 -510.23661 
L 346.435478 -511.934452 
L 343.458486 -513.621597 
L 340.481494 -515.285675 
L 337.504502 -516.918584 
L 334.527509 -518.513048 
L 331.550517 -520.073351 
L 328.573525 -521.575567 
L 325.596532 -523.032216 
L 322.61954 -524.442457 
L 319.642548 -525.790548 
L 316.665555 -527.076034 
L 313.688563 -528.29759 
L 310.711571 -529.452719 
L 307.734578 -530.521711 
L 304.757586 -531.481646 
L 301.780594 -532.31692 
L 298.803601 -533.01751 
L 295.826609 -533.574668 
L 292.849617 -533.910185 
z
" style="stroke: #00ffff; stroke-opacity: 0.5"/>
    </defs>
    <g clip-path="url(#p563f7b5958)">
     <use xlink:href="#m24d3461d78" x="0" y="648" style="fill: #00ffff; fill-opacity: 0.5; stroke: #00ffff; stroke-opacity: 0.5"/>
    </g>
   </g>
   <g id="matplotlib.axis_1">
    <g id="xtick_1">
     <g id="line2d_1">
      <defs>
       <path id="m716dff0991" d="M 0 0 
L 0 3.5 
" style="stroke: #000000; stroke-width: 0.8"/>
      </defs>
      <g>
       <use xlink:href="#m716dff0991" x="144" y="304.56" style="stroke: #000000; stroke-width: 0.8"/>
      </g>
     </g>
     <g id="text_1">
      <!-- 0 -->
      <g transform="translate(140.81875 319.158437) scale(0.1 -0.1)">
       <defs>
        <path id="DejaVuSans-30" d="M 2034 4250 
Q 1547 4250 1301 3770 
Q 1056 3291 1056 2328 
Q 1056 1369 1301 889 
Q 1547 409 2034 409 
Q 2525 409 2770 889 
Q 3016 1369 3016 2328 
Q 3016 3291 2770 3770 
Q 2525 4250 2034 4250 
z
M 2034 4750 
Q 2819 4750 3233 4129 
Q 3647 3509 3647 2328 
Q 3647 1150 3233 529 
Q 2819 -91 2034 -91 
Q 1250 -91 836 529 
Q 422 1150 422 2328 
Q 422 3509 836 4129 
Q 1250 4750 2034 4750 
z
" transform="scale(0.015625)"/>
       </defs>
       <use xlink:href="#DejaVuSans-30"/>
      </g>
     </g>
    </g>
    <g id="xtick_2">
     <g id="line2d_2">
      <g>
       <use xlink:href="#m716dff0991" x="292.849617" y="304.56" style="stroke: #000000; stroke-width: 0.8"/>
      </g>
     </g>
     <g id="text_2">
      <!-- 5 -->
      <g transform="translate(289.668367 319.158437) scale(0.1 -0.1)">
       <defs>
        <path id="DejaVuSans-35" d="M 691 4666 
L 3169 4666 
L 3169 4134 
L 1269 4134 
L 1269 2991 
Q 1406 3038 1543 3061 
Q 1681 3084 1819 3084 
Q 2600 3084 3056 2656 
Q 3513 2228 3513 1497 
Q 3513 744 3044 326 
Q 2575 -91 1722 -91 
Q 1428 -91 1123 -41 
Q 819 9 494 109 
L 494 744 
Q 775 591 1075 516 
Q 1375 441 1709 441 
Q 2250 441 2565 725 
Q 2881 1009 2881 1497 
Q 2881 1984 2565 2268 
Q 2250 2553 1709 2553 
Q 1456 2553 1204 2497 
Q 953 2441 691 2322 
L 691 4666 
z
" transform="scale(0.015625)"/>
       </defs>
       <use xlink:href="#DejaVuSans-35"/>
      </g>
     </g>
    </g>
    <g id="xtick_3">
     <g id="line2d_3">
      <g>
       <use xlink:href="#m716dff0991" x="441.699233" y="304.56" style="stroke: #000000; stroke-width: 0.8"/>
      </g>
     </g>
     <g id="text_3">
      <!-- 10 -->
      <g transform="translate(435.336733 319.158437) scale(0.1 -0.1)">
       <defs>
        <path id="DejaVuSans-31" d="M 794 531 
L 1825 531 
L 1825 4091 
L 703 3866 
L 703 4441 
L 1819 4666 
L 2450 4666 
L 2450 531 
L 3481 531 
L 3481 0 
L 794 0 
L 794 531 
z
" transform="scale(0.015625)"/>
       </defs>
       <use xlink:href="#DejaVuSans-31"/>
       <use xlink:href="#DejaVuSans-30" x="63.623047"/>
      </g>
     </g>
    </g>
    <g id="xtick_4">
     <g id="line2d_4">
      <g>
       <use xlink:href="#m716dff0991" x="590.54885" y="304.56" style="stroke: #000000; stroke-width: 0.8"/>
      </g>
     </g>
     <g id="text_4">
      <!-- 15 -->
      <g transform="translate(584.18635 319.158437) scale(0.1 -0.1)">
       <use xlink:href="#DejaVuSans-31"/>
       <use xlink:href="#DejaVuSans-35" x="63.623047"/>
      </g>
     </g>
    </g>
    <g id="xtick_5">
     <g id="line2d_5">
      <g>
       <use xlink:href="#m716dff0991" x="739.398466" y="304.56" style="stroke: #000000; stroke-width: 0.8"/>
      </g>
     </g>
     <g id="text_5">
      <!-- 20 -->
      <g transform="translate(733.035966 319.158437) scale(0.1 -0.1)">
       <defs>
        <path id="DejaVuSans-32" d="M 1228 531 
L 3431 531 
L 3431 0 
L 469 0 
L 469 531 
Q 828 903 1448 1529 
Q 2069 2156 2228 2338 
Q 2531 2678 2651 2914 
Q 2772 3150 2772 3378 
Q 2772 3750 2511 3984 
Q 2250 4219 1831 4219 
Q 1534 4219 1204 4116 
Q 875 4013 500 3803 
L 500 4441 
Q 881 4594 1212 4672 
Q 1544 4750 1819 4750 
Q 2544 4750 2975 4387 
Q 3406 4025 3406 3419 
Q 3406 3131 3298 2873 
Q 3191 2616 2906 2266 
Q 2828 2175 2409 1742 
Q 1991 1309 1228 531 
z
" transform="scale(0.015625)"/>
       </defs>
       <use xlink:href="#DejaVuSans-32"/>
       <use xlink:href="#DejaVuSans-30" x="63.623047"/>
      </g>
     </g>
    </g>
    <g id="xtick_6">
     <g id="line2d_6">
      <g>
       <use xlink:href="#m716dff0991" x="888.248083" y="304.56" style="stroke: #000000; stroke-width: 0.8"/>
      </g>
     </g>
     <g id="text_6">
      <!-- 25 -->
      <g transform="translate(881.885583 319.158437) scale(0.1 -0.1)">
       <use xlink:href="#DejaVuSans-32"/>
       <use xlink:href="#DejaVuSans-35" x="63.623047"/>
      </g>
     </g>
    </g>
   </g>
   <g id="matplotlib.axis_2">
    <g id="ytick_1">
     <g id="line2d_7">
      <defs>
       <path id="m76ce0ac5e0" d="M 0 0 
L -3.5 0 
" style="stroke: #000000; stroke-width: 0.8"/>
      </defs>
      <g>
       <use xlink:href="#m76ce0ac5e0" x="144" y="287.955334" style="stroke: #000000; stroke-width: 0.8"/>
      </g>
     </g>
     <g id="text_7">
      <!-- 0.5 -->
      <g transform="translate(121.096875 291.754552) scale(0.1 -0.1)">
       <defs>
        <path id="DejaVuSans-2e" d="M 684 794 
L 1344 794 
L 1344 0 
L 684 0 
L 684 794 
z
" transform="scale(0.015625)"/>
       </defs>
       <use xlink:href="#DejaVuSans-30"/>
       <use xlink:href="#DejaVuSans-2e" x="63.623047"/>
       <use xlink:href="#DejaVuSans-35" x="95.410156"/>
      </g>
     </g>
    </g>
    <g id="ytick_2">
     <g id="line2d_8">
      <g>
       <use xlink:href="#m76ce0ac5e0" x="144" y="255.188651" style="stroke: #000000; stroke-width: 0.8"/>
      </g>
     </g>
     <g id="text_8">
      <!-- 1.0 -->
      <g transform="translate(121.096875 258.98787) scale(0.1 -0.1)">
       <use xlink:href="#DejaVuSans-31"/>
       <use xlink:href="#DejaVuSans-2e" x="63.623047"/>
       <use xlink:href="#DejaVuSans-30" x="95.410156"/>
      </g>
     </g>
    </g>
    <g id="ytick_3">
     <g id="line2d_9">
      <g>
       <use xlink:href="#m76ce0ac5e0" x="144" y="222.421969" style="stroke: #000000; stroke-width: 0.8"/>
      </g>
     </g>
     <g id="text_9">
      <!-- 1.5 -->
      <g transform="translate(121.096875 226.221188) scale(0.1 -0.1)">
       <use xlink:href="#DejaVuSans-31"/>
       <use xlink:href="#DejaVuSans-2e" x="63.623047"/>
       <use xlink:href="#DejaVuSans-35" x="95.410156"/>
      </g>
     </g>
    </g>
    <g id="ytick_4">
     <g id="line2d_10">
      <g>
       <use xlink:href="#m76ce0ac5e0" x="144" y="189.655287" style="stroke: #000000; stroke-width: 0.8"/>
      </g>
     </g>
     <g id="text_10">
      <!-- 2.0 -->
      <g transform="translate(121.096875 193.454506) scale(0.1 -0.1)">
       <use xlink:href="#DejaVuSans-32"/>
       <use xlink:href="#DejaVuSans-2e" x="63.623047"/>
       <use xlink:href="#DejaVuSans-30" x="95.410156"/>
      </g>
     </g>
    </g>
    <g id="ytick_5">
     <g id="line2d_11">
      <g>
       <use xlink:href="#m76ce0ac5e0" x="144" y="156.888605" style="stroke: #000000; stroke-width: 0.8"/>
      </g>
     </g>
     <g id="text_11">
      <!-- 2.5 -->
      <g transform="translate(121.096875 160.687823) scale(0.1 -0.1)">
       <use xlink:href="#DejaVuSans-32"/>
       <use xlink:href="#DejaVuSans-2e" x="63.623047"/>
       <use xlink:href="#DejaVuSans-35" x="95.410156"/>
      </g>
     </g>
    </g>
    <g id="ytick_6">
     <g id="line2d_12">
      <g>
       <use xlink:href="#m76ce0ac5e0" x="144" y="124.121922" style="stroke: #000000; stroke-width: 0.8"/>
      </g>
     </g>
     <g id="text_12">
      <!-- 3.0 -->
      <g transform="translate(121.096875 127.921141) scale(0.1 -0.1)">
       <defs>
        <path id="DejaVuSans-33" d="M 2597 2516 
Q 3050 2419 3304 2112 
Q 3559 1806 3559 1356 
Q 3559 666 3084 287 
Q 2609 -91 1734 -91 
Q 1441 -91 1130 -33 
Q 819 25 488 141 
L 488 750 
Q 750 597 1062 519 
Q 1375 441 1716 441 
Q 2309 441 2620 675 
Q 2931 909 2931 1356 
Q 2931 1769 2642 2001 
Q 2353 2234 1838 2234 
L 1294 2234 
L 1294 2753 
L 1863 2753 
Q 2328 2753 2575 2939 
Q 2822 3125 2822 3475 
Q 2822 3834 2567 4026 
Q 2313 4219 1838 4219 
Q 1578 4219 1281 4162 
Q 984 4106 628 3988 
L 628 4550 
Q 988 4650 1302 4700 
Q 1616 4750 1894 4750 
Q 2613 4750 3031 4423 
Q 3450 4097 3450 3541 
Q 3450 3153 3228 2886 
Q 3006 2619 2597 2516 
z
" transform="scale(0.015625)"/>
       </defs>
       <use xlink:href="#DejaVuSans-33"/>
       <use xlink:href="#DejaVuSans-2e" x="63.623047"/>
       <use xlink:href="#DejaVuSans-30" x="95.410156"/>
      </g>
     </g>
    </g>
    <g id="ytick_7">
     <g id="line2d_13">
      <g>
       <use xlink:href="#m76ce0ac5e0" x="144" y="91.35524" style="stroke: #000000; stroke-width: 0.8"/>
      </g>
     </g>
     <g id="text_13">
      <!-- 3.5 -->
      <g transform="translate(121.096875 95.154459) scale(0.1 -0.1)">
       <use xlink:href="#DejaVuSans-33"/>
       <use xlink:href="#DejaVuSans-2e" x="63.623047"/>
       <use xlink:href="#DejaVuSans-35" x="95.410156"/>
      </g>
     </g>
    </g>
   </g>
   <g id="line2d_14">
    <path d="M 144 91.35524 
L 145.190797 91.481766 
L 146.381594 91.856774 
L 148.167789 92.766445 
L 152.633278 95.020689 
L 155.312571 96.09191 
L 158.289563 97.036639 
L 161.564255 97.825338 
L 165.732044 98.548494 
L 170.197533 99.101648 
L 175.853818 99.560584 
L 183.593998 99.963186 
L 219.020207 101.426072 
L 228.844281 102.246158 
L 237.17986 103.162363 
L 244.622341 104.206053 
L 251.469423 105.362437 
L 258.018806 106.697398 
L 264.865889 108.316582 
L 272.308369 110.324877 
L 278.560053 112.238143 
L 285.109436 114.466973 
L 292.551917 117.2573 
L 294.338113 117.84035 
L 295.826609 118.070409 
L 301.185195 118.575242 
L 304.162187 119.094433 
L 307.436879 119.900052 
L 311.00927 121.028685 
L 315.177059 122.597997 
L 319.940247 124.637024 
L 325.001134 127.042136 
L 332.145915 130.728575 
L 340.779193 135.447812 
L 353.877959 142.883368 
L 375.312304 155.109569 
L 387.517973 161.789776 
L 401.212137 169.016084 
L 417.883294 177.548509 
L 449.141714 193.410183 
L 464.622074 201.59364 
L 473.85075 206.741944 
L 481.88863 211.481669 
L 489.33111 216.123828 
L 496.475892 220.867873 
L 503.025275 225.481161 
L 509.574658 230.380841 
L 516.124041 235.557766 
L 522.673424 241.023962 
L 530.115905 247.542835 
L 538.749183 255.418447 
L 554.824942 270.124312 
L 560.183528 274.683323 
L 564.649016 278.192058 
L 568.519106 280.95868 
L 572.091497 283.237794 
L 575.366189 285.048825 
L 578.343181 286.442078 
L 581.022474 287.473992 
L 583.701767 288.282504 
L 586.38106 288.859319 
L 589.060353 289.194886 
L 591.739647 289.283914 
L 594.12124 289.152259 
L 596.800534 288.769179 
L 599.479827 288.144938 
L 602.15912 287.286859 
L 604.838413 286.20367 
L 607.815405 284.748532 
L 610.792397 283.044815 
L 614.067089 280.912595 
L 617.63948 278.316228 
L 621.807269 274.990374 
L 626.570457 270.887193 
L 632.524441 265.44524 
L 643.837012 254.725486 
L 653.065689 246.132803 
L 659.912771 240.039633 
L 666.462154 234.503622 
L 672.713838 229.508543 
L 678.965522 224.797231 
L 685.514905 220.15033 
L 692.064288 215.777425 
L 699.20907 211.293098 
L 706.651551 206.89371 
L 715.284828 202.050589 
L 725.704301 196.48649 
L 742.970857 187.578595 
L 757.558119 180.226829 
L 779.587863 169.143099 
L 792.09123 162.592836 
L 804.296899 155.964274 
L 817.991064 148.27819 
L 839.425408 135.967608 
L 853.119573 128.217904 
L 864.134445 122.234753 
L 872.470023 117.915205 
L 880.805602 113.881205 
L 887.950383 110.653691 
L 894.797466 107.788747 
L 901.346849 105.284605 
L 907.300834 103.211498 
L 913.552518 101.263155 
L 919.804201 99.51587 
L 925.758186 98.059986 
L 932.605268 96.62369 
L 939.154652 95.47676 
L 946.597132 94.426877 
L 952.848816 93.714027 
L 963.268289 92.784951 
L 971.306169 92.243725 
L 981.725642 91.815322 
L 1002.266889 91.369718 
L 1031.739113 91.336395 
L 1036.8 91.355538 
L 1036.8 91.355538 
" clip-path="url(#p563f7b5958)" style="fill: none; stroke-dasharray: 5.55,2.4; stroke-dashoffset: 0; stroke: #ffa500; stroke-width: 1.5"/>
   </g>
   <g id="line2d_15">
    <path d="M 292.849617 117.575674 
L 295.826609 117.818742 
L 298.803601 118.178865 
L 301.780594 118.746901 
L 304.757586 119.512813 
L 307.734578 120.45358 
L 310.711571 121.54508 
L 316.665555 124.059294 
L 322.61954 126.90477 
L 331.550517 131.60027 
L 343.458486 138.267341 
L 379.182394 158.603061 
L 391.090363 165.018069 
L 405.975325 172.761936 
L 423.837279 181.79329 
L 441.699233 190.885066 
L 459.561187 200.29001 
L 468.492164 205.216924 
L 477.423141 210.420397 
L 486.354118 215.965462 
L 492.308103 219.905796 
L 498.262087 224.049032 
L 504.216072 228.427719 
L 510.170057 233.034301 
L 516.124041 237.876912 
L 522.078026 242.954882 
L 531.009003 250.922105 
L 551.847949 270.023753 
L 557.801934 275.071435 
L 560.778926 277.422199 
L 563.755919 279.622843 
L 566.732911 281.656198 
L 569.709903 283.495491 
L 572.686896 285.109561 
L 575.663888 286.477759 
L 578.64088 287.586413 
L 581.617873 288.413996 
L 584.594865 288.951536 
L 587.571857 289.1869 
L 590.54885 289.117472 
L 593.525842 288.738351 
L 596.502834 288.057254 
L 599.479827 287.089996 
L 602.456819 285.843328 
L 605.433811 284.33726 
L 608.410804 282.585412 
L 611.387796 280.615005 
L 614.364788 278.449301 
L 617.341781 276.116125 
L 623.295765 271.052676 
L 629.24975 265.620988 
L 653.065689 243.326121 
L 659.019673 238.121383 
L 664.973658 233.1586 
L 670.927643 228.454214 
L 676.881627 224.005565 
L 682.835612 219.800122 
L 688.789597 215.816926 
L 694.743581 212.04991 
L 700.697566 208.463157 
L 709.628543 203.355027 
L 718.55952 198.503412 
L 733.444481 190.749628 
L 751.306435 181.650771 
L 778.099366 168.13073 
L 790.007336 161.851965 
L 801.915305 155.350327 
L 816.800267 146.946841 
L 852.524175 126.482149 
L 864.432144 120.044898 
L 873.363121 115.518767 
L 882.294098 111.298752 
L 891.225075 107.460892 
L 897.17906 105.141146 
L 903.133044 102.989102 
L 909.087029 101.068731 
L 915.041014 99.328427 
L 920.994998 97.793282 
L 926.948983 96.462194 
L 932.902968 95.311621 
L 938.856952 94.347659 
L 947.787929 93.177812 
L 956.718906 92.313123 
L 968.626876 91.451646 
L 977.557853 91.057775 
L 998.396799 90.591706 
L 1013.281761 90.544556 
L 1034.120707 90.557049 
L 1034.120707 90.557049 
" clip-path="url(#p563f7b5958)" style="fill: none; stroke: #0000ff; stroke-opacity: 0.5; stroke-width: 1.5; stroke-linecap: square"/>
   </g>
   <g id="patch_3">
    <path d="M 144 304.56 
L 144 77.76 
" style="fill: none; stroke: #000000; stroke-width: 0.8; stroke-linejoin: miter; stroke-linecap: square"/>
   </g>
   <g id="patch_4">
    <path d="M 1036.8 304.56 
L 1036.8 77.76 
" style="fill: none; stroke: #000000; stroke-width: 0.8; stroke-linejoin: miter; stroke-linecap: square"/>
   </g>
   <g id="patch_5">
    <path d="M 144 304.56 
L 1036.8 304.56 
" style="fill: none; stroke: #000000; stroke-width: 0.8; stroke-linejoin: miter; stroke-linecap: square"/>
   </g>
   <g id="patch_6">
    <path d="M 144 77.76 
L 1036.8 77.76 
" style="fill: none; stroke: #000000; stroke-width: 0.8; stroke-linejoin: miter; stroke-linecap: square"/>
   </g>
   <g id="legend_1">
    <g id="patch_7">
     <path d="M 151 299.56 
L 256.6 299.56 
Q 258.6 299.56 258.6 297.56 
L 258.6 254.481875 
Q 258.6 252.481875 256.6 252.481875 
L 151 252.481875 
Q 149 252.481875 149 254.481875 
L 149 297.56 
Q 149 299.56 151 299.56 
z
" style="fill: #ffffff; opacity: 0.8; stroke: #cccccc; stroke-linejoin: miter"/>
    </g>
    <g id="line2d_16">
     <path d="M 153 260.581875 
L 163 260.581875 
L 173 260.581875 
" style="fill: none; stroke-dasharray: 5.55,2.4; stroke-dashoffset: 0; stroke: #ffa500; stroke-width: 1.5"/>
    </g>
    <g id="text_14">
     <!-- Real $y$ Position -->
     <g transform="translate(181 264.081875) scale(0.1 -0.1)">
      <defs>
       <path id="DejaVuSans-52" d="M 2841 2188 
Q 3044 2119 3236 1894 
Q 3428 1669 3622 1275 
L 4263 0 
L 3584 0 
L 2988 1197 
Q 2756 1666 2539 1819 
Q 2322 1972 1947 1972 
L 1259 1972 
L 1259 0 
L 628 0 
L 628 4666 
L 2053 4666 
Q 2853 4666 3247 4331 
Q 3641 3997 3641 3322 
Q 3641 2881 3436 2590 
Q 3231 2300 2841 2188 
z
M 1259 4147 
L 1259 2491 
L 2053 2491 
Q 2509 2491 2742 2702 
Q 2975 2913 2975 3322 
Q 2975 3731 2742 3939 
Q 2509 4147 2053 4147 
L 1259 4147 
z
" transform="scale(0.015625)"/>
       <path id="DejaVuSans-65" d="M 3597 1894 
L 3597 1613 
L 953 1613 
Q 991 1019 1311 708 
Q 1631 397 2203 397 
Q 2534 397 2845 478 
Q 3156 559 3463 722 
L 3463 178 
Q 3153 47 2828 -22 
Q 2503 -91 2169 -91 
Q 1331 -91 842 396 
Q 353 884 353 1716 
Q 353 2575 817 3079 
Q 1281 3584 2069 3584 
Q 2775 3584 3186 3129 
Q 3597 2675 3597 1894 
z
M 3022 2063 
Q 3016 2534 2758 2815 
Q 2500 3097 2075 3097 
Q 1594 3097 1305 2825 
Q 1016 2553 972 2059 
L 3022 2063 
z
" transform="scale(0.015625)"/>
       <path id="DejaVuSans-61" d="M 2194 1759 
Q 1497 1759 1228 1600 
Q 959 1441 959 1056 
Q 959 750 1161 570 
Q 1363 391 1709 391 
Q 2188 391 2477 730 
Q 2766 1069 2766 1631 
L 2766 1759 
L 2194 1759 
z
M 3341 1997 
L 3341 0 
L 2766 0 
L 2766 531 
Q 2569 213 2275 61 
Q 1981 -91 1556 -91 
Q 1019 -91 701 211 
Q 384 513 384 1019 
Q 384 1609 779 1909 
Q 1175 2209 1959 2209 
L 2766 2209 
L 2766 2266 
Q 2766 2663 2505 2880 
Q 2244 3097 1772 3097 
Q 1472 3097 1187 3025 
Q 903 2953 641 2809 
L 641 3341 
Q 956 3463 1253 3523 
Q 1550 3584 1831 3584 
Q 2591 3584 2966 3190 
Q 3341 2797 3341 1997 
z
" transform="scale(0.015625)"/>
       <path id="DejaVuSans-6c" d="M 603 4863 
L 1178 4863 
L 1178 0 
L 603 0 
L 603 4863 
z
" transform="scale(0.015625)"/>
       <path id="DejaVuSans-20" transform="scale(0.015625)"/>
       <path id="DejaVuSans-Oblique-79" d="M 1588 -325 
Q 1188 -997 936 -1164 
Q 684 -1331 294 -1331 
L -159 -1331 
L -63 -850 
L 269 -850 
Q 509 -850 678 -719 
Q 847 -588 1056 -206 
L 1234 128 
L 459 3500 
L 1069 3500 
L 1650 819 
L 3256 3500 
L 3859 3500 
L 1588 -325 
z
" transform="scale(0.015625)"/>
       <path id="DejaVuSans-50" d="M 1259 4147 
L 1259 2394 
L 2053 2394 
Q 2494 2394 2734 2622 
Q 2975 2850 2975 3272 
Q 2975 3691 2734 3919 
Q 2494 4147 2053 4147 
L 1259 4147 
z
M 628 4666 
L 2053 4666 
Q 2838 4666 3239 4311 
Q 3641 3956 3641 3272 
Q 3641 2581 3239 2228 
Q 2838 1875 2053 1875 
L 1259 1875 
L 1259 0 
L 628 0 
L 628 4666 
z
" transform="scale(0.015625)"/>
       <path id="DejaVuSans-6f" d="M 1959 3097 
Q 1497 3097 1228 2736 
Q 959 2375 959 1747 
Q 959 1119 1226 758 
Q 1494 397 1959 397 
Q 2419 397 2687 759 
Q 2956 1122 2956 1747 
Q 2956 2369 2687 2733 
Q 2419 3097 1959 3097 
z
M 1959 3584 
Q 2709 3584 3137 3096 
Q 3566 2609 3566 1747 
Q 3566 888 3137 398 
Q 2709 -91 1959 -91 
Q 1206 -91 779 398 
Q 353 888 353 1747 
Q 353 2609 779 3096 
Q 1206 3584 1959 3584 
z
" transform="scale(0.015625)"/>
       <path id="DejaVuSans-73" d="M 2834 3397 
L 2834 2853 
Q 2591 2978 2328 3040 
Q 2066 3103 1784 3103 
Q 1356 3103 1142 2972 
Q 928 2841 928 2578 
Q 928 2378 1081 2264 
Q 1234 2150 1697 2047 
L 1894 2003 
Q 2506 1872 2764 1633 
Q 3022 1394 3022 966 
Q 3022 478 2636 193 
Q 2250 -91 1575 -91 
Q 1294 -91 989 -36 
Q 684 19 347 128 
L 347 722 
Q 666 556 975 473 
Q 1284 391 1588 391 
Q 1994 391 2212 530 
Q 2431 669 2431 922 
Q 2431 1156 2273 1281 
Q 2116 1406 1581 1522 
L 1381 1569 
Q 847 1681 609 1914 
Q 372 2147 372 2553 
Q 372 3047 722 3315 
Q 1072 3584 1716 3584 
Q 2034 3584 2315 3537 
Q 2597 3491 2834 3397 
z
" transform="scale(0.015625)"/>
       <path id="DejaVuSans-69" d="M 603 3500 
L 1178 3500 
L 1178 0 
L 603 0 
L 603 3500 
z
M 603 4863 
L 1178 4863 
L 1178 4134 
L 603 4134 
L 603 4863 
z
" transform="scale(0.015625)"/>
       <path id="DejaVuSans-74" d="M 1172 4494 
L 1172 3500 
L 2356 3500 
L 2356 3053 
L 1172 3053 
L 1172 1153 
Q 1172 725 1289 603 
Q 1406 481 1766 481 
L 2356 481 
L 2356 0 
L 1766 0 
Q 1100 0 847 248 
Q 594 497 594 1153 
L 594 3053 
L 172 3053 
L 172 3500 
L 594 3500 
L 594 4494 
L 1172 4494 
z
" transform="scale(0.015625)"/>
       <path id="DejaVuSans-6e" d="M 3513 2113 
L 3513 0 
L 2938 0 
L 2938 2094 
Q 2938 2591 2744 2837 
Q 2550 3084 2163 3084 
Q 1697 3084 1428 2787 
Q 1159 2491 1159 1978 
L 1159 0 
L 581 0 
L 581 3500 
L 1159 3500 
L 1159 2956 
Q 1366 3272 1645 3428 
Q 1925 3584 2291 3584 
Q 2894 3584 3203 3211 
Q 3513 2838 3513 2113 
z
" transform="scale(0.015625)"/>
      </defs>
      <use xlink:href="#DejaVuSans-52" transform="translate(0 0.015625)"/>
      <use xlink:href="#DejaVuSans-65" transform="translate(69.482422 0.015625)"/>
      <use xlink:href="#DejaVuSans-61" transform="translate(131.005859 0.015625)"/>
      <use xlink:href="#DejaVuSans-6c" transform="translate(192.285156 0.015625)"/>
      <use xlink:href="#DejaVuSans-20" transform="translate(220.068359 0.015625)"/>
      <use xlink:href="#DejaVuSans-Oblique-79" transform="translate(251.855469 0.015625)"/>
      <use xlink:href="#DejaVuSans-20" transform="translate(311.035156 0.015625)"/>
      <use xlink:href="#DejaVuSans-50" transform="translate(342.822266 0.015625)"/>
      <use xlink:href="#DejaVuSans-6f" transform="translate(403.125 0.015625)"/>
      <use xlink:href="#DejaVuSans-73" transform="translate(464.306641 0.015625)"/>
      <use xlink:href="#DejaVuSans-69" transform="translate(516.40625 0.015625)"/>
      <use xlink:href="#DejaVuSans-74" transform="translate(544.189453 0.015625)"/>
      <use xlink:href="#DejaVuSans-69" transform="translate(583.398438 0.015625)"/>
      <use xlink:href="#DejaVuSans-6f" transform="translate(611.181641 0.015625)"/>
      <use xlink:href="#DejaVuSans-6e" transform="translate(672.363281 0.015625)"/>
     </g>
    </g>
    <g id="line2d_17">
     <path d="M 153 275.281875 
L 163 275.281875 
L 173 275.281875 
" style="fill: none; stroke: #0000ff; stroke-opacity: 0.5; stroke-width: 1.5; stroke-linecap: square"/>
    </g>
    <g id="text_15">
     <!-- Prediction $y$ -->
     <g transform="translate(181 278.781875) scale(0.1 -0.1)">
      <defs>
       <path id="DejaVuSans-72" d="M 2631 2963 
Q 2534 3019 2420 3045 
Q 2306 3072 2169 3072 
Q 1681 3072 1420 2755 
Q 1159 2438 1159 1844 
L 1159 0 
L 581 0 
L 581 3500 
L 1159 3500 
L 1159 2956 
Q 1341 3275 1631 3429 
Q 1922 3584 2338 3584 
Q 2397 3584 2469 3576 
Q 2541 3569 2628 3553 
L 2631 2963 
z
" transform="scale(0.015625)"/>
       <path id="DejaVuSans-64" d="M 2906 2969 
L 2906 4863 
L 3481 4863 
L 3481 0 
L 2906 0 
L 2906 525 
Q 2725 213 2448 61 
Q 2172 -91 1784 -91 
Q 1150 -91 751 415 
Q 353 922 353 1747 
Q 353 2572 751 3078 
Q 1150 3584 1784 3584 
Q 2172 3584 2448 3432 
Q 2725 3281 2906 2969 
z
M 947 1747 
Q 947 1113 1208 752 
Q 1469 391 1925 391 
Q 2381 391 2643 752 
Q 2906 1113 2906 1747 
Q 2906 2381 2643 2742 
Q 2381 3103 1925 3103 
Q 1469 3103 1208 2742 
Q 947 2381 947 1747 
z
" transform="scale(0.015625)"/>
       <path id="DejaVuSans-63" d="M 3122 3366 
L 3122 2828 
Q 2878 2963 2633 3030 
Q 2388 3097 2138 3097 
Q 1578 3097 1268 2742 
Q 959 2388 959 1747 
Q 959 1106 1268 751 
Q 1578 397 2138 397 
Q 2388 397 2633 464 
Q 2878 531 3122 666 
L 3122 134 
Q 2881 22 2623 -34 
Q 2366 -91 2075 -91 
Q 1284 -91 818 406 
Q 353 903 353 1747 
Q 353 2603 823 3093 
Q 1294 3584 2113 3584 
Q 2378 3584 2631 3529 
Q 2884 3475 3122 3366 
z
" transform="scale(0.015625)"/>
      </defs>
      <use xlink:href="#DejaVuSans-50" transform="translate(0 0.015625)"/>
      <use xlink:href="#DejaVuSans-72" transform="translate(60.302734 0.015625)"/>
      <use xlink:href="#DejaVuSans-65" transform="translate(101.416016 0.015625)"/>
      <use xlink:href="#DejaVuSans-64" transform="translate(162.939453 0.015625)"/>
      <use xlink:href="#DejaVuSans-69" transform="translate(226.416016 0.015625)"/>
      <use xlink:href="#DejaVuSans-63" transform="translate(254.199219 0.015625)"/>
      <use xlink:href="#DejaVuSans-74" transform="translate(309.179688 0.015625)"/>
      <use xlink:href="#DejaVuSans-69" transform="translate(348.388672 0.015625)"/>
      <use xlink:href="#DejaVuSans-6f" transform="translate(376.171875 0.015625)"/>
      <use xlink:href="#DejaVuSans-6e" transform="translate(437.353516 0.015625)"/>
      <use xlink:href="#DejaVuSans-20" transform="translate(500.732422 0.015625)"/>
      <use xlink:href="#DejaVuSans-Oblique-79" transform="translate(532.519531 0.015625)"/>
     </g>
    </g>
    <g id="patch_8">
     <path d="M 153 293.480313 
L 173 293.480313 
L 173 286.480313 
L 153 286.480313 
z
" style="fill: #00ffff; fill-opacity: 0.5; stroke: #00ffff; stroke-opacity: 0.5; stroke-linejoin: miter"/>
    </g>
    <g id="text_16">
     <!-- Confidence -->
     <g transform="translate(181 293.480313) scale(0.1 -0.1)">
      <defs>
       <path id="DejaVuSans-43" d="M 4122 4306 
L 4122 3641 
Q 3803 3938 3442 4084 
Q 3081 4231 2675 4231 
Q 1875 4231 1450 3742 
Q 1025 3253 1025 2328 
Q 1025 1406 1450 917 
Q 1875 428 2675 428 
Q 3081 428 3442 575 
Q 3803 722 4122 1019 
L 4122 359 
Q 3791 134 3420 21 
Q 3050 -91 2638 -91 
Q 1578 -91 968 557 
Q 359 1206 359 2328 
Q 359 3453 968 4101 
Q 1578 4750 2638 4750 
Q 3056 4750 3426 4639 
Q 3797 4528 4122 4306 
z
" transform="scale(0.015625)"/>
       <path id="DejaVuSans-66" d="M 2375 4863 
L 2375 4384 
L 1825 4384 
Q 1516 4384 1395 4259 
Q 1275 4134 1275 3809 
L 1275 3500 
L 2222 3500 
L 2222 3053 
L 1275 3053 
L 1275 0 
L 697 0 
L 697 3053 
L 147 3053 
L 147 3500 
L 697 3500 
L 697 3744 
Q 697 4328 969 4595 
Q 1241 4863 1831 4863 
L 2375 4863 
z
" transform="scale(0.015625)"/>
      </defs>
      <use xlink:href="#DejaVuSans-43"/>
      <use xlink:href="#DejaVuSans-6f" x="69.824219"/>
      <use xlink:href="#DejaVuSans-6e" x="131.005859"/>
      <use xlink:href="#DejaVuSans-66" x="194.384766"/>
      <use xlink:href="#DejaVuSans-69" x="229.589844"/>
      <use xlink:href="#DejaVuSans-64" x="257.373047"/>
      <use xlink:href="#DejaVuSans-65" x="320.849609"/>
      <use xlink:href="#DejaVuSans-6e" x="382.373047"/>
      <use xlink:href="#DejaVuSans-63" x="445.751953"/>
      <use xlink:href="#DejaVuSans-65" x="500.732422"/>
     </g>
    </g>
   </g>
  </g>
  <g id="axes_2">
   <g id="patch_9">
    <path d="M 144 576.72 
L 1036.8 576.72 
L 1036.8 349.92 
L 144 349.92 
z
" style="fill: #ffffff"/>
   </g>
   <g id="matplotlib.axis_3">
    <g id="xtick_7">
     <g id="line2d_18">
      <g>
       <use xlink:href="#m716dff0991" x="144" y="576.72" style="stroke: #000000; stroke-width: 0.8"/>
      </g>
     </g>
     <g id="text_17">
      <!-- 0 -->
      <g transform="translate(140.81875 591.318438) scale(0.1 -0.1)">
       <use xlink:href="#DejaVuSans-30"/>
      </g>
     </g>
    </g>
    <g id="xtick_8">
     <g id="line2d_19">
      <g>
       <use xlink:href="#m716dff0991" x="292.849617" y="576.72" style="stroke: #000000; stroke-width: 0.8"/>
      </g>
     </g>
     <g id="text_18">
      <!-- 5 -->
      <g transform="translate(289.668367 591.318438) scale(0.1 -0.1)">
       <use xlink:href="#DejaVuSans-35"/>
      </g>
     </g>
    </g>
    <g id="xtick_9">
     <g id="line2d_20">
      <g>
       <use xlink:href="#m716dff0991" x="441.699233" y="576.72" style="stroke: #000000; stroke-width: 0.8"/>
      </g>
     </g>
     <g id="text_19">
      <!-- 10 -->
      <g transform="translate(435.336733 591.318438) scale(0.1 -0.1)">
       <use xlink:href="#DejaVuSans-31"/>
       <use xlink:href="#DejaVuSans-30" x="63.623047"/>
      </g>
     </g>
    </g>
    <g id="xtick_10">
     <g id="line2d_21">
      <g>
       <use xlink:href="#m716dff0991" x="590.54885" y="576.72" style="stroke: #000000; stroke-width: 0.8"/>
      </g>
     </g>
     <g id="text_20">
      <!-- 15 -->
      <g transform="translate(584.18635 591.318438) scale(0.1 -0.1)">
       <use xlink:href="#DejaVuSans-31"/>
       <use xlink:href="#DejaVuSans-35" x="63.623047"/>
      </g>
     </g>
    </g>
    <g id="xtick_11">
     <g id="line2d_22">
      <g>
       <use xlink:href="#m716dff0991" x="739.398466" y="576.72" style="stroke: #000000; stroke-width: 0.8"/>
      </g>
     </g>
     <g id="text_21">
      <!-- 20 -->
      <g transform="translate(733.035966 591.318438) scale(0.1 -0.1)">
       <use xlink:href="#DejaVuSans-32"/>
       <use xlink:href="#DejaVuSans-30" x="63.623047"/>
      </g>
     </g>
    </g>
    <g id="xtick_12">
     <g id="line2d_23">
      <g>
       <use xlink:href="#m716dff0991" x="888.248083" y="576.72" style="stroke: #000000; stroke-width: 0.8"/>
      </g>
     </g>
     <g id="text_22">
      <!-- 25 -->
      <g transform="translate(881.885583 591.318438) scale(0.1 -0.1)">
       <use xlink:href="#DejaVuSans-32"/>
       <use xlink:href="#DejaVuSans-35" x="63.623047"/>
      </g>
     </g>
    </g>
   </g>
   <g id="matplotlib.axis_4">
    <g id="ytick_8">
     <g id="line2d_24">
      <g>
       <use xlink:href="#m76ce0ac5e0" x="144" y="554.598343" style="stroke: #000000; stroke-width: 0.8"/>
      </g>
     </g>
     <g id="text_23">
      <!-- −0.04 -->
      <g transform="translate(106.354687 558.397562) scale(0.1 -0.1)">
       <defs>
        <path id="DejaVuSans-2212" d="M 678 2272 
L 4684 2272 
L 4684 1741 
L 678 1741 
L 678 2272 
z
" transform="scale(0.015625)"/>
        <path id="DejaVuSans-34" d="M 2419 4116 
L 825 1625 
L 2419 1625 
L 2419 4116 
z
M 2253 4666 
L 3047 4666 
L 3047 1625 
L 3713 1625 
L 3713 1100 
L 3047 1100 
L 3047 0 
L 2419 0 
L 2419 1100 
L 313 1100 
L 313 1709 
L 2253 4666 
z
" transform="scale(0.015625)"/>
       </defs>
       <use xlink:href="#DejaVuSans-2212"/>
       <use xlink:href="#DejaVuSans-30" x="83.789062"/>
       <use xlink:href="#DejaVuSans-2e" x="147.412109"/>
       <use xlink:href="#DejaVuSans-30" x="179.199219"/>
       <use xlink:href="#DejaVuSans-34" x="242.822266"/>
      </g>
     </g>
    </g>
    <g id="ytick_9">
     <g id="line2d_25">
      <g>
       <use xlink:href="#m76ce0ac5e0" x="144" y="506.254712" style="stroke: #000000; stroke-width: 0.8"/>
      </g>
     </g>
     <g id="text_24">
      <!-- −0.02 -->
      <g transform="translate(106.354687 510.05393) scale(0.1 -0.1)">
       <use xlink:href="#DejaVuSans-2212"/>
       <use xlink:href="#DejaVuSans-30" x="83.789062"/>
       <use xlink:href="#DejaVuSans-2e" x="147.412109"/>
       <use xlink:href="#DejaVuSans-30" x="179.199219"/>
       <use xlink:href="#DejaVuSans-32" x="242.822266"/>
      </g>
     </g>
    </g>
    <g id="ytick_10">
     <g id="line2d_26">
      <g>
       <use xlink:href="#m76ce0ac5e0" x="144" y="457.91108" style="stroke: #000000; stroke-width: 0.8"/>
      </g>
     </g>
     <g id="text_25">
      <!-- 0.00 -->
      <g transform="translate(114.734375 461.710299) scale(0.1 -0.1)">
       <use xlink:href="#DejaVuSans-30"/>
       <use xlink:href="#DejaVuSans-2e" x="63.623047"/>
       <use xlink:href="#DejaVuSans-30" x="95.410156"/>
       <use xlink:href="#DejaVuSans-30" x="159.033203"/>
      </g>
     </g>
    </g>
    <g id="ytick_11">
     <g id="line2d_27">
      <g>
       <use xlink:href="#m76ce0ac5e0" x="144" y="409.567448" style="stroke: #000000; stroke-width: 0.8"/>
      </g>
     </g>
     <g id="text_26">
      <!-- 0.02 -->
      <g transform="translate(114.734375 413.366667) scale(0.1 -0.1)">
       <use xlink:href="#DejaVuSans-30"/>
       <use xlink:href="#DejaVuSans-2e" x="63.623047"/>
       <use xlink:href="#DejaVuSans-30" x="95.410156"/>
       <use xlink:href="#DejaVuSans-32" x="159.033203"/>
      </g>
     </g>
    </g>
    <g id="ytick_12">
     <g id="line2d_28">
      <g>
       <use xlink:href="#m76ce0ac5e0" x="144" y="361.223817" style="stroke: #000000; stroke-width: 0.8"/>
      </g>
     </g>
     <g id="text_27">
      <!-- 0.04 -->
      <g transform="translate(114.734375 365.023036) scale(0.1 -0.1)">
       <use xlink:href="#DejaVuSans-30"/>
       <use xlink:href="#DejaVuSans-2e" x="63.623047"/>
       <use xlink:href="#DejaVuSans-30" x="95.410156"/>
       <use xlink:href="#DejaVuSans-34" x="159.033203"/>
      </g>
     </g>
    </g>
   </g>
   <g id="line2d_29">
    <path d="M 144 450.467386 
L 173.769923 467.193763 
L 203.539847 462.610653 
L 233.30977 454.80135 
L 263.079693 447.246723 
L 292.849617 440.627111 
L 322.61954 435.084438 
L 352.389463 430.442539 
L 382.159386 426.592607 
L 411.92931 423.179173 
L 441.699233 420.184947 
L 471.469156 417.595069 
L 501.23908 415.702267 
L 531.009003 414.131493 
L 560.778926 412.443188 
L 620.318773 410.251795 
L 650.088696 409.34611 
L 679.85862 408.632788 
L 709.628543 408.105085 
L 739.398466 407.327081 
L 798.938313 406.747445 
L 828.708236 406.653502 
L 858.478159 407.001515 
L 918.018006 407.103531 
L 947.787929 407.356453 
L 977.557853 407.829252 
L 1096.637546 409.07067 
L 1153 409.514722 
L 1153 409.514722 
" clip-path="url(#p0db128a2d3)" style="fill: none; stroke: #1f77b4; stroke-width: 1.5; stroke-linecap: square"/>
   </g>
   <g id="patch_10">
    <path d="M 144 576.72 
L 144 349.92 
" style="fill: none; stroke: #000000; stroke-width: 0.8; stroke-linejoin: miter; stroke-linecap: square"/>
   </g>
   <g id="patch_11">
    <path d="M 1036.8 576.72 
L 1036.8 349.92 
" style="fill: none; stroke: #000000; stroke-width: 0.8; stroke-linejoin: miter; stroke-linecap: square"/>
   </g>
   <g id="patch_12">
    <path d="M 144 576.72 
L 1036.8 576.72 
" style="fill: none; stroke: #000000; stroke-width: 0.8; stroke-linejoin: miter; stroke-linecap: square"/>
   </g>
   <g id="patch_13">
    <path d="M 144 349.92 
L 1036.8 349.92 
" style="fill: none; stroke: #000000; stroke-width: 0.8; stroke-linejoin: miter; stroke-linecap: square"/>
   </g>
   <g id="legend_2">
    <g id="patch_14">
     <path d="M 920.578125 372.598125 
L 1029.8 372.598125 
Q 1031.8 372.598125 1031.8 370.598125 
L 1031.8 356.92 
Q 1031.8 354.92 1029.8 354.92 
L 920.578125 354.92 
Q 918.578125 354.92 918.578125 356.92 
L 918.578125 370.598125 
Q 918.578125 372.598125 920.578125 372.598125 
z
" style="fill: #ffffff; opacity: 0.8; stroke: #cccccc; stroke-linejoin: miter"/>
    </g>
    <g id="line2d_30">
     <path d="M 922.578125 363.018437 
L 932.578125 363.018437 
L 942.578125 363.018437 
" style="fill: none; stroke: #1f77b4; stroke-width: 1.5; stroke-linecap: square"/>
    </g>
    <g id="text_28">
     <!-- Prediction Error -->
     <g transform="translate(950.578125 366.518437) scale(0.1 -0.1)">
      <defs>
       <path id="DejaVuSans-45" d="M 628 4666 
L 3578 4666 
L 3578 4134 
L 1259 4134 
L 1259 2753 
L 3481 2753 
L 3481 2222 
L 1259 2222 
L 1259 531 
L 3634 531 
L 3634 0 
L 628 0 
L 628 4666 
z
" transform="scale(0.015625)"/>
      </defs>
      <use xlink:href="#DejaVuSans-50"/>
      <use xlink:href="#DejaVuSans-72" x="58.552734"/>
      <use xlink:href="#DejaVuSans-65" x="97.416016"/>
      <use xlink:href="#DejaVuSans-64" x="158.939453"/>
      <use xlink:href="#DejaVuSans-69" x="222.416016"/>
      <use xlink:href="#DejaVuSans-63" x="250.199219"/>
      <use xlink:href="#DejaVuSans-74" x="305.179688"/>
      <use xlink:href="#DejaVuSans-69" x="344.388672"/>
      <use xlink:href="#DejaVuSans-6f" x="372.171875"/>
      <use xlink:href="#DejaVuSans-6e" x="433.353516"/>
      <use xlink:href="#DejaVuSans-20" x="496.732422"/>
      <use xlink:href="#DejaVuSans-45" x="528.519531"/>
      <use xlink:href="#DejaVuSans-72" x="591.703125"/>
      <use xlink:href="#DejaVuSans-72" x="631.066406"/>
      <use xlink:href="#DejaVuSans-6f" x="669.929688"/>
      <use xlink:href="#DejaVuSans-72" x="731.111328"/>
     </g>
    </g>
   </g>
  </g>
  <g id="text_29">
   <!-- $y$-Position Prediction -->
   <g transform="translate(514.74 22.08) scale(0.12 -0.12)">
    <defs>
     <path id="DejaVuSans-2d" d="M 313 2009 
L 1997 2009 
L 1997 1497 
L 313 1497 
L 313 2009 
z
" transform="scale(0.015625)"/>
    </defs>
    <use xlink:href="#DejaVuSans-Oblique-79" transform="translate(0 0.015625)"/>
    <use xlink:href="#DejaVuSans-2d" transform="translate(59.179688 0.015625)"/>
    <use xlink:href="#DejaVuSans-50" transform="translate(95.263672 0.015625)"/>
    <use xlink:href="#DejaVuSans-6f" transform="translate(155.566406 0.015625)"/>
    <use xlink:href="#DejaVuSans-73" transform="translate(216.748047 0.015625)"/>
    <use xlink:href="#DejaVuSans-69" transform="translate(268.847656 0.015625)"/>
    <use xlink:href="#DejaVuSans-74" transform="translate(296.630859 0.015625)"/>
    <use xlink:href="#DejaVuSans-69" transform="translate(335.839844 0.015625)"/>
    <use xlink:href="#DejaVuSans-6f" transform="translate(363.623047 0.015625)"/>
    <use xlink:href="#DejaVuSans-6e" transform="translate(424.804688 0.015625)"/>
    <use xlink:href="#DejaVuSans-20" transform="translate(488.183594 0.015625)"/>
    <use xlink:href="#DejaVuSans-50" transform="translate(519.970703 0.015625)"/>
    <use xlink:href="#DejaVuSans-72" transform="translate(580.273438 0.015625)"/>
    <use xlink:href="#DejaVuSans-65" transform="translate(621.386719 0.015625)"/>
    <use xlink:href="#DejaVuSans-64" transform="translate(682.910156 0.015625)"/>
    <use xlink:href="#DejaVuSans-69" transform="translate(746.386719 0.015625)"/>
    <use xlink:href="#DejaVuSans-63" transform="translate(774.169922 0.015625)"/>
    <use xlink:href="#DejaVuSans-74" transform="translate(829.150391 0.015625)"/>
    <use xlink:href="#DejaVuSans-69" transform="translate(868.359375 0.015625)"/>
    <use xlink:href="#DejaVuSans-6f" transform="translate(896.142578 0.015625)"/>
    <use xlink:href="#DejaVuSans-6e" transform="translate(957.324219 0.015625)"/>
   </g>
  </g>
 </g>
 <defs>
  <clipPath id="p563f7b5958">
   <rect x="144" y="77.76" width="892.8" height="226.8"/>
  </clipPath>
  <clipPath id="p0db128a2d3">
   <rect x="144" y="349.92" width="892.8" height="226.8"/>
  </clipPath>
 </defs>
</svg>
