<?xml version="1.0" encoding="utf-8" standalone="no"?>
<!DOCTYPE svg PUBLIC "-//W3C//DTD SVG 1.1//EN"
  "http://www.w3.org/Graphics/SVG/1.1/DTD/svg11.dtd">
<svg xmlns:xlink="http://www.w3.org/1999/xlink" width="1152pt" height="648pt" viewBox="0 0 1152 648" xmlns="http://www.w3.org/2000/svg" version="1.1">
 <metadata>
  <rdf:RDF xmlns:dc="http://purl.org/dc/elements/1.1/" xmlns:cc="http://creativecommons.org/ns#" xmlns:rdf="http://www.w3.org/1999/02/22-rdf-syntax-ns#">
   <cc:Work>
    <dc:type rdf:resource="http://purl.org/dc/dcmitype/StillImage"/>
    <dc:date>2024-06-20T12:46:22.099239</dc:date>
    <dc:format>image/svg+xml</dc:format>
    <dc:creator>
     <cc:Agent>
      <dc:title>Matplotlib v3.9.0, https://matplotlib.org/</dc:title>
     </cc:Agent>
    </dc:creator>
   </cc:Work>
  </rdf:RDF>
 </metadata>
 <defs>
  <style type="text/css">*{stroke-linejoin: round; stroke-linecap: butt}</style>
 </defs>
 <g id="figure_1">
  <g id="patch_1">
   <path d="M 0 648 
L 1152 648 
L 1152 0 
L 0 0 
z
" style="fill: #ffffff"/>
  </g>
  <g id="axes_1">
   <g id="patch_2">
    <path d="M 144 304.56 
L 1036.8 304.56 
L 1036.8 77.76 
L 144 77.76 
z
" style="fill: #ffffff"/>
   </g>
   <g id="PolyCollection_1">
    <defs>
     <path id="m2edb5e2948" d="M 292.849617 -558.77362 
L 292.849617 -549.67873 
L 295.826609 -550.328631 
L 298.803601 -550.854173 
L 301.780594 -551.051194 
L 304.757586 -550.95101 
L 307.734578 -550.634606 
L 310.711571 -550.086173 
L 313.688563 -549.362076 
L 316.665555 -548.476267 
L 319.642548 -547.441934 
L 322.61954 -546.268149 
L 325.596532 -544.955991 
L 328.573525 -543.559466 
L 331.550517 -542.042211 
L 334.527509 -540.449255 
L 337.504502 -538.770392 
L 340.481494 -537.007937 
L 343.458486 -535.185746 
L 346.435478 -533.307044 
L 349.412471 -531.36912 
L 352.389463 -529.372969 
L 355.366455 -527.344185 
L 358.343448 -525.264896 
L 361.32044 -523.134809 
L 364.297432 -520.959003 
L 367.274425 -518.750819 
L 370.251417 -516.517899 
L 373.228409 -514.231579 
L 376.205402 -511.91793 
L 379.182394 -509.559927 
L 382.159386 -507.169636 
L 385.136379 -504.750724 
L 388.113371 -502.295082 
L 391.090363 -499.82668 
L 394.067356 -497.336267 
L 397.044348 -494.826745 
L 400.02134 -492.299685 
L 402.998333 -489.746757 
L 405.975325 -487.198852 
L 408.952317 -484.636709 
L 411.92931 -482.053748 
L 414.906302 -479.451867 
L 417.883294 -476.820273 
L 420.860287 -474.169124 
L 423.837279 -471.500154 
L 426.814271 -468.807343 
L 429.791264 -466.092061 
L 432.768256 -463.364611 
L 435.745248 -460.611038 
L 438.722241 -457.835369 
L 441.699233 -455.021531 
L 444.676225 -452.193559 
L 447.653218 -449.363561 
L 450.63021 -446.542258 
L 453.607202 -443.731269 
L 456.584195 -440.920742 
L 459.561187 -438.092351 
L 462.538179 -435.258959 
L 465.515172 -432.412616 
L 468.492164 -429.558412 
L 471.469156 -426.690149 
L 474.446149 -423.808836 
L 477.423141 -420.89916 
L 480.400133 -417.984143 
L 483.377126 -415.061511 
L 486.354118 -412.119006 
L 489.33111 -409.163689 
L 492.308103 -406.207003 
L 495.285095 -403.241934 
L 498.262087 -400.272297 
L 501.23908 -397.305989 
L 504.216072 -394.339922 
L 507.193064 -391.395563 
L 510.170057 -388.4692 
L 513.147049 -385.570326 
L 516.124041 -382.705359 
L 519.101034 -379.88353 
L 522.078026 -377.115418 
L 525.055018 -374.429687 
L 528.032011 -371.821915 
L 531.009003 -369.311171 
L 533.985995 -366.919099 
L 536.962988 -364.655669 
L 539.93998 -362.540668 
L 542.916972 -360.600457 
L 545.893965 -358.855019 
L 548.870957 -357.331794 
L 551.847949 -356.049739 
L 554.824942 -355.032524 
L 557.801934 -354.297622 
L 560.778926 -353.861336 
L 563.755919 -353.749091 
L 566.732911 -353.981026 
L 569.709903 -354.573823 
L 572.686896 -355.529503 
L 575.663888 -356.838552 
L 578.64088 -358.504839 
L 581.617873 -360.524666 
L 584.594865 -362.878028 
L 587.571857 -365.555504 
L 590.54885 -368.513757 
L 593.525842 -371.735939 
L 596.502834 -375.178413 
L 599.479827 -378.815888 
L 602.456819 -382.607172 
L 605.433811 -386.518022 
L 608.410804 -390.511606 
L 611.387796 -394.541265 
L 614.364788 -398.565143 
L 617.341781 -402.556997 
L 620.318773 -406.49397 
L 623.295765 -410.336026 
L 626.272758 -414.060759 
L 629.24975 -417.648772 
L 632.226742 -421.08479 
L 635.203735 -424.353964 
L 638.180727 -427.447388 
L 641.157719 -430.364835 
L 644.134712 -433.093054 
L 647.111704 -435.643167 
L 650.088696 -438.01625 
L 653.065689 -440.204226 
L 656.042681 -442.217949 
L 659.019673 -444.068753 
L 661.996666 -445.747957 
L 664.973658 -447.273242 
L 667.95065 -448.654518 
L 670.927643 -449.889202 
L 673.904635 -451.003323 
L 676.881627 -451.999842 
L 679.85862 -452.884214 
L 682.835612 -453.670217 
L 685.812604 -454.36424 
L 688.789597 -454.976481 
L 691.766589 -455.511209 
L 694.743581 -455.976909 
L 697.720574 -456.376073 
L 700.697566 -456.707719 
L 703.674558 -456.979498 
L 706.651551 -457.200027 
L 709.628543 -457.376237 
L 712.605535 -457.510878 
L 715.582528 -457.61518 
L 718.55952 -457.691379 
L 721.536512 -457.746238 
L 724.513505 -457.767737 
L 727.490497 -457.775711 
L 730.467489 -457.768754 
L 733.444481 -457.752532 
L 736.421474 -457.739759 
L 739.398466 -457.72698 
L 742.375458 -457.711883 
L 745.352451 -457.707614 
L 748.329443 -457.719416 
L 751.306435 -457.752414 
L 754.283428 -457.806834 
L 757.26042 -457.887918 
L 760.237412 -457.989524 
L 763.214405 -458.11832 
L 766.191397 -458.27809 
L 769.168389 -458.467293 
L 772.145382 -458.69218 
L 775.122374 -458.955968 
L 778.099366 -459.247094 
L 781.076359 -459.587965 
L 784.053351 -459.970301 
L 787.030343 -460.412615 
L 790.007336 -460.887346 
L 792.984328 -461.411004 
L 795.96132 -461.984395 
L 798.938313 -462.608407 
L 801.915305 -463.283289 
L 804.892297 -464.011523 
L 807.86929 -464.789409 
L 810.846282 -465.628494 
L 813.823274 -466.526507 
L 816.800267 -467.472993 
L 819.777259 -468.480288 
L 822.754251 -469.550404 
L 825.731244 -470.678981 
L 828.708236 -471.86672 
L 831.685228 -473.108724 
L 834.662221 -474.403526 
L 837.639213 -475.747806 
L 840.616205 -477.14387 
L 843.593198 -478.582602 
L 846.57019 -480.078997 
L 849.547182 -481.618552 
L 852.524175 -483.185685 
L 855.501167 -484.800789 
L 858.478159 -486.446842 
L 861.455152 -488.122347 
L 864.432144 -489.827577 
L 867.409136 -491.561995 
L 870.386129 -493.325398 
L 873.363121 -495.093432 
L 876.340113 -496.878516 
L 879.317106 -498.674721 
L 882.294098 -500.472226 
L 885.27109 -502.270366 
L 888.248083 -504.06334 
L 891.225075 -505.855719 
L 894.202067 -507.636203 
L 897.17906 -509.394832 
L 900.156052 -511.134184 
L 903.133044 -512.857313 
L 906.110037 -514.542838 
L 909.087029 -516.199489 
L 912.064021 -517.822333 
L 915.041014 -519.41266 
L 918.018006 -520.967505 
L 920.994998 -522.507384 
L 923.971991 -523.990146 
L 926.948983 -525.427838 
L 929.925975 -526.824477 
L 932.902968 -528.177464 
L 935.87996 -529.48557 
L 938.856952 -530.751792 
L 941.833945 -531.973657 
L 944.810937 -533.152982 
L 947.787929 -534.265582 
L 950.764922 -535.345116 
L 953.741914 -536.372132 
L 956.718906 -537.364834 
L 959.695899 -538.302003 
L 962.672891 -539.19881 
L 965.649883 -540.045053 
L 968.626876 -540.858985 
L 971.603868 -541.631959 
L 974.58086 -542.350306 
L 977.557853 -543.011042 
L 980.534845 -543.649381 
L 983.511837 -544.25492 
L 986.48883 -544.833589 
L 989.465822 -545.374507 
L 992.442814 -545.861568 
L 995.419807 -546.314064 
L 998.396799 -546.761435 
L 1001.373791 -547.168746 
L 1004.350784 -547.532523 
L 1007.327776 -547.859023 
L 1010.304768 -548.162449 
L 1013.281761 -548.420895 
L 1016.258753 -548.662124 
L 1019.235745 -548.873222 
L 1022.212738 -549.07627 
L 1025.18973 -549.238301 
L 1028.166722 -549.377729 
L 1031.143715 -549.48811 
L 1034.120707 -549.576171 
L 1034.120707 -554.574745 
L 1034.120707 -554.574745 
L 1031.143715 -554.623022 
L 1028.166722 -554.64586 
L 1025.18973 -554.635946 
L 1022.212738 -554.600605 
L 1019.235745 -554.52204 
L 1016.258753 -554.433115 
L 1013.281761 -554.311864 
L 1010.304768 -554.171166 
L 1007.327776 -553.983623 
L 1004.350784 -553.770532 
L 1001.373791 -553.517444 
L 998.396799 -553.219313 
L 995.419807 -552.881185 
L 992.442814 -552.537048 
L 989.465822 -552.15573 
L 986.48883 -551.718242 
L 983.511837 -551.242834 
L 980.534845 -550.740938 
L 977.557853 -550.206523 
L 974.58086 -549.647734 
L 971.603868 -549.0271 
L 968.626876 -548.349575 
L 965.649883 -547.630879 
L 962.672891 -546.878562 
L 959.695899 -546.073093 
L 956.718906 -545.224404 
L 953.741914 -544.320143 
L 950.764922 -543.380898 
L 947.787929 -542.386921 
L 944.810937 -541.357262 
L 941.833945 -540.255121 
L 938.856952 -539.109824 
L 935.87996 -537.918662 
L 932.902968 -536.68438 
L 929.925975 -535.403054 
L 926.948983 -534.076339 
L 923.971991 -532.704689 
L 920.994998 -531.281687 
L 918.018006 -529.800939 
L 915.041014 -528.309131 
L 912.064021 -526.783277 
L 909.087029 -525.222748 
L 906.110037 -523.624 
L 903.133044 -521.990695 
L 900.156052 -520.317268 
L 897.17906 -518.626036 
L 894.202067 -516.910739 
L 891.225075 -515.169213 
L 888.248083 -513.417735 
L 885.27109 -511.663437 
L 882.294098 -509.900962 
L 879.317106 -508.135757 
L 876.340113 -506.369867 
L 873.363121 -504.613578 
L 870.386129 -502.870051 
L 867.409136 -501.126327 
L 864.432144 -499.415376 
L 861.455152 -497.736275 
L 858.478159 -496.085951 
L 855.501167 -494.461933 
L 852.524175 -492.867331 
L 849.547182 -491.31742 
L 846.57019 -489.790111 
L 843.593198 -488.308136 
L 840.616205 -486.883929 
L 837.639213 -485.499272 
L 834.662221 -484.165781 
L 831.685228 -482.878231 
L 828.708236 -481.640652 
L 825.731244 -480.45837 
L 822.754251 -479.337273 
L 819.777259 -478.276723 
L 816.800267 -477.283056 
L 813.823274 -476.347371 
L 810.846282 -475.460764 
L 807.86929 -474.636589 
L 804.892297 -473.874988 
L 801.915305 -473.161451 
L 798.938313 -472.502122 
L 795.96132 -471.894575 
L 792.984328 -471.33821 
L 790.007336 -470.833786 
L 787.030343 -470.375827 
L 784.053351 -469.951146 
L 781.076359 -469.59259 
L 778.099366 -469.280791 
L 775.122374 -469.018673 
L 772.145382 -468.784895 
L 769.168389 -468.593231 
L 766.191397 -468.439478 
L 763.214405 -468.317683 
L 760.237412 -468.229415 
L 757.26042 -468.168029 
L 754.283428 -468.127116 
L 751.306435 -468.113873 
L 748.329443 -468.120381 
L 745.352451 -468.14317 
L 742.375458 -468.172181 
L 739.398466 -468.205123 
L 736.421474 -468.235766 
L 733.444481 -468.271243 
L 730.467489 -468.315147 
L 727.490497 -468.351034 
L 724.513505 -468.375458 
L 721.536512 -468.387798 
L 718.55952 -468.366538 
L 715.582528 -468.327515 
L 712.605535 -468.262897 
L 709.628543 -468.169952 
L 706.651551 -468.036008 
L 703.674558 -467.859724 
L 700.697566 -467.632293 
L 697.720574 -467.342699 
L 694.743581 -466.983552 
L 691.766589 -466.558843 
L 688.789597 -466.062984 
L 685.812604 -465.490966 
L 682.835612 -464.838796 
L 679.85862 -464.096385 
L 676.881627 -463.257325 
L 673.904635 -462.307541 
L 670.927643 -461.24781 
L 667.95065 -460.075557 
L 664.973658 -458.756053 
L 661.996666 -457.30052 
L 659.019673 -455.693818 
L 656.042681 -453.91693 
L 653.065689 -451.989106 
L 650.088696 -449.883258 
L 647.111704 -447.596899 
L 644.134712 -445.143783 
L 641.157719 -442.514387 
L 638.180727 -439.695697 
L 635.203735 -436.706483 
L 632.226742 -433.53628 
L 629.24975 -430.198661 
L 626.272758 -426.706637 
L 623.295765 -423.067689 
L 620.318773 -419.299339 
L 617.341781 -415.427766 
L 614.364788 -411.496641 
L 611.387796 -407.51647 
L 608.410804 -403.511829 
L 605.433811 -399.536163 
L 602.456819 -395.636821 
L 599.479827 -391.846452 
L 596.502834 -388.199102 
L 593.525842 -384.735177 
L 590.54885 -381.481082 
L 587.571857 -378.483561 
L 584.594865 -375.761758 
L 581.617873 -373.358627 
L 578.64088 -371.284646 
L 575.663888 -369.55823 
L 572.686896 -368.187589 
L 569.709903 -367.170429 
L 566.732911 -366.512119 
L 563.755919 -366.208067 
L 560.778926 -366.241486 
L 557.801934 -366.596712 
L 554.824942 -367.250424 
L 551.847949 -368.184304 
L 548.870957 -369.381342 
L 545.893965 -370.816866 
L 542.916972 -372.472602 
L 539.93998 -374.322769 
L 536.962988 -376.347252 
L 533.985995 -378.525651 
L 531.009003 -380.833962 
L 528.032011 -383.260891 
L 525.055018 -385.790542 
L 522.078026 -388.399371 
L 519.101034 -391.089575 
L 516.124041 -393.838062 
L 513.147049 -396.634308 
L 510.170057 -399.468394 
L 507.193064 -402.333584 
L 504.216072 -405.217613 
L 501.23908 -408.12561 
L 498.262087 -411.038422 
L 495.285095 -413.957674 
L 492.308103 -416.877262 
L 489.33111 -419.791276 
L 486.354118 -422.705657 
L 483.377126 -425.612764 
L 480.400133 -428.505173 
L 477.423141 -431.390976 
L 474.446149 -434.275263 
L 471.469156 -437.139136 
L 468.492164 -439.993873 
L 465.515172 -442.837553 
L 462.538179 -445.674882 
L 459.561187 -448.501558 
L 456.584195 -451.326897 
L 453.607202 -454.135841 
L 450.63021 -456.939473 
L 447.653218 -459.742806 
L 444.676225 -462.546162 
L 441.699233 -465.345206 
L 438.722241 -468.135169 
L 435.745248 -470.891584 
L 432.768256 -473.627625 
L 429.791264 -476.33969 
L 426.814271 -479.03802 
L 423.837279 -481.717792 
L 420.860287 -484.374932 
L 417.883294 -487.015203 
L 414.906302 -489.638501 
L 411.92931 -492.237039 
L 408.952317 -494.818058 
L 405.975325 -497.377984 
L 402.998333 -499.916866 
L 400.02134 -502.4567 
L 397.044348 -504.97267 
L 394.067356 -507.470643 
L 391.090363 -509.94875 
L 388.113371 -512.403354 
L 385.136379 -514.846278 
L 382.159386 -517.259694 
L 379.182394 -519.648121 
L 376.205402 -522.01266 
L 373.228409 -524.338918 
L 370.251417 -526.644041 
L 367.274425 -528.902211 
L 364.297432 -531.130415 
L 361.32044 -533.322067 
L 358.343448 -535.464602 
L 355.366455 -537.550517 
L 352.389463 -539.570775 
L 349.412471 -541.532623 
L 346.435478 -543.416808 
L 343.458486 -545.214785 
L 340.481494 -546.929715 
L 337.504502 -548.561448 
L 334.527509 -550.093268 
L 331.550517 -551.524831 
L 328.573525 -552.879679 
L 325.596532 -554.124088 
L 322.61954 -555.301056 
L 319.642548 -556.380083 
L 316.665555 -557.356064 
L 313.688563 -558.218933 
L 310.711571 -558.944004 
L 307.734578 -559.504203 
L 304.757586 -559.828705 
L 301.780594 -559.930909 
L 298.803601 -559.776549 
L 295.826609 -559.377245 
L 292.849617 -558.77362 
z
" style="stroke: #00ffff; stroke-opacity: 0.5"/>
    </defs>
    <g clip-path="url(#peb1efa7e7d)">
     <use xlink:href="#m2edb5e2948" x="0" y="648" style="fill: #00ffff; fill-opacity: 0.5; stroke: #00ffff; stroke-opacity: 0.5"/>
    </g>
   </g>
   <g id="matplotlib.axis_1">
    <g id="xtick_1">
     <g id="line2d_1">
      <defs>
       <path id="m4ccf8076c4" d="M 0 0 
L 0 3.5 
" style="stroke: #000000; stroke-width: 0.8"/>
      </defs>
      <g>
       <use xlink:href="#m4ccf8076c4" x="144" y="304.56" style="stroke: #000000; stroke-width: 0.8"/>
      </g>
     </g>
     <g id="text_1">
      <!-- 0 -->
      <g transform="translate(140.81875 319.158437) scale(0.1 -0.1)">
       <defs>
        <path id="DejaVuSans-30" d="M 2034 4250 
Q 1547 4250 1301 3770 
Q 1056 3291 1056 2328 
Q 1056 1369 1301 889 
Q 1547 409 2034 409 
Q 2525 409 2770 889 
Q 3016 1369 3016 2328 
Q 3016 3291 2770 3770 
Q 2525 4250 2034 4250 
z
M 2034 4750 
Q 2819 4750 3233 4129 
Q 3647 3509 3647 2328 
Q 3647 1150 3233 529 
Q 2819 -91 2034 -91 
Q 1250 -91 836 529 
Q 422 1150 422 2328 
Q 422 3509 836 4129 
Q 1250 4750 2034 4750 
z
" transform="scale(0.015625)"/>
       </defs>
       <use xlink:href="#DejaVuSans-30"/>
      </g>
     </g>
    </g>
    <g id="xtick_2">
     <g id="line2d_2">
      <g>
       <use xlink:href="#m4ccf8076c4" x="292.849617" y="304.56" style="stroke: #000000; stroke-width: 0.8"/>
      </g>
     </g>
     <g id="text_2">
      <!-- 5 -->
      <g transform="translate(289.668367 319.158437) scale(0.1 -0.1)">
       <defs>
        <path id="DejaVuSans-35" d="M 691 4666 
L 3169 4666 
L 3169 4134 
L 1269 4134 
L 1269 2991 
Q 1406 3038 1543 3061 
Q 1681 3084 1819 3084 
Q 2600 3084 3056 2656 
Q 3513 2228 3513 1497 
Q 3513 744 3044 326 
Q 2575 -91 1722 -91 
Q 1428 -91 1123 -41 
Q 819 9 494 109 
L 494 744 
Q 775 591 1075 516 
Q 1375 441 1709 441 
Q 2250 441 2565 725 
Q 2881 1009 2881 1497 
Q 2881 1984 2565 2268 
Q 2250 2553 1709 2553 
Q 1456 2553 1204 2497 
Q 953 2441 691 2322 
L 691 4666 
z
" transform="scale(0.015625)"/>
       </defs>
       <use xlink:href="#DejaVuSans-35"/>
      </g>
     </g>
    </g>
    <g id="xtick_3">
     <g id="line2d_3">
      <g>
       <use xlink:href="#m4ccf8076c4" x="441.699233" y="304.56" style="stroke: #000000; stroke-width: 0.8"/>
      </g>
     </g>
     <g id="text_3">
      <!-- 10 -->
      <g transform="translate(435.336733 319.158437) scale(0.1 -0.1)">
       <defs>
        <path id="DejaVuSans-31" d="M 794 531 
L 1825 531 
L 1825 4091 
L 703 3866 
L 703 4441 
L 1819 4666 
L 2450 4666 
L 2450 531 
L 3481 531 
L 3481 0 
L 794 0 
L 794 531 
z
" transform="scale(0.015625)"/>
       </defs>
       <use xlink:href="#DejaVuSans-31"/>
       <use xlink:href="#DejaVuSans-30" x="63.623047"/>
      </g>
     </g>
    </g>
    <g id="xtick_4">
     <g id="line2d_4">
      <g>
       <use xlink:href="#m4ccf8076c4" x="590.54885" y="304.56" style="stroke: #000000; stroke-width: 0.8"/>
      </g>
     </g>
     <g id="text_4">
      <!-- 15 -->
      <g transform="translate(584.18635 319.158437) scale(0.1 -0.1)">
       <use xlink:href="#DejaVuSans-31"/>
       <use xlink:href="#DejaVuSans-35" x="63.623047"/>
      </g>
     </g>
    </g>
    <g id="xtick_5">
     <g id="line2d_5">
      <g>
       <use xlink:href="#m4ccf8076c4" x="739.398466" y="304.56" style="stroke: #000000; stroke-width: 0.8"/>
      </g>
     </g>
     <g id="text_5">
      <!-- 20 -->
      <g transform="translate(733.035966 319.158437) scale(0.1 -0.1)">
       <defs>
        <path id="DejaVuSans-32" d="M 1228 531 
L 3431 531 
L 3431 0 
L 469 0 
L 469 531 
Q 828 903 1448 1529 
Q 2069 2156 2228 2338 
Q 2531 2678 2651 2914 
Q 2772 3150 2772 3378 
Q 2772 3750 2511 3984 
Q 2250 4219 1831 4219 
Q 1534 4219 1204 4116 
Q 875 4013 500 3803 
L 500 4441 
Q 881 4594 1212 4672 
Q 1544 4750 1819 4750 
Q 2544 4750 2975 4387 
Q 3406 4025 3406 3419 
Q 3406 3131 3298 2873 
Q 3191 2616 2906 2266 
Q 2828 2175 2409 1742 
Q 1991 1309 1228 531 
z
" transform="scale(0.015625)"/>
       </defs>
       <use xlink:href="#DejaVuSans-32"/>
       <use xlink:href="#DejaVuSans-30" x="63.623047"/>
      </g>
     </g>
    </g>
    <g id="xtick_6">
     <g id="line2d_6">
      <g>
       <use xlink:href="#m4ccf8076c4" x="888.248083" y="304.56" style="stroke: #000000; stroke-width: 0.8"/>
      </g>
     </g>
     <g id="text_6">
      <!-- 25 -->
      <g transform="translate(881.885583 319.158437) scale(0.1 -0.1)">
       <use xlink:href="#DejaVuSans-32"/>
       <use xlink:href="#DejaVuSans-35" x="63.623047"/>
      </g>
     </g>
    </g>
   </g>
   <g id="matplotlib.axis_2">
    <g id="ytick_1">
     <g id="line2d_7">
      <defs>
       <path id="m67b6eb3a82" d="M 0 0 
L -3.5 0 
" style="stroke: #000000; stroke-width: 0.8"/>
      </defs>
      <g>
       <use xlink:href="#m67b6eb3a82" x="144" y="269.330218" style="stroke: #000000; stroke-width: 0.8"/>
      </g>
     </g>
     <g id="text_7">
      <!-- 1.0 -->
      <g transform="translate(121.096875 273.129437) scale(0.1 -0.1)">
       <defs>
        <path id="DejaVuSans-2e" d="M 684 794 
L 1344 794 
L 1344 0 
L 684 0 
L 684 794 
z
" transform="scale(0.015625)"/>
       </defs>
       <use xlink:href="#DejaVuSans-31"/>
       <use xlink:href="#DejaVuSans-2e" x="63.623047"/>
       <use xlink:href="#DejaVuSans-30" x="95.410156"/>
      </g>
     </g>
    </g>
    <g id="ytick_2">
     <g id="line2d_8">
      <g>
       <use xlink:href="#m67b6eb3a82" x="144" y="227.423941" style="stroke: #000000; stroke-width: 0.8"/>
      </g>
     </g>
     <g id="text_8">
      <!-- 1.5 -->
      <g transform="translate(121.096875 231.223159) scale(0.1 -0.1)">
       <use xlink:href="#DejaVuSans-31"/>
       <use xlink:href="#DejaVuSans-2e" x="63.623047"/>
       <use xlink:href="#DejaVuSans-35" x="95.410156"/>
      </g>
     </g>
    </g>
    <g id="ytick_3">
     <g id="line2d_9">
      <g>
       <use xlink:href="#m67b6eb3a82" x="144" y="185.517663" style="stroke: #000000; stroke-width: 0.8"/>
      </g>
     </g>
     <g id="text_9">
      <!-- 2.0 -->
      <g transform="translate(121.096875 189.316882) scale(0.1 -0.1)">
       <use xlink:href="#DejaVuSans-32"/>
       <use xlink:href="#DejaVuSans-2e" x="63.623047"/>
       <use xlink:href="#DejaVuSans-30" x="95.410156"/>
      </g>
     </g>
    </g>
    <g id="ytick_4">
     <g id="line2d_10">
      <g>
       <use xlink:href="#m67b6eb3a82" x="144" y="143.611386" style="stroke: #000000; stroke-width: 0.8"/>
      </g>
     </g>
     <g id="text_10">
      <!-- 2.5 -->
      <g transform="translate(121.096875 147.410604) scale(0.1 -0.1)">
       <use xlink:href="#DejaVuSans-32"/>
       <use xlink:href="#DejaVuSans-2e" x="63.623047"/>
       <use xlink:href="#DejaVuSans-35" x="95.410156"/>
      </g>
     </g>
    </g>
    <g id="ytick_5">
     <g id="line2d_11">
      <g>
       <use xlink:href="#m67b6eb3a82" x="144" y="101.705108" style="stroke: #000000; stroke-width: 0.8"/>
      </g>
     </g>
     <g id="text_11">
      <!-- 3.0 -->
      <g transform="translate(121.096875 105.504327) scale(0.1 -0.1)">
       <defs>
        <path id="DejaVuSans-33" d="M 2597 2516 
Q 3050 2419 3304 2112 
Q 3559 1806 3559 1356 
Q 3559 666 3084 287 
Q 2609 -91 1734 -91 
Q 1441 -91 1130 -33 
Q 819 25 488 141 
L 488 750 
Q 750 597 1062 519 
Q 1375 441 1716 441 
Q 2309 441 2620 675 
Q 2931 909 2931 1356 
Q 2931 1769 2642 2001 
Q 2353 2234 1838 2234 
L 1294 2234 
L 1294 2753 
L 1863 2753 
Q 2328 2753 2575 2939 
Q 2822 3125 2822 3475 
Q 2822 3834 2567 4026 
Q 2313 4219 1838 4219 
Q 1578 4219 1281 4162 
Q 984 4106 628 3988 
L 628 4550 
Q 988 4650 1302 4700 
Q 1616 4750 1894 4750 
Q 2613 4750 3031 4423 
Q 3450 4097 3450 3541 
Q 3450 3153 3228 2886 
Q 3006 2619 2597 2516 
z
" transform="scale(0.015625)"/>
       </defs>
       <use xlink:href="#DejaVuSans-33"/>
       <use xlink:href="#DejaVuSans-2e" x="63.623047"/>
       <use xlink:href="#DejaVuSans-30" x="95.410156"/>
      </g>
     </g>
    </g>
   </g>
   <g id="line2d_12">
    <path d="M 144 96.621024 
L 145.190797 96.720018 
L 146.381594 97.012028 
L 148.465488 97.831219 
L 152.633278 99.408309 
L 155.61027 100.280756 
L 158.884962 100.992088 
L 162.159653 101.478742 
L 166.029743 101.824068 
L 170.495232 101.987222 
L 175.258419 101.945949 
L 181.212404 101.642112 
L 188.059486 101.084139 
L 196.692764 100.147396 
L 205.92144 98.925856 
L 227.951184 95.762713 
L 237.17986 94.525449 
L 247.003935 93.429453 
L 254.148716 92.822158 
L 260.995799 92.45252 
L 266.949783 92.3312 
L 273.499166 92.423097 
L 278.857753 92.727372 
L 284.514038 93.251655 
L 289.872624 93.972607 
L 294.338113 94.578409 
L 295.52891 94.457354 
L 301.780594 93.310996 
L 304.459887 93.143969 
L 307.436879 93.211027 
L 310.116172 93.477959 
L 313.390864 94.048393 
L 316.963254 94.912395 
L 320.833344 96.083945 
L 324.703434 97.474679 
L 329.466622 99.433586 
L 333.932111 101.501137 
L 338.695298 103.922367 
L 343.756185 106.745212 
L 349.412471 110.162314 
L 355.664155 114.224122 
L 362.213538 118.748612 
L 370.549116 124.837033 
L 378.289296 130.752644 
L 387.220273 137.865162 
L 398.532844 147.202771 
L 410.738513 157.571289 
L 421.753384 167.171883 
L 433.363655 177.597723 
L 443.783128 187.228151 
L 470.278359 212.293122 
L 484.865622 226.39587 
L 504.216072 245.453088 
L 516.124041 257.052943 
L 523.864221 264.309459 
L 529.818206 269.587719 
L 534.879093 273.784928 
L 539.344582 277.202767 
L 543.214672 279.900353 
L 546.787062 282.128468 
L 550.061754 283.91339 
L 553.038746 285.298258 
L 556.015739 286.43277 
L 558.695032 287.224118 
L 561.374325 287.785174 
L 563.755919 288.077558 
L 566.137513 288.162604 
L 568.519106 288.030601 
L 570.9007 287.672322 
L 573.282294 287.085109 
L 575.663888 286.269818 
L 578.045482 285.228226 
L 580.427076 283.957288 
L 583.106369 282.255662 
L 585.785662 280.278001 
L 588.464955 278.033032 
L 591.441947 275.251801 
L 594.716639 271.871954 
L 598.28903 267.858348 
L 602.456819 262.814894 
L 607.517706 256.305649 
L 616.448683 244.331703 
L 624.486562 233.741185 
L 629.547449 227.440628 
L 634.012938 222.214429 
L 638.180727 217.667946 
L 642.348516 213.459541 
L 646.218606 209.873883 
L 650.088696 206.588816 
L 653.661087 203.821748 
L 657.531177 201.118323 
L 661.401267 198.693401 
L 665.271357 196.549328 
L 669.141447 194.659939 
L 673.309236 192.899013 
L 677.477026 191.378809 
L 681.644815 190.084451 
L 686.110303 188.919905 
L 691.17119 187.838988 
L 696.232077 186.983958 
L 701.590664 186.292565 
L 707.246949 185.790895 
L 713.796332 185.43284 
L 722.42961 185.206888 
L 731.360587 185.195681 
L 756.665022 185.293992 
L 766.191397 185.0355 
L 773.931577 184.602914 
L 781.374058 183.963944 
L 787.625742 183.208198 
L 794.770524 182.095614 
L 801.022207 180.896547 
L 807.273891 179.471258 
L 813.227876 177.894692 
L 819.47956 175.993622 
L 825.135845 174.051515 
L 831.08983 171.767019 
L 837.639213 169.003879 
L 844.188596 165.999852 
L 850.44028 162.907918 
L 858.478159 158.682498 
L 867.111437 153.878096 
L 877.233211 147.960878 
L 905.514638 131.31741 
L 913.552518 126.919212 
L 922.483494 122.296952 
L 929.330577 118.990324 
L 936.475358 115.792634 
L 943.62014 112.843765 
L 949.574125 110.605763 
L 955.825809 108.468415 
L 962.672891 106.345993 
L 969.519973 104.471097 
L 975.771657 102.955596 
L 982.916439 101.488007 
L 990.954318 100.048296 
L 998.0991 99.021671 
L 1005.243881 98.150999 
L 1012.686362 97.478864 
L 1021.617339 96.933325 
L 1029.357519 96.63553 
L 1036.8 96.524042 
L 1036.8 96.524042 
" clip-path="url(#peb1efa7e7d)" style="fill: none; stroke-dasharray: 5.55,2.4; stroke-dashoffset: 0; stroke: #ffa500; stroke-width: 1.5"/>
   </g>
   <g id="line2d_13">
    <path d="M 292.849617 93.773825 
L 295.826609 93.147062 
L 298.803601 92.684639 
L 301.780594 92.508948 
L 304.757586 92.610142 
L 307.734578 92.930596 
L 310.711571 93.484912 
L 313.688563 94.209495 
L 316.665555 95.083835 
L 319.642548 96.088991 
L 325.596532 98.459961 
L 331.550517 101.216479 
L 337.504502 104.33408 
L 343.458486 107.799735 
L 349.412471 111.549128 
L 355.366455 115.552649 
L 361.32044 119.771562 
L 370.251417 126.41903 
L 379.182394 133.395976 
L 388.113371 140.650782 
L 400.02134 150.621808 
L 414.906302 163.454816 
L 426.814271 174.077318 
L 438.722241 185.014731 
L 465.515172 210.374916 
L 480.400133 224.755342 
L 498.262087 242.344641 
L 513.147049 256.897683 
L 522.078026 265.242606 
L 528.032011 270.458597 
L 533.985995 275.277625 
L 536.962988 277.498539 
L 539.93998 279.568281 
L 542.916972 281.46347 
L 545.893965 283.164058 
L 548.870957 284.643432 
L 551.847949 285.882978 
L 554.824942 286.858526 
L 557.801934 287.552833 
L 560.778926 287.948589 
L 563.755919 288.021421 
L 566.732911 287.753428 
L 569.709903 287.127874 
L 572.686896 286.141454 
L 575.663888 284.801609 
L 578.64088 283.105257 
L 581.617873 281.058354 
L 584.594865 278.680107 
L 587.571857 275.980468 
L 590.54885 273.00258 
L 593.525842 269.764442 
L 596.502834 266.311243 
L 602.456819 258.878003 
L 608.410804 250.988282 
L 620.318773 235.103346 
L 626.272758 227.616302 
L 632.226742 220.689465 
L 635.203735 217.469777 
L 638.180727 214.428457 
L 641.157719 211.560389 
L 644.134712 208.881581 
L 647.111704 206.379967 
L 650.088696 204.050246 
L 653.065689 201.903334 
L 656.042681 199.93256 
L 659.019673 198.118715 
L 661.996666 196.475762 
L 664.973658 194.985353 
L 667.95065 193.634962 
L 673.904635 191.344568 
L 679.85862 189.5097 
L 685.812604 188.072397 
L 691.766589 186.964974 
L 697.720574 186.140614 
L 703.674558 185.580389 
L 709.628543 185.226905 
L 718.55952 184.971042 
L 727.490497 184.936627 
L 754.283428 185.033025 
L 763.214405 184.781998 
L 772.145382 184.261463 
L 781.076359 183.409723 
L 787.030343 182.605779 
L 792.984328 181.625393 
L 798.938313 180.444736 
L 804.892297 179.056745 
L 810.846282 177.455371 
L 816.800267 175.621976 
L 822.754251 173.556162 
L 828.708236 171.246314 
L 834.662221 168.715347 
L 840.616205 165.9861 
L 846.57019 163.065446 
L 855.501167 158.368639 
L 864.432144 153.378524 
L 876.340113 146.375808 
L 897.17906 133.989566 
L 906.110037 128.916581 
L 915.041014 124.139105 
L 923.971991 119.652583 
L 929.925975 116.886234 
L 935.87996 114.297884 
L 941.833945 111.885611 
L 947.787929 109.673748 
L 953.741914 107.653862 
L 959.695899 105.812452 
L 965.649883 104.162034 
L 971.603868 102.67047 
L 977.557853 101.391218 
L 986.48883 99.724085 
L 992.442814 98.800692 
L 1001.373791 97.656905 
L 1010.304768 96.833192 
L 1019.235745 96.302369 
L 1028.166722 95.988205 
L 1034.120707 95.924542 
L 1034.120707 95.924542 
" clip-path="url(#peb1efa7e7d)" style="fill: none; stroke: #0000ff; stroke-opacity: 0.5; stroke-width: 1.5; stroke-linecap: square"/>
   </g>
   <g id="patch_3">
    <path d="M 144 304.56 
L 144 77.76 
" style="fill: none; stroke: #000000; stroke-width: 0.8; stroke-linejoin: miter; stroke-linecap: square"/>
   </g>
   <g id="patch_4">
    <path d="M 1036.8 304.56 
L 1036.8 77.76 
" style="fill: none; stroke: #000000; stroke-width: 0.8; stroke-linejoin: miter; stroke-linecap: square"/>
   </g>
   <g id="patch_5">
    <path d="M 144 304.56 
L 1036.8 304.56 
" style="fill: none; stroke: #000000; stroke-width: 0.8; stroke-linejoin: miter; stroke-linecap: square"/>
   </g>
   <g id="patch_6">
    <path d="M 144 77.76 
L 1036.8 77.76 
" style="fill: none; stroke: #000000; stroke-width: 0.8; stroke-linejoin: miter; stroke-linecap: square"/>
   </g>
   <g id="legend_1">
    <g id="patch_7">
     <path d="M 151 299.56 
L 256.6 299.56 
Q 258.6 299.56 258.6 297.56 
L 258.6 254.481875 
Q 258.6 252.481875 256.6 252.481875 
L 151 252.481875 
Q 149 252.481875 149 254.481875 
L 149 297.56 
Q 149 299.56 151 299.56 
z
" style="fill: #ffffff; opacity: 0.8; stroke: #cccccc; stroke-linejoin: miter"/>
    </g>
    <g id="line2d_14">
     <path d="M 153 260.581875 
L 163 260.581875 
L 173 260.581875 
" style="fill: none; stroke-dasharray: 5.55,2.4; stroke-dashoffset: 0; stroke: #ffa500; stroke-width: 1.5"/>
    </g>
    <g id="text_12">
     <!-- Real $y$ Position -->
     <g transform="translate(181 264.081875) scale(0.1 -0.1)">
      <defs>
       <path id="DejaVuSans-52" d="M 2841 2188 
Q 3044 2119 3236 1894 
Q 3428 1669 3622 1275 
L 4263 0 
L 3584 0 
L 2988 1197 
Q 2756 1666 2539 1819 
Q 2322 1972 1947 1972 
L 1259 1972 
L 1259 0 
L 628 0 
L 628 4666 
L 2053 4666 
Q 2853 4666 3247 4331 
Q 3641 3997 3641 3322 
Q 3641 2881 3436 2590 
Q 3231 2300 2841 2188 
z
M 1259 4147 
L 1259 2491 
L 2053 2491 
Q 2509 2491 2742 2702 
Q 2975 2913 2975 3322 
Q 2975 3731 2742 3939 
Q 2509 4147 2053 4147 
L 1259 4147 
z
" transform="scale(0.015625)"/>
       <path id="DejaVuSans-65" d="M 3597 1894 
L 3597 1613 
L 953 1613 
Q 991 1019 1311 708 
Q 1631 397 2203 397 
Q 2534 397 2845 478 
Q 3156 559 3463 722 
L 3463 178 
Q 3153 47 2828 -22 
Q 2503 -91 2169 -91 
Q 1331 -91 842 396 
Q 353 884 353 1716 
Q 353 2575 817 3079 
Q 1281 3584 2069 3584 
Q 2775 3584 3186 3129 
Q 3597 2675 3597 1894 
z
M 3022 2063 
Q 3016 2534 2758 2815 
Q 2500 3097 2075 3097 
Q 1594 3097 1305 2825 
Q 1016 2553 972 2059 
L 3022 2063 
z
" transform="scale(0.015625)"/>
       <path id="DejaVuSans-61" d="M 2194 1759 
Q 1497 1759 1228 1600 
Q 959 1441 959 1056 
Q 959 750 1161 570 
Q 1363 391 1709 391 
Q 2188 391 2477 730 
Q 2766 1069 2766 1631 
L 2766 1759 
L 2194 1759 
z
M 3341 1997 
L 3341 0 
L 2766 0 
L 2766 531 
Q 2569 213 2275 61 
Q 1981 -91 1556 -91 
Q 1019 -91 701 211 
Q 384 513 384 1019 
Q 384 1609 779 1909 
Q 1175 2209 1959 2209 
L 2766 2209 
L 2766 2266 
Q 2766 2663 2505 2880 
Q 2244 3097 1772 3097 
Q 1472 3097 1187 3025 
Q 903 2953 641 2809 
L 641 3341 
Q 956 3463 1253 3523 
Q 1550 3584 1831 3584 
Q 2591 3584 2966 3190 
Q 3341 2797 3341 1997 
z
" transform="scale(0.015625)"/>
       <path id="DejaVuSans-6c" d="M 603 4863 
L 1178 4863 
L 1178 0 
L 603 0 
L 603 4863 
z
" transform="scale(0.015625)"/>
       <path id="DejaVuSans-20" transform="scale(0.015625)"/>
       <path id="DejaVuSans-Oblique-79" d="M 1588 -325 
Q 1188 -997 936 -1164 
Q 684 -1331 294 -1331 
L -159 -1331 
L -63 -850 
L 269 -850 
Q 509 -850 678 -719 
Q 847 -588 1056 -206 
L 1234 128 
L 459 3500 
L 1069 3500 
L 1650 819 
L 3256 3500 
L 3859 3500 
L 1588 -325 
z
" transform="scale(0.015625)"/>
       <path id="DejaVuSans-50" d="M 1259 4147 
L 1259 2394 
L 2053 2394 
Q 2494 2394 2734 2622 
Q 2975 2850 2975 3272 
Q 2975 3691 2734 3919 
Q 2494 4147 2053 4147 
L 1259 4147 
z
M 628 4666 
L 2053 4666 
Q 2838 4666 3239 4311 
Q 3641 3956 3641 3272 
Q 3641 2581 3239 2228 
Q 2838 1875 2053 1875 
L 1259 1875 
L 1259 0 
L 628 0 
L 628 4666 
z
" transform="scale(0.015625)"/>
       <path id="DejaVuSans-6f" d="M 1959 3097 
Q 1497 3097 1228 2736 
Q 959 2375 959 1747 
Q 959 1119 1226 758 
Q 1494 397 1959 397 
Q 2419 397 2687 759 
Q 2956 1122 2956 1747 
Q 2956 2369 2687 2733 
Q 2419 3097 1959 3097 
z
M 1959 3584 
Q 2709 3584 3137 3096 
Q 3566 2609 3566 1747 
Q 3566 888 3137 398 
Q 2709 -91 1959 -91 
Q 1206 -91 779 398 
Q 353 888 353 1747 
Q 353 2609 779 3096 
Q 1206 3584 1959 3584 
z
" transform="scale(0.015625)"/>
       <path id="DejaVuSans-73" d="M 2834 3397 
L 2834 2853 
Q 2591 2978 2328 3040 
Q 2066 3103 1784 3103 
Q 1356 3103 1142 2972 
Q 928 2841 928 2578 
Q 928 2378 1081 2264 
Q 1234 2150 1697 2047 
L 1894 2003 
Q 2506 1872 2764 1633 
Q 3022 1394 3022 966 
Q 3022 478 2636 193 
Q 2250 -91 1575 -91 
Q 1294 -91 989 -36 
Q 684 19 347 128 
L 347 722 
Q 666 556 975 473 
Q 1284 391 1588 391 
Q 1994 391 2212 530 
Q 2431 669 2431 922 
Q 2431 1156 2273 1281 
Q 2116 1406 1581 1522 
L 1381 1569 
Q 847 1681 609 1914 
Q 372 2147 372 2553 
Q 372 3047 722 3315 
Q 1072 3584 1716 3584 
Q 2034 3584 2315 3537 
Q 2597 3491 2834 3397 
z
" transform="scale(0.015625)"/>
       <path id="DejaVuSans-69" d="M 603 3500 
L 1178 3500 
L 1178 0 
L 603 0 
L 603 3500 
z
M 603 4863 
L 1178 4863 
L 1178 4134 
L 603 4134 
L 603 4863 
z
" transform="scale(0.015625)"/>
       <path id="DejaVuSans-74" d="M 1172 4494 
L 1172 3500 
L 2356 3500 
L 2356 3053 
L 1172 3053 
L 1172 1153 
Q 1172 725 1289 603 
Q 1406 481 1766 481 
L 2356 481 
L 2356 0 
L 1766 0 
Q 1100 0 847 248 
Q 594 497 594 1153 
L 594 3053 
L 172 3053 
L 172 3500 
L 594 3500 
L 594 4494 
L 1172 4494 
z
" transform="scale(0.015625)"/>
       <path id="DejaVuSans-6e" d="M 3513 2113 
L 3513 0 
L 2938 0 
L 2938 2094 
Q 2938 2591 2744 2837 
Q 2550 3084 2163 3084 
Q 1697 3084 1428 2787 
Q 1159 2491 1159 1978 
L 1159 0 
L 581 0 
L 581 3500 
L 1159 3500 
L 1159 2956 
Q 1366 3272 1645 3428 
Q 1925 3584 2291 3584 
Q 2894 3584 3203 3211 
Q 3513 2838 3513 2113 
z
" transform="scale(0.015625)"/>
      </defs>
      <use xlink:href="#DejaVuSans-52" transform="translate(0 0.015625)"/>
      <use xlink:href="#DejaVuSans-65" transform="translate(69.482422 0.015625)"/>
      <use xlink:href="#DejaVuSans-61" transform="translate(131.005859 0.015625)"/>
      <use xlink:href="#DejaVuSans-6c" transform="translate(192.285156 0.015625)"/>
      <use xlink:href="#DejaVuSans-20" transform="translate(220.068359 0.015625)"/>
      <use xlink:href="#DejaVuSans-Oblique-79" transform="translate(251.855469 0.015625)"/>
      <use xlink:href="#DejaVuSans-20" transform="translate(311.035156 0.015625)"/>
      <use xlink:href="#DejaVuSans-50" transform="translate(342.822266 0.015625)"/>
      <use xlink:href="#DejaVuSans-6f" transform="translate(403.125 0.015625)"/>
      <use xlink:href="#DejaVuSans-73" transform="translate(464.306641 0.015625)"/>
      <use xlink:href="#DejaVuSans-69" transform="translate(516.40625 0.015625)"/>
      <use xlink:href="#DejaVuSans-74" transform="translate(544.189453 0.015625)"/>
      <use xlink:href="#DejaVuSans-69" transform="translate(583.398438 0.015625)"/>
      <use xlink:href="#DejaVuSans-6f" transform="translate(611.181641 0.015625)"/>
      <use xlink:href="#DejaVuSans-6e" transform="translate(672.363281 0.015625)"/>
     </g>
    </g>
    <g id="line2d_15">
     <path d="M 153 275.281875 
L 163 275.281875 
L 173 275.281875 
" style="fill: none; stroke: #0000ff; stroke-opacity: 0.5; stroke-width: 1.5; stroke-linecap: square"/>
    </g>
    <g id="text_13">
     <!-- Prediction $y$ -->
     <g transform="translate(181 278.781875) scale(0.1 -0.1)">
      <defs>
       <path id="DejaVuSans-72" d="M 2631 2963 
Q 2534 3019 2420 3045 
Q 2306 3072 2169 3072 
Q 1681 3072 1420 2755 
Q 1159 2438 1159 1844 
L 1159 0 
L 581 0 
L 581 3500 
L 1159 3500 
L 1159 2956 
Q 1341 3275 1631 3429 
Q 1922 3584 2338 3584 
Q 2397 3584 2469 3576 
Q 2541 3569 2628 3553 
L 2631 2963 
z
" transform="scale(0.015625)"/>
       <path id="DejaVuSans-64" d="M 2906 2969 
L 2906 4863 
L 3481 4863 
L 3481 0 
L 2906 0 
L 2906 525 
Q 2725 213 2448 61 
Q 2172 -91 1784 -91 
Q 1150 -91 751 415 
Q 353 922 353 1747 
Q 353 2572 751 3078 
Q 1150 3584 1784 3584 
Q 2172 3584 2448 3432 
Q 2725 3281 2906 2969 
z
M 947 1747 
Q 947 1113 1208 752 
Q 1469 391 1925 391 
Q 2381 391 2643 752 
Q 2906 1113 2906 1747 
Q 2906 2381 2643 2742 
Q 2381 3103 1925 3103 
Q 1469 3103 1208 2742 
Q 947 2381 947 1747 
z
" transform="scale(0.015625)"/>
       <path id="DejaVuSans-63" d="M 3122 3366 
L 3122 2828 
Q 2878 2963 2633 3030 
Q 2388 3097 2138 3097 
Q 1578 3097 1268 2742 
Q 959 2388 959 1747 
Q 959 1106 1268 751 
Q 1578 397 2138 397 
Q 2388 397 2633 464 
Q 2878 531 3122 666 
L 3122 134 
Q 2881 22 2623 -34 
Q 2366 -91 2075 -91 
Q 1284 -91 818 406 
Q 353 903 353 1747 
Q 353 2603 823 3093 
Q 1294 3584 2113 3584 
Q 2378 3584 2631 3529 
Q 2884 3475 3122 3366 
z
" transform="scale(0.015625)"/>
      </defs>
      <use xlink:href="#DejaVuSans-50" transform="translate(0 0.015625)"/>
      <use xlink:href="#DejaVuSans-72" transform="translate(60.302734 0.015625)"/>
      <use xlink:href="#DejaVuSans-65" transform="translate(101.416016 0.015625)"/>
      <use xlink:href="#DejaVuSans-64" transform="translate(162.939453 0.015625)"/>
      <use xlink:href="#DejaVuSans-69" transform="translate(226.416016 0.015625)"/>
      <use xlink:href="#DejaVuSans-63" transform="translate(254.199219 0.015625)"/>
      <use xlink:href="#DejaVuSans-74" transform="translate(309.179688 0.015625)"/>
      <use xlink:href="#DejaVuSans-69" transform="translate(348.388672 0.015625)"/>
      <use xlink:href="#DejaVuSans-6f" transform="translate(376.171875 0.015625)"/>
      <use xlink:href="#DejaVuSans-6e" transform="translate(437.353516 0.015625)"/>
      <use xlink:href="#DejaVuSans-20" transform="translate(500.732422 0.015625)"/>
      <use xlink:href="#DejaVuSans-Oblique-79" transform="translate(532.519531 0.015625)"/>
     </g>
    </g>
    <g id="patch_8">
     <path d="M 153 293.480313 
L 173 293.480313 
L 173 286.480313 
L 153 286.480313 
z
" style="fill: #00ffff; fill-opacity: 0.5; stroke: #00ffff; stroke-opacity: 0.5; stroke-linejoin: miter"/>
    </g>
    <g id="text_14">
     <!-- Confidence -->
     <g transform="translate(181 293.480313) scale(0.1 -0.1)">
      <defs>
       <path id="DejaVuSans-43" d="M 4122 4306 
L 4122 3641 
Q 3803 3938 3442 4084 
Q 3081 4231 2675 4231 
Q 1875 4231 1450 3742 
Q 1025 3253 1025 2328 
Q 1025 1406 1450 917 
Q 1875 428 2675 428 
Q 3081 428 3442 575 
Q 3803 722 4122 1019 
L 4122 359 
Q 3791 134 3420 21 
Q 3050 -91 2638 -91 
Q 1578 -91 968 557 
Q 359 1206 359 2328 
Q 359 3453 968 4101 
Q 1578 4750 2638 4750 
Q 3056 4750 3426 4639 
Q 3797 4528 4122 4306 
z
" transform="scale(0.015625)"/>
       <path id="DejaVuSans-66" d="M 2375 4863 
L 2375 4384 
L 1825 4384 
Q 1516 4384 1395 4259 
Q 1275 4134 1275 3809 
L 1275 3500 
L 2222 3500 
L 2222 3053 
L 1275 3053 
L 1275 0 
L 697 0 
L 697 3053 
L 147 3053 
L 147 3500 
L 697 3500 
L 697 3744 
Q 697 4328 969 4595 
Q 1241 4863 1831 4863 
L 2375 4863 
z
" transform="scale(0.015625)"/>
      </defs>
      <use xlink:href="#DejaVuSans-43"/>
      <use xlink:href="#DejaVuSans-6f" x="69.824219"/>
      <use xlink:href="#DejaVuSans-6e" x="131.005859"/>
      <use xlink:href="#DejaVuSans-66" x="194.384766"/>
      <use xlink:href="#DejaVuSans-69" x="229.589844"/>
      <use xlink:href="#DejaVuSans-64" x="257.373047"/>
      <use xlink:href="#DejaVuSans-65" x="320.849609"/>
      <use xlink:href="#DejaVuSans-6e" x="382.373047"/>
      <use xlink:href="#DejaVuSans-63" x="445.751953"/>
      <use xlink:href="#DejaVuSans-65" x="500.732422"/>
     </g>
    </g>
   </g>
  </g>
  <g id="axes_2">
   <g id="patch_9">
    <path d="M 144 576.72 
L 1036.8 576.72 
L 1036.8 349.92 
L 144 349.92 
z
" style="fill: #ffffff"/>
   </g>
   <g id="matplotlib.axis_3">
    <g id="xtick_7">
     <g id="line2d_16">
      <g>
       <use xlink:href="#m4ccf8076c4" x="144" y="576.72" style="stroke: #000000; stroke-width: 0.8"/>
      </g>
     </g>
     <g id="text_15">
      <!-- 0 -->
      <g transform="translate(140.81875 591.318438) scale(0.1 -0.1)">
       <use xlink:href="#DejaVuSans-30"/>
      </g>
     </g>
    </g>
    <g id="xtick_8">
     <g id="line2d_17">
      <g>
       <use xlink:href="#m4ccf8076c4" x="292.849617" y="576.72" style="stroke: #000000; stroke-width: 0.8"/>
      </g>
     </g>
     <g id="text_16">
      <!-- 5 -->
      <g transform="translate(289.668367 591.318438) scale(0.1 -0.1)">
       <use xlink:href="#DejaVuSans-35"/>
      </g>
     </g>
    </g>
    <g id="xtick_9">
     <g id="line2d_18">
      <g>
       <use xlink:href="#m4ccf8076c4" x="441.699233" y="576.72" style="stroke: #000000; stroke-width: 0.8"/>
      </g>
     </g>
     <g id="text_17">
      <!-- 10 -->
      <g transform="translate(435.336733 591.318438) scale(0.1 -0.1)">
       <use xlink:href="#DejaVuSans-31"/>
       <use xlink:href="#DejaVuSans-30" x="63.623047"/>
      </g>
     </g>
    </g>
    <g id="xtick_10">
     <g id="line2d_19">
      <g>
       <use xlink:href="#m4ccf8076c4" x="590.54885" y="576.72" style="stroke: #000000; stroke-width: 0.8"/>
      </g>
     </g>
     <g id="text_18">
      <!-- 15 -->
      <g transform="translate(584.18635 591.318438) scale(0.1 -0.1)">
       <use xlink:href="#DejaVuSans-31"/>
       <use xlink:href="#DejaVuSans-35" x="63.623047"/>
      </g>
     </g>
    </g>
    <g id="xtick_11">
     <g id="line2d_20">
      <g>
       <use xlink:href="#m4ccf8076c4" x="739.398466" y="576.72" style="stroke: #000000; stroke-width: 0.8"/>
      </g>
     </g>
     <g id="text_19">
      <!-- 20 -->
      <g transform="translate(733.035966 591.318438) scale(0.1 -0.1)">
       <use xlink:href="#DejaVuSans-32"/>
       <use xlink:href="#DejaVuSans-30" x="63.623047"/>
      </g>
     </g>
    </g>
    <g id="xtick_12">
     <g id="line2d_21">
      <g>
       <use xlink:href="#m4ccf8076c4" x="888.248083" y="576.72" style="stroke: #000000; stroke-width: 0.8"/>
      </g>
     </g>
     <g id="text_20">
      <!-- 25 -->
      <g transform="translate(881.885583 591.318438) scale(0.1 -0.1)">
       <use xlink:href="#DejaVuSans-32"/>
       <use xlink:href="#DejaVuSans-35" x="63.623047"/>
      </g>
     </g>
    </g>
   </g>
   <g id="matplotlib.axis_4">
    <g id="ytick_6">
     <g id="line2d_22">
      <g>
       <use xlink:href="#m67b6eb3a82" x="144" y="542.160487" style="stroke: #000000; stroke-width: 0.8"/>
      </g>
     </g>
     <g id="text_21">
      <!-- −0.04 -->
      <g transform="translate(106.354687 545.959706) scale(0.1 -0.1)">
       <defs>
        <path id="DejaVuSans-2212" d="M 678 2272 
L 4684 2272 
L 4684 1741 
L 678 1741 
L 678 2272 
z
" transform="scale(0.015625)"/>
        <path id="DejaVuSans-34" d="M 2419 4116 
L 825 1625 
L 2419 1625 
L 2419 4116 
z
M 2253 4666 
L 3047 4666 
L 3047 1625 
L 3713 1625 
L 3713 1100 
L 3047 1100 
L 3047 0 
L 2419 0 
L 2419 1100 
L 313 1100 
L 313 1709 
L 2253 4666 
z
" transform="scale(0.015625)"/>
       </defs>
       <use xlink:href="#DejaVuSans-2212"/>
       <use xlink:href="#DejaVuSans-30" x="83.789062"/>
       <use xlink:href="#DejaVuSans-2e" x="147.412109"/>
       <use xlink:href="#DejaVuSans-30" x="179.199219"/>
       <use xlink:href="#DejaVuSans-34" x="242.822266"/>
      </g>
     </g>
    </g>
    <g id="ytick_7">
     <g id="line2d_23">
      <g>
       <use xlink:href="#m67b6eb3a82" x="144" y="492.357975" style="stroke: #000000; stroke-width: 0.8"/>
      </g>
     </g>
     <g id="text_22">
      <!-- −0.02 -->
      <g transform="translate(106.354687 496.157194) scale(0.1 -0.1)">
       <use xlink:href="#DejaVuSans-2212"/>
       <use xlink:href="#DejaVuSans-30" x="83.789062"/>
       <use xlink:href="#DejaVuSans-2e" x="147.412109"/>
       <use xlink:href="#DejaVuSans-30" x="179.199219"/>
       <use xlink:href="#DejaVuSans-32" x="242.822266"/>
      </g>
     </g>
    </g>
    <g id="ytick_8">
     <g id="line2d_24">
      <g>
       <use xlink:href="#m67b6eb3a82" x="144" y="442.555463" style="stroke: #000000; stroke-width: 0.8"/>
      </g>
     </g>
     <g id="text_23">
      <!-- 0.00 -->
      <g transform="translate(114.734375 446.354682) scale(0.1 -0.1)">
       <use xlink:href="#DejaVuSans-30"/>
       <use xlink:href="#DejaVuSans-2e" x="63.623047"/>
       <use xlink:href="#DejaVuSans-30" x="95.410156"/>
       <use xlink:href="#DejaVuSans-30" x="159.033203"/>
      </g>
     </g>
    </g>
    <g id="ytick_9">
     <g id="line2d_25">
      <g>
       <use xlink:href="#m67b6eb3a82" x="144" y="392.752951" style="stroke: #000000; stroke-width: 0.8"/>
      </g>
     </g>
     <g id="text_24">
      <!-- 0.02 -->
      <g transform="translate(114.734375 396.55217) scale(0.1 -0.1)">
       <use xlink:href="#DejaVuSans-30"/>
       <use xlink:href="#DejaVuSans-2e" x="63.623047"/>
       <use xlink:href="#DejaVuSans-30" x="95.410156"/>
       <use xlink:href="#DejaVuSans-32" x="159.033203"/>
      </g>
     </g>
    </g>
   </g>
   <g id="line2d_26">
    <path d="M 144 463.08223 
L 173.769923 479.703182 
L 203.539847 474.740118 
L 233.30977 466.384811 
L 263.079693 458.299638 
L 292.849617 451.470056 
L 322.61954 444.917137 
L 352.389463 439.650038 
L 382.159386 435.063777 
L 411.92931 430.998553 
L 441.699233 427.136138 
L 471.469156 423.670611 
L 501.23908 420.837978 
L 531.009003 417.482596 
L 560.778926 414.689523 
L 620.318773 408.710524 
L 650.088696 406.105379 
L 739.398466 399.138117 
L 828.708236 393.333468 
L 858.478159 391.696639 
L 1007.327776 384.786798 
L 1096.637546 381.400855 
L 1153 379.876693 
L 1153 379.876693 
" clip-path="url(#pa7883c2838)" style="fill: none; stroke: #1f77b4; stroke-width: 1.5; stroke-linecap: square"/>
   </g>
   <g id="patch_10">
    <path d="M 144 576.72 
L 144 349.92 
" style="fill: none; stroke: #000000; stroke-width: 0.8; stroke-linejoin: miter; stroke-linecap: square"/>
   </g>
   <g id="patch_11">
    <path d="M 1036.8 576.72 
L 1036.8 349.92 
" style="fill: none; stroke: #000000; stroke-width: 0.8; stroke-linejoin: miter; stroke-linecap: square"/>
   </g>
   <g id="patch_12">
    <path d="M 144 576.72 
L 1036.8 576.72 
" style="fill: none; stroke: #000000; stroke-width: 0.8; stroke-linejoin: miter; stroke-linecap: square"/>
   </g>
   <g id="patch_13">
    <path d="M 144 349.92 
L 1036.8 349.92 
" style="fill: none; stroke: #000000; stroke-width: 0.8; stroke-linejoin: miter; stroke-linecap: square"/>
   </g>
   <g id="legend_2">
    <g id="patch_14">
     <path d="M 920.578125 372.598125 
L 1029.8 372.598125 
Q 1031.8 372.598125 1031.8 370.598125 
L 1031.8 356.92 
Q 1031.8 354.92 1029.8 354.92 
L 920.578125 354.92 
Q 918.578125 354.92 918.578125 356.92 
L 918.578125 370.598125 
Q 918.578125 372.598125 920.578125 372.598125 
z
" style="fill: #ffffff; opacity: 0.8; stroke: #cccccc; stroke-linejoin: miter"/>
    </g>
    <g id="line2d_27">
     <path d="M 922.578125 363.018437 
L 932.578125 363.018437 
L 942.578125 363.018437 
" style="fill: none; stroke: #1f77b4; stroke-width: 1.5; stroke-linecap: square"/>
    </g>
    <g id="text_25">
     <!-- Prediction Error -->
     <g transform="translate(950.578125 366.518437) scale(0.1 -0.1)">
      <defs>
       <path id="DejaVuSans-45" d="M 628 4666 
L 3578 4666 
L 3578 4134 
L 1259 4134 
L 1259 2753 
L 3481 2753 
L 3481 2222 
L 1259 2222 
L 1259 531 
L 3634 531 
L 3634 0 
L 628 0 
L 628 4666 
z
" transform="scale(0.015625)"/>
      </defs>
      <use xlink:href="#DejaVuSans-50"/>
      <use xlink:href="#DejaVuSans-72" x="58.552734"/>
      <use xlink:href="#DejaVuSans-65" x="97.416016"/>
      <use xlink:href="#DejaVuSans-64" x="158.939453"/>
      <use xlink:href="#DejaVuSans-69" x="222.416016"/>
      <use xlink:href="#DejaVuSans-63" x="250.199219"/>
      <use xlink:href="#DejaVuSans-74" x="305.179688"/>
      <use xlink:href="#DejaVuSans-69" x="344.388672"/>
      <use xlink:href="#DejaVuSans-6f" x="372.171875"/>
      <use xlink:href="#DejaVuSans-6e" x="433.353516"/>
      <use xlink:href="#DejaVuSans-20" x="496.732422"/>
      <use xlink:href="#DejaVuSans-45" x="528.519531"/>
      <use xlink:href="#DejaVuSans-72" x="591.703125"/>
      <use xlink:href="#DejaVuSans-72" x="631.066406"/>
      <use xlink:href="#DejaVuSans-6f" x="669.929688"/>
      <use xlink:href="#DejaVuSans-72" x="731.111328"/>
     </g>
    </g>
   </g>
  </g>
  <g id="text_26">
   <!-- $y$-Position Prediction -->
   <g transform="translate(514.74 22.08) scale(0.12 -0.12)">
    <defs>
     <path id="DejaVuSans-2d" d="M 313 2009 
L 1997 2009 
L 1997 1497 
L 313 1497 
L 313 2009 
z
" transform="scale(0.015625)"/>
    </defs>
    <use xlink:href="#DejaVuSans-Oblique-79" transform="translate(0 0.015625)"/>
    <use xlink:href="#DejaVuSans-2d" transform="translate(59.179688 0.015625)"/>
    <use xlink:href="#DejaVuSans-50" transform="translate(95.263672 0.015625)"/>
    <use xlink:href="#DejaVuSans-6f" transform="translate(155.566406 0.015625)"/>
    <use xlink:href="#DejaVuSans-73" transform="translate(216.748047 0.015625)"/>
    <use xlink:href="#DejaVuSans-69" transform="translate(268.847656 0.015625)"/>
    <use xlink:href="#DejaVuSans-74" transform="translate(296.630859 0.015625)"/>
    <use xlink:href="#DejaVuSans-69" transform="translate(335.839844 0.015625)"/>
    <use xlink:href="#DejaVuSans-6f" transform="translate(363.623047 0.015625)"/>
    <use xlink:href="#DejaVuSans-6e" transform="translate(424.804688 0.015625)"/>
    <use xlink:href="#DejaVuSans-20" transform="translate(488.183594 0.015625)"/>
    <use xlink:href="#DejaVuSans-50" transform="translate(519.970703 0.015625)"/>
    <use xlink:href="#DejaVuSans-72" transform="translate(580.273438 0.015625)"/>
    <use xlink:href="#DejaVuSans-65" transform="translate(621.386719 0.015625)"/>
    <use xlink:href="#DejaVuSans-64" transform="translate(682.910156 0.015625)"/>
    <use xlink:href="#DejaVuSans-69" transform="translate(746.386719 0.015625)"/>
    <use xlink:href="#DejaVuSans-63" transform="translate(774.169922 0.015625)"/>
    <use xlink:href="#DejaVuSans-74" transform="translate(829.150391 0.015625)"/>
    <use xlink:href="#DejaVuSans-69" transform="translate(868.359375 0.015625)"/>
    <use xlink:href="#DejaVuSans-6f" transform="translate(896.142578 0.015625)"/>
    <use xlink:href="#DejaVuSans-6e" transform="translate(957.324219 0.015625)"/>
   </g>
  </g>
 </g>
 <defs>
  <clipPath id="peb1efa7e7d">
   <rect x="144" y="77.76" width="892.8" height="226.8"/>
  </clipPath>
  <clipPath id="pa7883c2838">
   <rect x="144" y="349.92" width="892.8" height="226.8"/>
  </clipPath>
 </defs>
</svg>
