<?xml version="1.0" encoding="utf-8" standalone="no"?>
<!DOCTYPE svg PUBLIC "-//W3C//DTD SVG 1.1//EN"
  "http://www.w3.org/Graphics/SVG/1.1/DTD/svg11.dtd">
<svg xmlns:xlink="http://www.w3.org/1999/xlink" width="1152pt" height="648pt" viewBox="0 0 1152 648" xmlns="http://www.w3.org/2000/svg" version="1.1">
 <metadata>
  <rdf:RDF xmlns:dc="http://purl.org/dc/elements/1.1/" xmlns:cc="http://creativecommons.org/ns#" xmlns:rdf="http://www.w3.org/1999/02/22-rdf-syntax-ns#">
   <cc:Work>
    <dc:type rdf:resource="http://purl.org/dc/dcmitype/StillImage"/>
    <dc:date>2024-06-19T20:44:58.703419</dc:date>
    <dc:format>image/svg+xml</dc:format>
    <dc:creator>
     <cc:Agent>
      <dc:title>Matplotlib v3.9.0, https://matplotlib.org/</dc:title>
     </cc:Agent>
    </dc:creator>
   </cc:Work>
  </rdf:RDF>
 </metadata>
 <defs>
  <style type="text/css">*{stroke-linejoin: round; stroke-linecap: butt}</style>
 </defs>
 <g id="figure_1">
  <g id="patch_1">
   <path d="M 0 648 
L 1152 648 
L 1152 0 
L 0 0 
z
" style="fill: #ffffff"/>
  </g>
  <g id="axes_1">
   <g id="patch_2">
    <path d="M 144 304.56 
L 1036.8 304.56 
L 1036.8 77.76 
L 144 77.76 
z
" style="fill: #ffffff"/>
   </g>
   <g id="PolyCollection_1">
    <defs>
     <path id="m512cd1d433" d="M 292.849617 -416.912949 
L 292.849617 -408.119977 
L 295.826609 -410.087624 
L 298.803601 -412.007669 
L 301.780594 -413.898484 
L 304.757586 -415.761905 
L 307.734578 -417.590626 
L 310.711571 -419.385416 
L 313.688563 -421.133648 
L 316.665555 -422.844484 
L 319.642548 -424.50891 
L 322.61954 -426.12605 
L 325.596532 -427.691281 
L 328.573525 -429.198759 
L 331.550517 -430.663354 
L 334.527509 -432.061869 
L 337.504502 -433.417893 
L 340.481494 -434.720724 
L 343.458486 -435.973422 
L 346.435478 -437.162517 
L 349.412471 -438.297401 
L 352.389463 -439.381217 
L 355.366455 -440.415954 
L 358.343448 -441.391367 
L 361.32044 -442.307677 
L 364.297432 -443.177785 
L 367.274425 -443.990718 
L 370.251417 -444.741685 
L 373.228409 -445.452437 
L 376.205402 -446.107651 
L 379.182394 -446.706549 
L 382.159386 -447.251358 
L 385.136379 -447.752482 
L 388.113371 -448.204783 
L 391.090363 -448.605369 
L 394.067356 -448.967265 
L 397.044348 -449.285108 
L 400.02134 -449.566145 
L 402.998333 -449.805149 
L 405.975325 -450.006836 
L 408.952317 -450.176661 
L 411.92931 -450.311866 
L 414.906302 -450.413763 
L 417.883294 -450.485366 
L 420.860287 -450.536412 
L 423.837279 -450.565366 
L 426.814271 -450.583571 
L 429.791264 -450.586659 
L 432.768256 -450.570496 
L 435.745248 -450.555645 
L 438.722241 -450.527878 
L 441.699233 -450.496647 
L 444.676225 -450.467583 
L 447.653218 -450.447152 
L 450.63021 -450.449759 
L 453.607202 -450.465577 
L 456.584195 -450.499537 
L 459.561187 -450.557399 
L 462.538179 -450.643658 
L 465.515172 -450.758588 
L 468.492164 -450.907829 
L 471.469156 -451.103252 
L 474.446149 -451.350492 
L 477.423141 -451.644266 
L 480.400133 -451.983527 
L 483.377126 -452.389709 
L 486.354118 -452.857361 
L 489.33111 -453.398487 
L 492.308103 -454.015071 
L 495.285095 -454.719722 
L 498.262087 -455.514753 
L 501.23908 -456.410873 
L 504.216072 -457.413402 
L 507.193064 -458.52879 
L 510.170057 -459.767609 
L 513.147049 -461.132811 
L 516.124041 -462.644125 
L 519.101034 -464.290348 
L 522.078026 -466.087534 
L 525.055018 -468.034412 
L 528.032011 -470.128792 
L 531.009003 -472.38745 
L 533.985995 -474.79981 
L 536.962988 -477.3854 
L 539.93998 -480.118508 
L 542.916972 -483.017638 
L 545.893965 -486.072236 
L 548.870957 -489.271625 
L 551.847949 -492.614502 
L 554.824942 -496.065396 
L 557.801934 -499.604857 
L 560.778926 -503.229035 
L 563.755919 -506.922296 
L 566.732911 -510.629667 
L 569.709903 -514.332678 
L 572.686896 -517.992931 
L 575.663888 -521.588415 
L 578.64088 -525.083268 
L 581.617873 -528.434087 
L 584.594865 -531.597666 
L 587.571857 -534.534007 
L 590.54885 -537.2122 
L 593.525842 -539.62316 
L 596.502834 -541.747764 
L 599.479827 -543.548796 
L 602.456819 -545.037551 
L 605.433811 -546.187051 
L 608.410804 -547.022393 
L 611.387796 -547.507297 
L 614.364788 -547.660311 
L 617.341781 -547.525803 
L 620.318773 -547.064173 
L 623.295765 -546.316278 
L 626.272758 -545.292692 
L 629.24975 -544.001091 
L 632.226742 -542.484918 
L 635.203735 -540.765301 
L 638.180727 -538.856601 
L 641.157719 -536.749846 
L 644.134712 -534.489129 
L 647.111704 -532.113492 
L 650.088696 -529.61109 
L 653.065689 -527.035655 
L 656.042681 -524.395798 
L 659.019673 -521.71734 
L 661.996666 -518.969366 
L 664.973658 -516.175993 
L 667.95065 -513.361143 
L 670.927643 -510.525225 
L 673.904635 -507.663215 
L 676.881627 -504.804257 
L 679.85862 -501.955411 
L 682.835612 -499.114809 
L 685.812604 -496.291439 
L 688.789597 -493.480605 
L 691.766589 -490.679674 
L 694.743581 -487.887478 
L 697.720574 -485.123684 
L 700.697566 -482.387333 
L 703.674558 -479.6709 
L 706.651551 -476.954491 
L 709.628543 -474.239382 
L 712.605535 -471.536927 
L 715.582528 -468.835304 
L 718.55952 -466.147411 
L 721.536512 -463.467006 
L 724.513505 -460.810668 
L 727.490497 -458.148378 
L 730.467489 -455.500662 
L 733.444481 -452.859451 
L 736.421474 -450.213414 
L 739.398466 -447.572321 
L 742.375458 -444.936022 
L 745.352451 -442.325752 
L 748.329443 -439.743144 
L 751.306435 -437.192136 
L 754.283428 -434.668361 
L 757.26042 -432.166394 
L 760.237412 -429.672276 
L 763.214405 -427.20317 
L 766.191397 -424.756698 
L 769.168389 -422.31923 
L 772.145382 -419.909192 
L 775.122374 -417.516093 
L 778.099366 -415.147345 
L 781.076359 -412.794627 
L 784.053351 -410.462882 
L 787.030343 -408.148435 
L 790.007336 -405.856804 
L 792.984328 -403.580377 
L 795.96132 -401.330293 
L 798.938313 -399.099642 
L 801.915305 -396.899323 
L 804.892297 -394.732728 
L 807.86929 -392.597918 
L 810.846282 -390.499146 
L 813.823274 -388.432432 
L 816.800267 -386.403475 
L 819.777259 -384.415552 
L 822.754251 -382.465751 
L 825.731244 -380.577296 
L 828.708236 -378.734423 
L 831.685228 -376.93927 
L 834.662221 -375.198069 
L 837.639213 -373.515383 
L 840.616205 -371.887455 
L 843.593198 -370.313256 
L 846.57019 -368.803265 
L 849.547182 -367.361413 
L 852.524175 -365.987858 
L 855.501167 -364.681321 
L 858.478159 -363.440793 
L 861.455152 -362.277439 
L 864.432144 -361.186662 
L 867.409136 -360.172923 
L 870.386129 -359.23513 
L 873.363121 -358.374486 
L 876.340113 -357.590921 
L 879.317106 -356.873641 
L 882.294098 -356.234583 
L 885.27109 -355.674004 
L 888.248083 -355.187213 
L 891.225075 -354.777872 
L 894.202067 -354.440494 
L 897.17906 -354.170259 
L 900.156052 -353.972639 
L 903.133044 -353.836923 
L 906.110037 -353.762069 
L 909.087029 -353.749091 
L 912.064021 -353.79497 
L 915.041014 -353.892723 
L 918.018006 -354.038917 
L 920.994998 -354.235082 
L 923.971991 -354.474091 
L 926.948983 -354.754591 
L 929.925975 -355.069685 
L 932.902968 -355.421229 
L 935.87996 -355.803622 
L 938.856952 -356.210703 
L 941.833945 -356.64056 
L 944.810937 -357.088119 
L 947.787929 -357.554624 
L 950.764922 -358.031776 
L 953.741914 -358.525828 
L 956.718906 -359.023045 
L 959.695899 -359.530398 
L 962.672891 -360.038282 
L 965.649883 -360.543245 
L 968.626876 -361.046667 
L 971.603868 -361.541591 
L 974.58086 -362.031822 
L 977.557853 -362.509674 
L 980.534845 -362.979646 
L 983.511837 -363.4387 
L 986.48883 -363.878643 
L 989.465822 -364.300788 
L 992.442814 -364.707719 
L 995.419807 -365.095977 
L 998.396799 -365.462288 
L 1001.373791 -365.808354 
L 1004.350784 -366.135725 
L 1007.327776 -366.438436 
L 1010.304768 -366.714388 
L 1013.281761 -366.968969 
L 1016.258753 -367.199534 
L 1019.235745 -367.404017 
L 1022.212738 -367.587214 
L 1025.18973 -367.742521 
L 1028.166722 -367.870744 
L 1031.143715 -367.974092 
L 1034.120707 -368.051135 
L 1034.120707 -372.824465 
L 1034.120707 -372.824465 
L 1031.143715 -372.878598 
L 1028.166722 -372.903771 
L 1025.18973 -372.900392 
L 1022.212738 -372.866408 
L 1019.235745 -372.801191 
L 1016.258753 -372.713861 
L 1013.281761 -372.598009 
L 1010.304768 -372.456617 
L 1007.327776 -372.292391 
L 1004.350784 -372.097799 
L 1001.373791 -371.876869 
L 998.396799 -371.637295 
L 995.419807 -371.376498 
L 992.442814 -371.091379 
L 989.465822 -370.787489 
L 986.48883 -370.467034 
L 983.511837 -370.12619 
L 980.534845 -369.763954 
L 977.557853 -369.391398 
L 974.58086 -369.009824 
L 971.603868 -368.614016 
L 968.626876 -368.211582 
L 965.649883 -367.797288 
L 962.672891 -367.380275 
L 959.695899 -366.957092 
L 956.718906 -366.533784 
L 953.741914 -366.11874 
L 950.764922 -365.706177 
L 947.787929 -365.309804 
L 944.810937 -364.921931 
L 941.833945 -364.551341 
L 938.856952 -364.195703 
L 935.87996 -363.859041 
L 932.902968 -363.544781 
L 929.925975 -363.260581 
L 926.948983 -363.011884 
L 923.971991 -362.795255 
L 920.994998 -362.617919 
L 918.018006 -362.481035 
L 915.041014 -362.392384 
L 912.064021 -362.348509 
L 909.087029 -362.354563 
L 906.110037 -362.418594 
L 903.133044 -362.543334 
L 900.156052 -362.72507 
L 897.17906 -362.967215 
L 894.202067 -363.280812 
L 891.225075 -363.658248 
L 888.248083 -364.106542 
L 885.27109 -364.631402 
L 882.294098 -365.227963 
L 879.317106 -365.902683 
L 876.340113 -366.652471 
L 873.363121 -367.464588 
L 870.386129 -368.352383 
L 867.409136 -369.315412 
L 864.432144 -370.352933 
L 861.455152 -371.465483 
L 858.478159 -372.649359 
L 855.501167 -373.909164 
L 852.524175 -375.233121 
L 849.547182 -376.622268 
L 846.57019 -378.078176 
L 843.593198 -379.601465 
L 840.616205 -381.188528 
L 837.639213 -382.828525 
L 834.662221 -384.522667 
L 831.685228 -386.274959 
L 828.708236 -388.081699 
L 825.731244 -389.935631 
L 822.754251 -391.83413 
L 819.777259 -393.793497 
L 816.800267 -395.791092 
L 813.823274 -397.830355 
L 810.846282 -399.908188 
L 807.86929 -402.018807 
L 804.892297 -404.165625 
L 801.915305 -406.343959 
L 798.938313 -408.555687 
L 795.96132 -410.79845 
L 792.984328 -413.062827 
L 790.007336 -415.355405 
L 787.030343 -417.666241 
L 784.053351 -420.002194 
L 781.076359 -422.357171 
L 778.099366 -424.735779 
L 775.122374 -427.132152 
L 772.145382 -429.554042 
L 769.168389 -431.993629 
L 766.191397 -434.462136 
L 763.214405 -436.943417 
L 760.237412 -439.446726 
L 757.26042 -441.976382 
L 754.283428 -444.516971 
L 751.306435 -447.078274 
L 748.329443 -449.662137 
L 745.352451 -452.270687 
L 742.375458 -454.89965 
L 739.398466 -457.554584 
L 736.421474 -460.218224 
L 733.444481 -462.890177 
L 730.467489 -465.560996 
L 727.490497 -468.237482 
L 724.513505 -470.932102 
L 721.536512 -473.621774 
L 718.55952 -476.33393 
L 715.582528 -479.053939 
L 712.605535 -481.790739 
L 709.628543 -484.531315 
L 706.651551 -487.287457 
L 703.674558 -490.052457 
L 700.697566 -492.823647 
L 697.720574 -495.610354 
L 694.743581 -498.419763 
L 691.766589 -501.255947 
L 688.789597 -504.104861 
L 685.812604 -506.964696 
L 682.835612 -509.835365 
L 679.85862 -512.721726 
L 676.881627 -515.616157 
L 673.904635 -518.516917 
L 670.927643 -521.424875 
L 667.95065 -524.312772 
L 664.973658 -527.18419 
L 661.996666 -530.039213 
L 659.019673 -532.858104 
L 656.042681 -535.611941 
L 653.065689 -538.324081 
L 650.088696 -540.970509 
L 647.111704 -543.54594 
L 644.134712 -545.995445 
L 641.157719 -548.331837 
L 638.180727 -550.521664 
L 635.203735 -552.515619 
L 632.226742 -554.318654 
L 629.24975 -555.916522 
L 626.272758 -557.288931 
L 623.295765 -558.390106 
L 620.318773 -559.212239 
L 617.341781 -559.739995 
L 614.364788 -559.930909 
L 611.387796 -559.83132 
L 608.410804 -559.384865 
L 605.433811 -558.575535 
L 602.456819 -557.440015 
L 599.479827 -555.957849 
L 596.502834 -554.159303 
L 593.525842 -552.03181 
L 590.54885 -549.616257 
L 587.571857 -546.925109 
L 584.594865 -543.959449 
L 581.617873 -540.746649 
L 578.64088 -537.331498 
L 575.663888 -533.771766 
L 572.686896 -530.115748 
L 569.709903 -526.388927 
L 566.732911 -522.612623 
L 563.755919 -518.821778 
L 560.778926 -515.046553 
L 557.801934 -511.347606 
L 554.824942 -507.725805 
L 551.847949 -504.179392 
L 548.870957 -500.741338 
L 545.893965 -497.454129 
L 542.916972 -494.313854 
L 539.93998 -491.333864 
L 536.962988 -488.519152 
L 533.985995 -485.851749 
L 531.009003 -483.3591 
L 528.032011 -481.02125 
L 525.055018 -478.848254 
L 522.078026 -476.824216 
L 519.101034 -474.952512 
L 516.124041 -473.235145 
L 513.147049 -471.656958 
L 510.170057 -470.228851 
L 507.193064 -468.931146 
L 504.216072 -467.760654 
L 501.23908 -466.706687 
L 498.262087 -465.76281 
L 495.285095 -464.923359 
L 492.308103 -464.17763 
L 489.33111 -463.522826 
L 486.354118 -462.946805 
L 483.377126 -462.448702 
L 480.400133 -462.01545 
L 477.423141 -461.651903 
L 474.446149 -461.33953 
L 471.469156 -461.077544 
L 468.492164 -460.869824 
L 465.515172 -460.710206 
L 462.538179 -460.58853 
L 459.561187 -460.497517 
L 456.584195 -460.436188 
L 453.607202 -460.397692 
L 450.63021 -460.375746 
L 447.653218 -460.362065 
L 444.676225 -460.359535 
L 441.699233 -460.359357 
L 438.722241 -460.363733 
L 435.745248 -460.368352 
L 432.768256 -460.362108 
L 429.791264 -460.358111 
L 426.814271 -460.337903 
L 423.837279 -460.303794 
L 420.860287 -460.258794 
L 417.883294 -460.192316 
L 414.906302 -460.104644 
L 411.92931 -459.988496 
L 408.952317 -459.840985 
L 405.975325 -459.659869 
L 402.998333 -459.447105 
L 400.02134 -459.198277 
L 397.044348 -458.907658 
L 394.067356 -458.580128 
L 391.090363 -458.208421 
L 388.113371 -457.797383 
L 385.136379 -457.337032 
L 382.159386 -456.826677 
L 379.182394 -456.272034 
L 376.205402 -455.663257 
L 373.228409 -454.999416 
L 370.251417 -454.277821 
L 367.274425 -453.513632 
L 364.297432 -452.687381 
L 361.32044 -451.801771 
L 358.343448 -450.867159 
L 355.366455 -449.872681 
L 352.389463 -448.817737 
L 349.412471 -447.712343 
L 346.435478 -446.555136 
L 343.458486 -445.344587 
L 340.481494 -444.072598 
L 337.504502 -442.753996 
L 334.527509 -441.386516 
L 331.550517 -439.982156 
L 328.573525 -438.518079 
L 325.596532 -437.017502 
L 322.61954 -435.464748 
L 319.642548 -433.865043 
L 316.665555 -432.220847 
L 313.688563 -430.5294 
L 310.711571 -428.792642 
L 307.734578 -426.991872 
L 304.757586 -425.128142 
L 301.780594 -423.184335 
L 298.803601 -421.152708 
L 295.826609 -419.026905 
L 292.849617 -416.912949 
z
" style="stroke: #00ffff; stroke-opacity: 0.5"/>
    </defs>
    <g clip-path="url(#p07524d9a31)">
     <use xlink:href="#m512cd1d433" x="0" y="648" style="fill: #00ffff; fill-opacity: 0.5; stroke: #00ffff; stroke-opacity: 0.5"/>
    </g>
   </g>
   <g id="matplotlib.axis_1">
    <g id="xtick_1">
     <g id="line2d_1">
      <defs>
       <path id="mef7d9ea4d0" d="M 0 0 
L 0 3.5 
" style="stroke: #000000; stroke-width: 0.8"/>
      </defs>
      <g>
       <use xlink:href="#mef7d9ea4d0" x="144" y="304.56" style="stroke: #000000; stroke-width: 0.8"/>
      </g>
     </g>
     <g id="text_1">
      <!-- 0 -->
      <g transform="translate(140.81875 319.158437) scale(0.1 -0.1)">
       <defs>
        <path id="DejaVuSans-30" d="M 2034 4250 
Q 1547 4250 1301 3770 
Q 1056 3291 1056 2328 
Q 1056 1369 1301 889 
Q 1547 409 2034 409 
Q 2525 409 2770 889 
Q 3016 1369 3016 2328 
Q 3016 3291 2770 3770 
Q 2525 4250 2034 4250 
z
M 2034 4750 
Q 2819 4750 3233 4129 
Q 3647 3509 3647 2328 
Q 3647 1150 3233 529 
Q 2819 -91 2034 -91 
Q 1250 -91 836 529 
Q 422 1150 422 2328 
Q 422 3509 836 4129 
Q 1250 4750 2034 4750 
z
" transform="scale(0.015625)"/>
       </defs>
       <use xlink:href="#DejaVuSans-30"/>
      </g>
     </g>
    </g>
    <g id="xtick_2">
     <g id="line2d_2">
      <g>
       <use xlink:href="#mef7d9ea4d0" x="292.849617" y="304.56" style="stroke: #000000; stroke-width: 0.8"/>
      </g>
     </g>
     <g id="text_2">
      <!-- 5 -->
      <g transform="translate(289.668367 319.158437) scale(0.1 -0.1)">
       <defs>
        <path id="DejaVuSans-35" d="M 691 4666 
L 3169 4666 
L 3169 4134 
L 1269 4134 
L 1269 2991 
Q 1406 3038 1543 3061 
Q 1681 3084 1819 3084 
Q 2600 3084 3056 2656 
Q 3513 2228 3513 1497 
Q 3513 744 3044 326 
Q 2575 -91 1722 -91 
Q 1428 -91 1123 -41 
Q 819 9 494 109 
L 494 744 
Q 775 591 1075 516 
Q 1375 441 1709 441 
Q 2250 441 2565 725 
Q 2881 1009 2881 1497 
Q 2881 1984 2565 2268 
Q 2250 2553 1709 2553 
Q 1456 2553 1204 2497 
Q 953 2441 691 2322 
L 691 4666 
z
" transform="scale(0.015625)"/>
       </defs>
       <use xlink:href="#DejaVuSans-35"/>
      </g>
     </g>
    </g>
    <g id="xtick_3">
     <g id="line2d_3">
      <g>
       <use xlink:href="#mef7d9ea4d0" x="441.699233" y="304.56" style="stroke: #000000; stroke-width: 0.8"/>
      </g>
     </g>
     <g id="text_3">
      <!-- 10 -->
      <g transform="translate(435.336733 319.158437) scale(0.1 -0.1)">
       <defs>
        <path id="DejaVuSans-31" d="M 794 531 
L 1825 531 
L 1825 4091 
L 703 3866 
L 703 4441 
L 1819 4666 
L 2450 4666 
L 2450 531 
L 3481 531 
L 3481 0 
L 794 0 
L 794 531 
z
" transform="scale(0.015625)"/>
       </defs>
       <use xlink:href="#DejaVuSans-31"/>
       <use xlink:href="#DejaVuSans-30" x="63.623047"/>
      </g>
     </g>
    </g>
    <g id="xtick_4">
     <g id="line2d_4">
      <g>
       <use xlink:href="#mef7d9ea4d0" x="590.54885" y="304.56" style="stroke: #000000; stroke-width: 0.8"/>
      </g>
     </g>
     <g id="text_4">
      <!-- 15 -->
      <g transform="translate(584.18635 319.158437) scale(0.1 -0.1)">
       <use xlink:href="#DejaVuSans-31"/>
       <use xlink:href="#DejaVuSans-35" x="63.623047"/>
      </g>
     </g>
    </g>
    <g id="xtick_5">
     <g id="line2d_5">
      <g>
       <use xlink:href="#mef7d9ea4d0" x="739.398466" y="304.56" style="stroke: #000000; stroke-width: 0.8"/>
      </g>
     </g>
     <g id="text_5">
      <!-- 20 -->
      <g transform="translate(733.035966 319.158437) scale(0.1 -0.1)">
       <defs>
        <path id="DejaVuSans-32" d="M 1228 531 
L 3431 531 
L 3431 0 
L 469 0 
L 469 531 
Q 828 903 1448 1529 
Q 2069 2156 2228 2338 
Q 2531 2678 2651 2914 
Q 2772 3150 2772 3378 
Q 2772 3750 2511 3984 
Q 2250 4219 1831 4219 
Q 1534 4219 1204 4116 
Q 875 4013 500 3803 
L 500 4441 
Q 881 4594 1212 4672 
Q 1544 4750 1819 4750 
Q 2544 4750 2975 4387 
Q 3406 4025 3406 3419 
Q 3406 3131 3298 2873 
Q 3191 2616 2906 2266 
Q 2828 2175 2409 1742 
Q 1991 1309 1228 531 
z
" transform="scale(0.015625)"/>
       </defs>
       <use xlink:href="#DejaVuSans-32"/>
       <use xlink:href="#DejaVuSans-30" x="63.623047"/>
      </g>
     </g>
    </g>
    <g id="xtick_6">
     <g id="line2d_6">
      <g>
       <use xlink:href="#mef7d9ea4d0" x="888.248083" y="304.56" style="stroke: #000000; stroke-width: 0.8"/>
      </g>
     </g>
     <g id="text_6">
      <!-- 25 -->
      <g transform="translate(881.885583 319.158437) scale(0.1 -0.1)">
       <use xlink:href="#DejaVuSans-32"/>
       <use xlink:href="#DejaVuSans-35" x="63.623047"/>
      </g>
     </g>
    </g>
   </g>
   <g id="matplotlib.axis_2">
    <g id="ytick_1">
     <g id="line2d_7">
      <defs>
       <path id="m0b8ed8e471" d="M 0 0 
L -3.5 0 
" style="stroke: #000000; stroke-width: 0.8"/>
      </defs>
      <g>
       <use xlink:href="#m0b8ed8e471" x="144" y="273.023381" style="stroke: #000000; stroke-width: 0.8"/>
      </g>
     </g>
     <g id="text_7">
      <!-- 1.0 -->
      <g transform="translate(121.096875 276.8226) scale(0.1 -0.1)">
       <defs>
        <path id="DejaVuSans-2e" d="M 684 794 
L 1344 794 
L 1344 0 
L 684 0 
L 684 794 
z
" transform="scale(0.015625)"/>
       </defs>
       <use xlink:href="#DejaVuSans-31"/>
       <use xlink:href="#DejaVuSans-2e" x="63.623047"/>
       <use xlink:href="#DejaVuSans-30" x="95.410156"/>
      </g>
     </g>
    </g>
    <g id="ytick_2">
     <g id="line2d_8">
      <g>
       <use xlink:href="#m0b8ed8e471" x="144" y="233.020982" style="stroke: #000000; stroke-width: 0.8"/>
      </g>
     </g>
     <g id="text_8">
      <!-- 1.5 -->
      <g transform="translate(121.096875 236.820201) scale(0.1 -0.1)">
       <use xlink:href="#DejaVuSans-31"/>
       <use xlink:href="#DejaVuSans-2e" x="63.623047"/>
       <use xlink:href="#DejaVuSans-35" x="95.410156"/>
      </g>
     </g>
    </g>
    <g id="ytick_3">
     <g id="line2d_9">
      <g>
       <use xlink:href="#m0b8ed8e471" x="144" y="193.018583" style="stroke: #000000; stroke-width: 0.8"/>
      </g>
     </g>
     <g id="text_9">
      <!-- 2.0 -->
      <g transform="translate(121.096875 196.817802) scale(0.1 -0.1)">
       <use xlink:href="#DejaVuSans-32"/>
       <use xlink:href="#DejaVuSans-2e" x="63.623047"/>
       <use xlink:href="#DejaVuSans-30" x="95.410156"/>
      </g>
     </g>
    </g>
    <g id="ytick_4">
     <g id="line2d_10">
      <g>
       <use xlink:href="#m0b8ed8e471" x="144" y="153.016184" style="stroke: #000000; stroke-width: 0.8"/>
      </g>
     </g>
     <g id="text_10">
      <!-- 2.5 -->
      <g transform="translate(121.096875 156.815403) scale(0.1 -0.1)">
       <use xlink:href="#DejaVuSans-32"/>
       <use xlink:href="#DejaVuSans-2e" x="63.623047"/>
       <use xlink:href="#DejaVuSans-35" x="95.410156"/>
      </g>
     </g>
    </g>
    <g id="ytick_5">
     <g id="line2d_11">
      <g>
       <use xlink:href="#m0b8ed8e471" x="144" y="113.013785" style="stroke: #000000; stroke-width: 0.8"/>
      </g>
     </g>
     <g id="text_11">
      <!-- 3.0 -->
      <g transform="translate(121.096875 116.813004) scale(0.1 -0.1)">
       <defs>
        <path id="DejaVuSans-33" d="M 2597 2516 
Q 3050 2419 3304 2112 
Q 3559 1806 3559 1356 
Q 3559 666 3084 287 
Q 2609 -91 1734 -91 
Q 1441 -91 1130 -33 
Q 819 25 488 141 
L 488 750 
Q 750 597 1062 519 
Q 1375 441 1716 441 
Q 2309 441 2620 675 
Q 2931 909 2931 1356 
Q 2931 1769 2642 2001 
Q 2353 2234 1838 2234 
L 1294 2234 
L 1294 2753 
L 1863 2753 
Q 2328 2753 2575 2939 
Q 2822 3125 2822 3475 
Q 2822 3834 2567 4026 
Q 2313 4219 1838 4219 
Q 1578 4219 1281 4162 
Q 984 4106 628 3988 
L 628 4550 
Q 988 4650 1302 4700 
Q 1616 4750 1894 4750 
Q 2613 4750 3031 4423 
Q 3450 4097 3450 3541 
Q 3450 3153 3228 2886 
Q 3006 2619 2597 2516 
z
" transform="scale(0.015625)"/>
       </defs>
       <use xlink:href="#DejaVuSans-33"/>
       <use xlink:href="#DejaVuSans-2e" x="63.623047"/>
       <use xlink:href="#DejaVuSans-30" x="95.410156"/>
      </g>
     </g>
    </g>
   </g>
   <g id="line2d_12">
    <path d="M 144 277.876486 
L 146.679293 277.98125 
L 155.014872 278.575065 
L 160.373458 278.684494 
L 166.327442 278.583534 
L 172.579126 278.262112 
L 179.426209 277.685662 
L 186.86869 276.827958 
L 194.013471 275.784871 
L 201.455952 274.460722 
L 208.600734 272.959936 
L 215.447816 271.298561 
L 221.997199 269.500482 
L 228.844281 267.393451 
L 235.691364 265.056921 
L 242.538446 262.47962 
L 249.385529 259.667037 
L 256.53031 256.497551 
L 263.972791 252.951038 
L 272.01067 248.875083 
L 282.132444 243.461663 
L 293.742714 236.988337 
L 296.422007 235.248552 
L 305.650684 229.061428 
L 312.200067 224.987883 
L 319.047149 220.994085 
L 325.894231 217.242091 
L 332.443615 213.896287 
L 338.992998 210.795439 
L 345.542381 207.925206 
L 351.794065 205.437075 
L 358.343448 203.075509 
L 364.595132 201.077659 
L 370.251417 199.478187 
L 377.098499 197.799307 
L 383.052484 196.575563 
L 389.601867 195.457395 
L 396.44895 194.536027 
L 403.593731 193.804982 
L 411.036212 193.278817 
L 418.776392 192.95906 
L 428.600467 192.789181 
L 441.103835 192.792354 
L 458.072691 192.793903 
L 467.003668 192.57321 
L 473.85075 192.195869 
L 480.102434 191.62816 
L 485.75872 190.91265 
L 491.117306 190.018889 
L 495.880493 189.012863 
L 500.643681 187.781714 
L 505.10917 186.397949 
L 509.276959 184.884448 
L 513.444748 183.133291 
L 517.314838 181.266992 
L 521.482628 178.995064 
L 525.352718 176.625911 
L 529.222808 174.006742 
L 533.092898 171.119707 
L 536.962988 167.962087 
L 541.130777 164.264647 
L 545.298566 160.253248 
L 549.764055 155.613044 
L 554.229543 150.63304 
L 559.885829 143.983675 
L 566.137513 136.281072 
L 578.93858 120.441618 
L 583.701767 114.913678 
L 587.571857 110.760956 
L 590.846549 107.555437 
L 594.12124 104.667086 
L 597.098233 102.33167 
L 599.777526 100.485359 
L 602.456819 98.886388 
L 605.136112 97.54704 
L 607.815405 96.480206 
L 610.196999 95.756718 
L 612.578593 95.253622 
L 614.960187 94.972731 
L 617.63948 94.887346 
L 620.021074 95.026778 
L 622.700367 95.423749 
L 625.37966 96.060675 
L 628.058953 96.926781 
L 630.738246 98.015891 
L 633.715238 99.447974 
L 636.98993 101.267223 
L 640.264622 103.326169 
L 643.837012 105.843969 
L 648.302501 109.288578 
L 653.065689 113.266462 
L 659.317372 118.776194 
L 665.866756 124.820713 
L 675.98853 134.479617 
L 693.255085 150.985236 
L 704.567656 161.537812 
L 723.620407 178.924329 
L 744.757052 197.790637 
L 754.878826 206.591745 
L 766.786796 216.621118 
L 778.397066 226.103271 
L 789.709637 235.035774 
L 800.724508 243.449037 
L 809.357786 249.784857 
L 817.693364 255.637135 
L 825.135845 260.611884 
L 832.280627 265.101027 
L 838.83001 268.961274 
L 845.379393 272.556505 
L 851.333378 275.570703 
L 856.989663 278.188588 
L 862.645949 280.563661 
L 868.004535 282.569848 
L 873.363121 284.332021 
L 878.721707 285.850032 
L 884.080293 287.140812 
L 889.14118 288.13225 
L 894.202067 288.904651 
L 899.560654 289.501284 
L 905.216939 289.893134 
L 910.873224 290.062267 
L 916.827209 290.014168 
L 923.078893 289.750656 
L 929.925975 289.241839 
L 937.368456 288.467802 
L 946.894832 287.244239 
L 959.398199 285.391978 
L 983.214138 281.797036 
L 993.633611 280.44115 
L 1003.457686 279.372367 
L 1012.388663 278.609455 
L 1021.31964 278.069245 
L 1029.655218 277.775241 
L 1036.8 277.694388 
L 1036.8 277.694388 
" clip-path="url(#p07524d9a31)" style="fill: none; stroke-dasharray: 5.55,2.4; stroke-dashoffset: 0; stroke: #ffa500; stroke-width: 1.5"/>
   </g>
   <g id="line2d_13">
    <path d="M 292.849617 235.483537 
L 301.780594 229.458591 
L 307.734578 225.708751 
L 313.688563 222.168476 
L 319.642548 218.813023 
L 325.596532 215.645609 
L 331.550517 212.677245 
L 337.504502 209.914056 
L 343.458486 207.340995 
L 349.412471 204.995128 
L 355.366455 202.855682 
L 361.32044 200.945276 
L 367.274425 199.247825 
L 373.228409 197.774074 
L 379.182394 196.510709 
L 385.136379 195.455243 
L 391.090363 194.593105 
L 397.044348 193.903617 
L 402.998333 193.373873 
L 411.92931 192.849819 
L 420.860287 192.602397 
L 432.768256 192.533698 
L 459.561187 192.472542 
L 468.492164 192.111174 
L 474.446149 191.654989 
L 480.400133 191.000511 
L 486.354118 190.097917 
L 492.308103 188.90365 
L 498.262087 187.361219 
L 504.216072 185.412972 
L 507.193064 184.270032 
L 510.170057 183.00177 
L 513.147049 181.605116 
L 516.124041 180.060365 
L 519.101034 178.37857 
L 522.078026 176.544125 
L 525.055018 174.558667 
L 528.032011 172.424979 
L 531.009003 170.126725 
L 533.985995 167.674221 
L 539.93998 162.273814 
L 542.916972 159.334254 
L 548.870957 152.993518 
L 554.824942 146.1044 
L 560.778926 138.862206 
L 575.663888 120.319909 
L 581.617873 113.409632 
L 584.594865 110.221442 
L 587.571857 107.270442 
L 590.54885 104.585771 
L 593.525842 102.172515 
L 596.502834 100.046466 
L 599.479827 98.246677 
L 602.456819 96.761217 
L 605.433811 95.618707 
L 608.410804 94.796371 
L 611.387796 94.330691 
L 614.364788 94.20439 
L 617.341781 94.367101 
L 620.318773 94.861794 
L 623.295765 95.646808 
L 626.272758 96.709188 
L 629.24975 98.041193 
L 632.226742 99.598214 
L 635.203735 101.35954 
L 638.180727 103.310867 
L 641.157719 105.459158 
L 647.111704 110.170284 
L 653.065689 115.320132 
L 661.996666 123.49571 
L 673.904635 134.909934 
L 688.789597 149.207267 
L 700.697566 160.39451 
L 721.536512 179.45561 
L 745.352451 200.701781 
L 754.283428 208.407334 
L 766.191397 218.390583 
L 775.122374 225.675877 
L 787.030343 235.092662 
L 798.938313 244.172335 
L 807.86929 250.691638 
L 816.800267 256.902716 
L 822.754251 260.850059 
L 828.708236 264.591939 
L 834.662221 268.139632 
L 840.616205 271.462008 
L 846.57019 274.559279 
L 852.524175 277.38951 
L 858.478159 279.954924 
L 864.432144 282.230202 
L 870.386129 284.206243 
L 876.340113 285.878304 
L 882.294098 287.268727 
L 888.248083 288.353122 
L 894.202067 289.139347 
L 900.156052 289.651146 
L 906.110037 289.909669 
L 912.064021 289.92826 
L 918.018006 289.740024 
L 923.971991 289.365327 
L 932.902968 288.516995 
L 941.833945 287.404049 
L 953.741914 285.677716 
L 983.511837 281.217555 
L 995.419807 279.763762 
L 1004.350784 278.883238 
L 1013.281761 278.216511 
L 1022.212738 277.773189 
L 1031.143715 277.573655 
L 1034.120707 277.5622 
L 1034.120707 277.5622 
" clip-path="url(#p07524d9a31)" style="fill: none; stroke: #0000ff; stroke-opacity: 0.5; stroke-width: 1.5; stroke-linecap: square"/>
   </g>
   <g id="patch_3">
    <path d="M 144 304.56 
L 144 77.76 
" style="fill: none; stroke: #000000; stroke-width: 0.8; stroke-linejoin: miter; stroke-linecap: square"/>
   </g>
   <g id="patch_4">
    <path d="M 1036.8 304.56 
L 1036.8 77.76 
" style="fill: none; stroke: #000000; stroke-width: 0.8; stroke-linejoin: miter; stroke-linecap: square"/>
   </g>
   <g id="patch_5">
    <path d="M 144 304.56 
L 1036.8 304.56 
" style="fill: none; stroke: #000000; stroke-width: 0.8; stroke-linejoin: miter; stroke-linecap: square"/>
   </g>
   <g id="patch_6">
    <path d="M 144 77.76 
L 1036.8 77.76 
" style="fill: none; stroke: #000000; stroke-width: 0.8; stroke-linejoin: miter; stroke-linecap: square"/>
   </g>
   <g id="legend_1">
    <g id="patch_7">
     <path d="M 924.2 129.838125 
L 1029.8 129.838125 
Q 1031.8 129.838125 1031.8 127.838125 
L 1031.8 84.76 
Q 1031.8 82.76 1029.8 82.76 
L 924.2 82.76 
Q 922.2 82.76 922.2 84.76 
L 922.2 127.838125 
Q 922.2 129.838125 924.2 129.838125 
z
" style="fill: #ffffff; opacity: 0.8; stroke: #cccccc; stroke-linejoin: miter"/>
    </g>
    <g id="line2d_14">
     <path d="M 926.2 90.86 
L 936.2 90.86 
L 946.2 90.86 
" style="fill: none; stroke-dasharray: 5.55,2.4; stroke-dashoffset: 0; stroke: #ffa500; stroke-width: 1.5"/>
    </g>
    <g id="text_12">
     <!-- Real $y$ Position -->
     <g transform="translate(954.2 94.36) scale(0.1 -0.1)">
      <defs>
       <path id="DejaVuSans-52" d="M 2841 2188 
Q 3044 2119 3236 1894 
Q 3428 1669 3622 1275 
L 4263 0 
L 3584 0 
L 2988 1197 
Q 2756 1666 2539 1819 
Q 2322 1972 1947 1972 
L 1259 1972 
L 1259 0 
L 628 0 
L 628 4666 
L 2053 4666 
Q 2853 4666 3247 4331 
Q 3641 3997 3641 3322 
Q 3641 2881 3436 2590 
Q 3231 2300 2841 2188 
z
M 1259 4147 
L 1259 2491 
L 2053 2491 
Q 2509 2491 2742 2702 
Q 2975 2913 2975 3322 
Q 2975 3731 2742 3939 
Q 2509 4147 2053 4147 
L 1259 4147 
z
" transform="scale(0.015625)"/>
       <path id="DejaVuSans-65" d="M 3597 1894 
L 3597 1613 
L 953 1613 
Q 991 1019 1311 708 
Q 1631 397 2203 397 
Q 2534 397 2845 478 
Q 3156 559 3463 722 
L 3463 178 
Q 3153 47 2828 -22 
Q 2503 -91 2169 -91 
Q 1331 -91 842 396 
Q 353 884 353 1716 
Q 353 2575 817 3079 
Q 1281 3584 2069 3584 
Q 2775 3584 3186 3129 
Q 3597 2675 3597 1894 
z
M 3022 2063 
Q 3016 2534 2758 2815 
Q 2500 3097 2075 3097 
Q 1594 3097 1305 2825 
Q 1016 2553 972 2059 
L 3022 2063 
z
" transform="scale(0.015625)"/>
       <path id="DejaVuSans-61" d="M 2194 1759 
Q 1497 1759 1228 1600 
Q 959 1441 959 1056 
Q 959 750 1161 570 
Q 1363 391 1709 391 
Q 2188 391 2477 730 
Q 2766 1069 2766 1631 
L 2766 1759 
L 2194 1759 
z
M 3341 1997 
L 3341 0 
L 2766 0 
L 2766 531 
Q 2569 213 2275 61 
Q 1981 -91 1556 -91 
Q 1019 -91 701 211 
Q 384 513 384 1019 
Q 384 1609 779 1909 
Q 1175 2209 1959 2209 
L 2766 2209 
L 2766 2266 
Q 2766 2663 2505 2880 
Q 2244 3097 1772 3097 
Q 1472 3097 1187 3025 
Q 903 2953 641 2809 
L 641 3341 
Q 956 3463 1253 3523 
Q 1550 3584 1831 3584 
Q 2591 3584 2966 3190 
Q 3341 2797 3341 1997 
z
" transform="scale(0.015625)"/>
       <path id="DejaVuSans-6c" d="M 603 4863 
L 1178 4863 
L 1178 0 
L 603 0 
L 603 4863 
z
" transform="scale(0.015625)"/>
       <path id="DejaVuSans-20" transform="scale(0.015625)"/>
       <path id="DejaVuSans-Oblique-79" d="M 1588 -325 
Q 1188 -997 936 -1164 
Q 684 -1331 294 -1331 
L -159 -1331 
L -63 -850 
L 269 -850 
Q 509 -850 678 -719 
Q 847 -588 1056 -206 
L 1234 128 
L 459 3500 
L 1069 3500 
L 1650 819 
L 3256 3500 
L 3859 3500 
L 1588 -325 
z
" transform="scale(0.015625)"/>
       <path id="DejaVuSans-50" d="M 1259 4147 
L 1259 2394 
L 2053 2394 
Q 2494 2394 2734 2622 
Q 2975 2850 2975 3272 
Q 2975 3691 2734 3919 
Q 2494 4147 2053 4147 
L 1259 4147 
z
M 628 4666 
L 2053 4666 
Q 2838 4666 3239 4311 
Q 3641 3956 3641 3272 
Q 3641 2581 3239 2228 
Q 2838 1875 2053 1875 
L 1259 1875 
L 1259 0 
L 628 0 
L 628 4666 
z
" transform="scale(0.015625)"/>
       <path id="DejaVuSans-6f" d="M 1959 3097 
Q 1497 3097 1228 2736 
Q 959 2375 959 1747 
Q 959 1119 1226 758 
Q 1494 397 1959 397 
Q 2419 397 2687 759 
Q 2956 1122 2956 1747 
Q 2956 2369 2687 2733 
Q 2419 3097 1959 3097 
z
M 1959 3584 
Q 2709 3584 3137 3096 
Q 3566 2609 3566 1747 
Q 3566 888 3137 398 
Q 2709 -91 1959 -91 
Q 1206 -91 779 398 
Q 353 888 353 1747 
Q 353 2609 779 3096 
Q 1206 3584 1959 3584 
z
" transform="scale(0.015625)"/>
       <path id="DejaVuSans-73" d="M 2834 3397 
L 2834 2853 
Q 2591 2978 2328 3040 
Q 2066 3103 1784 3103 
Q 1356 3103 1142 2972 
Q 928 2841 928 2578 
Q 928 2378 1081 2264 
Q 1234 2150 1697 2047 
L 1894 2003 
Q 2506 1872 2764 1633 
Q 3022 1394 3022 966 
Q 3022 478 2636 193 
Q 2250 -91 1575 -91 
Q 1294 -91 989 -36 
Q 684 19 347 128 
L 347 722 
Q 666 556 975 473 
Q 1284 391 1588 391 
Q 1994 391 2212 530 
Q 2431 669 2431 922 
Q 2431 1156 2273 1281 
Q 2116 1406 1581 1522 
L 1381 1569 
Q 847 1681 609 1914 
Q 372 2147 372 2553 
Q 372 3047 722 3315 
Q 1072 3584 1716 3584 
Q 2034 3584 2315 3537 
Q 2597 3491 2834 3397 
z
" transform="scale(0.015625)"/>
       <path id="DejaVuSans-69" d="M 603 3500 
L 1178 3500 
L 1178 0 
L 603 0 
L 603 3500 
z
M 603 4863 
L 1178 4863 
L 1178 4134 
L 603 4134 
L 603 4863 
z
" transform="scale(0.015625)"/>
       <path id="DejaVuSans-74" d="M 1172 4494 
L 1172 3500 
L 2356 3500 
L 2356 3053 
L 1172 3053 
L 1172 1153 
Q 1172 725 1289 603 
Q 1406 481 1766 481 
L 2356 481 
L 2356 0 
L 1766 0 
Q 1100 0 847 248 
Q 594 497 594 1153 
L 594 3053 
L 172 3053 
L 172 3500 
L 594 3500 
L 594 4494 
L 1172 4494 
z
" transform="scale(0.015625)"/>
       <path id="DejaVuSans-6e" d="M 3513 2113 
L 3513 0 
L 2938 0 
L 2938 2094 
Q 2938 2591 2744 2837 
Q 2550 3084 2163 3084 
Q 1697 3084 1428 2787 
Q 1159 2491 1159 1978 
L 1159 0 
L 581 0 
L 581 3500 
L 1159 3500 
L 1159 2956 
Q 1366 3272 1645 3428 
Q 1925 3584 2291 3584 
Q 2894 3584 3203 3211 
Q 3513 2838 3513 2113 
z
" transform="scale(0.015625)"/>
      </defs>
      <use xlink:href="#DejaVuSans-52" transform="translate(0 0.015625)"/>
      <use xlink:href="#DejaVuSans-65" transform="translate(69.482422 0.015625)"/>
      <use xlink:href="#DejaVuSans-61" transform="translate(131.005859 0.015625)"/>
      <use xlink:href="#DejaVuSans-6c" transform="translate(192.285156 0.015625)"/>
      <use xlink:href="#DejaVuSans-20" transform="translate(220.068359 0.015625)"/>
      <use xlink:href="#DejaVuSans-Oblique-79" transform="translate(251.855469 0.015625)"/>
      <use xlink:href="#DejaVuSans-20" transform="translate(311.035156 0.015625)"/>
      <use xlink:href="#DejaVuSans-50" transform="translate(342.822266 0.015625)"/>
      <use xlink:href="#DejaVuSans-6f" transform="translate(403.125 0.015625)"/>
      <use xlink:href="#DejaVuSans-73" transform="translate(464.306641 0.015625)"/>
      <use xlink:href="#DejaVuSans-69" transform="translate(516.40625 0.015625)"/>
      <use xlink:href="#DejaVuSans-74" transform="translate(544.189453 0.015625)"/>
      <use xlink:href="#DejaVuSans-69" transform="translate(583.398438 0.015625)"/>
      <use xlink:href="#DejaVuSans-6f" transform="translate(611.181641 0.015625)"/>
      <use xlink:href="#DejaVuSans-6e" transform="translate(672.363281 0.015625)"/>
     </g>
    </g>
    <g id="line2d_15">
     <path d="M 926.2 105.56 
L 936.2 105.56 
L 946.2 105.56 
" style="fill: none; stroke: #0000ff; stroke-opacity: 0.5; stroke-width: 1.5; stroke-linecap: square"/>
    </g>
    <g id="text_13">
     <!-- Prediction $y$ -->
     <g transform="translate(954.2 109.06) scale(0.1 -0.1)">
      <defs>
       <path id="DejaVuSans-72" d="M 2631 2963 
Q 2534 3019 2420 3045 
Q 2306 3072 2169 3072 
Q 1681 3072 1420 2755 
Q 1159 2438 1159 1844 
L 1159 0 
L 581 0 
L 581 3500 
L 1159 3500 
L 1159 2956 
Q 1341 3275 1631 3429 
Q 1922 3584 2338 3584 
Q 2397 3584 2469 3576 
Q 2541 3569 2628 3553 
L 2631 2963 
z
" transform="scale(0.015625)"/>
       <path id="DejaVuSans-64" d="M 2906 2969 
L 2906 4863 
L 3481 4863 
L 3481 0 
L 2906 0 
L 2906 525 
Q 2725 213 2448 61 
Q 2172 -91 1784 -91 
Q 1150 -91 751 415 
Q 353 922 353 1747 
Q 353 2572 751 3078 
Q 1150 3584 1784 3584 
Q 2172 3584 2448 3432 
Q 2725 3281 2906 2969 
z
M 947 1747 
Q 947 1113 1208 752 
Q 1469 391 1925 391 
Q 2381 391 2643 752 
Q 2906 1113 2906 1747 
Q 2906 2381 2643 2742 
Q 2381 3103 1925 3103 
Q 1469 3103 1208 2742 
Q 947 2381 947 1747 
z
" transform="scale(0.015625)"/>
       <path id="DejaVuSans-63" d="M 3122 3366 
L 3122 2828 
Q 2878 2963 2633 3030 
Q 2388 3097 2138 3097 
Q 1578 3097 1268 2742 
Q 959 2388 959 1747 
Q 959 1106 1268 751 
Q 1578 397 2138 397 
Q 2388 397 2633 464 
Q 2878 531 3122 666 
L 3122 134 
Q 2881 22 2623 -34 
Q 2366 -91 2075 -91 
Q 1284 -91 818 406 
Q 353 903 353 1747 
Q 353 2603 823 3093 
Q 1294 3584 2113 3584 
Q 2378 3584 2631 3529 
Q 2884 3475 3122 3366 
z
" transform="scale(0.015625)"/>
      </defs>
      <use xlink:href="#DejaVuSans-50" transform="translate(0 0.015625)"/>
      <use xlink:href="#DejaVuSans-72" transform="translate(60.302734 0.015625)"/>
      <use xlink:href="#DejaVuSans-65" transform="translate(101.416016 0.015625)"/>
      <use xlink:href="#DejaVuSans-64" transform="translate(162.939453 0.015625)"/>
      <use xlink:href="#DejaVuSans-69" transform="translate(226.416016 0.015625)"/>
      <use xlink:href="#DejaVuSans-63" transform="translate(254.199219 0.015625)"/>
      <use xlink:href="#DejaVuSans-74" transform="translate(309.179688 0.015625)"/>
      <use xlink:href="#DejaVuSans-69" transform="translate(348.388672 0.015625)"/>
      <use xlink:href="#DejaVuSans-6f" transform="translate(376.171875 0.015625)"/>
      <use xlink:href="#DejaVuSans-6e" transform="translate(437.353516 0.015625)"/>
      <use xlink:href="#DejaVuSans-20" transform="translate(500.732422 0.015625)"/>
      <use xlink:href="#DejaVuSans-Oblique-79" transform="translate(532.519531 0.015625)"/>
     </g>
    </g>
    <g id="patch_8">
     <path d="M 926.2 123.758438 
L 946.2 123.758438 
L 946.2 116.758438 
L 926.2 116.758438 
z
" style="fill: #00ffff; fill-opacity: 0.5; stroke: #00ffff; stroke-opacity: 0.5; stroke-linejoin: miter"/>
    </g>
    <g id="text_14">
     <!-- Confidence -->
     <g transform="translate(954.2 123.758438) scale(0.1 -0.1)">
      <defs>
       <path id="DejaVuSans-43" d="M 4122 4306 
L 4122 3641 
Q 3803 3938 3442 4084 
Q 3081 4231 2675 4231 
Q 1875 4231 1450 3742 
Q 1025 3253 1025 2328 
Q 1025 1406 1450 917 
Q 1875 428 2675 428 
Q 3081 428 3442 575 
Q 3803 722 4122 1019 
L 4122 359 
Q 3791 134 3420 21 
Q 3050 -91 2638 -91 
Q 1578 -91 968 557 
Q 359 1206 359 2328 
Q 359 3453 968 4101 
Q 1578 4750 2638 4750 
Q 3056 4750 3426 4639 
Q 3797 4528 4122 4306 
z
" transform="scale(0.015625)"/>
       <path id="DejaVuSans-66" d="M 2375 4863 
L 2375 4384 
L 1825 4384 
Q 1516 4384 1395 4259 
Q 1275 4134 1275 3809 
L 1275 3500 
L 2222 3500 
L 2222 3053 
L 1275 3053 
L 1275 0 
L 697 0 
L 697 3053 
L 147 3053 
L 147 3500 
L 697 3500 
L 697 3744 
Q 697 4328 969 4595 
Q 1241 4863 1831 4863 
L 2375 4863 
z
" transform="scale(0.015625)"/>
      </defs>
      <use xlink:href="#DejaVuSans-43"/>
      <use xlink:href="#DejaVuSans-6f" x="69.824219"/>
      <use xlink:href="#DejaVuSans-6e" x="131.005859"/>
      <use xlink:href="#DejaVuSans-66" x="194.384766"/>
      <use xlink:href="#DejaVuSans-69" x="229.589844"/>
      <use xlink:href="#DejaVuSans-64" x="257.373047"/>
      <use xlink:href="#DejaVuSans-65" x="320.849609"/>
      <use xlink:href="#DejaVuSans-6e" x="382.373047"/>
      <use xlink:href="#DejaVuSans-63" x="445.751953"/>
      <use xlink:href="#DejaVuSans-65" x="500.732422"/>
     </g>
    </g>
   </g>
  </g>
  <g id="axes_2">
   <g id="patch_9">
    <path d="M 144 576.72 
L 1036.8 576.72 
L 1036.8 349.92 
L 144 349.92 
z
" style="fill: #ffffff"/>
   </g>
   <g id="matplotlib.axis_3">
    <g id="xtick_7">
     <g id="line2d_16">
      <g>
       <use xlink:href="#mef7d9ea4d0" x="144" y="576.72" style="stroke: #000000; stroke-width: 0.8"/>
      </g>
     </g>
     <g id="text_15">
      <!-- 0 -->
      <g transform="translate(140.81875 591.318438) scale(0.1 -0.1)">
       <use xlink:href="#DejaVuSans-30"/>
      </g>
     </g>
    </g>
    <g id="xtick_8">
     <g id="line2d_17">
      <g>
       <use xlink:href="#mef7d9ea4d0" x="292.849617" y="576.72" style="stroke: #000000; stroke-width: 0.8"/>
      </g>
     </g>
     <g id="text_16">
      <!-- 5 -->
      <g transform="translate(289.668367 591.318438) scale(0.1 -0.1)">
       <use xlink:href="#DejaVuSans-35"/>
      </g>
     </g>
    </g>
    <g id="xtick_9">
     <g id="line2d_18">
      <g>
       <use xlink:href="#mef7d9ea4d0" x="441.699233" y="576.72" style="stroke: #000000; stroke-width: 0.8"/>
      </g>
     </g>
     <g id="text_17">
      <!-- 10 -->
      <g transform="translate(435.336733 591.318438) scale(0.1 -0.1)">
       <use xlink:href="#DejaVuSans-31"/>
       <use xlink:href="#DejaVuSans-30" x="63.623047"/>
      </g>
     </g>
    </g>
    <g id="xtick_10">
     <g id="line2d_19">
      <g>
       <use xlink:href="#mef7d9ea4d0" x="590.54885" y="576.72" style="stroke: #000000; stroke-width: 0.8"/>
      </g>
     </g>
     <g id="text_18">
      <!-- 15 -->
      <g transform="translate(584.18635 591.318438) scale(0.1 -0.1)">
       <use xlink:href="#DejaVuSans-31"/>
       <use xlink:href="#DejaVuSans-35" x="63.623047"/>
      </g>
     </g>
    </g>
    <g id="xtick_11">
     <g id="line2d_20">
      <g>
       <use xlink:href="#mef7d9ea4d0" x="739.398466" y="576.72" style="stroke: #000000; stroke-width: 0.8"/>
      </g>
     </g>
     <g id="text_19">
      <!-- 20 -->
      <g transform="translate(733.035966 591.318438) scale(0.1 -0.1)">
       <use xlink:href="#DejaVuSans-32"/>
       <use xlink:href="#DejaVuSans-30" x="63.623047"/>
      </g>
     </g>
    </g>
    <g id="xtick_12">
     <g id="line2d_21">
      <g>
       <use xlink:href="#mef7d9ea4d0" x="888.248083" y="576.72" style="stroke: #000000; stroke-width: 0.8"/>
      </g>
     </g>
     <g id="text_20">
      <!-- 25 -->
      <g transform="translate(881.885583 591.318438) scale(0.1 -0.1)">
       <use xlink:href="#DejaVuSans-32"/>
       <use xlink:href="#DejaVuSans-35" x="63.623047"/>
      </g>
     </g>
    </g>
   </g>
   <g id="matplotlib.axis_4">
    <g id="ytick_6">
     <g id="line2d_22">
      <g>
       <use xlink:href="#m0b8ed8e471" x="144" y="536.360275" style="stroke: #000000; stroke-width: 0.8"/>
      </g>
     </g>
     <g id="text_21">
      <!-- −0.04 -->
      <g transform="translate(106.354687 540.159493) scale(0.1 -0.1)">
       <defs>
        <path id="DejaVuSans-2212" d="M 678 2272 
L 4684 2272 
L 4684 1741 
L 678 1741 
L 678 2272 
z
" transform="scale(0.015625)"/>
        <path id="DejaVuSans-34" d="M 2419 4116 
L 825 1625 
L 2419 1625 
L 2419 4116 
z
M 2253 4666 
L 3047 4666 
L 3047 1625 
L 3713 1625 
L 3713 1100 
L 3047 1100 
L 3047 0 
L 2419 0 
L 2419 1100 
L 313 1100 
L 313 1709 
L 2253 4666 
z
" transform="scale(0.015625)"/>
       </defs>
       <use xlink:href="#DejaVuSans-2212"/>
       <use xlink:href="#DejaVuSans-30" x="83.789062"/>
       <use xlink:href="#DejaVuSans-2e" x="147.412109"/>
       <use xlink:href="#DejaVuSans-30" x="179.199219"/>
       <use xlink:href="#DejaVuSans-34" x="242.822266"/>
      </g>
     </g>
    </g>
    <g id="ytick_7">
     <g id="line2d_23">
      <g>
       <use xlink:href="#m0b8ed8e471" x="144" y="486.571252" style="stroke: #000000; stroke-width: 0.8"/>
      </g>
     </g>
     <g id="text_22">
      <!-- −0.02 -->
      <g transform="translate(106.354687 490.370471) scale(0.1 -0.1)">
       <use xlink:href="#DejaVuSans-2212"/>
       <use xlink:href="#DejaVuSans-30" x="83.789062"/>
       <use xlink:href="#DejaVuSans-2e" x="147.412109"/>
       <use xlink:href="#DejaVuSans-30" x="179.199219"/>
       <use xlink:href="#DejaVuSans-32" x="242.822266"/>
      </g>
     </g>
    </g>
    <g id="ytick_8">
     <g id="line2d_24">
      <g>
       <use xlink:href="#m0b8ed8e471" x="144" y="436.78223" style="stroke: #000000; stroke-width: 0.8"/>
      </g>
     </g>
     <g id="text_23">
      <!-- 0.00 -->
      <g transform="translate(114.734375 440.581449) scale(0.1 -0.1)">
       <use xlink:href="#DejaVuSans-30"/>
       <use xlink:href="#DejaVuSans-2e" x="63.623047"/>
       <use xlink:href="#DejaVuSans-30" x="95.410156"/>
       <use xlink:href="#DejaVuSans-30" x="159.033203"/>
      </g>
     </g>
    </g>
    <g id="ytick_9">
     <g id="line2d_25">
      <g>
       <use xlink:href="#m0b8ed8e471" x="144" y="386.993208" style="stroke: #000000; stroke-width: 0.8"/>
      </g>
     </g>
     <g id="text_24">
      <!-- 0.02 -->
      <g transform="translate(114.734375 390.792426) scale(0.1 -0.1)">
       <use xlink:href="#DejaVuSans-30"/>
       <use xlink:href="#DejaVuSans-2e" x="63.623047"/>
       <use xlink:href="#DejaVuSans-30" x="95.410156"/>
       <use xlink:href="#DejaVuSans-32" x="159.033203"/>
      </g>
     </g>
    </g>
   </g>
   <g id="line2d_26">
    <path d="M 144 499.68785 
L 173.769923 505.632807 
L 203.539847 505.0784 
L 263.079693 501.587115 
L 292.849617 499.916535 
L 352.389463 496.855713 
L 411.92931 494.19555 
L 471.469156 491.370318 
L 501.23908 489.825474 
L 531.009003 488.488909 
L 560.778926 486.839985 
L 590.54885 485.55354 
L 650.088696 482.501498 
L 709.628543 479.149077 
L 769.168389 476.02452 
L 828.708236 472.566164 
L 858.478159 471.025016 
L 918.018006 467.523263 
L 947.787929 466.118683 
L 1007.327776 462.776393 
L 1037.097699 461.193803 
L 1066.867623 459.803618 
L 1096.637546 458.266814 
L 1126.407469 456.843883 
L 1153 455.745497 
L 1153 455.745497 
" clip-path="url(#p06e2eb174a)" style="fill: none; stroke: #1f77b4; stroke-width: 1.5; stroke-linecap: square"/>
   </g>
   <g id="patch_10">
    <path d="M 144 576.72 
L 144 349.92 
" style="fill: none; stroke: #000000; stroke-width: 0.8; stroke-linejoin: miter; stroke-linecap: square"/>
   </g>
   <g id="patch_11">
    <path d="M 1036.8 576.72 
L 1036.8 349.92 
" style="fill: none; stroke: #000000; stroke-width: 0.8; stroke-linejoin: miter; stroke-linecap: square"/>
   </g>
   <g id="patch_12">
    <path d="M 144 576.72 
L 1036.8 576.72 
" style="fill: none; stroke: #000000; stroke-width: 0.8; stroke-linejoin: miter; stroke-linecap: square"/>
   </g>
   <g id="patch_13">
    <path d="M 144 349.92 
L 1036.8 349.92 
" style="fill: none; stroke: #000000; stroke-width: 0.8; stroke-linejoin: miter; stroke-linecap: square"/>
   </g>
   <g id="legend_2">
    <g id="patch_14">
     <path d="M 920.578125 372.598125 
L 1029.8 372.598125 
Q 1031.8 372.598125 1031.8 370.598125 
L 1031.8 356.92 
Q 1031.8 354.92 1029.8 354.92 
L 920.578125 354.92 
Q 918.578125 354.92 918.578125 356.92 
L 918.578125 370.598125 
Q 918.578125 372.598125 920.578125 372.598125 
z
" style="fill: #ffffff; opacity: 0.8; stroke: #cccccc; stroke-linejoin: miter"/>
    </g>
    <g id="line2d_27">
     <path d="M 922.578125 363.018437 
L 932.578125 363.018437 
L 942.578125 363.018437 
" style="fill: none; stroke: #1f77b4; stroke-width: 1.5; stroke-linecap: square"/>
    </g>
    <g id="text_25">
     <!-- Prediction Error -->
     <g transform="translate(950.578125 366.518437) scale(0.1 -0.1)">
      <defs>
       <path id="DejaVuSans-45" d="M 628 4666 
L 3578 4666 
L 3578 4134 
L 1259 4134 
L 1259 2753 
L 3481 2753 
L 3481 2222 
L 1259 2222 
L 1259 531 
L 3634 531 
L 3634 0 
L 628 0 
L 628 4666 
z
" transform="scale(0.015625)"/>
      </defs>
      <use xlink:href="#DejaVuSans-50"/>
      <use xlink:href="#DejaVuSans-72" x="58.552734"/>
      <use xlink:href="#DejaVuSans-65" x="97.416016"/>
      <use xlink:href="#DejaVuSans-64" x="158.939453"/>
      <use xlink:href="#DejaVuSans-69" x="222.416016"/>
      <use xlink:href="#DejaVuSans-63" x="250.199219"/>
      <use xlink:href="#DejaVuSans-74" x="305.179688"/>
      <use xlink:href="#DejaVuSans-69" x="344.388672"/>
      <use xlink:href="#DejaVuSans-6f" x="372.171875"/>
      <use xlink:href="#DejaVuSans-6e" x="433.353516"/>
      <use xlink:href="#DejaVuSans-20" x="496.732422"/>
      <use xlink:href="#DejaVuSans-45" x="528.519531"/>
      <use xlink:href="#DejaVuSans-72" x="591.703125"/>
      <use xlink:href="#DejaVuSans-72" x="631.066406"/>
      <use xlink:href="#DejaVuSans-6f" x="669.929688"/>
      <use xlink:href="#DejaVuSans-72" x="731.111328"/>
     </g>
    </g>
   </g>
  </g>
  <g id="text_26">
   <!-- $y$-Position Prediction -->
   <g transform="translate(514.74 22.08) scale(0.12 -0.12)">
    <defs>
     <path id="DejaVuSans-2d" d="M 313 2009 
L 1997 2009 
L 1997 1497 
L 313 1497 
L 313 2009 
z
" transform="scale(0.015625)"/>
    </defs>
    <use xlink:href="#DejaVuSans-Oblique-79" transform="translate(0 0.015625)"/>
    <use xlink:href="#DejaVuSans-2d" transform="translate(59.179688 0.015625)"/>
    <use xlink:href="#DejaVuSans-50" transform="translate(95.263672 0.015625)"/>
    <use xlink:href="#DejaVuSans-6f" transform="translate(155.566406 0.015625)"/>
    <use xlink:href="#DejaVuSans-73" transform="translate(216.748047 0.015625)"/>
    <use xlink:href="#DejaVuSans-69" transform="translate(268.847656 0.015625)"/>
    <use xlink:href="#DejaVuSans-74" transform="translate(296.630859 0.015625)"/>
    <use xlink:href="#DejaVuSans-69" transform="translate(335.839844 0.015625)"/>
    <use xlink:href="#DejaVuSans-6f" transform="translate(363.623047 0.015625)"/>
    <use xlink:href="#DejaVuSans-6e" transform="translate(424.804688 0.015625)"/>
    <use xlink:href="#DejaVuSans-20" transform="translate(488.183594 0.015625)"/>
    <use xlink:href="#DejaVuSans-50" transform="translate(519.970703 0.015625)"/>
    <use xlink:href="#DejaVuSans-72" transform="translate(580.273438 0.015625)"/>
    <use xlink:href="#DejaVuSans-65" transform="translate(621.386719 0.015625)"/>
    <use xlink:href="#DejaVuSans-64" transform="translate(682.910156 0.015625)"/>
    <use xlink:href="#DejaVuSans-69" transform="translate(746.386719 0.015625)"/>
    <use xlink:href="#DejaVuSans-63" transform="translate(774.169922 0.015625)"/>
    <use xlink:href="#DejaVuSans-74" transform="translate(829.150391 0.015625)"/>
    <use xlink:href="#DejaVuSans-69" transform="translate(868.359375 0.015625)"/>
    <use xlink:href="#DejaVuSans-6f" transform="translate(896.142578 0.015625)"/>
    <use xlink:href="#DejaVuSans-6e" transform="translate(957.324219 0.015625)"/>
   </g>
  </g>
 </g>
 <defs>
  <clipPath id="p07524d9a31">
   <rect x="144" y="77.76" width="892.8" height="226.8"/>
  </clipPath>
  <clipPath id="p06e2eb174a">
   <rect x="144" y="349.92" width="892.8" height="226.8"/>
  </clipPath>
 </defs>
</svg>
